<svg width="56" height="54" viewBox="0 0 56 54" fill="none" xmlns="http://www.w3.org/2000/svg">
<g id="Group 220">
<path id="Vector 19" d="M26.6745 44.6091C32.7702 41.2922 48.9326 32.66 47.8579 25.0795C46.7831 17.499 30.5748 9.51467 25.8893 6.43755C21.2039 3.36044 18.2088 8.17628 21.3641 11.3041C24.5193 14.4319 33.9222 22.1839 33.9222 22.1839C36.6257 24.7339 36.2557 26.129 34.053 28.5458C34.053 28.5458 24.9613 36.6794 21.9529 39.9328C18.9445 43.1861 20.5788 47.926 26.6745 44.6091Z" fill="#CFF9FF"/>
<path id="Vector 20" d="M11.1815 39.709C15.6326 37.287 27.4345 30.9837 26.6497 25.4484C25.8649 19.913 14.0295 14.0828 10.6081 11.8358C7.18676 9.5889 4.99976 13.1055 7.30372 15.3894C9.60769 17.6734 16.4738 23.3339 16.4738 23.3339C18.4479 25.196 18.1778 26.2147 16.5693 27.9795C16.5693 27.9795 9.93049 33.9187 7.73373 36.2943C5.53696 38.67 6.7303 42.131 11.1815 39.709Z" fill="#CFF9FF"/>
</g>
</svg>
