<svg width="40" height="40" viewBox="0 0 40 40" fill="none" xmlns="http://www.w3.org/2000/svg">
<g id="Group">
<path id="Vector" d="M17.5013 10.2958C18.5591 10.2957 19.5775 10.6908 20.3497 11.4012C21.1219 12.1115 21.5902 13.0838 21.6596 14.1209L21.6679 14.3894V21.9298L29.0929 22.9221C30.6615 23.0985 32.1155 23.8161 33.196 24.9472C34.2764 26.0783 34.9132 27.5494 34.9929 29.0985L35.0013 29.4293V29.9451C35.0041 31.8877 34.5657 33.8065 33.7179 35.5615C33.5279 35.9539 33.1869 36.256 32.7701 36.4014C32.3533 36.5468 31.8948 36.5236 31.4954 36.3368C31.0961 36.1501 30.7886 35.8151 30.6406 35.4056C30.4926 34.9961 30.5162 34.5457 30.7063 34.1533C31.2688 32.9907 31.5916 31.7302 31.6563 30.4445L31.6679 29.9451V29.4293C31.668 28.6684 31.3984 27.9312 30.9054 27.3443C30.4124 26.7574 29.7268 26.3576 28.9663 26.2134L28.6613 26.1692L21.2763 25.1818C20.5109 25.0929 19.8006 24.7463 19.2661 24.2009C18.7316 23.6555 18.4059 22.9449 18.3446 22.1902L18.3346 21.9298V14.3894C18.335 14.1848 18.2574 13.9875 18.1171 13.8363C17.9768 13.6851 17.784 13.591 17.5766 13.5726C17.3692 13.5541 17.1623 13.6125 16.9966 13.7365C16.8308 13.8604 16.7184 14.0407 16.6813 14.2421L16.6679 14.3894V28.3076C16.6677 28.6466 16.5603 28.9772 16.3607 29.2537C16.1611 29.5302 15.879 29.739 15.5534 29.8513C15.2279 29.9636 14.8748 29.9739 14.5431 29.8807C14.2113 29.7875 13.9172 29.5955 13.7013 29.331L13.1479 28.6646L12.6429 28.085C11.6779 27.0092 10.9746 26.4148 10.3763 26.1151C10.0227 25.9271 9.61938 25.8489 9.21961 25.8908L8.98461 25.9235L13.1579 34.1255C13.3467 34.4988 13.3833 34.9289 13.2605 35.3279C13.1376 35.7269 12.8645 36.0648 12.4968 36.2728C12.1291 36.4808 11.6944 36.5432 11.2815 36.4472C10.8686 36.3512 10.5085 36.1042 10.2746 35.7563L10.1779 35.5893L5.54961 26.4966C4.94961 25.3177 5.39461 23.7408 6.79461 23.1759C8.53294 22.4767 10.1846 22.3474 11.8863 23.1956C12.2563 23.3806 12.6196 23.6082 12.9763 23.8735L13.3346 24.1518V14.3894C13.3346 13.3037 13.7736 12.2625 14.555 11.4948C15.3364 10.7271 16.3962 10.2958 17.5013 10.2958ZM17.5013 3.74609C19.1762 3.74579 20.8285 4.12706 22.3281 4.85996C23.8278 5.59285 25.1341 6.65741 26.1443 7.96998C27.1545 9.28255 27.8412 10.8074 28.1504 12.4247C28.4596 14.042 28.3829 15.7077 27.9263 17.291C27.8709 17.5024 27.7731 17.7009 27.6386 17.8746C27.504 18.0484 27.3355 18.194 27.1428 18.3028C26.9502 18.4116 26.7373 18.4815 26.5168 18.5083C26.2962 18.5351 26.0725 18.5183 25.8586 18.4589C25.6448 18.3995 25.4452 18.2987 25.2716 18.1624C25.098 18.0261 24.9539 17.8571 24.8478 17.6653C24.7416 17.4734 24.6756 17.2627 24.6536 17.0455C24.6316 16.8282 24.654 16.6088 24.7196 16.4002C25.052 15.2458 25.0926 14.0291 24.8376 12.8559C24.5827 11.6826 24.04 10.5882 23.2567 9.66784C22.4735 8.74745 21.4733 8.02887 20.3431 7.57454C19.213 7.12021 17.987 6.94387 16.7717 7.06084C15.5564 7.1778 14.3885 7.58454 13.3696 8.2457C12.3506 8.90687 11.5114 9.80247 10.9248 10.8547C10.3383 11.9069 10.0221 13.084 10.0037 14.2835C9.9854 15.4831 10.2655 16.6689 10.8196 17.738C11.0207 18.1249 11.0572 18.5745 10.9209 18.9878C10.7846 19.4012 10.4868 19.7444 10.0929 19.942C9.69909 20.1396 9.24148 20.1754 8.82077 20.0415C8.40007 19.9076 8.05073 19.615 7.84961 19.2281C7.00655 17.6053 6.60161 15.7971 6.67355 13.9765C6.74548 12.156 7.2919 10.3841 8.26047 8.83042C9.22904 7.27676 10.5873 5.99338 12.2053 5.10316C13.8233 4.21293 15.6468 3.74567 17.5013 3.74609Z" fill="white"/>
</g>
</svg>
