<svg width="30" height="34" viewBox="0 0 30 34" fill="none" xmlns="http://www.w3.org/2000/svg">
<path d="M12.5013 6.9987C13.5591 6.99853 14.5775 7.40075 15.3497 8.12376C16.1219 8.84678 16.5902 9.83645 16.6596 10.892L16.6679 11.1654V18.8404L24.0929 19.8504C25.6615 20.0299 27.1155 20.7603 28.196 21.9116C29.2764 23.0629 29.9132 24.5602 29.9929 26.137L30.0013 26.4737V26.9987C30.0041 28.976 29.5657 30.929 28.7179 32.7154C28.5279 33.1147 28.1869 33.4222 27.7701 33.5702C27.3533 33.7182 26.8948 33.6946 26.4954 33.5045C26.0961 33.3145 25.7886 32.9735 25.6406 32.5567C25.4926 32.1399 25.5162 31.6814 25.7063 31.282C26.2688 30.0987 26.5916 28.8157 26.6563 27.507L26.6679 26.9987V26.4737C26.668 25.6992 26.3984 24.9488 25.9054 24.3515C25.4124 23.7541 24.7268 23.3471 23.9663 23.2004L23.6613 23.1554L16.2763 22.1504C15.5109 22.0599 14.8006 21.7071 14.2661 21.152C13.7316 20.5968 13.4059 19.8736 13.3446 19.1054L13.3346 18.8404V11.1654C13.335 10.9571 13.2574 10.7563 13.1171 10.6024C12.9768 10.4485 12.784 10.3527 12.5766 10.3339C12.3692 10.3151 12.1623 10.3746 11.9966 10.5007C11.8308 10.6269 11.7184 10.8105 11.6813 11.0154L11.6679 11.1654V25.332C11.6677 25.6771 11.5603 26.0135 11.3607 26.295C11.1611 26.5764 10.879 26.789 10.5534 26.9033C10.2279 27.0176 9.87485 27.028 9.54309 26.9332C9.21134 26.8383 8.9172 26.6428 8.70127 26.3737L8.14794 25.6954L7.64294 25.1054C6.67794 24.0104 5.97461 23.4054 5.37627 23.1004C5.0227 22.909 4.61938 22.8293 4.21961 22.872L3.98461 22.9054L8.15794 31.2537C8.34666 31.6337 8.38334 32.0714 8.26048 32.4776C8.13763 32.8837 7.8645 33.2277 7.49678 33.4394C7.12905 33.6511 6.69443 33.7146 6.28152 33.6169C5.8686 33.5192 5.50849 33.2677 5.27461 32.9137L5.17794 32.7437L0.549606 23.4887C-0.0503945 22.2887 0.394606 20.6837 1.79461 20.1087C3.53294 19.397 5.18461 19.2654 6.88627 20.1287C7.25627 20.317 7.61961 20.5487 7.97627 20.8187L8.33461 21.102V11.1654C8.33461 10.0603 8.77359 9.00049 9.55499 8.21909C10.3364 7.43768 11.3962 6.9987 12.5013 6.9987ZM12.5013 0.332032C14.1762 0.331722 15.8285 0.719802 17.3281 1.46578C18.8278 2.21176 20.1341 3.29531 21.1443 4.63132C22.1545 5.96732 22.8412 7.51938 23.1504 9.16556C23.4596 10.8117 23.3829 12.5072 22.9263 14.1187C22.8709 14.3339 22.7731 14.5359 22.6386 14.7128C22.504 14.8896 22.3355 15.0378 22.1428 15.1486C21.9502 15.2594 21.7373 15.3305 21.5168 15.3578C21.2962 15.3851 21.0725 15.368 20.8586 15.3075C20.6448 15.2471 20.4452 15.1444 20.2716 15.0057C20.098 14.867 19.9539 14.6949 19.8478 14.4997C19.7416 14.3044 19.6756 14.0899 19.6536 13.8688C19.6316 13.6477 19.654 13.4244 19.7196 13.212C20.052 12.037 20.0926 10.7986 19.8376 9.60442C19.5827 8.41021 19.04 7.2963 18.2567 6.35948C17.4735 5.42266 16.4733 4.69126 15.3431 4.22882C14.213 3.76638 12.987 3.58689 11.7717 3.70594C10.5564 3.825 9.38852 4.23899 8.36958 4.91196C7.35063 5.58493 6.51142 6.49652 5.92484 7.56754C5.33827 8.63855 5.02208 9.83659 5.00374 11.0576C4.9854 12.2786 5.26546 13.4856 5.81961 14.5737C6.02073 14.9675 6.05716 15.4252 5.92088 15.8459C5.78461 16.2666 5.48679 16.6159 5.09294 16.817C4.69909 17.0182 4.24148 17.0546 3.82077 16.9183C3.40007 16.782 3.05073 16.4842 2.84961 16.0904C2.00655 14.4386 1.60161 12.5982 1.67355 10.7451C1.74548 8.89207 2.2919 7.08851 3.26047 5.50712C4.22904 3.92572 5.58735 2.61944 7.20534 1.71332C8.82333 0.807202 10.6468 0.331595 12.5013 0.332032Z" fill="#60B6BA"/>
</svg>
