<svg width="113" height="33" viewBox="0 0 113 33" fill="none" xmlns="http://www.w3.org/2000/svg">
<path d="M0.0392305 14.9403C-0.0607695 15.1247 0.0392305 15.4936 0.23923 15.4014L0.339231 14.7559L0.0392305 14.9403Z" fill="#EB3B24"/>
<path d="M1.13594 16.0415C1.33594 15.766 1.53594 15.2151 1.33594 14.6641C1.13594 15.2151 1.13594 15.0314 0.935937 15.6742C0.735937 15.766 0.635938 15.4906 0.635938 15.3069C0.635938 15.4906 0.335938 15.2151 0.335938 15.5824C0.535938 16.0415 0.835938 16.0415 1.03594 15.6742C1.23594 15.766 1.13594 15.8579 1.13594 16.0415Z" fill="#EB3B24"/>
<path d="M16.6391 16.4116L16.5391 16.3154C16.6391 16.4116 16.6391 16.4116 16.6391 16.4116Z" fill="#EB3B24"/>
<path d="M26.2406 16.4072C26.1406 16.4072 26.1406 16.5034 26.1406 16.5034C26.2406 16.5034 26.2406 16.4072 26.2406 16.4072Z" fill="#EB3B24"/>
<path d="M27.9429 16.959C27.8429 17.0528 27.9429 17.0528 27.9429 16.959V16.959Z" fill="#EB3B24"/>
<path d="M16.6406 16.4072L16.9406 16.5931C16.9406 16.4072 16.8406 16.4072 16.6406 16.4072Z" fill="#EB3B24"/>
<path d="M3.24063 14.4814C3.14063 14.4814 3.14062 14.5744 3.14062 14.6673L3.24063 14.5744V14.4814Z" fill="#EB3B24"/>
<path d="M12.4359 17.0508C12.3359 17.1442 12.3359 17.2376 12.3359 17.331L12.4359 17.0508Z" fill="#EB3B24"/>
<path d="M9.23976 17.2319C9.33976 17.2319 9.33976 16.7726 9.33976 16.4971C9.33976 16.6808 9.23976 16.7726 9.23976 16.8645C9.13976 16.9563 9.23976 17.14 9.23976 17.2319Z" fill="#EB3B24"/>
<path d="M109.139 15.0332C109.039 15.1266 109.039 15.22 109.039 15.3134L109.139 15.0332Z" fill="#EB3B24"/>
<path d="M30.9429 17.5088C30.8429 17.6026 30.9429 17.6026 30.9429 17.5088V17.5088Z" fill="#EB3B24"/>
<path d="M58.3372 16.5897C58.0372 16.1308 58.8372 16.039 58.3372 15.4883C58.4372 15.6719 57.9372 16.3144 58.3372 16.5897Z" fill="#EB3B24"/>
<path d="M3.33594 14.585H3.43594C3.43594 14.4912 3.33594 14.4912 3.33594 14.585Z" fill="#EB3B24"/>
<path d="M37.8422 17.0511C37.8422 16.9582 37.8422 16.8652 37.7422 16.8652C37.7422 16.8652 37.7422 16.8652 37.8422 17.0511Z" fill="#EB3B24"/>
<path d="M32.6406 16.4072L32.7406 16.5034C32.7406 16.5034 32.7406 16.4072 32.6406 16.4072Z" fill="#EB3B24"/>
<path d="M40.4375 16.2257C40.5375 16.2257 40.5375 16.3196 40.6375 16.2257C40.6375 16.2257 40.6375 16.2257 40.6375 16.1318C40.5375 16.2257 40.5375 16.3196 40.4375 16.2257Z" fill="#EB3B24"/>
<path d="M43.2391 16.1372C43.2391 16.1372 43.2391 16.041 43.1391 16.041H43.0391L43.2391 16.1372Z" fill="#EB3B24"/>
<path d="M97.0391 12.6484C97.1391 12.8325 97.1391 12.9245 97.1391 13.1085C97.0391 12.7404 97.5391 12.6484 97.0391 12.6484Z" fill="#EB3B24"/>
<path d="M3.24219 14.7591C3.24219 14.6662 3.24219 14.5732 3.34219 14.5732H3.24219C3.24219 14.6662 3.24219 14.7591 3.24219 14.7591Z" fill="#EB3B24"/>
<path d="M40.4375 12.0977L40.8375 12.1939C40.7375 12.1939 40.6375 12.0977 40.4375 12.0977Z" fill="#EB3B24"/>
<path d="M77.0391 12.5601L77.1391 12.4639C77.1391 12.4639 77.1391 12.4639 77.0391 12.5601Z" fill="#EB3B24"/>
<path d="M42.2422 12.0977C42.3422 12.2819 42.4422 12.3741 42.5422 12.4662V12.3741L42.2422 12.0977Z" fill="#EB3B24"/>
<path d="M100.041 11.914C99.6406 11.914 99.8406 12.5556 99.7406 12.9222C99.2406 13.1056 99.5406 12.4639 99.3406 12.0973C99.0406 12.2806 98.7406 12.9222 98.5406 12.8306C98.5406 12.7389 98.4406 12.6473 98.5406 12.5556C98.2406 13.1056 97.5406 12.5556 97.1406 13.2889C97.1406 13.1972 97.1406 13.1972 97.1406 13.1056C97.2406 13.4722 97.2406 13.7472 97.2406 14.0222C97.0406 14.0222 96.8406 14.4805 96.8406 14.0222C96.9406 14.0222 96.9406 13.8389 97.0406 13.7472L96.8406 13.9305C96.5406 13.2889 97.0406 13.7472 97.0406 13.2889C96.6406 13.4722 96.2406 14.0222 95.9406 13.8389C95.8406 13.1972 96.6406 13.6555 96.2406 13.1056L96.7406 13.3805C96.4406 12.3723 97.0406 13.4722 96.7406 12.3723C96.1406 12.1889 96.0406 12.6473 95.4406 12.4639C95.3406 12.8306 95.4406 13.0139 95.3406 13.2889C94.4406 13.9305 94.6406 11.7306 94.0406 12.5556C93.8406 13.0139 93.8406 13.7472 93.3406 13.3805L93.5406 12.6473C92.9406 12.5556 93.2406 13.6555 92.6406 13.1972C92.7406 12.9222 93.1406 13.0139 93.0406 12.9222C92.6406 12.3723 92.7406 13.2889 92.4406 13.2889L92.3406 12.6473C91.7406 12.7389 91.0406 13.1972 90.3406 13.2889C90.3406 13.1056 90.5406 12.9222 90.3406 12.7389C89.4406 13.0139 88.5406 12.6473 87.6406 12.2806L87.3406 12.8306C87.2406 12.8306 87.2406 12.5556 87.2406 12.4639C86.9406 12.2806 87.2406 12.8306 87.0406 13.0139C86.8406 13.0139 86.8406 12.7389 86.9406 12.5556C86.3406 13.0139 85.3406 13.5639 84.7406 12.9222L84.8406 12.7389C84.3406 12.5556 84.3406 13.8389 83.8406 13.2889L83.9406 13.1972C82.9406 12.9222 81.7406 13.4722 81.0406 12.6473C80.8406 13.3805 80.0406 12.2806 79.9406 13.3805C79.3406 12.8306 79.5406 12.6473 78.7406 12.2806C78.5406 12.1889 78.4406 12.9222 78.1406 13.1056V12.5556L77.7406 13.1056L77.5406 12.4639L77.2406 12.6473C77.3406 12.6473 77.4406 12.9222 77.4406 13.1056C77.0406 13.3805 76.4406 12.7389 76.4406 12.3723L75.5406 12.8306C75.5406 12.6473 75.7406 12.5556 75.8406 12.3723C75.3406 12.9222 75.7406 11.7306 75.2406 12.2806C75.3406 12.3723 75.2406 12.6473 75.2406 12.7389C75.0406 12.3723 74.5406 12.3723 74.1406 12.5556L74.2406 12.1889C73.5406 12.0973 72.7406 12.3723 71.9406 12.3723C72.2406 12.5556 72.1406 13.1972 71.9406 13.2889L71.8406 12.6473C71.6406 13.0139 72.0406 12.8306 71.7406 13.2889C71.4406 13.1972 71.5406 12.6473 71.7406 12.3723L71.3406 12.5556C71.3406 12.3723 71.4406 12.2806 71.4406 12.0973C71.2406 12.4639 70.8406 11.4557 70.6406 12.0973V11.914C69.8406 11.914 69.5406 12.0973 68.8406 12.0973C68.8406 12.6473 68.5406 12.4639 68.3406 12.9222C67.8406 12.7389 67.3406 12.3723 66.8406 12.3723C66.4406 12.6473 66.7406 12.8306 66.5406 13.1056C66.5406 12.6473 65.9406 12.6473 66.2406 12.3723C65.5406 12.4639 65.3406 12.4639 64.5406 12.8306C64.6406 13.0139 64.7406 13.1056 64.6406 13.2889C64.4406 13.3805 64.2406 13.1056 64.3406 12.8306V12.7389C63.3406 13.4722 62.1406 11.364 61.3406 12.2806V12.1889L60.5406 12.7389C60.1406 12.6473 60.7406 12.3723 60.5406 12.0973C59.6406 12.8306 59.1406 12.0056 58.4406 12.4639C57.9406 11.089 56.5406 12.5556 55.7406 11.639V12.0056C55.5406 12.2806 55.5406 11.8223 55.3406 11.7306C55.3406 12.0056 55.5406 12.0056 55.4406 12.1889C53.8406 12.5556 52.0406 11.7306 50.4406 11.4557C49.8406 11.364 50.1406 13.1056 49.3406 12.3723L49.5406 11.7306C48.3406 12.4639 47.0406 11.7306 45.8406 12.3723C45.9406 12.1889 45.9406 12.0056 46.0406 12.0056C45.7406 11.5473 45.1406 12.0056 45.1406 12.3723C44.9406 12.3723 45.0406 12.0056 44.9406 11.914C44.6406 11.639 44.3406 12.4639 44.1406 12.0973C44.1406 12.0056 44.2406 11.914 44.2406 11.914C44.0406 12.0973 43.4406 11.914 43.6406 12.3723C43.1406 12.0973 42.7406 12.6473 42.4406 12.3723C42.2406 12.9222 41.6406 12.0973 41.6406 12.9222C41.6406 12.0973 40.8406 12.2806 40.5406 12.6473C40.6406 12.3723 40.2406 12.3723 40.3406 12.0056C40.0406 12.0056 39.7406 12.1889 39.8406 12.6473C39.2406 11.639 38.6406 13.4722 38.2406 12.1889C37.3406 12.6473 36.4406 13.0139 35.5406 13.1972C35.5406 12.3723 36.5406 13.1056 36.4406 12.1889C35.6406 12.5556 35.1406 13.2889 34.3406 13.1056C34.1406 13.0139 34.4406 12.7389 34.5406 12.5556C33.7406 12.9222 32.9406 12.5556 32.2406 13.0139C32.2406 12.9222 32.3406 12.8306 32.3406 12.8306C32.2406 12.8306 32.0406 12.7389 32.0406 13.1056L32.1406 13.0139C32.4406 13.5639 31.6406 14.2055 31.6406 14.4805C31.8406 13.3805 30.9406 14.2055 31.2406 12.8306C31.1406 12.9222 31.0406 13.1056 31.0406 13.3805C30.9406 13.2889 30.8406 13.1972 30.9406 12.8306C30.4406 13.0139 30.6406 13.4722 30.1406 13.4722C30.1406 13.2889 30.2406 13.1972 30.2406 13.0139C30.0406 13.3805 29.8406 13.7472 29.4406 13.5639C29.4406 13.4722 29.4406 13.2889 29.5406 13.2889C28.8406 13.3805 28.4406 14.2972 27.6406 13.9305C27.8406 13.1056 27.3406 13.6555 27.3406 13.0139L27.0406 13.4722L27.2406 13.8389C26.8406 13.8389 26.6406 14.3888 26.3406 14.1138L26.5406 13.8389L25.8406 14.0222L26.2406 14.2972C25.9406 14.6638 26.3406 15.1221 25.8406 15.0305C25.9406 14.9388 25.4406 15.0305 25.3406 14.6638C25.1406 14.8471 25.0406 15.1221 24.7406 14.9388C24.6406 14.7555 24.7406 14.2055 24.7406 14.0222C24.6406 14.5721 23.9406 14.2055 23.7406 14.8471C23.8406 14.6638 23.8406 14.2972 23.7406 14.2972L23.6406 14.7555C23.4406 14.5721 23.4406 14.5721 23.4406 14.2972C22.9406 14.2055 23.6406 15.1221 23.0406 14.8471C23.0406 14.8471 23.0406 14.7555 23.1406 14.6638C22.5406 14.4805 22.0406 15.0305 21.4406 14.7555C21.2406 14.1138 21.9406 14.5721 21.7406 14.0222C20.9406 14.2055 20.1406 14.9388 19.4406 14.7555L19.5406 14.8471C19.4406 15.8554 18.9406 14.3888 18.6406 14.8471C18.7406 14.7555 18.7406 14.2972 18.7406 14.3888C18.2406 14.2972 17.7406 14.6638 16.9406 15.0305L17.0406 14.7555C16.7406 14.5721 16.2406 14.6638 15.9406 14.5721C15.8406 14.8471 15.6406 14.7555 15.8406 15.1221C14.7406 13.7472 13.9406 15.9471 13.0406 14.7555C13.1406 14.7555 13.2406 14.5721 13.2406 14.5721L12.5406 14.8471C12.6406 15.3054 12.6406 15.1221 12.8406 15.3971C12.7406 15.6721 12.5406 15.8554 12.3406 15.8554C12.6406 15.5804 12.3406 15.2138 12.1406 14.9388C12.1406 15.0305 12.1406 15.2138 12.1406 15.3054C11.7406 14.5721 12.1406 16.1304 11.5406 15.6721V15.4888C11.3406 15.5804 11.1406 15.9471 10.9406 15.8554C10.8406 15.3971 11.1406 15.5804 11.1406 15.2138C10.8406 15.2138 10.5406 16.1304 10.2406 15.6721C10.3406 15.4888 10.5406 15.4888 10.6406 15.3971C10.3406 14.8471 10.2406 14.9388 10.0406 14.9388L9.54063 14.6638L9.64063 14.8471C9.34063 16.1304 8.84062 15.1221 8.44062 15.9471C8.94062 15.1221 8.54063 15.4888 8.54063 14.9388C8.44063 14.7555 8.24062 14.6638 8.24062 14.4805C8.04063 14.9388 7.84063 14.1138 7.54063 14.8471C7.54063 14.6638 7.24063 14.8471 7.34063 14.3888C7.04063 14.5721 7.44063 14.6638 7.44063 14.9388C6.94063 15.5804 6.24062 14.2055 5.64062 15.1221C5.04063 15.4888 4.94063 16.1304 4.44063 16.4054C4.24063 16.1304 4.54063 15.7637 4.54063 15.7637C4.24063 15.4888 4.04063 15.5804 3.74063 15.7637C3.84063 15.5804 3.74063 15.4888 3.64062 15.3054C3.44062 15.3971 3.54063 15.9471 3.24063 15.6721C3.24063 15.4888 3.34063 15.1221 3.44063 14.9388C3.14063 15.1221 2.94062 15.4888 2.64062 15.6721C2.54062 15.3971 2.74063 15.2138 2.84063 15.0305C2.54063 15.2138 2.04063 15.3054 1.94063 15.8554L1.84063 15.5804C1.74063 15.5804 1.74063 15.1221 1.84063 15.0305C2.14062 14.6638 2.24063 15.2138 2.24063 15.3971L2.14062 15.5804C2.44062 16.5887 2.94063 15.3971 3.34063 15.3971L3.24063 16.1304L3.64062 15.4888C3.74063 15.6721 3.84063 16.1304 3.64062 16.2221C3.94062 16.5887 3.84063 15.9471 4.14062 16.3137C4.14062 16.497 4.04063 16.497 4.04063 16.497L4.34063 16.2221C4.34063 16.4054 4.44062 16.772 4.24062 16.6804C4.74062 17.1387 5.04062 16.0387 5.24062 16.6804V16.772C5.94062 16.497 5.24062 16.222 5.74062 15.4888L6.14062 16.8637V16.3137C6.24062 16.3137 6.34063 16.4054 6.34063 16.5887C6.64063 16.222 6.24063 16.3137 6.44063 15.9471C6.84063 16.4054 7.44063 15.6721 7.54063 16.5887C7.64062 16.1304 7.14062 16.3137 7.54063 15.9471C7.64062 16.8637 7.94063 15.7637 8.34063 16.2221C8.24063 16.6804 7.94062 16.497 8.24062 16.8637C8.44062 16.0387 8.84063 17.047 9.14063 16.8637C9.14063 16.222 9.74062 16.5887 10.1406 16.3137C10.1406 16.497 11.0406 16.6804 11.4406 16.8637V16.9553C11.5406 16.3137 11.9406 16.4054 12.2406 16.2221C12.2406 16.5887 12.2406 16.772 12.0406 16.9553H12.3406C12.4406 16.772 12.4406 16.5887 12.6406 16.497L12.5406 17.047C12.9406 17.047 13.3406 16.4054 13.8406 16.772C13.8406 16.3137 13.3406 15.4888 13.9406 15.1221C13.9406 15.3971 14.0406 15.7637 13.8406 15.9471C13.8406 15.9471 14.0406 15.7637 14.1406 15.8554L14.0406 16.3137C14.2406 16.497 14.1406 15.9471 14.3406 15.9471C14.3406 16.3137 14.4406 16.222 14.4406 16.497C14.4406 16.497 14.2406 16.3137 14.2406 16.497C14.4406 16.5887 14.7406 16.772 14.8406 17.047C14.8406 16.8637 14.8406 16.5887 14.9406 16.497C15.3406 16.497 15.1406 16.9553 15.3406 17.1387C15.4406 16.8637 15.6406 17.1387 15.6406 16.5887C15.7406 16.5887 15.7406 16.8637 15.8406 16.9553C16.0406 16.6804 16.8406 16.8637 16.5406 16.3137H16.4406C17.0406 15.7637 17.8406 16.5887 18.5406 16.3137V16.497C18.9406 16.3137 19.4406 16.3137 19.6406 15.9471C19.7406 15.9471 19.9406 16.222 19.9406 16.497C20.2406 16.3137 20.2406 16.1304 20.7406 16.4054C20.4406 16.772 20.8406 16.6804 20.4406 16.6804C20.8406 16.8637 20.9406 17.1387 21.3406 16.5887C21.2406 17.047 21.6406 17.1387 21.8406 17.047L21.5406 16.6804C21.7406 16.5887 21.9406 16.6804 22.1406 16.6804L22.0406 17.322C22.8406 18.0553 23.4406 16.0387 24.1406 17.2303C24.3406 16.772 23.6406 16.9553 23.8406 16.4054C24.2406 16.497 24.6406 17.322 24.7406 17.322C25.2406 17.597 25.1406 16.4054 25.7406 16.5887C25.6406 16.4054 25.5406 15.7637 25.9406 15.5804C26.3406 15.6721 26.4406 16.497 26.2406 16.6804C26.1406 16.6804 26.1406 16.5887 26.1406 16.5887C26.0406 16.6804 25.8406 16.772 26.0406 17.047V16.8637C26.2406 17.047 26.7406 17.047 26.6406 17.4136C26.9406 17.2303 26.7406 17.047 26.5406 16.9553C27.0406 17.2303 27.2406 16.9553 27.7406 17.1387C27.6406 17.047 27.5406 16.772 27.6406 16.772C28.3406 17.047 27.9406 16.3137 28.4406 16.2221C28.7406 16.5887 28.3406 17.047 28.8406 16.6804C29.1406 16.8637 28.9406 17.2303 28.8406 17.4136C29.2406 16.9553 29.6406 17.6886 29.9406 17.6886L29.7406 17.872C29.8406 17.7803 30.0406 17.7803 30.1406 17.7803L30.0406 17.2303C30.1406 17.322 30.3406 17.322 30.3406 17.5053C30.4406 17.2303 30.2406 16.772 30.4406 16.4054C30.6406 16.5887 31.0406 16.1304 31.0406 16.6804C30.4406 16.497 31.1406 17.2303 30.6406 17.4136C30.7406 17.322 30.8406 17.322 31.0406 17.4136C31.0406 17.5053 31.0406 17.5053 30.9406 17.597C31.5406 18.0553 31.1406 16.9553 31.7406 16.9553C31.6406 17.322 31.9406 17.597 31.9406 17.5053C31.7406 17.5053 31.8406 16.9553 32.0406 16.6804C32.4406 16.9553 32.4406 16.497 32.6406 16.497L32.4406 16.4054C32.5406 16.0387 32.6406 16.1304 32.9406 16.0387C32.9406 16.3137 32.7406 16.222 32.8406 16.3137C33.1406 15.7637 33.5406 16.8637 33.9406 16.497C34.1406 16.6804 33.9406 17.1387 34.1406 17.2303C34.5406 16.772 34.6406 17.6886 35.1406 17.322C34.9406 16.8637 34.9406 16.9553 35.2406 16.5887L34.4406 16.9553L34.9406 16.3137C34.7406 16.3137 34.4406 16.5887 34.3406 16.497C34.5406 16.1304 34.5406 16.222 34.4406 15.8554C34.7406 16.497 35.0406 15.4888 35.4406 15.8554V16.9553C36.0406 17.4136 36.4406 16.4054 37.1406 16.5887L36.9406 16.4054C37.0406 15.9471 37.3406 16.3137 37.6406 16.1304C37.6406 16.497 37.7406 16.5887 37.8406 16.8637C37.8406 16.5887 38.3406 16.8637 38.4406 16.1304L38.7406 16.5887C39.3406 16.772 39.3406 15.5804 39.9406 15.6721C39.7406 16.0387 40.0406 16.3137 39.6406 16.5887C39.8406 16.5887 40.0406 16.6804 40.0406 16.4054C40.1406 16.5887 40.5406 15.9471 40.7406 16.2221C40.8406 16.0387 40.8406 15.6721 41.0406 15.6721C41.0406 15.7637 41.0406 15.8554 41.0406 15.8554C41.0406 15.6721 41.3406 15.5804 41.1406 15.2138C41.7406 16.3137 42.7406 15.1221 43.2406 16.0387C43.6406 15.9471 44.1406 15.7637 44.5406 15.7637C44.5406 15.8554 44.5406 15.9471 44.4406 15.9471C44.9406 16.3137 44.7406 14.9388 45.3406 15.3054C45.6406 15.8554 45.0406 15.6721 45.2406 15.8554C45.3406 17.047 45.9406 15.6721 46.3406 16.4054L46.2406 16.497C46.5406 16.8637 46.9406 16.0387 47.4406 16.1304C47.4406 16.1304 47.4406 16.222 47.4406 16.3137C47.7406 15.6721 48.3406 15.4888 48.8406 15.3054C48.7406 15.7637 48.6406 15.5804 48.7406 16.0387C48.9406 15.9471 48.6406 15.3054 49.0406 15.1221C49.1406 15.3971 49.4406 15.5804 49.5406 16.1304H49.1406C49.3406 16.772 49.6406 16.1304 49.8406 16.2221V16.497C50.4406 16.4054 50.4406 15.6721 51.1406 15.7637L51.0406 15.5804C51.3406 14.8471 51.3406 15.9471 51.7406 15.4888L51.8406 16.2221C52.0406 16.0387 52.6406 15.4888 53.0406 15.3971C52.8406 15.9471 52.3406 16.222 52.0406 16.497C52.2406 16.497 52.8406 16.4054 52.9406 16.0387C52.8406 16.1304 52.7406 16.3137 52.6406 16.2221C52.9406 15.6721 53.3406 15.3971 53.7406 15.3971C53.6406 16.772 54.9406 15.7637 55.3406 16.8637C56.1406 16.3137 56.9406 17.047 57.9406 16.9553C57.6406 15.8554 58.2406 16.9553 58.1406 15.7637C58.3406 15.6721 58.4406 15.6721 58.4406 15.7637L59.1406 16.4054C59.3406 16.772 58.9406 16.6804 58.9406 16.8637C59.4406 16.9553 59.1406 17.322 59.4406 17.597C59.3406 17.2303 59.6406 17.047 59.8406 17.1387L59.4406 16.497C60.1406 15.9471 60.0406 17.4136 60.7406 16.8637L60.5406 17.2303C60.9406 17.047 61.8406 17.2303 62.2406 16.3137C62.3406 16.4054 62.3406 16.772 62.2406 16.8637C63.0406 17.047 64.1406 15.9471 64.7406 16.497L64.6406 16.772C64.8406 16.6804 64.9406 16.222 65.1406 16.497C65.1406 16.5887 65.0406 16.772 65.1406 16.772C65.2406 16.6804 65.5406 16.3137 65.7406 16.497L65.5406 16.772C66.3406 17.1387 66.8406 16.0387 67.5406 15.8554C67.5406 16.6804 68.1406 16.9553 68.5406 17.047V17.1387C69.5406 17.2303 70.1406 16.497 71.0406 16.2221C71.5406 17.1387 72.9406 16.5887 73.7406 17.1387C73.6406 16.9553 73.7406 16.497 73.9406 16.4054C74.1406 16.5887 74.5406 15.8554 74.4406 16.5887H74.3406C74.4406 17.322 74.9406 17.1387 75.2406 17.1387L75.3406 16.1304C76.2406 17.5053 77.6406 15.6721 78.1406 16.8637C78.3406 16.5887 78.6406 16.5887 78.8406 16.4054V16.9553C79.4406 17.1387 79.7406 17.1387 80.4406 17.047L80.2406 17.4136C80.6406 17.4136 80.7406 15.9471 81.1406 15.8554L81.2406 16.5887C81.9406 16.5887 82.6406 17.2303 83.3406 16.5887C83.3406 16.6804 83.3406 16.9553 83.1406 16.9553C83.4406 16.9553 84.4406 17.5053 84.3406 16.4054C84.3406 17.1387 85.0406 16.497 85.4406 16.2221L85.3406 16.772C85.6406 16.1304 85.6406 15.9471 86.1406 15.7637C86.2406 15.8554 86.2406 16.1304 86.0406 16.0387C86.4406 16.3137 86.3406 15.5804 86.7406 15.8554L86.5406 16.2221C86.9406 16.2221 86.8406 16.1304 87.0406 15.6721C87.2406 15.4888 87.7406 15.7637 87.7406 16.3137C87.8406 16.0387 88.0406 15.6721 88.2406 15.7637C88.2406 15.9471 88.1406 16.0387 88.1406 16.1304C88.7406 16.497 89.0406 15.5804 89.4406 16.0387C89.4406 16.222 89.4406 16.3137 89.5406 16.3137C89.0406 16.3137 88.6406 16.2221 88.7406 16.2221C88.7406 16.6804 89.1406 16.772 88.8406 17.4136C89.1406 17.047 89.7406 16.3137 90.1406 16.497C90.1406 16.497 90.1406 16.5887 90.1406 16.6804V16.772C90.2406 16.8637 90.3406 16.772 90.3406 16.6804C90.4406 16.772 90.5406 16.772 90.6406 16.8637C90.6406 17.2303 91.0406 17.047 91.2406 17.1387C91.2406 16.5887 91.4406 16.6804 91.2406 16.3137C91.2406 16.3137 91.2406 16.4054 91.0406 16.4054C91.0406 16.4054 90.9406 16.4054 90.9406 16.497C90.8406 16.497 90.6406 16.497 90.4406 16.497C90.6406 16.222 90.7406 16.0387 90.9406 16.3137C91.0406 15.9471 91.1406 15.6721 91.2406 15.4888C91.5406 16.222 92.0406 16.5887 92.0406 17.047C92.6406 16.772 93.4406 16.8637 93.8406 15.9471C94.0406 15.8554 94.0406 16.222 94.1406 16.4054C94.0406 16.497 93.9406 16.497 93.8406 16.5887C94.1406 16.3137 94.8406 16.497 94.9406 15.8554C95.3406 16.1304 94.7406 16.497 95.2406 16.4054L95.1406 16.5887C96.3406 17.6886 97.0406 14.8471 98.3406 16.3137C98.2406 16.222 98.2406 16.222 98.2406 16.0387C99.7406 16.6804 101.241 15.4888 102.741 16.497C103.141 16.6804 103.241 16.222 103.441 15.9471L103.541 16.497L103.941 15.8554C104.541 15.3971 104.941 17.2303 105.741 16.3137L105.641 15.9471C105.941 16.0387 106.541 15.7637 106.441 16.1304C106.441 16.0387 106.541 15.7637 106.641 15.9471V16.2221L107.341 15.7637C107.841 15.9471 107.241 16.9553 108.041 16.9553C108.341 16.8637 108.841 16.1304 108.741 15.9471C108.641 15.9471 108.441 15.7637 108.441 15.4888L108.741 15.3054C108.841 14.4805 109.041 13.5639 108.341 13.0139L107.841 13.5639L107.741 13.1056H108.141C107.941 12.7389 107.841 13.0139 107.641 13.2889C107.641 13.1056 107.541 12.9222 107.441 12.8306L107.041 13.6555C106.941 13.2889 107.241 13.0139 106.941 12.8306C106.741 13.1972 107.141 13.5639 106.741 13.8389C106.541 13.4722 106.641 13.1056 106.341 13.4722C106.341 13.2889 106.341 13.1056 106.441 13.0139C106.241 13.2889 105.841 13.1056 105.741 13.5639C105.541 13.1056 104.941 13.6555 105.041 12.8306C104.941 13.0139 104.641 13.4722 104.441 13.4722C104.841 12.4639 103.641 13.3805 103.741 12.3723C103.441 13.1972 102.741 12.7389 102.241 13.1972C102.241 13.1056 102.341 13.0139 102.341 13.0139C102.041 12.9222 101.941 12.6473 101.841 12.5556C101.841 13.2889 101.341 13.4722 101.141 13.8389C100.841 13.1056 101.341 13.0139 101.241 12.3723C101.241 12.9222 100.641 12.9222 100.741 13.4722C100.441 13.0139 100.541 13.2889 100.341 12.6473C100.241 13.5639 100.141 12.8306 99.8406 13.3805C99.4406 12.9222 99.7406 12.5556 99.3406 12.8306C99.6406 12.2806 100.041 11.914 100.041 11.914ZM90.2406 13.3805C90.3406 13.3805 90.4406 13.3805 90.4406 13.3805C90.3406 13.3805 90.3406 13.3805 90.2406 13.3805ZM89.3406 13.3805C89.4406 13.3805 89.5406 13.3805 89.7406 13.3805C89.7406 13.5639 89.7406 13.7472 89.6406 13.7472C89.7406 13.6555 89.5406 13.5639 89.3406 13.3805ZM91.0406 17.047C90.9406 17.1387 90.8406 17.047 90.8406 16.9553C90.9406 16.9553 90.9406 16.9553 91.0406 16.8637C91.0406 16.8637 91.0406 16.8637 91.0406 16.772C91.1406 16.8637 91.1406 16.9553 91.0406 17.047Z" fill="#EB3B24"/>
<path d="M91.3413 16.3177C91.3413 16.2248 91.3413 16.2248 91.3413 16.1318C91.3413 16.2248 91.2413 16.3177 91.3413 16.3177Z" fill="#EB3B24"/>
<path d="M11.9359 14.6695C11.9359 14.6695 11.9359 14.5732 11.8359 14.5732L11.9359 14.6695Z" fill="#EB3B24"/>
<path d="M9.94062 14.6673L9.64062 14.4814C9.84063 14.5744 9.94062 14.6673 9.94062 14.6673Z" fill="#EB3B24"/>
<path d="M32.4375 13.0187C32.5375 12.9239 32.6375 12.829 32.4375 13.0187V13.0187Z" fill="#EB3B24"/>
<path d="M25.3359 14.4862C25.4359 14.3928 25.4359 14.2994 25.5359 14.2061C25.4359 14.2061 25.3359 14.2061 25.3359 14.4862Z" fill="#EB3B24"/>
<path d="M25.8391 14.2096C25.7391 14.115 25.6391 14.115 25.5391 14.2096C25.6391 14.2096 25.7391 14.3042 25.8391 14.2096Z" fill="#EB3B24"/>
<path d="M1.53906 14.761L1.73906 14.6671C1.63906 14.5732 1.63906 14.5732 1.53906 14.761Z" fill="#EB3B24"/>
<path d="M4.5375 14.5744C4.4375 14.5744 4.1375 14.2059 3.9375 14.298V14.4823C4.0375 14.2059 4.3375 14.8508 4.5375 14.5744Z" fill="#EB3B24"/>
<path d="M7.14062 16.7716L6.64062 16.6797C6.74063 16.8635 6.84063 17.1393 6.64062 17.2312C7.24063 17.6908 6.44063 16.6797 7.14062 16.7716Z" fill="#EB3B24"/>
<path d="M8.74271 17.0508C8.44271 17.1429 8.74271 17.3272 8.74271 17.4193C8.94271 17.2351 8.94271 17.1429 8.74271 17.0508Z" fill="#EB3B24"/>
<path d="M20.1406 16.5908V17.0509C20.3406 16.9589 20.1406 16.8669 20.1406 16.5908Z" fill="#EB3B24"/>
<path d="M22.2375 14.1163L21.9375 13.8398V14.2084L22.2375 14.1163Z" fill="#EB3B24"/>
<path d="M23.6391 17.4193H23.5391L23.8391 17.2334L23.6391 17.4193Z" fill="#EB3B24"/>
<path d="M42.736 16.5937L42.636 16.0391C42.536 16.1315 42.536 16.7786 42.736 16.5937Z" fill="#EB3B24"/>
<path d="M50.9375 15.8571C51.0375 16.1333 51.2375 16.3174 51.4375 16.0412C51.2375 15.9492 51.0375 15.7651 50.9375 15.8571Z" fill="#EB3B24"/>
<path d="M75.7391 16.959L75.5391 17.1449L75.8391 16.959H75.7391Z" fill="#EB3B24"/>
<path d="M89.9382 0.0923408C89.8382 0.184682 89.6382 0.554045 89.7382 0.554045L90.1382 0L89.9382 0.0923408Z" fill="#EB3B24"/>
<path d="M89.8406 1.28505C90.0406 1.10147 90.4406 0.642534 90.7406 0.183594C90.3406 0.642534 90.4406 0.458958 89.9406 1.00969C89.8406 1.00969 89.9406 0.734322 90.0406 0.550746C89.9406 0.642534 90.0406 0.36717 89.7406 0.642534C89.5406 1.10147 89.6406 1.19326 90.0406 0.917897C90.0406 1.10147 89.8406 1.19326 89.8406 1.28505Z" fill="#EB3B24"/>
<path d="M100.139 8.71191C100.139 8.71191 100.039 8.71191 100.039 8.80813C100.139 8.80813 100.139 8.71191 100.139 8.71191Z" fill="#EB3B24"/>
<path d="M96.1406 6.05273V6.23863C96.2406 6.05273 96.1406 6.05273 96.1406 6.05273Z" fill="#EB3B24"/>
<path d="M91.5359 0.549805C91.5359 0.549805 91.4359 0.646015 91.3359 0.646015C91.4359 0.646015 91.4359 0.646015 91.5359 0.549805C91.5359 0.646015 91.5359 0.646015 91.5359 0.549805Z" fill="#EB3B24"/>
<path d="M93.9422 5.41113C93.8422 5.41113 93.8422 5.50408 93.7422 5.59703L93.9422 5.41113Z" fill="#EB3B24"/>
<path d="M92.5391 4.67905C92.5391 4.67905 92.8391 4.30968 93.0391 4.125C92.9391 4.30968 92.8391 4.40202 92.7391 4.40202C92.6391 4.40202 92.5391 4.49436 92.5391 4.67905Z" fill="#EB3B24"/>
<path d="M94.9359 6.05273C94.9359 6.14568 94.8359 6.14568 94.8359 6.23863C94.9359 6.14568 94.9359 6.14568 94.9359 6.05273Z" fill="#EB3B24"/>
<path d="M84.9422 31.0761V30.9827L84.7422 30.7959L84.9422 31.0761Z" fill="#EB3B24"/>
<path d="M105.039 15.123C105.439 15.3986 105.239 15.766 105.739 16.0416C105.639 15.8579 105.439 15.2149 105.039 15.123Z" fill="#EB3B24"/>
<path d="M104.742 12.474C104.742 12.381 104.842 12.2881 104.842 12.2881C104.742 12.2881 104.742 12.381 104.742 12.474Z" fill="#EB3B24"/>
<path d="M106.341 12.4717C106.241 12.5655 106.241 12.5655 106.341 12.4717C106.241 12.5655 106.341 12.5655 106.341 12.4717Z" fill="#EB3B24"/>
<path d="M91.5406 29.438C91.4406 29.3461 91.3406 29.2542 91.1406 29.0703C91.4406 29.438 91.3406 29.6218 91.5406 29.438Z" fill="#EB3B24"/>
<path d="M91.4375 0.827498C91.5375 0.73455 91.5375 0.641602 91.6375 0.641602C91.6375 0.641602 91.6375 0.641602 91.5375 0.641602C91.4375 0.73455 91.4375 0.827498 91.4375 0.827498Z" fill="#EB3B24"/>
<path d="M108.836 9.16992L109.136 9.4501C109.036 9.26332 108.936 9.16992 108.836 9.16992Z" fill="#EB3B24"/>
<path d="M110.241 9.9043C110.141 10.0886 110.141 10.1807 110.141 10.2729C110.141 10.2729 110.241 10.2729 110.341 10.1807L110.241 9.9043Z" fill="#EB3B24"/>
<path d="M90.7391 30.9798C90.9391 30.8882 90.4391 30.4299 90.1391 30.0632C90.2391 29.7883 90.5391 30.4299 90.8391 30.6132C90.8391 30.3382 90.5391 29.7883 90.6391 29.7883C90.7391 29.8799 90.7391 29.8799 90.8391 30.0632C90.6391 29.5133 91.2391 29.7883 90.9391 29.1467C91.0391 29.1467 91.0391 29.2383 91.0391 29.2383C90.8391 28.9634 90.5391 28.6884 90.4391 28.5051C90.5391 28.4134 90.3391 28.0468 90.6391 28.4134C90.5391 28.4134 90.7391 28.5967 90.7391 28.6884V28.5051C91.2391 28.9634 90.7391 28.7801 91.0391 29.1467C91.0391 28.8717 90.9391 28.3218 91.1391 28.4134C91.5391 28.8717 90.9391 28.7801 91.5391 29.1467L91.2391 29.055C92.0391 29.7883 91.0391 29.055 91.8391 29.8799C92.2391 29.8799 91.9391 29.4217 92.2391 29.4217C92.0391 29.1467 91.9391 29.055 91.7391 28.6884C91.7391 27.9552 93.0391 29.7883 92.7391 28.8717C92.5391 28.5051 92.0391 27.8635 92.5391 28.0468L92.9391 28.6884C93.2391 28.5967 92.4391 27.7718 93.0391 27.9552C93.1391 28.2301 93.0391 28.2301 93.0391 28.3218C93.5391 28.6884 92.9391 27.9552 93.0391 27.8635L93.4391 28.3218C93.6391 28.0468 93.6391 27.4969 93.8391 27.2219C93.9391 27.4052 94.0391 27.5885 94.2391 27.6802C94.4391 27.2219 95.0391 27.2219 95.6391 27.3136V26.5803C95.6391 26.5803 95.8391 26.7636 95.8391 26.8553C96.1391 26.9469 95.6391 26.5803 95.5391 26.397C95.6391 26.3053 95.8391 26.5803 95.9391 26.7636C95.8391 26.2137 96.0391 25.4804 96.6391 25.8471L96.7391 26.0304C97.0391 26.0304 96.2391 25.0222 96.7391 25.2971V25.3888C97.3391 25.2971 97.4391 24.5639 98.3391 25.0222C97.9391 24.3806 98.9391 25.0222 98.3391 24.1056C98.9391 24.3806 98.9391 24.5639 99.5391 24.6555C99.6391 24.6555 99.2391 24.0139 99.2391 23.8306L99.6391 24.2889L99.4391 23.739L99.9391 24.1972V24.0139C99.8391 24.0139 99.6391 23.8306 99.5391 23.739C99.5391 23.464 100.239 23.739 100.439 24.0139L100.539 23.3723C100.639 23.5557 100.639 23.6473 100.739 23.8306C100.539 23.189 101.139 24.2889 101.039 23.739C100.939 23.6473 100.839 23.464 100.739 23.3723C101.039 23.5557 101.239 23.464 101.339 23.189L101.539 23.5557C101.939 23.464 102.039 23.0057 102.339 22.7307C102.139 22.6391 101.739 22.0892 101.739 21.9975L102.139 22.4558C101.939 22.0892 101.939 22.3641 101.739 21.9058C101.939 21.9058 102.239 22.3641 102.339 22.6391V22.3641C102.439 22.5474 102.439 22.6391 102.639 22.8224C102.439 22.4558 103.239 23.0974 102.939 22.5474L103.039 22.6391C103.339 22.4558 103.339 22.1808 103.639 21.9058C103.339 21.4476 103.539 21.5392 103.339 21.0809C103.639 21.0809 104.139 21.2642 104.339 21.0809C104.339 20.806 104.139 20.7143 103.939 20.4393C104.239 20.806 104.439 20.6227 104.539 20.9893C104.739 20.7143 104.839 20.7143 104.939 20.1644C104.739 20.0727 104.639 19.9811 104.639 19.8894C104.639 19.7978 104.939 19.9811 105.039 20.1644V20.256C104.939 19.4311 106.839 20.7143 106.539 19.7061V19.7978V19.1562C106.739 19.1562 106.639 19.5228 106.939 19.6144C106.839 18.6979 107.539 19.3395 107.539 18.6979C108.139 19.1562 108.339 19.0645 108.439 18.7895C108.639 18.5146 108.639 18.3313 109.339 18.4229L109.039 18.2396C108.939 17.873 109.339 18.2396 109.539 18.2396C109.339 18.0563 109.139 18.1479 109.139 17.9646C109.539 17.4147 110.239 17.1397 111.039 16.7731C111.839 16.4065 112.539 16.0398 112.939 15.4899C113.239 15.0316 111.139 15.0316 112.139 14.665L112.739 14.8483C112.439 14.39 112.539 13.9318 112.439 13.4735C112.339 13.0152 112.239 12.6486 111.639 12.3736C111.839 12.3736 112.039 12.2819 112.039 12.3736C112.439 12.0986 111.639 11.8237 111.239 12.007C111.239 11.9153 111.539 11.8237 111.739 11.732C111.939 11.457 110.739 11.6403 111.139 11.3654C111.239 11.2737 111.339 11.3654 111.439 11.3654C111.139 11.3654 111.039 10.9071 110.539 11.2737C110.439 10.9071 109.739 10.9988 109.739 10.6321C109.039 10.9071 109.339 10.0822 108.639 10.6321C109.339 10.0822 108.539 9.80722 108.039 9.99054C108.239 9.80722 108.039 9.71557 108.339 9.4406C108.139 9.34894 107.939 9.4406 107.739 9.80722C108.039 8.79901 106.739 10.1738 107.339 8.98232C106.639 9.07397 106.039 9.16563 105.539 9.07397C106.039 8.34072 106.039 9.25729 106.539 8.52404C105.939 8.61569 105.339 9.07397 105.139 8.70735C105.139 8.52404 105.439 8.43238 105.539 8.34072C104.939 8.43238 104.839 7.88244 104.239 8.06576C104.239 7.9741 104.339 7.9741 104.439 7.88244C104.339 7.88244 104.339 7.69913 104.139 7.9741L104.239 7.88244C104.039 8.43238 103.339 8.70735 103.139 8.98232C103.839 8.15741 102.939 8.61569 103.939 7.51582C103.839 7.51582 103.739 7.69913 103.539 7.88244C103.539 7.79079 103.539 7.60747 103.839 7.42416C103.539 7.42416 103.339 7.88244 103.139 7.69913C103.239 7.51582 103.339 7.51582 103.439 7.33251C103.139 7.60747 102.839 7.79079 102.739 7.60747C102.839 7.51582 102.839 7.42416 102.939 7.42416C102.639 7.33251 101.839 7.9741 101.739 7.42416C102.339 6.78257 101.739 7.14919 102.139 6.5076L102.239 6.41594L102.139 6.78257C102.039 6.69091 101.539 7.05754 101.539 6.78257L101.839 6.59926L101.439 6.5076V6.78257C101.039 6.96588 100.939 7.51582 100.839 7.24085C100.939 7.24085 100.639 7.14919 100.839 6.78257C100.639 6.96588 100.439 7.05754 100.439 6.87422C100.539 6.69091 100.939 6.23263 100.939 6.14097C100.539 6.59926 100.439 6.04932 100.039 6.5076C100.139 6.41594 100.339 6.14097 100.439 6.04932L100.139 6.41594C100.139 6.23263 100.139 6.14097 100.339 5.95766C100.139 5.77435 99.9391 6.69091 99.8391 6.23263C99.8391 6.23263 99.9391 6.14097 100.039 6.14097C99.9391 5.86601 99.3391 6.14097 99.2391 5.77435C99.5391 5.13276 99.5391 5.77435 99.8391 5.22441C99.4391 5.13276 98.6391 5.49938 98.4391 5.22441V5.31607C97.8391 6.14097 98.4391 4.76613 98.0391 5.0411C98.1391 5.0411 98.4391 4.58282 98.3391 4.67448C98.2391 4.39951 97.7391 4.58282 97.2391 4.67448L97.4391 4.49116C97.4391 4.21619 97.1391 4.21619 97.0391 4.03288C96.8391 4.21619 96.8391 4.12454 96.6391 4.49116C97.0391 3.02466 95.3391 4.67448 95.6391 3.39129C95.6391 3.39129 95.8391 3.29963 95.8391 3.20798H95.3391C95.1391 3.5746 95.2391 3.48294 95.1391 3.75791C94.9391 3.94123 94.7391 4.03288 94.6391 4.03288C94.9391 3.84957 95.0391 3.48294 95.1391 3.20798C95.0391 3.29963 94.9391 3.39129 94.9391 3.5746C95.1391 2.84135 94.4391 4.30785 94.4391 3.75791L94.5391 3.5746C94.3391 3.66626 94.1391 3.84957 94.0391 3.75791C94.2391 3.29963 94.2391 3.5746 94.5391 3.29963C94.3391 3.20798 93.7391 3.94123 93.9391 3.48294C94.0391 3.39129 94.1391 3.48294 94.3391 3.39129C94.5391 2.84135 94.4391 2.93301 94.3391 2.84135L94.2391 2.47473V2.65804C93.3391 3.66626 93.7391 2.65804 93.0391 3.20798C93.7391 2.65804 93.3391 2.84135 93.6391 2.38307C93.6391 2.19976 93.6391 2.01644 93.7391 1.92479C93.3391 2.29141 93.7391 1.55816 93.2391 2.01644C93.3391 1.83313 93.1391 1.92479 93.4391 1.55816C93.2391 1.55816 93.3391 1.83313 93.1391 2.01644C92.5391 2.38307 93.0391 1.09988 92.2391 1.64982C91.7391 1.83313 91.4391 2.29141 90.9391 2.38307C91.0391 2.1081 91.3391 1.83313 91.3391 1.83313C91.3391 1.55816 91.2391 1.55816 90.9391 1.64982C91.0391 1.55816 91.1391 1.37485 91.1391 1.19154C91.0391 1.19154 90.7391 1.74148 90.7391 1.37485C90.8391 1.19154 91.0391 0.91657 91.2391 0.824914C91.0391 0.91657 90.7391 1.09988 90.5391 1.19154C90.6391 0.91657 90.8391 0.824914 91.0391 0.641602C90.8391 0.641602 90.5391 0.641602 90.2391 1.09988V1.2832C90.1391 1.2832 90.4391 0.91657 90.5391 0.824914C90.8391 0.549945 90.6391 1.09988 90.5391 1.19154L90.3391 1.2832C89.8391 2.19976 90.8391 1.37485 90.9391 1.46651L90.4391 2.1081L90.9391 1.64982C90.8391 1.83313 90.6391 2.19976 90.5391 2.29141C90.4391 2.65804 90.8391 2.1081 90.6391 2.56638C90.6391 2.65804 90.6391 2.65804 90.5391 2.65804L90.8391 2.56638C90.7391 2.65804 90.5391 3.02466 90.5391 2.93301C90.5391 3.48294 91.2391 2.65804 90.9391 3.20798C91.4391 3.20798 91.2391 2.74969 91.8391 2.29141L91.2391 3.5746L91.5391 3.11632C91.5391 3.11632 91.6391 3.20798 91.4391 3.39129C92.0391 3.02466 91.8391 3.02466 92.0391 2.74969C91.9391 3.29963 92.6391 2.74969 92.1391 3.5746C92.4391 3.20798 92.1391 3.20798 92.5391 3.02466C92.0391 3.84957 92.8391 3.02466 92.7391 3.48294C92.4391 3.84957 92.4391 3.5746 92.3391 4.03288C92.9391 3.39129 92.5391 4.30785 92.7391 4.30785C93.1391 3.75791 93.1391 4.21619 93.4391 4.12454C93.3391 4.30785 93.6391 4.67448 93.6391 4.94944L93.5391 5.0411C93.9391 4.49116 94.0391 4.67448 94.3391 4.67448C94.1391 5.0411 94.0391 5.13276 93.8391 5.22441L93.9391 5.31607C94.1391 5.13276 94.2391 5.0411 94.3391 5.0411L94.0391 5.49938C94.2391 5.59104 94.7391 5.22441 94.7391 5.59104C95.0391 5.22441 95.3391 4.39951 95.7391 4.21619C95.6391 4.39951 95.3391 4.85779 95.2391 4.85779C95.2391 4.85779 95.4391 4.67448 95.4391 4.85779L95.0391 5.22441C95.0391 5.40772 95.3391 4.94944 95.3391 5.0411C95.1391 5.31607 95.2391 5.31607 95.0391 5.49938C95.0391 5.49938 95.0391 5.31607 94.9391 5.40773C95.0391 5.49938 95.0391 5.77435 94.9391 6.04932C95.0391 5.86601 95.2391 5.59104 95.3391 5.59104C95.5391 5.68269 95.1391 5.95766 95.1391 6.23263C95.3391 6.04932 95.2391 6.32429 95.6391 5.86601C95.6391 5.86601 95.5391 6.14097 95.5391 6.23263C95.7391 6.04932 96.0391 6.41594 96.2391 5.86601C96.7391 5.59104 96.6391 6.41594 97.0391 6.41594L96.9391 6.59926C97.2391 6.5076 97.4391 6.69091 97.7391 6.41594C97.8391 6.41594 97.6391 6.78257 97.5391 6.96588C97.7391 6.96588 97.8391 6.78257 97.9391 7.14919C97.6391 7.33251 97.8391 7.42416 97.6391 7.24085C97.7391 7.51582 97.6391 7.69913 98.0391 7.42416C97.7391 7.79079 97.8391 7.9741 98.0391 7.88244V7.60747C98.1391 7.60747 98.2391 7.69913 98.3391 7.79079L97.9391 8.24907C97.8391 9.07397 99.3391 7.51582 98.8391 8.70735C99.1391 8.43238 98.8391 8.34072 99.1391 7.9741C99.3391 8.15741 99.0391 8.98232 99.0391 8.98232C99.0391 9.4406 99.7391 8.34072 99.8391 8.70735C99.9391 8.52404 100.239 7.9741 100.539 7.88244C100.639 8.06576 100.239 8.79901 100.039 8.89066C100.039 8.89066 100.039 8.79901 100.039 8.70735C99.9391 8.70735 99.8391 8.79901 99.7391 8.98232L99.8391 8.79901C99.8391 9.07397 100.039 9.16563 99.7391 9.4406C99.9391 9.34894 100.039 9.16563 99.9391 8.98232C99.9391 9.34894 100.239 9.16563 100.339 9.4406C100.339 9.34894 100.539 9.07397 100.539 9.07397C100.739 9.4406 100.939 8.79901 101.239 8.89066C101.139 9.25729 100.739 9.53226 101.139 9.4406C101.139 9.71557 100.839 9.99054 100.639 10.0822C101.039 9.80722 100.839 10.5405 100.939 10.6321L100.739 10.7238C100.839 10.6321 100.939 10.7238 100.939 10.7238L101.139 10.3572C101.139 10.4488 101.239 10.4488 101.139 10.6321C101.339 10.4488 101.539 9.99054 101.839 9.71557C101.839 9.99054 102.239 9.62391 101.939 10.1738C101.839 9.89888 101.639 10.7238 101.339 10.6321C101.439 10.6321 101.439 10.6321 101.439 10.7238C101.439 10.8154 101.339 10.8154 101.339 10.8154C101.239 11.3654 101.839 10.3572 102.039 10.4488C101.839 10.7238 101.739 10.9988 101.839 10.9988C101.739 10.9071 102.139 10.5405 102.339 10.3572C102.339 10.6321 102.639 10.2655 102.739 10.3572V10.1738C102.939 9.89888 103.039 9.99054 103.239 9.99054C103.139 10.1738 103.039 10.0822 103.039 10.1738C103.539 9.80722 102.939 10.8154 103.339 10.6321C103.339 10.9071 103.039 11.1821 102.939 11.3654C103.339 11.0904 102.939 11.8237 103.339 11.6403C103.539 11.2737 103.439 11.3654 103.839 11.0904L103.339 11.1821L103.939 10.7238C103.839 10.6321 103.539 10.8154 103.539 10.7238C103.839 10.4488 103.739 10.5405 103.939 10.2655C103.739 10.9071 104.439 10.0822 104.339 10.5405L103.739 11.457C103.739 12.007 104.539 11.2737 104.639 11.6403V11.457C104.939 11.0904 104.839 11.5487 105.039 11.457C104.839 11.732 104.839 11.9153 104.739 12.0986C104.939 11.8237 104.939 12.2819 105.439 11.6403L105.339 12.0986C105.439 12.3736 106.239 11.3654 106.439 11.6403C106.139 11.9153 106.139 12.1903 105.739 12.3736C105.839 12.4653 105.839 12.5569 106.039 12.2819C105.939 12.4653 106.539 12.007 106.439 12.2819C106.539 12.1903 106.839 11.8237 106.839 11.9153C106.839 12.007 106.739 12.0986 106.739 12.0986C106.839 11.9153 107.039 12.007 107.239 11.6403C106.939 12.1903 107.039 12.1903 107.239 12.1903C107.339 12.1903 107.539 12.2819 107.139 12.5569C107.339 12.5569 107.639 12.5569 107.739 12.5569C107.639 12.6486 107.539 12.6486 107.539 12.6486C107.239 12.9235 108.839 12.1903 108.639 12.4653C107.939 12.7402 108.139 12.5569 107.939 12.6486C107.239 12.9235 107.239 12.9235 107.439 12.9235C107.639 12.9235 107.939 12.9235 107.439 13.0152H107.339C106.839 13.1985 108.139 13.0152 108.039 13.1068C108.039 13.1068 107.839 13.1068 107.739 13.1068C108.739 13.0152 109.139 13.2902 109.339 13.4735C108.639 13.3818 108.939 13.3818 108.239 13.3818C108.339 13.4735 109.439 13.3818 109.639 13.5651C109.239 13.5651 108.839 13.6568 108.039 13.6568V13.5651C107.039 13.5651 108.039 13.6568 107.839 13.7484L107.439 13.6568C107.539 13.7484 108.539 13.9318 108.339 14.1151L108.639 14.2067C109.439 14.5733 108.039 14.1151 108.639 14.39L107.739 14.1151C107.939 14.2067 108.339 14.5733 108.339 14.7567C107.839 14.39 107.639 14.2067 107.339 14.0234C107.339 14.0234 107.239 14.1151 107.639 14.2984C107.539 14.2067 107.439 14.1151 107.539 14.2067C108.139 14.4817 108.339 14.7567 108.139 14.8483C107.439 14.4817 107.339 14.4817 107.139 14.4817C107.039 14.4817 106.939 14.5733 106.439 14.2067C106.739 14.665 105.839 14.2984 105.539 14.665C106.439 15.4899 105.439 14.7567 106.239 15.6732C106.239 15.7649 106.139 15.7649 106.039 15.7649L105.339 15.3983C105.039 15.2149 105.239 15.1233 105.139 14.94C104.839 15.0316 104.739 14.5733 104.439 14.4817C104.739 14.7567 104.739 15.0316 104.539 14.94L105.039 15.2149C105.139 15.8565 104.139 14.665 104.239 15.3066L104.139 14.94C104.139 15.2149 103.539 15.3066 104.039 16.1315C103.939 16.0398 103.739 15.8565 103.739 15.6732C103.339 15.7649 103.539 16.9564 102.939 16.6814L102.739 16.4065C102.739 16.4981 102.939 16.8648 102.739 16.7731C102.639 16.6814 102.539 16.4981 102.539 16.4981C102.539 16.5898 102.639 16.9564 102.439 16.9564L102.339 16.6814C101.739 16.5898 102.339 17.598 102.139 17.9646C101.639 17.323 101.139 17.323 100.939 17.2314L100.839 17.1397C100.339 17.323 100.539 18.1479 100.439 18.6062C99.6391 18.0563 99.4391 18.8812 98.7391 18.6979C98.9391 18.7895 99.1391 19.2478 99.1391 19.3395C98.9391 19.2478 99.2391 19.9811 98.8391 19.3395C98.3391 18.7895 98.2391 19.0645 98.1391 19.1562L98.7391 19.9811C97.4391 19.0645 98.1391 21.0809 97.1391 20.1644C97.2391 20.4393 97.1391 20.531 97.1391 20.7143L96.8391 20.256C96.5391 20.3477 96.3391 20.3477 96.1391 20.6227L95.9391 20.256C95.7391 20.3477 96.6391 21.6309 96.5391 21.7225L96.0391 21.1726C95.7391 21.3559 95.0391 21.0809 95.1391 21.8142C95.0391 21.7225 94.9391 21.5392 94.9391 21.4476C94.7391 21.5392 94.0391 21.3559 94.8391 22.1808C94.4391 21.6309 94.4391 22.3641 94.5391 22.7307L94.2391 22.2725C94.5391 22.9141 94.6391 23.0057 94.5391 23.2807C94.4391 23.2807 94.2391 23.0057 94.3391 23.0057C94.0391 22.9141 94.5391 23.464 94.1391 23.3723L94.0391 23.0974C93.8391 23.189 93.9391 23.2807 94.1391 23.6473C94.1391 23.9223 93.7391 23.739 93.4391 23.3723C93.6391 23.6473 93.7391 24.0139 93.5391 23.9223C93.4391 23.8306 93.3391 23.6473 93.3391 23.6473C92.8391 23.5557 93.3391 24.3806 92.8391 24.1056C92.7391 24.0139 92.6391 23.9223 92.6391 23.9223C92.8391 23.8306 93.0391 23.739 93.0391 23.739C92.7391 23.3723 92.5391 23.3723 92.2391 22.8224C92.3391 23.189 92.6391 24.0139 92.3391 23.9223L92.2391 23.8306V23.739C92.1391 23.739 92.1391 23.739 92.1391 23.8306C92.0391 23.8306 91.9391 23.739 91.9391 23.8306C91.6391 23.5557 91.6391 23.8306 91.5391 23.8306C91.8391 24.1972 91.7391 24.2889 92.1391 24.5639V24.4722C92.1391 24.4722 92.1391 24.4722 92.1391 24.3806C92.1391 24.2889 92.2391 24.2889 92.3391 24.1972C92.4391 24.4722 92.5391 24.6555 92.2391 24.4722C92.4391 24.7472 92.5391 25.1138 92.6391 25.2055C92.0391 24.6555 91.6391 24.5639 91.2391 24.1972C91.1391 24.5639 90.7391 24.7472 91.2391 25.6637C91.2391 25.8471 90.9391 25.4804 90.8391 25.3888C90.8391 25.2971 90.8391 25.2971 90.8391 25.1138C90.8391 25.3888 90.4391 25.4804 90.8391 26.0304C90.4391 25.9387 90.5391 25.4804 90.3391 25.7554L90.2391 25.5721C89.0391 25.0222 90.5391 27.4969 89.1391 26.7636C89.2391 26.7636 89.2391 26.8553 89.3391 26.9469C88.3391 26.8553 88.4391 28.2301 87.2391 27.8635C86.9391 27.8635 87.2391 28.1385 87.3391 28.5051L86.9391 28.0468L87.1391 28.6884C87.1391 29.2383 85.8391 27.8635 86.0391 28.7801L86.3391 29.055C86.1391 29.055 86.1391 29.5133 85.8391 29.1467C85.8391 29.2383 86.0391 29.5133 85.8391 29.33L85.6391 29.055V29.605C85.2391 29.605 84.9391 28.6884 84.5391 28.7801C84.5391 28.9634 84.7391 29.6966 84.9391 29.7883C85.0391 29.7883 85.1391 29.8799 85.3391 30.0632V30.2466C85.8391 30.9798 86.3391 31.7131 86.9391 31.988L86.8391 31.4381L87.1391 31.7131L87.0391 31.8047C87.3391 32.0797 87.2391 31.7131 87.1391 31.5297C87.3391 31.7131 87.4391 31.8047 87.5391 31.8047L87.2391 30.9798C87.4391 31.2548 87.5391 31.5297 87.8391 31.6214C87.6391 31.2548 87.2391 31.0715 87.2391 30.7965C87.5391 31.0715 87.7391 31.3464 87.6391 30.9798C87.8391 31.1631 87.8391 31.2548 87.8391 31.3464C87.7391 31.0715 88.0391 31.0715 87.7391 30.7048C88.1391 31.0715 87.9391 30.4299 88.4391 31.0715C88.3391 30.8882 88.2391 30.4299 88.2391 30.3382C88.7391 31.2548 88.6391 30.1549 89.2391 31.0715C88.8391 30.2466 89.4391 30.4299 89.3391 29.9716C89.3391 30.0632 89.4391 30.1549 89.4391 30.1549C89.6391 30.1549 89.8391 30.3382 89.9391 30.4299C89.5391 29.8799 89.5391 29.605 89.3391 29.1467C89.9391 29.605 89.8391 29.8799 90.2391 30.4299C89.8391 29.9716 90.1391 29.7883 89.7391 29.4217C90.1391 29.6966 89.9391 29.5133 90.4391 29.9716C89.8391 29.2383 90.4391 29.7883 90.1391 29.2383C90.5391 29.5133 90.7391 29.8799 90.7391 29.5133C90.7391 30.6132 90.7391 30.9798 90.7391 30.9798ZM93.9391 26.8553C93.9391 26.9469 93.9391 26.9469 93.9391 26.8553C93.8391 26.9469 93.9391 26.9469 93.9391 26.8553C93.8391 26.9469 93.8391 26.9469 93.9391 26.8553ZM94.2391 26.672C94.1391 26.672 94.1391 26.672 94.0391 26.7636C93.9391 26.672 93.8391 26.4887 93.8391 26.4887C93.9391 26.5803 94.1391 26.5803 94.2391 26.672ZM91.2391 24.2889C91.2391 24.1972 91.3391 24.2889 91.4391 24.3806C91.4391 24.3806 91.4391 24.4722 91.3391 24.4722C91.3391 24.4722 91.3391 24.4722 91.3391 24.5639C91.3391 24.3806 91.2391 24.2889 91.2391 24.2889Z" fill="#EB3B24"/>
<path d="M91.5391 24.8516C91.5391 24.9478 91.5391 24.9478 91.5391 24.8516C91.5391 24.9478 91.6391 24.9478 91.6391 24.9478L91.5391 24.8516Z" fill="#EB3B24"/>
<path d="M99.7406 24.2027L99.6406 24.1064V24.2027H99.7406Z" fill="#EB3B24"/>
<path d="M94.3413 2.66148V2.47559C94.2413 2.56853 94.3413 2.66148 94.3413 2.66148Z" fill="#EB3B24"/>
<path d="M93.7406 2.01758C93.6406 2.11053 93.6406 2.11053 93.6406 2.20347L93.7406 2.01758Z" fill="#EB3B24"/>
<path d="M104.836 7.61237C104.936 7.51853 104.936 7.51853 104.836 7.61237V7.61237Z" fill="#EB3B24"/>
<path d="M100.938 6.78844C101.038 6.69549 101.137 6.69549 101.137 6.60254C101.137 6.60254 101.138 6.60254 100.938 6.78844Z" fill="#EB3B24"/>
<path d="M108.742 9.07812L108.842 9.17434L108.742 9.07812Z" fill="#EB3B24"/>
<path d="M101.342 6.79055C101.342 6.69434 101.242 6.69434 101.242 6.69434C101.242 6.69434 101.242 6.79055 101.342 6.79055Z" fill="#EB3B24"/>
<path d="M90.7422 0.370189L90.8422 0.276381C90.8422 0.276381 90.8422 0.182574 90.7422 0.370189Z" fill="#EB3B24"/>
<path d="M91.7422 0.919295L91.8422 0.733398C91.8422 0.826346 91.8422 0.826346 91.7422 0.919295Z" fill="#EB3B24"/>
<path d="M92.0359 1.00926C92.0359 0.91734 92.1359 0.549663 91.9359 0.641582L91.8359 0.733501C92.0359 0.549663 91.8359 1.28502 92.0359 1.00926Z" fill="#EB3B24"/>
<path d="M91.9416 3.66801L91.8416 3.3916C91.7416 3.57588 91.6416 3.85229 91.5416 3.85229C91.4416 4.49724 91.6416 3.3916 91.9416 3.66801Z" fill="#EB3B24"/>
<path d="M92.4422 4.30957C92.2422 4.30957 92.2422 4.58599 92.2422 4.67813C92.3422 4.49385 92.4422 4.49385 92.4422 4.30957Z" fill="#EB3B24"/>
<path d="M97.4406 7.15234L97.1406 7.52091C97.3406 7.52091 97.3406 7.42877 97.4406 7.15234Z" fill="#EB3B24"/>
<path d="M99.8406 5.59576L99.9406 5.31934L99.6406 5.6879L99.8406 5.59576Z" fill="#EB3B24"/>
<path d="M106.439 13.1147L106.939 12.7461C106.839 12.7461 106.239 13.2069 106.439 13.1147Z" fill="#EB3B24"/>
<path d="M107.639 14.3067C107.239 14.2129 106.939 14.2129 107.239 14.3067C107.439 14.3067 107.739 14.3067 107.639 14.3067Z" fill="#EB3B24"/>
<path d="M97.6391 19.9017L97.5391 19.7158V19.9017H97.6391Z" fill="#EB3B24"/>
</svg>
