<svg width="113" height="33" viewBox="0 0 113 33" fill="none" xmlns="http://www.w3.org/2000/svg">
<path d="M0.0392305 15.2733C-0.0607695 15.4577 0.0392305 15.8266 0.23923 15.7344L0.339231 15.0889L0.0392305 15.2733Z" fill="#FEC531"/>
<path d="M1.13594 16.3746C1.33594 16.0991 1.53594 15.5481 1.33594 14.9971C1.13594 15.5481 1.13594 15.3644 0.935937 16.0072C0.735937 16.0991 0.635938 15.8236 0.635938 15.6399C0.635938 15.8236 0.335938 15.5481 0.335938 15.9154C0.535938 16.3746 0.835938 16.3746 1.03594 16.0072C1.23594 16.0991 1.13594 16.1909 1.13594 16.3746Z" fill="#FEC531"/>
<path d="M16.6391 16.7446L16.5391 16.6484C16.6391 16.7446 16.6391 16.7446 16.6391 16.7446Z" fill="#FEC531"/>
<path d="M26.2406 16.7402C26.1406 16.7402 26.1406 16.8364 26.1406 16.8364C26.2406 16.8364 26.2406 16.7402 26.2406 16.7402Z" fill="#FEC531"/>
<path d="M27.9429 17.292C27.8429 17.3858 27.9429 17.3858 27.9429 17.292V17.292Z" fill="#FEC531"/>
<path d="M16.6406 16.7402L16.9406 16.9261C16.9406 16.7402 16.8406 16.7402 16.6406 16.7402Z" fill="#FEC531"/>
<path d="M3.24063 14.8145C3.14063 14.8145 3.14062 14.9074 3.14062 15.0003L3.24063 14.9074V14.8145Z" fill="#FEC531"/>
<path d="M12.4359 17.3838C12.3359 17.4772 12.3359 17.5706 12.3359 17.664L12.4359 17.3838Z" fill="#FEC531"/>
<path d="M9.23976 17.5649C9.33976 17.5649 9.33976 17.1056 9.33976 16.8301C9.33976 17.0138 9.23976 17.1056 9.23976 17.1975C9.13976 17.2893 9.23976 17.473 9.23976 17.5649Z" fill="#FEC531"/>
<path d="M109.139 15.3662C109.039 15.4596 109.039 15.553 109.039 15.6464L109.139 15.3662Z" fill="#FEC531"/>
<path d="M30.9429 17.8418C30.8429 17.9356 30.9429 17.9356 30.9429 17.8418V17.8418Z" fill="#FEC531"/>
<path d="M58.3372 16.9227C58.0372 16.4638 58.8372 16.372 58.3372 15.8213C58.4372 16.0049 57.9372 16.6474 58.3372 16.9227Z" fill="#FEC531"/>
<path d="M3.33594 14.918H3.43594C3.43594 14.8242 3.33594 14.8242 3.33594 14.918Z" fill="#FEC531"/>
<path d="M37.8422 17.3841C37.8422 17.2912 37.8422 17.1982 37.7422 17.1982C37.7422 17.1982 37.7422 17.1982 37.8422 17.3841Z" fill="#FEC531"/>
<path d="M32.6406 16.7402L32.7406 16.8364C32.7406 16.8364 32.7406 16.7402 32.6406 16.7402Z" fill="#FEC531"/>
<path d="M40.4375 16.5587C40.5375 16.5587 40.5375 16.6527 40.6375 16.5587C40.6375 16.5587 40.6375 16.5587 40.6375 16.4648C40.5375 16.5587 40.5375 16.6527 40.4375 16.5587Z" fill="#FEC531"/>
<path d="M43.2391 16.4702C43.2391 16.4702 43.2391 16.374 43.1391 16.374H43.0391L43.2391 16.4702Z" fill="#FEC531"/>
<path d="M97.0391 12.9814C97.1391 13.1655 97.1391 13.2575 97.1391 13.4415C97.0391 13.0735 97.5391 12.9814 97.0391 12.9814Z" fill="#FEC531"/>
<path d="M3.24219 15.0921C3.24219 14.9992 3.24219 14.9062 3.34219 14.9062H3.24219C3.24219 14.9992 3.24219 15.0921 3.24219 15.0921Z" fill="#FEC531"/>
<path d="M40.4375 12.4307L40.8375 12.5269C40.7375 12.5269 40.6375 12.4307 40.4375 12.4307Z" fill="#FEC531"/>
<path d="M77.0391 12.8931L77.1391 12.7969C77.1391 12.7969 77.1391 12.7969 77.0391 12.8931Z" fill="#FEC531"/>
<path d="M42.2422 12.4307C42.3422 12.6149 42.4422 12.7071 42.5422 12.7992V12.7071L42.2422 12.4307Z" fill="#FEC531"/>
<path d="M100.041 12.247C99.6406 12.247 99.8406 12.8886 99.7406 13.2552C99.2406 13.4386 99.5406 12.7969 99.3406 12.4303C99.0406 12.6136 98.7406 13.2552 98.5406 13.1636C98.5406 13.0719 98.4406 12.9803 98.5406 12.8886C98.2406 13.4386 97.5406 12.8886 97.1406 13.6219C97.1406 13.5302 97.1406 13.5302 97.1406 13.4386C97.2406 13.8052 97.2406 14.0802 97.2406 14.3552C97.0406 14.3552 96.8406 14.8135 96.8406 14.3552C96.9406 14.3552 96.9406 14.1719 97.0406 14.0802L96.8406 14.2635C96.5406 13.6219 97.0406 14.0802 97.0406 13.6219C96.6406 13.8052 96.2406 14.3552 95.9406 14.1719C95.8406 13.5302 96.6406 13.9885 96.2406 13.4386L96.7406 13.7136C96.4406 12.7053 97.0406 13.8052 96.7406 12.7053C96.1406 12.522 96.0406 12.9803 95.4406 12.7969C95.3406 13.1636 95.4406 13.3469 95.3406 13.6219C94.4406 14.2635 94.6406 12.0636 94.0406 12.8886C93.8406 13.3469 93.8406 14.0802 93.3406 13.7136L93.5406 12.9803C92.9406 12.8886 93.2406 13.9885 92.6406 13.5302C92.7406 13.2552 93.1406 13.3469 93.0406 13.2552C92.6406 12.7053 92.7406 13.6219 92.4406 13.6219L92.3406 12.9803C91.7406 13.0719 91.0406 13.5302 90.3406 13.6219C90.3406 13.4386 90.5406 13.2552 90.3406 13.0719C89.4406 13.3469 88.5406 12.9803 87.6406 12.6136L87.3406 13.1636C87.2406 13.1636 87.2406 12.8886 87.2406 12.7969C86.9406 12.6136 87.2406 13.1636 87.0406 13.3469C86.8406 13.3469 86.8406 13.0719 86.9406 12.8886C86.3406 13.3469 85.3406 13.8969 84.7406 13.2552L84.8406 13.0719C84.3406 12.8886 84.3406 14.1719 83.8406 13.6219L83.9406 13.5302C82.9406 13.2552 81.7406 13.8052 81.0406 12.9803C80.8406 13.7136 80.0406 12.6136 79.9406 13.7136C79.3406 13.1636 79.5406 12.9803 78.7406 12.6136C78.5406 12.522 78.4406 13.2552 78.1406 13.4386V12.8886L77.7406 13.4386L77.5406 12.7969L77.2406 12.9803C77.3406 12.9803 77.4406 13.2552 77.4406 13.4386C77.0406 13.7136 76.4406 13.0719 76.4406 12.7053L75.5406 13.1636C75.5406 12.9803 75.7406 12.8886 75.8406 12.7053C75.3406 13.2552 75.7406 12.0636 75.2406 12.6136C75.3406 12.7053 75.2406 12.9803 75.2406 13.0719C75.0406 12.7053 74.5406 12.7053 74.1406 12.8886L74.2406 12.522C73.5406 12.4303 72.7406 12.7053 71.9406 12.7053C72.2406 12.8886 72.1406 13.5302 71.9406 13.6219L71.8406 12.9803C71.6406 13.3469 72.0406 13.1636 71.7406 13.6219C71.4406 13.5302 71.5406 12.9803 71.7406 12.7053L71.3406 12.8886C71.3406 12.7053 71.4406 12.6136 71.4406 12.4303C71.2406 12.7969 70.8406 11.7887 70.6406 12.4303V12.247C69.8406 12.247 69.5406 12.4303 68.8406 12.4303C68.8406 12.9803 68.5406 12.7969 68.3406 13.2552C67.8406 13.0719 67.3406 12.7053 66.8406 12.7053C66.4406 12.9803 66.7406 13.1636 66.5406 13.4386C66.5406 12.9803 65.9406 12.9803 66.2406 12.7053C65.5406 12.7969 65.3406 12.7969 64.5406 13.1636C64.6406 13.3469 64.7406 13.4386 64.6406 13.6219C64.4406 13.7136 64.2406 13.4386 64.3406 13.1636V13.0719C63.3406 13.8052 62.1406 11.697 61.3406 12.6136V12.522L60.5406 13.0719C60.1406 12.9803 60.7406 12.7053 60.5406 12.4303C59.6406 13.1636 59.1406 12.3386 58.4406 12.7969C57.9406 11.422 56.5406 12.8886 55.7406 11.972V12.3386C55.5406 12.6136 55.5406 12.1553 55.3406 12.0637C55.3406 12.3386 55.5406 12.3386 55.4406 12.522C53.8406 12.8886 52.0406 12.0636 50.4406 11.7887C49.8406 11.697 50.1406 13.4386 49.3406 12.7053L49.5406 12.0637C48.3406 12.7969 47.0406 12.0636 45.8406 12.7053C45.9406 12.522 45.9406 12.3386 46.0406 12.3386C45.7406 11.8803 45.1406 12.3386 45.1406 12.7053C44.9406 12.7053 45.0406 12.3386 44.9406 12.247C44.6406 11.972 44.3406 12.7969 44.1406 12.4303C44.1406 12.3386 44.2406 12.247 44.2406 12.247C44.0406 12.4303 43.4406 12.247 43.6406 12.7053C43.1406 12.4303 42.7406 12.9803 42.4406 12.7053C42.2406 13.2552 41.6406 12.4303 41.6406 13.2552C41.6406 12.4303 40.8406 12.6136 40.5406 12.9803C40.6406 12.7053 40.2406 12.7053 40.3406 12.3386C40.0406 12.3386 39.7406 12.522 39.8406 12.9803C39.2406 11.972 38.6406 13.8052 38.2406 12.522C37.3406 12.9803 36.4406 13.3469 35.5406 13.5302C35.5406 12.7053 36.5406 13.4386 36.4406 12.522C35.6406 12.8886 35.1406 13.6219 34.3406 13.4386C34.1406 13.3469 34.4406 13.0719 34.5406 12.8886C33.7406 13.2552 32.9406 12.8886 32.2406 13.3469C32.2406 13.2552 32.3406 13.1636 32.3406 13.0719C32.2406 13.0719 32.0406 12.9803 32.0406 13.3469L32.1406 13.2552C32.4406 13.8052 31.6406 14.4468 31.6406 14.7218C31.8406 13.6219 30.9406 14.4468 31.2406 13.0719C31.1406 13.1636 31.0406 13.3469 31.0406 13.6219C30.9406 13.5302 30.8406 13.4386 30.9406 13.0719C30.4406 13.2552 30.6406 13.7136 30.1406 13.7136C30.1406 13.5302 30.2406 13.4386 30.2406 13.2552C30.0406 13.6219 29.8406 13.9885 29.4406 13.8052C29.4406 13.7136 29.4406 13.5302 29.5406 13.5302C28.8406 13.6219 28.4406 14.5385 27.6406 14.1719C27.8406 13.3469 27.3406 13.8969 27.3406 13.2552L27.0406 13.8052L27.2406 14.1719C26.8406 14.1719 26.6406 14.7218 26.3406 14.4468L26.5406 14.1719L25.8406 14.3552L26.2406 14.6302C25.9406 14.9968 26.3406 15.4551 25.8406 15.3635C25.9406 15.2718 25.4406 15.3635 25.3406 14.9968C25.1406 15.1801 25.0406 15.4551 24.7406 15.2718C24.6406 15.0885 24.7406 14.5385 24.7406 14.3552C24.6406 14.9052 23.9406 14.5385 23.7406 15.1801C23.8406 14.9968 23.8406 14.6302 23.7406 14.6302L23.6406 15.0885C23.4406 14.9052 23.4406 14.9052 23.4406 14.6302C22.9406 14.5385 23.6406 15.4551 23.0406 15.1801C23.0406 15.1801 23.0406 15.0885 23.1406 14.9968C22.5406 14.8135 22.0406 15.3635 21.4406 15.0885C21.2406 14.4468 21.9406 14.9052 21.7406 14.3552C20.9406 14.5385 20.1406 15.2718 19.4406 15.0885L19.5406 15.1801C19.4406 16.1884 18.9406 14.7218 18.6406 15.1801C18.7406 15.0885 18.7406 14.6302 18.7406 14.7218C18.2406 14.6302 17.7406 14.9968 16.9406 15.3635L17.0406 15.0885C16.7406 14.9052 16.2406 14.9968 15.9406 14.9052C15.8406 15.1801 15.6406 15.0885 15.8406 15.4551C14.7406 14.0802 13.9406 16.2801 13.0406 15.0885C13.1406 15.0885 13.2406 14.9052 13.2406 14.9052L12.5406 15.1801C12.6406 15.6384 12.6406 15.4551 12.8406 15.7301C12.7406 16.0051 12.5406 16.1884 12.3406 16.1884C12.6406 15.9134 12.3406 15.5468 12.1406 15.2718C12.1406 15.3635 12.1406 15.5468 12.1406 15.6384C11.7406 14.9051 12.1406 16.4634 11.5406 16.0051V15.8218C11.3406 15.9134 11.1406 16.2801 10.9406 16.1884C10.8406 15.7301 11.1406 15.9134 11.1406 15.5468C10.8406 15.5468 10.5406 16.4634 10.2406 16.0051C10.3406 15.8218 10.5406 15.8218 10.6406 15.7301C10.3406 15.1801 10.2406 15.2718 10.0406 15.2718L9.54063 14.9968L9.64063 15.1801C9.34063 16.4634 8.84062 15.4551 8.44062 16.2801C8.94062 15.4551 8.54063 15.8218 8.54063 15.2718C8.44063 15.0885 8.24062 14.9968 8.24062 14.8135C8.04063 15.2718 7.84063 14.4468 7.54063 15.1801C7.54063 14.9968 7.24063 15.1801 7.34063 14.7218C7.04063 14.9051 7.44063 14.9968 7.44063 15.2718C6.94063 15.9134 6.24062 14.5385 5.64062 15.4551C5.04063 15.8218 4.94063 16.4634 4.44063 16.7384C4.24063 16.4634 4.54063 16.0967 4.54063 16.0967C4.24063 15.8218 4.04063 15.9134 3.74063 16.0967C3.84063 15.9134 3.74063 15.8218 3.64062 15.6384C3.44062 15.7301 3.54063 16.2801 3.24063 16.0051C3.24063 15.8218 3.34063 15.4551 3.44063 15.2718C3.14063 15.4551 2.94062 15.8218 2.64062 16.0051C2.54062 15.7301 2.74063 15.5468 2.84063 15.3635C2.54063 15.5468 2.04063 15.6384 1.94063 16.1884L1.84063 15.9134C1.74063 15.9134 1.74063 15.4551 1.84063 15.3635C2.14062 14.9968 2.24063 15.5468 2.24063 15.7301L2.14062 15.9134C2.44062 16.9217 2.94063 15.7301 3.34063 15.7301L3.24063 16.4634L3.64062 15.8218C3.74063 16.0051 3.84063 16.4634 3.64062 16.5551C3.94062 16.9217 3.84063 16.2801 4.14062 16.6467C4.14062 16.83 4.04063 16.83 4.04063 16.83L4.34063 16.5551C4.34063 16.7384 4.44062 17.105 4.24062 17.0134C4.74062 17.4717 5.04062 16.3717 5.24062 17.0134V17.105C5.94062 16.83 5.24062 16.5551 5.74062 15.8218L6.14062 17.1967V16.6467C6.24062 16.6467 6.34063 16.7384 6.34063 16.9217C6.64063 16.5551 6.24063 16.6467 6.44063 16.2801C6.84063 16.7384 7.44063 16.0051 7.54063 16.9217C7.64062 16.4634 7.14062 16.6467 7.54063 16.2801C7.64062 17.1967 7.94063 16.0967 8.34063 16.5551C8.24063 17.0134 7.94062 16.83 8.24062 17.1967C8.44062 16.3717 8.84063 17.38 9.14063 17.1967C9.14063 16.5551 9.74062 16.9217 10.1406 16.6467C10.1406 16.83 11.0406 17.0134 11.4406 17.1967V17.2883C11.5406 16.6467 11.9406 16.7384 12.2406 16.5551C12.2406 16.9217 12.2406 17.105 12.0406 17.2883H12.3406C12.4406 17.105 12.4406 16.9217 12.6406 16.83L12.5406 17.38C12.9406 17.38 13.3406 16.7384 13.8406 17.105C13.8406 16.6467 13.3406 15.8218 13.9406 15.4551C13.9406 15.7301 14.0406 16.0968 13.8406 16.2801C13.8406 16.2801 14.0406 16.0968 14.1406 16.1884L14.0406 16.6467C14.2406 16.83 14.1406 16.2801 14.3406 16.2801C14.3406 16.6467 14.4406 16.5551 14.4406 16.83C14.4406 16.83 14.2406 16.6467 14.2406 16.83C14.4406 16.9217 14.7406 17.105 14.8406 17.38C14.8406 17.1967 14.8406 16.9217 14.9406 16.83C15.3406 16.83 15.1406 17.2883 15.3406 17.4717C15.4406 17.1967 15.6406 17.4717 15.6406 16.9217C15.7406 16.9217 15.7406 17.1967 15.8406 17.2883C16.0406 17.0134 16.8406 17.1967 16.5406 16.6467H16.4406C17.0406 16.0968 17.8406 16.9217 18.5406 16.6467V16.83C18.9406 16.6467 19.4406 16.6467 19.6406 16.2801C19.7406 16.2801 19.9406 16.5551 19.9406 16.83C20.2406 16.6467 20.2406 16.4634 20.7406 16.7384C20.4406 17.105 20.8406 17.0134 20.4406 17.0134C20.8406 17.1967 20.9406 17.4717 21.3406 16.9217C21.2406 17.38 21.6406 17.4717 21.8406 17.38L21.5406 17.0134C21.7406 16.9217 21.9406 17.0134 22.1406 17.0134L22.0406 17.655C22.8406 18.3883 23.4406 16.3717 24.1406 17.5633C24.3406 17.105 23.6406 17.2884 23.8406 16.7384C24.2406 16.83 24.6406 17.655 24.7406 17.655C25.2406 17.93 25.1406 16.7384 25.7406 16.9217C25.6406 16.7384 25.5406 16.0968 25.9406 15.9134C26.3406 16.0051 26.4406 16.83 26.2406 17.0134C26.1406 17.0134 26.1406 16.9217 26.1406 16.9217C26.0406 17.0134 25.8406 17.105 26.0406 17.38V17.1967C26.2406 17.38 26.7406 17.38 26.6406 17.7467C26.9406 17.5633 26.7406 17.38 26.5406 17.2883C27.0406 17.5633 27.2406 17.2883 27.7406 17.4717C27.6406 17.38 27.5406 17.105 27.6406 17.105C28.3406 17.38 27.9406 16.6467 28.4406 16.5551C28.7406 16.9217 28.3406 17.38 28.8406 17.0134C29.1406 17.1967 28.9406 17.5633 28.8406 17.7467C29.2406 17.2883 29.6406 18.0216 29.9406 18.0216L29.7406 18.205C29.8406 18.1133 30.0406 18.1133 30.1406 18.1133L30.0406 17.5633C30.1406 17.655 30.3406 17.655 30.3406 17.8383C30.4406 17.5633 30.2406 17.105 30.4406 16.7384C30.6406 16.9217 31.0406 16.4634 31.0406 17.0134C30.4406 16.83 31.1406 17.5633 30.6406 17.7467C30.7406 17.655 30.8406 17.655 31.0406 17.7467C31.0406 17.8383 31.0406 17.8383 30.9406 17.93C31.5406 18.3883 31.1406 17.2883 31.7406 17.2883C31.6406 17.655 31.9406 17.93 31.9406 17.8383C31.7406 17.8383 31.8406 17.2883 32.0406 17.0134C32.4406 17.2883 32.4406 16.83 32.6406 16.83L32.4406 16.7384C32.5406 16.3717 32.6406 16.4634 32.9406 16.3717C32.9406 16.6467 32.7406 16.5551 32.8406 16.6467C33.1406 16.0968 33.5406 17.1967 33.9406 16.83C34.1406 17.0134 33.9406 17.4717 34.1406 17.5633C34.5406 17.105 34.6406 18.0216 35.1406 17.655C34.9406 17.1967 34.9406 17.2883 35.2406 16.9217L34.4406 17.2883L34.9406 16.6467C34.7406 16.6467 34.4406 16.9217 34.3406 16.83C34.5406 16.4634 34.5406 16.5551 34.4406 16.1884C34.7406 16.83 35.0406 15.8218 35.4406 16.1884V17.2883C36.0406 17.7467 36.4406 16.7384 37.1406 16.9217L36.9406 16.7384C37.0406 16.2801 37.3406 16.6467 37.6406 16.4634C37.6406 16.83 37.7406 16.9217 37.8406 17.1967C37.8406 16.9217 38.3406 17.1967 38.4406 16.4634L38.7406 16.9217C39.3406 17.105 39.3406 15.9134 39.9406 16.0051C39.7406 16.3717 40.0406 16.6467 39.6406 16.9217C39.8406 16.9217 40.0406 17.0134 40.0406 16.7384C40.1406 16.9217 40.5406 16.2801 40.7406 16.5551C40.8406 16.3717 40.8406 16.0051 41.0406 16.0051C41.0406 16.0967 41.0406 16.1884 41.0406 16.1884C41.0406 16.0051 41.3406 15.9134 41.1406 15.5468C41.7406 16.6467 42.7406 15.4551 43.2406 16.3717C43.6406 16.2801 44.1406 16.0967 44.5406 16.0967C44.5406 16.1884 44.5406 16.2801 44.4406 16.2801C44.9406 16.6467 44.7406 15.2718 45.3406 15.6384C45.6406 16.1884 45.0406 16.0051 45.2406 16.1884C45.3406 17.38 45.9406 16.0051 46.3406 16.7384L46.2406 16.83C46.5406 17.1967 46.9406 16.3717 47.4406 16.4634C47.4406 16.4634 47.4406 16.5551 47.4406 16.6467C47.7406 16.0051 48.3406 15.8218 48.8406 15.6384C48.7406 16.0967 48.6406 15.9134 48.7406 16.3717C48.9406 16.2801 48.6406 15.6384 49.0406 15.4551C49.1406 15.7301 49.4406 15.9134 49.5406 16.4634H49.1406C49.3406 17.105 49.6406 16.4634 49.8406 16.5551V16.83C50.4406 16.7384 50.4406 16.0051 51.1406 16.0967L51.0406 15.9134C51.3406 15.1801 51.3406 16.2801 51.7406 15.8218L51.8406 16.5551C52.0406 16.3717 52.6406 15.8218 53.0406 15.7301C52.8406 16.2801 52.3406 16.5551 52.0406 16.83C52.2406 16.83 52.8406 16.7384 52.9406 16.3717C52.8406 16.4634 52.7406 16.6467 52.6406 16.5551C52.9406 16.0051 53.3406 15.7301 53.7406 15.7301C53.6406 17.105 54.9406 16.0968 55.3406 17.1967C56.1406 16.6467 56.9406 17.38 57.9406 17.2883C57.6406 16.1884 58.2406 17.2883 58.1406 16.0967C58.3406 16.0051 58.4406 16.0051 58.4406 16.0967L59.1406 16.7384C59.3406 17.105 58.9406 17.0134 58.9406 17.1967C59.4406 17.2884 59.1406 17.655 59.4406 17.93C59.3406 17.5633 59.6406 17.38 59.8406 17.4717L59.4406 16.83C60.1406 16.2801 60.0406 17.7467 60.7406 17.1967L60.5406 17.5633C60.9406 17.38 61.8406 17.5633 62.2406 16.6467C62.3406 16.7384 62.3406 17.105 62.2406 17.1967C63.0406 17.38 64.1406 16.2801 64.7406 16.83L64.6406 17.105C64.8406 17.0134 64.9406 16.5551 65.1406 16.83C65.1406 16.9217 65.0406 17.105 65.1406 17.105C65.2406 17.0134 65.5406 16.6467 65.7406 16.83L65.5406 17.105C66.3406 17.4717 66.8406 16.3717 67.5406 16.1884C67.5406 17.0134 68.1406 17.2883 68.5406 17.38V17.4717C69.5406 17.5633 70.1406 16.83 71.0406 16.5551C71.5406 17.4717 72.9406 16.9217 73.7406 17.4717C73.6406 17.2883 73.7406 16.83 73.9406 16.7384C74.1406 16.9217 74.5406 16.1884 74.4406 16.9217H74.3406C74.4406 17.655 74.9406 17.4717 75.2406 17.4717L75.3406 16.4634C76.2406 17.8383 77.6406 16.0051 78.1406 17.1967C78.3406 16.9217 78.6406 16.9217 78.8406 16.7384V17.2883C79.4406 17.4717 79.7406 17.4717 80.4406 17.38L80.2406 17.7467C80.6406 17.7467 80.7406 16.2801 81.1406 16.1884L81.2406 16.9217C81.9406 16.9217 82.6406 17.5633 83.3406 16.9217C83.3406 17.0134 83.3406 17.2883 83.1406 17.2883C83.4406 17.2883 84.4406 17.8383 84.3406 16.7384C84.3406 17.4717 85.0406 16.83 85.4406 16.5551L85.3406 17.105C85.6406 16.4634 85.6406 16.2801 86.1406 16.0967C86.2406 16.1884 86.2406 16.4634 86.0406 16.3717C86.4406 16.6467 86.3406 15.9134 86.7406 16.1884L86.5406 16.5551C86.9406 16.5551 86.8406 16.4634 87.0406 16.0051C87.2406 15.8218 87.7406 16.0968 87.7406 16.6467C87.8406 16.3717 88.0406 16.0051 88.2406 16.0967C88.2406 16.2801 88.1406 16.3717 88.1406 16.4634C88.7406 16.83 89.0406 15.9134 89.4406 16.3717C89.4406 16.5551 89.4406 16.6467 89.5406 16.6467C89.0406 16.6467 88.6406 16.5551 88.7406 16.5551C88.7406 17.0134 89.1406 17.105 88.8406 17.7467C89.1406 17.38 89.7406 16.6467 90.1406 16.83C90.1406 16.83 90.1406 16.9217 90.1406 17.0134V17.105C90.2406 17.1967 90.3406 17.105 90.3406 17.0134C90.4406 17.105 90.5406 17.105 90.6406 17.1967C90.6406 17.5633 91.0406 17.38 91.2406 17.4717C91.2406 16.9217 91.4406 17.0134 91.2406 16.6467C91.2406 16.6467 91.2406 16.7384 91.0406 16.7384C91.0406 16.7384 90.9406 16.7384 90.9406 16.83C90.8406 16.83 90.6406 16.83 90.4406 16.83C90.6406 16.5551 90.7406 16.3717 90.9406 16.6467C91.0406 16.2801 91.1406 16.0051 91.2406 15.8218C91.5406 16.5551 92.0406 16.9217 92.0406 17.38C92.6406 17.105 93.4406 17.1967 93.8406 16.2801C94.0406 16.1884 94.0406 16.5551 94.1406 16.7384C94.0406 16.83 93.9406 16.83 93.8406 16.9217C94.1406 16.6467 94.8406 16.83 94.9406 16.1884C95.3406 16.4634 94.7406 16.83 95.2406 16.7384L95.1406 16.9217C96.3406 18.0216 97.0406 15.1801 98.3406 16.6467C98.2406 16.5551 98.2406 16.5551 98.2406 16.3717C99.7406 17.0134 101.241 15.8218 102.741 16.83C103.141 17.0134 103.241 16.5551 103.441 16.2801L103.541 16.83L103.941 16.1884C104.541 15.7301 104.941 17.5633 105.741 16.6467L105.641 16.2801C105.941 16.3717 106.541 16.0967 106.441 16.4634C106.441 16.3717 106.541 16.0968 106.641 16.2801V16.5551L107.341 16.0967C107.841 16.2801 107.241 17.2883 108.041 17.2883C108.341 17.1967 108.841 16.4634 108.741 16.2801C108.641 16.2801 108.441 16.0968 108.441 15.8218L108.741 15.6384C108.841 14.8135 109.041 13.8969 108.341 13.3469L107.841 13.8969L107.741 13.4386H108.141C107.941 13.0719 107.841 13.3469 107.641 13.6219C107.641 13.4386 107.541 13.2552 107.441 13.1636L107.041 13.9885C106.941 13.6219 107.241 13.3469 106.941 13.1636C106.741 13.5302 107.141 13.8969 106.741 14.1719C106.541 13.8052 106.641 13.4386 106.341 13.8052C106.341 13.6219 106.341 13.4386 106.441 13.3469C106.241 13.6219 105.841 13.4386 105.741 13.8969C105.541 13.4386 104.941 13.9885 105.041 13.1636C104.941 13.3469 104.641 13.8052 104.441 13.8052C104.841 12.7969 103.641 13.7136 103.741 12.7053C103.441 13.5302 102.741 13.0719 102.241 13.5302C102.241 13.4386 102.341 13.3469 102.341 13.3469C102.041 13.2552 101.941 12.9803 101.841 12.8886C101.841 13.6219 101.341 13.8052 101.141 14.1719C100.841 13.4386 101.341 13.3469 101.241 12.7053C101.241 13.2552 100.641 13.2552 100.741 13.8052C100.441 13.3469 100.541 13.6219 100.341 12.9803C100.241 13.8969 100.141 13.1636 99.8406 13.7136C99.4406 13.2552 99.7406 12.8886 99.3406 13.1636C99.6406 12.6136 100.041 12.247 100.041 12.247ZM90.2406 13.7136C90.3406 13.7136 90.4406 13.7136 90.4406 13.7136C90.3406 13.7136 90.3406 13.7136 90.2406 13.7136ZM89.3406 13.7136C89.4406 13.7136 89.5406 13.7136 89.7406 13.7136C89.7406 13.8969 89.7406 14.0802 89.6406 14.0802C89.7406 13.9885 89.5406 13.8969 89.3406 13.7136ZM91.0406 17.38C90.9406 17.4717 90.8406 17.38 90.8406 17.2883C90.9406 17.2883 90.9406 17.2884 91.0406 17.1967C91.0406 17.1967 91.0406 17.1967 91.0406 17.105C91.1406 17.1967 91.1406 17.2883 91.0406 17.38Z" fill="#FEC531"/>
<path d="M91.3413 16.6507C91.3413 16.5578 91.3413 16.5578 91.3413 16.4648C91.3413 16.5578 91.2413 16.6507 91.3413 16.6507Z" fill="#FEC531"/>
<path d="M11.9359 15.0025C11.9359 15.0025 11.9359 14.9062 11.8359 14.9062L11.9359 15.0025Z" fill="#FEC531"/>
<path d="M9.94062 15.0003L9.64062 14.8145C9.84063 14.9074 9.94062 15.0003 9.94062 15.0003Z" fill="#FEC531"/>
<path d="M32.4375 13.3517C32.5375 13.2569 32.6375 13.162 32.4375 13.3517V13.3517Z" fill="#FEC531"/>
<path d="M25.3359 14.8192C25.4359 14.7259 25.4359 14.6325 25.5359 14.5391C25.4359 14.5391 25.3359 14.5391 25.3359 14.8192Z" fill="#FEC531"/>
<path d="M25.8391 14.5426C25.7391 14.448 25.6391 14.448 25.5391 14.5426C25.6391 14.5426 25.7391 14.6372 25.8391 14.5426Z" fill="#FEC531"/>
<path d="M1.53906 15.094L1.73906 15.0002C1.63906 14.9063 1.63906 14.9063 1.53906 15.094Z" fill="#FEC531"/>
<path d="M4.5375 14.9074C4.4375 14.9074 4.1375 14.5389 3.9375 14.631V14.8153C4.0375 14.5389 4.3375 15.1838 4.5375 14.9074Z" fill="#FEC531"/>
<path d="M7.14062 17.1046L6.64062 17.0127C6.74063 17.1965 6.84063 17.4723 6.64062 17.5642C7.24063 18.0238 6.44063 17.0127 7.14062 17.1046Z" fill="#FEC531"/>
<path d="M8.74271 17.3838C8.44271 17.4759 8.74271 17.6602 8.74271 17.7524C8.94271 17.5681 8.94271 17.4759 8.74271 17.3838Z" fill="#FEC531"/>
<path d="M20.1406 16.9238V17.3839C20.3406 17.2919 20.1406 17.1999 20.1406 16.9238Z" fill="#FEC531"/>
<path d="M22.2375 14.4493L21.9375 14.1729V14.5414L22.2375 14.4493Z" fill="#FEC531"/>
<path d="M23.6391 17.7523H23.5391L23.8391 17.5664L23.6391 17.7523Z" fill="#FEC531"/>
<path d="M42.736 16.9267L42.636 16.3721C42.536 16.4645 42.536 17.1116 42.736 16.9267Z" fill="#FEC531"/>
<path d="M50.9375 16.1901C51.0375 16.4663 51.2375 16.6504 51.4375 16.3742C51.2375 16.2822 51.0375 16.0981 50.9375 16.1901Z" fill="#FEC531"/>
<path d="M75.7391 17.292L75.5391 17.4779L75.8391 17.292H75.7391Z" fill="#FEC531"/>
<path d="M89.9382 0.416992C89.8382 0.509003 89.6382 0.877045 89.7382 0.877045L90.1382 0.416992H89.9382Z" fill="#FEC531"/>
<path d="M89.8406 1.61025C90.0406 1.42667 90.4406 0.967729 90.7406 0.508789C90.3406 0.967729 90.4406 0.784151 89.9406 1.33488C89.8406 1.33488 89.9406 1.05951 90.0406 0.875939C89.9406 0.967727 90.0406 0.692365 89.7406 0.967729C89.5406 1.42667 89.6406 1.51846 90.0406 1.24309C90.0406 1.42667 89.8406 1.51846 89.8406 1.61025Z" fill="#FEC531"/>
<path d="M100.139 9.03711C100.139 9.03711 100.039 9.03711 100.039 9.13332C100.139 9.13332 100.139 9.03711 100.139 9.03711Z" fill="#FEC531"/>
<path d="M96.1406 6.37793V6.56383C96.2406 6.37793 96.1406 6.37793 96.1406 6.37793Z" fill="#FEC531"/>
<path d="M91.5359 0.875C91.5359 0.875 91.4359 0.971213 91.3359 0.971213C91.4359 0.971213 91.4359 0.971211 91.5359 0.875C91.5359 0.971211 91.5359 0.971211 91.5359 0.875Z" fill="#FEC531"/>
<path d="M93.9344 5.73633C93.8344 5.73633 93.8344 5.82927 93.7344 5.92222L93.9344 5.73633Z" fill="#FEC531"/>
<path d="M92.5391 5.00424C92.5391 5.00424 92.8391 4.63488 93.0391 4.4502C92.9391 4.63488 92.8391 4.72722 92.7391 4.72722C92.6391 4.72722 92.5391 4.81956 92.5391 5.00424Z" fill="#FEC531"/>
<path d="M94.9359 6.37793C94.9359 6.47088 94.8359 6.47088 94.8359 6.56383C94.9359 6.47088 94.9359 6.47088 94.9359 6.37793Z" fill="#FEC531"/>
<path d="M84.9344 31.4023V31.3089L84.7344 31.1221L84.9344 31.4023Z" fill="#FEC531"/>
<path d="M105.039 15.4482C105.439 15.7238 105.239 16.0912 105.739 16.3668C105.639 16.1831 105.439 15.5401 105.039 15.4482Z" fill="#FEC531"/>
<path d="M104.734 12.8002C104.734 12.7072 104.834 12.6143 104.834 12.6143C104.734 12.6143 104.734 12.7072 104.734 12.8002Z" fill="#FEC531"/>
<path d="M106.341 12.7969C106.241 12.8907 106.241 12.8907 106.341 12.7969C106.241 12.8907 106.341 12.8907 106.341 12.7969Z" fill="#FEC531"/>
<path d="M91.5406 29.7485C91.4406 29.6566 91.3406 29.5647 91.1406 29.3809C91.4406 29.7485 91.3406 29.9324 91.5406 29.7485Z" fill="#FEC531"/>
<path d="M91.4375 1.15269C91.5375 1.05975 91.5375 0.966797 91.6375 0.966797C91.6375 0.966797 91.6375 0.966797 91.5375 0.966797C91.4375 1.05974 91.4375 1.15269 91.4375 1.15269Z" fill="#FEC531"/>
<path d="M108.836 9.49512L109.136 9.7753C109.036 9.58851 108.936 9.49512 108.836 9.49512Z" fill="#FEC531"/>
<path d="M110.241 10.2295C110.141 10.4138 110.141 10.5059 110.141 10.598C110.141 10.598 110.241 10.5981 110.341 10.5059L110.241 10.2295Z" fill="#FEC531"/>
<path d="M90.7375 31.3053C90.9375 31.2136 90.4375 30.7554 90.1375 30.3887C90.2375 30.1138 90.5375 30.7554 90.8375 30.9387C90.8375 30.6637 90.5375 30.1138 90.6375 30.1138C90.7375 30.2054 90.7375 30.2054 90.8375 30.3887C90.6375 29.8388 91.2375 30.1138 90.9375 29.4722C91.0375 29.4722 91.0375 29.5638 91.0375 29.5638C90.8375 29.2889 90.5375 29.0139 90.4375 28.8306C90.5375 28.7389 90.3375 28.3723 90.6375 28.7389C90.5375 28.7389 90.7375 28.9222 90.7375 29.0139V28.8306C91.2375 29.2888 90.7375 29.1055 91.0375 29.4722C91.0375 29.1972 90.9375 28.6473 91.1375 28.7389C91.5375 29.1972 90.9375 29.1055 91.5375 29.4722L91.2375 29.3805C92.0375 30.1138 91.0375 29.3805 91.8375 30.2054C92.2375 30.2054 91.9375 29.7471 92.2375 29.7471C92.0375 29.4722 91.9375 29.3805 91.7375 29.0139C91.7375 28.2806 93.0375 30.1138 92.7375 29.1972C92.5375 28.8306 92.0375 28.189 92.5375 28.3723L92.9375 29.0139C93.2375 28.9222 92.4375 28.0973 93.0375 28.2806C93.1375 28.5556 93.0375 28.5556 93.0375 28.6473C93.5375 29.0139 92.9375 28.2806 93.0375 28.189L93.4375 28.6473C93.6375 28.3723 93.6375 27.8223 93.8375 27.5474C93.9375 27.7307 94.0375 27.914 94.2375 28.0057C94.4375 27.5474 95.0375 27.5474 95.6375 27.639V26.9058C95.6375 26.9058 95.8375 27.0891 95.8375 27.1808C96.1375 27.2724 95.6375 26.9058 95.5375 26.7225C95.6375 26.6308 95.8375 26.9058 95.9375 27.0891C95.8375 26.5392 96.0375 25.8059 96.6375 26.1725L96.7375 26.3559C97.0375 26.3559 96.2375 25.3476 96.7375 25.6226V25.7143C97.3375 25.6226 97.4375 24.8894 98.3375 25.3476C97.9375 24.706 98.9375 25.3476 98.3375 24.4311C98.9375 24.706 98.9375 24.8894 99.5375 24.981C99.6375 24.981 99.2375 24.3394 99.2375 24.1561L99.6375 24.6144L99.4375 24.0644L99.9375 24.5227V24.3394C99.8375 24.3394 99.6375 24.1561 99.5375 24.0644C99.5375 23.7895 100.238 24.0644 100.438 24.3394L100.537 23.6978C100.637 23.8811 100.637 23.9728 100.737 24.1561C100.537 23.5145 101.137 24.6144 101.037 24.0644C100.937 23.9728 100.837 23.7895 100.737 23.6978C101.037 23.8811 101.238 23.7895 101.338 23.5145L101.537 23.8811C101.937 23.7895 102.038 23.3312 102.338 23.0562C102.138 22.9646 101.737 22.4146 101.737 22.323L102.137 22.7813C101.937 22.4146 101.937 22.6896 101.737 22.2313C101.937 22.2313 102.238 22.6896 102.338 22.9646V22.6896C102.438 22.8729 102.437 22.9646 102.637 23.1479C102.437 22.7813 103.237 23.4228 102.938 22.8729L103.037 22.9646C103.337 22.7813 103.337 22.5063 103.637 22.2313C103.337 21.773 103.538 21.8647 103.338 21.4064C103.638 21.4064 104.138 21.5897 104.338 21.4064C104.338 21.1314 104.138 21.0398 103.938 20.7648C104.237 21.1314 104.437 20.9481 104.537 21.3148C104.737 21.0398 104.837 21.0398 104.938 20.4899C104.737 20.3982 104.637 20.3065 104.637 20.2149C104.637 20.1232 104.937 20.3065 105.037 20.4899V20.5815C104.937 19.7566 106.837 21.0398 106.537 20.0316V20.1232V19.4816C106.737 19.4816 106.638 19.8483 106.938 19.9399C106.837 19.0234 107.537 19.6649 107.537 19.0234C108.137 19.4816 108.337 19.39 108.438 19.115C108.638 18.84 108.638 18.6567 109.338 18.7484L109.037 18.5651C108.937 18.1984 109.337 18.5651 109.537 18.5651C109.337 18.3818 109.137 18.4734 109.137 18.2901C109.537 17.7402 110.237 17.4652 111.037 17.0986C111.837 16.7319 112.538 16.3653 112.938 15.8154C113.237 15.3571 111.137 15.3571 112.137 14.9905L112.737 15.1738C112.437 14.7155 112.538 14.2572 112.438 13.7989C112.337 13.3407 112.237 12.974 111.637 12.6991C111.837 12.6991 112.037 12.6074 112.037 12.6991C112.437 12.4241 111.637 12.1491 111.237 12.3324C111.237 12.2408 111.537 12.1491 111.737 12.0575C111.937 11.7825 110.737 11.9658 111.137 11.6909C111.237 11.5992 111.337 11.6909 111.438 11.6909C111.138 11.6909 111.037 11.2326 110.537 11.5992C110.437 11.2326 109.737 11.3242 109.737 10.9576C109.037 11.2326 109.337 10.4077 108.637 10.9576C109.337 10.4077 108.537 10.1327 108.037 10.316C108.237 10.1327 108.038 10.041 108.338 9.76608C108.138 9.67442 107.937 9.76607 107.737 10.1327C108.037 9.12448 106.738 10.4993 107.338 9.3078C106.638 9.39945 106.037 9.49111 105.537 9.39945C106.037 8.6662 106.037 9.58276 106.537 8.84951C105.937 8.94117 105.337 9.39945 105.137 9.03282C105.137 8.84951 105.437 8.75785 105.537 8.6662C104.937 8.75785 104.837 8.20792 104.237 8.39123C104.237 8.29958 104.337 8.29957 104.438 8.20792C104.337 8.20792 104.337 8.0246 104.137 8.29957L104.237 8.20792C104.037 8.75785 103.337 9.03283 103.137 9.3078C103.837 8.48289 102.938 8.94116 103.938 7.84129C103.837 7.84129 103.737 8.0246 103.537 8.20792C103.537 8.11626 103.538 7.93295 103.838 7.74964C103.538 7.74964 103.337 8.20792 103.137 8.02461C103.237 7.84129 103.337 7.84129 103.438 7.65798C103.138 7.93295 102.837 8.11626 102.737 7.93295C102.837 7.8413 102.837 7.74964 102.938 7.74964C102.638 7.65798 101.837 8.29957 101.737 7.74964C102.337 7.10804 101.737 7.47467 102.137 6.83307L101.838 6.92473L101.737 7.29135C101.637 7.1997 101.137 7.56632 101.137 7.29135L101.438 7.10805L101.037 7.01639V7.29135C100.637 7.47467 100.538 8.0246 100.438 7.74964C100.538 7.74964 100.238 7.65798 100.438 7.29135C100.238 7.47467 100.037 7.56633 100.037 7.38301C100.137 7.1997 100.537 6.74142 100.537 6.64976C100.137 7.10805 100.037 6.55811 99.6375 7.01639C99.7375 6.92473 99.9375 6.64976 100.037 6.55811L99.7375 6.92473C99.7375 6.74142 99.7375 6.64976 99.9375 6.46645C99.7375 6.28314 99.5375 7.1997 99.4375 6.74142C99.4375 6.74142 99.5375 6.64976 99.6375 6.64976C99.5375 6.37479 98.9375 6.64976 98.8375 6.28314C99.1375 5.64154 99.1375 6.28314 99.4375 5.7332C99.0375 5.64155 98.2375 6.00817 98.0375 5.7332V5.82486C97.4375 6.64976 98.0375 5.27492 97.6375 5.54989C97.7375 5.54989 98.0375 5.09161 97.9375 5.18326C97.8375 4.90829 97.3375 5.09161 96.8375 5.18326L97.0375 4.99995C97.0375 4.72498 96.7375 4.72498 96.6375 4.54167C96.4375 4.72498 96.4375 4.63332 96.2375 4.99995C96.6375 3.53345 94.9375 5.18326 95.2375 3.90008C95.2375 3.90008 95.4375 3.80842 95.4375 3.71676H94.9375C94.7375 4.08339 94.8375 3.99173 94.7375 4.2667C94.5375 4.45001 94.3375 4.54167 94.2375 4.54167C94.5375 4.35836 94.6375 3.99173 94.7375 3.71676C94.6375 3.80842 94.5375 3.90007 94.5375 4.08339C94.7375 3.35014 94.0375 4.81664 94.0375 4.2667L94.1375 4.08339C93.9375 4.17504 93.7375 4.35836 93.6375 4.2667C93.8375 3.80842 93.8375 4.08339 94.1375 3.80842C93.9375 3.71676 93.3375 4.45001 93.5375 3.99173C93.6375 3.90008 93.7375 3.99173 93.9375 3.90008C94.1375 3.35014 94.0375 3.44179 93.9375 3.35014L93.8375 2.98352V3.16682C92.9375 4.17504 93.3375 3.16683 92.6375 3.71676C93.3375 3.16683 92.9375 3.35014 93.2375 2.89186C93.2375 2.70854 93.2375 2.52523 93.3375 2.43358C92.9375 2.8002 93.3375 2.06695 92.8375 2.52523C92.9375 2.34192 92.7375 2.43358 93.0375 2.06695C92.8375 2.06695 92.9375 2.34192 92.7375 2.52523C92.1375 2.89186 92.6375 1.60867 91.8375 2.15861C91.3375 2.34192 91.0375 2.8002 90.5375 2.89186C90.6375 2.61689 90.9375 2.34192 90.9375 2.34192C90.9375 2.06695 90.8375 2.06695 90.5375 2.15861C90.6375 2.06695 90.7375 1.88364 90.7375 1.70033C90.6375 1.70033 90.3375 2.25026 90.3375 1.88364C90.4375 1.70033 90.6375 1.42536 90.8375 1.3337C90.6375 1.42536 90.3375 1.60867 90.1375 1.70033C90.2375 1.42536 90.4375 1.3337 90.6375 1.15039C90.4375 1.15039 90.1375 1.15039 89.8375 1.60867V1.79198C89.7375 1.79198 90.0375 1.42536 90.1375 1.3337C90.4375 1.05873 90.2375 1.60867 90.1375 1.70033L89.9375 1.79198C89.4375 2.70854 90.4375 1.88364 90.5375 1.97529L90.0375 2.61689L90.5375 2.15861C90.4375 2.34192 90.2375 2.70855 90.1375 2.8002C90.0375 3.16683 90.4375 2.61689 90.2375 3.07517C90.2375 3.16683 90.2375 3.16682 90.1375 3.16682L90.4375 3.07517C90.3375 3.16683 90.1375 3.53345 90.1375 3.4418C90.1375 3.99173 90.8375 3.16683 90.5375 3.71676C91.0375 3.71676 90.8375 3.25848 91.4375 2.8002L90.8375 4.08339L91.1375 3.62511C91.1375 3.62511 91.2375 3.71676 91.0375 3.90008C91.3375 3.62511 91.1375 3.71676 91.4375 3.4418C91.3375 3.99173 92.0375 3.44179 91.5375 4.2667C91.8375 3.90008 91.5375 3.90008 91.9375 3.71676C91.4375 4.54167 92.2375 3.71676 92.1375 4.17505C91.8375 4.54167 91.8375 4.2667 91.7375 4.72498C92.3375 4.08339 91.9375 4.99995 92.1375 4.99995C92.5375 4.45001 92.5375 4.9083 92.8375 4.81664C92.7375 4.99995 93.0375 5.36657 93.0375 5.64154L92.9375 5.7332C93.3375 5.18326 93.4375 5.36658 93.7375 5.36658C93.5375 5.7332 93.4375 5.82485 93.2375 5.91651L93.3375 6.00817C93.5375 5.82486 93.6375 5.7332 93.7375 5.7332L94.0375 5.82486C94.2375 5.91651 94.7375 5.54989 94.7375 5.91651C95.0375 5.54989 95.3375 4.72498 95.7375 4.54167C95.6375 4.72498 95.3375 5.18326 95.2375 5.18326C95.2375 5.18326 95.4375 4.99995 95.4375 5.18326L95.0375 5.54989C95.0375 5.7332 95.3375 5.27492 95.3375 5.36658C95.1375 5.64154 95.2375 5.64154 95.0375 5.82486C95.0375 5.82486 95.0375 5.64155 94.9375 5.7332C95.0375 5.82486 94.9375 6.09982 94.8375 6.37479C94.9375 6.19148 95.1375 5.91651 95.2375 5.91651C95.4375 6.00817 95.0375 6.28314 95.0375 6.55811C95.2375 6.37479 95.1375 6.64976 95.5375 6.19148C95.5375 6.19148 95.4375 6.46645 95.4375 6.55811C95.6375 6.37479 95.9375 6.74142 96.1375 6.19148C96.7375 5.91651 96.5375 6.83308 97.0375 6.74142L96.9375 6.92473C97.2375 6.83308 97.4375 7.01639 97.7375 6.74142C97.8375 6.74142 97.6375 7.10804 97.5375 7.29135C97.7375 7.29135 97.8375 7.10804 97.9375 7.47467C97.6375 7.65798 97.8375 7.74964 97.6375 7.56633C97.7375 7.84129 97.6375 8.0246 98.0375 7.74964C97.7375 8.11626 97.8375 8.29957 98.0375 8.20792L98.1375 7.84129C98.2375 7.84129 98.3375 7.93295 98.4375 8.02461L97.9375 8.57454C97.8375 9.39945 99.3375 7.84129 98.8375 9.03282C99.1375 8.75786 98.8375 8.6662 99.1375 8.29957C99.2375 8.48288 98.9375 9.3078 98.9375 9.3078C98.9375 9.76608 99.6375 8.6662 99.7375 9.03282C99.8375 8.84951 100.137 8.29957 100.438 8.20792C100.538 8.39123 100.137 9.12448 99.9375 9.21613C99.9375 9.21613 99.9375 9.12448 99.9375 9.03282C99.8375 9.03282 99.7375 9.12448 99.6375 9.3078L99.7375 9.12448C99.7375 9.39945 99.9375 9.49111 99.6375 9.76608C99.8375 9.67442 99.9375 9.49111 99.8375 9.3078C99.8375 9.67442 100.137 9.49111 100.237 9.76608C100.237 9.67442 100.438 9.39945 100.438 9.39945C100.638 9.76608 100.837 9.12448 101.137 9.21613C101.037 9.58276 100.637 9.85773 101.037 9.76608C101.037 10.041 100.737 10.316 100.537 10.4077C100.937 10.1327 100.738 10.8659 100.838 10.9576L100.637 11.0493C100.737 10.9576 100.838 11.0493 100.838 11.0493L101.037 10.6826C101.037 10.7743 101.137 10.7743 101.037 10.9576C101.237 10.7743 101.437 10.316 101.737 10.041C101.737 10.316 102.138 9.94938 101.838 10.4993C101.738 10.2244 101.537 11.0493 101.237 10.9576C101.337 10.9576 101.338 10.9576 101.338 11.0493C101.338 11.1409 101.237 11.1409 101.237 11.1409C101.137 11.6909 101.737 10.6826 101.938 10.7743C101.737 11.0493 101.637 11.3242 101.737 11.3242C101.637 11.2326 102.037 10.866 102.237 10.6826C102.237 10.9576 102.537 10.591 102.637 10.6826V10.4993C102.837 10.2244 102.937 10.316 103.137 10.316C103.037 10.4993 102.938 10.4077 102.938 10.4993C103.438 10.1327 102.837 11.1409 103.237 10.9576C103.237 11.2326 102.938 11.5075 102.838 11.6909C103.238 11.4159 102.837 12.1491 103.237 12.0575C103.437 11.6909 103.337 11.7825 103.737 11.5075L103.237 11.5992L103.838 11.1409C103.738 11.0493 103.438 11.2326 103.438 11.1409C103.737 10.866 103.638 10.9576 103.838 10.6826C103.638 11.3242 104.337 10.4993 104.237 10.9576L103.637 11.8742C103.637 12.4241 104.437 11.6909 104.537 12.0575V11.8742C104.837 11.5075 104.737 11.9658 104.938 11.8742C104.737 12.1491 104.737 12.3325 104.637 12.5158C104.837 12.2408 104.838 12.6991 105.338 12.0575L105.237 12.5158C105.337 12.7907 106.138 11.7825 106.338 12.0575C106.038 12.3325 106.037 12.6074 105.637 12.7907C105.737 12.8824 105.737 12.974 105.938 12.6991C105.837 12.8824 106.438 12.4241 106.338 12.6991C106.438 12.6074 106.737 12.2408 106.737 12.3324C106.737 12.4241 106.637 12.5158 106.637 12.5158C106.737 12.3325 106.937 12.4241 107.137 12.0575C106.837 12.6074 106.937 12.6074 107.137 12.6074C107.237 12.6074 107.437 12.6991 107.037 12.974C107.237 12.974 107.537 12.974 107.637 12.974C107.537 13.0657 107.438 13.0657 107.438 13.0657C107.138 13.3407 108.737 12.6074 108.537 12.8824C107.837 13.1574 108.038 12.974 107.838 13.0657C107.138 13.3407 107.138 13.3407 107.338 13.3407C107.538 13.3407 107.838 13.3407 107.338 13.4323H107.237C106.737 13.6156 108.038 13.4323 107.938 13.524C107.938 13.524 107.737 13.524 107.637 13.524C108.637 13.4323 109.037 13.7073 109.237 13.8906C108.537 13.799 108.837 13.7989 108.137 13.7989C108.237 13.8906 109.337 13.7989 109.537 13.9823C109.137 13.9823 108.737 14.0739 107.938 14.0739V13.9823C106.938 13.9823 107.937 14.0739 107.737 14.1656L107.338 14.0739C107.438 14.1656 108.437 14.3489 108.237 14.5322L108.537 14.6239C109.337 14.9905 107.937 14.5322 108.537 14.8072L107.637 14.5322C107.837 14.6239 108.237 14.9905 108.237 15.1738C107.737 14.8072 107.537 14.6239 107.237 14.4405C107.237 14.4405 107.137 14.5322 107.537 14.7155C107.437 14.6239 107.337 14.5322 107.438 14.6239C108.038 14.8988 108.237 15.1738 108.037 15.2654C107.337 14.8988 107.237 14.8988 107.037 14.8988C106.937 14.8988 106.838 14.9905 106.338 14.6239C106.638 15.0821 105.737 14.7155 105.438 15.0821C106.337 15.907 105.337 15.1738 106.137 16.0904C106.137 16.182 106.038 16.182 105.938 16.182L105.237 15.8154C104.937 15.6321 105.137 15.5404 105.037 15.3571C104.737 15.4488 104.638 14.9905 104.338 14.8988C104.638 15.1738 104.638 15.4488 104.438 15.3571L104.938 15.6321C105.038 16.2737 104.037 15.0821 104.137 15.7237L104.037 15.3571C104.037 15.6321 103.438 15.7237 103.938 16.5486C103.837 16.457 103.637 16.2737 103.637 16.0904C103.237 16.182 103.438 17.3735 102.838 17.0986L102.637 16.8236C102.637 16.9153 102.837 17.2819 102.637 17.1902C102.537 17.0986 102.438 16.9153 102.438 16.9153C102.438 17.0069 102.538 17.3735 102.338 17.3735L102.237 17.0986C101.637 17.0069 102.237 18.0151 102.037 18.3818C101.537 17.7402 101.038 17.7402 100.838 17.6485L100.737 17.5569C100.237 17.7402 100.438 18.5651 100.338 19.0234C99.5375 18.4734 99.3375 19.2983 98.6375 19.115C98.8375 19.2067 99.0375 19.6649 99.0375 19.7566C98.8375 19.6649 99.1375 20.3982 98.7375 19.7566C98.2375 19.2067 98.1375 19.4816 98.0375 19.5733L98.6375 20.3982C97.3375 19.4816 98.0375 21.4981 97.0375 20.5815C97.1375 20.8565 97.0375 20.9481 97.0375 21.1314L96.7375 20.6732C96.4375 20.7648 96.2375 20.7648 96.0375 21.0398L95.8375 20.6732C95.6375 20.7648 96.5375 22.048 96.4375 22.1397L95.9375 21.5897C95.6375 21.773 94.9375 21.4981 95.0375 22.2313C94.9375 22.1397 94.8375 21.9564 94.8375 21.8647C94.6375 21.9564 93.9375 21.773 94.7375 22.5979C94.3375 22.048 94.3375 22.7813 94.4375 23.1479L94.1375 22.6896C94.4375 23.3312 94.5375 23.4229 94.4375 23.6978C94.3375 23.6978 94.1375 23.4228 94.2375 23.4228C93.9375 23.3312 94.4375 23.8811 94.0375 23.7895L93.9375 23.5145C93.7375 23.6062 93.8375 23.6978 94.0375 24.0644C94.0375 24.3394 93.6375 24.1561 93.3375 23.7895C93.5375 24.0644 93.6375 24.4311 93.4375 24.3394C93.3375 24.2478 93.2375 24.0644 93.2375 24.0644C92.7375 23.9728 93.2375 24.7977 92.7375 24.5227C92.6375 24.4311 92.5375 24.3394 92.5375 24.3394C92.7375 24.2478 92.9375 24.1561 92.9375 24.1561C92.6375 23.7895 92.4375 23.7895 92.1375 23.2395C92.2375 23.6062 92.5375 24.4311 92.2375 24.3394L92.1375 24.2478V24.1561C92.0375 24.1561 92.0375 24.1561 92.0375 24.2478C91.9375 24.2478 91.8375 24.1561 91.8375 24.2478C91.5375 23.9728 91.5375 24.2478 91.4375 24.2478C91.7375 24.6144 91.6375 24.706 92.0375 24.981V24.8894C92.0375 24.8894 92.0375 24.8893 92.0375 24.7977C92.0375 24.706 92.1375 24.706 92.2375 24.6144C92.3375 24.8894 92.4375 25.0727 92.1375 24.8894C92.3375 25.1643 92.4375 25.5309 92.5375 25.6226C91.9375 25.0727 91.5375 24.981 91.1375 24.6144C91.0375 24.981 90.6375 25.1643 91.1375 26.0809C91.1375 26.2642 90.8375 25.8976 90.7375 25.8059C90.7375 25.7143 90.7375 25.7143 90.7375 25.5309C90.7375 25.8059 90.3375 25.8976 90.7375 26.4475C90.3375 26.3559 90.4375 25.8976 90.2375 26.1725L90.1375 25.9892C88.9375 25.4393 90.4375 27.914 89.0375 27.1808C89.1375 27.1808 89.1375 27.2724 89.2375 27.3641C88.2375 27.2724 88.3375 28.6473 87.1375 28.2806C86.8375 28.2806 87.1375 28.5556 87.2375 28.9222L86.8375 28.4639L87.0375 29.1055C87.0375 29.6555 85.7375 28.2806 85.9375 29.1972L86.2375 29.4722C86.0375 29.4722 86.0375 29.9304 85.7375 29.5638C85.7375 29.6555 85.9375 29.9304 85.7375 29.7471L85.5375 29.4722V30.0221C85.1375 30.0221 84.8375 29.1055 84.4375 29.1972C84.4375 29.3805 84.6375 30.1138 84.8375 30.2054C84.9375 30.2054 85.0375 30.2971 85.2375 30.4804V30.6637C85.7375 31.3969 86.2375 32.1302 86.8375 32.4052L86.7375 31.8552L87.0375 32.1302L86.9375 32.2219C87.2375 32.4968 87.1375 32.1302 87.0375 31.9469C87.2375 32.1302 87.3375 32.2219 87.4375 32.2219L87.1375 31.3969C87.3375 31.6719 87.4375 31.9469 87.7375 32.0385C87.5375 31.6719 87.1375 31.4886 87.1375 31.2136C87.4375 31.4886 87.6375 31.7636 87.5375 31.3969C87.7375 31.5803 87.7375 31.6719 87.7375 31.7636C87.6375 31.4886 87.9375 31.4886 87.6375 31.122C88.0375 31.4886 87.8375 30.847 88.3375 31.4886C88.2375 31.3053 88.1375 30.847 88.1375 30.7553C88.6375 31.6719 88.5375 30.572 89.1375 31.4886C88.7375 30.6637 89.3375 30.847 89.2375 30.3887C89.2375 30.4804 89.3375 30.572 89.3375 30.572C89.5375 30.572 89.7375 30.7554 89.8375 30.847C89.4375 30.2971 89.4375 30.0221 89.2375 29.5638C89.8375 30.0221 89.7375 30.2971 90.1375 30.847C89.7375 30.3887 90.0375 30.2054 89.6375 29.8388C90.0375 30.1138 89.8375 29.9304 90.3375 30.3887C89.7375 29.6555 90.3375 30.2054 90.0375 29.6555C90.4375 29.9304 90.6375 30.2971 90.6375 29.9304C90.7375 30.9387 90.7375 31.3053 90.7375 31.3053ZM93.9375 27.1808C93.9375 27.2724 93.9375 27.2724 93.9375 27.1808C93.8375 27.2724 93.9375 27.2724 93.9375 27.1808C93.8375 27.2724 93.8375 27.2724 93.9375 27.1808ZM94.2375 26.9974C94.1375 26.9974 94.1375 26.9974 94.0375 27.0891C93.9375 26.9974 93.8375 26.8141 93.8375 26.8141C93.9375 26.9058 94.1375 26.9058 94.2375 26.9974ZM91.2375 24.6144C91.2375 24.5227 91.3375 24.6144 91.4375 24.706C91.4375 24.706 91.4375 24.7977 91.3375 24.7977C91.3375 24.7977 91.3375 24.7977 91.3375 24.8894C91.3375 24.706 91.2375 24.6144 91.2375 24.6144Z" fill="#FEC531"/>
<path d="M91.5391 25.1768C91.5391 25.273 91.5391 25.273 91.5391 25.1768C91.5391 25.273 91.6391 25.273 91.6391 25.273L91.5391 25.1768Z" fill="#FEC531"/>
<path d="M99.7406 24.5386L99.6406 24.4424V24.5386H99.7406Z" fill="#FEC531"/>
<path d="M94.3413 2.98668V2.80078C94.2413 2.89373 94.3413 2.98668 94.3413 2.98668Z" fill="#FEC531"/>
<path d="M93.7406 2.34277C93.6406 2.43572 93.6406 2.43572 93.6406 2.52867L93.7406 2.34277Z" fill="#FEC531"/>
<path d="M104.836 7.93854C104.936 7.84471 104.936 7.84471 104.836 7.93854V7.93854Z" fill="#FEC531"/>
<path d="M100.938 7.11363C101.038 7.02068 101.137 7.02068 101.137 6.92773C101.137 6.92773 101.138 6.92774 100.938 7.11363Z" fill="#FEC531"/>
<path d="M108.734 9.40332L108.834 9.49953L108.734 9.40332Z" fill="#FEC531"/>
<path d="M101.334 7.11574C101.334 7.01953 101.234 7.01953 101.234 7.01953C101.234 7.01953 101.234 7.11574 101.334 7.11574Z" fill="#FEC531"/>
<path d="M90.7344 0.695385L90.8344 0.601576C90.8344 0.601576 90.8344 0.507771 90.7344 0.695385Z" fill="#FEC531"/>
<path d="M91.7344 1.24449L91.8344 1.05859C91.8344 1.15154 91.8344 1.15154 91.7344 1.24449Z" fill="#FEC531"/>
<path d="M92.0359 1.33445C92.0359 1.24253 92.1359 0.874858 91.9359 0.966777L91.8359 1.0587C92.0359 0.874857 91.8359 1.61021 92.0359 1.33445Z" fill="#FEC531"/>
<path d="M91.9338 3.99321L91.8338 3.7168C91.7338 3.90107 91.6338 4.17748 91.5338 4.17748C91.4338 4.82244 91.6338 3.7168 91.9338 3.99321Z" fill="#FEC531"/>
<path d="M92.4344 4.63574C92.2344 4.63574 92.2344 4.91216 92.2344 5.0043C92.3344 4.82002 92.4344 4.82002 92.4344 4.63574Z" fill="#FEC531"/>
<path d="M97.4406 7.47754L97.1406 7.8461C97.3406 7.8461 97.3406 7.75396 97.4406 7.47754Z" fill="#FEC531"/>
<path d="M99.8406 5.91998L99.9406 5.64355L99.6406 6.01212L99.8406 5.91998Z" fill="#FEC531"/>
<path d="M106.439 13.4409L106.939 13.0723C106.839 13.0723 106.239 13.5331 106.439 13.4409Z" fill="#FEC531"/>
<path d="M107.639 14.6319C107.239 14.5381 106.939 14.5381 107.239 14.6319C107.439 14.6319 107.739 14.6319 107.639 14.6319Z" fill="#FEC531"/>
<path d="M97.6391 20.2269L97.5391 20.041V20.2269H97.6391Z" fill="#FEC531"/>
</svg>
