<svg width="113" height="33" viewBox="0 0 113 33" fill="none" xmlns="http://www.w3.org/2000/svg">
<path d="M0.0392305 15.5946C-0.0607695 15.779 0.0392305 16.1479 0.23923 16.0557L0.339231 15.4102L0.0392305 15.5946Z" fill="#48BCB9"/>
<path d="M1.13594 16.6949C1.33594 16.4194 1.53594 15.8684 1.33594 15.3174C1.13594 15.8684 1.13594 15.6847 0.935937 16.3275C0.735937 16.4194 0.635938 16.1439 0.635938 15.9602C0.635938 16.1439 0.335938 15.8684 0.335938 16.2357C0.535938 16.6949 0.835938 16.6949 1.03594 16.3275C1.23594 16.4194 1.13594 16.5112 1.13594 16.6949Z" fill="#48BCB9"/>
<path d="M16.6391 17.0659L16.5391 16.9697C16.6391 17.0659 16.6391 17.0659 16.6391 17.0659Z" fill="#48BCB9"/>
<path d="M26.2406 17.0615C26.1406 17.0615 26.1406 17.1577 26.1406 17.1577C26.2406 17.1577 26.2406 17.0615 26.2406 17.0615Z" fill="#48BCB9"/>
<path d="M27.9429 17.6133C27.8429 17.7071 27.9429 17.7071 27.9429 17.6133V17.6133Z" fill="#48BCB9"/>
<path d="M16.6406 17.0615L16.9406 17.2474C16.9406 17.0615 16.8406 17.0615 16.6406 17.0615Z" fill="#48BCB9"/>
<path d="M3.24063 15.1357C3.14063 15.1357 3.14062 15.2287 3.14062 15.3216L3.24063 15.2287V15.1357Z" fill="#48BCB9"/>
<path d="M12.4359 17.7041C12.3359 17.7975 12.3359 17.8909 12.3359 17.9843L12.4359 17.7041Z" fill="#48BCB9"/>
<path d="M9.23976 17.8862C9.33976 17.8862 9.33976 17.4269 9.33976 17.1514C9.33976 17.3351 9.23976 17.4269 9.23976 17.5188C9.13976 17.6106 9.23976 17.7943 9.23976 17.8862Z" fill="#48BCB9"/>
<path d="M109.139 15.6865C109.039 15.7799 109.039 15.8733 109.039 15.9667L109.139 15.6865Z" fill="#48BCB9"/>
<path d="M30.9429 18.1621C30.8429 18.2559 30.9429 18.2559 30.9429 18.1621V18.1621Z" fill="#48BCB9"/>
<path d="M58.3372 17.244C58.0372 16.7851 58.8372 16.6933 58.3372 16.1426C58.4372 16.3262 57.9372 16.9687 58.3372 17.244Z" fill="#48BCB9"/>
<path d="M3.33594 15.2383H3.43594C3.43594 15.1445 3.33594 15.1445 3.33594 15.2383Z" fill="#48BCB9"/>
<path d="M37.8422 17.7074C37.8422 17.6144 37.8422 17.5215 37.7422 17.5215C37.7422 17.5215 37.7422 17.5215 37.8422 17.7074Z" fill="#48BCB9"/>
<path d="M32.6406 17.0615L32.7406 17.1577C32.7406 17.1577 32.7406 17.0615 32.6406 17.0615Z" fill="#48BCB9"/>
<path d="M40.4375 16.88C40.5375 16.88 40.5375 16.9739 40.6375 16.88C40.6375 16.88 40.6375 16.88 40.6375 16.7861C40.5375 16.88 40.5375 16.9739 40.4375 16.88Z" fill="#48BCB9"/>
<path d="M43.2391 16.7906C43.2391 16.7906 43.2391 16.6943 43.1391 16.6943H43.0391L43.2391 16.7906Z" fill="#48BCB9"/>
<path d="M97.0391 13.3027C97.1391 13.4868 97.1391 13.5788 97.1391 13.7628C97.0391 13.3947 97.5391 13.3027 97.0391 13.3027Z" fill="#48BCB9"/>
<path d="M3.24219 15.4125C3.24219 15.3195 3.24219 15.2266 3.34219 15.2266H3.24219C3.24219 15.3195 3.24219 15.4125 3.24219 15.4125Z" fill="#48BCB9"/>
<path d="M40.4375 12.751L40.8375 12.8472C40.7375 12.8472 40.6375 12.751 40.4375 12.751Z" fill="#48BCB9"/>
<path d="M77.0391 13.2153L77.1391 13.1191C77.1391 13.1191 77.1391 13.1191 77.0391 13.2153Z" fill="#48BCB9"/>
<path d="M42.2422 12.751C42.3422 12.9353 42.4422 13.0274 42.5422 13.1195V13.0274L42.2422 12.751Z" fill="#48BCB9"/>
<path d="M100.037 12.5681C99.6375 12.5681 99.8375 13.2098 99.7375 13.5764C99.2375 13.7597 99.5375 13.1181 99.3375 12.7514C99.0375 12.9348 98.7375 13.5764 98.5375 13.4847C98.5375 13.3931 98.4375 13.3014 98.5375 13.2098C98.2375 13.7597 97.5375 13.2098 97.1375 13.943C97.1375 13.8514 97.1375 13.8514 97.1375 13.7597C97.2375 14.1264 97.2375 14.4014 97.2375 14.6763C97.0375 14.6763 96.8375 15.1346 96.8375 14.6763C96.9375 14.6763 96.9375 14.493 97.0375 14.4014L96.8375 14.5847C96.6375 13.943 97.1375 14.4014 97.1375 13.8514C96.7375 14.0347 96.3375 14.5847 96.0375 14.4014C95.9375 13.7597 96.7375 14.218 96.3375 13.6681L96.8375 13.943C96.5375 12.9348 97.1375 14.0347 96.8375 12.9348C96.2375 12.7514 96.1375 13.2098 95.5375 13.0264C95.4375 13.3931 95.5375 13.5764 95.4375 13.8514C94.5375 14.493 94.7375 12.2931 94.1375 13.1181C93.9375 13.5764 93.9375 14.3097 93.4375 13.943L93.6375 13.2098C93.0375 13.1181 93.3375 14.218 92.7375 13.7597C92.8375 13.4847 93.2375 13.5764 93.1375 13.4847C92.7375 12.9348 92.8375 13.8514 92.5375 13.8514L92.4375 13.2098C91.8375 13.3014 91.1375 13.7597 90.4375 13.8514C90.4375 13.6681 90.6375 13.4847 90.4375 13.3014C89.5375 13.5764 88.6375 13.2098 87.7375 12.8431L87.4375 13.3931C87.3375 13.3931 87.3375 13.1181 87.3375 13.0264C87.0375 12.8431 87.3375 13.3931 87.1375 13.5764C86.9375 13.5764 86.9375 13.3014 87.0375 13.1181C86.4375 13.5764 85.4375 14.1264 84.8375 13.4847L84.9375 13.3014C84.4375 13.1181 84.4375 14.4014 83.9375 13.8514L84.0375 13.7597C83.0375 13.4847 81.8375 14.0347 81.1375 13.2098C80.9375 13.943 80.1375 12.8431 80.0375 13.943C79.4375 13.3931 79.6375 13.2098 78.8375 12.8431C78.6375 12.7514 78.5375 13.4847 78.2375 13.6681V13.1181L77.8375 13.6681L77.6375 13.0264L77.3375 13.2098C77.4375 13.2098 77.5375 13.4847 77.5375 13.6681C77.1375 13.943 76.5375 13.3014 76.5375 12.9348L75.6375 13.3931C75.6375 13.2098 75.8375 13.1181 75.9375 12.9348C75.4375 13.4847 75.8375 12.2931 75.3375 12.8431C75.4375 12.9348 75.3375 13.2098 75.3375 13.3014C75.1375 12.9348 74.6375 12.9348 74.2375 13.1181L74.3375 12.7514C73.6375 12.6598 72.8375 12.9348 72.0375 12.9348C72.3375 13.1181 72.2375 13.7597 72.0375 13.8514L71.9375 13.2098C71.7375 13.5764 72.1375 13.3931 71.8375 13.8514C71.5375 13.7597 71.6375 13.2098 71.8375 12.9348L71.4375 13.1181C71.4375 12.9348 71.5375 12.8431 71.5375 12.6598C71.3375 13.0264 70.9375 12.0182 70.7375 12.6598V12.4765C69.9375 12.4765 69.6375 12.6598 68.9375 12.6598C68.9375 13.2098 68.6375 13.0264 68.4375 13.4847C67.9375 13.3014 67.4375 12.9348 66.9375 12.9348C66.5375 13.2098 66.8375 13.3931 66.6375 13.6681C66.6375 13.2098 66.0375 13.2098 66.3375 12.9348C65.6375 13.0264 65.4375 13.0264 64.6375 13.3931C64.7375 13.5764 64.8375 13.6681 64.7375 13.8514C64.5375 13.943 64.3375 13.6681 64.4375 13.3931V13.3014C63.4375 14.0347 62.2375 11.9265 61.4375 12.8431V12.7514L60.6375 13.3014C60.2375 13.2098 60.8375 12.9348 60.6375 12.6598C59.7375 13.3931 59.2375 12.5681 58.5375 13.0264C58.0375 11.6515 56.6375 13.1181 55.8375 12.2015V12.5681C55.6375 12.8431 55.6375 12.3848 55.4375 12.2931C55.4375 12.5681 55.6375 12.5681 55.5375 12.7514C53.9375 13.1181 52.1375 12.2931 50.5375 12.0182C49.9375 11.9265 50.2375 13.6681 49.4375 12.9348L49.6375 12.2931C48.4375 13.0264 47.1375 12.2931 45.9375 12.9348C46.0375 12.7514 46.0375 12.5681 46.1375 12.5681C45.8375 12.1098 45.2375 12.5681 45.2375 12.9348C45.0375 12.9348 45.1375 12.5681 45.0375 12.4765C44.7375 12.2015 44.4375 13.0264 44.2375 12.6598C44.2375 12.5681 44.3375 12.4765 44.3375 12.4765C44.1375 12.6598 43.5375 12.4765 43.7375 12.9348C43.2375 12.6598 42.8375 13.2098 42.5375 12.9348C42.3375 13.4847 41.7375 12.6598 41.7375 13.4847C41.7375 12.6598 40.9375 12.8431 40.6375 13.2098C40.7375 12.9348 40.3375 12.9348 40.4375 12.5681C40.1375 12.5681 39.8375 12.7514 39.9375 13.2098C39.3375 12.2015 38.7375 14.0347 38.3375 12.7514C37.4375 13.2098 36.5375 13.5764 35.6375 13.7597C35.6375 12.9348 36.6375 13.6681 36.5375 12.7514C35.7375 13.1181 35.2375 13.8514 34.4375 13.6681C34.2375 13.5764 34.5375 13.3014 34.6375 13.1181C33.8375 13.4847 33.0375 13.1181 32.3375 13.5764C32.3375 13.4847 32.4375 13.3931 32.4375 13.3014C32.3375 13.3014 32.1375 13.2098 32.1375 13.5764L32.2375 13.4847C32.5375 14.0347 31.7375 14.6763 31.7375 14.9513C31.9375 13.8514 31.0375 14.6763 31.3375 13.3014C31.2375 13.3931 31.1375 13.5764 31.1375 13.8514C31.0375 13.7597 30.9375 13.6681 31.0375 13.3014C30.5375 13.4847 30.7375 13.943 30.2375 13.943C30.2375 13.7597 30.3375 13.6681 30.3375 13.4847C30.1375 13.8514 29.9375 14.218 29.5375 14.0347C29.5375 13.943 29.5375 13.7597 29.6375 13.7597C28.9375 13.8514 28.5375 14.768 27.7375 14.4014C27.9375 13.5764 27.4375 14.1264 27.4375 13.4847L27.0375 13.6681L27.2375 14.0347C26.8375 14.0347 26.6375 14.5847 26.3375 14.3097L26.5375 14.0347L25.8375 14.218L26.2375 14.493C25.9375 14.8597 26.3375 15.318 25.8375 15.2263C25.9375 15.1346 25.4375 15.2263 25.3375 14.8597C25.1375 15.043 25.0375 15.318 24.7375 15.1346C24.6375 14.9513 24.7375 14.4014 24.7375 14.218C24.6375 14.768 23.9375 14.4013 23.7375 15.043C23.8375 14.8597 23.8375 14.493 23.7375 14.493L23.6375 14.9513C23.4375 14.768 23.4375 14.768 23.4375 14.493C22.9375 14.4014 23.6375 15.318 23.0375 15.043C23.0375 15.043 23.0375 14.9513 23.1375 14.8597C22.5375 14.6763 22.0375 15.2263 21.4375 14.9513C21.2375 14.3097 21.9375 14.768 21.7375 14.218C20.9375 14.4014 20.1375 15.1346 19.4375 14.9513L19.5375 15.043C19.4375 16.0513 18.9375 14.5847 18.6375 15.043C18.7375 14.9513 18.7375 14.493 18.7375 14.5847C18.2375 14.493 17.7375 14.8597 16.9375 15.2263L17.0375 14.9513C16.7375 14.768 16.2375 14.8597 15.9375 14.768C15.8375 15.043 15.6375 14.9513 15.8375 15.318C14.7375 13.943 13.9375 16.1429 13.0375 14.9513C13.1375 14.9513 13.2375 14.768 13.2375 14.768L12.5375 15.043C12.6375 15.5013 12.6375 15.318 12.8375 15.593C12.7375 15.8679 12.5375 16.0513 12.3375 16.0513C12.6375 15.7763 12.3375 15.4096 12.1375 15.1346C12.1375 15.2263 12.1375 15.4096 12.1375 15.5013C11.7375 14.768 12.1375 16.3262 11.5375 15.8679V15.6846C11.3375 15.7763 11.1375 16.1429 10.9375 16.0513C10.8375 15.593 11.1375 15.7763 11.1375 15.4096C10.8375 15.4096 10.5375 16.3262 10.2375 15.8679C10.3375 15.6846 10.5375 15.6846 10.6375 15.593C10.3375 15.043 10.2375 15.1346 10.0375 15.1346L9.5375 14.8597L9.6375 15.043C9.3375 16.3262 8.8375 15.318 8.4375 16.1429C8.9375 15.318 8.5375 15.6846 8.5375 15.1346C8.4375 14.9513 8.2375 14.8597 8.2375 14.6763C8.0375 15.1346 7.8375 14.3097 7.5375 15.043C7.5375 14.8597 7.2375 15.043 7.3375 14.5847C7.0375 14.768 7.4375 14.8597 7.4375 15.1346C6.9375 15.7763 6.2375 14.4014 5.6375 15.318C5.0375 15.6846 4.9375 16.3262 4.4375 16.6012C4.2375 16.3262 4.5375 15.9596 4.5375 15.9596C4.2375 15.6846 4.0375 15.7763 3.7375 15.9596C3.8375 15.7763 3.7375 15.6846 3.6375 15.5013C3.4375 15.5929 3.5375 16.1429 3.2375 15.8679C3.2375 15.6846 3.3375 15.318 3.4375 15.1346C3.1375 15.318 2.9375 15.6846 2.6375 15.8679C2.5375 15.593 2.7375 15.4096 2.8375 15.2263C2.5375 15.4096 2.0375 15.5013 1.9375 16.0513L2.1375 16.2346C2.0375 16.2346 2.0375 15.7763 2.1375 15.6846C2.4375 15.318 2.5375 15.8679 2.5375 16.0513L2.1375 16.2346C2.4375 17.2429 2.9375 16.0513 3.3375 16.0513L3.2375 16.7846L3.6375 16.1429C3.7375 16.3262 3.8375 16.7845 3.6375 16.8762C3.9375 17.2429 3.8375 16.6012 4.1375 16.9679C4.1375 17.0595 4.1375 17.0595 4.1375 17.0595L4.4375 16.7846C4.4375 16.9679 4.5375 17.3345 4.3375 17.2429C4.8375 17.7012 5.1375 16.6012 5.3375 17.2429V17.3345C6.0375 17.0595 5.3375 16.7846 5.8375 16.0513L6.2375 17.4262V16.8762C6.3375 16.8762 6.4375 16.9679 6.4375 17.1512C6.7375 16.7845 6.3375 16.8762 6.5375 16.5096C6.9375 16.9679 7.5375 16.2346 7.6375 17.1512C7.7375 16.6929 7.2375 16.8762 7.6375 16.5096C7.7375 17.4262 8.0375 16.3262 8.4375 16.7846C8.3375 17.2429 8.0375 17.0595 8.3375 17.4262C8.5375 16.6012 8.9375 17.6095 9.2375 17.4262C9.2375 16.7846 9.8375 17.1512 10.2375 16.8762C10.2375 17.0595 11.1375 17.2429 11.5375 17.4262V17.5178C11.6375 16.8762 12.0375 16.9679 12.3375 16.7846C12.3375 17.1512 12.3375 17.3345 12.1375 17.5178H12.4375C12.5375 17.3345 12.5375 17.1512 12.7375 17.0595L12.6375 17.6095C13.0375 17.6095 13.4375 16.9679 13.9375 17.3345C13.9375 16.8762 13.4375 16.0513 14.0375 15.6846C14.0375 15.9596 14.1375 16.3262 13.9375 16.5096C13.9375 16.5096 14.1375 16.3262 14.2375 16.4179L14.0375 16.8762C14.2375 17.0595 14.1375 16.5096 14.3375 16.5096C14.3375 16.8762 14.4375 16.7845 14.4375 17.0595C14.4375 17.0595 14.2375 16.8762 14.2375 17.0595C14.4375 17.1512 14.7375 17.3345 14.8375 17.6095C14.8375 17.4262 14.8375 17.1512 14.9375 17.0595C15.3375 17.0595 15.1375 17.5178 15.3375 17.7012C15.4375 17.4262 15.6375 17.7012 15.6375 17.1512C15.7375 17.1512 15.7375 17.4262 15.8375 17.5178C16.0375 17.2428 16.8375 17.4262 16.5375 16.8762H16.4375C17.0375 16.3262 17.8375 17.1512 18.5375 16.8762V17.0595C18.9375 16.8762 19.4375 16.8762 19.6375 16.5096C19.7375 16.5096 19.9375 16.7845 19.9375 17.0595C20.2375 16.8762 20.2375 16.6929 20.7375 16.9679C20.4375 17.3345 20.8375 17.2429 20.4375 17.2429C20.8375 17.4262 20.9375 17.7012 21.3375 17.1512C21.2375 17.6095 21.6375 17.7012 21.8375 17.6095L21.5375 17.2429C21.7375 17.1512 21.9375 17.2429 22.1375 17.2429L22.0375 17.8845C22.8375 18.6178 23.4375 16.6012 24.1375 17.7928C24.3375 17.3345 23.6375 17.5178 23.8375 16.9679C24.2375 17.0595 24.6375 17.8845 24.7375 17.8845C25.2375 18.1595 25.1375 16.9679 25.7375 17.1512C25.6375 16.9679 25.5375 16.3262 25.9375 16.1429C26.3375 16.2346 26.4375 17.0595 26.2375 17.2429C26.1375 17.2429 26.1375 17.1512 26.1375 17.1512C26.0375 17.2429 25.8375 17.3345 26.0375 17.6095V17.4262C26.2375 17.6095 26.7375 17.6095 26.6375 17.9761C26.9375 17.7928 26.7375 17.6095 26.5375 17.5178C27.0375 17.7928 27.2375 17.5178 27.7375 17.7012C27.6375 17.6095 27.5375 17.3345 27.6375 17.3345C28.3375 17.6095 27.9375 16.8762 28.4375 16.7846C28.7375 17.1512 28.3375 17.6095 28.8375 17.2429C29.1375 17.4262 28.9375 17.7928 28.8375 17.9761C29.2375 17.5178 29.6375 18.2511 29.9375 18.2511L29.7375 18.4344C29.8375 18.3428 30.0375 18.3428 30.1375 18.3428L29.9375 17.8845C30.0375 17.9761 30.2375 17.9762 30.2375 18.1595C30.3375 17.8845 30.1375 17.4262 30.3375 17.0595C30.5375 17.2428 30.9375 16.7845 30.9375 17.3345C30.3375 17.1512 31.0375 17.8845 30.5375 18.0678C30.6375 17.9761 30.7375 17.9761 30.9375 18.0678C30.9375 18.1595 30.9375 18.1595 30.8375 18.2511C31.4375 18.7094 31.0375 17.6095 31.6375 17.6095C31.5375 17.9761 31.8375 18.2511 31.8375 18.1595C31.6375 18.1595 31.7375 17.6095 31.9375 17.3345C32.3375 17.6095 32.3375 17.1512 32.5375 17.1512L32.3375 17.0595C32.4375 16.6929 32.5375 16.7845 32.8375 16.6929C32.8375 16.9679 32.6375 16.8762 32.7375 16.9679C33.0375 16.4179 33.4375 17.5178 33.8375 17.1512C34.0375 17.3345 33.8375 17.7928 34.0375 17.8845C34.4375 17.4262 34.5375 18.3428 35.0375 17.9761C34.8375 17.5178 34.8375 17.6095 35.1375 17.2429L34.3375 17.6095L34.8375 16.9679C34.6375 16.9679 34.3375 17.2429 34.2375 17.1512C34.4375 16.7845 34.4375 16.8762 34.3375 16.5096C34.6375 17.1512 34.9375 16.1429 35.3375 16.5096V17.6095C35.9375 18.0678 36.3375 17.0595 37.0375 17.2429L36.8375 17.0595C36.9375 16.6012 37.2375 16.9679 37.5375 16.7846C37.5375 17.1512 37.6375 17.2428 37.7375 17.5178C37.7375 17.2428 38.2375 17.5178 38.3375 16.7846L38.6375 17.2429C39.2375 17.4262 39.2375 16.2346 39.8375 16.3262C39.6375 16.6929 39.9375 16.9679 39.5375 17.2429C39.7375 17.2429 39.9375 17.3345 39.9375 17.0595C40.0375 17.2428 40.4375 16.6012 40.6375 16.8762C40.7375 16.6929 40.7375 16.3262 40.9375 16.3262C40.9375 16.4179 40.9375 16.5096 40.9375 16.5096C40.9375 16.3262 41.2375 16.2346 41.0375 15.8679C41.6375 16.9679 42.6375 15.7763 43.1375 16.6929C43.5375 16.6012 44.0375 16.4179 44.4375 16.4179C44.4375 16.5096 44.4375 16.6012 44.3375 16.6012C44.8375 16.9679 44.6375 15.5929 45.2375 15.9596C45.5375 16.5096 44.9375 16.3262 45.1375 16.5096C45.2375 17.7012 45.8375 16.3262 46.2375 17.0595L46.1375 17.1512C46.4375 17.5178 46.8375 16.6929 47.3375 16.7846C47.3375 16.7846 47.3375 16.8762 47.3375 16.9679C47.6375 16.3262 48.2375 16.1429 48.7375 15.9596C48.6375 16.4179 48.5375 16.2346 48.6375 16.6929C48.8375 16.6012 48.5375 15.9596 48.9375 15.7763C49.0375 16.0513 49.3375 16.2346 49.4375 16.7846H49.0375C49.2375 17.4262 49.5375 16.7845 49.7375 16.8762V17.1512C50.3375 17.0595 50.3375 16.3262 51.0375 16.4179L50.9375 16.2346C51.2375 15.5013 51.2375 16.6012 51.6375 16.1429L51.7375 16.8762C51.9375 16.6929 52.5375 16.1429 52.9375 16.0513C52.7375 16.6012 52.2375 16.8762 51.9375 17.1512C52.1375 17.1512 52.7375 17.0595 52.8375 16.6929C52.7375 16.7845 52.6375 16.9679 52.5375 16.8762C52.8375 16.3262 53.2375 16.0513 53.6375 16.0513C53.5375 17.4262 54.8375 16.4179 55.2375 17.5178C56.0375 16.9679 56.8375 17.7012 57.8375 17.6095C57.5375 16.5096 58.1375 17.6095 58.0375 16.4179C58.2375 16.3262 58.3375 16.3262 58.3375 16.4179L59.0375 17.0595C59.2375 17.4262 58.8375 17.3345 58.8375 17.5178C59.3375 17.6095 59.0375 17.9761 59.3375 18.2511C59.2375 17.8845 59.5375 17.7012 59.7375 17.7928L59.3375 17.2429C60.0375 16.6929 59.9375 18.1595 60.6375 17.6095L60.4375 17.9761C60.8375 17.7928 61.7375 17.9761 62.1375 17.0595C62.2375 17.1512 62.2375 17.5178 62.1375 17.6095C62.9375 17.7928 64.0375 16.6929 64.6375 17.2429L64.5375 17.5178C64.7375 17.4262 64.8375 16.9679 65.0375 17.2429C65.0375 17.3345 64.9375 17.5178 65.0375 17.5178C65.1375 17.4262 65.4375 17.0595 65.6375 17.2429L65.4375 17.5178C66.2375 17.8845 66.7375 16.7845 67.4375 16.6012C67.4375 17.4262 68.0375 17.7012 68.4375 17.7928V17.8845C69.4375 17.9761 70.0375 17.2429 70.9375 16.9679C71.4375 17.8845 72.8375 17.3345 73.6375 17.8845C73.5375 17.7012 73.6375 17.2429 73.8375 17.1512C74.0375 17.3345 74.4375 16.6012 74.3375 17.3345H74.2375C74.3375 18.0678 74.8375 17.8845 75.1375 17.8845L75.2375 16.8762C76.1375 18.2511 77.5375 16.4179 78.0375 17.6095C78.2375 17.3345 78.5375 17.3345 78.7375 17.1512V17.7012C79.3375 17.8845 79.6375 17.8845 80.3375 17.7928L80.1375 18.1595C80.5375 18.1595 80.6375 16.6929 81.0375 16.6012L81.1375 17.3345C81.8375 17.3345 82.5375 17.9761 83.2375 17.3345C83.2375 17.4262 83.2375 17.7012 83.0375 17.7012C83.3375 17.7012 84.3375 18.2511 84.2375 17.1512C84.2375 17.8845 84.9375 17.2429 85.3375 16.9679L85.2375 17.5178C85.5375 16.8762 85.5375 16.6929 86.0375 16.5096C86.1375 16.6012 86.1375 16.8762 85.9375 16.7846C86.3375 17.0595 86.2375 16.3262 86.6375 16.6012L86.4375 16.9679C86.8375 16.9679 86.7375 16.8762 86.9375 16.4179C87.1375 16.2346 87.6375 16.5096 87.6375 17.0595C87.7375 16.7845 87.9375 16.4179 88.1375 16.5096C88.1375 16.6929 88.0375 16.7845 88.0375 16.8762C88.6375 17.2429 88.9375 16.3262 89.3375 16.7846C89.3375 16.9679 89.3375 17.0595 89.4375 17.0595C88.9375 17.0595 88.5375 16.9679 88.6375 16.9679C88.6375 17.4262 89.0375 17.5178 88.7375 18.1595C89.0375 17.7928 89.6375 17.0595 90.0375 17.2429C90.0375 17.2429 90.0375 17.3345 90.0375 17.4262V17.5178C90.1375 17.6095 90.2375 17.5178 90.2375 17.4262C90.3375 17.5178 90.4375 17.5178 90.5375 17.6095C90.5375 17.9761 90.9375 17.7928 91.1375 17.8845C91.1375 17.3345 91.3375 17.4262 91.1375 17.0595C91.1375 17.0595 91.1375 17.1512 90.9375 17.1512C90.9375 17.1512 90.8375 17.1512 90.8375 17.2429C90.7375 17.2429 90.5375 17.2429 90.3375 17.2429C90.5375 16.9679 90.6375 16.7845 90.8375 17.0595C90.9375 16.6929 91.0375 16.4179 91.1375 16.2346C91.4375 16.9679 91.9375 17.3345 91.9375 17.7928C92.5375 17.5178 93.3375 17.6095 93.7375 16.6929C93.9375 16.6012 93.9375 16.9679 94.0375 17.1512C93.9375 17.2429 93.8375 17.2429 93.7375 17.3345C94.0375 17.0595 94.7375 17.2428 94.8375 16.6012C95.2375 16.8762 94.6375 17.2429 95.1375 17.1512L95.0375 17.3345C96.2375 18.4345 96.9375 15.5929 98.2375 17.0595C98.1375 16.9679 98.1375 16.9679 98.1375 16.7846C99.6375 17.4262 101.137 16.2346 102.637 17.2429C103.037 17.4262 103.138 16.9679 103.338 16.6929L103.438 17.2429L103.838 16.6012C104.438 16.1429 104.837 17.9761 105.637 17.0595L105.537 16.6929C105.838 16.7845 106.438 16.5096 106.338 16.8762C106.338 16.7845 106.438 16.5096 106.537 16.6929V16.9679L107.237 16.5096C107.737 16.6929 107.137 17.7012 107.938 17.7012C108.238 17.6095 108.737 16.8762 108.637 16.6929C108.537 16.6929 108.338 16.5096 108.338 16.2346L108.637 16.0513C108.737 15.2263 108.937 14.3097 108.237 13.7597L107.737 14.3097L107.637 13.8514H108.037C107.838 13.4847 107.737 13.7597 107.537 14.0347C107.537 13.8514 107.438 13.6681 107.338 13.5764L106.938 14.4014C106.838 14.0347 107.138 13.7597 106.838 13.5764C106.638 13.943 107.037 14.3097 106.637 14.5847C106.438 14.218 106.537 13.8514 106.237 14.218C106.237 14.0347 106.238 13.8514 106.338 13.7597C106.138 14.0347 105.737 13.8514 105.637 14.3097C105.438 13.8514 104.838 14.4014 104.938 13.5764C104.838 13.7597 104.537 14.218 104.338 14.218C104.738 13.2098 103.537 14.1264 103.637 13.1181C103.337 13.943 102.637 13.4847 102.137 13.943C102.137 13.8514 102.237 13.7597 102.237 13.7597C101.937 13.6681 101.837 13.3931 101.737 13.3014C101.737 14.0347 101.237 14.218 101.037 14.5847C100.737 13.8514 101.237 13.7597 101.137 13.1181C101.137 13.6681 100.537 13.6681 100.637 14.218C100.337 13.7597 100.437 14.0347 100.237 13.3931C100.137 14.3097 100.037 13.5764 99.7375 14.1264C99.3375 13.6681 99.6375 13.3014 99.2375 13.5764C99.6375 12.9348 100.037 12.5681 100.037 12.5681ZM90.2375 14.0347C90.3375 14.0347 90.4375 14.0347 90.4375 14.0347C90.3375 14.0347 90.3375 14.0347 90.2375 14.0347ZM89.3375 14.0347C89.4375 14.0347 89.5375 14.0347 89.7375 14.0347C89.7375 14.218 89.7375 14.4014 89.6375 14.4014C89.7375 14.3097 89.5375 14.218 89.3375 14.0347ZM91.0375 17.7012C90.9375 17.7928 90.8375 17.7012 90.8375 17.6095C90.9375 17.6095 90.9375 17.6095 91.0375 17.5178C91.0375 17.5178 91.0375 17.5178 91.0375 17.4262C91.1375 17.5178 91.1375 17.6095 91.0375 17.7012Z" fill="#48BCB9"/>
<path d="M91.3413 16.972C91.3413 16.8791 91.3413 16.8791 91.3413 16.7861C91.3413 16.8791 91.2413 16.972 91.3413 16.972Z" fill="#48BCB9"/>
<path d="M11.9359 15.3228C11.9359 15.3228 11.9359 15.2266 11.8359 15.2266L11.9359 15.3228Z" fill="#48BCB9"/>
<path d="M9.94062 15.3216L9.64062 15.1357C9.84063 15.2287 9.94062 15.3216 9.94062 15.3216Z" fill="#48BCB9"/>
<path d="M32.4375 13.673C32.5375 13.5781 32.6375 13.4833 32.4375 13.673V13.673Z" fill="#48BCB9"/>
<path d="M25.3359 15.1405C25.4359 15.0471 25.4359 14.9537 25.5359 14.8604C25.4359 14.8604 25.3359 14.8604 25.3359 15.1405Z" fill="#48BCB9"/>
<path d="M25.8391 14.8639C25.7391 14.7693 25.6391 14.7693 25.5391 14.8639C25.6391 14.8639 25.7391 14.9585 25.8391 14.8639Z" fill="#48BCB9"/>
<path d="M1.53906 15.4153L1.73906 15.3214C1.63906 15.2275 1.63906 15.2275 1.53906 15.4153Z" fill="#48BCB9"/>
<path d="M4.5375 15.2287C4.4375 15.2287 4.1375 14.8601 3.9375 14.9523V15.1366C4.0375 14.8602 4.3375 15.5051 4.5375 15.2287Z" fill="#48BCB9"/>
<path d="M7.14062 17.4259L6.64062 17.334C6.74063 17.5178 6.84063 17.7936 6.64062 17.8855C7.24063 18.3451 6.44063 17.334 7.14062 17.4259Z" fill="#48BCB9"/>
<path d="M8.74271 17.7041C8.44271 17.7962 8.74271 17.9805 8.74271 18.0727C8.94271 17.8884 8.94271 17.7962 8.74271 17.7041Z" fill="#48BCB9"/>
<path d="M20.1406 17.2441V17.7042C20.3406 17.6122 20.1406 17.5202 20.1406 17.2441Z" fill="#48BCB9"/>
<path d="M22.2375 14.7706L21.9375 14.4941V14.8627L22.2375 14.7706Z" fill="#48BCB9"/>
<path d="M23.6391 18.0736H23.5391L23.8391 17.8877L23.6391 18.0736Z" fill="#48BCB9"/>
<path d="M42.736 17.248L42.636 16.6934C42.536 16.7858 42.536 17.4329 42.736 17.248Z" fill="#48BCB9"/>
<path d="M50.9375 16.5114C51.0375 16.7876 51.2375 16.9717 51.4375 16.6955C51.2375 16.6035 51.0375 16.4194 50.9375 16.5114Z" fill="#48BCB9"/>
<path d="M75.7391 17.6133L75.5391 17.7992L75.8391 17.6133H75.7391Z" fill="#48BCB9"/>
<path d="M89.9382 0.75C89.8382 0.842011 89.6382 1.21005 89.7382 1.21005L90.1382 0.75H89.9382Z" fill="#48BCB9"/>
<path d="M89.8406 1.94326C90.0406 1.75968 90.4406 1.30074 90.7406 0.841797C90.3406 1.30074 90.4406 1.11716 89.9406 1.66789C89.8406 1.66789 89.9406 1.39253 90.0406 1.20895C89.9406 1.30074 90.0406 1.02537 89.7406 1.30074C89.5406 1.75968 89.6406 1.85147 90.0406 1.5761C90.0406 1.75968 89.8406 1.85147 89.8406 1.94326Z" fill="#48BCB9"/>
<path d="M100.139 9.37012C100.139 9.37012 100.039 9.37012 100.039 9.46633C100.139 9.46633 100.139 9.37012 100.139 9.37012Z" fill="#48BCB9"/>
<path d="M96.1406 6.71094V6.89684C96.2406 6.71094 96.1406 6.71094 96.1406 6.71094Z" fill="#48BCB9"/>
<path d="M91.5437 1.20801C91.5437 1.20801 91.4438 1.30422 91.3438 1.30422C91.4438 1.30422 91.4437 1.30422 91.5437 1.20801C91.5437 1.30422 91.5437 1.30422 91.5437 1.20801Z" fill="#48BCB9"/>
<path d="M93.9422 6.06934C93.8422 6.06934 93.8422 6.16228 93.7422 6.25523L93.9422 6.06934Z" fill="#48BCB9"/>
<path d="M92.5391 5.33725C92.5391 5.33725 92.8391 4.96788 93.0391 4.7832C92.9391 4.96788 92.8391 5.06023 92.7391 5.06023C92.6391 5.06023 92.5391 5.15257 92.5391 5.33725Z" fill="#48BCB9"/>
<path d="M94.9437 6.71094C94.9437 6.80389 94.8438 6.80389 94.8438 6.89684C94.9438 6.80389 94.9437 6.80389 94.9437 6.71094Z" fill="#48BCB9"/>
<path d="M84.9422 31.7352V31.6419L84.7422 31.4551L84.9422 31.7352Z" fill="#48BCB9"/>
<path d="M105.039 15.7812C105.439 16.0568 105.239 16.4242 105.739 16.6998C105.639 16.5161 105.439 15.8731 105.039 15.7812Z" fill="#48BCB9"/>
<path d="M104.742 13.1332C104.742 13.0402 104.842 12.9473 104.842 12.9473C104.742 12.9473 104.742 13.0402 104.742 13.1332Z" fill="#48BCB9"/>
<path d="M106.341 13.1299C106.241 13.2237 106.241 13.2237 106.341 13.1299C106.241 13.2237 106.341 13.2237 106.341 13.1299Z" fill="#48BCB9"/>
<path d="M91.5406 30.0816C91.4406 29.9896 91.3406 29.8977 91.1406 29.7139C91.4406 30.0815 91.3406 30.2654 91.5406 30.0816Z" fill="#48BCB9"/>
<path d="M91.4375 1.48571C91.5375 1.39276 91.5375 1.2998 91.6375 1.2998C91.6375 1.2998 91.6375 1.2998 91.5375 1.2998C91.4375 1.39275 91.4375 1.48571 91.4375 1.48571Z" fill="#48BCB9"/>
<path d="M108.844 9.82812L109.144 10.1083C109.044 9.92152 108.944 9.82812 108.844 9.82812Z" fill="#48BCB9"/>
<path d="M110.241 10.5625C110.141 10.7468 110.141 10.8389 110.141 10.9311C110.141 10.9311 110.241 10.9311 110.341 10.8389L110.241 10.5625Z" fill="#48BCB9"/>
<path d="M90.7406 31.6376C90.9406 31.5459 90.4406 31.0877 90.1406 30.721C90.2406 30.4461 90.5406 31.0877 90.8406 31.271C90.8406 30.996 90.5406 30.4461 90.6406 30.4461C90.7406 30.5377 90.7406 30.5377 90.8406 30.721C90.6406 30.1711 91.2406 30.4461 90.9406 29.8045C91.0406 29.8045 91.0406 29.8961 91.0406 29.8961C90.8406 29.6212 90.5406 29.3462 90.4406 29.1629C90.5406 29.0712 90.3406 28.7046 90.6406 29.0712C90.5406 29.0712 90.7406 29.2545 90.7406 29.3462V29.1629C91.2406 29.6212 90.7406 29.4379 91.0406 29.8045C91.0406 29.5295 90.9406 28.9796 91.1406 29.0712C91.5406 29.5295 90.9406 29.4379 91.5406 29.8045L91.2406 29.7128C92.0406 30.4461 91.0406 29.7128 91.8406 30.5377C92.2406 30.5377 91.9406 30.0795 92.2406 30.0795C92.0406 29.8045 91.9406 29.7128 91.7406 29.3462C91.7406 28.6129 93.0406 30.4461 92.7406 29.5295C92.5406 29.1629 92.0406 28.5213 92.5406 28.7046L92.9406 29.3462C93.2406 29.2545 92.4406 28.4296 93.0406 28.6129C93.1406 28.8879 93.0406 28.8879 93.0406 28.9796C93.5406 29.3462 92.9406 28.6129 93.0406 28.5213L93.4406 28.9796C93.6406 28.7046 93.6406 28.1547 93.8406 27.8797C93.9406 28.063 94.0406 28.2463 94.2406 28.338C94.4406 27.8797 95.0406 27.8797 95.6406 27.9714L95.4406 27.4214C95.4406 27.4214 95.6406 27.6047 95.6406 27.6964C95.9406 27.788 95.4406 27.4214 95.3406 27.2381C95.4406 27.1464 95.6406 27.4214 95.7406 27.6047C95.6406 27.0548 95.8406 26.3215 96.4406 26.6882L96.5406 26.8715C96.8406 26.8715 96.0406 25.8633 96.5406 26.1382V26.2299C97.1406 26.1382 97.2406 25.405 98.1406 25.8633C97.7406 25.2217 98.7406 25.8633 98.1406 24.9467C98.7406 25.2217 98.7406 25.405 99.3406 25.4966C99.4406 25.4966 99.0406 24.855 99.0406 24.6717L99.4406 25.13L99.2406 24.5801L99.7406 25.0384V24.855C99.6406 24.855 99.4406 24.6717 99.3406 24.5801C99.3406 24.3051 100.041 24.5801 100.241 24.855L100.341 24.2134C100.441 24.3968 100.441 24.4884 100.541 24.6717C100.341 24.0301 100.941 25.13 100.841 24.5801C100.741 24.4884 100.641 24.3051 100.541 24.2134C100.841 24.3968 101.041 24.3051 101.141 24.0301L101.341 24.3968C101.741 24.3051 101.841 23.8468 102.141 23.5719C101.941 23.4802 101.541 22.9303 101.541 22.8386L101.941 23.2969C101.741 22.9303 101.741 23.2052 101.541 22.747C101.741 22.747 102.041 23.2052 102.141 23.4802V23.2052C102.241 23.3885 102.241 23.4802 102.441 23.6635C102.241 23.2969 103.041 23.9385 102.741 23.3885L102.841 23.4802C103.141 23.2969 103.141 23.0219 103.441 22.747C103.141 22.2887 103.341 22.3803 103.141 21.922C103.441 21.922 103.941 22.1054 104.141 21.922C104.141 21.6471 103.941 21.5554 103.741 21.2804C104.041 21.6471 104.241 21.4638 104.341 21.8304C104.541 21.5554 104.641 21.5554 104.741 21.0055C104.541 20.9138 104.441 20.8222 104.441 20.7305C104.441 20.6388 104.741 20.8222 104.841 21.0055V21.0971C104.741 20.2722 106.641 21.5554 106.341 20.5472V20.6389V19.9973C106.541 19.9973 106.441 20.3639 106.741 20.4555C106.641 19.539 107.341 20.1806 107.341 19.539C107.941 19.9973 108.141 19.9056 108.241 19.6306C108.441 19.3557 108.441 19.1724 109.141 19.264L108.841 19.0807C108.741 18.7141 109.141 19.0807 109.341 19.0807C109.141 18.8974 108.941 18.989 108.941 18.8057C109.341 18.2558 110.041 17.9808 110.841 17.6142C111.641 17.2476 112.341 16.881 112.741 16.331C113.041 15.8727 110.941 15.8727 111.941 15.5061L112.541 15.6894C112.241 15.2311 112.341 14.7729 112.241 14.3146C112.141 13.8563 112.041 13.4897 111.441 13.2147C111.641 13.2147 111.841 13.123 111.841 13.2147C112.241 12.9397 111.441 12.6648 111.041 12.8481C111.041 12.7564 111.341 12.6648 111.541 12.5731C111.741 12.2981 110.541 12.4814 110.941 12.2065C111.041 12.1148 111.141 12.2065 111.241 12.2065C110.941 12.2065 110.841 11.7482 110.341 12.1148C110.241 11.7482 109.541 11.8399 109.541 11.4732C108.841 11.7482 109.141 10.9233 108.441 11.4732C109.141 10.9233 108.341 10.6483 107.841 10.8316C108.041 10.6483 107.841 10.5567 108.141 10.2817C107.941 10.19 107.741 10.2817 107.541 10.6483C107.841 9.64011 106.541 11.015 107.141 9.82342C106.441 9.91508 105.841 10.0067 105.341 9.91508C105.841 9.18183 105.841 10.0984 106.341 9.36514C105.741 9.4568 105.141 9.91507 104.941 9.54845C104.941 9.36514 105.241 9.27349 105.341 9.18183C104.741 9.27349 104.641 8.72355 104.041 8.90686C104.041 8.8152 104.141 8.81521 104.241 8.72355C104.141 8.72355 104.141 8.54024 103.941 8.8152L104.041 8.72355C103.841 9.27349 103.141 9.54845 102.941 9.82342C103.641 8.99851 102.741 9.4568 103.741 8.35692C103.641 8.35692 103.541 8.54024 103.341 8.72355C103.341 8.63189 103.341 8.44858 103.641 8.26527C103.341 8.26527 103.141 8.72354 102.941 8.54023C103.041 8.35692 103.141 8.35692 103.241 8.17361C102.941 8.44857 102.641 8.63189 102.541 8.44858C102.641 8.35692 102.641 8.26527 102.741 8.26527C102.441 8.17361 101.641 8.81521 101.541 8.26527C102.141 7.62367 101.541 7.9903 101.941 7.34871L101.641 7.44036L101.541 7.80699C101.441 7.71533 100.941 8.08196 100.941 7.80699L101.241 7.62367L100.841 7.53202V7.80699C100.441 7.9903 100.341 8.54024 100.241 8.26527C100.341 8.26527 100.041 8.17361 100.241 7.80699C100.041 7.9903 99.8406 8.08195 99.8406 7.89864C99.9406 7.71533 100.341 7.25705 100.341 7.16539C99.9406 7.62367 99.8406 7.07373 99.4406 7.53202C99.5406 7.44036 99.7406 7.16539 99.8406 7.07373L99.5406 7.44036C99.5406 7.25705 99.5406 7.16539 99.7406 6.98208C99.5406 6.79877 99.3406 7.71532 99.2406 7.25704C99.2406 7.25704 99.3406 7.16539 99.4406 7.16539C99.3406 6.89042 98.7406 7.16539 98.6406 6.79876C98.9406 6.15717 98.9406 6.79876 99.2406 6.24883C98.8406 6.15717 98.0406 6.5238 97.8406 6.24883V6.34048C97.2406 7.16539 97.8406 5.79055 97.4406 6.06552C97.5406 6.06552 97.8406 5.60723 97.7406 5.69889C97.6406 5.42392 97.1406 5.60723 96.6406 5.69889L96.8406 5.51558C96.8406 5.24061 96.5406 5.24061 96.4406 5.0573C96.2406 5.24061 96.2406 5.14896 96.0406 5.51558C96.4406 4.04908 94.7406 5.69889 95.0406 4.4157C95.0406 4.4157 95.2406 4.32405 95.2406 4.23239H94.7406C94.5406 4.59902 94.6406 4.50736 94.5406 4.78233C94.3406 4.96564 94.1406 5.0573 94.0406 5.0573C94.3406 4.87399 94.4406 4.50736 94.5406 4.23239C94.4406 4.32405 94.3406 4.41571 94.3406 4.59902C94.5406 3.86577 93.8406 5.33227 93.8406 4.78233L93.9406 4.59902C93.7406 4.69068 93.5406 4.87398 93.4406 4.78233C93.6406 4.32405 93.6406 4.59902 93.9406 4.32405C93.7406 4.23239 93.1406 4.96564 93.3406 4.50736C93.4406 4.4157 93.5406 4.50736 93.7406 4.4157C93.9406 3.86576 93.8406 3.95742 93.7406 3.86577L93.6406 3.49914V3.68246C92.7406 4.69068 93.1406 3.68246 92.4406 4.23239C93.1406 3.68246 92.7406 3.86577 93.0406 3.40749C93.0406 3.22417 93.0406 3.04086 93.1406 2.9492C92.7406 3.31583 93.1406 2.58258 92.6406 3.04086C92.7406 2.85755 92.5406 2.9492 92.8406 2.58258C92.6406 2.58258 92.7406 2.85755 92.5406 3.04086C91.9406 3.40748 92.4406 2.1243 91.6406 2.67423C91.1406 2.85755 90.8406 3.31583 90.3406 3.40749C90.4406 3.13252 90.7406 2.85755 90.7406 2.85755C90.7406 2.58258 90.6406 2.58258 90.3406 2.67423C90.4406 2.58258 90.5406 2.39926 90.5406 2.21595C90.4406 2.21595 90.1406 2.76589 90.1406 2.39927C90.2406 2.21596 90.4406 1.94099 90.6406 1.84933C90.4406 1.94099 90.1406 2.1243 89.9406 2.21595C90.0406 1.94098 90.2406 1.84933 90.4406 1.66602C90.2406 1.66602 89.9406 1.66602 89.6406 2.1243V2.30761C89.5406 2.30761 89.8406 1.94099 89.9406 1.84933C90.2406 1.57436 90.0406 2.1243 89.9406 2.21595L89.7406 2.30761C89.2406 3.22418 90.2406 2.39927 90.3406 2.49092L89.8406 3.13251L90.3406 2.67423C90.2406 2.85755 90.0406 3.22417 89.9406 3.31583C89.8406 3.68246 90.2406 3.13251 90.0406 3.59079C90.0406 3.68245 90.0406 3.68246 89.9406 3.68246L90.2406 3.59079C90.1406 3.68245 89.9406 4.04908 89.9406 3.95742C89.9406 4.50736 90.6406 3.68246 90.3406 4.23239C90.8406 4.23239 90.6406 3.77411 91.2406 3.31583L90.6406 4.59902L90.9406 4.14074C90.9406 4.14074 91.0406 4.23239 90.8406 4.4157C91.1406 4.14073 90.9406 4.23239 91.2406 3.95742C91.1406 4.50736 91.8406 3.95742 91.3406 4.78233C91.6406 4.4157 91.3406 4.4157 91.7406 4.23239C91.2406 5.0573 92.0406 4.23239 91.9406 4.69067C91.6406 5.0573 91.6406 4.78233 91.5406 5.24061C92.1406 4.59902 91.7406 5.51558 91.9406 5.51558C92.3406 4.96564 92.3406 5.42392 92.6406 5.33226C92.5406 5.51558 92.8406 5.8822 92.8406 6.15717L92.7406 6.24883C93.1406 5.69889 93.2406 5.8822 93.5406 5.8822C93.3406 6.24883 93.2406 6.34049 93.0406 6.43214L93.1406 6.5238C93.3406 6.34049 93.4406 6.24883 93.5406 6.24883L94.0406 6.15717C94.2406 6.24883 94.7406 5.8822 94.7406 6.24883C95.0406 5.8822 95.3406 5.0573 95.7406 4.87398C95.6406 5.0573 95.3406 5.51558 95.2406 5.51558C95.2406 5.51558 95.4406 5.33227 95.4406 5.51558L95.1406 5.79055C95.1406 5.97386 95.4406 5.51558 95.4406 5.60724C95.2406 5.8822 95.3406 5.8822 95.1406 6.06552C95.1406 6.06552 95.1406 5.88221 95.0406 5.97386C95.1406 6.06552 95.0406 6.34048 94.9406 6.61545C95.0406 6.43214 95.2406 6.15717 95.3406 6.15717C95.5406 6.24883 95.1406 6.52379 95.1406 6.79876C95.3406 6.61545 95.2406 6.89042 95.6406 6.43214C95.6406 6.43214 95.5406 6.70711 95.5406 6.79876C95.7406 6.61545 96.0406 6.98208 96.2406 6.43214C96.8406 6.15717 96.6406 7.07374 97.1406 6.98208L97.0406 7.16539C97.3406 7.07373 97.5406 7.25705 97.8406 6.98208C97.9406 6.98208 97.7406 7.3487 97.6406 7.53202C97.8406 7.53202 97.9406 7.3487 98.0406 7.71532C97.7406 7.89864 97.9406 7.9903 97.7406 7.80699C97.8406 8.08196 97.7406 8.26526 98.1406 7.9903C97.8406 8.35692 97.9406 8.54023 98.1406 8.44858L98.2406 8.08195C98.3406 8.08195 98.4406 8.17361 98.5406 8.26527L98.1406 8.72355C98.0406 9.54845 99.5406 7.9903 99.0406 9.18183C99.3406 8.90686 99.0406 8.8152 99.3406 8.44858C99.4406 8.63189 99.1406 9.45679 99.1406 9.45679C99.1406 9.91508 99.8406 8.81521 99.9406 9.18183C100.041 8.99852 100.341 8.44858 100.641 8.35692C100.741 8.54024 100.341 9.27348 100.141 9.36514C100.141 9.36514 100.141 9.27349 100.141 9.18183C100.041 9.18183 99.9406 9.27348 99.8406 9.45679L99.9406 9.27348C99.9406 9.54845 100.141 9.64011 99.8406 9.91508C100.041 9.82342 100.141 9.64011 100.041 9.45679C100.041 9.82342 100.341 9.64011 100.441 9.91508C100.441 9.82342 100.641 9.54845 100.641 9.54845C100.841 9.91507 101.041 9.27348 101.341 9.36514C101.241 9.73176 100.841 10.0067 101.241 9.91508C101.241 10.19 100.941 10.465 100.741 10.5567C101.141 10.2817 100.941 11.015 101.041 11.1066L100.841 11.1983C100.941 11.1066 101.041 11.1983 101.041 11.1983L101.241 10.8316C101.241 10.9233 101.341 10.9233 101.241 11.1066C101.441 10.9233 101.641 10.465 101.941 10.19C101.941 10.465 102.341 10.0984 102.041 10.6483C101.941 10.3734 101.741 11.1983 101.441 11.1066C101.541 11.1066 101.541 11.1066 101.541 11.1983C101.541 11.2899 101.441 11.2899 101.441 11.2899C101.341 11.8399 101.941 10.8316 102.141 10.9233C101.941 11.1983 101.841 11.4732 101.941 11.4732C101.841 11.3816 102.241 11.0149 102.441 10.8316C102.441 11.1066 102.741 10.74 102.841 10.8316V10.6483C103.041 10.3734 103.141 10.465 103.341 10.465C103.241 10.6483 103.141 10.5567 103.141 10.6483C103.641 10.2817 103.041 11.2899 103.441 11.1066C103.441 11.3816 103.141 11.6565 103.041 11.8399C103.441 11.5649 103.041 12.2981 103.441 12.2065C103.641 11.8399 103.541 11.9315 103.941 11.6565L103.441 11.7482L104.041 11.2899C103.941 11.1983 103.641 11.3816 103.641 11.2899C103.941 11.0149 103.841 11.1066 104.041 10.8316C103.841 11.4732 104.541 10.6483 104.441 11.1066L103.841 12.0232C103.841 12.5731 104.641 11.8399 104.741 12.2065V12.0232C105.041 11.6565 104.941 12.1148 105.141 12.0232C104.941 12.2981 104.941 12.4814 104.841 12.6648C105.041 12.3898 105.041 12.8481 105.541 12.2065L105.441 12.6648C105.541 12.9397 106.341 11.9315 106.541 12.2065C106.241 12.4814 106.241 12.7564 105.841 12.9397C105.941 13.0314 105.941 13.123 106.141 12.8481C106.041 13.0314 106.641 12.5731 106.541 12.8481C106.641 12.7564 106.941 12.3898 106.941 12.4815C106.941 12.5731 106.841 12.6648 106.841 12.6648C106.941 12.4814 107.141 12.5731 107.341 12.2065C107.041 12.7564 107.141 12.7564 107.341 12.7564C107.441 12.7564 107.641 12.8481 107.241 13.123C107.441 13.123 107.741 13.123 107.841 13.123C107.741 13.2147 107.641 13.2147 107.641 13.2147C107.341 13.4897 108.941 12.7564 108.741 13.0314C108.041 13.3064 108.241 13.123 108.041 13.2147C107.341 13.4897 107.341 13.4897 107.541 13.4897C107.741 13.4897 108.041 13.4897 107.541 13.5813H107.441C106.941 13.7646 108.241 13.5813 108.141 13.673C108.141 13.673 107.941 13.673 107.841 13.673C108.841 13.5813 109.241 13.8563 109.441 14.0396C108.741 13.9479 109.041 13.948 108.341 13.948C108.441 14.0396 109.541 13.9479 109.741 14.1313C109.341 14.1313 108.941 14.2229 108.141 14.2229V14.1313C107.141 14.1313 108.141 14.2229 107.941 14.3146L107.541 14.2229C107.641 14.3146 108.641 14.4979 108.441 14.6812L108.741 14.7729C109.541 15.1395 108.141 14.6812 108.741 14.9562L107.841 14.6812C108.041 14.7729 108.441 15.1395 108.441 15.3228C107.941 14.9562 107.741 14.7729 107.441 14.5895C107.441 14.5895 107.341 14.6812 107.741 14.8645C107.641 14.7729 107.541 14.6812 107.641 14.7729C108.241 15.0478 108.441 15.3228 108.241 15.4145C107.541 15.0478 107.441 15.0478 107.241 15.0478C107.141 15.0478 107.041 15.1395 106.541 14.7729C106.841 15.2311 105.941 14.8645 105.641 15.2311C106.541 16.056 105.541 15.3228 106.341 16.2394C106.341 16.331 106.241 16.331 106.141 16.331L105.441 15.9644C105.141 15.7811 105.341 15.6894 105.241 15.5061C104.941 15.5978 104.841 15.1395 104.541 15.0478C104.841 15.3228 104.841 15.5978 104.641 15.5061L105.141 15.7811C105.241 16.4227 104.241 15.2311 104.341 15.8727L104.241 15.5061C104.241 15.7811 103.641 15.8727 104.141 16.6976C104.041 16.606 103.841 16.4227 103.841 16.2394C103.441 16.331 103.641 17.5225 103.041 17.2476L102.841 16.9726C102.841 17.0643 103.041 17.4309 102.841 17.3392C102.741 17.2476 102.641 17.0643 102.641 17.0643C102.641 17.1559 102.741 17.5225 102.541 17.5225L102.441 17.2476C101.841 17.1559 102.441 18.1641 102.241 18.5308C101.741 17.8892 101.241 17.8892 101.041 17.7975L100.941 17.7059C100.441 17.8892 100.641 18.7141 100.541 19.1724C99.7406 18.6224 99.5406 19.4473 98.8406 19.264C99.0406 19.3557 99.2406 19.8139 99.2406 19.9056C99.0406 19.8139 99.3406 20.5472 98.9406 19.9056C98.4406 19.3557 98.3406 19.6306 98.2406 19.7223L98.8406 20.5472C97.5406 19.6306 98.2406 21.6471 97.2406 20.7305C97.3406 21.0055 97.2406 21.0971 97.2406 21.2804L96.9406 20.8222C96.6406 20.9138 96.4406 20.9138 96.2406 21.1888L96.0406 20.8222C95.8406 20.9138 96.7406 22.197 96.6406 22.2887L96.1406 21.7387C95.8406 21.922 95.1406 21.6471 95.2406 22.3803C95.1406 22.2887 95.0406 22.1054 95.0406 22.0137C94.8406 22.1054 94.1406 21.922 94.9406 22.747C94.5406 22.197 94.5406 22.9303 94.6406 23.2969L94.3406 22.8386C94.6406 23.4802 94.7406 23.5719 94.6406 23.8468C94.5406 23.8468 94.3406 23.5719 94.4406 23.5719C94.1406 23.4802 94.6406 24.0301 94.2406 23.9385L94.1406 23.6635C93.9406 23.7552 94.0406 23.8468 94.2406 24.2134C94.2406 24.4884 93.8406 24.3051 93.5406 23.9385C93.7406 24.2134 93.8406 24.5801 93.6406 24.4884C93.5406 24.3968 93.4406 24.2134 93.4406 24.2134C92.9406 24.1218 93.4406 24.9467 92.9406 24.6717C92.8406 24.5801 92.7406 24.4884 92.7406 24.4884C92.9406 24.3968 93.1406 24.3051 93.1406 24.3051C92.8406 23.9385 92.6406 23.9385 92.3406 23.3885C92.4406 23.7552 92.7406 24.5801 92.4406 24.4884L92.3406 24.3968V24.3051C92.2406 24.3051 92.2406 24.3051 92.2406 24.3968C92.1406 24.3968 92.0406 24.3051 92.0406 24.3968C91.7406 24.1218 91.7406 24.3968 91.6406 24.3968C91.9406 24.7634 91.8406 24.855 92.2406 25.13V25.0384C92.2406 25.0384 92.2406 25.0384 92.2406 24.9467C92.2406 24.855 92.3406 24.855 92.4406 24.7634C92.5406 25.0384 92.6406 25.2217 92.3406 25.0384C92.5406 25.3133 92.6406 25.6799 92.7406 25.7716C92.1406 25.2217 91.7406 25.13 91.3406 24.7634C91.2406 25.13 90.8406 25.3133 91.3406 26.2299C91.3406 26.4132 91.0406 26.0466 90.9406 25.9549C90.9406 25.8633 90.9406 25.8633 90.9406 25.6799C90.9406 25.9549 90.5406 26.0466 90.9406 26.5965C90.5406 26.5049 90.6406 26.0466 90.4406 26.3215L90.3406 26.1382C89.1406 25.5883 90.6406 28.063 89.2406 27.3298C89.3406 27.3298 89.3406 27.4214 89.4406 27.5131C88.4406 27.4214 88.5406 28.7963 87.3406 28.4296C87.0406 28.4296 87.3406 28.7046 87.4406 29.0712L87.0406 28.6129L87.2406 29.2545C87.2406 29.8045 85.9406 28.4296 86.1406 29.3462L86.4406 29.6212C86.2406 29.6212 86.2406 30.0794 85.9406 29.7128C85.9406 29.8045 86.1406 30.0794 85.9406 29.8961L85.7406 29.6212V30.1711C85.3406 30.1711 85.0406 29.2545 84.6406 29.3462C84.6406 29.5295 84.8406 30.2628 85.0406 30.3544C85.1406 30.3544 85.2406 30.4461 85.4406 30.6294V30.8127C85.9406 31.5459 86.4406 32.2792 87.0406 32.5542L86.9406 32.0042L87.2406 32.2792L87.1406 32.3709C87.4406 32.6458 87.3406 32.2792 87.2406 32.0959C87.4406 32.2792 87.5406 32.3709 87.6406 32.3709L87.3406 31.5459C87.5406 31.8209 87.6406 32.0959 87.9406 32.1875C87.7406 31.8209 87.3406 31.6376 87.3406 31.3626C87.6406 31.6376 87.8406 31.9126 87.7406 31.5459C87.9406 31.7293 87.9406 31.8209 87.9406 31.9126C87.8406 31.6376 88.1406 31.6376 87.8406 31.271C88.2406 31.6376 88.0406 30.996 88.5406 31.6376C88.4406 31.4543 88.3406 30.996 88.3406 30.9044C88.8406 31.8209 88.7406 30.721 89.3406 31.6376C88.9406 30.8127 89.5406 30.996 89.4406 30.5377C89.4406 30.6294 89.5406 30.721 89.5406 30.721C89.7406 30.721 89.9406 30.9044 90.0406 30.996C89.6406 30.4461 89.6406 30.1711 89.4406 29.7128C90.0406 30.1711 89.9406 30.4461 90.3406 30.996C89.9406 30.5377 90.2406 30.3544 89.8406 29.9878C90.2406 30.2628 90.0406 30.0795 90.5406 30.5377C89.9406 29.8045 90.5406 30.3544 90.2406 29.8045C90.6406 30.0794 90.8406 30.4461 90.8406 30.0795C90.7406 31.271 90.7406 31.6376 90.7406 31.6376ZM93.9406 27.5131C93.9406 27.6047 93.9406 27.6047 93.9406 27.5131C93.8406 27.6047 93.9406 27.6047 93.9406 27.5131C93.8406 27.6047 93.8406 27.6047 93.9406 27.5131ZM94.2406 27.3298C94.1406 27.3298 94.1406 27.3298 94.0406 27.4214C93.9406 27.3298 93.8406 27.1464 93.8406 27.1464C93.9406 27.2381 94.1406 27.2381 94.2406 27.3298ZM91.2406 24.9467C91.2406 24.855 91.3406 24.9467 91.4406 25.0384C91.4406 25.0384 91.4406 25.13 91.3406 25.13C91.3406 25.13 91.3406 25.13 91.3406 25.2217C91.3406 25.0384 91.2406 24.9467 91.2406 24.9467Z" fill="#48BCB9"/>
<path d="M91.5391 25.5098C91.5391 25.606 91.5391 25.606 91.5391 25.5098C91.5391 25.606 91.6391 25.606 91.6391 25.606L91.5391 25.5098Z" fill="#48BCB9"/>
<path d="M99.7406 24.8716L99.6406 24.7754V24.8716H99.7406Z" fill="#48BCB9"/>
<path d="M94.3413 3.31969V3.13379C94.2413 3.22674 94.3413 3.31969 94.3413 3.31969Z" fill="#48BCB9"/>
<path d="M93.7406 2.67578C93.6406 2.76873 93.6406 2.76873 93.6406 2.86168L93.7406 2.67578Z" fill="#48BCB9"/>
<path d="M104.844 8.27155C104.944 8.17771 104.944 8.17771 104.844 8.27155V8.27155Z" fill="#48BCB9"/>
<path d="M100.938 7.44664C101.038 7.35369 101.137 7.35369 101.137 7.26074C101.137 7.26074 101.138 7.26075 100.938 7.44664Z" fill="#48BCB9"/>
<path d="M108.742 9.73633L108.842 9.83254L108.742 9.73633Z" fill="#48BCB9"/>
<path d="M101.342 7.44875C101.342 7.35254 101.242 7.35254 101.242 7.35254C101.242 7.35254 101.242 7.44875 101.342 7.44875Z" fill="#48BCB9"/>
<path d="M90.7422 1.02839L90.8422 0.934585C90.8422 0.934585 90.8422 0.840777 90.7422 1.02839Z" fill="#48BCB9"/>
<path d="M91.7422 1.57749L91.8422 1.3916C91.8422 1.48455 91.8422 1.48455 91.7422 1.57749Z" fill="#48BCB9"/>
<path d="M92.0437 1.66746C92.0437 1.57554 92.1437 1.20787 91.9437 1.29979L91.8438 1.39171C92.0438 1.20787 91.8437 1.94322 92.0437 1.66746Z" fill="#48BCB9"/>
<path d="M91.9416 4.32622L91.8416 4.0498C91.7416 4.23408 91.6416 4.51049 91.5416 4.51049C91.4416 5.15545 91.6416 4.04981 91.9416 4.32622Z" fill="#48BCB9"/>
<path d="M92.4422 4.96875C92.2422 4.96875 92.2422 5.24517 92.2422 5.33731C92.3422 5.15303 92.4422 5.15303 92.4422 4.96875Z" fill="#48BCB9"/>
<path d="M97.4406 7.81055L97.1406 8.1791C97.3406 8.1791 97.3406 8.08697 97.4406 7.81055Z" fill="#48BCB9"/>
<path d="M99.8406 6.25298L99.9406 5.97656L99.6406 6.34512L99.8406 6.25298Z" fill="#48BCB9"/>
<path d="M106.439 13.7739L106.939 13.4053C106.839 13.4053 106.239 13.8661 106.439 13.7739Z" fill="#48BCB9"/>
<path d="M107.639 14.9649C107.239 14.8711 106.939 14.8711 107.239 14.9649C107.439 14.9649 107.739 14.9649 107.639 14.9649Z" fill="#48BCB9"/>
<path d="M97.6391 20.5599L97.5391 20.374V20.5599H97.6391Z" fill="#48BCB9"/>
</svg>
