<svg width="40" height="40" viewBox="0 0 40 40" fill="none" xmlns="http://www.w3.org/2000/svg">
<g id="Group">
<path id="Vector" d="M17.5013 9.9987C18.5591 9.99853 19.5775 10.4008 20.3497 11.1238C21.1219 11.8468 21.5902 12.8364 21.6596 13.892L21.6679 14.1654V21.8404L29.0929 22.8504C30.6615 23.0299 32.1155 23.7603 33.196 24.9116C34.2764 26.0629 34.9132 27.5602 34.9929 29.137L35.0013 29.4737V29.9987C35.0041 31.976 34.5657 33.929 33.7179 35.7154C33.5279 36.1147 33.1869 36.4222 32.7701 36.5702C32.3533 36.7182 31.8948 36.6946 31.4954 36.5045C31.0961 36.3145 30.7886 35.9735 30.6406 35.5567C30.4926 35.1399 30.5162 34.6814 30.7063 34.282C31.2688 33.0987 31.5916 31.8157 31.6563 30.507L31.6679 29.9987V29.4737C31.668 28.6992 31.3984 27.9488 30.9054 27.3515C30.4124 26.7541 29.7268 26.3471 28.9663 26.2004L28.6613 26.1554L21.2763 25.1504C20.5109 25.0599 19.8006 24.7071 19.2661 24.152C18.7316 23.5968 18.4059 22.8736 18.3446 22.1054L18.3346 21.8404V14.1654C18.335 13.9571 18.2574 13.7563 18.1171 13.6024C17.9768 13.4485 17.784 13.3527 17.5766 13.3339C17.3692 13.3151 17.1623 13.3746 16.9966 13.5007C16.8308 13.6269 16.7184 13.8105 16.6813 14.0154L16.6679 14.1654V28.332C16.6677 28.6771 16.5603 29.0135 16.3607 29.295C16.1611 29.5764 15.879 29.789 15.5534 29.9033C15.2279 30.0176 14.8748 30.028 14.5431 29.9332C14.2113 29.8383 13.9172 29.6428 13.7013 29.3737L13.1479 28.6954L12.6429 28.1054C11.6779 27.0104 10.9746 26.4054 10.3763 26.1004C10.0227 25.909 9.61938 25.8293 9.21961 25.872L8.98461 25.9054L13.1579 34.2537C13.3467 34.6337 13.3833 35.0714 13.2605 35.4776C13.1376 35.8837 12.8645 36.2277 12.4968 36.4394C12.1291 36.6511 11.6944 36.7146 11.2815 36.6169C10.8686 36.5192 10.5085 36.2677 10.2746 35.9137L10.1779 35.7437L5.54961 26.4887C4.94961 25.2887 5.39461 23.6837 6.79461 23.1087C8.53294 22.397 10.1846 22.2654 11.8863 23.1287C12.2563 23.317 12.6196 23.5487 12.9763 23.8187L13.3346 24.102V14.1654C13.3346 13.0603 13.7736 12.0005 14.555 11.2191C15.3364 10.4377 16.3962 9.9987 17.5013 9.9987ZM17.5013 3.33203C19.1762 3.33172 20.8285 3.7198 22.3281 4.46578C23.8278 5.21176 25.1341 6.29531 26.1443 7.63132C27.1545 8.96732 27.8412 10.5194 28.1504 12.1656C28.4596 13.8117 28.3829 15.5072 27.9263 17.1187C27.8709 17.3339 27.7731 17.5359 27.6386 17.7128C27.504 17.8896 27.3355 18.0378 27.1428 18.1486C26.9502 18.2594 26.7373 18.3305 26.5168 18.3578C26.2962 18.3851 26.0725 18.368 25.8586 18.3075C25.6448 18.2471 25.4452 18.1444 25.2716 18.0057C25.098 17.867 24.9539 17.6949 24.8478 17.4997C24.7416 17.3044 24.6756 17.0899 24.6536 16.8688C24.6316 16.6477 24.654 16.4244 24.7196 16.212C25.052 15.037 25.0926 13.7986 24.8376 12.6044C24.5827 11.4102 24.04 10.2963 23.2567 9.35948C22.4735 8.42266 21.4733 7.69126 20.3431 7.22882C19.213 6.76638 17.987 6.58689 16.7717 6.70594C15.5564 6.825 14.3885 7.23899 13.3696 7.91196C12.3506 8.58493 11.5114 9.49652 10.9248 10.5675C10.3383 11.6385 10.0221 12.8366 10.0037 14.0576C9.9854 15.2786 10.2655 16.4856 10.8196 17.5737C11.0207 17.9675 11.0572 18.4252 10.9209 18.8459C10.7846 19.2666 10.4868 19.6159 10.0929 19.817C9.69909 20.0182 9.24148 20.0546 8.82077 19.9183C8.40007 19.782 8.05073 19.4842 7.84961 19.0904C7.00655 17.4386 6.60161 15.5982 6.67355 13.7451C6.74548 11.8921 7.2919 10.0885 8.26047 8.50712C9.22904 6.92572 10.5873 5.61944 12.2053 4.71332C13.8233 3.8072 15.6468 3.3316 17.5013 3.33203Z" fill="#60B6BA"/>
</g>
</svg>
