<svg xmlns="http://www.w3.org/2000/svg" viewBox="0 0 1920 803"><defs><style>.a{fill:#fecc4b;}.b{fill:#5fc4c2;}</style></defs><path class="a" d="M1031.45,515.26c-.15-.09-.52-.21-.48-.1l.6.29Z"/><path class="a" d="M1030.09,515.4a3.38,3.38,0,0,0,1.35.67c-.56-.32-.31-.25-1-.62,0-.11.26-.07.48,0-.15-.08.18-.08-.19-.27-.52-.07-.59.07-.25.36A1.52,1.52,0,0,1,1030.09,515.4Z"/><path class="a" d="M1026.14,523.45l.1,0A.22.22,0,0,0,1026.14,523.45Z"/><path class="a" d="M1023.49,528.11c0-.05,0-.09-.09-.13A.21.21,0,0,0,1023.49,528.11Z"/><path class="a" d="M1022.39,528.49l.07,0C1022.4,528.45,1022.36,528.45,1022.39,528.49Z"/><path class="a" d="M1026.14,523.45l-.24.06C1026.1,523.6,1026.07,523.5,1026.14,523.45Z"/><path class="a" d="M1031.17,517.1a.4.4,0,0,0-.13-.13.36.36,0,0,1,0,.09Z"/><path class="a" d="M1026.47,521v0l-.24-.12Z"/><path class="a" d="M1027,519.22s.49.23.72.33a.89.89,0,0,1-.34-.22Z"/><path class="a" d="M1028.89,516.73l-.06-.08S1028.86,516.7,1028.89,516.73Z"/><path class="a" d="M1025.91,522.22l-.19-.06A1.39,1.39,0,0,0,1025.91,522.22Z"/><path class="a" d="M994.85,563.52l-.07-.07S994.84,563.53,994.85,563.52Z"/><polygon class="a" points="991.37 563 991.37 562.96 991.15 562.73 991.37 563"/><path class="a" d="M1020.86,529.51h0C1020.84,529.44,1020.84,529.46,1020.86,529.51Z"/><path class="a" d="M1011.59,541.83c.49.22.27.65.86.84C1012.27,542.54,1012,541.9,1011.59,541.83Z"/><path class="a" d="M1031.09,517.12a.19.19,0,0,1,0,.07A.05.05,0,0,0,1031.09,517.12Z"/><path class="a" d="M1012.45,542.67h.06Z"/><path class="a" d="M1018.94,532.89a1.5,1.5,0,0,0,.22.11Z"/><path class="a" d="M1021.26,531l-.1,0A.19.19,0,0,0,1021.26,531Z"/><path class="a" d="M1018.69,534.58c-.06,0-.13,0-.1.06l.06,0C1018.6,534.6,1018.59,534.56,1018.69,534.58Z"/><path class="a" d="M1017.73,535.83l.1,0v0Z"/><path class="a" d="M998.22,560.12l-.39-.33C998.11,560.07,998,560.33,998.22,560.12Z"/><path class="a" d="M1030.88,517a.57.57,0,0,1,.21.13s0,0,0-.06Z"/><path class="a" d="M1022.2,537.3l-.23.16A.53.53,0,0,0,1022.2,537.3Z"/><path class="a" d="M1006.93,552.59v.09S1007,552.65,1006.93,552.59Z"/><path class="a" d="M1021.55,538.12a1.33,1.33,0,0,0-.39-.12.41.41,0,0,0,.09.12Z"/><path class="a" d="M997.83,559.78h0Z"/><path class="a" d="M997.47,561.88c.19-.15-.4-.62-.64-1,.07-.35.46.32.78.54,0-.26-.34-.86-.22-.93.09.09.14.1.21.24-.24-.57.41-.39.09-1.1l.14.12a7.41,7.41,0,0,1-.69-.74c.07-.08-.16-.48.19-.14-.06,0,.06.18.14.31l-.05-.23c.53.46,0,.28.38.67,0-.31-.17-.92.09-.88.47.49-.15.43.41.74l-.36,0c.85.67-.17,0,.72.79.38-.08.06-.52.45-.59-.19-.34-.39-.41-.57-.74-.07-.83,1.4,1,1.09.12-.23-.4-.76-1.08-.27-.9l.43.64c.31-.16-.57-1,0-.79.15.27,0,.36.07.4.56.31-.16-.44,0-.55l.47.49c.2-.31.18-.94.4-1.29a1.12,1.12,0,0,0,.41.48c.16-.59.86-.63,1.49-.63l-.24-.57s.24.15.27.27c.29,0-.23-.29-.31-.52s.33.16.39.34c-.07-.59,0-1.43.7-1.18l.06.18c.37,0-.54-1.12,0-.86l0,.11c.62-.19.77-1,1.69-.64-.49-.7.69-.1-.05-1,.64.22.7.44,1.32.43.14-.05-.33-.69-.29-.88l.4.46-.26-.63.57.48v-.21a.74.74,0,0,1-.39-.27c0-.36.71,0,.93.19l.06-.76a1,1,0,0,1,.2.49c-.2-.67.47.45.29-.16a2.21,2.21,0,0,1-.31-.39.4.4,0,0,0,.64-.28l.25.35c.38-.2.52-.73.86-1-.25,0-.72-.61-.66-.75l.47.44c-.2-.35-.27-.08-.47-.57.18-.06.59.47.66.7v-.31a4.71,4.71,0,0,1,.33.43c-.21-.35.71.24.32-.36l.14.13c.35-.31.35-.62.6-.89-.37-.42-.18-.43-.41-.84.32,0,.86.07,1.06-.2,0-.37-.28-.4-.43-.71.36.36.57.09.7.48a1.73,1.73,0,0,0,.37-1.08c-.19-.12-.3-.14-.4-.29s.3,0,.47.2l0,0c-.14-.94,2,.15,1.55-.93l0,0-.07-.73c.21-.09.18.37.52.47-.26-1,.65-.49.53-1.18,1.32.81.72-.9,1.72-.57l-.28-.23c-.18-.32.24,0,.36,0-.22-.17-.32-.12-.42-.3.32-1,1.73-1.11,2.61-1.66.31-.22-1.27-1.36-.33-1.15l.42.52c-.14-1.07,1-1.12.92-2.09.09.13.24.25.2.3.47.19.36-.42.06-.66.1-.06.29.2.49.27s-.25-.68.17-.45a.27.27,0,0,1,.11.18c-.12-.23.33-.33-.16-.6.37,0,.12-.55.51-.52-.41-.48.51-.18-.16-.74.71.56.87.07.63-.32.19.21.32.06.58.34.11-.16.08-.41-.31-.66,1.08.36-.29-1.09,1-.43a6.39,6.39,0,0,1,.1-1.91c.73.54-.26.51.53,1,0-.61-.49-1.28,0-1.55.17,0,.28.28.38.41,0-.61.6-.73.43-1.37a.48.48,0,0,1,.15.22c0-.09.22-.1-.13-.32l0,.13c-.57-.22-.85-1-1.1-1.15.9.77.48-.19,1.59.82a.93.93,0,0,0-.39-.4c.11,0,.26,0,.47.29,0-.38-.44-.53-.28-.75a3.82,3.82,0,0,1,.38.35c-.25-.33-.5-.66-.23-.76.09.07.24.14.2.19.17-.36-.5-1.12,0-1.28.66.57.33,0,1,.4l-.06-.32-.36-.11c.12-.17-.24-.62.06-.64l.18.29.08-.41-.35,0c-.22-.37-.83-.46-.51-.59,0,.09.12-.17.55,0h0c-.15-.21-.32-.43-.08-.47s.7.43.85.49c-.49-.4.1-.52-.43-.95a2.8,2.8,0,0,0,.54.33l-.41-.32c.19,0,.26,0,.53.18.22-.22-.88-.36-.36-.48,0,0,.1.07.14.15.36-.21,0-.74.38-.91.72.24,0,.33.66.51.09-.49-.4-1.25-.06-1.58l-.11,0c-1-.48.61-.09.24-.5a1.51,1.51,0,0,0,.41.24c.28-.22,0-.68-.14-1.23l.23.16c.29-.08.31-.39.49-.53-.23-.15-.15-.23-.55-.31,1.67,0-.39-1.34,1-1.38,0,0,.17.21.19.17l-.09-.5a1.76,1.76,0,0,0-.65-.07c-.24-.15-.4-.33-.37-.44.23.29.71.25,1,.25-.14,0-.28-.11-.42-.15.86,0-.86-.34-.24-.46l.23.1c-.08-.15-.35-.36-.24-.46.52.13.19.2.61.35,0-.17-.85-.66-.29-.63.11.11.08.22.2.34.65,0,.5,0,.64-.13h0l.37-.19-.19,0c-1.25-.66-.09-.51-.86-1.09.72.55.46.21,1,.42a1.12,1.12,0,0,1,.55,0c-.42-.29.44-.09-.17-.51.19,0,.07-.14.52,0-.09-.22-.33-.07-.56-.16-.54-.49,1-.37.25-1-.25-.46-.85-.73-1-1.15a1.08,1.08,0,0,1,.64.32c.33-.07.33-.21.17-.44a1.28,1.28,0,0,0,.52.13c0-.14-.64-.33-.31-.39a5.38,5.38,0,0,1,.7.39c-.12-.21-.41-.48-.52-.69a1.52,1.52,0,0,1,.64.39,1.1,1.1,0,0,0-.61-.78l-.22,0c0-.07.44.13.52.21.34.29-.26.15-.44.09l-.08-.15c-1.12-.28,0,.5-.13.69l-.75-.37.57.46c-.22,0-.67-.15-.75-.3-.44,0,.23.24-.25.22a.23.23,0,0,1-.13,0l.18.24c-.16-.09-.57-.17-.42-.23-.55.12.43.66-.2.56l0,0c.13.47.56.23,1.14.76l-1.49-.3.56.24s-.1.09-.33,0c.35.29.26.06.6.28-.59,0,.07.61-.87.34.42.22.41-.07.64.24-1-.28.09.3-.43.32-.49-.23-.16-.31-.68-.29.83.4-.3.28-.19.48.69.25.18.42.32.75-.22-.1-.53.34-.86.48l-.11,0c.68.29.46.48.54.7a1.58,1.58,0,0,1-.71-.4l-.06.16c.21.12.31.21.35.34l-.5-.22c0,.23.46.65,0,.8.48.19,1.43.26,1.64.67a2.26,2.26,0,0,1-.79-.35s.18.17,0,.18l-.39-.28c-.24.06.34.2.26.29-.37-.14-.29,0-.58-.15,0,0,.19,0,0-.12a.87.87,0,0,1-.67.09c.22.06.5.18.52.28s-.47-.09-.71,0c.24.14-.08.18.47.39,0,.06-.29,0-.44-.06.2.2-.13.53.5.64l0,0,0,0h0c.41.57-.6.62-.52,1l-.18-.07c.13.29-.07.51.25.83,0,.06-.39,0-.59-.13.06.22.25.33-.14.42-.25-.3-.3-.08-.16-.27-.25.13-.55,0-.17.48-.42-.29-.64-.13-.55,0l.39,0c0,.14-.07.21-.15.29l-.58-.35c-.9,0,.86,1.34-.49,1,.35.32.4-.06.83.29-.18.15-1.12-.14-1.15-.08-.45,0,.72.7.35.83.23.09.8.38.87.69-.19.13-1-.3-1.08-.51,0-.05.08,0,.15,0s-.08-.22-.35-.29l.19.15c-.26,0-.38.21-.68-.05a.38.38,0,0,0,.47.23c-.44,0-.22.34-.57.45.13,0,.39.15.37.18-.48.19.28.4.21.69-.39-.07-.7-.52-.59-.12-.3,0-.55-.31-.68-.47.25.46-.51.23-.66.3l-.09-.21c.05.13,0,.18,0,.23l.44.2c-.11,0-.15.07-.32,0,.22.24.7.39,1,.75-.25,0,0,.41-.5.1.36-.16-.55-.32-.48-.61,0,.09,0,.14-.12.16a.28.28,0,0,1-.12-.12c-.64,0,.52.51.32.78-.27-.23-.6-.31-.56-.23.07-.1.52.28.68.53-.34,0,.05.31,0,.38l.18,0c.27.23.17.3.18.48-.23-.14-.08-.22-.21-.24.43.49-.74-.06-.51.37-.26,0-.56-.37-.75-.39.24.47-.55,0-.4.38.44.21.35.13.62.55l0-.55.41.63c.08-.11-.08-.4,0-.42.24.33.15.25.51.42-.69-.25.14.54-.38.43l-1-.68c-.61,0,.17.8-.31,1l.25,0c.35.31-.1.24,0,.46a2.36,2.36,0,0,0-.71-.36c.24.17-.19.23.42.72l-.53-.16c-.36.15.69,1,.4,1.16-.29-.33-.6-.38-.72-.74-.07.08-.18.12,0,.28-.24-.09.24.55-.12.41.12.14.44.4.34.47a.75.75,0,0,1-.16-.12c.16.12.1.31.51.49-1.18-.48-.5.79-1.51.36a2.21,2.21,0,0,1-.21.75c-.09-.08-.16-.12-.1-.13-.47,0,.78.85.25.86-.6-.27-.16-.36-.41-.42-1.05-.78-.11.43-.84.11l0-.08c-.45-.15.12.62-.13.78a.77.77,0,0,0-.15-.13,1.69,1.69,0,0,1,.29,1.31c-.34-.39-.13-.27-.56-.56,0,.14.66.51.62.78a3.22,3.22,0,0,1-1-.48l.12-.19c-.62-.37-.16.24-.34.25l-.22-.22c-.15.33.44.85.16,1.1l.21.12c.45.67-.44-.15-.14.38l-.64-.47a3.72,3.72,0,0,1,.21,1.13,4.62,4.62,0,0,1-.53-1.26.5.5,0,0,0,0,.68c0-.09-.12-.27,0-.22q.52.79.24,1.08c-1.1-1.06-.75.26-1.75-.41.1.73-.79.53-1.11,1,1,.68-.08.14.83,1,0,.14-.08.16-.15.12l-.79-.23c-.32-.18-.11-.27-.32-.46-.26.14-.45-.27-.81-.37.34.28.38.51.15.5l.56.24c.2.73-1-.48-.77.25l-.19-.36c0,.3-.51.52,0,1.35-.12-.07-.39-.28-.39-.4-.45.22,0,1.48-.72,1.31l-.18-.24c0,.12.28.51,0,.37-.09-.09-.19-.24-.23-.22s.2.54,0,.5l-.16-.31c-.6,0,.06,1.09-.09,1.51a1.45,1.45,0,0,0-1.3-.58l-.08-.1c-.47.29-.18,1.16-.32,1.76-.87-.49-1.06.42-1.79.35a1.27,1.27,0,0,1,.44.65c-.21-.06.16.67-.37.06l0,0c-.6-.53-.64-.21-.79-.11l.67.82c-1.38-.82-.61,1.29-1.72.43.08.27,0,.37,0,.65l-.37-.44a1,1,0,0,0-.74.54l-.2-.36c-.2.12.84,1.43.69,1.59l-.59-.6c-.3.28-1.1,0-.91.82-.08-.09-.23-.29-.2-.36-.16.11-.94,0-.13.89-.49-.58-.37.21-.33.61l-.33-.45c.32.67.44.82.37,1.14-.1,0-.33-.31-.18-.25-.34-.09.22.51-.16.44l-.16-.33c-.19.1,0,.24.12.63s-.4.15-.74-.21c.17.25.35.64.16.61a.81.81,0,0,1-.2-.31c-.51-.07,0,.83-.52.57a1.32,1.32,0,0,0-.25-.23c.22-.17.42-.29.43-.25-.33-.39-.57-.31-.89-1,.11.41.42,1.26.09,1.22a.68.68,0,0,1-.13-.12l0-.06c-.08,0-.08.06-.06.16s-.18,0-.24,0c-.29-.31-.35,0-.45.05.37.42.2.45.61.71,0,0,0-.06,0-.13a.06.06,0,0,0,0-.07l0,0a1.71,1.71,0,0,1,.19-.21c.12.27.2.52-.1.36.19.31.38.64.47.8-.63-.5-1.13-.63-1.48-1-.06.47-.49.69,0,1.64,0,.16-.28-.16-.42-.26s0-.15,0-.29c0,.34-.37.46.07,1-.4-.08-.34-.6-.52-.29l-.11-.2c-1.28-.44.41,2.15-1.15,1.5a.54.54,0,0,1,.24.14c-1.09.06-.89,1.64-2.23,1.42-.33,0,0,.37.11.73l-.45-.41.29.68c.09.61-1.46-.65-1.13.36l.32.26c-.17,0-.2.52-.51.17,0,.06.26.34.07.23l-.23-.23.09.67c-.38.05-.84-.94-1.21-.67a2,2,0,0,0,.5,1.1c.06,0,.26,0,.48.24V563a5.34,5.34,0,0,0,1.94,1.65l-.22-.58.38.26-.14.17c.39.22.18-.1.06-.34a1.64,1.64,0,0,0,.43.28l-.44-.81c.27.24.42.6.68.63-.2-.38-.65-.52-.7-.84.38.22.6.49.45.13a1,1,0,0,1,.3.41c-.11-.3.15-.32-.14-.73.45.3.21-.39.81.26-.12-.18-.31-.66-.25-.77.56.92.36-.25,1.09.62-.53-.8.13-.69,0-1.27,0,.07.12.2.07.18.17,0,.4.14.59.2a4,4,0,0,1-.68-1.34c.65.43.53.76,1.07,1.26-.44-.46-.18-.69-.58-1a2.44,2.44,0,0,1,.73.51c-.63-.74,0-.21-.32-.74.48.22.65.65.63.27A.89.89,0,0,1,997.47,561.88Zm3.14-5h0a.46.46,0,0,0-.07.1Zm.36-.32a.48.48,0,0,0-.17.12c-.14-.14-.26-.3-.21-.32S1000.81,556.53,1001,556.61Zm-3.29-2.32c0-.11.1,0,.18,0a.48.48,0,0,0-.06.14l0,.06Z"/><path class="a" d="M998.05,554.94a.43.43,0,0,0,0,0l.11.07-.09-.15Z"/><path class="a" d="M1026.25,523.43h0Z"/><polygon class="a" points="1006.71 553.15 1006.61 553.04 1006.66 553.16 1006.71 553.15"/><path class="a" d="M1029,521.62l.14,0Z"/><path class="a" d="M1029.46,520.58l.24-.08A.71.71,0,0,0,1029.46,520.58Z"/><path class="a" d="M1030,519.85l-.22-.1h0Z"/><path class="a" d="M1024.41,533v0C1024.46,533.2,1024.45,533.13,1024.41,533Z"/><path class="a" d="M1025.58,528.77a1.27,1.27,0,0,1,.16.25C1025.82,529,1025.86,528.93,1025.58,528.77Z"/><polygon class="a" points="1022.22 537.28 1022.21 537.27 1022.2 537.3 1022.22 537.28"/><path class="a" d="M1025.63,529.18c.14,0,.15-.07.11-.16S1025.59,529.09,1025.63,529.18Z"/><path class="a" d="M1031.48,516.39l0,0-.08,0Z"/><path class="a" d="M1031.44,516.33l0-.07S1031.38,516.3,1031.44,516.33Z"/><path class="a" d="M1031.29,516.12l.1.14S1031.43,516.2,1031.29,516.12Z"/><path class="a" d="M1030.85,517.38l.19.08Z"/><path class="a" d="M1030.79,517.73c.07-.07.48-.06.4-.21l-.15-.06C1031.31,517.61,1030.5,517.54,1030.79,517.73Z"/><path class="a" d="M1027.93,518.28l.25-.22c-.22,0-.52-.06-.52-.2C1026.92,518,1028.14,517.94,1027.93,518.28Z"/><path class="a" d="M1027.34,519.05c0-.19-.3-.11-.41-.15C1027.08,519.06,1027.12,519.1,1027.34,519.05Z"/><path class="a" d="M1025.07,525.1l-.46-.23C1024.63,525,1024.79,525,1025.07,525.1Z"/><polygon class="a" points="1026.92 527.37 1027.26 527.4 1026.86 527.14 1026.92 527.37"/><polygon class="a" points="1023.34 526.36 1023.3 526.28 1023.37 526.53 1023.34 526.36"/><path class="a" d="M1017.51,535.3l.52.36C1018,535.53,1017.44,535.08,1017.51,535.3Z"/><path class="a" d="M1015,539.33c-.27-.16-.51-.2-.33.07C1014.82,539.35,1015.07,539.43,1015,539.33Z"/><polygon class="a" points="1004.34 548.51 1004.27 548.29 1004.25 548.54 1004.34 548.51"/><path class="a" d="M1024.86,545.52c-.09-.16-.37-.43-.4-.3l.4.53Z"/><path class="a" d="M1023.52,545.08a3.13,3.13,0,0,0,.87,1.22c-.34-.55-.14-.37-.56-1,0-.12.28,0,.43.23-.09-.15.22,0,0-.34-.45-.29-.59-.19-.43.24A1.25,1.25,0,0,1,1023.52,545.08Z"/><path class="a" d="M1015.23,550.75l.1,0A.14.14,0,0,0,1015.23,550.75Z"/><path class="a" d="M1010.05,554s0-.1,0-.15S1010,554,1010.05,554Z"/><path class="a" d="M1008.78,554h.08C1008.81,554,1008.77,554,1008.78,554Z"/><path class="a" d="M1015.23,550.75l-.25-.06C1015.1,550.87,1015.14,550.76,1015.23,550.75Z"/><path class="a" d="M1023.56,547.19a.67.67,0,0,0,0-.19s0,.08,0,.11Z"/><path class="a" d="M1017,548.65l0,0c0-.07-.08-.15-.13-.24Z"/><path class="a" d="M1018.54,547.24s.3.45.45.65c-.13-.2-.18-.3-.17-.36A2.44,2.44,0,0,0,1018.54,547.24Z"/><path class="a" d="M1021.69,545.81v-.09A.31.31,0,0,0,1021.69,545.81Z"/><path class="a" d="M1015.78,549.48a.61.61,0,0,0-.14-.14Z"/><path class="a" d="M996.85,534.79h.1C996.89,534.77,996.85,534.77,996.85,534.79Z"/><polygon class="a" points="999.66 532.41 999.69 532.44 1000 532.45 999.66 532.41"/><path class="a" d="M1006.81,554.39h0C1006.84,554.31,1006.82,554.33,1006.81,554.39Z"/><path class="a" d="M996.19,559.8c-.83.81-1.35,1.12-2.24,2C994.37,561.44,995.68,560.32,996.19,559.8Z"/><path class="a" d="M1023.47,547.18l-.06.06A.07.07,0,0,0,1023.47,547.18Z"/><path class="a" d="M994,561.81h0l-.08.08Z"/><path class="a" d="M1003.23,556.78l.16.2A1,1,0,0,0,1003.23,556.78Z"/><path class="a" d="M1006.44,555.92l-.1,0S1006.42,555.93,1006.44,555.92Z"/><path class="a" d="M1002.09,558.23c-.06,0-.11-.08-.13,0l0,0C1002,558.21,1002,558.17,1002.09,558.23Z"/><path class="a" d="M1000.49,559l.08.09,0,0Z"/><path class="a" d="M996.81,540.09a4.38,4.38,0,0,1,.51,0C996.92,540,996.81,539.77,996.81,540.09Z"/><path class="a" d="M1023.34,547c.09.11.13.17.13.22a.64.64,0,0,0,0-.07A.71.71,0,0,0,1023.34,547Z"/><path class="a" d="M1003.93,562.26l-.3.06A.54.54,0,0,0,1003.93,562.26Z"/><path class="a" d="M994.33,552.17l0-.08S994.27,552.13,994.33,552.17Z"/><path class="a" d="M1002.85,562.76a1.26,1.26,0,0,0-.31-.29.44.44,0,0,0,0,.15Z"/><path class="a" d="M996.14,538.14c0,.26.72.17,1.14.25.19.33-.55.11-.94.19.19.21.85.41.81.55a.7.7,0,0,1-.32,0c.57.25,0,.61.69.92h-.19a9.3,9.3,0,0,1,1,.06c0,.12.45.27,0,.27,0-.08-.17-.1-.32-.15l.2.15c-.7,0-.22-.2-.73-.25.2.27.75.61.53.78-.67,0-.19-.46-.81-.28l.29-.26c-1.09.12.09-.16-1.07-.08-.23.36.31.46.06.81.37.12.56,0,.92.16.61.61-1.74.21-.89.71.44.15,1.28.3.8.52l-.75-.19c-.12.35,1.07.35.5.66-.29-.11-.21-.32-.31-.28-.63.16.41.24.38.43l-.68-.06c.05.39.47.89.52,1.34a1.06,1.06,0,0,0-.61-.11c.24.59-.3,1.12-.79,1.54l.54.31s-.27,0-.38,0c-.25.15.37.09.57.23,0,.12-.36.08-.52,0,.41.45.82,1.23.12,1.45l-.15-.11c-.3.22,1.1.61.5.74l-.09-.07c-.42.55-.08,1.38-1.06,1.6.78.33-.55.49.56.88-.66.17-.83,0-1.36.37-.09.12.65.43.71.63l-.59-.19.54.42-.74-.12.1.2a.66.66,0,0,1,.47,0c.18.32-.61.43-.91.33l.3.72a.92.92,0,0,1-.4-.34c.49.51-.63-.17-.18.3a1.65,1.65,0,0,1,.45.19.45.45,0,0,0-.46.59l-.38-.2c-.26.36-.14.92-.33,1.37.26-.08.92.23.93.39l-.62-.19c.33.24.28,0,.66.32-.14.14-.73-.17-.89-.35l.13.29a4,4,0,0,1-.49-.26c.34.24-.75.1-.15.49l-.19-.06c0,.06,0,.1-.06.17l-.09.28c-.06.19-.1.35-.14.51a5.58,5.58,0,0,1-.28,1c.58.08.32.33.73.52a6.6,6.6,0,0,0-1.42,1.6c.16.33.55,0,.89,0-.66.18-.88.74-1.22.58-.22.66-.34.9-.15,1.45a2.94,2.94,0,0,1,.77-.46c.06.07-.48.46-.85.63h0c.34.17-.48.94-1.33,1.86s-1.7,1.88-.94,1.58l-.07,0a2.55,2.55,0,0,0,.62,0c-.35.48-.61.35-1.36,1.09.6-.2.35.18,0,.64.08.09.09.24,1-.3-1,1.07-.37.86.32.57s1.47-.68,1.29-.13l.39-.48c.63-.54,0,.21.07.28.3-.37.15-.38.51-.68a4.32,4.32,0,0,1,2.42-.54,9.57,9.57,0,0,0,2.4,0c.73-.14.87-2.21,1.46-1.52-.11.26-.22.53-.34.8a5,5,0,0,1,2.05-1.08,5.63,5.63,0,0,0,1-.38l.22-.12.12-.11a1.08,1.08,0,0,0,.21-.29c0,.16.09.34,0,.37.34.38.6-.21.45-.58.13,0,.16.32.31.47s.16-.72.43-.32c0,.06,0,.16,0,.21,0-.26.5-.16.18-.62.38.11.42-.47.78-.27-.11-.62.59.06.27-.75.36.83.8.45.78,0,.06.28.27.18.37.56.19-.11.3-.35.06-.75.84.79.34-1.14,1.16,0a8.64,8.64,0,0,1,1.14-1.76c.41.81-.52.39-.06,1.21.32-.59.22-1.42.81-1.49.18,0,.12.38.15.54.31-.58,1-.46,1.14-1.13a.61.61,0,0,1,0,.27c.06-.08.26,0,0-.35l0,.14c-.43-.43-.3-1.26-.45-1.54.46,1.1.56,0,1.1,1.42a.77.77,0,0,0-.17-.53c.13,0,.23.14.31.46.18-.37-.15-.68.12-.83a3.69,3.69,0,0,1,.19.48c-.07-.41-.14-.82.17-.82.05.11.16.23.09.27.35-.3.09-1.29.71-1.23.34.8.29.15.72.76l.1-.33-.28-.24c.2-.12.07-.69.37-.59l0,.35.28-.36-.36-.1c0-.45-.55-.77-.18-.77,0,.1.19-.12.54.18h0c0-.26-.08-.53.16-.48s.44.71.55.82c-.26-.58.35-.45.09-1.07a2.11,2.11,0,0,0,.33.53l-.21-.47c.18.08.24.13.4.4.32-.11-.63-.72-.08-.6,0,.05,0,.1,0,.2.43-.05.41-.69.84-.69.52.54-.15.32.32.77.34-.41.33-1.34.82-1.49h-.12c-.58-.89.6.2.5-.35a1.31,1.31,0,0,0,.23.41c.37-.07.39-.62.59-1.2l.12.26c.3.07.5-.21.74-.24-.12-.25,0-.29-.3-.56,1.48.81.46-1.43,1.72-.79-.05,0,0,.29.06.26l.23-.51c-.32-.33-.22-.17-.53-.39-.13-.25-.15-.5-.06-.58,0,.38.47.58.71.71-.1-.1-.18-.24-.27-.34.72.46-.56-.75.06-.55l.14.2c0-.18-.09-.5.06-.54.39.37,0,.28.33.62.13-.15-.35-1,.13-.73,0,.17-.06.25,0,.41.55.36.47.22.64.2h.43l-.18-.07c-.71-1.23.23-.53-.11-1.44.31.87.29.42.66.89.18.08.4.13.48.29-.2-.48.45.11.16-.58.13.14.14-.1.43.3.06-.25-.26-.23-.4-.42-.2-.71,1.09.11.84-.88,0-.54-.33-1.08-.28-1.57a1,1,0,0,1,.4.6c.34.08.42-.06.41-.35a1.1,1.1,0,0,0,.4.36c.07-.14-.4-.6-.06-.52a5.11,5.11,0,0,1,.41.68c0-.25-.1-.64-.08-.89.26.22.26.45.36.66a1.1,1.1,0,0,0-.12-1l-.23,0c0-.07.34.32.36.43.15.43-.31,0-.45-.11v-.18c-.86-.76-.26.49-.5.62l-.48-.7.26.7c-.19-.12-.52-.44-.51-.62-.41-.18.07.33-.35.1a.22.22,0,0,1-.09-.12l0,.31c-.09-.15-.42-.42-.25-.4-.57-.14,0,.81-.5.42v0c-.16.51.37.48.58,1.25l-1.16-1,.36.49s-.15,0-.29-.16c.14.43.19.18.38.55-.54-.27-.31.61-1-.1.24.41.4.13.43.54-.74-.75-.1.32-.57.09-.3-.45,0-.36-.44-.59.5.77-.44.1-.45.35.46.56-.1.47-.17.84-.14-.19-.67,0-1,0l-.07-.09c.43.59.13.67.06.92a1.58,1.58,0,0,1-.39-.73l-.15.13a.59.59,0,0,1,.11.48l-.31-.45c-.18.18,0,.82-.48.74.31.41,1.1.94,1,1.43-.18-.21-.49-.57-.49-.71,0,0,.06.24-.06.19l-.18-.45c-.25-.07.18.35.06.39-.25-.31-.25-.16-.43-.42,0-.05.19.06.12-.09a.89.89,0,0,1-.65-.25c.15.17.34.42.29.52s-.36-.32-.6-.39c.12.26-.18.14.18.6-.06,0-.24-.16-.36-.27.06.29-.44.43.06.84h0s0,0,0,0h0c0,.72-.92.28-1.1.74l-.12-.16c-.07.33-.37.45-.27.9-.06.05-.36-.18-.47-.39-.07.23,0,.42-.38.33,0-.4-.23-.21,0-.32-.31,0-.54-.22-.45.38-.22-.46-.52-.41-.53-.21l.35.19c-.06.14-.18.17-.31.2l-.33-.58c-.88-.36,0,1.68-1.06.78.15.46.42.11.63.63-.25.06-1-.59-1.06-.55-.47-.13.3,1-.12,1,.16.18.55.68.46,1-.25.06-.79-.67-.77-.91,0-.05.1,0,.14.07a.37.37,0,0,0-.18-.42l.11.22c-.23-.14-.49.06-.64-.3,0,.28.15.36.33.39-.44-.11-.4.25-.79.23.11.08.3.29.26.31-.55,0,.07.49-.14.74-.34-.21-.4-.76-.51-.34-.29-.1-.37-.51-.41-.71,0,.54-.6,0-.78,0l0-.24a.23.23,0,0,1-.14.21l.32.36c-.12,0-.18,0-.29-.15.09.31.48.63.55,1.09-.23-.14-.18.41-.54-.11.43,0-.36-.52-.15-.76,0,.09-.07.12-.19.1a.25.25,0,0,1-.06-.16c-.58-.31.24.69-.09.86-.14-.33-.41-.54-.42-.44.13-.07.36.47.38.77-.34-.12-.11.31-.24.34l.19,0c.14.33,0,.35-.07.53-.15-.23,0-.24-.08-.31.15.63-.68-.35-.69.14-.21-.15-.33-.58-.5-.67,0,.54-.5-.28-.58.19.31.38.27.27.31.78l.26-.53.06.76c.14-.07.13-.41.25-.38.06.41,0,.3.27.61-.53-.53-.16.56-.6.24l-.56-1c-.55-.29-.25.83-.79.79l.22.11c.16.44-.22.19-.26.43a2.18,2.18,0,0,0-.48-.63c.14.25-.31.12,0,.84l-.42-.37c-.42,0,.13,1.19-.26,1.23-.09-.44-.35-.62-.28-1-.1.05-.23,0-.11.28-.17-.19-.06.62-.32.33,0,.18.19.56,0,.59a1,1,0,0,1-.08-.17c.09.18-.08.32.22.67-.86-1-.91.51-1.63-.33a2.62,2.62,0,0,1-.62.59c0-.11-.08-.18,0-.16-.44-.21.26,1.12-.25.89-.42-.52.05-.4-.15-.58-.55-1.18-.34.33-.86-.27l0-.1c-.17-.17-.24,0-.29.19s0,.41-.1.4a1.06,1.06,0,0,0,0-.19,1.58,1.58,0,0,1-.44,1.31,2.37,2.37,0,0,0,.06-.87c-.09.11,0,.88-.19,1.12a2.44,2.44,0,0,1-.09-1.12l.14-.08c0-.77-.16.08-.22,0l.08-.36c-.16.16-.44,1.1-.69,1.13l-.07.29c-.55,1,.08-.5-.38.28l.41-1a7.76,7.76,0,0,1-1.16,1.37c.61-.83,1-1.29,1.3-1.76-.06,0-.25.14-.61.68.1-.11.28-.38.22-.23-.55.86-1,1.34-1.24,1.39.74-1.07.73-1.17.68-1.21s-.19,0,.52-.89c-.44.44-.49.39-.4.23s.31-.43.15-.34c-2,1.93-.12.08-2.29,2.08-.23.16-.24.14-.1,0l.57-.58.74-.69c.69-.61.49-.4,1-.86.21-.21.92-.8,1.52-1.31a.45.45,0,0,1,.1-.09c-.82.7-1.16,1-.84.68l-1.07.91c-.56.44-.07,0,.41-.38s.93-.75.38-.36l.67-.5c-.38.27,0,0-1.53,1l.9-.6c.15-.12-.24.09-.5.17s-.41.06.05-.2l.4-.18c-.11,0-.74.29-.31.08l.42-.18c-.14.06-.66.2-.41.07l.43-.12c.28-.14,0-.08-.29-.06s-.69,0-.76-.1c1-.12,1.38-.22,1.54-.23h.13c.15-.07-.75-.11-.75-1,1,0,.85-1,1.56-1.37a1,1,0,0,1-.68-.39c.22-.06-.43-.57.32-.27l0,0c.78.19.7-.16.79-.36l-1-.4c1.64,0,0-1.63,1.38-1.49-.21-.22-.15-.39-.36-.6l.53.18a1.4,1.4,0,0,0,.4-1l.36.21c.12-.26-1.46-.8-1.42-1.05l.83.16c.11-.46,1-.74.34-1.4.12,0,.35.12.36.2.09-.21.78-.71-.37-.91.74.17.19-.47-.08-.79l.53.16c-.64-.37-.83-.42-1-.75.09-.06.45,0,.29.09.34-.17-.47-.29-.12-.51l.33.18c.1-.23-.1-.25-.48-.46-.19-.2.22-.43.73-.37-.3-.09-.68-.3-.51-.41a.66.66,0,0,1,.35.13c.45-.34-.52-.72.07-.9a1.1,1.1,0,0,0,.34,0c-.08.31-.16.57-.19.53.5.1.64-.15,1.3.19-.34-.29-1.1-.79-.82-1h.18l0,0c.06-.05,0-.11-.06-.17.1-.07.17-.11.19-.19.42,0,.27-.27.31-.39-.56-.08-.44-.23-.92-.15,0,0,.06,0,.07.13a.13.13,0,0,0,0,.06h0c0,.08,0,.2,0,.32-.27-.14-.49-.29-.16-.38l-.87-.32c.81-.05,1.28-.34,1.76-.32-.24-.44-.08-1-1.1-1.35-.12-.12.32-.09.49-.11s.07.15.22.21c-.24-.26,0-.68-.75-.82.36-.24.65.23.58-.17l.22.08c1.26-.66-1.76-1.42-.17-2.13a.5.5,0,0,1-.27.08c.73-.92-.49-2,.6-2.92.22-.26-.25-.31-.6-.49l.61,0-.69-.3c-.5-.41,1.51-.66.55-1.18l-.41.05c.08-.18-.23-.57.23-.54-.07,0-.42-.06-.21-.13h.32l-.54-.45c.24-.35,1.26.06,1.32-.45a1.83,1.83,0,0,0-1.12-.46c0,.07-.2.19-.52.19l-.16-.17a4.74,4.74,0,0,0-2.54.26l.57.28-.45.09,0-.24c-.43.14,0,.22.2.32a1.11,1.11,0,0,0-.49.12l.88.28c-.36,0-.72-.13-.92.06.41.13.82-.12,1.09.1-.43.13-.77.09-.41.25a.84.84,0,0,1-.5-.08c.29.15.12.38.61.46-.52.13.13.48-.75.45.21.05.68.26.71.4-1-.27-.08.48-1.2.38.94.21.4.65.91,1-.07,0-.22-.06-.17-.09-.09.17-.37.21-.56.32a3.39,3.39,0,0,1,1.42.51c-.77.17-.91-.18-1.64-.15.63,0,.61.4,1.14.36a2.06,2.06,0,0,1-.89.17c1,.09.16.16.75.34-.5.2-.92,0-.64.28A.82.82,0,0,1,996.14,538.14Zm1,6.28h0a.82.82,0,0,1,0-.14Zm-.09.51a.48.48,0,0,0,.07-.22c.19,0,.39.07.37.12S997.22,544.88,997,544.93Zm4-.47c.07.1-.05.11-.16.1a.73.73,0,0,0,0-.16l-.07,0Z"/><path class="a" d="M1000.37,544.19s0,0,0,0l-.13,0,.17.06Z"/><path class="a" d="M1015.35,550.78h0l.07.05Z"/><polygon class="a" points="994.25 551.54 994.39 551.59 994.29 551.5 994.25 551.54"/><path class="a" d="M1018.86,550.44l.12.09A.41.41,0,0,0,1018.86,550.44Z"/><path class="a" d="M1019.92,549.71l.27,0A.82.82,0,0,0,1019.92,549.71Z"/><path class="a" d="M1020.86,549.29l-.14-.2h0Z"/><path class="a" d="M1008.4,559.14l0,0C1008.35,559.32,1008.38,559.25,1008.4,559.14Z"/><path class="a" d="M1011.7,555.51a1.08,1.08,0,0,1,0,.3C1011.82,555.8,1011.88,555.78,1011.7,555.51Z"/><path class="a" d="M1004,562.26h0Z"/><path class="a" d="M1011.54,555.93c.13,0,.17,0,.18-.12S1011.55,555.82,1011.54,555.93Z"/><path class="a" d="M1024.24,546.64h.06l-.06-.07Z"/><path class="a" d="M1024.24,546.56v-.09S1024.2,546.5,1024.24,546.56Z"/><path class="a" d="M1024.22,546.29v.18S1024.31,546.43,1024.22,546.29Z"/><path class="a" d="M1023.1,547.33l.13.16Z"/><path class="a" d="M1022.84,547.63c.11,0,.47.17.48,0l-.09-.13C1023.38,547.76,1022.68,547.32,1022.84,547.63Z"/><path class="a" d="M1019.94,546.82l.35-.09c-.18-.13-.43-.3-.35-.43C1019.2,546.08,1020.32,546.61,1019.94,546.82Z"/><path class="a" d="M1019,547.25c.07-.19-.21-.24-.28-.34C1018.73,547.13,1018.74,547.19,1019,547.25Z"/><path class="a" d="M1013.26,551.8l-.29-.42C1012.91,551.52,1013.09,551.54,1013.26,551.8Z"/><polygon class="a" points="1013.67 554.77 1013.96 554.95 1013.74 554.53 1013.67 554.77"/><polygon class="a" points="1010.89 552.27 1010.9 552.18 1010.82 552.46 1010.89 552.27"/><path class="a" d="M1000.57,558.38l.3.56C1000.9,558.8,1000.63,558.14,1000.57,558.38Z"/><path class="a" d="M997.1,560.48c.1-.38.15-.61-.05-.21C997.08,560.31,997,560.59,997.1,560.48Z"/><polygon class="a" points="998.56 554.54 998.72 554.71 998.63 554.45 998.56 554.54"/><path class="b" d="M1034.8,512.64c-.14.1-.38.41-.24.44l.5-.43Z"/><path class="b" d="M1034.59,514.15a2.68,2.68,0,0,0,1.19-.92c-.55.36-.39.14-1,.58-.15,0,0-.32.16-.48-.14.09,0-.25-.37,0-.22.5-.1.65.35.5A1.14,1.14,0,0,1,1034.59,514.15Z"/><path class="b" d="M1040.12,524.7l.05-.1A.14.14,0,0,0,1040.12,524.7Z"/><path class="b" d="M1041.65,531.85c0-.05-.09-.06-.15-.05S1041.6,531.88,1041.65,531.85Z"/><path class="b" d="M1041.13,533.2l0-.08C1041.1,533.16,1041.07,533.19,1041.13,533.2Z"/><path class="b" d="M1040.12,524.7l-.12.25C1040.2,524.89,1040.11,524.8,1040.12,524.7Z"/><path class="b" d="M1037,514.27a.41.41,0,0,0-.21,0l.13,0Z"/><path class="b" d="M1038.37,522l0-.05-.26.07Z"/><path class="b" d="M1037.11,519.92c0,.06.5-.21.72-.32a.67.67,0,0,1-.39.09Z"/><path class="b" d="M1035.66,516.21h0Z"/><path class="b" d="M1039,523.59a.72.72,0,0,0-.18.1Z"/><path class="b" d="M1038,593.71l-.09,0S1038,593.73,1038,593.71Z"/><polygon class="b" points="1034.49 595.72 1034.47 595.67 1034.17 595.57 1034.49 595.72"/><path class="b" d="M1040.69,535.52h0C1040.63,535.46,1040.65,535.49,1040.69,535.52Z"/><path class="b" d="M1040.52,556.55c.52-.19.6.45,1.19.15C1041.49,556.71,1040.87,556.28,1040.52,556.55Z"/><path class="b" d="M1037,514.37a.27.27,0,0,1,.08.07C1037,514.39,1037,514.37,1037,514.37Z"/><path class="b" d="M1041.71,556.7h0l0,0Z"/><path class="b" d="M1041.35,540.69a1.2,1.2,0,0,0,.24-.06A.75.75,0,0,0,1041.35,540.69Z"/><path class="b" d="M1042,536.74l-.07.1A.18.18,0,0,0,1042,536.74Z"/><path class="b" d="M1042.15,542.72c0,.06-.12.07,0,.15l.07,0C1042.1,542.82,1042.06,542.78,1042.15,542.72Z"/><path class="b" d="M1042.11,544.86l.11,0,0-.07Z"/><path class="b" d="M1039.64,587.21a2.32,2.32,0,0,1-.52,0C1039.52,587.25,1039.57,587.6,1039.64,587.21Z"/><path class="b" d="M1036.73,514.48c.11-.09.18-.12.23-.11l-.08,0A.52.52,0,0,0,1036.73,514.48Z"/><path class="b" d="M1046.59,542.85l-.09.36A.71.71,0,0,0,1046.59,542.85Z"/><path class="b" d="M1043.1,571.73l.05.09S1043.16,571.76,1043.1,571.73Z"/><path class="b" d="M1046.56,544.28a.88.88,0,0,0-.39.19l.14,0Z"/><path class="b" d="M1039.12,587.17Z"/><path class="b" d="M1039.77,589.76c.11-.32-.65-.35-1-.54-.1-.44.57,0,1-.05-.12-.29-.72-.66-.64-.83.12,0,.17,0,.31.08-.5-.42.18-.76-.45-1.26h.19a6.17,6.17,0,0,1-1-.22c0-.15-.38-.39.1-.32,0,.09.15.14.29.23l-.17-.21c.71.05.18.27.67.41-.13-.36-.59-.85-.34-1,.67.13.08.58.74.44l-.35.28c1.11,0-.13.19,1,.25.31-.41-.19-.6.12-1-.34-.2-.55-.11-.88-.32-.49-.82,1.78-.07,1-.78-.41-.24-1.23-.51-.7-.74l.71.31c.2-.43-1-.53-.37-.87.27.16.15.42.26.37.67-.15-.37-.32-.31-.55l.67.12c0-.51-.33-1.16-.32-1.71.19.08.38.22.61.14-.16-.74.43-1.41,1-2l-.51-.38c0-.06.28,0,.38,0,.27-.21-.36-.1-.56-.27,0-.16.37-.12.52,0-.37-.55-.75-1.5,0-1.84l.15.13c.31-.31-1.09-.66-.48-.89l.09.09c.42-.74.07-1.73,1.06-2.16-.81-.28.52-.72-.62-1,.66-.34.84-.17,1.35-.74.08-.17-.68-.39-.76-.63l.61.11-.59-.41.75,0-.12-.23c-.05.08-.3.12-.47.08-.22-.36.56-.68.87-.64l-.38-.83c.24.06.3.2.44.33-.55-.51.65,0,.15-.43a1.25,1.25,0,0,1-.48-.11.64.64,0,0,0,.36-.86l.41.13a13.14,13.14,0,0,0,.09-1.81c-.23.19-1,0-1-.16l.65,0c-.38-.17-.27.15-.72-.16.11-.22.76,0,1,.12l-.18-.31a2.84,2.84,0,0,1,.52.15c-.38-.18.72-.39.05-.66h.19a9.36,9.36,0,0,0,0-1.44c-.55-.09-.4-.27-.83-.48.23-.34.73-.69.73-1.14-.23-.35-.46-.16-.77-.34.51,0,.52-.41.85-.13a2.65,2.65,0,0,0-.34-1.42c-.22,0-.32.12-.49,0s.25-.25.49-.2l0,0c-.66-.85,1.69-1.58.69-2.31l0,0-.48-.68c.12-.28.36.21.7,0-.78-.77.24-1.06-.27-1.67,1.54-.29,0-1.54,1-2h-.36c-.33-.19.22-.17.31-.27-.27,0-.33.13-.51,0-.31-1.31.73-2.58,1.16-3.87.13-.48-1.81-.41-.92-.95l.64.22c-.72-1,.18-2-.44-3,.15.07.35.08.34.18.49-.18.07-.75-.33-.78.06-.14.36,0,.56-.1s-.58-.54-.1-.62c.08,0,.15.06.19.1-.22-.14.08-.62-.47-.51.27-.36-.23-.71.11-1-.62-.21.31-.62-.56-.7.91.05.74-.62.31-.85.28.08.29-.2.67-.11,0-.26-.18-.5-.65-.46,1.09-.49-.86-1,.52-1.25a9.18,9.18,0,0,1-1.09-2.17c.91,0,.11.77,1.06.71-.38-.66-1.18-1-1-1.67.12-.18.4.07.56.12-.42-.64,0-1.29-.53-1.84a.42.42,0,0,1,.25.1c0-.11.11-.28-.3-.23l.13.1c-.58.23-1.29-.35-1.61-.34,1.2.09.24-.6,1.75-.43a.72.72,0,0,0-.56-.1c.07-.12.22-.18.54-.09-.26-.4-.68-.2-.71-.58a3.61,3.61,0,0,1,.52.06c-.41-.15-.81-.29-.68-.63.12,0,.27-.05.28,0-.11-.55-1.13-.79-.86-1.43.88,0,.25-.24,1-.39l-.27-.29-.34.19c0-.29-.6-.44-.4-.72l.34.15-.23-.49-.23.34c-.42-.21-.93.19-.78-.21.09.06,0-.28.37-.5h0c-.27-.09-.54-.18-.4-.42s.81-.11,1-.18c-.64,0-.31-.62-1-.64a1.85,1.85,0,0,0,.63-.1h-.52c.13-.16.2-.2.51-.25,0-.4-.9.33-.6-.21,0,0,.12,0,.21,0,.1-.51-.48-.81-.37-1.28.69-.31.28.32.85,0-.3-.58-1.23-1-1.22-1.63l0,.13c-1,.23.38-.59-.19-.73a1.09,1.09,0,0,0,.47-.07c.07-.46-.52-.73-1-1.2l.29,0c.14-.31-.1-.65-.08-.94-.28,0-.29-.13-.63.1,1.18-1.37-1.36-1.08-.49-2.26,0,.07.31.08.28,0l-.49-.45c-.4.25-.22.2-.49.47-.28,0-.54,0-.6-.14.39.11.66-.33.84-.56-.12.08-.28.12-.4.19.59-.66-.85.38-.54-.26l.22-.1c-.17-.09-.53-.06-.56-.24.43-.32.31,0,.7-.17-.16-.2-1.14.08-.79-.37.19,0,.27.14.45.15.42-.51.26-.46.25-.67v0l0-.51-.09.18c-1.35.45-.55-.42-1.53-.28.93-.13.45-.21,1-.52.08-.18.15-.43.32-.48-.51.1.14-.51-.6-.35.15-.12-.12-.18.31-.43-.29-.12-.24.25-.45.37-.79.08.06-1.24-1-1.15-.6-.16-1.17.19-1.69.05.15-.32.62-.36.62-.36.07-.38-.09-.5-.43-.51a.85.85,0,0,0,.35-.41c-.18-.1-.62.39-.58,0a4.07,4.07,0,0,1,.71-.4c-.3,0-.72.05-1,0,.19-.28.46-.26.68-.35a1.15,1.15,0,0,0-1.14.06v.25c-.09,0,.29-.36.41-.38.45-.14.09.36,0,.5l-.2,0c-.7.91.58.32.77.61l-.7.46.74-.23c-.11.2-.43.54-.63.51-.15.43.37-.06.14.4a.21.21,0,0,1-.11.09h.32c-.16.08-.43.41-.42.23-.13.61.87.09.47.61H1036c.55.25.51-.35,1.33-.46l-1,1.13.52-.32c0,.06,0,.17-.16.3.47-.08.19-.19.59-.32-.29.54.68.44-.09,1.05.44-.18.15-.42.58-.36-.83.66.32.19,0,.67-.49.23-.37-.12-.65.35.84-.37.08.51.33.58.62-.37.49.23.88.4-.23.11,0,.74-.1,1.16l-.11,0c.68-.29.7.08.94.23a1.46,1.46,0,0,1-.8.2l.09.2a.6.6,0,0,1,.52,0l-.52.19c.15.25.84.27.68.77.48-.19,1.16-.88,1.66-.63a1.84,1.84,0,0,1-.83.28c.05,0,.27,0,.19.14l-.5,0c-.11.25.4-.07.42.08-.36.15-.21.21-.51.31,0,0,.1-.17-.06-.16a.84.84,0,0,1-.38.61c.2-.1.49-.21.58-.12.13.27-.41.28-.53.52.27,0,.08.25.63,0,0,.09-.22.2-.36.29.29.05.32.65.85.27l0-.05h0c.73.29.08,1.11.47,1.52l-.19.06c.3.22.32.61.78.7,0,.09-.28.31-.52.34.21.18.43.15.21.56-.4-.14-.27.16-.31-.17-.08.34-.37.48.24.66-.52,0-.55.37-.36.47l.29-.29a.52.52,0,0,1,.1.43l-.67.09c-.66.77,1.58.77.36,1.52.49.06.25-.4.81-.37,0,.3-.9.78-.88.86-.29.44,1,.16.85.61.23-.09.84-.26,1.11,0,0,.31-.92.52-1.14.38,0-.07,0-.11.12-.12a.31.31,0,0,0-.45,0h.24c-.22.18-.14.56-.53.54.25.17.39,0,.49-.16-.28.42.08.57-.09,1,.12-.08.39-.17.39-.12-.2.59.49.18.65.54-.33.26-.87,0-.51.37-.22.26-.61.13-.82.06.5.28-.23.67-.29.87l-.21-.15a.31.31,0,0,1,.14.26l.46-.15c-.07.11-.07.2-.26.22.32.07.77-.18,1.22,0-.23.17.3.4-.32.52.17-.46-.62.11-.76-.25.08.07.08.15,0,.27a.23.23,0,0,1-.17,0c-.51.47.73.12.76.55-.36,0-.66.17-.57.23,0-.17.58-.14.87,0-.25.3.23.29.21.44l.12-.18c.35,0,.32.17.44.36-.27,0-.2-.16-.32-.08.64.17-.61.54-.17.82-.23.15-.67.05-.82.19.48.31-.46.39-.06.72.47-.12.35-.14.83.09l-.37-.57.72.34c0-.18-.33-.36-.25-.47.4.16.28.15.67,0-.7.28.45.46,0,.77l-1.18.05c-.5.44.63.73.35,1.29l.2-.18c.47.06.08.34.27.51a1.78,1.78,0,0,0-.78.19c.29,0,0,.4.78.44l-.52.25c-.21.45,1.13.51,1,.94-.43-.13-.71.07-1-.22,0,.14-.07.27.2.27-.25.09.53.41.16.54.17.06.58.08.55.24a.61.61,0,0,1-.2,0c.2,0,.27.26.7.12-1.22.43.06,1.26-1,1.62a3.16,3.16,0,0,1,.26,1c-.12,0-.2,0-.16-.06-.38.37,1.12.29.69.73-.65.19-.33-.26-.58-.13-1.3,0,.15.55-.63.81l-.07-.08c-.45.2.46.6.34,1a.69.69,0,0,0-.2,0,1.94,1.94,0,0,1,1,1.2c-.5-.15-.26-.19-.78-.16.06.17.83,0,1,.35a2.51,2.51,0,0,1-1.1.3v-.31c-.73.11,0,.4-.14.56l-.31,0c.06.48.84.54.75,1l.23,0c.76.34-.45.2.11.52l-.8,0a4.22,4.22,0,0,1,.83,1,4,4,0,0,1-1.16-.91.69.69,0,0,0,.39.75c-.07-.08-.26-.19-.13-.25.6.27.88.59.84,1-1.52-.19-.46.92-1.67,1.08.5.68-.36,1.24-.34,2,1.21-.15,0,.22,1.23.29.06.18,0,.25,0,.26l-.78.45c-.36.09-.25-.19-.53-.2-.13.36-.53.1-.88.32.44,0,.61.19.42.39l.6-.24c.59.59-1.07.34-.49.94l-.37-.21c.2.3-.11,1,.83,1.38-.14,0-.48.06-.55-.07-.22.64.87,1.58.2,2l-.29-.09c.07.14.53.28.22.4-.13,0-.29-.09-.32,0s.48.39.29.52l-.32-.18c-.47.59.69,1.08.83,1.65a1.37,1.37,0,0,0-1.41.56l-.12,0c-.21.72.55,1.35.79,2.08-1,.29-.62,1.37-1.26,2a.91.91,0,0,1,.75.26c-.21.13.53.54-.27.38l0-.05c-.8,0-.64.35-.71.6l1,.22c-1.63.4.25,1.85-1.17,2,.23.2.19.4.42.61l-.55-.11a1.84,1.84,0,0,0-.32,1.19l-.37-.19c-.1.3,1.52.71,1.5,1l-.85-.08c-.09.55-.93.94-.29,1.63-.12,0-.36-.1-.37-.2-.08.25-.77.86.38,1-.74-.15-.19.54.07.9l-.53-.16c.64.4.83.45.94.83-.09.07-.45,0-.29-.1-.34.21.47.33.1.59l-.31-.2c-.11.27.08.29.45.53.18.23-.26.5-.76.43.29.11.65.35.47.48a.59.59,0,0,1-.34-.15c-.47.38.47.85-.14,1a.92.92,0,0,0-.34,0c.11-.36.21-.65.24-.62-.5-.12-.66.16-1.29-.24.32.32,1,.93.73,1.16h-.19l0,0c-.07,0,0,.12,0,.2-.1.07-.18.11-.21.2-.42-.07-.31.28-.36.43.55.12.41.29.91.22,0,0-.06,0-.06-.14s0-.06,0-.08l0,0c0-.1,0-.23.06-.38.25.19.45.37.11.46.33.16.67.34.82.43-.81,0-1.32.3-1.8.23.19.53-.08,1.11.87,1.67.1.16-.33.07-.51.07s0-.18-.17-.26c.19.32-.11.78.59,1-.41.24-.61-.36-.61.12l-.2-.12c-1.37.55,1.42,1.92-.31,2.48a.45.45,0,0,1,.28,0c-1,.92,0,2.45-1.39,3.23-.3.25.14.42.43.71l-.6-.11.57.53c.35.6-1.65.36-.91,1.22l.41,0c-.14.19,0,.73-.41.56.07,0,.39.19.16.21l-.31-.09.36.67c-.34.33-1.18-.43-1.41.12,0,.25.69.89.91.87,0-.08.26-.16.56-.07l.1.24c.88.31,1.74.75,2.51.46l-.44-.51.47,0-.06.29c.45,0,.13-.25-.09-.44a1,1,0,0,0,.52,0l-.74-.6c.36.07.64.37.9.2-.34-.27-.82-.09-1-.43.45,0,.77.12.48-.18a.68.68,0,0,1,.45.23c-.23-.25,0-.48-.43-.71.56,0,0-.61.89-.34-.19-.11-.58-.5-.56-.66.92.59.23-.57,1.29-.16-.84-.49-.17-.89-.56-1.41.06,0,.2.13.14.14.14-.18.43-.16.64-.25-.74-.25-.82-.63-1.23-.94.8,0,.84.42,1.56.54-.62-.16-.48-.63-1-.69a2,2,0,0,1,.92,0c-.93-.31-.11-.23-.64-.57.55-.15.9.19.71-.21C1039.52,589.38,1039.77,589.76,1039.77,589.76Zm.39-8h0V582A.72.72,0,0,1,1040.16,581.78Zm.15-.63a.85.85,0,0,0-.09.27c-.19,0-.38-.1-.35-.16S1040.13,581.2,1040.31,581.15Zm-4.11.39c0-.12.06-.12.18-.11a.45.45,0,0,0,0,.19l.06,0A2.26,2.26,0,0,1,1036.2,581.54Z"/><path class="b" d="M1036.87,581.9a.09.09,0,0,1,0,.05l.14,0-.17-.08Z"/><path class="b" d="M1040.18,524.58v0a.34.34,0,0,1,.06-.06Z"/><polygon class="b" points="1043.24 572.5 1043.11 572.48 1043.22 572.56 1043.24 572.5"/><path class="b" d="M1040.51,520.52a.35.35,0,0,0,.1-.11A.57.57,0,0,0,1040.51,520.52Z"/><path class="b" d="M1039.84,519.05l.06-.29A.85.85,0,0,0,1039.84,519.05Z"/><path class="b" d="M1039.43,517.84l-.21.11h0Z"/><path class="b" d="M1045.7,536.35a.13.13,0,0,0,0,0C1045.85,536.5,1045.8,536.43,1045.7,536.35Z"/><path class="b" d="M1043.65,530.81a1.32,1.32,0,0,1,.29.13C1044,530.84,1044,530.76,1043.65,530.81Z"/><polygon class="b" points="1046.6 542.81 1046.59 542.81 1046.59 542.85 1046.6 542.81"/><path class="b" d="M1044,531.21a.16.16,0,0,0,0-.27C1043.92,531,1043.87,531.14,1044,531.21Z"/><path class="b" d="M1036.19,513.43l0-.06-.07,0Z"/><path class="b" d="M1036.1,513.42h-.1S1036.05,513.46,1036.1,513.42Z"/><path class="b" d="M1035.8,513.42h.2S1035.94,513.33,1035.8,513.42Z"/><path class="b" d="M1037.18,514.8l.17-.12A.91.91,0,0,0,1037.18,514.8Z"/><path class="b" d="M1037.54,515.16c0-.12.14-.52-.06-.57l-.13.09C1037.63,514.55,1037.21,515.3,1037.54,515.16Z"/><path class="b" d="M1036.78,518.29l-.1-.4c-.14.18-.32.42-.47.32C1036,519,1036.54,517.84,1036.78,518.29Z"/><path class="b" d="M1037.16,519.46c-.19-.12-.26.17-.37.23C1037,519.69,1037.08,519.69,1037.16,519.46Z"/><path class="b" d="M1040.61,527.3l-.5.12C1040.22,527.55,1040.3,527.37,1040.61,527.3Z"/><polygon class="b" points="1043.62 528.26 1043.89 528.03 1043.42 528.06 1043.62 528.26"/><polygon class="b" points="1040.28 530.07 1040.19 530.02 1040.43 530.23 1040.28 530.07"/><path class="b" d="M1041.63,544.47l.63,0C1042.15,544.32,1041.44,544.28,1041.63,544.47Z"/><path class="b" d="M1041.88,550.9c-.32.05-.54.21-.24.35C1041.7,551.11,1042,551,1041.88,550.9Z"/><polygon class="b" points="1038.57 569.92 1038.39 569.76 1038.52 570.03 1038.57 569.92"/><path class="b" d="M1055.83,564.55c-.15-.09-.53-.2-.49-.08l.6.29Z"/><path class="b" d="M1054.44,564.79a3.21,3.21,0,0,0,1.34.67c-.56-.32-.3-.26-1-.64,0-.12.26-.09.49,0-.15-.09.19-.1-.18-.29-.53,0-.61.11-.27.42A1.52,1.52,0,0,1,1054.44,564.79Z"/><path class="b" d="M1049.8,573.69l.09,0Z"/><path class="b" d="M1046.77,579s0-.09-.09-.12S1046.71,579,1046.77,579Z"/><path class="b" d="M1045.63,579.59l.07,0C1045.63,579.55,1045.59,579.55,1045.63,579.59Z"/><path class="b" d="M1049.8,573.69l-.26.07C1049.73,573.86,1049.72,573.75,1049.8,573.69Z"/><path class="b" d="M1055.47,566.64a.46.46,0,0,0-.14-.14.21.21,0,0,1,0,.1Z"/><path class="b" d="M1050.38,571l0,0-.23-.14Z"/><path class="b" d="M1051.06,569a4.05,4.05,0,0,0,.7.36c-.2-.11-.29-.18-.32-.24A2.9,2.9,0,0,0,1051.06,569Z"/><path class="b" d="M1053.17,566.3l-.05-.08Z"/><path class="b" d="M1049.68,572.31l-.19-.06Z"/><path class="b" d="M1026.06,568.24l.09,0C1026.09,568.21,1026.06,568.23,1026.06,568.24Z"/><polygon class="b" points="1027.43 564.83 1027.47 564.84 1027.75 564.7 1027.43 564.83"/><path class="b" d="M1044.07,580.86h0C1044.06,580.78,1044.05,580.81,1044.07,580.86Z"/><path class="b" d="M1037.24,590.63c-.35,1.11-.66,1.62-1,2.83C1036.4,592.94,1037,591.33,1037.24,590.63Z"/><path class="b" d="M1055.38,566.67a.19.19,0,0,1,0,.08A.07.07,0,0,0,1055.38,566.67Z"/><path class="b" d="M1036.21,593.46h0l0,.11C1036.19,593.53,1036.19,593.5,1036.21,593.46Z"/><path class="b" d="M1042,584.65l.23.11A.7.7,0,0,0,1042,584.65Z"/><path class="b" d="M1044.47,582.39l-.11,0A.21.21,0,0,0,1044.47,582.39Z"/><path class="b" d="M1041.7,586.47c-.06,0-.13,0-.1.07l.06,0C1041.62,586.5,1041.6,586.46,1041.7,586.47Z"/><path class="b" d="M1040.64,587.87l.11,0v-.06Z"/><path class="b" d="M1028.52,572.94a3.23,3.23,0,0,1,.44-.27C1028.6,572.85,1028.37,572.67,1028.52,572.94Z"/><path class="b" d="M1055.17,566.53c.13.06.19.1.21.14a.17.17,0,0,0,0-.07Z"/><path class="b" d="M1045.23,589.17l-.24.19A.63.63,0,0,0,1045.23,589.17Z"/><path class="b" d="M1032,584.77l-.08,0S1031.94,584.76,1032,584.77Z"/><path class="b" d="M1044.51,590.11a1.06,1.06,0,0,0-.41-.1l.09.11Z"/><path class="b" d="M1029,572.66h0Z"/><path class="b" d="M1027,571.53c.09.25.71-.18,1.12-.31.32.21-.44.36-.74.61.26.1.94,0,1,.11a.78.78,0,0,1-.29.13c.62,0,.27.56,1,.49a.47.47,0,0,1-.16.1,8.57,8.57,0,0,1,.92-.42c.06.1.52,0,.09.25,0-.07-.19,0-.35,0l.25,0c-.6.37-.29-.07-.77.13.31.14,1,.18.84.43-.61.29-.38-.31-.84.14l.12-.36c-.9.61,0-.19-1,.43,0,.42.49.26.44.68.38-.06.51-.23.89-.29.82.25-1.44,1-.46,1,.46-.06,1.28-.33,1,.09l-.76.18c.06.37,1.12-.19.76.35-.31,0-.34-.18-.4-.1-.49.44.46,0,.52.2l-.62.26c.22.33.83.57,1.09.94a1,1,0,0,0-.59.2c.49.4.26,1.12,0,1.73l.62,0s-.23.15-.35.14c-.16.25.36-.1.61-.07.07.1-.29.24-.48.22.57.2,1.3.7.79,1.23l-.19,0c-.16.34,1.26,0,.79.42l-.11,0c-.11.68.58,1.26-.19,1.91.85-.08-.25.69.92.51-.51.47-.74.4-1,1,0,.14.77.07.92.22l-.61.11.67.12-.71.24.18.13a.72.72,0,0,1,.43-.2c.32.21-.33.67-.64.72l.6.5a1,1,0,0,1-.51-.12c.67.22-.64.15,0,.35a1.65,1.65,0,0,1,.49,0,.44.44,0,0,0-.13.73h-.43c-.06.44.31.88.36,1.36.18-.19.91-.23,1-.09l-.65.12c.41.06.24-.17.74,0-.06.19-.72.2-.94.11l.24.2a3.34,3.34,0,0,1-.55,0c.41.06-.61.44.1.51l-.2,0,0,.18c0,.1,0,.2.05.3s.08.35.12.5a5.32,5.32,0,0,1,.19,1c.56-.21.44.13.9.11a6.4,6.4,0,0,0-.5,2.08c.29.22.47-.27.8-.37-.5.47-.43,1.06-.8,1.08.11.69.12,1,.54,1.36a3.92,3.92,0,0,1,.47-.78c.08,0-.21.64-.45,1l-.05,0c.38,0,0,1.05-.3,2.26s-.61,2.46-.08,1.83l-.06.06a2.14,2.14,0,0,0,.56-.29c-.09.59-.38.6-.69,1.6.44-.45.39,0,.32.56.12,0,.2.17.7-.71-.39,1.41.08.93.55.34s1-1.28,1.08-.71l.12-.61c.3-.77.1.19.19.21.09-.46,0-.4.13-.83a4.37,4.37,0,0,1,1.88-1.62,9,9,0,0,0,2.12-1.13c.58-.46-.27-2.36.57-2q.06.43.09.87a4.89,4.89,0,0,1,1.3-1.91,6.57,6.57,0,0,0,.69-.81,1.35,1.35,0,0,0,.13-.21.47.47,0,0,0,.06-.15,1.29,1.29,0,0,0,0-.35c.09.13.24.26.19.32.48.17.42-.47.12-.72.12-.07.29.2.5.26s-.2-.71.22-.48a.21.21,0,0,1,.1.18c-.11-.23.37-.38-.13-.63.4-.08.16-.61.57-.6-.4-.5.55-.23-.11-.8.7.56.91,0,.67-.39.19.21.33,0,.59.32.12-.19.1-.45-.3-.69,1.11.3-.24-1.16,1-.54a8.75,8.75,0,0,1,.18-2.09c.74.52-.28.58.52,1.09,0-.67-.47-1.36,0-1.69.18-.05.29.28.39.4,0-.65.63-.85.48-1.53a.48.48,0,0,1,.15.22c0-.1.23-.12-.12-.33l0,.14c-.58-.18-.86-1-1.12-1.15.92.75.5-.25,1.64.74a.86.86,0,0,0-.4-.39c.11,0,.27,0,.48.26,0-.41-.44-.53-.28-.79a2.86,2.86,0,0,1,.39.34c-.25-.33-.51-.67-.23-.81.09.08.24.13.2.19.17-.42-.52-1.17,0-1.41.68.55.33,0,1,.33l-.07-.34-.37-.08c.13-.2-.25-.64,0-.7l.19.3.08-.45-.36.08c-.23-.38-.84-.42-.52-.59,0,.09.11-.2.56-.1h0c-.16-.21-.32-.43-.08-.49s.71.41.87.46c-.5-.39.1-.56-.43-1a2,2,0,0,0,.55.32l-.41-.31a.74.74,0,0,1,.54.15c.23-.24-.89-.33-.36-.49,0,0,.1.07.14.16.36-.25,0-.81.42-1,.72.24,0,.36.65.53.1-.52-.34-1.33,0-1.7l-.11.05c-.93-.52.62-.11.27-.55a1.53,1.53,0,0,0,.41.26c.29-.24,0-.74-.05-1.33l.22.17c.31-.08.35-.42.55-.56-.22-.17-.14-.27-.53-.36,1.68,0-.27-1.47,1.15-1.5,0,.06.15.24.17.19l0-.55c-.44-.14-.29,0-.66-.09s-.37-.37-.32-.49c.2.33.69.29,1,.3-.14,0-.27-.13-.41-.18.86.07-.84-.4-.2-.51l.22.11c-.06-.17-.32-.4-.2-.51.52.15.18.23.58.4.05-.2-.79-.75-.23-.71.11.13.07.24.17.38.66,0,.52,0,.67-.13h0l.39-.21-.19,0c-1.2-.75-.05-.57-.77-1.22.68.62.44.24,1,.48a1,1,0,0,1,.56,0c-.4-.32.45-.11-.14-.58.19.06.08-.15.53.06-.07-.25-.34-.07-.56-.18-.51-.54,1-.42.33-1.17-.21-.5-.8-.8-1-1.26a1,1,0,0,1,.63.35c.34-.09.34-.25.19-.51a1,1,0,0,0,.53.13c0-.16-.64-.34-.3-.42a4.39,4.39,0,0,1,.68.41c-.1-.23-.39-.52-.49-.76.34.07.45.28.63.42a1.06,1.06,0,0,0-.59-.85l-.22.06c0-.08.45.12.52.2.34.31-.26.18-.45.12l-.07-.16c-1.13-.26,0,.55-.16.78l-.75-.39.56.49c-.22,0-.67-.14-.74-.31-.45,0,.22.26-.27.26a.18.18,0,0,1-.13-.06l.17.26c-.15-.1-.56-.18-.41-.24-.57.14.4.71-.24.61l0,0c.1.53.56.26,1.11.83l-1.49-.31.55.26s-.11.1-.33,0c.32.31.26.07.59.3-.6,0,0,.68-.91.38.41.24.41-.08.63.27-1-.32.07.33-.46.34-.47-.25-.14-.33-.66-.31.8.45-.34.3-.24.52.67.28.14.46.26.83-.22-.11-.58.36-.92.51l-.11-.06c.66.33.42.54.49.79a1.5,1.5,0,0,1-.69-.46l-.07.18a.62.62,0,0,1,.32.38l-.49-.25c-.07.24.39.72-.07.87.46.22,1.41.32,1.59.78a2.18,2.18,0,0,1-.77-.4s.17.19,0,.2l-.38-.31c-.24,0,.33.22.24.31-.36-.15-.29,0-.57-.17,0,0,.19,0,.07-.13a.89.89,0,0,1-.7.08c.21.08.49.21.5.32s-.47-.1-.72,0c.23.17-.09.2.45.44,0,.07-.29,0-.45-.07.19.23-.19.59.45.71h0l0,0h0c.35.63-.68.68-.63,1.17l-.18-.08c.1.33-.11.57.19.92,0,.07-.4,0-.6-.12,0,.24.24.35-.18.46-.22-.32-.3-.07-.14-.29-.26.16-.57.07-.21.55-.41-.31-.65-.11-.57.06h.4a.4.4,0,0,1-.17.33l-.57-.35c-1,.09.82,1.46-.57,1.18.35.34.42-.09.85.26-.2.17-1.16,0-1.19,0-.48.11.72.72.33.9.23.08.81.34.89.67-.19.17-1-.21-1.11-.43,0-.06.09,0,.16,0a.38.38,0,0,0-.36-.29l.2.14c-.27,0-.4.29-.71,0a.34.34,0,0,0,.48.19c-.44.11-.24.41-.59.57.14,0,.4.12.38.16-.49.25.29.39.23.72-.41,0-.72-.48-.61-.06-.31,0-.57-.28-.7-.44.26.47-.52.31-.67.4l-.1-.22a.21.21,0,0,1,0,.25l.45.17c-.11,0-.15.1-.32,0,.23.23.72.34,1,.71-.26,0,0,.43-.52.15.38-.21-.56-.29-.49-.61q0,.13-.12.18a.21.21,0,0,1-.13-.11c-.66,0,.53.5.33.8-.28-.22-.62-.28-.59-.19.08-.12.54.25.71.51-.36,0,0,.32,0,.41l.18,0c.28.22.18.3.19.5-.25-.14-.09-.23-.22-.24.43.48-.76,0-.54.44-.26,0-.57-.35-.76-.35.23.49-.58,0-.42.44.45.19.36.11.63.54v-.59l.41.64c.09-.12-.08-.42,0-.45.24.34.15.26.52.41-.71-.22.13.57-.41.5l-1-.65c-.63,0,.16.85-.34,1.06h.26c.35.32-.11.28,0,.51a2,2,0,0,0-.73-.33c.25.16-.21.25.41.74l-.54-.14c-.39.17.67,1,.35,1.21-.29-.34-.61-.38-.72-.75-.07.1-.19.14,0,.3-.24-.09.24.58-.13.45.11.14.44.4.33.49a.89.89,0,0,1-.15-.12c.16.12.08.33.5.5-1.2-.45-.56.87-1.59.47a2.47,2.47,0,0,1-.27.82c-.08-.09-.15-.13-.09-.14-.49,0,.75.87.2.9-.62-.26-.14-.37-.41-.43-1-.79-.14.45-.89.15l0-.09c-.23-.07-.21.1-.16.3s.19.37.1.4l-.14-.15a1.55,1.55,0,0,1,.23,1.37,2.37,2.37,0,0,0-.35-.79c0,.13.44.75.35,1.07a2.48,2.48,0,0,1-.6-1l.08-.13c-.35-.69-.1.14-.2.07l-.1-.35c-.07.22.13,1.18-.07,1.32l.06.29c0,1.16-.16-.48-.2.42l-.1-1.07a8.53,8.53,0,0,1-.38,1.75c.14-1,.27-1.6.31-2.16,0,0-.15.24-.21.89,0-.15.06-.47.08-.31a3.78,3.78,0,0,1-.43,1.81c.14-1.29.09-1.38,0-1.39s-.17.08,0-1c-.18.6-.25.57-.24.39s.07-.52,0-.36c-.86,2.63-.07.11-1,2.91-.14.25-.15.23-.09.05l.23-.78.33-1c.32-.86.24-.57.49-1.23.08-.28.43-1.14.72-1.87l0-.12c-.4,1-.57,1.39-.42,1l-.51,1.31c-.3.65-.06,0,.17-.53s.47-1.1.17-.5l.36-.75c-.21.41,0,0-.9,1.57.13-.25.44-.83.52-1s-.18.2-.37.39-.33.24,0-.2l.28-.34c-.08.08-.53.6-.25.21.12-.13.28-.32.3-.35s-.49.48-.33.25l.31-.31c.18-.25,0-.08-.28.08s-.61.33-.71.27c.84-.58,1.11-.84,1.24-.92l.12-.06c.1-.13-.71.26-1.12-.52.93-.45.28-1.28.73-1.94a1,1,0,0,1-.78,0c.16-.16-.65-.31.15-.39v.05c.77-.2.54-.46.52-.69l-1.05.11c1.43-.81-.79-1.43.52-2-.29-.1-.32-.27-.6-.36l.56-.1a1.45,1.45,0,0,0-.13-1.08l.42,0c0-.28-1.67,0-1.75-.26l.81-.24c-.12-.46.49-1.11-.36-1.4.12,0,.37-.06.42,0,0-.22.35-1-.76-.62.73-.2-.06-.5-.45-.66l.55-.11c-.74,0-.93,0-1.2-.22,0-.08.41-.18.3,0,.22-.31-.55,0-.34-.39h.37c0-.25-.21-.18-.65-.19-.25-.09,0-.48.48-.66-.31,0-.74,0-.64-.13a.57.57,0,0,1,.36-.05c.24-.51-.79-.39-.35-.82a1.3,1.3,0,0,0,.3-.15c.08.31.13.57.08.56.49-.15.5-.43,1.24-.45-.43-.09-1.34-.17-1.2-.49l.16-.09h.06c0-.08,0-.11-.13-.13.06-.11.1-.18.08-.25.39-.17.11-.37.09-.5-.53.2-.5,0-.88.31,0,0,.07,0,.12.08a.15.15,0,0,0,.07,0h-.05a1.92,1.92,0,0,1,.15.29c-.31,0-.57,0-.32-.26l-.92.12c.68-.42,1-.89,1.41-1.1-.43-.28-.54-.82-1.61-.68-.17,0,.24-.23.38-.33s.13.1.29.08c-.34-.11-.35-.59-1-.36.21-.39.69-.11.44-.43l.22,0c.8-1.18-2.22-.43-1.15-1.8a.48.48,0,0,1-.2.2c.22-1.16-1.38-1.55-.84-2.86.07-.34-.36-.16-.76-.15l.52-.32-.75.05c-.63-.12,1-1.28-.07-1.3l-.34.24c0-.19-.47-.4,0-.58-.08,0-.41.14-.25,0l.28-.15-.69-.15c0-.41,1.14-.53,1-1a1.89,1.89,0,0,0-1.22.12c0,.07-.08.26-.36.41l-.22-.07a4.66,4.66,0,0,0-2.12,1.42l.63,0-.36.29-.13-.2c-.31.32.06.22.33.19a1.26,1.26,0,0,0-.39.34l.92-.17c-.31.2-.7.22-.79.48.43-.07.67-.48,1-.42-.31.32-.64.44-.24.42a.81.81,0,0,1-.48.16c.32,0,.28.28.75.12-.39.36.35.36-.45.75.21-.06.73-.09.82,0-1,.26.16.47-.88.91.92-.26.65.38,1.26.43-.07,0-.23.06-.19,0,0,.19-.23.36-.35.54a3.52,3.52,0,0,1,1.49-.22c-.59.52-.88.27-1.51.64.57-.28.73.07,1.18-.22a2.07,2.07,0,0,1-.71.57c.91-.38.22.07.82,0-.34.41-.81.43-.43.54A.77.77,0,0,1,1027,571.53Zm3.82,5.08h0l-.08-.11Zm.16.5a.49.49,0,0,0,0-.23c.18-.07.37-.12.38-.06S1031.14,577,1031,577.11Zm3.34-2.32c.1.06,0,.13-.1.17a.54.54,0,0,0-.11-.12h-.07Z"/><path class="b" d="M1033.59,574.89l0,0a.45.45,0,0,0-.1.09l.17,0Z"/><path class="b" d="M1049.91,573.66h.07Z"/><polygon class="b" points="1031.65 584.25 1031.79 584.23 1031.66 584.2 1031.65 584.25"/><path class="b" d="M1052.85,571.72a.38.38,0,0,0,.15,0Z"/><path class="b" d="M1053.45,570.57l.25-.09A.73.73,0,0,0,1053.45,570.57Z"/><path class="b" d="M1054.08,569.76l-.22-.11h0Z"/><path class="b" d="M1047.7,584.31v.05C1047.75,584.49,1047.74,584.42,1047.7,584.31Z"/><path class="b" d="M1048.91,579.55a1.64,1.64,0,0,1,.17.26C1049.15,579.76,1049.19,579.7,1048.91,579.55Z"/><polygon class="b" points="1045.26 589.14 1045.25 589.14 1045.23 589.17 1045.26 589.14"/><path class="b" d="M1049,580c.14,0,.15-.1.12-.19S1048.92,579.9,1049,580Z"/><path class="b" d="M1055.81,565.83l0,0-.08,0Z"/><path class="b" d="M1055.77,565.76l0-.08S1055.71,565.73,1055.77,565.76Z"/><path class="b" d="M1055.63,565.53l.1.15S1055.77,565.61,1055.63,565.53Z"/><path class="b" d="M1055.13,567l.18.09A.72.72,0,0,0,1055.13,567Z"/><path class="b" d="M1055,567.36c.08-.07.5-.07.42-.24l-.15-.06C1055.58,567.22,1054.76,567.16,1055,567.36Z"/><path class="b" d="M1052.1,568l.27-.25c-.22,0-.52,0-.52-.21C1051.1,567.7,1052.34,567.64,1052.1,568Z"/><path class="b" d="M1051.44,568.85c0-.2-.29-.12-.4-.17C1051.18,568.85,1051.22,568.9,1051.44,568.85Z"/><path class="b" d="M1048.55,575.55l-.46-.24C1048.1,575.46,1048.27,575.4,1048.55,575.55Z"/><polygon class="b" points="1050.3 577.98 1050.64 578 1050.25 577.73 1050.3 577.98"/><polygon class="b" points="1046.68 577.08 1046.64 576.99 1046.7 577.27 1046.68 577.08"/><path class="b" d="M1040.44,587.32l.52.35C1040.93,587.53,1040.38,587.08,1040.44,587.32Z"/><path class="b" d="M1038.36,590.8c-.09-.38-.15-.61-.14-.16C1038.26,590.66,1038.35,590.93,1038.36,590.8Z"/><polygon class="b" points="1036.86 584.87 1037.08 584.95 1036.88 584.77 1036.86 584.87"/><path class="a" d="M1029.12,505.79c.22.13.56-.11.3-.59l-.76-.14Z"/><path class="a" d="M1029,501.94c-.52-.49-1.3-1-1.73-.39.81.38.61.61,1.56,1,.26.49.12,1-.14,1,.23.12.16.84.65,1a2.44,2.44,0,0,0-.77-2.42C1028.66,501.82,1028.89,501.94,1029,501.94Z"/><path class="a" d="M1009.78,452.39l.07.34A.9.9,0,0,0,1009.78,452.39Z"/><path class="a" d="M994.56,423.09c.14.2.26.26.31.24C994.71,423.15,994.58,423,994.56,423.09Z"/><path class="a" d="M992.21,417.89l.14.3C992.33,418.05,992.29,417.93,992.21,417.89Z"/><path class="a" d="M1009.78,452.39l-.19-.89C1009.37,451.53,1009.64,452,1009.78,452.39Z"/><path class="a" d="M1025,495.62a1.55,1.55,0,0,0,.32.39l-.22-.4Z"/><path class="a" d="M1016.28,465.41l.11.25a1.53,1.53,0,0,0,.34.09Z"/><path class="a" d="M1020.72,475.66c-.07-.24-.62-.11-.89-.11a.83.83,0,0,1,.57.37A.87.87,0,0,0,1020.72,475.66Z"/><path class="a" d="M1026.29,492.48l.19.26Z"/><path class="a" d="M1013.15,458.05a.42.42,0,0,0,.14-.17A.27.27,0,0,0,1013.15,458.05Z"/><path class="a" d="M752.61,369.93a.79.79,0,0,0,0-.09C752.54,369.92,752.54,370,752.61,369.93Z"/><path class="a" d="M740.43,374.12l.12-.14a2.4,2.4,0,0,0-.18-.26Z"/><path class="a" d="M987,408.85l0,0C987.26,409.08,987.16,409,987,408.85Z"/><path class="a" d="M910.83,353.85c.86.81-1.86.07-.5,1.11C910.26,354.7,912,354.58,910.83,353.85Z"/><path class="a" d="M1025,495.32c-.06-.14-.12-.28-.17-.42A1.62,1.62,0,0,0,1025,495.32Z"/><path class="a" d="M910.33,355h0l.14.1Z"/><path class="a" d="M971.73,390.32a.8.8,0,0,0,0,.35C971.75,390.62,971.76,390.53,971.73,390.32Z"/><path class="a" d="M982.54,404.56l-.21-.4A2.43,2.43,0,0,0,982.54,404.56Z"/><path class="a" d="M964.62,384.27c-.14-.2-.15-.31-.44-.48a.5.5,0,0,0,0,.12A.62.62,0,0,1,964.62,384.27Z"/><path class="a" d="M957.35,377.9c0,.07,0,.14.07.2l.25.18Z"/><path class="a" d="M779.61,361a1.51,1.51,0,0,1-.54-.39C779.31,360.92,778,361.37,779.61,361Z"/><path class="a" d="M1025.31,495.5a.32.32,0,0,1-.32-.18c0,.1.09.2.13.29S1025.29,495.58,1025.31,495.5Z"/><path class="a" d="M961.3,387.24l-1-1.07A12.49,12.49,0,0,0,961.3,387.24Z"/><path class="a" d="M846.91,351.59l-.34.09A.51.51,0,0,0,846.91,351.59Z"/><path class="a" d="M956.92,383.32a2.35,2.35,0,0,0-.39-.83.54.54,0,0,0-.22,0Z"/><path class="a" d="M779.07,360.56Z"/><path class="a" d="M769.86,364.35c1.37-.38.44-.88.62-1.37,1.58-.67.9.31,1.56.51,1-.47,1.59-1.32,2.37-1.49.08.1.25.1.11.3.94-.86,3.22-.88,4.34-1.88a.45.45,0,0,1,.21.14,1.54,1.54,0,0,1-.44-.94c.63-.16,1.06-.73,1.41-.32-.39.08-.38.28-.52.47l.61-.36c.75.53-.85.44-.73.94,1.23-.51,2.59-1.44,3.62-1.46.35.6-2.24.75-.8,1l-1.57.11c1.4.77-.94.14.38,1,2-.28,2.15-.86,4.19-1.09.37-.47-.27-.51.11-1,2.71-1.26,2.57,1.17,4.49-.11.45-.55.5-1.44,2.09-1.28l-.37.85c2-.3.91-1.3,3.05-1.18-.31.35-1.49.54-1.18.57,1.44.34.86-.61,1.88-.79l.33.63c2.07-.46,4.27-1.38,6.57-1.85-.09.22-.45.49.12.61a34,34,0,0,1,9.13-.88l1-.74c.25,0,.5.2.25.35,1.13.08,0-.38.5-.68.63-.12.88.23.5.46,1.88-.74,5.41-1.79,7.54-1.38l-.38.22c1.63.05,1.68-1.4,3.22-1l-.27.14c3.5-.12,7.3-1.05,10-.37.44-.89,3.48.08,3.61-1.12,2,.45,1.48.7,4.31.89.75,0,1.06-.81,2-1l.06.62,1.22-.72.71.7.86-.2c-.34,0-.75-.24-.7-.42,1.34-.35,3.33.25,3.37.56l3.19-.65c-.06.25-.6.35-1,.53,1.69-.7.34.64,1.89,0-.22-.14.1-.37.13-.5a9.83,9.83,0,0,0,3.89.1l-.25.43c2.38,0,5-.32,7.68-.31-1-.19-.75-.93,0-1l.31.65c.51-.4-.82-.24.22-.74,1,.07.67.74.1,1l1.21-.23c.07.2-.21.29-.29.54.5-.4,2.08.68,2.8,0l.07.2c2.66,0,3.86-.13,6-.09.06-.56.9-.41,1.57-.83a42,42,0,0,0,5.22.92c1.36-.15.43-.43,1.06-.71.06.52,2,.64.94.92l2.67.15c.8,0,1.69,0,3.15,0-.28-.26-.62-.4-.41-.54.53,0,1.14.41,1,.64l-.14,0a8.07,8.07,0,0,1,2.54.33c.85.27,1.68.66,2.49,1s1.53.78,2.25,1a7.19,7.19,0,0,0,1.07.31,3.78,3.78,0,0,0,1.1.11h-.16l2.79.39c1.16.48-.85.12-.06.72,3.08.13,4.4,1.59,6.88,1.81,1.31,2,6.35,2,8.39,3.72l0-.39c.73-.11.67.46,1.1.69,0-.28-.56-.53-.12-.58,5.33,1.42,10.4,4.46,15.21,7.18,1.77,1,1.85-1.13,3.75.81l-.95.24a24.46,24.46,0,0,1,5.62,2.71c.89.53,1.75,1.12,2.64,1.64s1.8,1,2.71,1.44c-.28,0-.4.15-.72-.07.43.88,2.55,1.8,2.8,1.5.48.39-.09.37.11.75.54.69,2.07.78,2.15,1.43,0,.11-.28,0-.43-.08.58.15,2,1.61,1.93.85,1.05,1.1,2.41,1.61,3.13,2.64,1,0,1.79,1.89,2.55,1.39-.67.61,1.47,2.34,2.46,2.68-.42,0,.42.77-.11.79.81.72,1.64,1.29,1.83.83.65,2.2,3.48,2.27,3.29,4a70,70,0,0,1,6.89,6.17c-.76.51-2.15-2.43-2.8-1.69,2.07,1.86,3.7,2.6,5.3,4.87.35.64-.54-.09-.83-.16,2,1.95,3.25,4.28,5.14,6-.07.05-.3-.12-.51-.28.31.38.56,1,.86.71l-.37-.32c0-1,2.13.85,2.44.74-1.43,0,1.2,2.17-.78,2,.25.22.64.44.82.22.22.43.17.65-.36.43,1.2,1.3,1.2.54,2.11,1.84-.16.11-.41-.11-.7-.11a4.47,4.47,0,0,1,2.15,2.11c-.14,0-.18.22-.4-.12,1.31,1.9,3.06,2.71,4.11,5.06-1.12-.18.21.88-.35,1.4l.9,1,0-.66c.62,1,1.64,1.64,2,2.64l-.73-.59,1.3,1.83L992.3,424c1,.84.74-.6,1.4.87-.23-.24.63,1,.55,1.8h0a3.22,3.22,0,0,1,1.3,1.66c-.09.32-.81.25-.87.46.83.2,1.54,2.35,2.49,2.66a.51.51,0,0,0-.63.16l.68.17c.14.56.11.67-.21.75.75,1.49.56-.93,1.19,1-.11-.11-.14,0-.37-.25.78,1.84,2.1,3.23,2.75,5-.41.83-.91-1.32-1.18-.48,1.36,2.26,3.39,4.38,4.35,6.77l-.14-.47c1.1-.16.38,1.94,1.4,2.87-.21-.25-.71-.11-.57-.08.62,1.64,1.87,3.06,3.28,5.32l-.38-.18c.22,1,1,2.52,1.38,3.58.39.19.62.78.81.26a8.22,8.22,0,0,0,1.8,4.62,8.36,8.36,0,0,1,1.74,4.32c-.15-.34-.57-.7-.45-.44l1.27,2.28c.34-.37.12-.42.23-1.07a3.07,3.07,0,0,1,1.13,1.37c-.75-.95-.67.31-.71.87.1-.13.31,0,.42-.13-.21,1.56.95-.16,1.19,1.75h-.27a6.38,6.38,0,0,1,1.16,1.77c-.37.49-.51-.59-.93-.46.43,1,1.72,1.52,1.59,2.61-.3-.36-.55-.95-.86-1.3a3.18,3.18,0,0,0,.21,2V474l.41,1.75,0-.48c1.79.68,1.26,2.37,2.78,3.67-1.46-1.27-.58-.08-1.19,0,0,.48.1,1.18-.13,1.07.77.59.19,1.43,1.28,2.26-.16.12.3.84-.22.85.53.95.22-.37.48-.37,1.23,1.32.67,4,2.39,5.88,1.1,1.8,1.86,1.93,2.86,3.62-.06.71-.86-.25-.86-.25a5.69,5.69,0,0,0,1,2.66c-.23-.13-.3.11-.4.47.32.73.85.25.94,1.34a2.9,2.9,0,0,1-1-.47c.49.81,1.15,1.56,1.65,2.41-.24.35-.69-.38-1-.62.51,1,1.25,2.54,1.87,2.68l-.06-.72c.16.36-.36.34-.55.1-.72-.73-.29-1.33-.12-1.44l.35.6c.83-1.06-1.12-2.54-1.54-3.87l1,.25-1.13-1.1c.1-.36.46-.71.81-.11,0-1.08-.57-.73-.45-1.69,0-.12.09-.09.15,0l-.58-.82c.23.11.49-.36.59.24-.18-1.81-1.6-2.41-1.25-3.25l.1.11c-1.14-2.16-.65,0-2-1.44l1-1.69h-.65c-.07-.24-.21-.72,0-.72-.73-.72-.19.24-.75-.12.08-1.33-1.44-3-.64-3.62-.59-.23.09,1.21-.68.13.84-.73-.73-1.31-.7-2.51.63.11.76,1.19.79,0-1.1-.27-.64-2.06-1.15-2.85-.69.23-1-1.76-1.87-3.11.25,0-.72-2.88-1.09-4.31h.13c-.79,0-1.26-1.39-1.84-2.33.42-.14.66,0,1.08.44l-.42-.94c-.31-.13-.55-.38-.9-1l.61,0c-.58-1.25-1.7-2.26-2.07-4-.5.12-.74,1.86-1.8.3.23-.18.63-.44.93,0-.09-.13-.44-.42-.46-.76l.73.48c-.14-.81-.53-.22-.74-.82.36-.15,0-.55.38-.59.1.13.08.57.32.73a3.93,3.93,0,0,1-.24-2c-.18.15-.48.22-.75-.24-.61-1.22.23-.62.08-1.43-.39-.18-.5-1.09-1.05-.86-.16-.37.05-.55.13-.76-.53-.53-1.46-3-1.69-2l0,.18-.08-.09h0c-1.48-1.86-1.76-4.49-3-6.44l.18-.08c-.81-1.13-1.48-2.67-2.3-3.36-.18-.36-.11-1,.18-1a5.45,5.45,0,0,1-1.28-2.36c.81.77.1-.47.74.84-.49-1.29-.36-1.71-1.53-2.75.68.2.08-1.21-.36-1.71l.13,1a11.89,11.89,0,0,1-.94-1.79h.75a7,7,0,0,0-2-3.27,4.07,4.07,0,0,1-1.49-3c-.77-.41.47,1.48-.33,1.18-.56-1.16-.4-2.8-.6-3.16-.57-1.71-1.65-.94-2.38-2.65-.07.32-.5.83-1.42-.22-.59-1.14,0-1.87.62-1.27.17.25.19.42.11.45.3.31.67.72.62.15l-.29,0c-.13-.67-1.08-2.17-.53-2-.7-.72-.55-.16-.28.52-.57-1.59-1.34-2.2-2-3.78,0,.3-.08.67-.21.43-1.07-2.28-1-.68-2-2-.23-1,.92-.19-.28-1.44-.37-1,.4-.53.8-.29-1.25-1.05-1.36-2.59-1.79-3.38l.62.57a5.24,5.24,0,0,1-.82-1l-.13.66c-.2-.45-.42-.79-.25-.9-.54-.23-.44.76-1.34.19-.18-.66-1.35-1.44-1-2,1,1.76.39-.55,1.47.79a3.08,3.08,0,0,1-.7-1c0-.1.14,0,.25.07-.67-1.9-1.1-.32-2.26-2,.44,0,.28-.78,0-1,.46.67-.26.66-.91.22-.53-1.2-1-1-1.35-1.56.12.22.24.45.35.69-.43,0-.78-.54-1.42-1.17.17-.23.65.52.55.2-1.1-.41-.86-2.17-2-3-.2-.65.49-.46.27-1-1.32-.94-.64-1.65-2-2.66-.07.67.08.65-1,.07.65.62,1.34,1.21,2,1.86-.52-.31-1.07-.61-1.62-.9.52.62,1.31,1.13,1.54,1.57-.8-.4-.66-.41-.73.14-.11-1.33-1.72-1.42-2.15-2.71l.93-.73c-.86-1.8-2.62-2.27-4.11-4.29l.39.73c-.58.06-1.09-1.1-1.78-1.57.34-.21.11-.68.05-1.1-.18.23-1.22-1.38-1.94-1l-.41-1.15c-1.28-1.59-2.43-.85-3.7-2.31.71.1.28-.72,1.42,0-.46-.46-.82-.93-1-.74-.08-.46-1.68-.85-1.86-1.53-.32-.06-.66.18-1.18-.33,0-.11.14-.14.14-.14s-1-.58-.85.18c-.6-2.32-4.24-3.58-4.89-5.52-1.19-.79-2.64-1.7-3.67-2.46.14-.05.12-.16.29,0-1.19-1.37-1.52.23-2.93-1.24-.47-1.11,1.08.33.69-.24.52-1.22-2.1-1.24-2.79-2.65l.31.13c-.62-1-2.41-1-3.79-2,0,0,.13-.06.11-.16a17.91,17.91,0,0,1-4.84-1.6c.69-.2.78.13.76-.47-.67-.3-.22.82-1.55.24-.29-.47-1.1-1.17-1-1.72l1.24.61c-.29-.95-1.6-.8-2.18-1.25l.22-.23c-1.92-.91-2.31-.18-4.32-1.21l.11.31c-1.45.19-.75-.85-2.12-.83v-.87c-.84-.14-2.92-.46-4.33-.86,1-.25,2.67.18,3.79.28-.74-.32-2.55-1.06-3.1-.84.34.05.79,0,1,.27a7.43,7.43,0,0,1-4-.62c.83-1.35-3.78-1.85-4.47-3.36-2.88-.41-5.27-2.08-8.44-3,.74,1.49-.92-.27-1.11.95-.75-.16-1-.27-1.07-.37l-2-1.42c-.41-.51.78,0,.8-.31-1.57-.61-.51-.71-1.46-1.36.08.48-.75.41-1.6-.05l1.1,1c-2.42-.13-1.59-1.61-4-1.75l.83-.13c-.61-.08-1.65-.45-2.72-.73a5.66,5.66,0,0,0-3-.17c-.17-.2-.37-.62.2-.53-.37-.13-.75-.25-1.15-.35s-.79-.14-1.2-.19c-.81-.1-1.64-.18-2.43-.24a13.21,13.21,0,0,1-4.18-.64l.26-.27c-.56,0-1,.43-1.67.05,0-.12.26-.27,0-.32a4.79,4.79,0,0,1-2.22.07l.66-.26c-2.84-.67-4.48.36-6.88.44.07-.87-2.17-1.31-3.29-1.5l0-.13a21.55,21.55,0,0,0-4.49.21c-1.39.21-2.74.49-4.28.64-1.9-1-6.46-.42-9.54-.86.48.15-.06.69-.6.79-.72-.16-2,.66-1.88-.15h.26c-.57-.79-2-.51-3.19-.49l-.15,1.06c-3.09-1.44-7.85,1-9.58-.33-.7.32-1.6.38-2.3.69v-.56a31.38,31.38,0,0,0-5.51.33l.47-.45c-1.4.09-1.63,1.78-2.92,1.92l-.46-.81c-2.44.22-5-.24-7.31.75a.49.49,0,0,1,.46-.45c-1.15.09-4.5-.07-4,1-.11-.74-2.52.2-3.79.7l.14-.58a4.53,4.53,0,0,1-2.55,1.44c-.38,0-.38-.4.12-.32-1.25-.13-.88.65-2.39.54l.5-.42a2.11,2.11,0,0,0-1.77.8c-.76.34-2.39.2-2.65-.27a1.66,1.66,0,0,1-1.51.8c-.13-.18.12-.33.25-.41-2.15-.08-3,1.11-4.53.79a.43.43,0,0,0-.3-.29,27.27,27.27,0,0,1,2.89-.37c-.08-.51-1.44-.38-.47-1.25-1,.55-2.74,1.68-4.09,1.64a.52.52,0,0,1-.2-.14l.13-.08a1.81,1.81,0,0,0-.82.21,5.12,5.12,0,0,0-1.11,0c-.22-.39-1.57,0-2.25.14.16.54-.73.61.17.92-.12,0,.11-.09.55-.19a1.18,1.18,0,0,0,.27-.1l0,.05,1.65-.33a2,2,0,0,1-1.78.53c-.28.42-.59.85-.77,1.06-1.05-.61-2.89-.72-3.22-1.15-2,.69-4.76,1.13-5.83,2.41-.55.25-.72-.15-1-.27.31-.18.71-.25.86-.43-1.1.5-3.39.83-3.51,1.61-1.52,0,.67-.84-1.3-.3l.22-.27c-4.19-.27-5.92,3.26-10.58,2.93.32,0,.48,0,.58.12a36.48,36.48,0,0,0-7.49,2,38.79,38.79,0,0,1-7.44,2.11c-1.42.29-1.41.75-2.09,1.42l-.5-.44-1.13,1.21c-1.75,1.22-4,.1-6,2.11l.5.22c-.9.35-2.58,1.65-2.67,1.16-.05.11-.07.52-.51.51l-.18-.26c-.63.51-1.18,1.16-1.75,1.72-.84.4-1,.11-1.15-.12a.48.48,0,0,0-.45-.18,2.49,2.49,0,0,0-1.17.6c-.77.77-1.74,2.56-1.29,2.47.33-.25.95-.5,1.17-.28l-.6.69c.47.82.65,1.89,2.65,1.14l.77-1.35.65.12a7.59,7.59,0,0,0-.94.73c.76-.09.9-.62,1.18-1.1a1,1,0,0,0,.79.08l.73-1.52c.33.21-.16,1,.74.62.37-.7-1-.39-.14-1.18.84,0,.82.43,1.38-.28.22.16.14.37-.1.62.51-.6,1.65-1,1.77-1.66.91.16,2.24-1.19,2.54-.36a4.44,4.44,0,0,1,1.53-1.49c-.75,1.44,2.42-.92,2.54.26.49-1.26,3-1.61,4.37-2.65-.06.1-.18.3-.33.31a5.63,5.63,0,0,1,1.87-.09c-.14-.78,1.2-1.4,1.81-2.1,1.33.37-.39,1.09.18,1.67-.25-.59,1.71-1.21,1.18-1.6,1,.18.79,0,1.41.47-.14-1,.74-.39,1.27-1.17,1.36.11.57.79,1.84.12C771,363.67,769.86,364.35,769.86,364.35Zm32.31-8.73h0l-.68.14Zm2.79-.45c-.35,0-.77.09-1.22.17-.12-.18,0-.39.23-.43C803.84,355.07,804.52,355.07,805,355.17Zm-6.56-2.88c.44-.16.6-.08.68,0-.21.05-.45.11-.76.21l0,.07A.62.62,0,0,1,798.4,352.29Z"/><path class="a" d="M797.73,353.15a.61.61,0,0,1-.18.08,1.74,1.74,0,0,0,.29.07l.13-.2Z"/><path class="a" d="M1009.87,452.79l0-.06a.36.36,0,0,1,0,.15C1009.84,452.83,1009.86,452.82,1009.87,452.79Z"/><polygon class="a" points="843.8 352.04 843.78 351.9 843.55 352.04 843.8 352.04"/><path class="a" d="M1014.54,467.81a.37.37,0,0,0,0,.24S1014.53,467.93,1014.54,467.81Z"/><path class="a" d="M1017.05,474.06l.18.95A6.76,6.76,0,0,0,1017.05,474.06Z"/><path class="a" d="M1018.76,479a.74.74,0,0,0,.26,0h-.26Z"/><path class="a" d="M979.74,407.09l-.14-.14C979.23,406.65,979.46,406.87,979.74,407.09Z"/><path class="a" d="M994.25,426.71a6.57,6.57,0,0,1-.62-.55C993.81,426.56,994,426.86,994.25,426.71Z"/><path class="a" d="M961.42,387.36h0l-.13-.11Z"/><path class="a" d="M993,425.19a2.38,2.38,0,0,0,.59,1A3.32,3.32,0,0,0,993,425.19Z"/><path class="a" d="M1026.55,500l.06.24h.09Z"/><path class="a" d="M1026.7,500.21l.16.24C1026.82,500.33,1026.78,500.23,1026.7,500.21Z"/><path class="a" d="M1027.19,501l-.33-.5C1026.93,500.64,1027,500.88,1027.19,501Z"/><path class="a" d="M1024.44,493.44h-.21A.25.25,0,0,0,1024.44,493.44Z"/><path class="a" d="M1023.64,491.52a6.14,6.14,0,0,0,.41,1.92h.18C1023.82,493.25,1024.13,491.84,1023.64,491.52Z"/><path class="a" d="M1022.85,482.5l.48,1.69c.09-.37.22-.85.55-.12C1023.69,481.77,1023.59,484.67,1022.85,482.5Z"/><path class="a" d="M1021.11,477.34c.45.83.29-.13.42-.13C1021.12,476.73,1021,476.62,1021.11,477.34Z"/><path class="a" d="M1004.86,441.58l.5-.14C1005,440.82,1005.18,441.52,1004.86,441.58Z"/><polygon class="a" points="999.01 436.21 999.06 436.98 999.63 437.05 999.01 436.21"/><polygon class="a" points="1000.07 430.56 1000.29 430.8 999.52 429.84 1000.07 430.56"/><path class="a" d="M959,378.63l-.24.62C959.21,379.48,959.74,379,959,378.63Z"/><path class="a" d="M934.38,363.71a1.53,1.53,0,0,0-1.38-.89A11,11,0,0,0,934.38,363.71Z"/><polygon class="a" points="851.05 346.61 851.62 346.37 850.54 346.59 851.05 346.61"/><path class="a" d="M764.83,350.06c-.08-.16-.35-.45-.37-.33l.37.56Z"/><path class="a" d="M763.56,349.52a3.48,3.48,0,0,0,.82,1.25c-.32-.55-.13-.37-.52-1,0-.12.26.06.4.26-.08-.15.21,0,0-.34-.42-.31-.55-.23-.41.2A1.39,1.39,0,0,1,763.56,349.52Z"/><path class="a" d="M755.86,354.84l.1,0A.2.2,0,0,0,755.86,354.84Z"/><path class="a" d="M751.42,358.58c0-.05,0-.11-.06-.15A.17.17,0,0,0,751.42,358.58Z"/><path class="a" d="M750.2,358.76h.07C750.21,358.73,750.17,358.72,750.2,358.76Z"/><path class="a" d="M755.86,354.84l-.25,0C755.75,355,755.78,354.86,755.86,354.84Z"/><path class="a" d="M763.6,351.56a.33.33,0,0,0-.05-.19.37.37,0,0,1,0,.11Z"/><path class="a" d="M757.4,352.74l0,0-.15-.22Z"/><path class="a" d="M758.81,351.37s.3.44.45.64a.84.84,0,0,1-.18-.36Z"/><path class="a" d="M761.8,350.1V350S761.79,350.06,761.8,350.1Z"/><path class="a" d="M756.27,353.58l-.15-.14A1,1,0,0,0,756.27,353.58Z"/><path class="a" d="M768.68,369.87a.34.34,0,0,0,0,.1C768.69,369.91,768.69,369.87,768.68,369.87Z"/><polygon class="a" points="770.76 372.79 770.73 372.82 770.7 373.13 770.76 372.79"/><path class="a" d="M748.4,359.57h0C748.41,359.49,748.39,359.52,748.4,359.57Z"/><path class="a" d="M735.25,376.84c.82-.61,1.87-.89,2.67-1.56A27,27,0,0,0,735.25,376.84Z"/><path class="a" d="M763.52,351.54l-.06,0S763.52,351.57,763.52,351.54Z"/><path class="a" d="M737.92,375.28h0l.07-.06A.31.31,0,0,1,737.92,375.28Z"/><path class="a" d="M745.77,362.89a1,1,0,0,0,.21.13Z"/><path class="a" d="M748.48,361.13h0Z"/><path class="a" d="M745.28,364.64c-.06,0-.13,0-.11.05l.06,0C745.19,364.66,745.18,364.61,745.28,364.64Z"/><path class="a" d="M744.18,365.92l.1.05,0-.06Z"/><path class="a" d="M763.51,369.93a2.85,2.85,0,0,1,.07.51C763.56,370,763.82,369.9,763.51,369.93Z"/><path class="a" d="M763.4,351.32a.53.53,0,0,1,.12.22l0-.06A.79.79,0,0,0,763.4,351.32Z"/><path class="a" d="M748.58,367.6l-.23.14A.4.4,0,0,0,748.58,367.6Z"/><path class="a" d="M751.35,370.35l0-.08S751.36,370.28,751.35,370.35Z"/><path class="a" d="M747.91,368.38a1,1,0,0,0-.39-.14.39.39,0,0,0,.09.11Z"/><path class="a" d="M763.58,370.45h0Z"/><path class="a" d="M765.4,369.16c-.26,0-.15.72-.22,1.14-.31.2-.12-.55-.21-.93-.2.19-.37.87-.51.83a.85.85,0,0,1,0-.32c-.22.59-.6,0-.85.75a.62.62,0,0,1,0-.18,8.91,8.91,0,0,1,0,1c-.12,0-.23.46-.26,0,.07,0,.08-.18.12-.33l-.13.21c-.09-.7.17-.24.18-.75-.24.22-.52.79-.69.59,0-.68.42-.22.19-.83l.27.26c-.19-1.07.17.08,0-1.07-.37-.2-.42.34-.78.14-.09.37,0,.55-.07.93-.53.68-.39-1.71-.79-.81-.1.45-.14,1.31-.41.86l.1-.77c-.36-.08-.21,1.1-.58.58.07-.3.28-.25.23-.34-.24-.61-.17.43-.36.43l0-.67c-.38.1-.79.6-1.21.73a1.13,1.13,0,0,0,0-.63c-.52.34-1.12-.06-1.65-.45l-.18.59a.48.48,0,0,1,0-.38c-.21-.22,0,.37-.09.61-.11,0-.16-.34-.09-.52-.34.51-1,1.11-1.36.5l.07-.18c-.3-.23-.28,1.21-.57.68l0-.11c-.63-.23-1.29.35-1.81-.51,0,.85-.64-.34-.61.84-.39-.56-.3-.78-.83-1.13-.14-.05-.15.74-.3.88l-.05-.62-.18.66-.17-.72-.15.16a.68.68,0,0,1,.16.45c-.22.3-.62-.38-.65-.7l-.53.57a1.06,1.06,0,0,1,.14-.51c-.25.66-.11-.64-.34,0a1.62,1.62,0,0,1,0,.49.42.42,0,0,0-.7-.16v-.43c-.43-.07-.87.29-1.35.32a1.16,1.16,0,0,1,.09,1l-.12-.65c-.05.41.17.23,0,.74-.18-.06-.19-.72-.11-.95l-.19.25a5,5,0,0,1,0-.55c-.14.42-.23-.63-.24.07V370c-.11,0-.2.24-.34.29a4.09,4.09,0,0,1-.38.94c-.13-.17,0-.63-.08-.57-.25.31-.32.51-.58.88.32-.55.18-.49.5-.89a5.88,5.88,0,0,0-.79.61c-.19.23-.25.32-.44.52s.11-.22.38-.5l.06-.06c-.53.44-.31.05.07-.33s.81-.73-.1-.09l.09-.07q-.5.34-1.08.69c.07-.1.71-.47,1.21-.84-.81.52-.85.49-.77.42s.24-.2-.43.17l.92-.56c.69-.42.51-.32.34-.25s-.26.07.6-.35l-.72.35c-.69.31.42-.22.58-.3-.51.25-.57.28-1,.48s0-.18.47-.38a4.35,4.35,0,0,1,1.2-.39c.12,0-2.54.21-1.29,0,.28,0,.56,0,.85,0-.5,0-.41-.11-.34-.16s.14-.08-.1-.32a3,3,0,0,1,.3.18c.45.21.07,0-.23-.29a3.31,3.31,0,0,1,.46.31c.06,0,.06,0,0,0s0-.14-.05-.21-.08-.27.13-.15a.28.28,0,0,1,.1.18c-.11-.22.34-.31-.15-.59.37,0,.14-.55.53-.49-.38-.51.52-.15-.12-.76.68.61.86.13.64-.27.17.22.31.07.56.37.11-.15.1-.39-.27-.67,1,.45-.19-1.11,1-.33a5.9,5.9,0,0,1,.31-1.88c.65.62-.31.48.4,1.1.05-.61-.32-1.33.16-1.54.18,0,.24.32.32.45.06-.6.7-.62.64-1.27a.49.49,0,0,1,.11.23c0-.08.23-.05-.07-.33l0,.14c-.52-.31-.66-1.1-.88-1.33.75.92.51-.1,1.43,1.09a1,1,0,0,0-.32-.46c.12,0,.25.09.42.37,0-.38-.34-.6-.14-.8a3.82,3.82,0,0,1,.3.42c-.18-.37-.36-.74-.08-.79.08.09.21.18.16.23.23-.33-.26-1.21.32-1.26.52.7.31.09.86.6v-.32L753,361c.16-.14-.1-.66.2-.61l.11.33.18-.38-.36,0c-.12-.43-.68-.66-.34-.71,0,.1.16-.14.54.1h0c-.09-.24-.19-.49.05-.47s.56.61.69.71c-.37-.52.23-.46-.15-1a2.51,2.51,0,0,0,.42.47L754,359c.18.05.25.09.45.33.27-.14-.72-.62-.19-.56,0,0,.07.09.08.18.4-.08.26-.7.66-.73.59.48-.07.32.44.71.24-.41.07-1.31.52-1.48h-.12c-.68-.81.6.16.42-.36a1.43,1.43,0,0,0,.28.38c.34-.08.28-.61.39-1.17l.15.24c.29.06.44-.21.67-.25-.15-.24,0-.28-.35-.53,1.48.74.29-1.38,1.55-.78-.05.05,0,.28.08.25l.17-.49c-.33-.32-.23-.17-.54-.37-.14-.25-.18-.49-.1-.56.05.36.5.55.73.68-.1-.09-.18-.23-.28-.33.72.46-.59-.72,0-.53l.15.2c0-.18-.12-.49,0-.52.39.36.07.27.35.6.12-.14-.39-1,.08-.7,0,.16,0,.24,0,.4.55.35.46.22.63.21h.4l-.18-.07c-.74-1.2.19-.5-.18-1.39.34.85.29.41.67.88.17.08.38.14.47.29-.21-.46.43.14.12-.54.14.14.13-.09.43.31,0-.24-.26-.23-.41-.43-.21-.69,1,.17.78-.79,0-.53-.35-1.07-.3-1.54a1,1,0,0,1,.39.6c.32.1.39,0,.38-.31a1.18,1.18,0,0,0,.39.38c.07-.13-.39-.61-.06-.5a7.51,7.51,0,0,1,.39.68c0-.24-.1-.62-.08-.86.25.23.25.46.35.67a1.08,1.08,0,0,0-.12-1l-.22-.07c0-.07.33.33.35.44.15.42-.3,0-.43-.14v-.17c-.83-.8-.25.45-.48.55l-.46-.7.25.69c-.18-.14-.5-.47-.49-.64-.4-.2.07.33-.34.07a.21.21,0,0,1-.09-.11l0,.3c-.09-.16-.4-.43-.24-.41-.55-.17,0,.8-.47.39v-.05c-.15.49.36.49.58,1.24l-1.14-1,.37.49s-.15,0-.29-.16c.14.43.19.19.37.55-.52-.29-.27.57-.94-.14.25.41.39.14.43.54-.73-.75-.08.3-.54.07-.31-.45,0-.36-.45-.59.51.76-.41.09-.42.33.47.56-.07.46-.11.83-.15-.2-.66,0-1,0l-.08-.1c.45.58.17.65.12.89a1.55,1.55,0,0,1-.42-.7l-.14.12a.63.63,0,0,1,.14.48l-.33-.44c-.16.18.07.8-.41.73.33.4,1.14.9,1.12,1.37-.19-.19-.52-.54-.53-.68,0,0,.08.24,0,.19l-.21-.44c-.25-.06.2.34.09.38-.26-.29-.25-.15-.45-.39,0,0,.18.05.11-.09a.92.92,0,0,1-.65-.23c.16.16.36.39.32.5s-.38-.3-.62-.36c.14.25-.16.14.23.58-.05,0-.24-.15-.37-.25.08.27-.38.45.15.81h0v0h0c.1.7-.85.32-1,.78l-.14-.15c0,.33-.3.47-.13.9,0,0-.37-.15-.51-.34,0,.23.11.41-.31.35-.1-.38-.26-.18,0-.31-.29,0-.54-.15-.36.41-.28-.42-.57-.33-.55-.15l.37.15a.35.35,0,0,1-.26.23l-.42-.52c-.92-.24.32,1.61-.89.9.23.42.42,0,.71.52-.22.09-1.06-.43-1.11-.38-.48-.05.47.89.07.94.19.14.67.57.65.89-.22.1-.89-.51-.93-.74,0-.06.1,0,.15,0a.38.38,0,0,0-.25-.37l.14.19c-.25-.1-.45.14-.67-.19,0,.29.22.33.4.33-.45,0-.33.31-.71.36.13.06.36.23.32.26-.52.1.19.45,0,.74-.38-.14-.57-.65-.57-.23-.3,0-.47-.41-.56-.6.13.51-.57.16-.74.21l0-.24a.24.24,0,0,1-.08.24l.4.28c-.12,0-.17,0-.31-.09.16.28.61.5.8.92-.26-.08-.06.43-.54,0,.4-.11-.48-.41-.34-.7,0,.1,0,.14-.16.15a.25.25,0,0,1-.1-.14c-.64-.15.41.6.15.85-.22-.28-.54-.41-.53-.32.11-.09.48.37.59.65-.36,0,0,.31-.13.38h.19c.22.28.11.32.09.52-.21-.18,0-.24-.17-.28.33.55-.74-.16-.6.31-.25-.08-.49-.45-.68-.49.15.52-.56-.11-.48.36.41.26.33.17.54.64l.07-.58.31.7c.1-.1,0-.43.1-.43.18.37.11.28.44.5-.65-.35.05.56-.46.39L747,362c-.62-.11,0,.85-.48,1l.25,0c.31.36-.13.24-.09.48A2.05,2.05,0,0,0,746,363c.22.19-.24.23.33.78l-.52-.2c-.4.13.57,1,.24,1.21-.25-.36-.57-.43-.64-.8-.08.08-.2.11,0,.29-.23-.11.19.59-.16.42.1.15.41.44.3.51a.77.77,0,0,1-.15-.13c.15.13.07.33.47.53-1.16-.54-.56.79-1.57.34a2.75,2.75,0,0,1-.27.78c-.08-.09-.15-.13-.09-.14-.48,0,.76.86.18.92-.68-.18-.13-.38-.42-.41-.54-.36-.62-.2-.65,0s0,.46-.47.43v-.1c-.61.05,0,.73-.29,1a1,1,0,0,0-.21,0,1.21,1.21,0,0,1,.5,1.09c-.54-.12-.22-.15-.88-.14,0,.14,1,0,1,.28a11.59,11.59,0,0,1-1.57.29l.17-.27c-1,.14-.25.36-.51.5h-.39c-.22.45.85.32.48.73l.36-.1c1,0-.77.31-.08.34l-1.23.34c.16.11.77.24.85.38a2.2,2.2,0,0,1-1.44-.11c-.13.17-.34.56.23.44-.08,0-.32,0-.08-.14.83-.08,1.18-.05,1,.22a4,4,0,0,0-1.86,1,4.78,4.78,0,0,1-1.68,1.2c.28.09,0,.43-.52.89a8.44,8.44,0,0,0-1.28,1.35c1.33-.84,1.29-.78,1.3-.74s0,.07,1.39-.72h.09c.2-.07.19,0,.06,0-.35.29-.67.58-1,.86a10.27,10.27,0,0,1-1.32.73c.32.05-.86.63-1.13,1,.8-.54,1.43-.82,1.42-.65l.68-.65c1-.46.61-.15.29.15s-.61.6.34.15l-.93.51a9.77,9.77,0,0,0,3.36-1.42,3.31,3.31,0,0,1-.84.68,6.55,6.55,0,0,0,1.93-.65c.71-.29,1.24-.51,1.26-.21l-.36.35c.26-.12.82-.67.74-.35-.13.14-.34.34-.28.35s.88-.64.94-.47l-.45.4c.28.16.8-.11,1.27-.45a10.79,10.79,0,0,1,1.27-.9c-.42.94.15,1.16.43,1.27l-.05.13c1,0,1.78-.92,2.49-1.35.5.91,1.16.3,1.75.78a1.14,1.14,0,0,1,0-.78c.14.16.29-.64.34.17l0,0c.16.79.39.56.59.56l-.05-1.05c.63,1.49,1.31-.68,1.69.68.1-.27.26-.28.36-.55l0,.57a1.09,1.09,0,0,0,.95,0l-.07.41c.24,0,.21-1.64.43-1.69l.11.84c.42,0,.88.69,1.26-.1,0,.12,0,.37-.07.41.2,0,.78.54.66-.62,0,.75.43.06.65-.28l0,.55c.17-.72.17-.91.43-1.12.07.07.07.45,0,.31.22.28.15-.54.42-.25l-.09.36c.22,0,.2-.15.31-.57.13-.22.41.13.46.64,0-.31.13-.73.26-.58a.74.74,0,0,1,0,.36c.37.38.53-.66.79-.11a1,1,0,0,0,0,.33c-.29,0-.52,0-.5-.08,0,.52.24.6.07,1.32.18-.4.49-1.24.72-1,0,.05,0,.1,0,.18l0,.05c0,.06.1,0,.14-.08.07.08.12.15.19.15,0,.43.26.23.38.25,0-.56.14-.47,0-.93,0,0,0,.06-.1.09a.08.08,0,0,0-.05.05v0a2.16,2.16,0,0,1-.29,0c.09-.28.18-.52.31-.21.06-.36.13-.73.16-.91.16.78.47,1.21.51,1.69.36-.32.84-.2,1.07-1.26.1-.13.11.3.15.47s-.13.09-.16.24c.2-.27.6-.1.65-.84.25.34-.15.68.2.56l0,.23c.66,1.19,1.16-1.86,1.89-.33a.53.53,0,0,1-.08-.26c.85.69,1.83-.57,2.64.53.24.23.29-.24.45-.59l0,.61.29-.69c.39-.48.54,1.51,1.06.58l0-.41c.16.09.54-.2.48.26,0-.07.08-.42.13-.2v.31l.44-.51c.3.25-.13,1.25.32,1.34a2.14,2.14,0,0,0,.5-1.1c-.07,0-.17-.21-.15-.52l.17-.16a4.88,4.88,0,0,0-.06-2.54l-.31.55-.06-.46h.24c-.11-.43-.21-.07-.32.19a1.56,1.56,0,0,0-.08-.51l-.33.87c0-.36.17-.71,0-.92-.15.4.07.82-.16,1.08-.1-.43,0-.78-.21-.43a.78.78,0,0,1,.1-.49c-.15.28-.37.1-.47.59-.1-.53-.46.11-.4-.77,0,.21-.28.68-.4.71.28-1.05-.47-.09-.35-1.22-.22.94-.63.39-1,.9,0-.07.06-.22.09-.17-.17-.09-.2-.38-.3-.56a4,4,0,0,1-.49,1.43c-.18-.77.16-.92.13-1.65,0,.64-.39.62-.34,1.15a2.15,2.15,0,0,1-.18-.88c-.07,1-.16.16-.31.76-.21-.49,0-.92-.29-.63A.82.82,0,0,1,765.4,369.16Zm-6,1.62h0l.12,0Zm-.51,0a.78.78,0,0,0,.22,0c0,.19,0,.39,0,.38S759,371,758.87,370.8Zm1.09,3.88c-.07.08-.1,0-.11-.14a.33.33,0,0,0,.13-.07v-.07A1.09,1.09,0,0,1,760,374.68Z"/><path class="a" d="M760.1,374s0,0,0-.05l0-.12,0,.18Z"/><path class="a" d="M756,354.86h0l.07.05Z"/><polygon class="a" points="751.89 370.03 751.9 370.17 751.93 370.05 751.89 370.03"/><path class="a" d="M759.29,354.47l.12.09A.41.41,0,0,0,759.29,354.47Z"/><path class="a" d="M760.26,353.8l.25,0A.55.55,0,0,0,760.26,353.8Z"/><path class="a" d="M761.12,353.42l-.15-.2h0Z"/><path class="a" d="M751.25,363.67s0,0,0,0S751.28,363.78,751.25,363.67Z"/><path class="a" d="M753.28,359.73a1.35,1.35,0,0,1,.09.29C753.46,360,753.51,360,753.28,359.73Z"/><polygon class="a" points="748.6 367.59 748.6 367.58 748.58 367.6 748.6 367.59"/><path class="a" d="M753.23,360.15c.13,0,.16,0,.14-.13S753.21,360,753.23,360.15Z"/><path class="a" d="M764.25,351.09h0a.23.23,0,0,1,0-.07Z"/><path class="a" d="M764.25,351v-.09S764.21,351,764.25,351Z"/><path class="a" d="M764.23,350.75v.17S764.31,350.89,764.23,350.75Z"/><path class="a" d="M763.17,351.65l.12.17A1.44,1.44,0,0,0,763.17,351.65Z"/><path class="a" d="M762.93,351.93c.1,0,.45.19.46,0l-.1-.13C763.44,352.09,762.77,351.62,762.93,351.93Z"/><path class="a" d="M760.14,351l.34-.08c-.18-.13-.42-.3-.35-.43C759.41,350.25,760.5,350.8,760.14,351Z"/><path class="a" d="M759.22,351.38c0-.18-.21-.23-.29-.33C759,351.27,759,351.32,759.22,351.38Z"/><path class="a" d="M754.1,356l-.34-.39C753.71,355.76,753.89,355.76,754.1,356Z"/><polygon class="a" points="754.97 358.81 755.27 358.96 754.99 358.58 754.97 358.81"/><polygon class="a" points="751.88 356.73 751.87 356.64 751.85 356.92 751.88 356.73"/><path class="a" d="M744,365.37l.5.38C744.47,365.61,743.94,365.14,744,365.37Z"/><path class="a" d="M740.39,370.94c-.5.14-.92.37-.54.38C740,371.17,740.45,371,740.39,370.94Z"/><polygon class="a" points="750.96 375.17 750.88 375.39 751.04 375.2 750.96 375.17"/><path class="a" d="M1031,507c0,.18.29.48.39.32l-.27-.61Z"/><path class="a" d="M1032.6,507.41A2.17,2.17,0,0,0,1032,506c.18.64,0,.44.23,1.19-.1.15-.36,0-.48-.24,0,.17-.3,0-.14.41.47.3.71.18.72-.33C1032.5,507.12,1032.54,507.3,1032.6,507.41Z"/><path class="a" d="M1047.58,501.57l-.12-.05A.13.13,0,0,0,1047.58,501.57Z"/><path class="a" d="M1057.3,500.45a.16.16,0,0,0-.11.15C1057.26,500.55,1057.32,500.51,1057.3,500.45Z"/><path class="a" d="M1059,501.15a.2.2,0,0,0-.09,0C1058.89,501.16,1058.93,501.19,1059,501.15Z"/><path class="a" d="M1047.58,501.57l.3.14C1047.85,501.5,1047.71,501.59,1047.58,501.57Z"/><path class="a" d="M1033.68,504.86a.33.33,0,0,0,0,.23.64.64,0,0,1,.08-.14Z"/><path class="a" d="M1043.64,503.44l-.07,0a1.48,1.48,0,0,0,0,.27Z"/><path class="a" d="M1040.64,504.81c.08,0-.14-.53-.21-.77.06.23,0,.36,0,.42A3.6,3.6,0,0,0,1040.64,504.81Z"/><path class="a" d="M1035.5,506.41l0,.11S1035.49,506.45,1035.5,506.41Z"/><path class="a" d="M1045.89,502.74l.09.18A.51.51,0,0,0,1045.89,502.74Z"/><path class="a" d="M1102.72,558.69h-.1C1102.67,558.7,1102.71,558.72,1102.72,558.69Z"/><path class="a" d="M1099.32,562.16l0-.06L1099,562Z"/><path class="a" d="M1061.88,502h0C1061.78,502,1061.83,502,1061.88,502Z"/><path class="a" d="M1085,514c.17-.57.83,0,.93-.76C1085.81,513.41,1085,513.49,1085,514Z"/><path class="a" d="M1033.79,504.87l.12-.08A.19.19,0,0,0,1033.79,504.87Z"/><path class="a" d="M1085.94,513.24h0v0Z"/><path class="a" d="M1068.62,502.87a2.07,2.07,0,0,0,0-.25A.5.5,0,0,0,1068.62,502.87Z"/><path class="a" d="M1063.74,501.09l.12.09A.19.19,0,0,0,1063.74,501.09Z"/><path class="a" d="M1071.4,502.9c0,.06,0,.14.16.1a.16.16,0,0,0,0-.07C1071.5,503,1071.45,503,1071.4,502.9Z"/><path class="a" d="M1074,503.91a.56.56,0,0,0,0-.13h-.09Z"/><path class="a" d="M1103.24,549.5a1.74,1.74,0,0,1-.51.13C1103.13,549.59,1103.27,550,1103.24,549.5Z"/><path class="a" d="M1033.84,505.13a.36.36,0,0,1,0-.26l-.07.08A.56.56,0,0,0,1033.84,505.13Z"/><path class="a" d="M1073,498.75l.44.25A1.33,1.33,0,0,0,1073,498.75Z"/><path class="a" d="M1099.36,528.13l.11.08C1099.46,528.16,1099.43,528.13,1099.36,528.13Z"/><path class="a" d="M1074.82,499.43a1,1,0,0,0,.11.47l.11-.11Z"/><path class="a" d="M1102.73,549.64h0Z"/><path class="a" d="M1103.93,552.87c0-.46-.71-.27-1.12-.39-.16-.55.56-.22,1-.38-.17-.36-.81-.65-.79-.9a.44.44,0,0,1,.32,0c-.58-.38,0-1.08-.76-1.51a.49.49,0,0,1,.19-.05,4.56,4.56,0,0,1-1,0c0-.2-.46-.38,0-.45,0,.12.18.14.33.2l-.21-.22c.7-.18.24.3.76.3-.23-.42-.8-.9-.6-1.22.68-.06.22.75.83.32l-.26.5c1.07-.37-.08.3,1.07,0,.2-.66-.34-.74-.14-1.4-.38-.14-.56.06-.94-.08-.67-.9,1.72-.78.81-1.44-.47-.16-1.33-.19-.92-.69l.78.13c0-.64-1.13-.3-.66-1,.31.1.29.48.37.38.57-.47-.46-.28-.48-.61l.67-.11c-.16-.67-.71-1.37-.89-2.1.2,0,.43.13.62-.07a4.65,4.65,0,0,1,.06-3l-.64-.25c0-.08.23-.2.36-.13.16-.39-.37,0-.62-.08-.08-.19.28-.33.48-.23-.6-.54-1.32-1.55-.91-2.32l.2.08c.11-.55-1.31-.28-.9-.87l.13.06c0-1.14-.82-2.19-.26-3.25-.85.1,0-1.17-1.14-.86.34-.79.6-.69.67-1.68,0-.25-.81-.08-1-.32l.57-.23-.73-.14.61-.47-.26-.2c0,.11-.16.32-.34.37-.43-.29,0-1.14.26-1.27l-.89-.74c.23-.08.38,0,.58.1-.8-.25.55-.35-.18-.58-.1.12-.35.11-.47.15a1.08,1.08,0,0,0-.3-1.23l.41-.11c-.22-.76-.93-1.36-1.32-2.13,0,.37-.71.65-.89.47l.53-.4c-.43,0-.1.35-.69.29-.08-.32.55-.55.83-.48l-.38-.24c.15-.11.29-.08.52-.18-.43,0,.25-.92-.48-.78l.16-.12a14.47,14.47,0,0,0-1.23-1.55c-.49.29-.52,0-1,.05a4.56,4.56,0,0,0-.41-1.75c-.49-.19-.47.17-.86.2.4-.32,0-.79.5-.74a4.92,4.92,0,0,0-1.51-1.23c-.11.21-.12.35-.3.41-.16-.09,0-.44.17-.56h.06c-1.18-.4-.28-2.82-1.64-2.83h.08l-1-.32c-.18-.37.44-.06.5-.5-1.24-.17-.86-1.19-1.79-1.4.75-1.45-1.46-1.5-1.31-2.72l-.22.28c-.4.09,0-.32-.07-.49-.19.2-.08.38-.31.42-1.49-1-2.12-2.93-3.16-4.41-.4-.52-1.55,1.06-1.54-.11l.63-.31a2.72,2.72,0,0,1-.94-.44,9.12,9.12,0,0,0-1.22-.88,3.81,3.81,0,0,0-2-.81c.14-.09.24-.27.36-.2,0-.56-.94-.5-1.12-.15-.16-.14.12-.34.09-.58s-.91.23-.84-.26c0-.08.14-.11.2-.12-.27.13-.77-.4-.83.17-.36-.44-1-.15-1.22-.61-.46.46-.69-.59-1.08.2.36-.83-.57-1-1-.69.2-.22-.16-.36.08-.68-.35-.11-.71-.07-.8.4-.31-1.24-1.52.46-1.48-1-.59.09-1.13.13-1.66.17s-1,.09-1.51.1c.22-.88,1,.13,1.22-.8-1,.17-1.65.82-2.47.42-.21-.17.19-.36.3-.49-1,.15-1.73-.34-2.59,0,0-.09.11-.17.2-.22-.16,0-.35-.18-.38.23l.16-.09c.17.62-.77,1.15-.82,1.46.39-1.13-.74-.39-.17-1.82a.63.63,0,0,0-.27.52c-.14-.1-.17-.27,0-.56-.58.15-.42.62-.93.58,0-.2.13-.27.2-.5-.29.38-.58.75-1,.56,0-.11,0-.27.12-.26-.76,0-1.3,1-2.09.56.25-.85-.27-.29-.31-1-.15.07-.3.14-.44.22l.18.36c-.39,0-.71.56-1,.33l.27-.32-.71.18.41.26c-.36.41.07,1-.43.76.1-.08-.37,0-.59-.42h0c-.17.25-.34.51-.63.33a8.8,8.8,0,0,1,0-1c-.15.63-.88.22-1.05.89a1.27,1.27,0,0,0,0-.62l-.1.51c-.19-.15-.22-.22-.23-.53-.53,0,.26.91-.39.6,0-.05,0-.12.1-.21-.65-.12-1.15.49-1.75.33-.28-.72.47-.25.19-.85-.83.26-1.58,1.13-2.39,1.1a.58.58,0,0,1,.16.05c.1,1-.69-.37-1,.22a.9.9,0,0,0,0-.49c-.57,0-1,.53-1.76,1.06l0-.29c-.38-.15-.86.08-1.24,0,0,.28-.23.29,0,.64-.75-.63-1.17-.22-1.57.17s-.74.82-1.41.38c.1,0,.17-.32.09-.29l-.68.52c.22.41.2.22.48.5a.68.68,0,0,1-.32.64c.23-.41-.27-.69-.51-.88.07.12.08.29.15.42-.7-.62.27.89-.47.57l-.06-.24c-.16.19-.22.56-.46.57-.3-.46.12-.31,0-.72-.3.13-.2,1.17-.67.82.06-.2.24-.29.31-.49-.54-.43-.51-.27-.77-.25h0l-.62,0,.2.1c.21,1.45-.65.6-.75,1.66.1-1-.14-.49-.36-1.05-.2-.09-.48-.16-.5-.34,0,.55-.57-.15-.58.65-.11-.17-.27.11-.43-.36-.24.29.22.27.31.5-.16.83-1.51-.18-1.74,1-.37.67-.14,1.3-.48,1.9-.33-.17-.22-.7-.22-.7-.42-.08-.6.1-.75.45,0-.18-.16-.27-.35-.4-.19.17.22.69-.2.61a3.27,3.27,0,0,1-.2-.79c-.16.31-.21.77-.37,1.07-.25-.24-.12-.53-.15-.77-.21.31-.59.73-.38,1.23l.28.05c-.09.09-.3-.36-.28-.49,0-.51.46-.06.58.1l-.12.21c.8.85.63-.6,1-.78l.28.81v-.82c.2.13.49.5.37.72.47.19.08-.4.54-.14a.11.11,0,0,1,.06.13l.13-.37c0,.18.33.48.12.47.69.14.42-1,.9-.55l0,.07c.49-.63-.25-.59-.1-1.48l1.06,1.16-.23-.57a.27.27,0,0,1,.33.19c0-.49-.17-.21-.21-.63.59.33.79-.68,1.31.15-.09-.47-.48-.16-.27-.63.57.89.33-.36.84-.07.14.53-.26.41.24.7-.21-.91.67-.11.84-.39-.29-.66.42-.54.74-1,0,.12.28.11.57.09a5.35,5.35,0,0,1,.91,0l0,.12c-.2-.71.28-.74.53-1a1.06,1.06,0,0,1,.06.84l.29-.1a.56.56,0,0,1,.18-.54l.12.54c.37-.17.55-.89,1.16-.73-.13-.49-.87-1.2-.44-1.72.11.25.28.7.18.85,0-.05.09-.27.22-.2l-.07.52c.3.11,0-.41.19-.43.13.37.23.21.3.52,0,.05-.21-.1-.23.08a.86.86,0,0,1,.71.38c-.08-.21-.16-.51,0-.61.38-.17.28.4.56.51,0-.28.34-.07.18-.64.12,0,.22.23.31.37.12-.3.92-.31.52-.85l-.06,0,0,0h0c.52-.74,1.48,0,2.08-.45l0,.19c.35-.31.85-.37,1.06-.83.12,0,.35.32.34.55.28-.19.28-.41.78-.16-.25.39.16.29-.27.3.43.11.57.41.91-.19-.07.52.39.59.56.41l-.33-.32a1,1,0,0,1,.59-.07v.67c.88.7,1.3-1.63,2.06-.28.17-.47-.48-.3-.33-.85.39.07.85,1,1,1,.52.34.41-1,1-.77-.08-.23-.18-.86.23-1.11.39.07.5,1,.27,1.18-.09,0-.14-.05-.14-.13-.12.09-.27.2-.11.45l0-.24c.19.23.7.18.59.58.28-.25.12-.4-.1-.51.49.32.75-.05,1.25.22-.08-.14-.15-.42-.07-.41.72.32.33-.44.83-.52.27.37-.13.86.38.58.29.25,0,.63-.09.82.47-.44.82.33,1.06.43l-.24.18a.51.51,0,0,1,.37-.1l-.1-.48c.13.09.25.1.23.3.17-.31,0-.8.26-1.21.17.25.6-.24.6.41-.56-.26,0,.63-.48.7a.26.26,0,0,1,.34,0,.17.17,0,0,1-.07.16c.49.63.31-.67.89-.58-.11.34,0,.68.15.62-.22,0,0-.6.2-.85.34.33.43-.15.62-.09l-.2-.16c.12-.34.3-.27.58-.35,0,.28-.27.16-.19.29.38-.58.56.73,1,.36.14.27-.09.66,0,.85.52-.38.38.57.9.29,0-.5-.08-.39.33-.77l-.82.16.62-.57c-.24-.06-.55.19-.67.08.3-.34.26-.22.22-.64.19.77.71-.27,1,.28l-.25,1.16c.43.63,1.1-.39,1.74.05l-.18-.25c.21-.44.46,0,.73-.08a1.43,1.43,0,0,0,0,.83c.06-.29.49.17.77-.57l.17.59c.49.36,1-.89,1.49-.6-.3.36-.14.7-.6.88.18.06.32.18.41-.08,0,.27.66-.32.7.09.13-.14.29-.52.49-.41a.58.58,0,0,1-.07.18c.07-.18.41-.13.38-.61a.92.92,0,0,0,.85.9c.39.1.78.21.8.79a5.65,5.65,0,0,1,1.3.26c-.07.09-.09.17-.13.1.3.56.77-.88,1.13-.24,0,.71-.44.17-.37.47-.52,1.2.72.15.71,1l-.12,0c0,.53.86-.08,1.25.25a.55.55,0,0,0-.11.16,1.67,1.67,0,0,1,.93-.26,1.43,1.43,0,0,1,.73.13c-.47.26-.31.08-.62.49.18.08.52-.65.93-.45a2.28,2.28,0,0,1-.38,1.12l-.32-.27c-.35.66.4.36.47.6l-.24.2c.53.37,1.08-.19,1.53.33l.12-.22c.81-.29-.09.53.58.39l-.47.64a5.33,5.33,0,0,1,1.56.27,4.49,4.49,0,0,1-1.64.11c.17.17.62.54,1,.35-.12,0-.35,0-.33-.12a1.31,1.31,0,0,1,1.48.2c-1.15,1,.6,1.18,0,2.25,1,.23,1,1.37,1.69,2.06.66-1.06.21.19,1.09-.67.21.13.25.21.21.27l-.1,1c-.16.35-.34,0-.54.21.26.43-.25.49-.28.95.28-.34.59-.28.64,0l.17-.66c1,.11-.38,1.11.54,1.24l-.43.07c.4.14.81,1,1.8.7-.07.14-.28.41-.45.34.43.74,2,.88,1.89,1.79l-.28.12c.17.08.62-.1.49.24-.1.06-.28.12-.25.19s.67,0,.65.31l-.38.05c.16.89,1.43.57,2,1.07a1.41,1.41,0,0,0-.58,1.54l-.11,0c.4.87,1.51,1,2.21,1.64-.57,1,.54,1.85.48,2.87.07-.19.63-.28.77-.17-.08.27.78.27,0,.58l0-.07c-.65.48-.29.78-.18,1.09l1-.38c-1.07,1.41,1.48,1.9.32,2.88.32.1.4.35.72.46l-.54.18a3,3,0,0,0,.45,1.53h-.44c.1.38,1.73,0,1.89.34l-.78.35c.21.69-.34,1.58.58,2.06-.13,0-.37.06-.43,0,.06.33-.24,1.38.86,1-.74.18.13.72.52,1l-.55.06c.75.17.94.15,1.21.57,0,.12-.42.17-.31,0-.22.42.57.19.35.68l-.38-.1c0,.38.2.31.65.45.26.2,0,.73-.51.86.31,0,.75.14.64.38a.49.49,0,0,1-.38,0c-.28.67.82.83.31,1.33a.7.7,0,0,0-.32.11,4.29,4.29,0,0,1,0-.86c-.51.07-.53.47-1.28.26.45.25,1.33.7,1.11,1.12l-.17.07-.06,0c0,.1,0,.17.1.24a.69.69,0,0,0-.13.33c-.41.09-.19.48-.19.67.56-.06.49.21.93-.07,0,0-.07,0-.1-.17s0-.06-.07-.08h0l-.08-.49c.3.13.55.27.26.52.37.07.75.16.93.21-.76.34-1.14.9-1.62,1,.35.59.35,1.4,1.39,1.76.13.17-.31.21-.47.28-.11-.1-.09-.22-.24-.27.26.34.09,1,.83,1.11-.33.44-.68-.24-.56.36l-.22-.08c-1.19,1.16,1.87,2,.34,3.26.11-.08.14-.13.27-.14-.79,1.46.35,3.18-.83,4.56-.25.4.22.5.55.8l-.62,0,.62.53c.4.7-1.65.86-.82,1.79l.41,0c-.12.27.09.94-.36.82.07,0,.4.16.17.24l-.31,0,.41.79c-.31.5-1.21-.31-1.4.46.07.31.76,1,1,.94a.49.49,0,0,1,.56-.21l.12.3c.9.24,1.8.65,2.55.09l-.48-.59.47-.07,0,.41c.46-.14.11-.36-.11-.57a.82.82,0,0,0,.52-.11l-.8-.63c.37,0,.68.34.93.06-.37-.29-.84.07-1-.34.46-.16.79,0,.48-.36a.52.52,0,0,1,.47.21c-.25-.29,0-.66-.49-.86.56-.15,0-.82.87-.66-.2-.11-.61-.53-.61-.75,1,.55.19-.81,1.3-.56-.87-.41-.29-1.14-.77-1.73.08,0,.22.11.17.15.1-.29.4-.34.59-.52-.77-.12-.91-.6-1.37-.9.78-.29.9.31,1.63.26-.63,0-.58-.69-1.11-.61.49-.25.24-.23.9-.32-1-.13-.14-.28-.72-.55.52-.37.93,0,.67-.51C1103.62,552.44,1103.93,552.87,1103.93,552.87Zm-1.87-10.69h0l0,.21Zm-.09-.88c0,.11,0,.24,0,.38-.19.06-.39.05-.39,0S1101.83,541.45,1102,541.3Zm-3.72,2.23c-.09-.12,0-.18.13-.2a1.13,1.13,0,0,0,.09.22h.07A1.23,1.23,0,0,1,1098.25,543.53Z"/><path class="a" d="M1099,543.7l0,0,.12-.09-.18,0Z"/><path class="a" d="M1047.43,501.52h0s0,0-.06-.06S1047.42,501.5,1047.43,501.52Z"/><polygon class="a" points="1099.99 528.97 1099.85 529.02 1100 529.05 1099.99 528.97"/><path class="a" d="M1042.29,501.21a.43.43,0,0,0-.12-.11A.68.68,0,0,0,1042.29,501.21Z"/><path class="a" d="M1040.28,501.89l-.35-.06A1.19,1.19,0,0,0,1040.28,501.89Z"/><path class="a" d="M1038.7,502.35a1.49,1.49,0,0,0,.08.23h0Z"/><path class="a" d="M1064.13,497.35l.07,0C1064.36,497.24,1064.25,497.27,1064.13,497.35Z"/><path class="a" d="M1056.31,498.36a1.74,1.74,0,0,1,.24-.28C1056.41,498.05,1056.3,498,1056.31,498.36Z"/><polygon class="a" points="1072.92 498.72 1072.92 498.73 1072.97 498.75 1072.92 498.72"/><path class="a" d="M1056.91,498.07a.27.27,0,0,0-.36,0C1056.66,498.11,1056.8,498.17,1056.91,498.07Z"/><path class="a" d="M1032.41,505.58l-.08,0,0,.09Z"/><path class="a" d="M1032.37,505.69l0,.1A.07.07,0,0,0,1032.37,505.69Z"/><path class="a" d="M1032.25,506l.08-.21S1032.2,505.85,1032.25,506Z"/><path class="a" d="M1034.38,504.67l-.08-.19A.77.77,0,0,0,1034.38,504.67Z"/><path class="a" d="M1034.91,504.27c-.16,0-.56-.17-.68.06l.07.15C1034.23,504.16,1035,504.64,1034.91,504.27Z"/><path class="a" d="M1038.47,505.21l-.55.09c.18.15.43.35.24.5C1039.05,506.09,1037.81,505.43,1038.47,505.21Z"/><path class="a" d="M1040.06,504.78c-.2.21.14.28.18.4C1040.32,504.92,1040.33,504.86,1040.06,504.78Z"/><path class="a" d="M1051.08,501.1l.07.51C1051.35,501.51,1051.12,501.41,1051.08,501.1Z"/><polygon class="a" points="1052.94 498.15 1052.68 497.87 1052.63 498.35 1052.94 498.15"/><path class="a" d="M1054.68,501.58l-.08.08a2.66,2.66,0,0,1,.33-.21Z"/><path class="a" d="M1073.37,504.17l.18-.61C1073.37,503.61,1073.08,504.25,1073.37,504.17Z"/><path class="a" d="M1080.4,507.9c-.15.29-.12.6.2.49C1080.49,508.22,1080.53,507.91,1080.4,507.9Z"/><polygon class="a" points="1094.42 528.75 1094.16 528.69 1094.45 528.9 1094.42 528.75"/><path class="a" d="M1110.74,529.46c-.16-.06-.55-.11-.49,0l.64.18Z"/><path class="a" d="M1109.43,529.89a3.54,3.54,0,0,0,1.44.41c-.61-.21-.34-.19-1.07-.44-.06-.1.24-.12.48-.07-.16-.06.17-.12-.24-.24-.52,0-.57.19-.18.42A1.43,1.43,0,0,1,1109.43,529.89Z"/><path class="a" d="M1106.68,538.79l.09,0A.1.1,0,0,0,1106.68,538.79Z"/><path class="a" d="M1105,544.25a.17.17,0,0,0-.13-.09C1104.92,544.21,1105,544.25,1105,544.25Z"/><path class="a" d="M1104.05,545l.06,0C1104.05,545,1104,545,1104.05,545Z"/><path class="a" d="M1106.68,538.79l-.24.1C1106.65,539,1106.62,538.85,1106.68,538.79Z"/><path class="a" d="M1110.79,531.43a.55.55,0,0,0-.16-.12l.06.09Z"/><path class="a" d="M1106.67,536.22v-.05l-.26-.09Z"/><path class="a" d="M1106.94,534.3a4,4,0,0,0,.76.23c-.23-.07-.33-.12-.36-.17Z"/><path class="a" d="M1108.47,531.46l-.07-.06Z"/><path class="a" d="M1106.28,537.54l-.2,0Z"/><path class="a" d="M1084.66,538.58l.08-.05S1084.65,538.57,1084.66,538.58Z"/><polygon class="a" points="1085.72 535.17 1085.77 535.18 1086.03 535.01 1085.72 535.17"/><path class="a" d="M1102.89,546.51h0C1102.85,546.45,1102.86,546.47,1102.89,546.51Z"/><path class="a" d="M1099.91,556.36c0,1.33-.07,1.46,0,3C1099.9,558.79,1099.94,557.25,1099.91,556.36Z"/><path class="a" d="M1110.71,531.46a.19.19,0,0,1,0,.08A.08.08,0,0,0,1110.71,531.46Z"/><path class="a" d="M1099.89,559.33h0v.15A.86.86,0,0,1,1099.89,559.33Z"/><path class="a" d="M1102,550.49l.25,0A1.2,1.2,0,0,0,1102,550.49Z"/><path class="a" d="M1103.7,547.83l-.09,0Z"/><path class="a" d="M1102.31,552.23c-.06,0-.14,0-.08.09h.07C1102.23,552.28,1102.2,552.24,1102.31,552.23Z"/><path class="a" d="M1101.77,553.78h.12v-.06Z"/><path class="a" d="M1087.56,542.63a3.17,3.17,0,0,1,.39-.32C1087.62,542.54,1087.37,542.41,1087.56,542.63Z"/><path class="a" d="M1110.48,531.37a.69.69,0,0,1,.23.09s0,0,0-.06Z"/><path class="a" d="M1106.48,553.71l-.16.23A.48.48,0,0,0,1106.48,553.71Z"/><path class="a" d="M1093.25,552.89l-.09,0S1093.18,552.9,1093.25,552.89Z"/><path class="a" d="M1106.13,554.73a1,1,0,0,0-.41,0l.12.08Z"/><path class="a" d="M1088,542.3h0Z"/><path class="a" d="M1085.92,541.55c.12.22.67-.28,1.06-.47.34.14-.39.41-.65.7.26.05.91-.19,1-.06a.78.78,0,0,1-.27.17c.6-.14.33.48,1.08.29a.79.79,0,0,1-.15.12c.3-.22.62-.42.85-.56.07.09.51-.06.12.23,0-.07-.2,0-.34.08h.24c-.54.45-.29,0-.73.25.31.08,1,0,.87.26-.56.38-.41-.23-.8.28l.08-.36c-.81.73,0-.18-.91.58,0,.4.51.15.52.56.36-.13.46-.31.83-.44.84.09-1.27,1.22-.3,1.07.43-.15,1.19-.55.94-.09l-.71.31c.11.33,1.05-.39.79.18-.29.1-.36-.1-.41,0-.41.5.46-.08.55.08l-.57.37c.27.26.9.37,1.21.66a1.06,1.06,0,0,0-.54.31c.55.27.45,1,.34,1.61l.6-.12s-.19.2-.31.21c-.11.28.33-.17.58-.2.08.08-.23.29-.42.31.6.06,1.4.35,1,1l-.18,0c-.08.35,1.21-.29.85.2H1092c.06.65.84,1,.26,1.82.79-.31-.07.7,1,.2-.37.57-.6.58-.74,1.19,0,.14.75-.16.93-.07l-.55.28.68-.09-.61.43.2.06c0-.07.2-.23.36-.3.35.09-.14.7-.42.84l.71.28a1.09,1.09,0,0,1-.52.05c.69,0-.56.33.07.32a1.63,1.63,0,0,1,.46-.18.41.41,0,0,0,.09.7l-.4.14c.07.42.55.7.74,1.12.11-.23.79-.51.91-.41l-.57.32c.41-.09.17-.23.69-.28,0,.19-.62.42-.86.42l.3.09c-.18.1-.29.09-.52.19.37-.17-.36.79.35.65l-.16.12a16.26,16.26,0,0,0,.94,1.5c.44-.4.44-.09.85-.3a5.2,5.2,0,0,0,.21,1.94c.34.07.35-.41.62-.62-.31.59,0,1.07-.38,1.22.32.55.43.75,1,.92a2.69,2.69,0,0,1,.17-.82c.09,0,0,.61-.1,1l0,0c.35-.16.38.87.49,2s.27,2.27.55,1.56l0,.07a2.45,2.45,0,0,0,.42-.43c.13.53-.15.63-.1,1.57.25-.51.37-.15.49.31s.25,1,.39.63c0,.57.06,1,.1,1.4.13.67.34-.12.52-.73s.35-1.18.57-.63l-.08-.71c0-.9.13.21.21.23a4.25,4.25,0,0,1-.13-1,3.73,3.73,0,0,1,1-2.05,8.8,8.8,0,0,0,1.41-1.44c.34-.56-.9-2.6-.11-2.29l.31,1a5,5,0,0,1,.52-2.22,3.62,3.62,0,0,0,.48-1.95c.11.15.28.27.23.38.52,0,.38-1,0-1.1.11-.16.34.1.57.06a.2.2,0,0,0,.11-.21.55.55,0,0,0-.12-.19c-.09-.13-.16-.24.08-.2.08,0,.13.1.16.13-.19-.17.22-.42-.34-.52.35-.17-.06-.57.33-.67-.54-.34.43-.35-.38-.68.85.32.85-.22.5-.52.24.14.32,0,.65.13.06-.19,0-.41-.49-.53,1.14,0-.61-1,.78-.73a6.53,6.53,0,0,1-.48-1.9c.86.29-.08.59.82.85-.19-.59-.86-1.1-.5-1.51.15-.09.35.19.48.27-.21-.59.37-.9,0-1.47a.65.65,0,0,1,.21.16c0-.09.18-.16-.22-.26l.09.11c-.61,0-1.1-.68-1.4-.78,1.09.47.4-.34,1.77.29a1,1,0,0,0-.5-.26c.1-.06.26,0,.54.13-.13-.36-.58-.38-.49-.65a3.28,3.28,0,0,1,.46.23c-.33-.25-.66-.49-.44-.68.12,0,.27.07.25.13.06-.41-.81-.94-.33-1.28.8.35.31-.08,1,.09l-.15-.29h-.38c.07-.2-.41-.52-.13-.63l.26.23,0-.42-.34.14c-.31-.3-.92-.21-.64-.43,0,.07.06-.2.51-.2h0c-.2-.16-.42-.33-.2-.43s.79.23,1,.25c-.58-.26,0-.53-.66-.82a2.7,2.7,0,0,0,.6.19l-.47-.21a.75.75,0,0,1,.56,0c.16-.26-.94-.14-.46-.38,0,0,.11,0,.17.12.29-.29-.15-.74.17-1,.75.08.11.32.75.36,0-.49-.65-1.15-.38-1.55l-.1.06c-1-.29.59-.21.15-.54a1.58,1.58,0,0,0,.45.16c.24-.26-.12-.67-.35-1.2l.26.11c.27-.12.24-.43.4-.6-.25-.11-.19-.21-.59-.23,1.65-.27-.58-1.3.8-1.56,0,.06.2.2.21.15l-.15-.5a1.76,1.76,0,0,0-.66,0c-.26-.11-.44-.27-.42-.38.26.26.73.14,1,.1-.14,0-.29-.07-.43-.09.85-.07-.91-.22-.3-.43l.24.06c-.1-.14-.39-.31-.3-.43.53,0,.22.18.65.27,0-.19-.93-.55-.37-.61.13.1.11.21.24.32.65-.06.5-.11.62-.23h0l.33-.25-.18,0c-1.32-.49-.16-.51-1-1,.79.46.48.14,1.07.28a1,1,0,0,1,.55-.07c-.45-.23.43-.17-.24-.5.2,0,.05-.16.53,0-.12-.22-.34,0-.58-.08-.61-.41.92-.54.09-1.12-.3-.43-.94-.61-1.2-1a1,1,0,0,1,.68.22c.32-.13.29-.28.1-.49a1.27,1.27,0,0,0,.53,0c0-.15-.68-.22-.37-.35a6.71,6.71,0,0,1,.75.27c-.15-.19-.48-.41-.63-.61a1.37,1.37,0,0,1,.7.29,1.06,1.06,0,0,0-.74-.69l-.21.08c0-.07.46,0,.55.11.39.24-.22.21-.42.18l-.1-.14c-1.15-.07.1.51,0,.74l-.8-.24.64.36c-.22,0-.69,0-.79-.16-.43.1.27.2-.21.27a.18.18,0,0,1-.14,0l.21.22c-.16-.07-.58-.08-.44-.16-.53.22.52.59-.12.59l0,0c.2.47.59.15,1.24.59l-1.52-.06.59.15s-.09.12-.32.06c.38.23.26,0,.63.18-.58.11.16.62-.81.49.44.16.39-.13.67.15-1-.13.12.28-.38.38-.52-.15-.21-.28-.72-.18.88.28-.27.33-.12.52.71.14.23.4.41.71-.23-.06-.48.43-.79.62l-.12,0c.71.19.52.42.64.64a1.68,1.68,0,0,1-.77-.3l0,.17a.63.63,0,0,1,.39.3l-.53-.16c0,.24.54.6.12.82.5.13,1.44,0,1.72.44a2.37,2.37,0,0,1-.84-.23s.21.14.08.17l-.43-.22c-.23.09.37.15.3.25-.38-.08-.29,0-.59-.06,0,0,.17-.06,0-.13a.84.84,0,0,1-.65.19c.22,0,.52.11.55.21s-.49,0-.71.08c.25.11-.06.2.52.32,0,.07-.29,0-.45,0,.23.17,0,.57.59.57l0,0,0,0h0c.49.52-.5.75-.34,1.19l-.2,0c.17.28,0,.54.39.8,0,.07-.39.08-.61,0,.1.21.31.28-.06.46-.3-.25-.31,0-.21-.24-.22.19-.53.17-.07.54-.47-.2-.66,0-.53.17l.38-.07a.34.34,0,0,1-.09.33l-.63-.21c-.9.27,1.13,1.16-.28,1.19.43.24.38-.17.89.07-.14.2-1.13.19-1.14.25-.44.2.87.52.55.76.24,0,.86.14,1,.43-.15.19-1,0-1.19-.17,0-.06.08-.06.15,0a.37.37,0,0,0-.41-.19l.23.09c-.27,0-.32.34-.68.18a.35.35,0,0,0,.51.07c-.4.19-.12.43-.42.65.14,0,.42,0,.4.07-.39.33.39.29.42.6-.39.07-.82-.28-.6.08-.29.11-.62-.13-.79-.25.37.38-.42.4-.54.52l-.15-.18a.21.21,0,0,1,0,.24l.48.05c-.1,0-.12.12-.31.07.28.16.78.15,1.14.42-.26,0,.16.39-.46.26.3-.27-.61-.14-.63-.44.05.07,0,.13-.07.19a.27.27,0,0,1-.15-.08c-.63.16.64.34.54.67-.33-.14-.67-.11-.61,0,0-.13.58.1.81.3-.33.13.13.28.07.39l.16-.09c.33.14.26.23.32.41-.27-.07-.15-.19-.28-.17.55.34-.73.18-.39.53-.27,0-.65-.18-.83-.14.36.39-.55.13-.26.51.48.06.37,0,.76.34l-.19-.54.58.49c0-.14-.21-.37-.1-.43.33.25.22.2.62.25-.74,0,.29.49-.24.55l-1.13-.35c-.59.16.41.74,0,1l.24-.06c.43.19,0,.27.12.46a2.13,2.13,0,0,0-.79-.12c.28.08-.12.29.62.57l-.56,0c-.3.26,1,.72.72,1-.38-.23-.69-.18-.91-.48,0,.1-.14.17.12.26-.25,0,.4.46,0,.43.15.1.53.25.46.36a.58.58,0,0,1-.18-.07c.18.07.18.28.63.31-1.27-.07-.23.94-1.32.87a2.16,2.16,0,0,1,0,.8c-.1-.05-.18-.06-.13-.09-.45.16,1,.58.52.7-.63-.15-.27-.26-.52-.29-.61-.24-.58-.2-.5-.09s.21.3-.13.13l-.06-.07c-.39-.22.35.49.2.6l-.15-.16a2.52,2.52,0,0,1,.57,1.49,3.7,3.7,0,0,0-.52-.85c0,.15.58.81.6,1.16a3.93,3.93,0,0,1-.76-1l0-.15c-.48-.73,0,.16-.14.09l-.19-.38c0,.25.46,1.3.32,1.47l.14.31c.33,1.28-.27-.53-.05.48l-.39-1.18a11.71,11.71,0,0,1,.2,2c-.18-1.14-.24-1.79-.37-2.41,0,0,0,.27.08,1,0-.16-.08-.52,0-.34a5.13,5.13,0,0,1,.17,2c-.25-1.45-.32-1.53-.38-1.54s-.12.1-.26-1.15c0,.69,0,.67-.09.46s-.09-.56-.12-.4c0,.78,0,1.15,0,1.34a1.26,1.26,0,0,1,0,.24s0,0,0,.2v1.41s0,0,0-.22c0-.68-.05-1.34-.06-2,0-.87,0-.59.05-1.25,0-.29,0-1.26,0-2,0,1-.06,1.42-.05,1l0,1.33c-.06.67,0,0,0-.53s.06-1.13,0-.49l.08-.79c-.06.44,0,0-.31,1.71,0-.27.13-.88.16-1s-.1.24-.22.48-.23.34-.11-.15l.14-.41c0,.11-.29.73-.16.28a3.31,3.31,0,0,0,.16-.42c0,.14-.3.61-.23.35l.2-.39c.08-.29,0-.06-.24.18s-.45.52-.57.51a7,7,0,0,0,.83-1.34l.1-.09c0-.2-.7.22-1.15.07.76-.63-.1-1.18.16-1.88a1.09,1.09,0,0,1-.75.23c.11-.19-.7,0,0-.38v0c.67-.42.37-.57.3-.76l-1,.42c1.16-1.14-1.1-1,0-1.87-.29,0-.36-.14-.66-.14l.51-.24a1.12,1.12,0,0,0-.36-.91l.4-.1c-.07-.24-1.6.45-1.73.27l.72-.45c-.21-.38.25-1.11-.62-1.14.11,0,.33-.15.39-.1-.07-.2.14-1-.85-.36.66-.36-.15-.43-.55-.48l.51-.23c-.72.16-.9.25-1.2.1,0-.09.37-.26.28-.12.16-.33-.54.1-.41-.27l.36-.08c-.07-.22-.23-.11-.65,0-.26,0-.08-.44.35-.71-.29.12-.71.22-.64,0a.72.72,0,0,1,.34-.13c.15-.51-.83-.17-.48-.66a1.49,1.49,0,0,0,.27-.2c.14.26.22.49.18.49.45-.25.41-.51,1.12-.68-.43,0-1.33.14-1.23-.18a.6.6,0,0,1,.14-.12h.06c0-.08,0-.09-.15-.09s.07-.18,0-.25c.36-.23.06-.35,0-.47-.48.29-.48.11-.81.47,0,0,.07,0,.13,0s0,0,.07,0l0,0,.18.24c-.3.06-.55.09-.35-.18l-.87.31c.6-.53.81-1,1.21-1.3-.46-.16-.62-.64-1.65-.3-.17,0,.2-.25.33-.37s.14.06.29,0c-.34,0-.41-.47-1.07-.13.16-.4.66-.23.38-.47l.21-.08c.64-1.22-2.2,0-1.32-1.45a.51.51,0,0,1-.17.22c.09-1.11-1.5-1.21-1.09-2.52,0-.33-.37-.09-.75,0l.48-.38-.73.17c-.63,0,.89-1.36-.17-1.21l-.31.27c0-.18-.49-.3-.09-.54-.07,0-.38.19-.24,0l.26-.18-.68,0c0-.39,1.07-.66.86-1.08a2,2,0,0,0-1.18.28c0,.07-.06.26-.32.44l-.22,0a5,5,0,0,0-2,1.63l.62-.1-.33.32-.14-.17c-.28.34.07.2.33.13a1.57,1.57,0,0,0-.35.37l.89-.28c-.29.23-.67.31-.74.56.41-.13.62-.55,1-.53-.28.34-.58.5-.2.42a.87.87,0,0,1-.45.22c.31,0,.29.22.74,0-.36.39.37.29-.38.77.2-.08.71-.19.81-.11-1,.4.19.42-.79,1,.89-.38.68.26,1.28.22-.07,0-.22.09-.19,0,0,.18-.19.37-.28.56a3.62,3.62,0,0,1,1.43-.43c-.52.57-.84.39-1.41.83.53-.35.72,0,1.13-.39a2.35,2.35,0,0,1-.63.65c.84-.5.22,0,.79-.18-.29.44-.74.54-.36.58A.82.82,0,0,1,1085.92,541.55Zm4.42,4.1h0l-.09-.09Zm.25.42a.56.56,0,0,0-.08-.2c.16-.11.34-.19.36-.14S1090.7,545.92,1090.59,546.07Zm2.87-2.84c.11,0,0,.11-.07.18a.36.36,0,0,0-.13-.09l-.06,0Z"/><path class="a" d="M1092.75,543.47h0l-.09.1.17-.06Z"/><path class="a" d="M1106.78,538.74h0Z"/><polygon class="a" points="1092.76 552.52 1092.89 552.46 1092.76 552.48 1092.76 552.52"/><path class="a" d="M1109.23,536.46h0Z"/><path class="a" d="M1109.58,535.32l.23-.12A.88.88,0,0,0,1109.58,535.32Z"/><path class="a" d="M1110,534.48l-.24-.06h0Z"/><path class="a" d="M1107.33,548.82a.06.06,0,0,0,0,0C1107.42,549,1107.4,548.91,1107.33,548.82Z"/><path class="a" d="M1107.2,544.29a1.65,1.65,0,0,1,.23.2C1107.49,544.43,1107.51,544.37,1107.2,544.29Z"/><path class="a" d="M1106.5,553.69h0a0,0,0,0,1,0,0Z"/><path class="a" d="M1107.37,544.68c.12,0,.12-.11.06-.19S1107.3,544.6,1107.37,544.68Z"/><path class="a" d="M1111,530.63l0,0-.08,0Z"/><path class="a" d="M1110.92,530.57l-.06-.06S1110.86,530.55,1110.92,530.57Z"/><path class="a" d="M1110.74,530.39l.12.12S1110.89,530.44,1110.74,530.39Z"/><path class="a" d="M1110.52,531.78l.19.05Z"/><path class="a" d="M1110.51,532.15c.06-.08.47-.14.36-.28l-.16,0C1111,531.94,1110.18,532,1110.51,532.15Z"/><path class="a" d="M1107.76,533.2l.21-.27c-.22,0-.52,0-.55-.11C1106.72,533.07,1107.92,532.82,1107.76,533.2Z"/><path class="a" d="M1107.28,534.07c-.07-.18-.32-.06-.43-.09C1107,534.12,1107.07,534.15,1107.28,534.07Z"/><path class="a" d="M1105.88,540.71l-.49-.13C1105.43,540.72,1105.58,540.63,1105.88,540.71Z"/><polygon class="a" points="1108.15 542.6 1108.49 542.55 1108.05 542.38 1108.15 542.6"/><polygon class="a" points="1104.43 542.48 1104.37 542.41 1104.5 542.65 1104.43 542.48"/><path class="a" d="M1101.4,553.34l.61.17C1101.93,553.4,1101.26,553.15,1101.4,553.34Z"/><path class="a" d="M1100.86,556.61c-.18-.41-.3-.67-.16-.17C1100.74,556.46,1100.89,556.76,1100.86,556.61Z"/><polygon class="a" points="1097.88 551.5 1098.12 551.5 1097.87 551.4 1097.88 551.5"/></svg>