<svg xmlns="http://www.w3.org/2000/svg" viewBox="0 0 1920 803"><defs><style>.a{fill:#5fc4c2;}.b{fill:#004543;}</style></defs><path class="a" d="M1112.45,661.59c.17,0,.56,0,.48-.06l-.66-.06Z"/><path class="a" d="M1113.67,661.07a4.09,4.09,0,0,0-1.5-.12c.64.08.38.1,1.13.2.08.08-.21.14-.45.12.17,0-.15.12.27.17.51-.1.53-.24.11-.37A2.15,2.15,0,0,1,1113.67,661.07Z"/><path class="a" d="M1113.92,653.15l-.06.06S1113.92,653.17,1113.92,653.15Z"/><path class="a" d="M1113.34,648.26s.09,0,.15,0A.16.16,0,0,0,1113.34,648.26Z"/><path class="a" d="M1113.87,647.28a.33.33,0,0,0,0,.06C1113.89,647.31,1113.92,647.28,1113.87,647.28Z"/><path class="a" d="M1113.92,653.15l.19-.17C1113.89,653,1114,653.07,1113.92,653.15Z"/><path class="a" d="M1112.05,660.06a.34.34,0,0,0,.18.06l-.08-.06Z"/><path class="a" d="M1114.78,655.21v0h.27Z"/><path class="a" d="M1115.08,656.87a4.4,4.4,0,0,0-.78,0,1,1,0,0,1,.39,0Z"/><path class="a" d="M1114.31,659.6l.08,0Z"/><path class="a" d="M1114.73,654l.19,0Z"/><path class="a" d="M1094.2,612.86l.09,0C1094.23,612.83,1094.2,612.85,1094.2,612.86Z"/><polygon class="a" points="1095.94 609.97 1095.98 609.98 1096.27 609.86 1095.94 609.97"/><path class="a" d="M1114.22,645.61h0C1114.28,645.65,1114.26,645.63,1114.22,645.61Z"/><path class="a" d="M1109.25,632.15c-.39.35-.7,0-1.1.48C1108.34,632.52,1109,632.47,1109.25,632.15Z"/><path class="a" d="M1112.12,660a.15.15,0,0,1,0-.07A.06.06,0,0,0,1112.12,660Z"/><path class="a" d="M1108.15,632.63h0l0,0Z"/><path class="a" d="M1113,642.24a1.3,1.3,0,0,0-.23.1A1.57,1.57,0,0,0,1113,642.24Z"/><path class="a" d="M1112.89,645l.06-.09S1112.89,645,1112.89,645Z"/><path class="a" d="M1111.84,641.13s.11-.08,0-.1l-.06,0C1111.88,641.06,1111.92,641.07,1111.84,641.13Z"/><path class="a" d="M1111.43,639.76l-.1.06,0,0Z"/><path class="a" d="M1096.28,616.65l.43-.28C1096.36,616.57,1096.14,616.44,1096.28,616.65Z"/><path class="a" d="M1112.37,660.05a.55.55,0,0,1-.25,0l0,0Z"/><path class="a" d="M1107.57,642.33l0-.23A.37.37,0,0,0,1107.57,642.33Z"/><path class="a" d="M1100.92,625.67l-.09,0S1100.85,625.69,1100.92,625.67Z"/><path class="a" d="M1107.33,641.51a.9.9,0,0,0,.33-.23l-.14,0Z"/><path class="a" d="M1096.72,616.37h0Z"/><path class="a" d="M1094.87,615.61c.07.2.69-.22,1.1-.36.29.14-.44.34-.75.58.25.06.91-.12.94,0a1,1,0,0,1-.29.14c.61-.1.25.44,1,.3l-.15.1a8.83,8.83,0,0,1,.89-.47c.06.08.5,0,.08.2,0-.06-.19,0-.33.07h.23c-.59.39-.28,0-.74.21.29.08.9,0,.79.25-.59.33-.36-.21-.81.23l.13-.32c-.89.63,0-.16-1,.49,0,.36.46.15.41.52.37-.11.49-.27.86-.37.8.09-1.38,1.06-.43,1,.45-.13,1.23-.48.92-.08l-.72.27c.07.3,1.07-.33.74.17-.29.09-.33-.09-.39,0-.46.45.45-.07.52.07l-.6.33c.24.24.84.33,1.1.59a1.2,1.2,0,0,0-.55.28c.5.24.35.87.18,1.44l.59-.12s-.2.18-.32.19c-.13.25.33-.16.58-.19.08.07-.25.26-.43.29.57,0,1.33.26.91.81l-.18,0c-.11.32,1.19-.31.8.14h-.11c0,.58.75.84.14,1.6.79-.32-.1.62,1,.12-.39.52-.61.55-.77,1.1,0,.12.73-.19.9-.13l-.55.29.66-.13-.61.42.2,0a.81.81,0,0,1,.36-.29c.34,0-.16.63-.44.78l.68.18a1.23,1.23,0,0,1-.5.09c.67-.06-.56.34.06.28a2.62,2.62,0,0,1,.45-.21c-.28.28-.17.51.06.61l-.39.16c.06.37.52.57.69.92a1.36,1.36,0,0,1,.9-.45l-.56.34c.39-.11.16-.22.67-.3,0,.16-.62.42-.84.44l.28.06c-.17.09-.28.1-.51.21.4-.12-.44.57.23.34l-.16.1c.17.35.45.41.62.68.51-.25.45-.08.9-.2-.06.29-.34.72-.17,1,.34.06.45-.16.79-.23-.45.24-.28.48-.68.51a1.48,1.48,0,0,0,.85.54c.16-.13.22-.22.39-.27s-.11.25-.34.35h-.06c.9.11-.87,1.64.26,1.53h-.06l.67.12c0,.2-.39.06-.62.32,1,0,.16.66.82.74-1.26.86.49.83-.25,1.54l.32-.16c.35-.05-.15.19-.19.28.25-.11.25-.22.45-.24.72.56.14,1.71.14,2.56,0,.3,1.78-.51,1.12.14l-.66.14c.94.28.4,1.13,1.21,1.46-.15,0-.34.08-.36,0-.41.27.12.44.5.31,0,.1-.33.14-.5.25s.67.1.24.31a.35.35,0,0,1-.2,0c.25,0,.06.36.56.12-.18.29.37.33.1.59.63-.07-.17.45.68.23-.87.25-.59.58-.14.59-.28,0-.24.2-.62.25.06.15.26.25.7.09-1,.58,1,.33-.29.87a4.76,4.76,0,0,1,1.35,1c-.88.22-.21-.43-1.12-.17.46.3,1.27.33,1.16.77-.09.13-.39,0-.55.05.47.3.12.78.68,1a.52.52,0,0,1-.25,0c0,.07-.09.2.31.09l-.13,0c.55-.26,1.28,0,1.58-.09-1.17.17-.19.42-1.68.59a1,1,0,0,0,.55,0c-.06.09-.21.15-.53.16.27.19.68,0,.72.23-.19,0-.28,0-.51,0,.4,0,.81.05.69.28-.12,0-.26.07-.27,0,.13.32,1.14.33.85.78-.86.08-.25.18-1,.37l.26.14.33-.16c0,.18.59.21.39.41l-.33-.06.21.29.24-.24c.41.09.91-.23.76,0-.08,0,0,.17-.38.35h0c.25,0,.51.07.36.24s-.81.15-1,.2c.63-.05.26.36.93.33a3,3,0,0,0-.62.11l.51,0a.85.85,0,0,1-.52.19c0,.26.91-.26.57.1,0,0-.12,0-.2,0-.15.33.42.49.23.8-.72.23-.23-.19-.83,0,.2.35,1,.61.93,1l.07-.08c1-.14-.47.37.06.46a1.76,1.76,0,0,0-.47,0c-.13.28.34.46.74.79h-.28c-.21.18-.07.41-.17.59.28,0,.25.1.63,0-1.46.73,1,.82-.25,1.45,0,0-.25-.09-.25,0l.3.34c.46-.09.27-.09.62-.22s.5.09.51.19c-.32-.13-.73.1-1,.2.14,0,.3,0,.44,0-.79.3.93-.09.41.26h-.24c.14.09.47.14.41.26-.52.11-.26-.08-.69,0,.05.14,1,.18.52.38-.15-.05-.17-.14-.32-.19-.61.23-.45.22-.53.34h0l-.25.29.16-.09c1.4,0,.29.36,1.23.53-.89-.17-.5,0-1.11,0a1.08,1.08,0,0,1-.51.18c.5.07-.36.23.36.34-.19,0,0,.13-.49.14.16.14.33-.06.57-.07.69.18-.76.62.19.89.39.28,1,.29,1.39.56a1.26,1.26,0,0,1-.72,0c-.28.17-.22.28,0,.41a1.31,1.31,0,0,0-.53.07c.06.11.72,0,.44.21a7.08,7.08,0,0,1-.79-.09c.18.13.56.25.73.38a1.75,1.75,0,0,1-.74-.11,1.12,1.12,0,0,0,.85.43l.19-.1s-.46,0-.56,0c-.42-.12.19-.19.38-.2l.13.09c1.15-.13-.19-.4-.14-.6l.84.06-.7-.18a1.36,1.36,0,0,1,.8,0c.41-.17-.3-.12.15-.27a.25.25,0,0,1,.15,0l-.26-.13c.18,0,.59-.06.47,0,.47-.29-.64-.39,0-.52h.06c-.31-.34-.61,0-1.35-.21l1.49-.29h-.61s.05-.12.3-.12c-.43-.11-.26,0-.66,0,.54-.22-.3-.46.66-.59-.46,0-.34.2-.68,0,1-.15-.19-.2.27-.41.54,0,.27.18.73,0-.92,0,.17-.34,0-.46-.73.07-.34-.27-.6-.47.24,0,.35-.48.58-.73h.12c-.74,0-.63-.19-.8-.33a1.73,1.73,0,0,1,.82,0l0-.16a.64.64,0,0,1-.46-.12l.55,0c-.06-.2-.69-.31-.37-.63-.51.06-1.38.41-1.76.2a2.33,2.33,0,0,1,.86-.08s-.24-.05-.13-.11l.48,0c.18-.15-.4,0-.37-.11.39,0,.27-.11.58-.14,0,0-.15.1,0,.12a1,1,0,0,1,.56-.37c-.22,0-.53.08-.59,0s.46-.14.64-.29c-.28,0,0-.18-.6-.09,0-.06.26-.12.42-.16-.28-.07-.15-.48-.76-.26l0,0h0c-.64-.24.21-.76-.1-1l.19,0c-.25-.16-.21-.42-.65-.49,0-.06.33-.2.56-.22-.17-.13-.39-.1-.12-.38.37.09.29-.11.28.11.13-.23.43-.34-.14-.45.51,0,.6-.27.43-.34l-.33.21c-.09-.09-.06-.19,0-.3l.66-.08c.72-.57-1.5-.46-.24-1-.47,0-.27.29-.82.3,0-.2.94-.6.93-.66.3-.33-1,0-.81-.35-.23.08-.84.25-1.1.1,0-.2.92-.44,1.13-.37,0,0,0,.08-.12.1a.43.43,0,0,0,.45,0l-.23,0c.21-.14.13-.39.52-.42a.39.39,0,0,0-.49.16c.28-.32-.07-.38.1-.68-.12.07-.39.17-.39.13.2-.43-.48-.06-.63-.28.32-.22.85-.15.5-.32a1,1,0,0,1,.8-.16c-.49-.12.2-.49.25-.64l.21.07c-.13,0-.14-.1-.15-.16l-.44.18c.06-.09,0-.15.24-.2a8.31,8.31,0,0,1-1.2.2c.21-.15-.32-.22.28-.4-.13.34.61-.18.77,0q-.13,0,0-.18a.25.25,0,0,1,.17,0c.48-.41-.73,0-.78-.25.35-.05.63-.23.55-.26s-.56.2-.86.16c.23-.25-.25-.15-.24-.25l-.1.14c-.35.05-.33-.06-.47-.16.27-.08.22.07.32,0-.64,0,.55-.48.09-.58.21-.15.64-.18.78-.3-.51-.1.41-.36,0-.5a1,1,0,0,1-.83.12l.43.3-.74-.07c0,.12.36.17.3.26a.85.85,0,0,0-.66.12c.65-.34-.48-.21-.07-.51l1.15-.3c.43-.41-.72-.34-.53-.77l-.17.17c-.46.08-.12-.2-.34-.27a2.19,2.19,0,0,0,.73-.32c-.28.09,0-.27-.82-.09l.46-.3c.12-.35-1.18,0-1.13-.33.44,0,.67-.24,1-.14,0-.09,0-.2-.24-.12.22-.13-.59-.11-.25-.3-.18,0-.58.12-.58,0l.19,0c-.19,0-.3-.09-.69.13,1.09-.64-.33-.76.61-1.32a1.83,1.83,0,0,1-.48-.54c.11,0,.18-.06.16,0,.26-.37-1.13.2-.84-.21.56-.35.38,0,.58-.13,1.22-.45-.28-.28.37-.72l.09,0c.36-.29-.58-.2-.59-.47a.71.71,0,0,0,.19-.06,1.75,1.75,0,0,1-1.26-.33c.5-.11.29,0,.76-.21-.11-.08-.77.31-1,.16a4,4,0,0,1,.92-.61l.1.19c.63-.35-.12-.24,0-.39l.3-.1c-.21-.26-.94,0-1-.31l-.21.12c-.79.11.35-.31-.26-.26l.72-.35a4.2,4.2,0,0,1-1.09-.25,4.85,4.85,0,0,1,1.35,0,.48.48,0,0,0-.6-.27c.09,0,.29,0,.2.09-.63.1-1,0-1.06-.19,1.43-.55.11-.72,1.14-1.34-.69-.17-.12-.88-.4-1.3-1,.65-.09-.12-1.2.41-.12-.07-.12-.12,0-.16l.52-.62c.29-.22.29,0,.54-.13,0-.27.43-.31.65-.6-.38.21-.61.18-.51,0l-.43.42c-.74,0,.8-.71.07-.77l.39-.06c-.28-.07-.27-.62-1.24-.35.11-.09.4-.28.51-.24-.05-.46-1.36-.42-1-1l.28-.1c-.11,0-.56.12-.34-.1.12-.05.29-.11.28-.15s-.56,0-.45-.13l.34-.07c.16-.55-1-.22-1.36-.44.79-.39.9-.82,1-1l.11,0c-.12-.49-1-.42-1.54-.66.73-.68-.07-1,.2-1.68a1.28,1.28,0,0,1-.73.28c.11-.18-.68,0,0-.34v0c.67-.43.39-.53.33-.69l-1,.46c1.16-1.1-1-.77.08-1.62-.29,0-.34-.09-.63-.06l.51-.26a.82.82,0,0,0-.3-.75l.4-.12c-.06-.2-1.57.52-1.69.36l.73-.43c-.18-.32.32-1-.53-.94.12,0,.34-.16.39-.12,0-.16.22-.84-.79-.26.67-.34-.1-.36-.48-.38l.51-.23c-.71.18-.89.26-1.17.15,0-.08.38-.24.28-.11.18-.3-.53.11-.36-.22l.35-.09c0-.18-.21-.08-.62,0-.26,0,0-.37.4-.62-.29.11-.7.21-.62,0a.87.87,0,0,1,.35-.12c.2-.45-.79-.12-.39-.56a1.1,1.1,0,0,0,.28-.18c.1.23.16.42.11.42.46-.23.45-.45,1.16-.63-.42,0-1.29.17-1.16-.11l.15-.1h.06c0-.06,0-.08-.13-.07s.08-.16.06-.21c.37-.21.11-.31.08-.41-.5.26-.47.1-.83.42,0,0,.06,0,.11,0h0a1.51,1.51,0,0,1,.14.21c-.29.05-.54.09-.31-.15l-.87.28c.64-.47.9-.89,1.32-1.14-.42-.13-.5-.54-1.53-.24-.16,0,.22-.23.36-.33s.13.06.27,0c-.31,0-.31-.41-1-.13.2-.34.66-.19.42-.4l.22-.06c.81-1-2.11,0-1-1.28a.63.63,0,0,1-.21.18c.29-.95-1.21-1.11-.56-2.22.1-.27-.33-.09-.71-.06l.53-.29-.73.09c-.59-.06,1.13-1.1.09-1.05l-.35.22c0-.16-.4-.31,0-.48-.07,0-.41.13-.24,0l.29-.14-.63-.09c.09-.33,1.16-.47,1-.85a2.19,2.19,0,0,0-1.18.14c0,.06-.11.21-.4.35L1096,610a5.76,5.76,0,0,0-2.23,1.22l.62,0-.39.26-.1-.17c-.34.28,0,.19.29.15a1.5,1.5,0,0,0-.41.29l.9-.16c-.32.18-.7.21-.82.43.42-.08.71-.43,1-.38-.34.27-.66.38-.28.35a1,1,0,0,1-.48.15c.31,0,.24.23.71.08-.43.32.28.29-.52.65a1.54,1.54,0,0,1,.79,0c-1,.27.1.39-.94.81.92-.26.6.29,1.18.3-.07,0-.22.06-.19,0,0,.16-.25.32-.38.48a4.09,4.09,0,0,1,1.47-.29c-.61.47-.88.29-1.52.65.58-.28.71,0,1.16-.28a2.82,2.82,0,0,1-.71.54c.89-.39.2.05.79-.11-.36.38-.81.44-.45.5A.94.94,0,0,1,1094.87,615.61Zm3.72,3.76h0l-.07-.08Zm.2.37a.47.47,0,0,0-.07-.17c.17-.1.36-.17.37-.13S1098.9,619.61,1098.79,619.74Zm3.09-2.53c.1,0,0,.09-.09.15l-.11-.07-.07,0Z"/><path class="a" d="M1101.16,617.44h0l-.1.09.17-.06Z"/><path class="a" d="M1113.84,653.22h0l-.08,0Z"/><polygon class="a" points="1100.46 625.38 1100.58 625.32 1100.45 625.34 1100.46 625.38"/><path class="a" d="M1112.27,655.77l-.14.05A.3.3,0,0,0,1112.27,655.77Z"/><path class="a" d="M1112.27,656.75l-.19.16A.68.68,0,0,0,1112.27,656.75Z"/><path class="a" d="M1112.07,657.52h0Z"/><path class="a" d="M1109.26,646l0,0C1109.1,645.91,1109.16,646,1109.26,646Z"/><path class="a" d="M1111.35,649.14l-.28,0C1111,649.16,1111,649.21,1111.35,649.14Z"/><path class="a" d="M1107.57,642.36h0v0Z"/><path class="a" d="M1111,648.92c-.1.09-.06.14,0,.17S1111.13,649,1111,648.92Z"/><path class="a" d="M1112,660.71l0,0h.09Z"/><path class="a" d="M1112.08,660.74l.07,0S1112.15,660.75,1112.08,660.74Z"/><path class="a" d="M1112.29,660.86l-.14-.08S1112.13,660.85,1112.29,660.86Z"/><path class="a" d="M1112.24,659.74h0Z"/><path class="a" d="M1112.17,659.45c0,.07-.43.19-.29.28h.16C1111.73,659.71,1112.52,659.49,1112.17,659.45Z"/><path class="a" d="M1114.59,658l-.14.27c.21-.06.5-.15.56,0C1115.63,657.85,1114.53,658.35,1114.59,658Z"/><path class="a" d="M1114.83,657.15c.11.14.31,0,.43,0C1115.06,657.05,1115,657,1114.83,657.15Z"/><path class="a" d="M1114,651.35l.5-.08C1114.38,651.17,1114.28,651.3,1114,651.35Z"/><polygon class="a" points="1111.16 650.77 1110.87 650.93 1111.34 650.89 1111.16 650.77"/><polygon class="a" points="1114.6 649.4 1114.68 649.43 1114.46 649.29 1114.6 649.4"/><path class="a" d="M1112,639.86l-.6.22C1111.51,640.11,1112.19,639.92,1112,639.86Z"/><path class="a" d="M1109.94,636c.28-.15.42-.34.11-.3C1110,635.81,1109.85,636,1109.94,636Z"/><polygon class="a" points="1105.46 624.06 1105.68 624.04 1105.45 623.98 1105.46 624.06"/><path class="a" d="M1118.09,639.75c.17,0,.51-.23.4-.29l-.63.23Z"/><path class="a" d="M1118.88,638.6a3.19,3.19,0,0,0-1.42.5c.63-.18.4,0,1.14-.26.11.06-.11.26-.34.35.17,0-.06.2.34.07.4-.34.34-.5-.12-.48A1.55,1.55,0,0,1,1118.88,638.6Z"/><path class="a" d="M1115,629.25l0,.09A.12.12,0,0,0,1115,629.25Z"/><path class="a" d="M1111.92,623.76s.11,0,.16,0S1112,623.72,1111.92,623.76Z"/><path class="a" d="M1111.89,622.46a.16.16,0,0,0,0,.07S1111.94,622.44,1111.89,622.46Z"/><path class="a" d="M1115,629.25l.09-.25C1114.93,629.1,1115,629.15,1115,629.25Z"/><path class="a" d="M1116.84,638.08h.2l-.1,0Z"/><path class="a" d="M1116.88,631.38l0,0,.26-.09Z"/><path class="a" d="M1118,633.2c0-.06-.51.19-.73.29a.91.91,0,0,1,.39-.09Z"/><path class="a" d="M1118.67,636.63l.09,0Z"/><path class="a" d="M1116.22,630l.17-.11Z"/><path class="a" d="M1095.44,640.17l-.09,0C1095.4,640.16,1095.43,640.18,1095.44,640.17Z"/><polygon class="a" points="1091.97 641.49 1091.95 641.44 1091.66 641.32 1091.97 641.49"/><path class="a" d="M1111.27,620.41v0C1111.35,620.43,1111.32,620.41,1111.27,620.41Z"/><path class="a" d="M1094.05,605c.74,1.19.27,1,1.19,2.41A15.27,15.27,0,0,0,1094.05,605Z"/><path class="a" d="M1116.88,638a.3.3,0,0,1,0-.08S1116.85,638,1116.88,638Z"/><path class="a" d="M1095.24,607.37h0l.08.13Z"/><path class="a" d="M1108.06,617a1.15,1.15,0,0,0-.15.2A1.1,1.1,0,0,0,1108.06,617Z"/><path class="a" d="M1109.64,620.19v-.12A.17.17,0,0,0,1109.64,620.19Z"/><path class="a" d="M1106.27,616.24c0-.06,0-.12,0-.12l0,.06C1106.25,616.15,1106.3,616.14,1106.27,616.24Z"/><path class="a" d="M1105,614.92l0,.1.06,0Z"/><path class="a" d="M1096.94,634.71a3,3,0,0,1-.51-.05C1096.82,634.74,1096.89,635,1096.94,634.71Z"/><path class="a" d="M1117.12,637.93a.46.46,0,0,1-.24.07l.06,0A.94.94,0,0,0,1117.12,637.93Z"/><path class="a" d="M1103,619.22l-.12-.26A.45.45,0,0,0,1103,619.22Z"/><path class="a" d="M1099.06,621.45l.06.07S1099.12,621.47,1099.06,621.45Z"/><path class="a" d="M1102.23,618.44a1.13,1.13,0,0,0,.17-.38l-.13.08Z"/><path class="a" d="M1096.43,634.66Z"/><path class="a" d="M1097.14,636.91c.1-.26-.65-.34-1-.53-.09-.38.57,0,1,0-.12-.26-.73-.61-.66-.75a.65.65,0,0,1,.31.08c-.5-.38.16-.64-.48-1.09a.58.58,0,0,1,.19,0,9.44,9.44,0,0,1-1-.25c0-.12-.38-.35.09-.26,0,.07.16.13.29.21l-.16-.19c.7.08.18.24.67.38-.15-.31-.61-.75-.37-.88.67.14.09.5.75.41l-.34.22c1.1.07-.12.16,1,.27.3-.34-.21-.53.09-.87-.35-.19-.55-.12-.89-.3-.52-.72,1.76,0,1-.64-.41-.22-1.23-.47-.72-.65l.72.29c.17-.37-1-.48-.42-.76.28.14.18.36.28.33.65-.12-.38-.29-.34-.49l.67.12c0-.44-.39-1-.41-1.46a1.05,1.05,0,0,0,.61.12c-.21-.64.31-1.21.82-1.7l-.54-.31s.28,0,.38,0c.26-.18-.37-.07-.58-.21,0-.13.36-.11.52,0-.43-.47-.89-1.25-.21-1.57l.16.1c.28-.28-1.14-.51-.56-.73l.09.07c.33-.65-.12-1.45.81-1.89-.83-.18.43-.66-.74-.79.61-.35.81-.22,1.24-.75.07-.15-.71-.27-.83-.46l.62,0-.64-.28.74-.09-.15-.18a.67.67,0,0,1-.46.11c-.27-.28.45-.63.77-.63l-.5-.65a1,1,0,0,1,.49.22c-.62-.36.65-.05.08-.38a1.6,1.6,0,0,1-.49,0,.48.48,0,0,0,.22-.76l.43.06c.11-.48-.2-1-.2-1.53-.19.19-.93.16-1,0l.65-.08c-.41-.09-.24.17-.74,0,.07-.19.73-.14,1,0l-.23-.24c.19,0,.29,0,.54.05-.4-.09.64-.43-.06-.56l.19,0a.86.86,0,0,0,0-.17h0l-.08,0a.26.26,0,0,1-.14-.1,3.46,3.46,0,0,1-.91-.37c.18-.08.62.06.57-.05-.29-.27-.49-.35-.84-.64.53.35.47.21.86.56a7.71,7.71,0,0,0-.58-.87c-.22-.22-.31-.28-.5-.49s.22.12.48.42l.06.07c-.42-.59,0-.33.32.08s.69.9.09-.1l.06.1c-.22-.37-.43-.76-.65-1.19.09.08.44.78.8,1.34-.51-.92-.47-.94-.4-.85s.14.18-.1-.35c.9,1.72.86,1.65.82,1.48s-.1-.42.26.51l-.25-.68c-.22-.65.16.41.22.56l-.34-1c0-.31.21.07.36.48a2.82,2.82,0,0,1,.19,1.11c0,.09.34-2.18.28-1.09-.07.23-.14.47-.2.71.14-.41.24-.31.29-.24a.15.15,0,0,0,.1.09h.06a.35.35,0,0,0,.14.06.88.88,0,0,0,.33.06c-.13.08-.27.22-.32.17-.22.46.4.41.68.14,0,.11-.23.27-.32.46s.72-.17.44.24c0,.06-.14.07-.19.08.24-.09.3.38.62-.08,0,.39.55.21.47.6.55-.33.12.55.78,0-.66.62-.18.85.25.7-.24.14-.11.3-.43.51.14.14.39.16.71-.18-.55,1,1.15,0,.26,1.06a5.53,5.53,0,0,1,1.89.61c-.7.56-.46-.41-1.16.23.61.15,1.4-.12,1.56.41,0,.18-.35.19-.5.25.63.16.56.83,1.23.88a.45.45,0,0,1-.25.07c.08.06,0,.25.34,0h-.14c.37-.48,1.2-.48,1.46-.66-1,.6,0,.54-1.28,1.25a.92.92,0,0,0,.51-.23c0,.11-.12.23-.42.35.37.12.65-.23.82,0a3.93,3.93,0,0,1-.46.23c.4-.11.8-.22.81.08-.1.06-.21.17-.25.11.3.31,1.26,0,1.24.58-.78.4-.13.3-.72.76l.33.07.23-.29c.12.18.68,0,.59.33l-.35,0,.35.26.1-.35c.44,0,.76-.57.76-.2-.1,0,.12.19-.18.54h0c.26,0,.53-.09.47.15s-.7.44-.81.55c.57-.26.44.33,1.07.08a2,2,0,0,0-.54.32l.47-.21c-.08.18-.13.23-.4.39.09.32.73-.6.59-.07,0,0-.1.05-.2.05,0,.43.66.43.64.85-.58.49-.32-.15-.79.29.38.34,1.31.37,1.42.87l0-.12c.94-.5-.26.58.29.52a1.29,1.29,0,0,0-.43.2c0,.36.57.43,1.11.68l-.27.09c-.11.29.15.51.15.75.26-.09.28,0,.59-.23-1,1.34,1.33.66.49,1.8,0-.06-.28,0-.26,0l.46.3c.39-.26.21-.2.48-.46.27-.08.52-.07.58,0-.38,0-.65.36-.83.57.12-.08.27-.13.39-.2-.59.62.84-.42.52.16l-.22.1c.17.05.51,0,.51.16-.44.31-.28,0-.67.2.12.16,1.07-.14.69.27-.17,0-.23-.11-.4-.11-.46.47-.31.42-.32.59v0l-.09.43.11-.16c1.34-.44.46.32,1.43.19-.92.12-.47.18-1,.45-.1.15-.21.35-.38.4.51-.09-.22.41.52.27-.17.1.06.16-.39.36.23.11.27-.2.5-.3.73,0-.38,1,.64,1,.51.18,1.14-.06,1.59.12a1,1,0,0,1-.68.23c-.16.31,0,.42.23.48a1.27,1.27,0,0,0-.45.29c.11.12.68-.22.51.08a5.07,5.07,0,0,1-.76.22c.23.08.64.07.88.15-.29.2-.51.13-.74.18a1.11,1.11,0,0,0,1,.15l.11-.2c.06,0-.39.24-.51.23-.45,0,.06-.31.23-.4l.17.06c1-.63-.4-.39-.45-.65l.79-.28-.74.07c.17-.15.57-.39.73-.33.29-.36-.33,0,0-.37a.2.2,0,0,1,.14-.06l-.31,0c.17-.05.51-.3.46-.14.27-.51-.81-.19-.3-.59h.06c-.47-.28-.57.24-1.36.26l1.23-.89-.57.24c0-.06,0-.16.22-.26-.45,0-.22.15-.61.24.38-.46-.52-.43.31-.93-.45.14-.21.36-.61.29.89-.55-.29-.16,0-.57.51-.2.34.11.67-.3-.86.32,0-.45-.25-.53-.65.34-.45-.19-.81-.34.22-.1.09-.68.18-1l.11,0c-.67.31-.68,0-.91-.11a1.51,1.51,0,0,1,.78-.26l-.1-.17a.63.63,0,0,1-.5,0l.5-.23c-.15-.21-.82-.14-.67-.61-.45.24-1.11.94-1.58.8a2.36,2.36,0,0,1,.79-.37s-.26,0-.18-.09l.47-.11c.1-.23-.38.13-.4,0,.34-.2.2-.22.48-.36,0,0-.09.17.07.14a.89.89,0,0,1,.34-.62c-.19.13-.46.27-.55.21-.16-.21.37-.32.46-.55-.26.08-.1-.21-.61.09,0-.07.19-.22.32-.33-.29,0-.39-.5-.85,0l0,0h0c-.73-.08-.18-1-.63-1.2l.17-.1c-.32-.11-.41-.43-.87-.37,0-.06.21-.34.42-.44-.23-.09-.43,0-.31-.4.4,0,.22-.23.33,0,0-.31.23-.53-.37-.47.47-.19.42-.51.23-.53l-.2.35a.45.45,0,0,1-.2-.33l.59-.31c.39-.9-1.67,0-.78-1.14-.46.14-.1.42-.63.62-.06-.25.58-1,.54-1.07.11-.49-1,.29-1-.14-.17.17-.67.57-1,.48-.06-.25.65-.82.89-.8,0,0,0,.1-.06.15a.36.36,0,0,0,.41-.19l-.21.11c.13-.24-.09-.5.28-.66a.33.33,0,0,0-.39.34c.11-.46-.28-.41-.28-.81-.08.12-.28.32-.3.28,0-.56-.49.09-.77-.1.19-.37.74-.46.3-.55.08-.3.48-.4.69-.45-.55,0-.1-.64-.13-.83l.25,0a.27.27,0,0,1-.24-.14l-.33.36c0-.13,0-.19.13-.31-.31.11-.59.54-1,.64.12-.25-.43-.14,0-.55.07.43.48-.42.76-.22-.1,0-.14-.07-.14-.2a.25.25,0,0,1,.16-.07c.21-.64-.67.3-.9,0,.31-.18.48-.49.38-.49.09.13-.42.42-.72.48.06-.36-.33-.08-.39-.2v.19c-.31.18-.35.06-.54,0,.21-.18.25,0,.3-.12-.6.24.24-.74-.25-.68.11-.25.51-.43.57-.62-.55.06.16-.56-.33-.56-.31.37-.21.31-.71.44l.59.18-.75.19c.1.12.44.06.44.18-.4.13-.3.07-.56.37.42-.61-.59,0-.37-.54l.91-.76c.16-.62-.89-.11-1-.67l-.06.25c-.4.26-.24-.18-.48-.17a2.08,2.08,0,0,0,.49-.63c-.22.2-.22-.28-.84.21l.24-.5c-.1-.43-1.13.43-1.28.06.39-.2.49-.52.88-.54-.08-.1-.1-.23-.31-.05.14-.22-.62.11-.42-.23-.16.08-.47.35-.54.23a.57.57,0,0,1,.14-.14c-.14.14-.34,0-.58.42.63-1.12-.8-.69-.27-1.67a2.72,2.72,0,0,1-.8-.4c.1-.07.14-.14.15-.07,0-.5-1,.66-.94.11.3-.6.39-.11.47-.37.86-1-.46-.19-.13-.92h.1c.08-.23-.09-.22-.31-.2s-.55,0-.69-.19a.51.51,0,0,0,.12-.16,2.14,2.14,0,0,1-1.45.14c.28-.43.24-.15.38-.71-.17,0-.29.84-.57.79a7.18,7.18,0,0,1,0-1.39l.29.21c.07-.87-.38-.3-.49-.55l.09-.33c-.5-.29-.6.64-1,.22l0,.33c-.22.81-.18-.73-.39-.15l-.13-1.11c-.17.11-.47.61-.66.64a1.51,1.51,0,0,1,.48-1.19c-.18-.15-.6-.39-.59.11,0-.06.09-.27.18,0-.09.71-.22,1-.49.76a2.93,2.93,0,0,0-.76-1.75,4,4,0,0,1-1-1.62c-.18.21-.52-.12-1-.6a8.87,8.87,0,0,0-1.34-1.34c1.39,2.54-.2-.11,1,2.36-.07,0-.15,0-.24-.21l-.62-.93-.56-.8c-.51-.81-.2-.55-.51-1.13a13.86,13.86,0,0,1-1.31-2l-.07-.07c.55.93.81,1.65.64,1.62q.33.38.66.81c.45,1.11.14.68-.16.3s-.59-.72-.15.36l-.51-1.06a12,12,0,0,0,1.4,3.79,4.09,4.09,0,0,1-.68-1,8.4,8.4,0,0,0,.63,2.19c.29.8.5,1.4.2,1.42l-.35-.42c.12.29.66.94.35.83-.14-.14-.34-.39-.35-.32s.64,1,.46,1.07l-.38-.51c-.17.3.08.88.4,1.41a10.31,10.31,0,0,1,.86,1.42c-.93-.5-1.16.13-1.28.49l-.12,0a4.18,4.18,0,0,0,1.2,2.63c-.94.37-.38,1.18-.92,1.73a1.1,1.1,0,0,1,.77.12c-.17.13.61.37-.19.33v0c-.79.09-.57.35-.61.56l1.06.06c-1.56.49.51,1.45-.88,1.69.26.14.24.3.5.45l-.57,0a1.19,1.19,0,0,0-.15,1l-.4-.12c0,.24,1.61.45,1.62.69h-.85c0,.44-.82.79-.1,1.31-.13,0-.37-.06-.39-.13,0,.2-.66.71.49.79-.75-.1-.14.44.16.73l-.55-.12c.67.3.87.34,1,.65-.08.06-.45,0-.3-.08-.32.18.5.26.17.48l-.34-.15c-.08.22.11.23.5.42.19.19-.22.42-.72.36.29.08.67.28.51.39a.68.68,0,0,1-.35-.12c-.45.31.53.69-.06.85a.8.8,0,0,0-.33,0c.07-.3.14-.54.18-.51-.51-.1-.64.13-1.3-.2.34.26,1.11.76.82,1h-.18l0,0c-.07,0,0,.1,0,.16-.1.06-.17.09-.19.16-.42-.06-.28.23-.33.34.55.11.43.25.91.21,0,0-.06,0-.06-.13s0,0,0-.06l0,0a2,2,0,0,1,0-.31c.26.16.47.31.13.38l.85.36c-.8,0-1.29.22-1.77.15.24.44,0,.9,1,1.4.1.14-.33,0-.5,0s-.05-.15-.19-.22c.21.27,0,.64.64.88-.39.18-.61-.32-.59.07l-.2-.11c-1.33.38,1.47,1.68-.21,2a.53.53,0,0,1,.28,0c-.92.69,0,2-1.3,2.58-.29.18.15.36.43.63l-.59-.15.57.49c.34.55-1.61.14-.89.93l.41.08c-.14.14,0,.61-.4.42.06,0,.37.2.15.19l-.3-.1.35.6c-.33.23-1.15-.5-1.38-.06a1.93,1.93,0,0,0,.89.83c0-.06.25-.1.55,0l.09.21a4.56,4.56,0,0,0,2.45.69l-.42-.49.45.08-.06.24c.45,0,.13-.2-.08-.39a1.21,1.21,0,0,0,.51.07l-.73-.59c.36.09.63.38.89.27-.34-.28-.81-.17-1-.48.44,0,.75.18.47-.1a.77.77,0,0,1,.44.24c-.22-.24,0-.41-.41-.65.54,0,0-.51.87-.2-.18-.11-.56-.48-.55-.62.91.59.23-.46,1.27,0-.83-.49-.17-.77-.56-1.25.06,0,.2.12.14.13.14-.15.43-.1.63-.16-.73-.27-.81-.6-1.22-.9.78,0,.83.42,1.54.58-.61-.19-.48-.57-1-.67a2.26,2.26,0,0,1,.91,0c-.92-.33-.11-.21-.64-.53.54-.09.9.22.7-.13A.75.75,0,0,1,1097.14,636.91Zm.06-6.81h0v0Zm.09-.54a.7.7,0,0,0-.06.23c-.19,0-.39-.08-.37-.13S1097.12,629.61,1097.29,629.56Zm-4,.3c-.06-.09,0-.1.17-.08a.56.56,0,0,0,0,.15l.07,0Z"/><path class="a" d="M1093.94,630.16s0,0,0,.05l.13,0-.16-.07Z"/><path class="a" d="M1115,629.36v0l-.06.07Z"/><polygon class="a" points="1099.31 622.08 1099.17 622.07 1099.29 622.13 1099.31 622.08"/><path class="a" d="M1114.78,632.87a.35.35,0,0,0-.1.11A.57.57,0,0,0,1114.78,632.87Z"/><path class="a" d="M1115.28,634l-.1.25A.7.7,0,0,0,1115.28,634Z"/><path class="a" d="M1115.49,635a1.23,1.23,0,0,0,.22-.09h0Z"/><path class="a" d="M1106.74,622.57h0C1106.56,622.56,1106.63,622.58,1106.74,622.57Z"/><path class="a" d="M1110.48,625.44a1.13,1.13,0,0,1-.3,0C1110.19,625.56,1110.22,625.62,1110.48,625.44Z"/><path class="a" d="M1103,619.25h0l0,0Z"/><path class="a" d="M1110.07,625.29c0,.13,0,.17.11.18S1110.18,625.3,1110.07,625.29Z"/><path class="a" d="M1117.18,638.87v.06l.08,0Z"/><path class="a" d="M1117.26,638.89l.08,0S1117.32,638.87,1117.26,638.89Z"/><path class="a" d="M1117.52,638.94l-.18,0S1117.37,639,1117.52,638.94Z"/><path class="a" d="M1116.84,637.61l-.19.08Z"/><path class="a" d="M1116.61,637.29c0,.1-.28.4-.11.46l.15-.06C1116.35,637.77,1117,637.21,1116.61,637.29Z"/><path class="a" d="M1118.09,634.67V635c.17-.15.39-.35.51-.24C1119,634.13,1118.22,635.1,1118.09,634.67Z"/><path class="a" d="M1117.89,633.61c.18.11.28-.15.39-.2C1118.05,633.41,1118,633.41,1117.89,633.61Z"/><path class="a" d="M1114.15,627.13l.45-.25C1114.46,626.8,1114.43,627,1114.15,627.13Z"/><polygon class="a" points="1111.16 627.37 1110.96 627.65 1111.39 627.45 1111.16 627.37"/><polygon class="a" points="1113.74 624.66 1113.84 624.67 1113.55 624.58 1113.74 624.66"/><path class="a" d="M1105.57,614.8l-.42.47C1105.29,615.26,1105.81,614.78,1105.57,614.8Z"/><path class="a" d="M1100.21,610.79c0-.45-.23-.87-.33-.55C1100,610.41,1100.14,610.83,1100.21,610.79Z"/><polygon class="a" points="1094.31 620.46 1094.11 620.35 1094.28 620.54 1094.31 620.46"/><path class="b" d="M595,636.43h-2.49a2.56,2.56,0,0,0-.28-.86,2.26,2.26,0,0,0-.54-.65,2.42,2.42,0,0,0-.76-.41,3,3,0,0,0-.93-.14,2.76,2.76,0,0,0-1.57.45,2.87,2.87,0,0,0-1,1.29,6,6,0,0,0,0,4.15,2.81,2.81,0,0,0,1.05,1.28A2.76,2.76,0,0,0,590,642a2.94,2.94,0,0,0,.91-.13,2.17,2.17,0,0,0,.76-.38,2,2,0,0,0,.54-.62,2.42,2.42,0,0,0,.31-.83H595a4.57,4.57,0,0,1-1.51,2.87,4.64,4.64,0,0,1-1.54.92,5.9,5.9,0,0,1-4.78-.37,4.88,4.88,0,0,1-1.94-2,7.8,7.8,0,0,1,0-6.48,5,5,0,0,1,2-2,5.4,5.4,0,0,1,2.76-.71,5.91,5.91,0,0,1,1.87.29,4.67,4.67,0,0,1,1.54.83,4.24,4.24,0,0,1,1.09,1.32A4.87,4.87,0,0,1,595,636.43Z"/><path class="b" d="M597.17,644V632.35h2.46v4.81h5v-4.81h2.45V644h-2.45v-4.81h-5V644Z"/><path class="b" d="M612,632.35V644h-2.46V632.35Z"/><path class="b" d="M624.13,632.35V644H622L617,636.67h-.09V644H614.4V632.35h2.16l5,7.32h.11v-7.32Z"/><path class="b" d="M628.57,644h-2.64l4-11.64h3.17l4,11.64h-2.64l-2.91-9h-.09Zm-.17-4.57h6.23v1.92H628.4Z"/><path class="a" d="M1098.55,664c.18-.23,0-.57-.66-.34l-.29.75Z"/><path class="a" d="M1094,663.8c-.68.49-1.41,1.24-.78,1.72.59-.8.84-.58,1.46-1.51.62-.22,1.16-.06,1.11.21.19-.22,1-.1,1.27-.58a3.47,3.47,0,0,0-3,.6C1093.74,664.15,1093.93,663.93,1094,663.8Z"/><path class="a" d="M1031.13,676.32h.42A1.47,1.47,0,0,0,1031.13,676.32Z"/><path class="a" d="M991.93,682.26c.3-.06.41-.14.42-.2C992.08,682.14,991.85,682.21,991.93,682.26Z"/><path class="a" d="M985.13,682.42h.4A.53.53,0,0,0,985.13,682.42Z"/><path class="a" d="M1031.13,676.32h-1.08C1030,676.54,1030.62,676.37,1031.13,676.32Z"/><path class="a" d="M1085.73,667.4a2.15,2.15,0,0,0,.52-.3l-.51.19A.41.41,0,0,1,1085.73,667.4Z"/><path class="a" d="M1048.2,672.51l.32-.07c.07-.09.14-.2.21-.31Z"/><path class="a" d="M1061.3,669.62c-.3,0-.29.61-.35.87a1,1,0,0,1,.57-.51A.68.68,0,0,0,1061.3,669.62Z"/><path class="a" d="M1082.27,665.88l.35-.16Z"/><path class="a" d="M1038.76,674.23a.41.41,0,0,0-.16-.18A.27.27,0,0,0,1038.76,674.23Z"/><path class="a" d="M666.25,659.19s0-.06,0-.09S666.16,659.14,666.25,659.19Z"/><path class="a" d="M654.4,648.35l.18.12a1.57,1.57,0,0,0,.26-.19Z"/><path class="a" d="M972.76,683.15h.06C973.14,683.06,973,683.09,972.76,683.15Z"/><path class="a" d="M859.55,685.18c1.24.6-2.14.48-.26,1.19C859.13,686.13,861.12,685.63,859.55,685.18Z"/><path class="a" d="M1085.37,667.41l-.53.13A2.38,2.38,0,0,0,1085.37,667.41Z"/><path class="a" d="M859.29,686.37h0l.2.07Z"/><path class="a" d="M944.43,686a.75.75,0,0,0,.31.22C944.72,686.15,944.65,686.08,944.43,686Z"/><path class="a" d="M965.65,685l-.53,0A2.47,2.47,0,0,0,965.65,685Z"/><path class="a" d="M933.47,687.35a1.64,1.64,0,0,0-.77,0,.34.34,0,0,0,.12.06A.81.81,0,0,1,933.47,687.35Z"/><path class="a" d="M922,687.79a2.25,2.25,0,0,0,.22.11l.36,0Z"/><path class="a" d="M700.17,669.41a1.77,1.77,0,0,1-.41-.61C699.85,669.23,698.16,669,700.17,669.41Z"/><path class="a" d="M1085.65,667.09a.4.4,0,0,1-.28.32l.37-.12C1085.75,667.2,1085.74,667.12,1085.65,667.09Z"/><path class="a" d="M933.2,691.8h-1.84C931.88,691.83,932.55,691.83,933.2,691.8Z"/><path class="a" d="M782,682.17l-.43,0A.77.77,0,0,0,782,682.17Z"/><path class="a" d="M925.92,692.13a3.71,3.71,0,0,0-1-.35,1.13,1.13,0,0,0-.21.15C925.08,692,925.5,692.07,925.92,692.13Z"/><path class="a" d="M699.76,668.79h0Z"/><path class="a" d="M687.65,667.13c1.7.48,1-.48,1.46-.79,2.08.35.8.78,1.39,1.34,1.32.13,2.46-.29,3.4,0,0,.14.22.23,0,.32,1.49-.22,4,1,5.74.59a.51.51,0,0,1,.16.22,1.33,1.33,0,0,1,0-1c.76.16,1.52-.13,1.7.41-.47-.12-.55.06-.8.15l.84,0c.57.85-1.14,0-1.26.49,1.62.14,3.56,0,4.72.43.11.72-2.86-.37-1.38.56l-1.8-.67c1.18,1.37-1.11-.33-.06,1.08,2.4.75,2.81.26,5.21,1,.63-.25-.06-.58.57-.84,3.6.08,2.39,2.23,5.13,1.87.75-.32,1.17-1.11,2.9-.3l-.77.63c2.37.53,1.57-.83,4,.14-.5.22-1.91-.09-1.57.06,1.5.9,1.22-.21,2.46,0l.14.72c2.55.38,5.43.36,8.26.73-.19.17-.71.3-.08.61A60.9,60.9,0,0,1,738.85,677l1.4-.37c.3.05.52.34.18.41,1.3.42.12-.36.8-.49.76.08.95.49.44.59,2.44-.15,6.88-.07,9.28.89l-.51.1c1.9.51,2.35-.89,4.07-.1l-.36.06c4.17.82,8.89.89,12,2.16.72-.76,4.12.9,4.54-.25,2.33.87,1.62,1,5,1.79.9.16,1.44-.58,2.57-.57l0,.61,1.59-.47.72.83,1.07,0c-.41-.08-.86-.37-.77-.54,1.67-.09,4,.86,4,1.18l3.94-.09c-.11.24-.77.25-1.3.35,2.14-.4.31.69,2.27.32-.24-.17.17-.35.23-.47a13.26,13.26,0,0,0,4.67.71l-.35.39c2.87.41,6.1.42,9.33.75-1.14-.32-.8-1,.15-1l.32.69c.65-.34-1-.35.34-.71,1.2.19.74.81,0,1l1.49-.09c.07.21-.29.28-.4.51.64-.34,2.47.9,3.41.29l.06.2c3.24.31,4.72.23,7.36.45.1-.56,1.12-.34,1.94-.72a55,55,0,0,0,6.35,1.2c1.66-.11.52-.43,1.29-.69.07.53,2.4.71,1.16,1a60.19,60.19,0,0,0,7.15.2c-.37-.25-.79-.38-.55-.53.65,0,1.44.36,1.32.59l-.17,0c4-.37,9,2.43,12.29,1.64l-.19,0,3.34-.25c1.5.23-.94.3.15.72,3.62-.52,5.59.65,8.56.3,2.15,1.67,8,.57,11,1.69l-.15-.37c.81-.3.94.26,1.52.38-.06-.28-.84-.37-.33-.53a84.18,84.18,0,0,1,10.28.74c3.48.35,7,.79,10.42,1.08,2.52.17,1.48-1.75,4.63-.87l-.92.65c5.1-.75,10.41.18,15.39-.52-.3.16-.31.36-.79.36,1,.47,3.89,0,3.9-.43.78,0,.18.35.66.54,1.06.27,2.64-.65,3.21-.19.1.08-.29.16-.49.2.69-.24,3.21,0,2.54-.53,1.87.23,3.56-.31,5.06,0,1-.65,3.21.16,3.48-.73-.1.91,3.3.58,4.46.11-.38.29,1,.23.6.63,1.34-.07,2.57-.3,2.31-.75,2.54,1,4.94-1.09,6.41.22,4-.78,7.63-1.38,11.2-1.86-.06.91-4,.38-3.74,1.32,3.39-.63,5.28-1.55,8.68-1.58.88.06-.47.43-.75.6.84-.15,1.68-.26,2.5-.34l2.42-.25a28.85,28.85,0,0,0,4.63-.73c0,.08-.32.21-.62.31.59-.09,1.39,0,1.29-.41l-.57.17c-1-.5,2.23-1.48,2.31-1.81-.89,1.27,3,0,1.56,1.63.38-.12.85-.36.73-.62.59,0,.79.16.23.53,2.11-.45,1.31-.8,3.24-1,0,.2-.37.31-.54.57a6.73,6.73,0,0,1,3.52-1c-.09.13.12.27-.37.31,2.8-.34,4.64-1.62,7.74-1.64-.79,1,1.08.15,1.33.87l1.62-.44-.71-.27c1.45-.18,2.65-.89,3.92-.81l-1,.45,2.68-.5-1.56-.08c1.4-.57-.29-.91,1.66-1-.38.12,1.44-.18,2.25.15h0a4.67,4.67,0,0,1,2.47-.63c.31.2-.11.84.1,1,.61-.69,3.34-.65,4.13-1.46-.27.2-.23.59-.12.65l.51-.59c.69,0,.8.11.74.44,2-.23-.78-.84,1.65-.81-.18.07-.08.13-.45.27,2.41-.17,4.55-1.06,6.78-1.16.76.64-1.89.49-1,1,3.14-.64,6.39-1.94,9.48-2.25h-.59c.25-1.13,2.37.18,3.82-.62-.36.15-.39.68-.31.54,2.11-.22,4.21-1,7.31-2l-.34.34c1.27,0,3.25-.47,4.6-.59.34-.34,1.11-.44.58-.74,4.37.75,7.63-2.26,11.5-1.7-.43.1-1,.44-.64.38l3-.9c-.34-.4-.46-.19-1.18-.4a4.2,4.2,0,0,1,1.92-.91c-1.32.59.16.72.81.85-.13-.12,0-.31,0-.44,1.77.46.09-1,2.39-.9l-.07.27a11.14,11.14,0,0,1,2.38-.9c.48.45-.82.43-.79.88,1.24-.3,2.25-1.52,3.48-1.23-.5.25-1.25.42-1.75.68a4.46,4.46,0,0,0,2.39.07h-.09l2.16-.17-.57,0c1.26-1.69,3.11-.92,5-2.26-1.85,1.28-.23.56-.25,1.18.57.05,1.42.06,1.22.28.89-.69,1.74,0,3-1,.11.18,1.07-.21,1,.32,1.26-.43-.38-.27-.32-.53,1.84-1,4.82-.28,7.46-1.84,2.36-.95,2.66-1.7,4.86-2.56.84.13-.47.85-.47.85a7.82,7.82,0,0,0,3.34-.79c-.2.23.08.31.48.44.92-.28.46-.84,1.76-.86a3.3,3.3,0,0,1-.75,1c1.06-.44,2.06-1.05,3.16-1.5.38.26-.57.67-.92,1,1.25-.45,3.25-1.09,3.52-1.71h-.87c.47-.13.35.4,0,.57-1,.67-1.63.2-1.73,0l.78-.31c-1.1-.92-3.22,1-4.87,1.28l.49-1-1.52,1.07c-.4-.13-.75-.52,0-.84-1.26-.12-1,.54-2.08.33-.12,0-.08-.09,0-.15l-1.08.51c.18-.22-.33-.52.4-.57-2.16,0-3.17,1.39-4.08,1l.16-.09c-2.79.95-.14.66-2.12,1.87l-1.77-1.13-.15.67c-.29,0-.89.14-.83-.13-1,.67.24.22-.3.75-1.54-.18-3.86,1.12-4.39.25-.41.56,1.43.06,0,.69-.66-.93-1.72.55-3.12.36.28-.61,1.57-.59.17-.79-.59,1.06-2.57.35-3.63.75.1.72-2.32.8-4.11,1.43.07-.26-3.54.35-5.3.45l0-.13c-.19.79-2,1-3.23,1.46,0-.45.16-.67.81-1l-1.2.26a2.62,2.62,0,0,1-1.36.75l.2-.61c-1.6.39-3.12,1.3-5.27,1.32,0,.53,1.93,1.09-.2,1.84-.14-.26-.31-.71.25-.93a2.2,2.2,0,0,1-1,.31l.78-.62c-1,0-.42.47-1.18.57-.06-.39-.62-.17-.57-.5.19-.07.69,0,.95-.17a5.11,5.11,0,0,1-2.33-.17c.11.2.1.52-.52.69-1.61.33-.64-.37-1.62-.39-.34.34-1.42.25-1.34.84-.47.08-.61-.17-.82-.29-.79.41-3.89.8-2.83,1.24h.22l-.13,0h0c-2.64,1.09-5.75.74-8.43,1.49l0-.19c-1.58.55-3.6.74-4.69,1.35-.48.08-1.19-.17-1-.44a7.11,7.11,0,0,1-3.17.56c1.19-.54-.49-.24,1.24-.46-1.65.09-2.06-.16-3.72.65.52-.59-1.31-.43-2.06-.16l1.19.17a15.29,15.29,0,0,1-2.39.37l.31-.72c-3.43-.27-5.76,2.31-8.48,1.38-.8.6,1.85,0,1.15.7-1.54.17-3.27-.57-3.75-.51-2.14-.09-1.81,1.22-4,1.26.31.2.67.79-.94,1.23-1.55.11-2-.74-1.08-1.06.37-.07.55,0,.55.07.48-.15,1.12-.34.48-.51l-.17.26c-.79-.14-2.89.16-2.45-.29-1.12.38-.44.45.43.46-2-.08-3.06.39-5.11.43.34.09.67.33.35.36-3,.1-1.25.62-3.25,1-1.18-.21.31-.91-1.68-.34-1.26-.08-.33-.59.14-.85-1.79.72-3.48.13-4.54.15l1-.29a7.66,7.66,0,0,1-1.53.26l.61.42c-.58,0-1.06,0-1.07-.18-.56.37.53.74-.59,1.29-.78-.17-2.29.49-2.62-.11,2.42,0-.33-.6,1.68-.91a4.32,4.32,0,0,1-1.43.14c-.1-.06.06-.14.21-.19-2.34-.32-1,.82-3.34,1.05.26-.39-.62-.62-1-.5,1-.09.52.54-.33.9-1.55-.12-1.64.38-2.44.43l.92,0c-.27.39-1,.42-2.09.64-.11-.26.95-.29.56-.37-1.12.74-2.72-.37-4.33.22-.78-.16-.13-.65-.81-.75-1.8.61-2-.33-3.94.2.59.43.68.31-.64.87l3.15-.57-2,.84c1-.06,2-.45,2.59-.41-.94.46-.86.34-.36.7-1.38-.62-2.58.61-4.14.24l-.05-1.18c-2.33-.36-4,.9-7,.83l1,.13c-.37.5-1.83.2-2.78.47.06-.4-.55-.5-1-.72.06.29-2.18.14-2.4.94-.45-.13-.91-.28-1.36-.44-2.41-.1-2.68,1.25-5,1.22.68-.46-.39-.69,1.14-1.07-.77,0-1.46,0-1.46.27-.47-.23-2.12.62-2.84.28-.32.19-.41.61-1.28.61-.1-.07,0-.19,0-.19,0,.19-1.35.33-.57.73-2.43-1.13-6.65.41-8.75-.65-1.69.16-3.71.32-5.24.37.09-.12,0-.19.29-.16-2.12-.33-1.28,1.16-3.69.79-1.24-.62,1.27-.37.5-.6-.34-1.29-2.9.23-4.52-.5l.4-.09c-1.24-.41-3,.47-5,.37,0,0,.09-.12,0-.2-1.38.65-4,.84-6,1,.61-.5.89-.26.53-.78-.88.07.24.84-1.5,1-.56-.28-1.81-.54-2-1.09h1.64c-.82-.73-2.12,0-3-.14l.12-.31c-2.51,0-2.57.8-5.27.65l.27.24c-1.5.73-1.22-.48-2.71,0l-.42-.8a50.85,50.85,0,0,1-5.19.72,22,22,0,0,1,4.35-1.07c-1,0-3.28-.06-3.8.31a2.77,2.77,0,0,1,1.27-.11,9.09,9.09,0,0,1-4.7.69c.42-1.51-5-.68-6.31-1.95-3.43.39-6.71-.68-10.66-.91,1.31,1.3-1.16-.06-1,1.18-.93,0-1.28,0-1.35-.13l-2.73-.94c-.63-.41.9-.2.83-.48-2-.26-.8-.58-2.1-1,.24.46-.75.56-1.88.29l1.56.71c-2.87.39-2.34-1.25-5.23-.87l.93-.3c-1.47.09-5.36-.5-6.88.33-.25-.16-.55-.53.1-.55-3.47-.5-7.85.26-10.5-.62l.3-.27c-.66,0-1.19.45-2,.06,0-.11.29-.27,0-.31a6.79,6.79,0,0,1-2.62.08l.77-.26c-3.37-.73-5.3.28-8.17.21.09-.87-2.56-1.42-3.88-1.68l.06-.12c-4-.49-6.79.09-10.49.08-2.18-1.18-7.65-1.16-11.25-2.07.54.22-.16.67-.82.7-.83-.27-2.43.36-2.21-.43l.31.05c-.56-.86-2.34-.84-3.71-1l-.34,1c-3.43-1.9-9.48-.47-11.28-2.06-.89.16-2,0-2.85.19l.11-.55a52.32,52.32,0,0,0-6.55-.87l.66-.33c-1.67-.24-2.31,1.36-3.86,1.2l-.36-.89c-2.91-.35-5.76-1.49-8.74-1.1a.62.62,0,0,1,.66-.32c-1.37-.2-5.21-1.29-4.87-.07.06-.75-3-.48-4.61-.39l.32-.51a6,6,0,0,1-3.37.62c-.43-.13-.32-.49.24-.27-1.42-.5-1.22.37-2.94-.2l.71-.25a2.9,2.9,0,0,0-2.29.22c-1,.07-2.83-.58-3-1.11a2.18,2.18,0,0,1-2,.27c-.09-.21.25-.28.42-.31-2.44-.78-3.83,0-5.46-.78a.45.45,0,0,0-.24-.38c2,.34,3.59.63,3.43.64.08-.5-1.51-.85-.12-1.35-1.35.17-3.69.66-5.22.14a.71.71,0,0,1-.17-.21l.17,0a2.48,2.48,0,0,0-1-.09,7.89,7.89,0,0,0-1.27-.37c-.11-.45-1.8-.55-2.59-.7,0,.56-1.07.28-.17.92-.12-.07.16,0,.7,0a2,2,0,0,0,.35,0l-.06,0,2,.3a2.72,2.72,0,0,1-2.21-.16c-.47.28-1,.57-1.28.7-.95-1-3-1.78-3.19-2.31-2.49-.13-5.76-.89-7.5-.16-.71,0-.73-.45-1-.67a4.62,4.62,0,0,0,1.14,0c-1.44,0-4.11-.73-4.59-.08-1.67-.7,1.12-.46-1.29-.85l.37-.15a14,14,0,0,0-6.28-1.07,12.22,12.22,0,0,1-6.57-1.53c.33.18.5.26.54.4-5.69-2.12-12.27-2.6-17.55-5.59-1.54-.74-1.84-.4-2.94-.42l-.13-.69-1.91,0a6.81,6.81,0,0,1-3.06-1.75,9.64,9.64,0,0,0-1.54-1,6.07,6.07,0,0,0-2-.72l.18.55c-.49-.29-1.32-.63-2-1s-1.1-.67-.91-.82a.67.67,0,0,1-.8-.23l.13-.29a23.74,23.74,0,0,1-2.63-1c-1.59-1.43,1-.84-1.42-2.66-.85-.62-3-1.45-2.8-1,.33.32.73.93.54,1.19l-.9-.61c-.8.53-2.22.52-.51,3a13.28,13.28,0,0,0,1.89.86l.24.73a12.71,12.71,0,0,1-1.35-1c.46,1,1.22,1,1.9,1.17a1.28,1.28,0,0,0,.39.89,14.87,14.87,0,0,0,2.09.32c0,.43-1.12.18-.12,1,1,.1-.31-1.13,1.1-.62.57.83.17,1,1.28,1.23,0,.29-.25.31-.68.18,1,.28,2.32,1.07,3,.86a4.75,4.75,0,0,0,1.65,1.09c.6.31,1.08.55.85.94a7.19,7.19,0,0,1,2.63.33c-.94.18-.19.51.68.92s1.91.79,1.51,1.25c1.44-.46,4.12,1.12,6.27,1.24-.14,0-.4.11-.56,0a9.87,9.87,0,0,1,2,1.23c.38-.68,2.16-.31,3.23-.5,1.14,1.13-1.09.63-.88,1.45.12-.63,2.55.11,2.24-.54.91.77.83.49,1.19,1.28.45-.88,1,.12,2-.23,1.39.88.15,1,1.89,1.17C689.23,667.2,687.65,667.13,687.65,667.13ZM728,674h0l-.83-.11Zm3.38.55-1.46-.26c-.09-.21.07-.38.41-.32C730.16,674.06,730.94,674.3,731.42,674.54Zm-6.48-5c.55,0,.71.16.76.28l-.94-.09-.07.06A.67.67,0,0,1,724.94,669.49Z"/><path class="a" d="M723.86,670.06c-.08,0-.13,0-.23,0l.3.18.22-.14Z"/><path class="a" d="M1031.63,676.32h-.08a.42.42,0,0,1,.17,0C1031.66,676.36,1031.66,676.34,1031.63,676.32Z"/><polygon class="a" points="778.15 682.01 778.17 681.87 777.85 681.96 778.15 682.01"/><path class="a" d="M1050.49,674.64a.41.41,0,0,0,.27.09A.66.66,0,0,0,1050.49,674.64Z"/><path class="a" d="M1058.48,673.07l1.17-.05A11.39,11.39,0,0,0,1058.48,673.07Z"/><path class="a" d="M1064.67,672a.85.85,0,0,0,.07-.26h0Z"/><path class="a" d="M966.45,688.73l-.24,0C965.65,689,966,688.86,966.45,688.73Z"/><path class="a" d="M995.74,683.91a6.7,6.7,0,0,1-.91.38C995.36,684.27,995.77,684.23,995.74,683.91Z"/><path class="a" d="M933.4,691.8h0Z"/><path class="a" d="M993.47,684.47a3.19,3.19,0,0,0,1.36-.18A4.84,4.84,0,0,0,993.47,684.47Z"/><path class="a" d="M1091.18,666.16l.29,0a.12.12,0,0,1,0-.1Z"/><path class="a" d="M1091.49,666l.31-.14C1091.65,665.91,1091.52,665.94,1091.49,666Z"/><path class="a" d="M1092.45,665.57l-.65.3C1092,665.82,1092.33,665.76,1092.45,665.57Z"/><path class="a" d="M1083.05,667.82l0,.22A.29.29,0,0,0,1083.05,667.82Z"/><path class="a" d="M1080.61,668.47a9.37,9.37,0,0,0,2.35-.25l0-.18C1082.69,668.43,1081.09,668,1080.61,668.47Z"/><path class="a" d="M1069.82,668.42c.7-.09,1.4-.19,2.09-.31-.41-.12-.94-.3,0-.57C1069.16,667.51,1072.54,667.91,1069.82,668.42Z"/><path class="a" d="M1063.36,669.47c1.09-.34-.08-.31,0-.44C1062.65,669.37,1062.5,669.46,1063.36,669.47Z"/><path class="a" d="M1017,678.46l0-.52C1016.22,678.15,1017.09,678.14,1017,678.46Z"/><polygon class="a" points="1008.54 682.5 1009.43 682.68 1009.76 682.15 1008.54 682.5"/><polygon class="a" points="1002.73 679.74 1003.09 679.61 1001.68 680.02 1002.73 679.74"/><path class="a" d="M924,687.26l.28.62C924.89,687.76,925,687.05,924,687.26Z"/><path class="a" d="M889.88,687.81a2,2,0,0,0-1.92-.27A14.29,14.29,0,0,0,889.88,687.81Z"/><polygon class="a" points="787.75 678 788.45 677.86 787.14 677.9 787.75 678"/><path class="a" d="M674.56,676.51c.15-.1.41-.39.29-.4l-.52.42Z"/><path class="a" d="M675,675.19a3.41,3.41,0,0,0-1.17.94c.52-.37.36-.17,1-.62.13,0,0,.27-.21.43.14-.1,0,.21.33-.05.27-.45.18-.58-.24-.39A1.55,1.55,0,0,1,675,675.19Z"/><path class="a" d="M669.27,667.82v.09A.1.1,0,0,0,669.27,667.82Z"/><path class="a" d="M665.77,663.3s.1,0,.15,0S665.8,663.26,665.77,663.3Z"/><path class="a" d="M665.7,662.09v.07S665.75,662.07,665.7,662.09Z"/><path class="a" d="M669.27,667.82l.05-.26C669.16,667.7,669.26,667.73,669.27,667.82Z"/><path class="a" d="M672.93,675.42a.41.41,0,0,0,.18-.07H673Z"/><path class="a" d="M671.38,669.29l0,0,.23-.15Z"/><path class="a" d="M672.79,670.61a5.23,5.23,0,0,0-.62.49c.19-.14.29-.19.35-.19Z"/><path class="a" d="M674.23,673.5l.1,0Z"/><path class="a" d="M670.52,668.2a.92.92,0,0,0,.14-.15Z"/><path class="a" d="M682.11,649.93v.1C682.12,650,682.13,649.93,682.11,649.93Z"/><polygon class="a" points="684.29 652.76 684.26 652.79 684.25 653.11 684.29 652.76"/><path class="a" d="M665.14,660.27v0C665.21,660.28,665.19,660.27,665.14,660.27Z"/><path class="a" d="M658.8,652.17c-1.1-.74-1.16-.89-2.42-1.73C656.82,650.76,658.05,651.68,658.8,652.17Z"/><path class="a" d="M673,675.33s-.05,0-.06-.05A.06.06,0,0,0,673,675.33Z"/><path class="a" d="M656.38,650.44h0l-.12-.08Z"/><path class="a" d="M662.38,657.29a1.53,1.53,0,0,0-.18.19A1.14,1.14,0,0,0,662.38,657.29Z"/><path class="a" d="M663.6,660.18v-.1A.12.12,0,0,0,663.6,660.18Z"/><path class="a" d="M660.8,656.51c0-.06.07-.12,0-.12l0,.06C660.8,656.42,660.84,656.42,660.8,656.51Z"/><path class="a" d="M659.84,655.18l-.08.09.06,0Z"/><path class="a" d="M677.13,650a4,4,0,0,1,0,.51C677.18,650.08,677.43,650,677.13,650Z"/><path class="a" d="M673.15,675.19a.47.47,0,0,1-.2.14l.06,0A.64.64,0,0,0,673.15,675.19Z"/><path class="a" d="M657.18,659.07l-.09-.27A.44.44,0,0,0,657.18,659.07Z"/><path class="a" d="M665.47,648.72l.07-.05S665.5,648.66,665.47,648.72Z"/><path class="a" d="M656.55,658.2a1.41,1.41,0,0,0,.23-.35.33.33,0,0,0-.14.06Z"/><path class="a" d="M677.18,650.48Z"/><path class="a" d="M679,649.25c-.25,0-.15.72-.23,1.14-.31.19-.11-.55-.19-.94-.19.19-.37.86-.51.82a.9.9,0,0,1,0-.32c-.23.58-.58,0-.86.72a1.28,1.28,0,0,1,0-.19c0,.37,0,.75,0,1-.12,0-.24.45-.25,0,.06,0,.08-.18.12-.33l-.13.2c-.06-.7.18-.23.21-.74-.24.21-.54.77-.71.56,0-.68.43-.2.24-.82l.25.28c-.14-1.08.16.08,0-1.07-.33-.22-.41.32-.75.09-.11.37,0,.56-.12.93-.56.64-.27-1.73-.7-.86-.13.45-.24,1.3-.47.83l.16-.76c-.34-.1-.29,1.09-.61.54.09-.3.29-.23.25-.33-.18-.62-.2.42-.38.41l0-.69c-.37.08-.82.53-1.23.61a1.17,1.17,0,0,0,.06-.62c-.55.3-1.08-.19-1.52-.64l-.25.56s0-.27,0-.38c-.17-.24,0,.37-.17.59-.12,0-.11-.35,0-.52-.39.46-1.08.94-1.36.28l.09-.17c-.24-.27-.46,1.16-.65.58l.06-.09c-.56-.33-1.3.1-1.63-.84-.21.83-.54-.46-.75.7-.25-.63-.12-.82-.54-1.28-.12-.08-.3.7-.48.79l.09-.61-.32.61v-.75l-.17.14a.75.75,0,0,1,.05.46c-.28.24-.5-.52-.45-.83l-.64.42a1.07,1.07,0,0,1,.26-.45c-.4.57.06-.65-.31-.13a1.94,1.94,0,0,1-.11.49.4.4,0,0,0-.62-.33l.11-.41c-.38-.18-.88,0-1.34,0a1.15,1.15,0,0,1-.19,1l.07-.65c-.16.38.09.27-.17.72-.16-.1,0-.75.15-.94l-.25.19c0-.2.09-.29.15-.53-.07.4-.44-.75-.74-.1v-.19a13,13,0,0,0-1.77-.09c.08.59-.18.41-.24.86a5.25,5.25,0,0,0-1.71-.94c-.25.23.14.51.15.86-.3-.59-.84-.65-.78-1a1.5,1.5,0,0,0-1.3.26,3,3,0,0,1,.57.61c0,.07-.51-.33-.74-.63v-.06c-.07.38-.92-.19-1.9-.75s-2-1.08-1.6-.45l0-.06a2.73,2.73,0,0,0,.11.6c-.5-.2-.43-.49-1.23-1,.27.5-.08.39-.53.22s-1-.39-.74,0c-.48-.31-.87-.55-1.2-.73-.63-.28-.1.35.3.85s.76,1,.19.83l.62.34c.73.53-.24,0-.31,0,.48.26.46.14.87.45a3.73,3.73,0,0,1,1.07,2,8.77,8.77,0,0,0,.37,2c.26.6,2.64.76,1.94,1.23l-1-.29a4.91,4.91,0,0,1,1.51,1.7,3.7,3.7,0,0,0,1.32,1.51c-.18,0-.37.08-.44,0-.31.42.57.87.89.65.07.18-.28.22-.37.43a.19.19,0,0,0,.1.21.55.55,0,0,0,.22,0c.16,0,.29,0,.12.18a.31.31,0,0,1-.2,0c.25,0,.22.42.62,0-.06.38.51.29.37.66.58-.25,0,.55.77.08-.75.51-.31.82.13.71-.25.11-.14.29-.48.46.13.15.37.2.72-.11-.65.94,1.14.07.15,1.06a6.46,6.46,0,0,1,1.82.71c-.72.53-.43-.41-1.16.18.6.18,1.39-.07,1.52.45,0,.18-.35.19-.5.25.6.16.53.82,1.2.86a.57.57,0,0,1-.25.08c.07,0,0,.24.34,0h-.15c.38-.48,1.19-.51,1.45-.7-1,.62,0,.53-1.26,1.28a.94.94,0,0,0,.5-.26c0,.12-.12.24-.42.37.38.11.64-.26.81,0a4.31,4.31,0,0,1-.44.25c.39-.13.78-.26.8,0-.1.06-.21.18-.25.13.31.28,1.24-.12,1.24.46-.75.46-.12.3-.67.8l.32,0,.22-.3c.12.17.66,0,.59.26l-.34.08.37.21.07-.36c.43-.08.71-.62.73-.28-.1,0,.12.17-.14.54h0c.25-.07.51-.16.47.08s-.65.52-.75.64c.54-.33.46.26,1-.07a2.16,2.16,0,0,0-.5.38l.44-.26c-.06.18-.11.24-.35.43.12.29.65-.69.57-.16,0,0-.1.07-.19.07.07.41.68.31.71.71-.5.57-.33-.09-.73.41.42.26,1.32.13,1.49.58v-.12c.83-.66-.16.6.36.44a1.86,1.86,0,0,0-.39.27c.08.35.62.29,1.18.41l-.24.14c-.05.3.22.45.27.68.24-.14.28,0,.52-.35-.72,1.5,1.4.27.82,1.55,0,0-.28.05-.24.09l.49.16c.31-.35.17-.24.36-.55.24-.15.48-.2.56-.12-.36.06-.54.51-.66.75.09-.11.22-.19.32-.3-.43.74.7-.61.52,0l-.18.16c.17,0,.48-.14.52,0-.35.41-.27.08-.59.38.15.11,1-.44.71,0-.16,0-.24,0-.4,0-.33.57-.2.47-.18.64v.4l.07-.18c1.16-.8.51.17,1.38-.25-.83.39-.4.32-.85.72a.9.9,0,0,1-.26.49c.45-.24-.1.44.55.09-.13.15.1.13-.27.45.24,0,.21-.27.39-.43.69-.26-.08,1.06.87.72.52,0,1-.42,1.5-.41a1,1,0,0,1-.56.43c-.08.34.06.4.34.36a1.23,1.23,0,0,0-.34.42c.14.06.57-.44.5-.1a5.91,5.91,0,0,1-.66.45c.25,0,.62-.15.86-.16-.2.28-.43.3-.63.41a1.08,1.08,0,0,0,1-.21l0-.22c.06,0-.3.35-.41.39-.41.18,0-.3.1-.45h.17c.72-.9-.47-.21-.6-.43l.66-.52-.67.31c.12-.19.42-.54.6-.55.16-.41-.32.1-.1-.33a.16.16,0,0,1,.1-.09l-.29,0c.14-.1.39-.43.38-.27.13-.56-.79.09-.42-.44l.05,0c-.49-.1-.46.4-1.19.68l.92-1.21-.46.4c0-.05-.05-.14.14-.3-.41.18-.17.21-.52.42.25-.54-.59-.24.07-.95-.38.27-.12.39-.5.46.7-.78-.31-.06-.1-.54.43-.33.35,0,.56-.47-.74.55-.12-.41-.35-.4-.53.5-.47,0-.83-.07.19-.16-.07-.65-.05-1l.1-.08c-.57.47-.65.19-.89.15a1.73,1.73,0,0,1,.69-.45l-.13-.13a.56.56,0,0,1-.46.15l.43-.34c-.19-.15-.8.1-.74-.37-.39.33-.88,1.15-1.35,1.15.2-.2.53-.53.67-.55,0,0-.23.09-.18,0l.42-.22c.06-.24-.33.21-.37.1.29-.27.15-.25.39-.45,0,0-.06.18.09.1a.88.88,0,0,1,.21-.65c-.15.17-.39.37-.49.34s.3-.39.35-.63c-.24.15-.13-.16-.57.24,0,0,.15-.25.25-.38-.27.09-.44-.37-.81.16V668h0c-.7.1-.32-.83-.77-1l.14-.13c-.32,0-.45-.31-.88-.15,0,0,.16-.36.36-.5-.23,0-.41.1-.35-.31.38-.1.19-.25.32,0,0-.29.17-.54-.4-.37.43-.27.36-.56.17-.54l-.16.36c-.14,0-.18-.15-.22-.27l.54-.39c.29-.89-1.61.25-.83-.91-.43.21-.07.41-.56.68-.08-.23.5-1,.45-1.08.09-.47-.92.42-.93,0-.16.18-.62.62-.94.58-.08-.22.58-.85.82-.86,0,0,0,.09-.05.14a.36.36,0,0,0,.38-.23l-.19.13c.11-.24-.11-.45.24-.65a.35.35,0,0,0-.36.37c.08-.44-.28-.34-.29-.72-.07.12-.25.34-.28.3,0-.52-.47.14-.74,0,.18-.36.71-.51.29-.54.07-.29.46-.43.65-.5-.52.09-.08-.57-.11-.74l.24,0a.22.22,0,0,1-.23-.1l-.31.36c0-.11,0-.17.12-.29-.29.13-.57.55-1,.69.12-.24-.41-.1.06-.52,0,.4.47-.43.73-.27-.1,0-.14,0-.12-.17a.28.28,0,0,1,.15-.08c.23-.6-.65.34-.85.06.3-.19.47-.48.38-.48.08.11-.42.43-.71.5.07-.35-.32-.06-.36-.17l0,.18c-.31.19-.34.08-.52,0,.21-.19.23,0,.29-.13-.59.25.27-.71-.2-.63.12-.24.52-.42.59-.6-.53.08.2-.52-.27-.5-.32.35-.22.29-.71.42l.55.16-.73.19c.08.11.41.05.4.16-.39.13-.29.07-.56.37.45-.59-.56,0-.32-.52l.94-.71c.22-.58-.84-.09-.86-.61l-.08.23c-.4.24-.21-.17-.44-.17a2.14,2.14,0,0,0,.54-.57c-.23.18-.16-.27-.81.17l.3-.46c0-.4-1.14.36-1.23,0,.4-.17.54-.46.92-.47-.07-.09-.07-.21-.29-.05.16-.2-.61.07-.36-.23-.17.06-.51.29-.56.17a.73.73,0,0,1,.16-.11c-.16.11-.33,0-.62.34.8-1-.64-.73,0-1.58a2.39,2.39,0,0,1-.66-.45c.1-.06.16-.11.15-.06.13-.45-1,.48-.87,0,.49-.42.37-.07.54-.26.54-.35.49-.35.35-.35s-.36,0,0-.18h.09c.4-.2-.6,0-.61-.18l.21,0a2.44,2.44,0,0,1-1.54-.39,3.42,3.42,0,0,0,1,.07c-.13-.07-1,0-1.29-.18a3.8,3.8,0,0,1,1.26,0l.11.11c.88,0-.11-.13,0-.17l.42.06c-.21-.13-1.32-.37-1.38-.58l-.33-.07c-1.24-.46.58.08-.37-.31l1.18.36a12.37,12.37,0,0,1-1.72-1c1,.51,1.61.84,2.19,1.09,0-.05-.2-.2-.87-.5.15.08.48.23.3.18a5.37,5.37,0,0,1-1.77-1c1.33.63,1.44.62,1.48.58s0-.16,1.09.44c-.57-.37-.52-.41-.33-.33s.52.25.4.13l-1.11-.75-.19-.14s0,0-.15-.13l-1.12-.79,0,0s.06,0,.2.1c.58.37,1.13.73,1.64,1.08.71.51.47.37,1,.77.25.14,1,.73,1.63,1.19-.81-.61-1.13-.87-.8-.63l-1.06-.8c-.52-.43,0-.07.44.29s.88.7.4.28l.6.51c-.32-.29,0,0-1.22-1.24.21.19.65.62.75.73s-.14-.22-.26-.45-.15-.38.18,0l.25.35c-.06-.1-.42-.65-.13-.29a4.23,4.23,0,0,0,.25.37c-.08-.12-.32-.59-.15-.38l.2.38c.19.24.08,0,0-.29s-.16-.68-.08-.77a7.12,7.12,0,0,0,.61,1.45l0,.13c.15.14.22-.7.6-1,.08,1,1,.6,1.44,1.22a1.15,1.15,0,0,1,.25-.75c.09.2.44-.54.29.25l-.05,0c0,.8.26.63.45.69l.21-1c.28,1.6,1.46-.32,1.53,1.07.17-.24.33-.21.49-.45l-.09.56a1.22,1.22,0,0,0,1,.23l-.14.38c.24.08.54-1.57.77-1.57l-.05.85c.43,0,.77.84,1.29.14,0,.12-.06.36-.14.39.2,0,.72.66.79-.5-.09.75.43.13.7-.17l-.1.55c.28-.68.31-.88.61-1,.05.08,0,.45-.07.3.18.32.23-.5.46-.18l-.14.34c.22.07.22-.12.39-.52.16-.21.4.18.38.69.06-.3.23-.7.34-.54a.73.73,0,0,1-.09.36c.33.42.62-.59.82,0a.82.82,0,0,0,0,.34c-.3,0-.53-.1-.5-.14-.06.51.17.63-.09,1.31.23-.36.64-1.16.85-.9a.82.82,0,0,1,0,.18l0,.05c.05.06.1,0,.15-.07.07.09.11.16.18.18,0,.42.25.25.37.28,0-.56.19-.46.09-.93,0,0,0,.06-.11.08a.13.13,0,0,0-.06,0v0a1.3,1.3,0,0,1-.29,0c.12-.27.24-.5.34-.18l.25-.89c.09.8.36,1.25.37,1.74.39-.28.88-.14,1.19-1.18.11-.12.09.31.12.48s-.14.08-.19.23c.23-.25.63-.06.73-.79.23.35-.2.67.17.58L676,654c.63,1.22,1.27-1.81,2-.25a.57.57,0,0,1-.08-.26c.86.71,1.86-.53,2.69.56.24.22.29-.25.45-.61l0,.61.29-.69c.38-.5.59,1.51,1.08.55l-.05-.41c.17.09.54-.22.5.24,0-.07.07-.42.13-.21v.32l.43-.53c.31.23-.08,1.25.39,1.32a1.93,1.93,0,0,0,.44-1.12c-.07,0-.17-.2-.17-.52l.16-.16a5.09,5.09,0,0,0-.2-2.54l-.27.56-.08-.45.22,0c-.12-.43-.2-.06-.3.2a1.22,1.22,0,0,0-.1-.5l-.28.88c0-.36.13-.72,0-.92-.13.41.1.82-.1,1.09-.12-.43-.08-.77-.23-.42a.8.8,0,0,1,.08-.49c-.14.28-.36.11-.44.61-.12-.53-.45.12-.41-.76-.05.21-.25.68-.38.72.26-1-.45-.08-.35-1.21-.2.94-.61.4-.92.92,0-.08.06-.23.08-.18-.16-.09-.2-.37-.29-.56a3.89,3.89,0,0,1-.48,1.43c-.16-.77.17-.91.13-1.64,0,.63-.37.61-.33,1.15a2.46,2.46,0,0,1-.17-.89c-.07,1-.15.16-.3.75-.2-.49,0-.92-.27-.63A.85.85,0,0,1,679,649.25Zm-5.89,1.26h0l.12,0Zm-.49,0a.65.65,0,0,0,.21,0c0,.19,0,.39-.09.37S672.64,650.64,672.58,650.47Zm.67,4c-.09.07-.11,0-.11-.16a.37.37,0,0,0,.15,0v-.07A1.59,1.59,0,0,1,673.25,654.45Z"/><path class="a" d="M673.46,653.73l0,0,0-.13-.05.17Z"/><path class="a" d="M669.25,667.93v0l0,.07Z"/><polygon class="a" points="666.05 648.53 666.03 648.67 666.09 648.56 666.05 648.53"/><path class="a" d="M669.71,671.24a.26.26,0,0,0-.08.13Z"/><path class="a" d="M670.43,672.19l0,.26A.65.65,0,0,0,670.43,672.19Z"/><path class="a" d="M670.87,673l.18-.16h0Z"/><path class="a" d="M660.7,662.58l-.05,0C660.52,662.57,660.59,662.58,660.7,662.58Z"/><path class="a" d="M664.47,665.08l-.29.07C664.2,665.24,664.23,665.29,664.47,665.08Z"/><path class="a" d="M657.19,659.1h0l0,0Z"/><path class="a" d="M664.06,665c0,.13,0,.16.12.16S664.16,665,664.06,665Z"/><path class="a" d="M673.47,676l0,0,.06-.06Z"/><path class="a" d="M673.55,676h.08S673.6,676,673.55,676Z"/><path class="a" d="M673.81,676l-.18,0S673.68,676.07,673.81,676Z"/><path class="a" d="M672.8,675l-.16.14Z"/><path class="a" d="M672.5,674.77c0,.1-.16.46,0,.46l.12-.1C672.39,675.3,672.8,674.59,672.5,674.77Z"/><path class="a" d="M673.22,671.92l.1.33c.12-.19.28-.45.41-.38C673.92,671.14,673.44,672.26,673.22,671.92Z"/><path class="a" d="M672.79,671c.19.05.23-.22.32-.3C672.9,670.79,672.84,670.8,672.79,671Z"/><path class="a" d="M668.16,666.06l.39-.33C668.41,665.69,668.4,665.86,668.16,666.06Z"/><polygon class="a" points="665.31 666.84 665.15 667.14 665.54 666.87 665.31 666.84"/><polygon class="a" points="667.55 663.86 667.64 663.85 667.37 663.81 667.55 663.86"/><path class="a" d="M660.41,655.13l-.49.39C660.06,655.53,660.65,655.13,660.41,655.13Z"/><path class="a" d="M658.05,652.8c.44.09.72.14.23,0C658.24,652.79,657.91,652.74,658.05,652.8Z"/><polygon class="a" points="663.94 653.31 663.81 653.5 664.02 653.36 663.94 653.31"/><path class="a" d="M1134.3,684.56c0,.25.35.45.64.05l-.22-.71Z"/><path class="a" d="M1137.52,683.06c.17-.64.24-1.51-.46-1.67,0,.86-.24.77-.13,1.74-.29.4-.75.46-.87.23,0,.25-.64.45-.53.93a2.07,2.07,0,0,0,1.7-1.57C1137.46,682.69,1137.46,682.94,1137.52,683.06Z"/><path class="a" d="M1172.32,649.64l-.28.16A1.17,1.17,0,0,0,1172.32,649.64Z"/><path class="a" d="M1194.09,629.18c-.16.17-.18.28-.15.33C1194.07,629.34,1194.17,629.19,1194.09,629.18Z"/><path class="a" d="M1198.3,626.22l-.25.17C1198.18,626.36,1198.29,626.31,1198.3,626.22Z"/><path class="a" d="M1172.32,649.64l.71-.41C1172.92,649,1172.63,649.4,1172.32,649.64Z"/><path class="a" d="M1141.05,677.2a1.32,1.32,0,0,0-.18.43c.08-.11.15-.23.24-.34Z"/><path class="a" d="M1163.28,659.23l-.17.17a1.32,1.32,0,0,0,.05.33Z"/><path class="a" d="M1156.23,666.47c.18-.15-.16-.6-.28-.83a.69.69,0,0,1-.07.62A.81.81,0,0,0,1156.23,666.47Z"/><path class="a" d="M1144.27,677.18l-.15.26A3,3,0,0,0,1144.27,677.18Z"/><path class="a" d="M1168.54,654.26a.52.52,0,0,0,.2.08A.28.28,0,0,0,1168.54,654.26Z"/><path class="a" d="M1394.31,486.31a.26.26,0,0,0,0,.09C1394.38,486.32,1394.38,486.28,1394.31,486.31Z"/><path class="a" d="M1406,483.4l-.13.1a2.65,2.65,0,0,0,.11.3Z"/><path class="a" d="M1205.59,620.36l0,0C1205.41,620.6,1205.51,620.49,1205.59,620.36Z"/><path class="a" d="M1270.59,564.88c-1.07.18.87-1.47-.63-1C1270.2,563.94,1269.43,565.34,1270.59,564.88Z"/><path class="a" d="M1141.29,677.07a4,4,0,0,1,.28-.3A1.22,1.22,0,0,0,1141.29,677.07Z"/><path class="a" d="M1270,563.85h0l-.15,0Z"/><path class="a" d="M1221.29,605.71a.72.72,0,0,0-.33,0A.53.53,0,0,0,1221.29,605.71Z"/><path class="a" d="M1208.85,615.81l.34-.2A1.33,1.33,0,0,0,1208.85,615.81Z"/><path class="a" d="M1227,599.57c.19-.11.3-.1.47-.35h-.11C1227.28,599.36,1227.2,599.48,1227,599.57Z"/><path class="a" d="M1233.53,594l-.2,0-.18.2Z"/><path class="a" d="M1371,498.51a1.56,1.56,0,0,1,.58.27C1371.27,498.48,1372.34,497.78,1371,498.51Z"/><path class="a" d="M1141.28,677.42a.3.3,0,0,1,0-.35l-.18.22C1141.15,677.37,1141.2,677.43,1141.28,677.42Z"/><path class="a" d="M1224.3,596l1.1-.83A9.92,9.92,0,0,0,1224.3,596Z"/><path class="a" d="M1316.26,528.31l.23-.23A.47.47,0,0,0,1316.26,528.31Z"/><path class="a" d="M1228.47,592.45a2.26,2.26,0,0,0,.84-.21.53.53,0,0,0,0-.22Z"/><path class="a" d="M1371.58,498.78h0Z"/><path class="a" d="M1379.06,493.48c-1.18.58-.23.93-.28,1.43-1.3.9-.89-.16-1.54-.25-.78.61-1.14,1.56-1.81,1.86-.1-.08-.25-.06-.17-.27-.65,1-2.72,1.42-3.46,2.62a.35.35,0,0,1-.22-.09,1.69,1.69,0,0,1,.62.82c-.52.28-.76.91-1.18.58.33-.15.27-.34.35-.55l-.45.47c-.81-.37.64-.6.41-1.05-1,.74-2,1.89-2.87,2.13-.48-.52,1.81-1.18.44-1.16l1.39-.41c-1.45-.47.81-.33-.6-.9-1.76.68-1.72,1.26-3.47,1.93-.21.53.37.44.17,1-2.06,1.81-2.64-.57-4,1.12-.24.64,0,1.49-1.47,1.73l.07-.91c-1.65.78-.41,1.46-2.34,1.88.16-.42,1.15-.88.87-.84-1.38,0-.58.79-1.42,1.23l-.49-.51c-1.67,1-3.33,2.4-5.18,3.5,0-.24.24-.59-.3-.55a34.83,34.83,0,0,1-7.64,3.49l-.6,1c-.21.11-.51,0-.34-.24-1,.28.13.35-.19.78-.49.32-.84.07-.6-.26-1.34,1.29-4,3.37-6,3.72l.24-.33c-1.41.5-.88,1.85-2.35,2l.18-.22c-2.9,1.36-5.7,3.58-8.26,4,0,1-2.94,1.25-2.53,2.37-1.88.4-1.54-.05-4,.9-.62.31-.5,1.17-1.17,1.72l-.33-.52-.65,1.16-.91-.32-.6.55c.3-.13.72-.11.77.07-.91.88-2.81,1.21-3,1l-2.24,2c-.08-.25.3-.58.55-.92-1,1.36-.59-.4-1.52.84.24,0,.11.37.15.49a7.73,7.73,0,0,0-3.16,1.67l0-.48c-1.94,1-3.78,2.65-5.85,4,.85-.32,1.08.41.51.87l-.59-.39c-.17.59.76-.21.23.73-.8.44-.92-.29-.59-.75l-.81.8c-.16-.13,0-.36-.08-.61-.16.59-2,.51-2.13,1.46l-.16-.13c-2.06,1.35-2.87,2.14-4.52,3.26.28.49-.44.82-.69,1.52a24.9,24.9,0,0,0-4.33,2.28c-.85.95,0,.61-.29,1.2-.37-.37-1.78.69-1.24-.14a34.86,34.86,0,0,0-4.12,3.53c.36,0,.68-.11.64.13-.35.35-1,.46-1.11.22l.07-.12c-2,2.38-6.59,2.75-7.86,5.08l.07-.12-1.65,1.94c-1,.62.32-.72-.55-.46-1.63,2.3-3.46,2.45-4.88,4.24-2.28-.18-4.78,3.73-7.21,4.36l.32.2c-.26.64-.7.27-1.1.48.22.18.71-.14.53.23-3.69,3.48-8.45,6.12-12.7,9.12-1.54,1.11.32,2.1-2.07,2.94l.11-.94c-2.51,3-6.06,4.95-8.47,7.9.07-.26,0-.42.23-.65-.91.14-2.24,1.88-2,2.18-.47.35-.33-.18-.73-.1-.79.3-1.12,1.76-1.75,1.67-.1,0,.07-.26.16-.39-.25.51-1.87,1.52-1.14,1.62-1.24.71-1.88,1.93-3,2.41-.15.94-2,1.33-1.62,2.14-.52-.75-2.36,1-2.75,2,0-.4-.77.28-.76-.23-.75.68-1.33,1.43-.89,1.66-2.1.43-2.21,3.16-3.91,2.82-1.92,2.37-3.77,4.48-5.64,6.44-.53-.73,2.16-2.06,1.45-2.69-1.67,2-2.25,3.56-4.29,5.1-.57.34,0-.54.08-.81-1.66,2-3.74,3.25-5.11,5.14,0-.06.07-.3.2-.5-.32.32-.87.6-.56.87l.26-.38c.93,0-.49,2.11-.34,2.4-.24-1.39-1.84,1.32-2-.6-.16.26-.3.66-.07.81-.37.24-.58.22-.47-.31-1,1.26-.31,1.19-1.37,2.18-.14-.15,0-.4,0-.68a4.06,4.06,0,0,1-1.57,2.3c0-.13-.23-.15,0-.4-1.5,1.49-1.93,3.22-3.87,4.54-.09-1.1-.77.33-1.37-.13l-.76,1,.61-.08c-.8.74-1.13,1.8-2,2.27l.39-.79-1.4,1.51,1-.59c-.54,1,.73.61-.47,1.45.16-.25-.8.75-1.52.82h0a2.74,2.74,0,0,1-1.18,1.53c-.31,0-.44-.72-.65-.74,0,.82-1.75,1.88-1.78,2.82a.54.54,0,0,0-.31-.56l0,.67c-.48.23-.59.22-.75-.06-1.17,1,1,.36-.59,1.3.08-.13,0-.14.14-.39-1.48,1.08-2.33,2.63-3.69,3.63-.87-.2.91-1.16.07-1.22-1.62,1.78-2.93,4.13-4.72,5.63l.37-.24c.51,1-1.6.84-2.1,2,.16-.26-.14-.69-.11-.55-1.26,1-2.15,2.47-3.64,4.39l0-.4a32.17,32.17,0,0,0-2.67,2.25c0,.41-.47.78.06.82-3.33,1.08-3.68,4.76-6.58,5.78.24-.23.4-.72.21-.54l-1.51,1.84c.46.19.42,0,1-.11a2.58,2.58,0,0,1-.77,1.43c.54-1-.53-.52-1-.39.16,0,.15.27.28.35-1.46.28.51.8-1.07,1.6l-.11-.23a6.23,6.23,0,0,1-1.06,1.61c-.58-.18.29-.66,0-1-.65.7-.6,2.06-1.59,2.3.18-.4.59-.81.77-1.21a2.63,2.63,0,0,0-1.63.85l.06,0-1.34.95.41-.17c.15,1.83-1.53,1.91-2,3.7.49-1.72-.17-.54-.51-1.05-.41.18-1,.49-1,.24-.19.89-1.17.64-1.41,1.9-.18-.1-.59.57-.82.1-.58.82.41.07.52.31-.59,1.55-3.09,2-4,4.19-1.06,1.61-.84,2.32-1.84,3.8-.64.2-.17-.85-.17-.85a4.43,4.43,0,0,0-1.81,1.83c0-.25-.23-.22-.58-.17-.47.55.17.84-.71,1.32a2.82,2.82,0,0,1-.05-1.07c-.47.74-.8,1.59-1.3,2.34-.4-.07,0-.74.07-1.12-.59.82-1.59,2-1.42,2.64l.59-.32c-.24.28-.46-.19-.35-.45.3-.9,1-.74,1.17-.63l-.35.53c1.27.34,1.64-1.92,2.58-2.78l.22,1,.42-1.41c.35,0,.81.15.46.68.93-.36.35-.78,1.23-1,.11,0,.11,0,.08.12l.44-.8c0,.25.53.31.06.61,1.46-.79,1.35-2.26,2.22-2.25l0,.14c1.34-1.77-.29-.59.36-2.27l1.86.27-.29-.58c.18-.15.53-.44.64-.21.3-.89-.29-.08-.22-.71,1.16-.39,1.93-2.33,2.8-1.82-.06-.61-1,.49-.4-.57,1,.5.82-1.09,1.86-1.46.17.6-.7,1.07.35.7-.23-1.07,1.51-1.24,2-2-.49-.54,1.07-1.52,1.89-2.7.11.24,2.16-1.61,3.27-2.36l0,.11c-.34-.7.72-1.56,1.32-2.36.29.34.28.59,0,1.1l.66-.65a1.67,1.67,0,0,1,.48-1.09l.22.55c.86-.88,1.33-2.2,2.72-3.05-.29-.43-1.91-.13-.94-1.55.24.15.61.44.38.83.08-.12.2-.52.5-.64l-.16.8c.66-.36,0-.54.44-.91.27.28.51-.1.67.18-.08.13-.48.24-.53.5a3.17,3.17,0,0,1,1.65-.76c-.2-.12-.38-.38-.07-.75.86-.89.64,0,1.29-.32,0-.4.79-.75.39-1.19.26-.25.5-.1.71-.08.28-.64,2.09-2.15,1.13-2.09l-.14.08a.9.9,0,0,1,.05-.09h0c1.09-1.89,3.35-2.81,4.66-4.45l.14.15c.73-1,1.88-2,2.22-3,.27-.26.87-.35.92-.07a4.17,4.17,0,0,1,1.71-1.73c-.44.92.45,0-.52.87,1-.74,1.42-.71,2-2,0,.68,1.1-.19,1.42-.71l-.87.35a9.15,9.15,0,0,1,1.31-1.27l.24.7c2.38-1.16,2.36-4.12,4.69-4.46.16-.79-1.23.7-1.17-.1.91-.73,2.45-.87,2.72-1.11,1.41-.83.41-1.73,1.79-2.68-.31,0-.9-.35-.14-1.37.91-.73,1.72-.25,1.32.39-.19.2-.34.24-.39.17-.21.32-.5.74,0,.61l0-.28c.58-.22,1.73-1.33,1.73-.79.48-.77,0-.54-.56-.18,1.33-.78,1.71-1.59,3-2.48-.26.08-.62,0-.44-.14,1.84-1.32.41-1,1.46-2.13.87-.33.36.85,1.27-.43.85-.46.57.33.43.73.71-1.3,2.11-1.57,2.75-2.06l-.41.65a4.28,4.28,0,0,1,.78-.88l-.63-.06c.37-.24.64-.49.77-.34.11-.53-.79-.34-.43-1.26.58-.22,1.1-1.39,1.68-1.07-1.47,1.09.57.33-.48,1.46a2.52,2.52,0,0,1,.8-.74c.1,0,.05.13,0,.24,1.64-.77.09-1.07,1.41-2.29.08.42.76.21.93,0-.54.48-.66-.2-.35-.85,1.05-.56.8-1,1.27-1.37l-.6.37c-.07-.42.39-.77.91-1.39.24.16-.41.63-.11.53.24-1.06,1.93-.87,2.57-2,.59-.2.49.46,1,.24.73-1.27,1.45-.64,2.28-1.9-.63-.08-.61.06-.15-1l-1.57,1.86.69-1.54c-.55.48-.94,1.24-1.32,1.47.28-.78.31-.64-.22-.7,1.22-.13,1.19-1.63,2.37-2l.77.9c1.63-.76,1.88-2.5,3.75-3.78l-.68.33c-.09-.55,1-1,1.4-1.6.22.34.65.14,1,.12-.22-.2,1.24-1.08.87-1.81l1.09-.28c1.49-1.05.8-2.22,2.19-3.29-.11.67.66.36,0,1.37.43-.39.87-.69.7-.9.41,0,.84-1.48,1.5-1.54.07-.29-.14-.65.38-1.05.11,0,.13.15.13.15-.13-.15.6-.87-.12-.83,2.17-.23,3.76-3.32,5.63-3.53.88-.92,2-2,2.83-2.78,0,.14.12.15-.07.26,1.45-.75,0-1.5,1.65-2.36,1.12-.11-.51.89.09.7,1,.83,1.55-1.55,3-1.76l-.17.24c1-.26,1.41-1.84,2.62-2.76,0,0,0,.14.12.16a11.5,11.5,0,0,1,2.76-3.69c0,.68-.35.63.2.85.46-.47-.68-.52.25-1.45.51,0,1.4-.46,1.85-.11l-1,.8c1,.15,1.23-1,1.82-1.33l.13.29c1.41-1.26.93-1.89,2.55-3.12l-.31,0c.38-1.31,1-.25,1.5-1.39l.76.4a31.22,31.22,0,0,1,2.46-3.14,14.12,14.12,0,0,1-1.75,3c.57-.45,1.88-1.59,1.94-2.14-.19.25-.35.63-.65.71a5.91,5.91,0,0,1,2.17-2.91c.75,1.36,3.18-2.07,4.73-1.79,1.69-2,4.2-2.86,6.52-4.73-1.56-.31.67-.55-.21-1.42.51-.48.73-.62.83-.6l2.12-.68c.61,0-.37.61-.15.79,1.27-.83.82,0,1.82-.31-.43-.23,0-.82.83-1.21l-1.31.29c1.31-1.81,2.08-.28,3.4-2.09l-.31.72c.75-.83,3.22-2.46,3.54-3.85.24,0,.65.13.31.48,2.22-1.39,4.16-4.21,6.18-4.89v.36c.35-.36.38-1,1-1.06,0,.12,0,.36.21.24s.76-1.18,1.39-1.41l-.26.6c2.31-1.15,2.74-2.94,4.39-4.34.48.71,2.31-.17,3.24-.59l0,.12c2.55-1.54,3.82-3.38,5.94-5.18,2-.13,5.06-2.88,7.68-3.87-.44.08-.3-.62.07-1,.64-.18,1.2-1.45,1.54-.71l-.2.11c.83.42,1.85-.45,2.75-1l-.41-1c3.11-.1,5.78-4.19,7.75-3.78.43-.56,1.11-1,1.54-1.54l.26.51a28.89,28.89,0,0,0,4.35-2.39l-.2.58c1.12-.6.57-2.21,1.57-2.82l.73.56c1.91-1.11,4.21-1.56,5.73-3.31a.47.47,0,0,1-.21.57c.91-.51,3.8-1.44,2.91-2.27.38.65,2-1,2.93-1.88l.1.58a3.89,3.89,0,0,1,1.62-2.14c.33-.09.47.26,0,.34,1.11-.27.51-.87,1.83-1.25l-.27.55c1-.51.86-.63,1.21-1.3.53-.54,2-.9,2.36-.54a1.46,1.46,0,0,1,1-1.2c.17.13,0,.35-.07.46,1.86-.57,2.22-1.89,3.64-2a.41.41,0,0,0,.35.19,21.81,21.81,0,0,1-2.37,1.14c.24.45,1.37,0,.83,1,.7-.8,1.8-2.32,3-2.66a.73.73,0,0,1,.23.09l-.09.1a1.36,1.36,0,0,0,.64-.42,4.82,4.82,0,0,0,1-.32c.32.31,1.35-.44,1.9-.71-.3-.47.45-.76-.43-.83.11,0-.07.12-.42.33a.92.92,0,0,0-.21.17l0-.07-1.33.74a1.62,1.62,0,0,1,1.38-1,10.73,10.73,0,0,1,.34-1.2c1.1.31,2.73-.06,3.15.27,1.51-1.14,3.81-2.21,4.38-3.68.41-.36.68,0,.94.05-.23.23-.56.39-.64.6.82-.73,2.76-1.53,2.65-2.3,1.35-.31-.36.95,1.22,0l-.12.31c3.77-.59,4.4-4.35,8.67-4.82-.29,0-.44.07-.54,0,4.38-1.48,8.13-4.83,12.64-5.94,1.24-.39,1.15-.87,1.69-1.54l.52.41.88-1.24c1.45-1.33,3.6-.2,5.3-2.16l-.46-.22c.8-.33,2.32-1.47,2.41-1,0-.11.05-.51.45-.47l.17.27,1.64-1.46c1.57-.55.35,1.23,2.51.18.74-.52,1.84-2,1.44-2-.33.15-.91.25-1.08,0l.65-.52c-.3-.89-.19-2-2.27-1.68l-1,1.15-.61-.2,1-.56c-.79-.07-1,.45-1.29.9a.93.93,0,0,0-.75-.17l-.81,1.42c-.31-.25.21-.93-.69-.68-.38.66.92.44.1,1.17-.79-.07-.77-.47-1.3.21-.21-.16-.13-.37.09-.61-.48.58-1.58,1-1.67,1.56-.86-.14-2,1.21-2.37.39a4.33,4.33,0,0,1-1.33,1.51c.56-1.48-2.16,1-2.4-.11-.33,1.25-2.59,1.8-3.72,3,0-.11.12-.32.26-.34a5.3,5.3,0,0,1-1.73.27c.25.75-.86,1.52-1.29,2.28-1.29-.19.15-1.11-.47-1.61.33.54-1.35,1.4-.79,1.71-.94-.05-.73.11-1.39-.28.31.94-.6.49-.93,1.33-1.26.1-.68-.68-1.7.17C1378.19,494.31,1379.06,493.48,1379.06,493.48ZM1352.54,509h0l.55-.32Zm-2.29,1.19c.29-.12.64-.3,1-.49a.25.25,0,0,1-.06.46C1351.26,510,1350.67,510.13,1350.25,510.16Zm6.64.95c-.32.25-.5.22-.6.14a5.52,5.52,0,0,0,.6-.38s0-.06,0-.09A.73.73,0,0,1,1356.89,511.11Z"/><path class="a" d="M1357.2,510.12s.06-.08.13-.12h-.27l0,.22Z"/><path class="a" d="M1172,649.83l0,0a.34.34,0,0,1-.14,0Z"/><polygon class="a" points="1318.58 526.57 1318.65 526.69 1318.78 526.46 1318.58 526.57"/><path class="a" d="M1160.5,658.37a.41.41,0,0,0-.23,0S1160.39,658.4,1160.5,658.37Z"/><path class="a" d="M1156.1,662.64l-.75.47A6,6,0,0,0,1156.1,662.64Z"/><path class="a" d="M1152.59,665.8a.7.7,0,0,0,.11.23h0Z"/><path class="a" d="M1206.07,613.26a1.34,1.34,0,0,0,.11-.14C1206.43,612.75,1206.24,613,1206.07,613.26Z"/><path class="a" d="M1190.67,629.46a7.18,7.18,0,0,1,.34-.68C1190.69,629,1190.46,629.22,1190.67,629.46Z"/><path class="a" d="M1224.18,596.09h0l.12-.1Z"/><path class="a" d="M1191.78,628.07a2,2,0,0,0-.77.71A3.06,3.06,0,0,0,1191.78,628.07Z"/><path class="a" d="M1138.06,680.16l-.18.14a.14.14,0,0,1,0,.09Z"/><path class="a" d="M1137.93,680.39l-.13.22C1137.88,680.53,1138,680.45,1137.93,680.39Z"/><path class="a" d="M1137.53,681.09l.27-.48C1137.67,680.74,1137.5,680.89,1137.53,681.09Z"/><path class="a" d="M1142.63,675.9l-.1-.2A.42.42,0,0,0,1142.63,675.9Z"/><path class="a" d="M1143.92,674.51c-.35.29-1.11.5-1.46,1l.07.15C1142.53,675.28,1143.86,675.05,1143.92,674.51Z"/><path class="a" d="M1151.27,670.65l-1.23,1c.35,0,.81-.1.34.45C1152.25,671.15,1149.74,672.07,1151.27,670.65Z"/><path class="a" d="M1155,667.37c-.53.68.23.21.28.33C1155.47,667.18,1155.53,667.05,1155,667.37Z"/><path class="a" d="M1180.24,642.38l.29.43C1181,642.3,1180.4,642.66,1180.24,642.38Z"/><polygon class="a" points="1183.26 635.72 1182.59 635.94 1182.69 636.49 1183.26 635.72"/><polygon class="a" points="1188.71 635.61 1188.55 635.85 1189.22 634.97 1188.71 635.61"/><path class="a" d="M1232.68,595.33l-.56-.35C1231.86,595.35,1232.25,596,1232.68,595.33Z"/><path class="a" d="M1252,578.33a1.24,1.24,0,0,0,1.26-.75C1252.8,577.91,1252.2,578.08,1252,578.33Z"/><polygon class="a" points="1315.35 534.46 1315.01 534.91 1315.75 534.25 1315.35 534.46"/><path class="a" d="M1391.22,510.29c.14.09.51.23.47.13l-.59-.3Z"/><path class="a" d="M1392.54,510.31a4.61,4.61,0,0,0-1.33-.69c.55.32.3.24,1,.61,0,.1-.24,0-.46-.07.15.09-.18,0,.19.25s.57,0,.23-.27A1.94,1.94,0,0,1,1392.54,510.31Z"/><path class="a" d="M1396.22,504.1h-.09A.13.13,0,0,0,1396.22,504.1Z"/><path class="a" d="M1398.25,500.15s0,.07.11.1S1398.3,500.16,1398.25,500.15Z"/><path class="a" d="M1399.21,499.73l-.06,0C1399.21,499.76,1399.25,499.75,1399.21,499.73Z"/><path class="a" d="M1396.22,504.1l.24,0C1396.26,504,1396.29,504.06,1396.22,504.1Z"/><path class="a" d="M1391.44,508.79a.52.52,0,0,0,.13.12l0-.08Z"/><path class="a" d="M1396,506.11v0l.23.13Z"/><path class="a" d="M1395.49,507.53a4.27,4.27,0,0,0-.7-.35,1,1,0,0,1,.33.21Z"/><path class="a" d="M1393.67,509.35l.06.07Z"/><path class="a" d="M1396.49,505.16l.19.07Z"/><path class="a" d="M1384,486.75v-.1C1384,486.71,1384,486.75,1384,486.75Z"/><polygon class="a" points="1382.11 484.06 1382.13 484.02 1382.12 483.71 1382.11 484.06"/><path class="a" d="M1400.4,498.72h0C1400.43,498.78,1400.43,498.76,1400.4,498.72Z"/><path class="a" d="M1405.38,485.46c-.63.3-.65-.18-1.37.23C1404.27,485.6,1404.93,485.79,1405.38,485.46Z"/><path class="a" d="M1391.52,508.78a.14.14,0,0,1,0-.06S1391.51,508.76,1391.52,508.78Z"/><path class="a" d="M1404,485.69h0l-.07,0Z"/><path class="a" d="M1401.31,495.65l-.24-.07Z"/><path class="a" d="M1399.66,497.54l.09,0S1399.67,497.52,1399.66,497.54Z"/><path class="a" d="M1401,494.2c.06,0,.13,0,.08-.06h-.07C1401.12,494.17,1401.14,494.21,1401,494.2Z"/><path class="a" d="M1401.53,493l-.11,0v.05Z"/><path class="a" d="M1387.86,486.29c0-.15-.06-.33-.08-.5C1387.82,486.19,1387.64,486.34,1387.86,486.29Z"/><path class="a" d="M1391.73,508.91a.57.57,0,0,1-.21-.13s0,0,0,.05Z"/><path class="a" d="M1397,492.46l.16-.15A.33.33,0,0,0,1397,492.46Z"/><path class="a" d="M1397.05,485.77l0,.06S1397,485.83,1397.05,485.77Z"/><path class="a" d="M1397.27,491.72a1.39,1.39,0,0,0,.41,0l-.13-.08Z"/><path class="a" d="M1387.78,485.78h0Z"/><path class="a" d="M1386.5,487.18c.2,0,.06-.72.08-1.15.22-.22.13.54.23.91.13-.2.21-.88.32-.86a1.08,1.08,0,0,1,0,.32c.12-.59.45,0,.6-.8q0,.11,0,.18c0-.36-.07-.74-.08-1,.09,0,.14-.47.2,0-.06,0-.05.18-.07.34l.08-.22c.12.69-.11.25-.09.76.17-.23.35-.82.49-.63.07.68-.3.25-.09.84l-.23-.25c.22,1.06-.13-.07.08,1.07.28.18.29-.36.58-.18,0-.38-.05-.55,0-.93.36-.7.39,1.69.64.77,0-.46,0-1.32.27-.87l0,.77c.28.06.1-1.11.41-.61,0,.31-.2.27-.15.35.21.6.1-.44.24-.44l.07.67c.28-.12.57-.62.88-.76a1.45,1.45,0,0,0,0,.62c.38-.36.86,0,1.26.43l.12-.6s.08.26.05.38c.16.22,0-.37,0-.61.08,0,.13.34.08.51.24-.51.7-1.1,1-.49l0,.18c.23.23.18-1.22.41-.68l0,.11c.48.23,1-.33,1.38.53,0-.84.49.36.46-.82.3.57.23.78.63,1.16.1.05.11-.75.23-.87l0,.61.14-.65.13.73.11-.17a.81.81,0,0,1-.11-.44c.17-.29.46.4.48.72l.41-.54a1.27,1.27,0,0,1-.11.49c.2-.64.07.65.25.06a2.67,2.67,0,0,1,0-.49c.12.37.37.36.54.19l0,.43a.62.62,0,0,0,.47-.08c0-.07.06-.14.09-.14a4.7,4.7,0,0,1,.13-1l-.07.66a7.54,7.54,0,0,1,.12-.75,3.57,3.57,0,0,1-.14,1,2.25,2.25,0,0,1,.08-.24l-.11.56c.11-.41-.15.66.06-.06l-.06.2s.14-.22.21-.26a6.68,6.68,0,0,1,.6-.92c0,.18-.27.63-.18.58.3-.28.43-.49.76-.84a6.67,6.67,0,0,1-.71.87c.17-.07.18-.11.8-.45a7,7,0,0,1,.53-.48c.14-.07-.17.24-.48.48l-.07,0c.56-.32.2.14-.25.48s-.84.53-.14.25l-.07,0a3.1,3.1,0,0,1,.47-.14l.21-.05c-.14.1-.48.16-.9.35.53-.16.46-.08.36,0s-.23.12.08.11c-.9.2-.86.18-.77.22s.23.1-.27.06l.37,0c.35.07-.22,0-.3,0,.27.05.33,0,.52.08.42.1-.88.77-1.44,1.29-.2.22,1.64.85.72.85l-.58-.34c.52.82-.46,1.05,0,1.82-.13-.09-.31-.17-.29-.21-.49-.08-.19.39.18.54-.08.06-.34-.12-.54-.15s.45.51,0,.38a.32.32,0,0,1-.15-.12c.18.16-.19.31.35.45-.33.09.07.46-.29.49.53.33-.41.21.38.58-.83-.36-.81.06-.47.34-.23-.15-.3,0-.63-.2,0,.15,0,.34.49.49-1.1-.16.6.85-.74.46a4.94,4.94,0,0,1,.47,1.55c-.83-.36.08-.44-.8-.79.2.5.83,1,.49,1.26-.16,0-.35-.2-.48-.29.2.49-.35.65,0,1.14a.58.58,0,0,1-.19-.16c0,.08-.19.1.2.25l-.08-.11c.59.13,1,.72,1.33.85-1-.55-.4.2-1.7-.53a1.13,1.13,0,0,0,.47.29c-.1,0-.26,0-.52-.2.12.31.55.4.46.59a3.42,3.42,0,0,1-.44-.25c.31.25.63.5.4.6-.1-.06-.26-.1-.23-.15-.07.32.75.89.27,1.07-.76-.43-.31,0-1-.27l.13.25.37.07c-.08.15.37.49.09.52l-.24-.23,0,.34.32-.05c.3.3.88.34.61.46-.05-.07-.07.15-.51.06h0c.19.16.39.33.17.37s-.75-.34-.91-.38c.55.31,0,.42.6.76a3.4,3.4,0,0,0-.58-.26l.45.26a1,1,0,0,1-.54-.15c-.17.18.9.3.42.39a.92.92,0,0,1-.16-.12c-.3.16.1.6-.22.73-.72-.22-.09-.27-.71-.43,0,.38.55,1,.26,1.27l.1,0c1,.44-.58,0-.19.38a1.87,1.87,0,0,0-.42-.22c-.24.16.06.55.23,1l-.23-.15c-.28,0-.27.29-.44.38.23.14.16.21.54.31-1.61-.17.44,1.13-.92,1,0-.05-.17-.2-.19-.17l.1.42a2.33,2.33,0,0,0,.64.14c.23.14.39.32.36.4-.22-.27-.69-.29-1-.32.13,0,.27.12.4.17-.83-.14.85.39.25.4l-.22-.1c.07.13.34.34.24.4-.51-.16-.2-.18-.6-.36,0,.14.83.65.29.56-.12-.11-.09-.19-.2-.3-.63-.12-.49,0-.62,0h0l-.35.12h.18c1.22.69.1.43.85,1-.71-.55-.45-.23-1-.48a1.2,1.2,0,0,1-.54-.08c.41.29-.42,0,.18.44-.19-.06-.07.11-.51-.1.08.19.33.1.55.2.53.46-1,.18-.23.83.24.4.83.7,1,1.07a1.34,1.34,0,0,1-.63-.34c-.32,0-.31.14-.15.35a1.61,1.61,0,0,0-.51-.17c0,.12.63.34.31.36s-.5-.27-.69-.4c.12.19.41.44.52.63a2,2,0,0,1-.63-.4,1.11,1.11,0,0,0,.62.72h.21c0,.06-.44-.15-.51-.23-.34-.28.24-.09.42,0l.08.14c1.1.35,0-.42.11-.57l.74.39-.57-.44a1.69,1.69,0,0,1,.74.33c.43,0-.23-.22.24-.15a.2.2,0,0,1,.13.06l-.18-.22c.15.09.55.21.41.23.53,0-.43-.58.19-.43l0,0c-.14-.41-.56-.26-1.13-.76l1.46.42-.55-.26s.1-.07.32,0c-.34-.28-.25-.08-.59-.3.58.06-.07-.51.84-.18-.4-.23-.39,0-.62-.27,1,.35-.09-.26.41-.21.48.25.16.27.67.32-.81-.44.29-.2.18-.38-.67-.28-.18-.36-.32-.65.22.1.52-.21.84-.29l.11.05c-.67-.32-.46-.45-.55-.64a1.92,1.92,0,0,1,.71.41l0-.13c-.21-.12-.31-.21-.35-.32l.49.24c.05-.18-.45-.59,0-.67-.47-.2-1.39-.37-1.61-.73a2.82,2.82,0,0,1,.78.38s-.19-.16-.06-.16l.39.27c.23,0-.34-.2-.26-.26.36.15.28.05.57.18,0,0-.18,0-.05.1a.91.91,0,0,1,.65,0c-.21-.08-.49-.2-.51-.29s.46.13.69.11c-.24-.15.07-.15-.47-.38,0-.05.28,0,.44.09-.21-.18.1-.44-.53-.58h0l0,0h0c-.43-.52.55-.47.44-.85l.18.07c-.14-.26,0-.43-.31-.71,0-.05.38,0,.59.13-.08-.19-.28-.29.1-.35.26.26.3.07.18.23.22-.11.53,0,.11-.41.44.25.64.12.53,0l-.38,0c0-.12,0-.18.12-.25l.59.3c.89,0-1-1.15.35-.9-.39-.26-.38.07-.85-.22.15-.13,1.1.07,1.12,0,.43-.07-.81-.57-.49-.7-.23-.07-.82-.28-1-.54.15-.12,1,.19,1.14.36s-.08,0-.15,0a.45.45,0,0,0,.39.22l-.22-.11c.26,0,.33-.22.67,0a.4.4,0,0,0-.49-.16c.4-.08.14-.32.44-.44-.14,0-.41-.09-.39-.12.4-.2-.36-.31-.37-.56.38,0,.78.37.59,0a1.25,1.25,0,0,1,.75.34c-.34-.36.42-.24.55-.32l.13.18a.17.17,0,0,1,0-.21l-.46-.12a.28.28,0,0,1,.3,0,7.79,7.79,0,0,1-1.09-.54c.25,0-.14-.34.45-.12-.3.16.6.21.61.46-.06-.07,0-.12.07-.15a.26.26,0,0,1,.14.09c.62,0-.61-.38-.5-.62.32.17.65.2.6.13,0,.1-.57-.18-.78-.37.32-.06-.12-.25-.06-.32l-.16,0c-.31-.17-.24-.23-.3-.38.26.1.14.17.27.18-.53-.36.71,0,.39-.36.26,0,.62.25.8.24-.35-.37.53,0,.27-.37a1.11,1.11,0,0,1-.74-.39l.18.46-.56-.48c0,.1.19.33.09.36a.91.91,0,0,0-.59-.3c.71.14-.28-.43.23-.4l1.09.45c.59,0-.38-.65,0-.84l-.23,0c-.42-.22,0-.22-.12-.39a2.65,2.65,0,0,0,.77.2c-.28-.1.11-.21-.6-.54l.53.06c.3-.17-.92-.71-.7-.9.37.24.68.23.89.51,0-.08.14-.12-.12-.23.25,0-.4-.42,0-.35-.15-.1-.52-.27-.46-.35a.83.83,0,0,1,.18.08c-.18-.08-.18-.24-.62-.33,1.24.22.2-.72,1.27-.53a1.94,1.94,0,0,1-.05-.66c.11.06.19.08.14.09.43-.07-1-.56-.51-.65.64.11.26.26.52.27,1.21.46,0-.36.73-.24l0,.07c.46,0-.33-.5-.15-.67a1.08,1.08,0,0,0,.18.07,1.69,1.69,0,0,1-.74-1c.45.26.22.2.71.35,0-.11-.78-.29-.84-.52a4.16,4.16,0,0,1,1.08.2l0,.18c.69.19.06-.22.21-.27l.29.13c0-.29-.71-.6-.55-.85l-.23-.07c-.65-.45.46,0,0-.33l.75.26a4.12,4.12,0,0,1-.62-.88,5.25,5.25,0,0,1,1,.91c0-.1.09-.36-.25-.56,0,.07.21.19.08.19-.52-.36-.74-.64-.64-.83a1.93,1.93,0,0,0,.7.2.42.42,0,0,0,.29-.21.86.86,0,0,1,.9-.46c-.16-.35,0-.6.26-.9a2.61,2.61,0,0,0,.67-1c-1.43.4,0-.19-1.38.06-.05-.12,0-.16.08-.19.32-.18.64-.38.94-.59s.28.06.59,0c.16-.36.62-.29,1-.62-.5.18-.69.08-.5-.16-.21.16-.42.3-.64.45-.67-.18,1.14-.76.42-.91l.41,0a.32.32,0,0,1-.11-.12c-.12-.2-.22-.6-1-.38.12-.1.4-.32.51-.27,0-.29-.4-.46-.75-.57s-.65-.17-.58-.49l.27-.18c-.15,0-.57.29-.44,0,.1-.08.26-.19.24-.23s-.62.26-.6.07l.35-.2c-.16-.58-1.31.34-1.81.49.59-.8.35-1.17.18-1.35l.08-.12c-.69-.23-1.68.66-2.37,1-.08-.48-.45-.56-.86-.59-.2,0-.42,0-.63,0a.55.55,0,0,1-.36-.22,1.43,1.43,0,0,1,0,.78c-.1-.18-.24.62-.26-.19l0,0c-.12-.79-.3-.57-.46-.58l0,1.05c-.48-1.51-1,.62-1.32-.75-.08.27-.2.27-.28.54l0-.56a.7.7,0,0,0-.74-.05l0-.41c-.19,0-.16,1.65-.33,1.69l-.09-.84c-.33,0-.7-.7-1,.08,0-.12,0-.37,0-.4-.16,0-.63-.55-.52.61,0-.75-.34-.06-.5.28v-.55c-.11.71-.11.91-.31,1.12-.05-.07-.06-.45,0-.31-.18-.28-.1.54-.32.25l.06-.36c-.17,0-.15.16-.22.57-.1.23-.33-.12-.38-.62,0,.31-.08.72-.19.58a.86.86,0,0,1,0-.37c-.3-.36-.39.67-.61.13a1.92,1.92,0,0,0,0-.33c.22,0,.41,0,.39.07,0-.52-.21-.6-.1-1.31-.13.39-.34,1.24-.52,1a.69.69,0,0,1,0-.18l0-.05s-.08,0-.11.08c-.06-.08-.1-.14-.15-.14,0-.43-.22-.22-.31-.24,0,.56-.09.48,0,.94,0,0,0-.07.07-.1s0,0,0-.06v.05l.22-.05c-.06.29-.12.54-.24.23l-.08.91c-.16-.78-.42-1.19-.48-1.67-.26.33-.64.24-.76,1.3-.07.14-.11-.29-.15-.46s.1-.09.12-.24c-.15.27-.46.12-.47.86-.21-.32.08-.68-.18-.55l0-.23c-.59-1.15-.78,1.93-1.45.44a.73.73,0,0,1,.09.26c-.71-.63-1.37.69-2.09-.33-.2-.2-.2.27-.3.63l-.07-.6-.16.71c-.26.52-.56-1.46-.87-.48l.07.4c-.13-.07-.4.26-.4-.21,0,.08,0,.43-.08.22l0-.32-.29.56c-.25-.22,0-1.25-.38-1.3a2.44,2.44,0,0,0-.27,1.15c.05,0,.15.19.17.5l-.12.17a6.53,6.53,0,0,0,.31,2.53l.18-.58.09.45-.18,0c.12.42.17,0,.22-.22a2,2,0,0,0,.11.5l.16-.9c0,.36,0,.72.09.92.08-.42-.13-.81,0-1.09.12.42.1.76.2.4a1.07,1.07,0,0,1,0,.5c.09-.3.27-.14.3-.64.13.52.34-.15.37.73,0-.21.15-.7.25-.74-.13,1.06.35,0,.36,1.18.09-1,.45-.45.65-1,0,.07,0,.23,0,.18s.18.36.27.53a4.55,4.55,0,0,1,.26-1.46c.19.75-.06.92,0,1.65,0-.64.24-.65.16-1.17a2.83,2.83,0,0,1,.21.86c0-1,.1-.17.17-.77.2.47.09.91.27.6A1.05,1.05,0,0,1,1386.5,487.18Zm4.45-1.91h0l-.09,0Zm.38,0a.31.31,0,0,0-.17,0c0-.19,0-.39,0-.39S1391.27,485.08,1391.33,485.24Zm-1-3.85c.05-.08.08,0,.09.14a.22.22,0,0,0-.1.08v.06A2.44,2.44,0,0,1,1390.34,481.39Z"/><path class="a" d="M1390.26,482.13a.08.08,0,0,1,0,.05l0,.12,0-.18Z"/><path class="a" d="M1396.11,504.11h0Z"/><polygon class="a" points="1396.64 486.06 1396.63 485.92 1396.61 486.05 1396.64 486.06"/><path class="a" d="M1393.53,505.32l-.14,0Z"/><path class="a" d="M1393.07,506.11l-.24,0A.81.81,0,0,0,1393.07,506.11Z"/><path class="a" d="M1392.54,506.65l.22.1h0Z"/><path class="a" d="M1396.17,496.14l0,0C1396.08,496,1396.1,496.07,1396.17,496.14Z"/><path class="a" d="M1396.12,499.7l-.21-.2C1395.85,499.53,1395.82,499.57,1396.12,499.7Z"/><path class="a" d="M1397,492.48h0v0Z"/><path class="a" d="M1396,499.36c-.12,0-.12.06-.07.14S1396,499.44,1396,499.36Z"/><path class="a" d="M1391.15,509.34l0,0,.08,0Z"/><path class="a" d="M1391.2,509.4l0,.06S1391.25,509.43,1391.2,509.4Z"/><path class="a" d="M1391.35,509.59l-.1-.13S1391.21,509.51,1391.35,509.59Z"/><path class="a" d="M1391.74,508.59l-.18-.09Z"/><path class="a" d="M1391.8,508.31c-.07,0-.47,0-.39.12l.15.07C1391.3,508.34,1392.09,508.5,1391.8,508.31Z"/><path class="a" d="M1394.57,508.19l-.24.15c.22.05.51.11.52.23C1395.56,508.54,1394.37,508.44,1394.57,508.19Z"/><path class="a" d="M1395.14,507.63c0,.16.29.12.41.18C1395.39,507.66,1395.35,507.62,1395.14,507.63Z"/><path class="a" d="M1397.16,502.76l.46.21C1397.59,502.85,1397.44,502.9,1397.16,502.76Z"/><polygon class="a" points="1395.1 500.82 1394.77 500.79 1395.18 501.01 1395.1 500.82"/><polygon class="a" points="1398.69 501.67 1398.74 501.73 1398.63 501.51 1398.69 501.67"/><path class="a" d="M1401.9,493.42l-.59-.22C1401.39,493.31,1402,493.59,1401.9,493.42Z"/><path class="a" d="M1402.77,489.64c.31.08.53.06.27-.12C1403,489.59,1402.71,489.57,1402.77,489.64Z"/><polygon class="a" points="1397.41 480.97 1397.47 480.75 1397.34 480.94 1397.41 480.97"/></svg>