<svg xmlns="http://www.w3.org/2000/svg" viewBox="0 0 1920 803"><defs><style>.a{fill:#ee5440;}.b{fill:#004543;}.c{fill:#5fc4c2;}</style></defs><path class="a" d="M1020.79,594.77c.11-.14.3-.48.19-.46l-.4.53Z"/><path class="a" d="M1021,593.43a4,4,0,0,0-.94,1.17c.43-.48.31-.24.8-.82.11,0,0,.25-.13.45.11-.13,0,.19.28-.13.19-.5.09-.58-.26-.31A1.91,1.91,0,0,1,1021,593.43Z"/><path class="a" d="M1015.5,587.83v.09A.1.1,0,0,0,1015.5,587.83Z"/><path class="a" d="M1012.28,584.27s.09,0,.14-.06A.14.14,0,0,0,1012.28,584.27Z"/><path class="a" d="M1012.22,583.18v.06S1012.27,583.15,1012.22,583.18Z"/><path class="a" d="M1015.5,587.83l0-.24C1015.4,587.74,1015.49,587.75,1015.5,587.83Z"/><path class="a" d="M1019.17,594.14a.64.64,0,0,0,.16-.1l-.1,0Z"/><path class="a" d="M1017.44,588.8l0,0,.2-.19Z"/><path class="a" d="M1018.74,589.74s-.38.39-.54.57c.16-.17.25-.24.3-.25A3.78,3.78,0,0,0,1018.74,589.74Z"/><path class="a" d="M1020.17,592.06l.08,0Z"/><path class="a" d="M1016.65,588a1.1,1.1,0,0,0,.12-.16A1.33,1.33,0,0,0,1016.65,588Z"/><path class="a" d="M986.44,553.81l.08-.06S986.43,553.8,986.44,553.81Z"/><polygon class="a" points="987.73 550.7 987.77 550.71 988.04 550.54 987.73 550.7"/><path class="a" d="M1011.7,581.62h0C1011.77,581.61,1011.75,581.6,1011.7,581.62Z"/><path class="a" d="M1003,571.44c-.34.41-.68.15-1,.65C1002.1,572,1002.78,571.79,1003,571.44Z"/><path class="a" d="M1019.17,594.05l-.06,0S1019.15,594.06,1019.17,594.05Z"/><path class="a" d="M1001.93,572.09h0l0,0Z"/><path class="a" d="M1009.14,579.35a1.24,1.24,0,0,0-.16.19A1.26,1.26,0,0,0,1009.14,579.35Z"/><path class="a" d="M1010.28,581.77v-.1A.12.12,0,0,0,1010.28,581.77Z"/><path class="a" d="M1007.67,578.89s.06-.11,0-.1l0,.06C1007.67,578.81,1007.71,578.8,1007.67,578.89Z"/><path class="a" d="M1006.77,577.85l-.07.09,0,0Z"/><path class="a" d="M988.92,557.23c.12-.11.26-.22.39-.32C989,557.14,988.76,557,988.92,557.23Z"/><path class="a" d="M1019.35,593.88c-.09.11-.14.16-.18.17h.06A1.11,1.11,0,0,0,1019.35,593.88Z"/><path class="a" d="M1004.29,581.76l-.09-.22A.36.36,0,0,0,1004.29,581.76Z"/><path class="a" d="M994.11,565.79H994S994.05,565.81,994.11,565.79Z"/><path class="a" d="M1003.69,581.07a1.48,1.48,0,0,0,.21-.35l-.13.07Z"/><path class="a" d="M989.32,556.9h0Z"/><path class="a" d="M987.42,556.38c.1.18.66-.3,1.05-.49.31.1-.4.38-.68.66.25,0,.89-.23.93-.12a.91.91,0,0,1-.27.18c.59-.17.28.4,1,.18l-.14.11a10.18,10.18,0,0,1,.85-.56c.06.08.49-.09.09.19,0,0-.18,0-.33.1l.23,0c-.54.44-.27,0-.71.28.3,0,.9-.07.81.16-.56.38-.37-.17-.78.31l.1-.33c-.82.71,0-.16-.9.58,0,.36.47.11.46.46.35-.13.46-.31.82-.45.8,0-1.28,1.18-.35,1,.43-.17,1.18-.59.91-.16l-.7.33c.09.29,1-.43.75.1-.29.11-.34-.06-.39,0-.42.49.44-.1.52,0l-.56.38c.25.21.85.25,1.13.48a1.37,1.37,0,0,0-.53.32c.51.2.4.84.27,1.41l.59-.17s-.2.2-.32.22c-.1.26.33-.18.57-.23.08.06-.23.28-.41.32.57,0,1.34.16.95.74l-.18,0c-.08.32,1.18-.38.82.09h-.12c.05.58.8.8.23,1.58.77-.36-.07.63,1,.07-.36.55-.58.58-.71,1.14,0,.12.72-.23.89-.17l-.53.31.66-.17-.59.46.2,0a.8.8,0,0,1,.34-.31c.34,0-.12.64-.39.8l.69.15a1,1,0,0,1-.5.11c.67-.09-.54.37.08.28a2.55,2.55,0,0,1,.43-.23c-.26.29-.13.52.11.61l-.39.19c.09.36.55.54.75.88.1-.22.75-.57.87-.5l-.54.37c.39-.14.15-.23.66-.35,0,.17-.59.47-.82.5l.29,0a3.74,3.74,0,0,1-.49.24c.39-.14-.4.61.26.34l-.16.11c.19.34.48.39.67.65.49-.28.45-.11.89-.26,0,.29-.27.75-.08,1,.34,0,.44-.19.77-.29-.43.28-.24.5-.63.57a1.44,1.44,0,0,0,.9.48c.16-.15.2-.24.37-.31s-.09.26-.3.38h-.06c.91,0-.66,1.77.45,1.53h-.06l.7,0c0,.21-.39.11-.58.4,1-.09.28.66,1,.65-1.11,1.08.65.78.06,1.64l.29-.22c.34-.11-.1.22-.13.32.22-.16.2-.27.4-.32.81.45.57,1.72.82,2.63.12.31,1.59-.95,1.15-.13l-.6.31c1,0,.77,1.08,1.71,1.15-.15.06-.3.19-.34.14-.29.4.3.4.6.15,0,.11-.26.24-.38.41s.69-.12.37.24a.27.27,0,0,1-.19.07c.23-.08.21.36.58-.06,0,.35.48.18.35.54.55-.31,0,.5.73,0-.7.57-.29.78.13.61-.24.15-.13.29-.45.49.12.12.35.13.68-.2-.61.95,1.06-.11.14.94a5.47,5.47,0,0,1,1.7.35c-.67.6-.4-.3-1.08.35.56.06,1.29-.28,1.42.17,0,.16-.33.22-.47.3.56.06.5.65,1.11.59a.49.49,0,0,1-.23.11c.07,0,0,.22.32-.07l-.13,0c.35-.49,1.1-.64,1.34-.85-.94.72,0,.47-1.18,1.35a.94.94,0,0,0,.47-.3c0,.11-.11.23-.39.4.35,0,.6-.34.76-.16a3.82,3.82,0,0,1-.42.3c.36-.18.73-.36.75-.1-.1.07-.19.2-.23.15.28.21,1.14-.29,1.15.24-.7.53-.12.29-.63.83h.3l.2-.31c.12.13.62-.14.55.14l-.31.13.34.13.06-.33c.4-.15.66-.68.68-.37-.09,0,.11.13-.13.51h0c.23-.1.47-.22.44,0s-.6.57-.7.7c.5-.38.42.17,1-.23a3.31,3.31,0,0,0-.46.43l.41-.31a.93.93,0,0,1-.33.46c.11.24.6-.74.53-.24-.05,0-.09.08-.18.1.06.36.64.16.66.53-.46.6-.3,0-.67.49.39.18,1.21-.09,1.37.3v-.11c.76-.74-.15.58.33.34a1.76,1.76,0,0,0-.35.31c.07.31.57.17,1.08.19l-.22.17c-.05.29.21.38.26.58.22-.17.26-.07.48-.41-.64,1.51,1.27,0,.78,1.29,0,0-.26.1-.22.13l.46.06a2.18,2.18,0,0,0,.31-.57c.21-.18.43-.27.51-.21-.33.12-.48.57-.59.81.08-.11.2-.22.29-.33-.37.76.62-.69.48-.09l-.17.18c.16,0,.44-.22.48-.09-.31.44-.25.12-.53.45.14.08.88-.59.65-.09-.14.08-.22,0-.36.09-.28.59-.17.48-.14.62h0l0,.39.06-.18c1-1,.47,0,1.24-.5-.73.52-.34.37-.73.83a1.07,1.07,0,0,1-.22.51c.4-.31-.06.43.52,0-.11.15.1.09-.23.46.23,0,.18-.29.34-.47.6-.38,0,1,.83.49.48-.11.91-.62,1.34-.72a1.24,1.24,0,0,1-.48.53c0,.33.09.36.34.26a1.43,1.43,0,0,0-.27.46c.13,0,.47-.53.44-.21a7.41,7.41,0,0,1-.54.58c.22-.07.53-.28.76-.35-.16.3-.37.38-.53.53a1.09,1.09,0,0,0,.87-.44l0-.22c.06,0-.23.41-.32.46-.36.28-.07-.26,0-.43l.16-.05c.54-1-.45-.07-.58-.25l.54-.64-.57.45c.09-.21.33-.6.48-.65.12-.42-.27.17-.11-.28a.26.26,0,0,1,.09-.11l-.26.12c.12-.13.32-.49.32-.35.08-.53-.7.28-.4-.29l0,0c-.45,0-.38.47-1,.89l.75-1.32-.39.47s-.05-.12.11-.31c-.36.26-.14.23-.44.5.19-.55-.55-.09,0-.89-.33.33-.08.39-.43.53.6-.86-.28,0-.11-.47.37-.39.31-.07.48-.55-.64.66-.12-.35-.33-.3-.46.56-.41.05-.74.1.16-.18-.08-.57-.07-.91l.08-.09c-.5.54-.58.29-.8.3a2,2,0,0,1,.61-.54l-.11-.09a.63.63,0,0,1-.42.22l.38-.39c-.17-.11-.72.24-.67-.21-.35.38-.78,1.22-1.21,1.29a2.74,2.74,0,0,1,.6-.62s-.21.12-.17,0l.39-.28c0-.23-.3.26-.34.16.26-.3.13-.26.34-.48,0,0,0,.17.09.08a.91.91,0,0,1,.19-.64c-.14.18-.35.4-.44.39s.26-.4.31-.63c-.22.18-.12-.12-.52.32,0,0,.13-.25.22-.39-.25.13-.4-.26-.74.29v0h0c-.65.21-.3-.72-.71-.75l.13-.15c-.3,0-.42-.2-.81,0,0,0,.14-.36.32-.51-.21,0-.37.15-.31-.24.35-.14.17-.25.29-.07,0-.26.16-.52-.37-.28.4-.31.33-.56.16-.51l-.15.35c-.13,0-.16-.11-.2-.21l.49-.44c.28-.86-1.47.48-.75-.7-.4.25-.07.38-.52.71-.07-.2.46-1,.42-1.06.08-.44-.85.53-.86.16-.15.2-.57.67-.87.69-.07-.2.54-.87.76-.92,0,0,0,.08-.05.14a.45.45,0,0,0,.36-.27l-.19.15c.11-.24-.09-.4.23-.63a.38.38,0,0,0-.33.39c.07-.41-.26-.27-.27-.61-.06.12-.23.35-.26.32,0-.47-.43.2-.68.1.16-.35.65-.57.26-.53.08-.28.43-.47.61-.56-.48.16-.07-.51-.1-.66l.22,0a.18.18,0,0,1-.21-.05l-.29.37c0-.1,0-.15.11-.28-.27.16-.53.59-.93.78.11-.23-.38,0,0-.48,0,.35.43-.46.68-.36-.09,0-.13,0-.12-.13a.29.29,0,0,1,.14-.09c.22-.59-.6.4-.78.18.28-.22.44-.51.35-.49.07.08-.39.44-.66.55.07-.32-.29,0-.33-.09l0,.17c-.28.21-.31.11-.48.1.19-.2.22,0,.27-.16-.55.32.25-.68-.19-.54.11-.23.48-.46.54-.63-.48.15.2-.51-.24-.42-.3.37-.21.3-.66.5l.51.05-.68.29c.07.09.39,0,.37.09-.36.17-.27.1-.52.41.42-.6-.52,0-.29-.41l.87-.8c.2-.56-.78.05-.8-.41l-.07.22c-.38.28-.2-.12-.42-.08a2.72,2.72,0,0,0,.51-.61c-.21.2-.16-.21-.76.29l.28-.46c0-.36-1.06.5-1.15.2.38-.22.51-.5.86-.57-.06-.07-.06-.18-.27,0,.15-.2-.57.16-.34-.15-.16.08-.48.34-.52.24a1,1,0,0,1,.15-.13c-.15.13-.31.06-.58.41.74-1-.59-.55.05-1.43a1.89,1.89,0,0,1-.62-.3c.1-.06.15-.12.14-.07.13-.43-1,.6-.84.11.41-.51.37-.1.5-.32,1-.85-.36-.16.11-.78h.09c.26-.39-.61,0-.68-.22a1.17,1.17,0,0,0,.15-.12,1.64,1.64,0,0,1-1.27.08c.45-.25.28-.08.66-.43-.12,0-.64.53-.88.45a3.47,3.47,0,0,1,.71-.83l.14.13c.51-.51-.17-.18-.13-.34l.25-.18c-.26-.17-.9.29-1,0l-.17.17c-.73.31.27-.38-.3-.18l.61-.51a4.11,4.11,0,0,1-1.11,0,5.15,5.15,0,0,1,1.31-.3.47.47,0,0,0-.63-.11c.09,0,.28-.07.21,0-.59.25-.95.27-1.07.07,1.27-.84,0-.72.86-1.53-.7,0-.25-.8-.59-1.14-.9.8-.1-.1-1.11.6-.13,0-.13-.1-.07-.15l.43-.68c.25-.26.28-.06.5-.22-.05-.25.38-.37.57-.68-.35.27-.57.27-.5.07l-.37.47c-.73.07.7-.8,0-.74l.38-.12c-.29,0-.34-.54-1.26-.16.1-.1.36-.32.48-.3-.1-.43-1.38-.24-1-.83l.27-.13c-.11,0-.55.17-.35-.07.11-.06.28-.12.27-.17s-.55.1-.46-.08l.33-.1c.13-.55-1-.11-1.38-.3.76-.46.83-.88.87-1.09l.11-.06c-.15-.47-1-.33-1.57-.54.69-.72-.13-1,.11-1.66a1.38,1.38,0,0,1-.72.31c.11-.18-.67.06,0-.34v0c.64-.46.35-.54.29-.7l-.93.51c1.11-1.15-1.07-.71,0-1.61-.28,0-.35-.08-.63,0l.49-.28a.8.8,0,0,0-.33-.73l.38-.15c-.07-.19-1.54.6-1.66.46l.7-.48c-.2-.3.26-1-.58-.91.11-.06.32-.17.38-.14-.06-.16.16-.86-.81-.22.65-.38-.12-.35-.51-.35l.5-.26c-.7.22-.87.32-1.15.22,0-.09.36-.27.27-.13.16-.31-.53.14-.38-.2l.34-.11c0-.18-.21-.07-.62,0-.25,0-.06-.37.36-.65-.28.13-.68.25-.61.08a.72.72,0,0,1,.33-.14c.17-.47-.79-.07-.43-.53a1.06,1.06,0,0,0,.27-.21c.11.22.19.41.15.42.44-.27.41-.49,1.1-.71-.41.06-1.28.25-1.17,0a1,1,0,0,1,.14-.11h.06c0-.07,0-.08-.14-.07s.08-.16.05-.22c.35-.24.08-.31,0-.41-.48.3-.47.14-.81.48,0,0,.07,0,.13,0a.08.08,0,0,0,.07,0l0,0,.16.19c-.28.08-.53.13-.32-.12l-.85.35c.6-.52.83-1,1.22-1.25-.43-.1-.55-.51-1.55-.12-.16,0,.21-.25.33-.36s.14,0,.28,0c-.32,0-.36-.38-1,0,.17-.36.64-.25.38-.45l.21-.08c.7-1.12-2.1.17-1.16-1.18a.49.49,0,0,1-.18.2c.17-1-1.35-1-.85-2.15.07-.3-.34-.06-.71,0l.48-.36-.7.19c-.6,0,.95-1.25-.07-1.06l-.32.27c0-.16-.44-.24,0-.48-.07,0-.38.19-.23,0l.26-.18h-.64c0-.35,1.07-.65.91-1a2.15,2.15,0,0,0-1.14.33s-.08.23-.35.41l-.21,0a5.76,5.76,0,0,0-2,1.56l.59-.12-.33.3-.13-.14c-.3.33.05.18.31.1a1.32,1.32,0,0,0-.36.35l.86-.3c-.29.22-.66.31-.75.54.41-.14.63-.53.95-.53-.29.32-.6.48-.23.39a1,1,0,0,1-.45.22c.31-.06.27.18.71,0-.37.38.33.24-.42.71.2-.08.69-.21.78-.14-1,.41.15.36-.83.93.88-.4.63.19,1.2.12-.07,0-.21.08-.18,0,0,.16-.21.35-.32.52a4.25,4.25,0,0,1,1.41-.48c-.55.55-.83.4-1.42.84.54-.35.7-.09,1.11-.42a2.71,2.71,0,0,1-.64.62c.84-.51.2,0,.77-.22-.31.42-.75.53-.39.54A.94.94,0,0,1,987.42,556.38Zm4,3.3h0l-.08-.07Zm.22.35a.28.28,0,0,0-.07-.16c.16-.11.34-.2.35-.16S991.76,559.9,991.65,560Zm2.89-2.76c.1,0,0,.1-.08.16l-.11-.06-.07,0Z"/><path class="a" d="M993.85,557.55h-.05l-.09.1.16-.07Z"/><path class="a" d="M1015.48,587.94v0l0,.07Z"/><polygon class="a" points="993.64 565.53 993.76 565.46 993.64 565.49 993.64 565.53"/><path class="a" d="M1016,590.9a.83.83,0,0,0-.07.13A.32.32,0,0,0,1016,590.9Z"/><path class="a" d="M1016.66,591.64v.25A.74.74,0,0,0,1016.66,591.64Z"/><path class="a" d="M1017.1,592.35l.16-.18h0Z"/><path class="a" d="M1007.58,584.39h0C1007.42,584.41,1007.48,584.41,1007.58,584.39Z"/><path class="a" d="M1011.08,586.09l-.27.11C1010.83,586.28,1010.85,586.32,1011.08,586.09Z"/><path class="a" d="M1004.3,581.79h0l0,0Z"/><path class="a" d="M1010.7,586.07c0,.13,0,.15.11.13S1010.8,586.05,1010.7,586.07Z"/><path class="a" d="M1019.73,594.58l0,0,0-.08Z"/><path class="a" d="M1019.8,594.55l.08,0S1019.84,594.5,1019.8,594.55Z"/><path class="a" d="M1020,594.45l-.15.07S1019.93,594.58,1020,594.45Z"/><path class="a" d="M1019,593.77l-.13.16Z"/><path class="a" d="M1018.71,593.63c0,.09-.1.47.07.43l.1-.13C1018.66,594.15,1019,593.4,1018.71,593.63Z"/><path class="a" d="M1019.17,590.84l.11.28c.09-.2.22-.46.34-.44C1019.77,590,1019.38,591.11,1019.17,590.84Z"/><path class="a" d="M1018.75,590.11c.17,0,.2-.24.28-.34C1018.84,589.88,1018.79,589.9,1018.75,590.11Z"/><path class="a" d="M1014.48,586.4l.36-.36C1014.71,586,1014.7,586.18,1014.48,586.4Z"/><polygon class="a" points="1011.86 587.57 1011.72 587.87 1012.08 587.56 1011.86 587.57"/><polygon class="a" points="1013.92 584.49 1014.01 584.47 1013.75 584.48 1013.92 584.49"/><path class="a" d="M1007.31,577.71l-.46.44C1007,578.13,1007.53,577.68,1007.31,577.71Z"/><path class="a" d="M1004.3,574.93c.23-.23.33-.44,0-.31C1004.35,574.72,1004.21,574.93,1004.3,574.93Z"/><polygon class="a" points="998.56 563.94 998.79 563.9 998.56 563.86 998.56 563.94"/><path class="a" d="M998.46,586.92c.17,0,.49-.28.37-.32l-.6.28Z"/><path class="a" d="M999.15,585.69a3.22,3.22,0,0,0-1.37.62c.6-.23.39-.06,1.11-.35.11,0-.09.27-.31.38.16-.06,0,.21.34,0,.37-.38.3-.53-.15-.47A1.63,1.63,0,0,1,999.15,585.69Z"/><path class="a" d="M995.17,576.47l0,.1A.16.16,0,0,0,995.17,576.47Z"/><path class="a" d="M992.93,570.76a.15.15,0,0,0,.16,0C993,570.74,993,570.72,992.93,570.76Z"/><path class="a" d="M993.22,569.52a.64.64,0,0,1,0,.07S993.27,569.52,993.22,569.52Z"/><path class="a" d="M995.17,576.47l.11-.24C995.08,576.32,995.17,576.38,995.17,576.47Z"/><path class="a" d="M997.06,585.32a.35.35,0,0,0,.2,0l-.11,0Z"/><path class="a" d="M996.89,578.63l0,0,.25-.09Z"/><path class="a" d="M998,580.4c0-.06-.5.2-.72.31.22-.09.33-.12.39-.1Z"/><path class="a" d="M998.78,583.76h.09S998.81,583.75,998.78,583.76Z"/><path class="a" d="M996.31,577.26a1,1,0,0,0,.17-.11Z"/><path class="a" d="M1014.37,561.5l0,.09C1014.37,561.54,1014.38,561.5,1014.37,561.5Z"/><polygon class="a" points="1016.16 564.71 1016.12 564.73 1016.05 565.04 1016.16 564.71"/><path class="a" d="M993.22,567.51v0C993.29,567.55,993.27,567.53,993.22,567.51Z"/><path class="a" d="M989.94,556.05c-.63-1-.83-1.54-1.53-2.59C988.69,553.94,989.53,555.45,989.94,556.05Z"/><path class="a" d="M997.1,585.24a.18.18,0,0,1-.05-.07A.07.07,0,0,0,997.1,585.24Z"/><path class="a" d="M988.41,553.46h0l-.07-.09Z"/><path class="a" d="M991.56,563.54l-.22.11A1.45,1.45,0,0,0,991.56,563.54Z"/><path class="a" d="M991.78,566.85l.05-.1A.17.17,0,0,0,991.78,566.85Z"/><path class="a" d="M990.36,562.13s.1-.08,0-.12l-.06,0C990.39,562.05,990.43,562.06,990.36,562.13Z"/><path class="a" d="M989.94,560.43l-.1.06,0,0Z"/><path class="a" d="M1009.17,560.45a3,3,0,0,1-.06.5C1009.2,560.56,1009.48,560.5,1009.17,560.45Z"/><path class="a" d="M997.33,585.16c-.12.07-.19.09-.23.08l0,0A.56.56,0,0,0,997.33,585.16Z"/><path class="a" d="M986,563.17v-.31A.47.47,0,0,0,986,563.17Z"/><path class="a" d="M997.79,555.69l.09,0S997.84,555.64,997.79,555.69Z"/><path class="a" d="M985.76,562a1,1,0,0,0,.34-.26H986Z"/><path class="a" d="M1009.11,561h0Z"/><path class="a" d="M1011.22,560.16c-.25-.08-.31.67-.47,1.07-.36.12,0-.57,0-1-.24.14-.56.75-.7.68a.9.9,0,0,1,.08-.3c-.35.5-.59-.15-1,.49a1,1,0,0,1,0-.18,9.2,9.2,0,0,1-.25,1c-.12,0-.35.39-.26-.09.07,0,.13-.15.21-.28l-.18.16c.09-.7.23-.18.38-.67-.3.14-.74.62-.87.37.17-.65.49-.09.43-.74l.2.33c.1-1.09.14.12.28-1-.3-.29-.5.21-.8-.09-.19.33-.14.54-.33.87-.72.48.12-1.75-.53-1-.23.39-.55,1.2-.67.68l.34-.7c-.32-.18-.56,1-.75.37.16-.27.35-.15.33-.25,0-.66-.3.35-.48.29l.18-.66c-.39,0-1,.29-1.41.26a1.12,1.12,0,0,0,.22-.59c-.63.13-1-.5-1.36-1.06l-.41.46s0-.27.11-.36c-.09-.28-.15.34-.33.52-.12,0,0-.37.13-.51-.52.32-1.36.57-1.45-.16l.14-.13c-.16-.33-.81,1-.82.35l.09-.07c-.46-.52-1.35-.35-1.37-1.36-.48.71-.38-.63-1,.39,0-.68.15-.82-.11-1.4-.09-.12-.54.55-.75.57l.3-.54-.51.44.26-.7-.22.06a.67.67,0,0,1-.12.46c-.35.11-.31-.68-.15-1l-.77.16c.14-.21.27-.23.42-.33-.6.38.28-.58-.26-.23a1.68,1.68,0,0,1-.28.4.44.44,0,0,0-.48-.56l.26-.34c-.31-.32-.88-.31-1.28-.58,0,.26-.4.86-.56.83l.31-.57c-.3.28,0,.29-.44.59-.11-.17.3-.69.51-.8l-.31.06a5.25,5.25,0,0,1,.34-.42c-.3.28,0-.76-.45-.25l.1-.17-.15-.09-.27-.15c-.16-.09-.32-.16-.47-.23A5.26,5.26,0,0,1,993,552c-.19.56-.39.25-.66.62a6.26,6.26,0,0,0-1.3-1.7c-.35.09-.08.53-.21.86,0-.69-.56-1-.34-1.31-.6-.34-.82-.51-1.39-.43a3.23,3.23,0,0,1,.3.85c-.08,0-.36-.56-.46-.95l0-.06c-.23.31-.83-.64-1.57-1.66s-1.52-2-1.37-1.22v-.08a2.35,2.35,0,0,0-.13.62c-.4-.44-.22-.68-.8-1.55.07.62-.25.31-.64-.1-.11.06-.26.05.11,1-.85-1.19-.77-.53-.62.21s.39,1.57-.12,1.29l.4.47c.4.72-.21,0-.29,0,.31.36.34.22.57.62a4.43,4.43,0,0,1,.07,2.49,9.27,9.27,0,0,0-.47,2.35c0,.74,2,1.28,1.22,1.73l-.73-.49a5.06,5.06,0,0,1,.67,2.22,7.19,7.19,0,0,0,.18,1.05c0,.07.06.18.08.23s0,.1.08.14a1.25,1.25,0,0,0,.25.27c-.16,0-.36,0-.37-.06-.44.26.1.62.48.55,0,.13-.34.1-.52.21s.68.3.24.49a.28.28,0,0,1-.21,0c.25.06.06.52.58.3-.19.35.37.5.1.81.64,0-.17.58.69.42-.88.19-.59.69-.12.77-.28,0-.23.23-.62.25.07.21.29.36.73.21-.94.67,1.05.54-.23,1.13a8.47,8.47,0,0,1,1.51,1.46c-.87.24-.28-.59-1.18-.29.52.43,1.35.49,1.31,1.08-.08.17-.4,0-.56,0,.51.41.27,1,.89,1.34a.42.42,0,0,1-.27,0c.06.08,0,.26.33.11l-.13,0c.51-.34,1.3-.06,1.6-.15-1.16.25-.12.55-1.61.81a.91.91,0,0,0,.56-.06c0,.11-.18.2-.51.21.33.25.69,0,.79.28a3.35,3.35,0,0,1-.51.09c.42,0,.84,0,.77.32-.11,0-.25.11-.27,0,.22.4,1.24.34,1.06.93-.85.19-.2.26-.88.56l.3.17.3-.24c.07.23.65.21.5.48l-.35,0,.3.35.17-.34c.45.07.86-.38.79,0-.09,0,.08.21-.28.49h0c.26,0,.54,0,.43.25s-.77.29-.9.38c.61-.14.37.43,1,.3a2.21,2.21,0,0,0-.59.22l.51-.12c-.11.16-.18.21-.47.32,0,.33.82-.48.61,0,0,0-.12,0-.21,0,0,.44.6.54.52,1-.64.41-.3-.2-.82.17.34.41,1.25.58,1.3,1.09l0-.12c1-.39-.32.56.24.56a1.54,1.54,0,0,0-.45.15c0,.38.54.5,1.06.81l-.27.06c-.13.29.11.53.09.78.28-.07.29.06.61-.18-1.07,1.29,1.32.71.44,1.83,0-.06-.28,0-.26,0l.45.32c.39-.26.22-.19.49-.45.27-.08.52-.06.58,0-.38,0-.66.36-.83.56.11-.08.27-.13.39-.2-.6.62.84-.41.52.16l-.22.1c.17.06.51,0,.52.17-.44.31-.29,0-.68.2.13.16,1.08-.14.7.27-.17,0-.23-.11-.4-.11-.46.48-.31.42-.32.6v0l-.08.43.11-.16c1.33-.46.47.33,1.42.17-.91.14-.46.2-1,.48-.1.16-.2.36-.37.41.51-.1-.2.43.54.27-.17.1.06.16-.38.37.24.1.27-.21.49-.32.74-.06-.32,1.06.7,1,.53.16,1.13-.11,1.6,0a1,1,0,0,1-.67.27c-.14.32,0,.42.27.47a1,1,0,0,0-.43.32c.12.1.66-.28.52,0a6.06,6.06,0,0,1-.75.27c.25.06.65,0,.89.09a1.29,1.29,0,0,1-.72.23,1.08,1.08,0,0,0,1,.08l.09-.21c.06,0-.37.27-.49.27-.45.07,0-.31.19-.42l.18,0c.91-.71-.43-.36-.51-.62l.77-.33-.73.12c.16-.16.53-.43.71-.38.25-.37-.34,0,0-.37a.17.17,0,0,1,.13-.06l-.31,0c.17-.05.49-.32.44-.16.25-.53-.8-.15-.32-.57h.06c-.47-.26-.55.27-1.34.33l1.19-1-.56.27s0-.15.21-.26c-.45.06-.21.16-.61.27.37-.48-.54-.42.28-.94-.44.16-.2.36-.6.31.87-.58-.3-.15,0-.57.5-.21.35.1.66-.32-.85.35,0-.45-.25-.51-.64.35-.45-.18-.8-.32.22-.1.08-.68.18-1l.11,0c-.67.3-.69,0-.92-.11a1.48,1.48,0,0,1,.79-.25l-.09-.17a.62.62,0,0,1-.5,0l.51-.22c-.15-.21-.81-.15-.64-.61-.46.22-1.14.9-1.61.75a2.36,2.36,0,0,1,.8-.35c-.05,0-.25,0-.18-.09l.48-.1c.11-.22-.38.12-.4,0,.35-.18.21-.21.5-.34,0,0-.1.17.06.14a.88.88,0,0,1,.37-.59c-.19.11-.47.24-.56.18-.15-.21.38-.3.49-.52-.27.07-.09-.2-.62.06,0-.06.21-.2.33-.3-.29,0-.33-.51-.83-.1l0,0h0c-.71-.12-.09-1-.51-1.22l.18-.09c-.32-.13-.37-.45-.84-.43,0-.07.25-.32.48-.39-.22-.11-.43,0-.25-.44.39,0,.25-.19.31.08.05-.3.31-.49-.29-.51.5-.12.5-.43.31-.48l-.25.31a.4.4,0,0,1-.15-.34l.64-.22c.52-.79-1.65-.28-.56-1.19-.48.06-.19.39-.74.49,0-.25.77-.86.74-.92.22-.44-1,.1-.91-.31-.2.13-.77.41-1.08.26,0-.25.81-.65,1-.58,0,0,0,.1-.09.12a.35.35,0,0,0,.44-.09l-.23.06c.18-.2,0-.49.42-.56a.33.33,0,0,0-.45.24c.19-.41-.17-.44-.07-.82-.1.1-.35.24-.36.2.11-.54-.49,0-.7-.28.27-.29.82-.25.43-.43.16-.27.57-.27.78-.27-.53-.1.09-.6.11-.77l.23.07a.22.22,0,0,1-.18-.18l-.42.24c0-.11,0-.18.21-.24-.33,0-.72.34-1.18.32.18-.19-.36-.25.21-.5-.07.42.59-.26.78,0q-.14,0-.06-.21a.22.22,0,0,1,.17,0c.41-.51-.72.1-.83-.25.35-.08.61-.31.52-.33,0,.13-.54.26-.84.22.19-.31-.28-.17-.29-.3l-.07.18c-.35.07-.35,0-.51-.17.26-.11.23.07.33,0-.66,0,.47-.6,0-.7.19-.18.63-.22.75-.37-.52-.12.37-.44-.08-.6-.43.23-.31.21-.82.15l.47.36-.75-.08c0,.14.37.2.32.31-.41,0-.29,0-.65.15.62-.42-.52-.26-.13-.63l1.13-.35c.4-.49-.76-.41-.61-.94l-.16.2c-.46.08-.14-.25-.37-.33a2.18,2.18,0,0,0,.72-.36c-.28.09-.06-.32-.83-.15l.44-.34c.11-.4-1.19-.1-1.16-.48.45,0,.68-.24,1-.09,0-.11,0-.23-.25-.17.23-.12-.6-.18-.26-.38-.18,0-.59.09-.59,0a.57.57,0,0,1,.19,0c-.19,0-.31-.14-.71.08,1.12-.65-.32-1,.64-1.53a2.64,2.64,0,0,1-.46-.72c.12,0,.19,0,.16,0,.29-.39-1.15,0-.82-.41.59-.32.38.12.59,0,1.26-.31-.26-.41.44-.8l.09.05c.2-.13,0-.23-.13-.31s-.41-.09-.38-.19h.2a1.59,1.59,0,0,1-1.2-.69,2.23,2.23,0,0,0,.84.22c-.09-.1-.87-.13-1.06-.4a2.57,2.57,0,0,1,1.12.14l0,.14c.75.16,0-.16.07-.2l.34.14c-.13-.19-1-.64-1-.89l-.26-.13c-.9-.73.47.18-.2-.42l.9.59a7.64,7.64,0,0,1-1.13-1.4c.71.76,1.08,1.23,1.49,1.61,0-.06-.1-.26-.56-.72.1.11.33.35.19.26a3.63,3.63,0,0,1-1.13-1.49c.91.94,1,.95,1.06.9s.05-.18.78.69c-.36-.52-.29-.56-.15-.44s.36.38.29.21c-1.5-2.33,0-.13-1.6-2.65-.1-.26-.08-.26,0-.1l.46.67.53.86c.47.8.3.55.65,1.16.17.24.61,1.05,1,1.74l.06.11c-.52-.94-.72-1.32-.51-1l-.68-1.22c-.32-.64,0-.07.3.47s.56,1.06.27.44l.36.75c-.18-.42,0,0-.66-1.68.12.26.37.86.42,1s0-.26-.06-.52,0-.42.18.08l.1.43c0-.11-.14-.78,0-.32,0,.17.08.42.09.45,0-.15-.06-.69,0-.42l0,.44c.09.3.08,0,.12-.27s.13-.68.24-.72c-.07,1,0,1.39-.07,1.55l0,.12c0,.16.25-.7,1.11-.54-.23,1,.82,1,1,1.79a1.05,1.05,0,0,1,.52-.59c0,.23.64-.31.2.36l0,0c-.33.72,0,.71.21.84l.58-.89c-.28,1.62,1.6.29,1.19,1.64.26-.16.41-.07.66-.24l-.28.49a1.4,1.4,0,0,0,.92.59l-.28.31c.23.16,1.07-1.28,1.3-1.19l-.32.78c.44.2.55,1.08,1.31.6-.06.11-.18.33-.26.32.19.13.55.9,1-.19-.32.69.42.27.79.07l-.27.49c.49-.56.58-.73.93-.79,0,.09-.12.43-.15.26.1.37.38-.41.52,0l-.24.29c.21.14.27-.05.55-.38.23-.15.38.3.22.78.15-.27.43-.6.5-.41a.58.58,0,0,1-.19.31c.24.51.8-.37.86.24a1,1,0,0,0-.07.33c-.3-.13-.53-.26-.49-.29-.19.48,0,.66-.44,1.24.35-.28,1-.92,1.14-.61a.74.74,0,0,1,0,.18l0,0c0,.07.1,0,.18,0,.05.11.08.18.15.22-.12.41.21.32.32.38.18-.53.32-.39.32-.88,0,0,0,0-.13,0l-.08,0,0,0a3,3,0,0,1-.32-.08c.2-.23.38-.42.41-.08l.48-.79c-.1.8.08,1.32,0,1.79.48-.15,1,.1,1.53-.82.15-.09,0,.33,0,.5s-.16,0-.24.17c.3-.18.67.11.94-.57.17.4-.35.59.06.6l-.12.2c.41,1.36,1.73-1.46,2.12.24a.44.44,0,0,1,0-.28c.76.9,2.07-.09,2.74,1.15.22.27.36-.18.6-.49l-.08.6.43-.62c.5-.41.35,1.61,1.06.77l0-.41c.16.11.61-.12.48.33,0-.07.15-.4.18-.18l-.06.31.54-.44c.29.29-.3,1.22.18,1.38a1.83,1.83,0,0,0,.68-1c-.07,0-.15-.24-.1-.55l.2-.13a4.64,4.64,0,0,0,.24-2.53l-.39.5v-.46l.24,0c-.05-.45-.21-.1-.35.14a1.34,1.34,0,0,0,0-.52l-.45.82c0-.36.27-.68.13-.92-.22.38,0,.83-.32,1.05,0-.44.07-.77-.16-.45a.77.77,0,0,1,.17-.47c-.2.25-.39,0-.57.51,0-.54-.5,0-.29-.83-.09.2-.39.62-.53.63.46-1-.46-.17-.15-1.26-.38.89-.71.27-1.13.71,0-.07.1-.21.12-.15-.16-.12-.14-.41-.2-.61-.21.76-.52.86-.78,1.29,0-.78.35-.86.46-1.58-.14.62-.51.52-.57,1a2.23,2.23,0,0,1,0-.9c-.27.94-.19.12-.47.67-.11-.53.17-.9-.15-.68A.78.78,0,0,1,1011.22,560.16Zm-6.36-.24h0Zm-.49-.18a.6.6,0,0,0,.21.11c-.06.18-.15.36-.19.33S1004.39,559.92,1004.37,559.74Zm-.31,4c-.11,0-.1-.07-.07-.19a.34.34,0,0,0,.17,0l0-.06A1.26,1.26,0,0,1,1004.06,563.79Z"/><path class="a" d="M1004.47,563.15l0,0V563l-.09.16Z"/><path class="a" d="M995.12,576.58h0l-.07,0Z"/><polygon class="a" points="998.42 555.73 998.35 555.86 998.45 555.77 998.42 555.73"/><path class="a" d="M994.78,580.09a.36.36,0,0,0-.11.1A.32.32,0,0,0,994.78,580.09Z"/><path class="a" d="M995.29,581.28l-.09.25A1,1,0,0,0,995.29,581.28Z"/><path class="a" d="M995.52,582.28l.22-.1h0Z"/><path class="a" d="M988.25,568.15l0,0C988.08,568.07,988.14,568.12,988.25,568.15Z"/><path class="a" d="M991.18,572.09a1.26,1.26,0,0,1-.3,0C990.87,572.15,990.88,572.21,991.18,572.09Z"/><path class="a" d="M986,563.2h0a0,0,0,0,0,0,0Z"/><path class="a" d="M990.8,571.85c-.07.12,0,.18.08.21S990.91,571.88,990.8,571.85Z"/><path class="a" d="M997.47,586.11v0l.08,0Z"/><path class="a" d="M997.56,586.12h.08S997.62,586.09,997.56,586.12Z"/><path class="a" d="M997.82,586.15l-.18,0S997.67,586.21,997.82,586.15Z"/><path class="a" d="M997,584.85l-.18.09Z"/><path class="a" d="M996.77,584.54c0,.11-.26.43-.08.48l.15-.08C996.54,585.05,997.11,584.44,996.77,584.54Z"/><path class="a" d="M998.12,581.85l0,.36c.16-.16.38-.37.5-.26C999,581.27,998.26,582.26,998.12,581.85Z"/><path class="a" d="M997.89,580.81c.17.11.27-.16.39-.21C998.05,580.6,998,580.6,997.89,580.81Z"/><path class="a" d="M994.52,574.34l.47-.21C994.86,574,994.81,574.22,994.52,574.34Z"/><polygon class="a" points="991.53 574.17 991.29 574.42 991.75 574.28 991.53 574.17"/><polygon class="a" points="994.51 571.92 994.6 571.95 994.34 571.82 994.51 571.92"/><path class="a" d="M990.5,560.62l-.61.18C990,560.87,990.72,560.72,990.5,560.62Z"/><path class="a" d="M989.11,556.81c.35.17.57.27.21,0C989.28,556.82,989,556.72,989.11,556.81Z"/><polygon class="a" points="994.66 559.38 994.45 559.51 994.73 559.47 994.66 559.38"/><path class="b" d="M595,636.42h-2.49a2.55,2.55,0,0,0-.27-.86,2.47,2.47,0,0,0-.55-.65,2.58,2.58,0,0,0-.75-.41,3.12,3.12,0,0,0-.93-.14,2.77,2.77,0,0,0-1.58.45,3,3,0,0,0-1,1.29,5.3,5.3,0,0,0-.37,2.06,5.14,5.14,0,0,0,.38,2.09,2.68,2.68,0,0,0,1,1.28A2.79,2.79,0,0,0,590,642a3,3,0,0,0,.92-.14,2.21,2.21,0,0,0,.75-.38,2.19,2.19,0,0,0,.55-.62,2.34,2.34,0,0,0,.3-.83l2.49,0a4.38,4.38,0,0,1-.48,1.54,4.5,4.5,0,0,1-1,1.32,4.7,4.7,0,0,1-1.53.92,6,6,0,0,1-4.79-.36,4.94,4.94,0,0,1-1.93-2,7.72,7.72,0,0,1,0-6.47,5.05,5.05,0,0,1,2-2,5.45,5.45,0,0,1,2.76-.7,6,6,0,0,1,1.88.28,4.82,4.82,0,0,1,1.53.83,4.27,4.27,0,0,1,1.1,1.32A5.12,5.12,0,0,1,595,636.42Z"/><path class="b" d="M597.18,644V632.35h2.46v4.8h5v-4.8h2.46V644h-2.46v-4.8h-5V644Z"/><path class="b" d="M612,632.35V644h-2.46V632.35Z"/><path class="b" d="M624.14,632.35V644H622L617,636.66h-.09V644h-2.45V632.35h2.15l5,7.31h.1v-7.31Z"/><path class="b" d="M628.57,644h-2.64l4-11.63h3.17l4,11.63H634.5l-2.92-9h-.09Zm-.16-4.57h6.22v1.92h-6.22Z"/><path class="c" d="M1025.68,590.86c-.08-.26-.48-.29-.65.29l.44.65Z"/><path class="c" d="M1022.93,594.12c0,.78.2,1.76.93,1.59-.29-.91,0-1-.37-2,.17-.58.61-.88.8-.69-.07-.26.51-.81.25-1.27a3,3,0,0,0-1.23,2.55C1023.09,594.48,1023,594.22,1022.93,594.12Z"/><path class="c" d="M986.48,639.21l.33-.18A1,1,0,0,0,986.48,639.21Z"/><path class="c" d="M956,658.52c.24-.14.32-.25.3-.31C956.06,658.37,955.89,658.5,956,658.52Z"/><path class="c" d="M950.14,660.64l.34-.13C950.33,660.52,950.19,660.55,950.14,660.64Z"/><path class="c" d="M986.48,639.21l-.87.46C985.69,639.88,986.09,639.47,986.48,639.21Z"/><path class="c" d="M1020.82,602.16a1.62,1.62,0,0,0,.09-.55c0,.16-.1.32-.16.48Z"/><path class="c" d="M997.86,628.11l.2-.21a1.56,1.56,0,0,0,0-.37Z"/><path class="c" d="M1005.87,619c-.18.21.19.63.32.87a.91.91,0,0,1,.07-.71A.75.75,0,0,0,1005.87,619Z"/><path class="c" d="M1017.54,603.53c0-.11.07-.22.1-.33C1017.62,603.29,1017.56,603.43,1017.54,603.53Z"/><path class="c" d="M991.5,634.05a.38.38,0,0,0-.22-.07A.31.31,0,0,0,991.5,634.05Z"/><path class="c" d="M664.92,658.69a.18.18,0,0,0,0-.09C664.87,658.62,664.84,658.65,664.92,658.69Z"/><path class="c" d="M654.4,648.34l.16.11a1.51,1.51,0,0,0,.26-.18Z"/><path class="c" d="M939.59,664.64h0C939.88,664.45,939.73,664.53,939.59,664.64Z"/><path class="c" d="M840.09,691.1c1.17.51-1.9.63-.15,1.2C839.78,692.08,841.54,691.44,840.09,691.1Z"/><path class="c" d="M1020.61,602.42c-.07.15-.15.3-.23.45A2.39,2.39,0,0,0,1020.61,602.42Z"/><path class="c" d="M839.94,692.3h0l.19.05Z"/><path class="c" d="M915.4,674.09a1.11,1.11,0,0,0,.33.15S915.63,674.14,915.4,674.09Z"/><path class="c" d="M933.9,668.22l-.47.11A1.81,1.81,0,0,0,933.9,668.22Z"/><path class="c" d="M906,677.87a1.27,1.27,0,0,0-.69.16l.12,0A.72.72,0,0,1,906,677.87Z"/><path class="c" d="M895.93,680.74a1.29,1.29,0,0,0,.21.06l.32-.12Z"/><path class="c" d="M695.34,670a1.54,1.54,0,0,1-.32-.62C695.06,669.76,693.52,669.43,695.34,670Z"/><path class="c" d="M1020.54,602a.38.38,0,0,1,.07.4c0-.12.09-.23.14-.33S1020.62,602,1020.54,602Z"/><path class="c" d="M906.89,682.24l-1.65.39A15.35,15.35,0,0,0,906.89,682.24Z"/><path class="c" d="M769.22,687.32h-.39A.65.65,0,0,0,769.22,687.32Z"/><path class="c" d="M900.45,684.1a3,3,0,0,0-1-.13.75.75,0,0,0-.15.2Z"/><path class="c" d="M695,669.32h0Z"/><path class="c" d="M684,667.11c1.52.55,1-.43,1.41-.72,1.89.43.67.81,1.17,1.37,1.2.2,2.29-.15,3.12.16,0,.13.18.23-.06.31,1.39-.17,3.59,1.13,5.22.86a.5.5,0,0,1,.13.23,1.47,1.47,0,0,1,.08-1c.69.21,1.41,0,1.53.5-.42-.15-.51,0-.75.11l.78,0c.44.87-1-.07-1.21.42,1.47.23,3.28.15,4.3.67,0,.72-2.59-.54-1.32.47l-1.6-.75c1,1.41-1-.38-.15,1.07,2.14.85,2.56.42,4.7,1.25.6-.22,0-.58.59-.8,3.31.25,2,2.34,4.54,2.13.72-.27,1.18-1,2.69-.15l-.76.59c2.12.66,1.51-.72,3.62.37-.48.19-1.75-.2-1.45,0,1.3,1,1.14-.14,2.26.16l.06.72c2.31.5,5,.68,7.51,1.19-.19.16-.68.26-.13.61a50.64,50.64,0,0,1,9.81,2.89l1.32-.29c.27.07.45.38.13.42,1.15.49.14-.35.78-.44.69.12.83.54.35.61,2.25,0,6.31.34,8.42,1.44l-.47.07c1.7.63,2.23-.74,3.74.15l-.34,0c3.75,1.07,8.07,1.41,10.81,2.86.72-.72,3.7,1.12,4.18,0,2.07,1,1.4,1.08,4.4,2,.81.21,1.36-.49,2.4-.42l-.09.61,1.5-.38.6.86h1c-.37-.1-.75-.42-.67-.58,1.54,0,3.56,1.08,3.54,1.4l3.62.1c-.12.23-.73.22-1.22.29,2-.29.23.7,2.06.43-.21-.18.18-.34.24-.46a11.09,11.09,0,0,0,4.24.94l-.35.37c2.61.55,5.57.7,8.52,1.17-1-.36-.67-1.05.2-1l.25.7c.62-.31-.87-.38.35-.69,1.09.24.63.84,0,1l1.37,0c0,.21-.28.26-.4.5.61-.32,2.22,1,3.12.41l0,.2c3,.44,4.33.4,6.75.7.12-.55,1-.3,1.82-.66a41.87,41.87,0,0,0,5.8,1.32c1.54-.1.5-.42,1.21-.67.05.52,2.2.72,1,1a46.29,46.29,0,0,0,6.59.2c-.33-.25-.71-.38-.49-.53.6,0,1.32.35,1.21.59l-.16,0c3.71-.39,8.32,2.27,11.34,1.39l-.17,0,3.07-.37c1.4.16-.86.34.16.71,3.32-.69,5.2.35,7.94-.2,1,.77,2.94.74,4.93.56a26.51,26.51,0,0,1,5.64-.25l-.22-.33c.71-.44,1,.06,1.57,0-.14-.26-.91-.17-.46-.44l2.33-.57c.76-.17,1.52-.33,2.3-.47,1.54-.29,3.11-.53,4.7-.75,3.16-.44,6.36-.8,9.48-1.33,2.27-.4.88-2.07,3.9-1.88l-.66.83c4.37-1.8,9.29-2.11,13.56-3.87-.23.22-.19.41-.62.52,1.05.23,3.47-.84,3.38-1.23.7-.13.25.3.72.39,1,0,2.2-1.21,2.82-.87.1.05-.23.22-.39.3.55-.39,2.86-.69,2.13-1.07,1.72-.2,3.1-1.1,4.5-1.15.7-.82,2.91-.5,2.94-1.42.13.9,3.09-.14,4-.85-.27.36,1,0,.69.49,1.18-.37,2.21-.87,1.87-1.25,2.5.36,4.12-2.16,5.76-1.25q2.5-1.22,4.87-2.25c1.58-.73,3.11-1.41,4.64-2.06.18.89-3.42,1.29-3,2.14,2.85-1.4,4.3-2.68,7.28-3.59.8-.17-.29.53-.49.77a35.47,35.47,0,0,1,4.21-1.75,24,24,0,0,0,3.9-1.83c0,.08-.22.28-.46.45.5-.24,1.23-.36,1-.72l-.45.31c-1-.23,1.55-2,1.52-2.29-.41,1.45,2.65-.79,1.86,1.15.3-.21.64-.57.46-.79.52-.14.74-.06.36.44,1.73-1,.91-1.11,2.55-1.81.07.19-.23.4-.3.69a6,6,0,0,1,2.8-1.89c0,.15.18.22-.22.41,2.32-1.16,3.56-2.79,6.29-3.67-.38,1.16,1-.17,1.45.43l1.27-.89-.71-.05c1.2-.59,2-1.6,3.14-1.9l-.74.72c.72-.42,1.45-.82,2.16-1.27-.45.15-.92.27-1.39.4,1-1-.55-.75,1.11-1.4-.28.24,1.17-.63,2-.57h0a4,4,0,0,1,1.9-1.38c.34.09.22.82.44.88.14-.43.8-.84,1.48-1.26a4,4,0,0,0,1.55-1.42.49.49,0,0,0,.14.65l.22-.72c.61-.17.73-.15.8.17,1.66-.87-1-.51,1.12-1.28-.13.12,0,.14-.29.39a17.14,17.14,0,0,0,2.75-1.69,15.83,15.83,0,0,1,2.6-1.69c.91.31-1.4,1.12-.48,1.28,1.2-.86,2.37-1.87,3.54-2.84a25.19,25.19,0,0,1,3.5-2.74l-.48.24c-.29-1.1,2-.78,2.92-2-.23.28,0,.75,0,.6,1.66-1,3-2.64,5.16-4.69l-.12.43a38.85,38.85,0,0,0,3.46-2.52c.11-.45.68-.87.09-.9a7.56,7.56,0,0,0,2.51-1.4,18.25,18.25,0,0,0,1.84-2,11.41,11.41,0,0,1,3.87-3.48c-.29.29-.51.87-.29.63l1.85-2.25c-.49-.16-.46.07-1.14.26a3.61,3.61,0,0,1,1-1.7c-.68,1.14.54.51,1.12.28-.17,0-.15-.27-.28-.34,1.64-.52-.5-.81,1.33-1.92l.1.25a9.59,9.59,0,0,1,1.24-2c.63.09-.35.78-.06,1.12.75-.91.76-2.41,1.85-2.85-.21.47-.68,1-.89,1.48a3.84,3.84,0,0,0,1.84-1.25l-.07,0c.51-.44,1-.87,1.52-1.32-.14.1-.3.19-.45.28-.15-2,1.64-2.51,2.14-4.62-.49,2,.2.55.59,1,.44-.29,1.07-.79,1.07-.51.17-1,1.31-1,1.46-2.52.19.07.58-.81.86-.35.57-1.1-.44,0-.58-.19a7.14,7.14,0,0,1,1.87-2.66,6.83,6.83,0,0,0,2-3.32c.88-2.19.53-2.89,1.34-4.89.65-.47.32.86.32.86a5.51,5.51,0,0,0,1.52-2.75c.05.27.28.14.63-.06.37-.81-.35-.86.44-1.76a3,3,0,0,1,.28,1.15c.33-1,.48-2.1.81-3.14.44-.11.17.8.19,1.25.21-.58.5-1.32.7-2a2.52,2.52,0,0,0,.07-1.57l-.48.63c.15-.41.51,0,.47.33,0,1.14-.85,1.27-1,1.24l.23-.74c-1.39.2-1.24,2.82-2,4.17l-.44-1-.12,1.73c-.34.2-.86.18-.62-.55-.87.77-.17,1-1,1.62-.11.05-.12,0-.1-.11l-.34,1c0-.26-.6-.13-.16-.64-1.4,1.4-1,3-2,3.28l0-.17c-1.13,2.44.39.54,0,2.65-.64.13-1.34.21-2,.31l.36.55c-.17.22-.52.64-.66.42-.24,1.08.32,0,.31.72-1.21.78-1.87,3.18-2.83,2.86.11.66,1-.84.47.52-1.05-.27-.84,1.41-2,2.09-.2-.62.73-1.35-.4-.69.28,1.13-1.6,1.74-2.08,2.65.27.24,0,.73-.47,1.34s-1.16,1.29-1.63,2c-.11-.24-2.41,2.18-3.66,3.17l-.06-.11c.33.72-.92,1.8-1.65,2.76-.28-.34-.25-.61.05-1.21l-.78.81a2.22,2.22,0,0,1-.62,1.27l-.19-.59a18.63,18.63,0,0,0-1.4,1.85,7.76,7.76,0,0,1-1.93,1.78c.27.45,2.11,0,.84,1.63-.25-.15-.63-.44-.31-.89-.1.15-.3.59-.64.75l.28-.9c-.78.45-.07.6-.62,1.05-.26-.3-.57.14-.71-.16.11-.15.56-.29.65-.59a4.22,4.22,0,0,1-1.91.95c.2.12.35.4,0,.83-1.08,1-.69,0-1.48.4-.1.44-1,.84-.65,1.3-.34.28-.58.12-.81.11-.42.7-2.71,2.38-1.65,2.3l.18-.09-.08.1h0a10.1,10.1,0,0,1-3,2.49,20.74,20.74,0,0,0-3.2,2.24l-.11-.16c-1.07,1.09-2.66,2-3.29,3-.37.26-1.07.31-1.05,0a5.45,5.45,0,0,1-2.4,1.7c.78-.92-.49,0,.85-.86-1.33.7-1.8.59-2.85,1.91.18-.72-1.29.07-1.8.58l1.07-.26a14.34,14.34,0,0,1-1.86,1.18l0-.77c-3,.93-4,4-6.69,4-.46.81,1.59-.56,1.24.28-1.25.65-3,.5-3.39.71-1.87.59-1.11,1.71-3,2.45.33.08.85.53-.38,1.45-1.3.57-2-.11-1.3-.67.3-.17.48-.17.5-.1.36-.28.84-.66.23-.62l0,.29c-.73.11-2.45,1-2.22.45-.84.67-.23.55.53.3-1.76.51-2.52,1.26-4.28,1.88.32,0,.69.12.42.25-2.57.93-.88.92-2.51,1.81-1.11.11,0-.94-1.58.12-1.13.25-.48-.47-.16-.84-1.34,1.12-3,1.08-3.9,1.37l.74-.53a6.07,6.07,0,0,1-1.25.66l.66.23c-.51.14-.92.31-1,.12-.37.5.7.56-.11,1.38-.74,0-1.85,1.08-2.32.6,2.09-.68-.47-.49,1.19-1.32a3.67,3.67,0,0,1-1.22.51c-.1,0,0-.15.14-.23-2.15.3-.6,1-2.61,1.87.12-.43-.73-.43-1-.23.82-.32.62.39,0,.94-1.4.27-1.33.76-2,1l.82-.19c-.13.44-.79.65-1.66,1.12-.18-.22.75-.5.39-.49-.78,1-2.5.32-3.77,1.23-.74,0-.3-.6-.93-.54-1.42,1-1.88.19-3.41,1.17.65.27.69.13-.32,1l2.62-1.34-1.52,1.31c.83-.3,1.64-.94,2.16-1-.7.67-.65.53-.12.75-1.38-.25-2.09,1.25-3.58,1.26l-.36-1.12c-2.15.19-3.31,1.8-6,2.41l.9-.09c-.19.58-1.58.6-2.36,1.06,0-.4-.61-.37-1-.48.14.26-1.9.59-1.89,1.42l-1.31-.11c-2.16.45-2.06,1.81-4.13,2.31.48-.6-.52-.58.75-1.29-.68.2-1.31.32-1.24.58-.46-.12-1.71,1.1-2.45.91-.23.25-.21.68-1,.86-.11,0-.05-.18-.05-.18.05.18-1.12.6-.33.82a8.26,8.26,0,0,0-4.1.62,8.22,8.22,0,0,1-3.86.62c-1.45.54-3.21,1.14-4.57,1.52.06-.14,0-.2.23-.22-2,.13-.87,1.39-3.11,1.55-1.24-.34,1-.63.31-.69-.61-1.17-2.53.83-4.15.44l.33-.16c-1.21-.16-2.56,1.15-4.39,1.48,0,0,.07-.13,0-.19-1.08.93-3.36,1.7-5.06,2.27.43-.61.73-.44.29-.87-.77.25.41.76-1.11,1.25-.57-.15-1.75-.14-2-.64l1.45-.36c-.9-.53-1.89.45-2.69.5l0-.32c-2.22.6-2.08,1.37-4.51,1.84l.3.18c-1.16,1-1.2-.18-2.4.66l-.57-.68a43.66,43.66,0,0,1-4.44,1.88,19.07,19.07,0,0,1,3.6-2c-.86.18-2.93.69-3.3,1.16a2.34,2.34,0,0,1,1.11-.38,8.52,8.52,0,0,1-4,1.77c0-1.56-4.58.57-6.08-.33-2.73,1.12-5.84.5-9.36.63,1.28,1.18-1,.05-.82,1.27-.84.08-1.16,0-1.23,0-.85-.25-1.69-.5-2.53-.77-.6-.37.8-.25.73-.53-1.83-.14-.76-.54-1.95-.89.23.45-.66.6-1.69.39l1.44.62c-2.59.56-2.16-1.1-4.77-.6l.83-.34c-1.33.17-4.87-.31-6.25.57-.23-.16-.51-.52.08-.56-3.15-.39-7.16.43-9.56-.44l.27-.27c-.6,0-1.09.45-1.8.07,0-.12.27-.27,0-.32a5.52,5.52,0,0,1-2.4.09l.71-.26c-3-.74-4.84.26-7.46.14.11-.87-2.28-1.48-3.47-1.77l.06-.12c-3.58-.6-6.2-.12-9.58-.28-1.93-1.24-6.93-1.46-10.15-2.54.48.25-.2.67-.8.66-.75-.31-2.25.24-2-.53l.27.06c-.45-.88-2.08-.94-3.32-1.18l-.39,1c-3-2.07-8.63-1-10.15-2.65-.83.11-1.8-.08-2.63,0l.15-.55a45.25,45.25,0,0,0-5.92-1.23l.62-.29c-1.5-.34-2.22,1.22-3.62,1l-.25-.92c-2.64-.52-5.15-1.8-7.91-1.6a.55.55,0,0,1,.63-.27c-1.23-.29-4.66-1.59-4.46-.36.13-.75-2.69-.67-4.18-.66l.34-.49a5.23,5.23,0,0,1-3.14.41c-.38-.16-.25-.51.24-.25-1.25-.58-1.14.28-2.67-.38l.67-.21a2.55,2.55,0,0,0-2.12.09c-.91,0-2.54-.75-2.62-1.28a1.92,1.92,0,0,1-1.85.14c-.07-.21.25-.25.41-.28-2.17-.91-3.51-.19-4.94-1.1a.41.41,0,0,0-.18-.39c1.79.46,3.23.84,3.08.85.12-.5-1.3-.94,0-1.35-1.25.09-3.44.42-4.79-.17a.86.86,0,0,1-.15-.22l.16,0a2.1,2.1,0,0,0-.91-.15,7.52,7.52,0,0,0-1.13-.44c-.06-.46-1.59-.65-2.31-.86-.08.56-1,.23-.23.9-.11-.06.15,0,.64.08a1.89,1.89,0,0,0,.32,0l-.06,0,1.79.42a2.33,2.33,0,0,1-2-.3,12.85,12.85,0,0,1-1.23.62c-.79-1-2.58-1.93-2.71-2.47-2.28-.28-5.21-1.2-6.87-.58-.66,0-.63-.49-.82-.72.39,0,.81.14,1,.05-1.31-.09-3.7-1-4.2-.33-1.47-.78,1.07-.4-1.11-.91l.35-.13c-3.86-2.38-7.4-.26-11.58-3.22.29.19.44.29.47.43-5-2.38-11.06-3.13-15.72-6.22-1.35-.78-1.68-.42-2.69-.47l-.07-.69c-.58,0-1.18,0-1.76,0-2.32-.5-3-3-5.93-3.49l.14.53c-.88-.55-3-1.4-2.6-1.72a.61.61,0,0,1-.74-.21l.14-.29c-.82-.27-1.61-.6-2.42-.92-1.43-1.34.93-.83-1.2-2.56-.86-.51-2.71-1.28-2.62-.87.29.3.63.89.44,1.14l-.82-.57c-.77.54-2.14.56-.62,2.92.6.26,1.18.52,1.77.74l.19.71a15.41,15.41,0,0,1-1.23-.94c.41.92,1.1.93,1.74,1.09a1.15,1.15,0,0,0,.32.86l1.95.24c0,.42-1,.17-.17,1,.91.07-.22-1.1,1.06-.63.49.8.11,1,1.14,1.17,0,.27-.26.31-.65.19.9.21,2.08,1.05,2.71.84.52.87,2.66,1.24,2.19,2a6.41,6.41,0,0,1,2.42.36c-1.77.35,2.67,1.31,1.86,2.17,1.36-.43,3.73,1.16,5.69,1.38-.13,0-.38.09-.52,0a7.88,7.88,0,0,1,1.72,1.27c.41-.68,2-.24,3-.39,1,1.17-1.06.58-.93,1.41.16-.62,2.34.2,2.11-.45.77.78.73.5,1,1.29.49-.86.93.16,1.9-.13,1.2.93,0,1,1.64,1.23C685.48,667.25,684,667.11,684,667.11ZM720.49,676h0l-.76-.15Zm3,.75c-.37-.11-.83-.23-1.32-.34-.06-.22.11-.38.41-.3C722.43,676.24,723.12,676.52,723.54,676.79Zm-5.47-5.39c.5,0,.63.19.67.32-.23-.05-.5-.1-.85-.15l-.08,0A.62.62,0,0,1,718.07,671.4Z"/><path class="c" d="M717,671.89h-.21l.25.19.22-.12Z"/><path class="c" d="M986.87,639l-.06,0a.32.32,0,0,1,.16,0C986.92,639,986.91,639,986.87,639Z"/><polygon class="c" points="765.73 686.96 765.75 686.82 765.46 686.89 765.73 686.96"/><path class="c" d="M1000.86,628.69a.43.43,0,0,0,.26-.06S1001,628.64,1000.86,628.69Z"/><path class="c" d="M1006,623.19l.85-.67A8.16,8.16,0,0,0,1006,623.19Z"/><path class="c" d="M1009.84,618.85a.67.67,0,0,0-.12-.24h0Z"/><path class="c" d="M935.67,671.57l-.2.1C935,672,935.34,671.8,935.67,671.57Z"/><path class="c" d="M959.84,658.87a7.86,7.86,0,0,1-.64.65C959.64,659.33,960,659.16,959.84,658.87Z"/><path class="c" d="M907.07,682.2h0l-.18,0Z"/><path class="c" d="M958.08,660.12a2.85,2.85,0,0,0,1.12-.6A4.32,4.32,0,0,0,958.08,660.12Z"/><path class="c" d="M1023.23,597.56l.13-.24a.12.12,0,0,1-.07-.07Z"/><path class="c" d="M1023.29,597.25l.06-.32C1023.3,597.07,1023.25,597.18,1023.29,597.25Z"/><path class="c" d="M1023.49,596.28l-.14.65A.87.87,0,0,0,1023.49,596.28Z"/><path class="c" d="M1019.49,604.3l.13.17A.26.26,0,0,0,1019.49,604.3Z"/><path class="c" d="M1018.34,606.33c.33-.45,1.1-1,1.39-1.72l-.11-.14C1019.7,604.94,1018.32,605.71,1018.34,606.33Z"/><path class="c" d="M1011,613.1l1.22-1.49c-.37.15-.86.35-.41-.4C1009.93,612.83,1012.51,611.08,1011,613.1Z"/><path class="c" d="M1007.23,617.68c.55-.88-.25-.19-.32-.31C1006.67,618,1006.61,618.16,1007.23,617.68Z"/><path class="c" d="M975.85,646.67l-.21-.48C975,646.7,975.75,646.35,975.85,646.67Z"/><polygon class="c" points="970.36 653.41 971.19 653.26 971.26 652.66 970.36 653.41"/><polygon class="c" points="964.29 652.78 964.55 652.54 963.51 653.38 964.29 652.78"/><path class="c" d="M897.6,679.77l.4.54C898.49,680.06,898.41,679.35,897.6,679.77Z"/><path class="c" d="M867.34,687.8a1.72,1.72,0,0,0-1.76.17A13.7,13.7,0,0,0,867.34,687.8Z"/><polygon class="c" points="774.82 683.47 775.48 683.37 774.28 683.33 774.82 683.47"/><path class="c" d="M674.57,676.5c.14-.09.4-.39.28-.4l-.51.43Z"/><path class="c" d="M675,675.18a3.6,3.6,0,0,0-1.17.94c.53-.37.36-.16,1-.62.12,0,0,.27-.22.43.15-.1,0,.21.33,0,.28-.45.18-.58-.23-.39A1.3,1.3,0,0,1,675,675.18Z"/><path class="c" d="M669.28,667.81l0,.1A.22.22,0,0,0,669.28,667.81Z"/><path class="c" d="M665.77,663.3s.1,0,.15,0A.17.17,0,0,0,665.77,663.3Z"/><path class="c" d="M665.7,662.08s0,0,0,.08S665.75,662.06,665.7,662.08Z"/><path class="c" d="M669.28,667.81l.05-.25C669.16,667.69,669.26,667.72,669.28,667.81Z"/><path class="c" d="M672.93,675.41a.5.5,0,0,0,.19-.07H673Z"/><path class="c" d="M671.38,669.28l0,0,.22-.16Z"/><path class="c" d="M672.79,670.61c0-.05-.43.33-.61.49.18-.15.28-.2.34-.2Z"/><path class="c" d="M674.24,673.49l.09,0Z"/><path class="c" d="M670.53,668.2l.13-.15A.93.93,0,0,0,670.53,668.2Z"/><path class="c" d="M682.12,649.92v.1C682.13,650,682.13,649.92,682.12,649.92Z"/><polygon class="c" points="684.29 652.75 684.26 652.78 684.25 653.1 684.29 652.75"/><path class="c" d="M665.14,660.27h0C665.22,660.27,665.19,660.26,665.14,660.27Z"/><path class="c" d="M658.8,652.16c-1.1-.74-1.15-.89-2.42-1.72C656.82,650.75,658.06,651.68,658.8,652.16Z"/><path class="c" d="M673,675.32a.15.15,0,0,1-.06-.05S672.92,675.32,673,675.32Z"/><path class="c" d="M656.38,650.44h0l-.12-.08Z"/><path class="c" d="M662.38,657.29a.94.94,0,0,0-.17.18Z"/><path class="c" d="M663.6,660.17v-.1A.12.12,0,0,0,663.6,660.17Z"/><path class="c" d="M660.8,656.5c0-.06.07-.12,0-.12l0,.06C660.8,656.41,660.85,656.41,660.8,656.5Z"/><path class="c" d="M659.84,655.17l-.08.09.06,0Z"/><path class="c" d="M677.14,650c0,.16,0,.34,0,.51C677.18,650.07,677.43,649.94,677.14,650Z"/><path class="c" d="M673.16,675.18c-.11.1-.17.14-.21.14l.06,0A1.06,1.06,0,0,0,673.16,675.18Z"/><path class="c" d="M657.18,659.06l-.09-.27A.51.51,0,0,0,657.18,659.06Z"/><path class="c" d="M665.47,648.71l.07-.05S665.5,648.65,665.47,648.71Z"/><path class="c" d="M656.55,658.19a1.05,1.05,0,0,0,.23-.35l-.14.06Z"/><path class="c" d="M677.18,650.48h0Z"/><path class="c" d="M679,649.24c-.24,0-.15.72-.22,1.14-.31.19-.11-.55-.19-.93-.2.18-.38.85-.51.81a.66.66,0,0,1,0-.31c-.23.57-.58,0-.85.71a.62.62,0,0,1,0-.18c0,.37,0,.74,0,1-.11,0-.24.45-.25,0,.07,0,.09-.18.13-.33l-.13.21c-.06-.7.17-.23.21-.75-.25.21-.55.77-.71.56,0-.68.42-.2.23-.82l.25.28c-.13-1.08.16.09,0-1.07-.34-.22-.42.32-.76.1-.1.37,0,.55-.12.92-.55.64-.26-1.73-.7-.86-.13.45-.24,1.3-.46.83l.15-.76c-.34-.1-.29,1.09-.6.54.09-.29.29-.23.24-.33-.18-.62-.2.42-.38.41l0-.68c-.37.07-.81.52-1.23.61a1.19,1.19,0,0,0,.06-.62c-.54.29-1.08-.2-1.52-.65l-.25.56s0-.27,0-.38c-.16-.24,0,.37-.17.59-.11,0-.1-.35,0-.52-.4.46-1.09,1-1.37.28l.09-.16c-.24-.28-.46,1.15-.65.58l.07-.1c-.57-.33-1.31.1-1.64-.84-.21.83-.53-.45-.74.71-.26-.64-.13-.83-.55-1.29-.12-.07-.3.7-.48.79l.09-.6-.31.6v-.74l-.18.13a.65.65,0,0,1,.05.47c-.28.23-.5-.52-.45-.84l-.63.43a1,1,0,0,1,.25-.46c-.39.57.06-.65-.31-.12a1.86,1.86,0,0,1-.1.48.42.42,0,0,0-.63-.33l.12-.41c-.39-.18-.89,0-1.34,0,.12.23,0,.95-.19,1l.06-.65c-.16.38.1.27-.17.72-.16-.1,0-.75.15-.94l-.24.19a3.65,3.65,0,0,1,.15-.53c-.08.4-.45-.75-.74-.09v-.2a12.9,12.9,0,0,0-1.77-.09c.08.59-.18.41-.24.86a5.15,5.15,0,0,0-1.71-.94c-.25.23.14.52.16.86-.31-.59-.85-.65-.79-1-.63,0-.86-.08-1.3.25a3,3,0,0,1,.57.61c0,.07-.51-.33-.73-.63v-.06c-.08.38-.93-.19-1.91-.74s-2-1.09-1.6-.45l0-.07a2.15,2.15,0,0,0,.1.6c-.5-.2-.42-.49-1.23-1,.28.5-.08.39-.53.22s-1-.39-.74,0c-.48-.31-.87-.55-1.2-.72-.62-.29-.09.34.3.84s.76,1,.19.83l.62.34c.73.54-.24,0-.3,0,.47.26.45.14.86.45a3.69,3.69,0,0,1,1.07,2,9.56,9.56,0,0,0,.37,2c.26.59,2.64.75,1.94,1.22l-1-.29a4.8,4.8,0,0,1,1.51,1.7,3.64,3.64,0,0,0,1.32,1.51c-.18,0-.37.08-.44,0-.3.42.57.88.89.65.08.18-.27.22-.37.43a.18.18,0,0,0,.11.21.52.52,0,0,0,.22,0c.15,0,.28,0,.11.18a.3.3,0,0,1-.2,0c.25,0,.23.42.62,0-.06.38.51.29.37.66.59-.25,0,.55.77.08-.75.51-.31.82.14.71-.26.11-.14.29-.49.46.13.15.37.2.72-.1-.65.93,1.14.06.15,1.06a7,7,0,0,1,1.83.7c-.73.54-.43-.41-1.17.19.6.17,1.39-.08,1.53.45,0,.17-.36.18-.5.24.6.16.53.82,1.19.86a.57.57,0,0,1-.25.08c.08,0,0,.24.34,0h-.14c.38-.48,1.19-.51,1.44-.7-1,.63,0,.53-1.26,1.28a1,1,0,0,0,.5-.25c0,.11-.12.23-.41.36.37.11.64-.25.81,0a3.14,3.14,0,0,1-.45.25c.39-.13.78-.26.8,0-.1.07-.2.19-.25.13.31.28,1.24-.12,1.24.47-.74.45-.11.3-.67.79l.33,0,.21-.31c.13.17.66,0,.59.26l-.33.08.36.21.07-.35c.43-.09.71-.63.73-.28-.09,0,.13.16-.13.53h0c.25-.07.51-.15.48.08s-.65.52-.76.64c.55-.33.46.26,1-.07a2.81,2.81,0,0,0-.5.38l.44-.26c0,.18-.1.24-.35.43.12.29.65-.69.57-.16,0,0-.09.07-.19.08.07.4.68.3.71.7-.5.57-.32-.09-.72.42.41.25,1.31.12,1.48.57v-.12c.83-.66-.17.6.35.44a1.46,1.46,0,0,0-.38.27c.07.35.62.29,1.18.41l-.24.14c-.06.3.22.45.26.68.24-.14.28,0,.53-.35-.73,1.51,1.39.28.81,1.55,0,0-.27.05-.24.09l.5.16c.31-.34.16-.24.35-.55.24-.15.49-.2.56-.12-.36.06-.53.51-.66.75.09-.1.23-.19.33-.29-.44.74.7-.62.52,0l-.19.16c.17,0,.48-.14.52,0-.34.41-.27.08-.59.38.15.11,1-.44.72,0-.17,0-.25,0-.41,0-.32.57-.19.47-.17.64v.4l.07-.17c1.16-.81.51.16,1.38-.26-.83.39-.39.32-.84.72-.07.18-.12.4-.27.49.46-.24-.1.45.56.1-.14.14.09.12-.28.44.25,0,.21-.27.4-.43.68-.26-.09,1.06.86.72.52,0,1-.42,1.51-.41a1.07,1.07,0,0,1-.57.44c-.08.33.06.39.34.36a1.2,1.2,0,0,0-.34.41c.14.06.57-.44.5-.1a5.79,5.79,0,0,1-.65.45c.24,0,.61-.15.86-.16-.21.28-.44.3-.64.41a1.08,1.08,0,0,0,1-.21l0-.22c.07,0-.3.35-.41.39-.41.18,0-.3.1-.45h.17c.72-.9-.47-.21-.6-.43l.66-.52-.66.31c.11-.19.42-.54.59-.54.17-.42-.32.1-.1-.33,0-.07.07-.09.11-.1l-.3,0c.15-.1.4-.43.38-.27.13-.56-.78.09-.42-.44l.06,0c-.5-.1-.46.4-1.2.68l.92-1.21-.46.4s0-.14.14-.3c-.41.18-.17.21-.52.42.25-.54-.59-.23.07-.95-.38.27-.11.4-.5.46.7-.78-.31-.06-.1-.53.43-.34.35,0,.56-.48-.73.55-.11-.41-.35-.4-.53.5-.46,0-.82-.07.18-.16-.07-.64-.05-1l.09-.08c-.57.47-.64.19-.88.16a1.6,1.6,0,0,1,.68-.46l-.12-.12a.66.66,0,0,1-.47.15l.43-.35c-.18-.15-.8.1-.74-.37-.39.33-.87,1.15-1.35,1.15a2.47,2.47,0,0,1,.68-.55c-.05,0-.24.09-.19,0l.43-.23c0-.24-.34.21-.38.1.29-.26.15-.25.39-.45,0,0-.05.18.09.11a.85.85,0,0,1,.22-.65c-.16.16-.39.36-.49.33s.29-.39.35-.63c-.24.15-.14-.15-.57.24-.05,0,.15-.25.25-.37-.28.08-.45-.37-.81.15V668h0c-.7.1-.32-.84-.77-1l.15-.13c-.33,0-.45-.3-.88-.15-.05-.05.16-.36.35-.5-.23,0-.41.1-.34-.31.38-.1.18-.25.31,0,0-.29.17-.54-.4-.37.44-.27.36-.55.17-.54l-.16.37a.37.37,0,0,1-.22-.27l.54-.4c.3-.89-1.61.25-.82-.91-.44.21-.08.41-.57.68-.07-.23.5-1,.46-1.08.08-.46-.93.43-.94,0-.16.18-.61.62-.94.59-.07-.23.59-.86.82-.87,0,0,0,.09-.05.14a.38.38,0,0,0,.39-.23l-.2.14c.11-.24-.1-.46.24-.66a.36.36,0,0,0-.36.37c.08-.44-.27-.34-.28-.71-.07.12-.26.33-.29.29,0-.52-.47.14-.73,0,.17-.36.7-.51.28-.54.07-.29.46-.43.65-.5-.52.09-.08-.57-.11-.74h.24a.22.22,0,0,1-.22-.11l-.32.37c0-.12,0-.17.12-.3-.29.13-.57.55-1,.69.12-.24-.41-.1,0-.52,0,.4.47-.43.73-.27-.09,0-.13,0-.12-.17a.23.23,0,0,1,.15-.07c.23-.61-.65.33-.85.05.3-.19.47-.48.38-.48.08.12-.42.43-.71.5.08-.34-.31-.06-.36-.17l0,.19c-.3.18-.34.07-.52,0,.21-.18.24,0,.3-.13-.6.25.27-.7-.21-.63.12-.23.52-.42.59-.6-.53.08.21-.52-.26-.5-.33.35-.23.29-.72.42l.55.16-.73.19c.08.12.42.05.4.16-.39.13-.29.07-.56.37.45-.59-.56,0-.31-.51l.94-.72c.21-.58-.84-.09-.86-.61l-.08.23c-.41.24-.21-.17-.45-.16a2.38,2.38,0,0,0,.55-.58c-.23.18-.17-.27-.82.18l.3-.47c0-.4-1.14.36-1.23,0,.4-.17.54-.46.92-.46-.06-.09-.06-.22-.29-.06.17-.19-.6.07-.36-.23-.17.06-.51.29-.56.17a.73.73,0,0,1,.16-.11c-.16.11-.33,0-.62.34.8-1-.63-.72,0-1.58a2.39,2.39,0,0,1-.66-.45c.1-.06.16-.11.15,0,.13-.46-1,.47-.87,0,.49-.42.37-.07.54-.25.54-.36.49-.36.35-.36s-.35,0,0-.18h.09c.4-.2-.6,0-.61-.18l.22,0a2.52,2.52,0,0,1-1.55-.38,3.86,3.86,0,0,0,1,.06c-.14-.07-1,0-1.3-.17a3.76,3.76,0,0,1,1.27,0l.11.11c.88,0-.12-.13,0-.17l.42.07c-.21-.14-1.32-.38-1.38-.59l-.33-.07c-1.24-.46.58.08-.37-.31l1.19.36a12.79,12.79,0,0,1-1.73-1c1,.51,1.61.83,2.19,1.08a2.53,2.53,0,0,0-.86-.5c.14.08.47.23.29.18a4.82,4.82,0,0,1-1.76-1c1.32.63,1.44.62,1.48.58s0-.16,1.08.44c-.57-.37-.52-.41-.33-.33s.52.25.41.14l-1.12-.76-.19-.14s0,0-.15-.13l-1.12-.79,0,0s.06,0,.19.1c.58.37,1.13.73,1.65,1.09.7.51.46.37,1,.76.25.14,1,.74,1.62,1.19-.81-.61-1.12-.87-.8-.63l-1.06-.79c-.52-.44,0-.08.44.28s.89.71.4.28l.6.51c-.32-.29,0,0-1.22-1.23.21.18.66.61.75.72s-.13-.22-.26-.45-.15-.38.19,0l.25.36c-.06-.1-.43-.66-.14-.3.09.15.23.35.25.38-.08-.13-.32-.6-.15-.39l.2.38c.2.24.08,0,0-.29s-.17-.68-.09-.77a7.12,7.12,0,0,0,.61,1.45l0,.14c.15.14.23-.7.6-1,.08,1,1,.59,1.45,1.21a1.11,1.11,0,0,1,.24-.75c.09.2.45-.54.29.26l0,0c0,.8.25.63.45.69l.21-1c.27,1.61,1.46-.32,1.53,1.08.16-.25.32-.22.49-.46l-.1.56a1.21,1.21,0,0,0,1,.23l-.15.38c.24.08.55-1.57.78-1.57l-.06.85c.43,0,.77.84,1.3.14,0,.12-.07.36-.15.39.2,0,.72.66.79-.5-.09.75.44.13.71-.17l-.11.55c.29-.68.31-.88.61-1,.06.08,0,.45-.06.3.18.32.22-.5.45-.18l-.14.34c.22.07.22-.12.39-.52.17-.21.4.19.38.69.07-.3.23-.7.35-.54a.78.78,0,0,1-.1.36c.34.42.62-.58.82,0a1,1,0,0,0,0,.33c-.29,0-.53-.1-.5-.14-.06.51.18.63-.09,1.32.23-.37.65-1.17.86-.91,0,0,0,.1,0,.18l0,0c.05.06.1,0,.16-.07.06.1.1.16.17.18,0,.42.26.25.38.28,0-.56.18-.45.08-.93,0,0,0,.07-.11.08s0,0-.05,0v0h-.3c.12-.28.24-.51.34-.19l.25-.88c.09.79.37,1.24.37,1.73.39-.28.88-.14,1.19-1.17.11-.13.09.31.12.47s-.14.08-.18.23c.23-.25.62,0,.72-.79.24.36-.19.67.17.58l-.06.22c.63,1.22,1.26-1.81,1.94-.25a.53.53,0,0,1-.07-.26c.85.71,1.85-.53,2.68.56.24.22.29-.25.45-.6l0,.6.28-.69c.38-.5.59,1.51,1.09.55l-.05-.4c.16.08.53-.23.49.23,0-.07.07-.42.13-.2v.31l.42-.53c.31.23-.08,1.25.39,1.32a1.92,1.92,0,0,0,.45-1.12c-.07,0-.18-.2-.18-.52l.16-.16a5.09,5.09,0,0,0-.2-2.54l-.27.57-.08-.46.23,0c-.12-.43-.21-.05-.3.2a1.37,1.37,0,0,0-.11-.5l-.27.89c0-.37.13-.72,0-.93-.13.41.1.82-.11,1.09-.12-.43-.07-.77-.23-.41a.84.84,0,0,1,.08-.5c-.14.28-.35.11-.43.61-.12-.53-.46.12-.42-.76,0,.21-.25.68-.37.72.25-1-.46-.08-.36-1.21-.2.94-.61.4-.92.92,0-.08.06-.23.08-.18-.16-.08-.19-.37-.29-.55a3.91,3.91,0,0,1-.47,1.42c-.17-.76.16-.91.13-1.64,0,.63-.38.62-.33,1.15a2.1,2.1,0,0,1-.17-.89c-.08,1-.15.16-.31.76-.2-.5,0-.92-.27-.64A.85.85,0,0,1,679,649.24Zm-5.89,1.26h0l.13,0Zm-.49,0a.46.46,0,0,0,.21,0c0,.19,0,.39-.09.38S672.64,650.64,672.58,650.46Zm.67,4c-.09.07-.1,0-.1-.15l.14-.06,0-.07C673.29,654.27,673.27,654.37,673.25,654.44Z"/><path class="c" d="M673.46,653.72l0,0,0-.13,0,.18Z"/><path class="c" d="M669.26,667.92h0a.23.23,0,0,1,0,.07Z"/><polygon class="c" points="666.05 648.52 666.03 648.67 666.09 648.55 666.05 648.52"/><path class="c" d="M669.71,671.23l-.08.13A.49.49,0,0,0,669.71,671.23Z"/><path class="c" d="M670.44,672.18l0,.26A1,1,0,0,0,670.44,672.18Z"/><path class="c" d="M670.87,673l.19-.16h0Z"/><path class="c" d="M660.7,662.57s0,0,0,0S660.59,662.58,660.7,662.57Z"/><path class="c" d="M664.47,665.07a.87.87,0,0,1-.29.07C664.2,665.23,664.23,665.28,664.47,665.07Z"/><path class="c" d="M657.19,659.09h0l0,0Z"/><path class="c" d="M664.06,665c0,.13,0,.17.12.16S664.17,665,664.06,665Z"/><path class="c" d="M673.47,676l0,0,.07-.06Z"/><path class="c" d="M673.56,676h.08S673.61,676,673.56,676Z"/><path class="c" d="M673.81,676l-.17,0S673.68,676.06,673.81,676Z"/><path class="c" d="M672.8,675l-.15.14Z"/><path class="c" d="M672.5,674.76c0,.1-.15.47,0,.46l.13-.1C672.39,675.29,672.8,674.58,672.5,674.76Z"/><path class="c" d="M673.22,671.91l.1.33c.12-.19.28-.44.41-.38C673.93,671.13,673.44,672.25,673.22,671.91Z"/><path class="c" d="M672.79,671c.19,0,.23-.22.32-.3C672.9,670.78,672.85,670.79,672.79,671Z"/><path class="c" d="M668.16,666.05l.4-.33C668.42,665.68,668.41,665.85,668.16,666.05Z"/><polygon class="c" points="665.31 666.83 665.16 667.13 665.55 666.87 665.31 666.83"/><polygon class="c" points="667.55 663.85 667.64 663.84 667.37 663.81 667.55 663.85"/><path class="c" d="M660.41,655.12l-.49.39C660.07,655.52,660.65,655.12,660.41,655.12Z"/><path class="c" d="M658.05,652.79c.44.09.72.14.23,0C658.25,652.78,657.92,652.73,658.05,652.79Z"/><polygon class="c" points="663.94 653.3 663.81 653.49 664.03 653.35 663.94 653.3"/></svg>