<svg xmlns="http://www.w3.org/2000/svg" viewBox="0 0 1920 803"><defs><style>.a{fill:#fecc4b;}.b{fill:#5fc4c2;}.c{fill:#004543;}</style></defs><path class="a" d="M728.08,371.93c-.18.22,0,.57.66.35l.29-.75Z"/><path class="a" d="M732.62,372.14c.68-.46,1.43-1.18.82-1.68-.61.78-.85.53-1.48,1.46-.62.22-1.15.05-1.1-.21-.19.21-1,.08-1.27.56a3.42,3.42,0,0,0,3-.57C732.84,371.8,732.65,372,732.62,372.14Z"/><path class="a" d="M795.43,368.41l-.4-.08A1.49,1.49,0,0,0,795.43,368.41Z"/><path class="a" d="M834.32,371.23c-.3,0-.43,0-.45.09C834.15,371.31,834.38,371.29,834.32,371.23Z"/><path class="a" d="M840.84,372.71l-.38-.09C840.6,372.69,840.75,372.75,840.84,372.71Z"/><path class="a" d="M795.43,368.41l1,.22C796.55,368.42,795.94,368.46,795.43,368.41Z"/><path class="a" d="M740.94,369a1.82,1.82,0,0,0-.54.27l.52-.16A.52.52,0,0,1,740.94,369Z"/><path class="a" d="M778.25,369h-.31a1.39,1.39,0,0,0-.26.28Z"/><path class="a" d="M765.1,369.71c.3,0,.37-.56.46-.81a1,1,0,0,1-.62.43A.69.69,0,0,0,765.1,369.71Z"/><path class="a" d="M744.22,370.83l-.36.12Z"/><path class="a" d="M787.68,369a.45.45,0,0,0,.12.2A.26.26,0,0,0,787.68,369Z"/><path class="a" d="M1073.23,549.21l-.1,0C1073.2,549.3,1073.24,549.32,1073.23,549.21Z"/><path class="a" d="M1071.06,564.85l0-.21a1.09,1.09,0,0,0-.31-.08Z"/><path class="a" d="M852.79,375.08l-.06,0C852.41,375.07,852.59,375.09,852.79,375.08Z"/><path class="a" d="M959.7,405.45c-1-1,2.15.23.63-1C960.4,404.68,958.39,404.53,959.7,405.45Z"/><path class="a" d="M741.29,369l.54-.09A2.37,2.37,0,0,0,741.29,369Z"/><path class="a" d="M960.33,404.41h0l-.16-.13Z"/><path class="a" d="M880.37,379.78a.77.77,0,0,0-.22-.31C880.14,379.53,880.19,379.61,880.37,379.78Z"/><path class="a" d="M860,375.06l.5.16A2.82,2.82,0,0,0,860,375.06Z"/><path class="a" d="M891.11,381.44a1.75,1.75,0,0,0,.73.23l-.1-.1A.82.82,0,0,1,891.11,381.44Z"/><path class="a" d="M902.05,384.25c0-.06-.12-.11-.17-.17l-.36-.06Z"/><path class="a" d="M1064.06,515.55a1.9,1.9,0,0,1-.3.67C1064.08,515.92,1064.77,517.46,1064.06,515.55Z"/><path class="a" d="M741,369.32a.42.42,0,0,1,.3-.29l-.37.09C740.9,369.21,740.9,369.29,741,369.32Z"/><path class="a" d="M892.61,377.24l1.74.53A17.51,17.51,0,0,0,892.61,377.24Z"/><path class="a" d="M1025.43,443.51l.32.29A.8.8,0,0,0,1025.43,443.51Z"/><path class="a" d="M899.58,379a3.17,3.17,0,0,0,.89.62.57.57,0,0,0,.24-.09Z"/><path class="a" d="M1063.75,516.23h0Z"/><path class="a" d="M1068.74,527.21c-.49-1.67-.93-.57-1.45-.8-.8-1.92.24-1.08.4-1.86-.56-1.19-1.51-1.92-1.79-2.84.09-.11.07-.3.29-.14-1-1.11-1.29-3.84-2.54-5.09a.45.45,0,0,1,.1-.25,1.33,1.33,0,0,1-.87.56c-.27-.72-.92-1.19-.56-1.63.14.45.34.42.56.58l-.47-.69c.41-.92.59,1,1.08.79-.74-1.42-1.89-3-2.15-4.15.55-.47,1.21,2.57,1.21.85l.39,1.86c.53-1.72.31,1.1,1-.54-.64-2.4-1.29-2.47-2-4.85-.55-.39-.46.37-1,0-1.89-3,.57-3.19-1.22-5.25-.68-.45-1.54-.37-1.84-2.22l1,.28c-.87-2.24-1.56-.83-2.06-3.34.45.29,1,1.63.91,1.26-.08-1.73-.85-.88-1.33-2l.52-.51c-1.14-2.28-2.7-4.65-4-7.14.25,0,.64.4.55-.28a67.44,67.44,0,0,1-4.42-10.13l-1.13-.89c-.14-.28,0-.63.22-.39-.42-1.29-.36.11-.86-.35-.39-.65-.17-1.05.21-.7-.76-.94-1.79-2.29-2.73-3.71a17,17,0,0,1-2.09-4.16l.39.33c-.77-1.79-2.14-1.28-2.57-3.11l.27.25c-.94-1.89-2.2-3.72-3.27-5.51a23.76,23.76,0,0,1-2.62-5.05c-1,0-2-3.65-3.17-3.21-.88-2.31-.33-1.86-2-4.84-.51-.76-1.38-.66-2.17-1.47l.47-.39-1.45-.81.07-1.09-.77-.73c.23.35.33.87.15.93-1.21-1.13-2.19-3.38-2-3.61-1-.88-1.93-1.78-2.95-2.62.25-.11.76.32,1.21.62-1.85-1.16.24-.73-1.49-1.76.07.28-.37.14-.49.2a11.41,11.41,0,0,0-3.12-3.59l.53-.08a67.49,67.49,0,0,0-7.19-6.22c.82.89.13,1.28-.67.75l.1-.75c-.74-.06.64.81-.67.42-.92-.81-.2-1.1.49-.83l-1.32-.74c0-.21.38-.08.61-.22-.7-.08-1.77-2.07-2.92-2l0-.21a29.84,29.84,0,0,0-3.41-2c-1-.5-1.88-1-3-1.63-.33.46-1.15-.17-2-.18a39.52,39.52,0,0,0-5.23-3.69c-1.57-.54-.65.19-1.46.13.15-.51-1.9-1.58-.67-1.32a59.81,59.81,0,0,0-6.45-3c.24.37.57.66.3.71-.6-.24-1.19-.86-1-1l.17,0c-3.86-1.09-7.43-5.51-10.75-5.91l.19,0-3.19-.89c-1.32-.72,1,0,.11-.72-3.56-.7-5-2.53-7.86-3.15-1.46-2.26-7.33-3.11-9.76-5.13l0,.39c-.86,0-.81-.54-1.31-.83,0,.29.67.61.14.61a91.46,91.46,0,0,1-9.41-3.87c-3.15-1.39-6.29-2.91-9.44-4.21-2.33-.88-1.94,1.29-4.63-.51l1-.34a51.51,51.51,0,0,1-7.35-2.07,52.41,52.41,0,0,0-7.29-2c.33-.06.39-.25.85-.11-.85-.76-3.66-1.15-3.79-.76-.72-.25-.07-.39-.47-.7-.92-.56-2.68-.12-3.08-.73-.07-.1.32-.07.51-.05-.71,0-3-.91-2.55-.2-1.7-.75-3.45-.74-4.79-1.41-1.08.37-3-1.06-3.49-.29.35-.84-3-1.5-4.18-1.37.44-.17-.92-.52-.39-.78-1.29-.33-2.52-.42-2.4.08-2.14-1.59-5-.24-6-1.9l-5.73-.61c-1.84-.2-3.63-.42-5.39-.67.3-.86,3.86.69,3.9-.27-3.38-.3-5.42,0-8.67-.75-.82-.27.56-.3.87-.4-3.38-.21-6.38-1.26-9.42-1.24,0-.08.36-.12.67-.14-.59-.06-1.33-.35-1.33.07l.58,0c.83.73-2.51.86-2.66,1.16,1.17-1-2.87-.75-1.07-2-.39,0-.9.13-.86.41-.55-.16-.71-.35-.09-.57-2.12-.11-1.44.44-3.33.13,0-.19.43-.21.66-.41a6.86,6.86,0,0,1-3.61.11c.11-.1,0-.28.43-.21-2.76-.31-4.82.37-7.79-.38,1-.75-1-.4-1.06-1.16l-1.66,0,.61.43c-1.42-.17-2.74.23-3.94-.16l1.1-.18-2.69-.17,1.48.46c-1.48.22,0,.95-1.81.53.39,0-1.42-.16-2.12-.66h0a4.64,4.64,0,0,1-2.51.07c-.25-.26.3-.8.13-1-.75.56-3.35-.14-4.29.45.3-.13.35-.52.26-.61l-.62.45c-.65-.22-.74-.31-.61-.61-2-.24.56,1-1.77.41.19,0,.11-.11.5-.16-2.36-.38-4.61,0-6.77-.42-.59-.79,1.92,0,1.22-.73-3.15-.1-6.57.54-9.6.19l.56.11c-.47,1-2.24-.64-3.81-.18.38-.07.52-.57.41-.46a42.15,42.15,0,0,0-7.45.37l.4-.27c-1.22-.25-3.24-.18-4.57-.32-.39.27-1.15.21-.7.62a11.07,11.07,0,0,0-5.9-.33,12.37,12.37,0,0,1-5.55-.07c.43,0,1-.27.68-.26l-3.09.33c.25.46.41.27,1.07.62a4.16,4.16,0,0,1-2,.54c1.38-.35,0-.74-.64-1,.1.14-.1.3,0,.45-1.65-.78-.24.92-2.46.45l.1-.25a10.44,10.44,0,0,1-2.45.49c-.4-.51.86-.29.9-.73-1.25.09-2.42,1.13-3.58.65.53-.17,1.29-.21,1.81-.39a4.28,4.28,0,0,0-2.32-.45h.09c-.71-.07-1.42-.13-2.13-.17l.55.13c-1.48,1.5-3.17.47-5.21,1.53,2-1,.3-.52.41-1.14-.55-.13-1.39-.26-1.17-.45-.95.56-1.69-.24-3,.6-.08-.19-1.07.07-.89-.44-1.28.27.34.31.25.57a8.18,8.18,0,0,1-3.46.27,9.41,9.41,0,0,0-4.08.61c-2.43.64-2.79,1.4-5,2-.81-.2.54-.79.54-.79a7.35,7.35,0,0,0-3.35.47c.21-.21-.05-.31-.45-.47-.93.21-.51.81-1.79.73a3.11,3.11,0,0,1,.81-.93c-1.08.36-2.11.9-3.22,1.26-.37-.28.6-.62,1-.91-1.26.34-3.27.94-3.56,1.53l.85,0c-.46.12-.33-.4,0-.57,1-.62,1.62-.12,1.71.06l-.78.28c1,.94,3.22-.73,4.88-.95l-.55.94,1.57-1c.39.16.7.58-.09.83,1.23.22,1-.44,2.07-.13.12.05.07.1,0,.15l1.11-.41c-.2.21.27.56-.45.54,2.11.2,3.23-1.09,4.08-.54l-.16.07c2.82-.6.2-.64,2.27-1.59l1.61,1.33.21-.64c.3,0,.89,0,.81.23,1-.54-.22-.25.38-.71,1.48.42,3.91-.61,4.32.33.47-.51-1.4-.24.1-.7.52,1,1.74-.35,3.08.05-.36.57-1.61.37-.27.76.72-1,2.55,0,3.63-.22,0-.73,2.37-.49,4.2-.8-.1.25,3.49.24,5.22.42l-.05.12c.31-.74,2.09-.65,3.37-.84,0,.44-.26.62-1,.84l1.22,0a2.51,2.51,0,0,1,1.43-.48l-.29.56c1.61-.08,3.24-.74,5.32-.38.11-.51-1.67-1.41.53-1.77.08.28.17.75-.41.87a2.09,2.09,0,0,1,1.06-.12l-.88.47c.95.2.49-.39,1.25-.35,0,.39.56.28.46.59-.2,0-.67-.16-.95,0a4.82,4.82,0,0,1,2.22.59c-.07-.23,0-.54.63-.59,1.61,0,.55.46,1.49.67.39-.27,1.42,0,1.45-.56.47,0,.56.29.74.45.83-.25,3.9,0,3-.67l-.22,0,.14,0h0c2.75-.57,5.69.48,8.41.31v.19c1.63-.18,3.61,0,4.79-.36.48,0,1.11.42.9.65a6.83,6.83,0,0,1,3.17.12c-1.27.28.41.33-1.29.18,1.6.26,1.94.59,3.7.15-.62.46,1.17.72,1.94.63l-1.1-.45a16,16,0,0,1,2.37.19l-.46.63c3.22,1,6-1,8.42.64.91-.38-1.75-.49-.93-1,1.5.23,3,1.33,3.46,1.37,2,.56,2-.79,4.16-.33-.25-.26-.45-.93,1.19-1,1.5.26,1.75,1.2.78,1.28-.37,0-.53-.11-.51-.19-.49,0-1.14.06-.57.38l.22-.21c.72.32,2.79.54,2.26.87,1.16-.1.53-.33-.3-.55,1.9.56,3,.35,5,.81-.3-.17-.56-.48-.24-.44,2.88.63,1.34-.29,3.33-.14,1.07.51-.52.8,1.51.77,1.18.41.17.66-.34.79,1.87-.21,3.34.75,4.35,1l-1,.07a7.27,7.27,0,0,1,1.52.09l-.48-.54c.55.16,1,.22,1,.42.62-.23-.32-.85.88-1.11.71.35,2.3.1,2.47.76-2.31-.58.16.67-1.83.46a4.11,4.11,0,0,1,1.4.23c.07.08-.1.12-.25.13,2.14.91,1.13-.55,3.44-.17-.35.31.43.75.82.74-.93-.16-.35-.66.55-.79,1.44.51,1.65.05,2.42.2l-.87-.26c.36-.3,1.1-.16,2.15-.08.05.29-1,0-.62.21,1.25-.41,2.48,1.1,4.15,1,.7.37,0,.66.58.94,1.87-.13,1.85.83,3.79.79-.45-.56-.57-.47.85-.68l-3.16-.23,2.11-.33c-.93-.17-2-.06-2.57-.24,1-.21.9-.11.52-.58,1.15.94,2.62,0,4,.8l-.27,1.15c2.1,1,4,.21,6.86,1.08l-.89-.39c.49-.38,1.79.3,2.76.3-.17.37.38.63.73,1,0-.29,2.08.51,2.51-.21l1.16.8c2.26.74,2.89-.49,5.08.14-.77.27.17.77-1.38.73.74.17,1.39.4,1.46.13.38.33,2.18,0,2.76.51.35-.09.55-.47,1.37-.22.08.1-.05.19-.05.19.05-.19,1.36.07.75-.54,2,1.79,6.38,1.48,8.07,3.08,1.63.32,3.59.74,5,1.12-.12.09,0,.19-.32.07,1.9.91,1.54-.74,3.71.29,1,.94-1.31,0-.65.43,0,1.31,2.79.64,4.09,1.84l-.39,0c1,.78,3,.4,4.84,1.07,0,0-.12.08-.07.18a9.9,9.9,0,0,1,2.81.13c1,.18,2.14.44,3.08.66-.72.29-.91,0-.73.58.84.21,0-.86,1.69-.45.44.44,1.54,1.06,1.51,1.64l-1.53-.49c.55.94,2,.64,2.75,1l-.21.26c2.37.71,2.68-.07,5.15.91l-.18-.32c1.63-.23,1,.83,2.55.79l.14.89a48,48,0,0,1,5.09.9,21.72,21.72,0,0,1-4.4-.3c.89.33,3,1.05,3.64.86a2.73,2.73,0,0,1-1.21-.29,8.91,8.91,0,0,1,4.61.77c-.86,1.3,4.45,2.19,5.27,3.8,3.34.68,6,2.79,9.62,4.24-.79-1.64,1.06.42,1.33-.79.87.29,1.18.44,1.22.55.74.59,1.49,1.16,2.21,1.79.44.6-.89-.13-.93.16,1.75.93.54.83,1.59,1.68-.06-.51.88-.28,1.83.35l-1.2-1.18c2.78.59,1.73,2,4.53,2.55l-1,0c1.39.4,4.77,2.24,6.44,2,.16.24.31.69-.29.48,3,1.7,7.29,2.5,9.35,4.31l-.37.14c.6.23,1.24,0,1.8.69-.09.09-.37.14-.12.29a6.48,6.48,0,0,1,2.4.92l-.8-.05c2.73,2,4.91,1.72,7.44,3-.45.76,1.67,2.35,2.72,3.14l-.1.08c3.27,2.09,6.11,2.7,9.14,4.41a18,18,0,0,0,3.52,3.52,31.93,31.93,0,0,1,4.17,4.24c-.28-.49.54-.43,1,0,.46.7,2.08,1.18,1.39,1.66l-.19-.22c-.14,1,1.16,2.1,2,3.1l.93-.55a14.57,14.57,0,0,0,3.65,5c1.42,1.55,2.76,2.93,2.79,4.1.71.53,1.33,1.37,2.05,1.89l-.49.3c1.29,2,1.88,3,3.64,5.29l-.67-.26c.9,1.36,2.54.79,3.39,2.05l-.46.85c1.6,2.38,2.48,5.24,4.61,7.26-.13,0-.38.08-.66-.3.71,1.16,2.14,4.79,2.91,3.78-.63.41,1.42,2.6,2.45,3.81l-.6.06a5.88,5.88,0,0,1,2.5,2.26c.15.42-.21.54-.36,0,.43,1.41,1,.75,1.55,2.44l-.62-.41a2.84,2.84,0,0,0,1.52,1.68c.64.73,1.18,2.58.82,3a2.12,2.12,0,0,1,1.35,1.44c-.11.19-.36,0-.48-.16.77,2.39,2.23,3,2.46,4.83a.42.42,0,0,0-.18.4c-.82-1.8-1.5-3.24-1.4-3.12-.46.22.17,1.69-1,.86.92,1,2.6,2.61,3,4.11a.68.68,0,0,1-.07.27l-.12-.13a2.2,2.2,0,0,0,.49.86,9.44,9.44,0,0,0,.39,1.24c-.31.34.54,1.76.85,2.49.49-.29.83.7.85-.38,0,.13-.12-.11-.36-.58a1.46,1.46,0,0,0-.19-.29l.07,0-.85-1.79a2.66,2.66,0,0,1,1.09,1.89c.49.23,1,.49,1.28.65-.26,1.31.19,3.41-.15,3.87.62,1.06,1.23,2.35,1.88,3.51a7.49,7.49,0,0,0,2.07,2.71c.38.6,0,.86,0,1.16-.25-.34-.41-.78-.63-.93.78,1.18,1.61,3.77,2.4,3.82.31,1.76-1-.67,0,1.53l-.32-.22a13.59,13.59,0,0,0,2.43,5.76,11.93,11.93,0,0,1,2.19,6.27c0-.37,0-.56,0-.67,1.19,5.86,4.18,11.61,4.43,17.59.15,1.67.66,1.75,1.21,2.67l-.52.48,1,1.57a6.41,6.41,0,0,1,.17,3.47,7,7,0,0,0,.44,3.9l.36-.44c0,1.12.62,3.5.1,3.35a.68.68,0,0,1,.26.79l-.32.05c.22.9.5,1.8.67,2.71-.25,2.11-1.25-.31-1.34,2.71,0,1.08.65,3.24.9,2.85.05-.45.29-1.15.61-1.15l.07,1.07c.91.29,1.78,1.33,2.66-1.4a15.8,15.8,0,0,0-.46-2l.46-.61c0,.54,0,1.07,0,1.62.48-.91.07-1.5-.17-2.15a1.23,1.23,0,0,0,.5-.8c-.28-.63-.61-1.24-.94-1.84.35-.24.77.81.9-.45-.46-.85-.77.87-1.12-.55.37-.92.73-.69.3-1.71.23-.17.41,0,.53.45-.34-.92-.37-2.46-.9-2.89.44-1-.55-3.1.34-3.13a6.68,6.68,0,0,1-1.09-2.36c1.31,1.36-.52-3.14.66-3-1.12-1-1.27-4-2.22-5.88.09.1.29.28.28.47a10.58,10.58,0,0,1,0-2.28c-.8,0-1.41-1.64-2.11-2.45.39-1.55,1.1.59,1.69,0-.58.23-1.24-2.19-1.63-1.59.16-1.16,0-.95.45-1.66-1,.09-.43-.91-1.25-1.6,0-1.63.77-.65,0-2.19C1068,525.86,1068.74,527.21,1068.74,527.21Zm-16.08-37.1h0l.39.74Zm-1.45-3.05c.16.38.37.84.61,1.33-.13.19-.36.16-.5-.15C1051.52,488.35,1051.28,487.58,1051.21,487.06Zm-.53,8.09c-.29-.45-.26-.66-.18-.77.11.22.24.48.44.82l.08,0A.84.84,0,0,1,1050.68,495.15Z"/><path class="a" d="M1051.74,495.72a.64.64,0,0,1,.13.18c0-.12,0-.23,0-.34l-.24-.1Z"/><path class="a" d="M795,368.31l.07,0a.54.54,0,0,1-.15-.09S794.93,368.29,795,368.31Z"/><polygon class="a" points="1028.01 446.33 1027.9 446.43 1028.19 446.58 1028.01 446.33"/><path class="a" d="M776.39,366.51a.55.55,0,0,0-.25-.13A.65.65,0,0,0,776.39,366.51Z"/><path class="a" d="M768.35,366.73l-1.14-.15A10,10,0,0,0,768.35,366.73Z"/><path class="a" d="M762.16,366.84a.58.58,0,0,0-.1.25h0Z"/><path class="a" d="M860.22,371.29h.24C861,371.28,860.65,371.26,860.22,371.29Z"/><path class="a" d="M831.06,368.74a7.73,7.73,0,0,1,1-.18C831.51,368.47,831.11,368.42,831.06,368.74Z"/><path class="a" d="M892.42,377.18h0l.2.05Z"/><path class="a" d="M833.37,368.71a3.12,3.12,0,0,0-1.35-.15A5.59,5.59,0,0,0,833.37,368.71Z"/><path class="a" d="M735.46,369.91l-.3,0s0,.07,0,.1Z"/><path class="a" d="M735.15,370l-.32.13C735,370.14,735.11,370.11,735.15,370Z"/><path class="a" d="M734.17,370.44l.66-.27C734.59,370.21,734.3,370.25,734.17,370.44Z"/><path class="a" d="M743.62,368.82l.06-.22A.34.34,0,0,0,743.62,368.82Z"/><path class="a" d="M746.08,368.42a9.16,9.16,0,0,0-2.34,0l-.06.17C744,368.25,745.57,368.84,746.08,368.42Z"/><path class="a" d="M756.66,369.77l-2.08,0c.38.18.88.43-.05.57C757.19,370.78,754,369.93,756.66,369.77Z"/><path class="a" d="M763.08,369.57c-1.1.17,0,.31,0,.44C763.75,369.76,763.92,369.7,763.08,369.57Z"/><path class="a" d="M809.42,369.25l-.13.51C810.15,369.73,809.31,369.56,809.42,369.25Z"/><polygon class="a" points="818.46 367.15 817.65 366.78 817.22 367.21 818.46 367.15"/><polygon class="a" points="823.42 371.17 823.04 371.21 824.48 371.16 823.42 371.17"/><path class="a" d="M900,384.19l-.08-.67C899.31,383.49,899,384.14,900,384.19Z"/><path class="a" d="M932.25,393.54a2,2,0,0,0,1.71.85A13.84,13.84,0,0,0,932.25,393.54Z"/><polygon class="a" points="1018.44 442.61 1017.85 442.24 1018.79 443.08 1018.44 442.61"/><path class="a" d="M1083.48,532.5c-.16-.06-.54-.12-.49,0l.64.19Z"/><path class="a" d="M1082.16,532.89a3.38,3.38,0,0,0,1.43.46c-.61-.23-.34-.21-1.06-.47-.06-.11.24-.12.48-.06-.16-.07.17-.12-.23-.25s-.58.17-.19.42A1.36,1.36,0,0,1,1082.16,532.89Z"/><path class="a" d="M1079.13,541.7l.09,0A.12.12,0,0,0,1079.13,541.7Z"/><path class="a" d="M1077.29,547.12s-.06-.09-.11-.11S1077.24,547.11,1077.29,547.12Z"/><path class="a" d="M1076.32,547.84l.06-.05C1076.31,547.8,1076.27,547.81,1076.32,547.84Z"/><path class="a" d="M1079.13,541.7l-.23.1C1079.1,541.86,1079.07,541.76,1079.13,541.7Z"/><path class="a" d="M1083.47,534.47a.44.44,0,0,0-.16-.12.47.47,0,0,1,.06.09Z"/><path class="a" d="M1079.2,539.13v0l-.25-.1Z"/><path class="a" d="M1079.53,537.23a3.85,3.85,0,0,0,.75.24.8.8,0,0,1-.35-.17A2.7,2.7,0,0,0,1079.53,537.23Z"/><path class="a" d="M1081.15,534.44l-.07-.07A.46.46,0,0,0,1081.15,534.44Z"/><path class="a" d="M1078.77,540.45l-.2,0Z"/><path class="a" d="M1057.13,540.82l.09-.05C1057.16,540.79,1057.13,540.81,1057.13,540.82Z"/><polygon class="a" points="1058.3 537.45 1058.34 537.46 1058.61 537.29 1058.3 537.45"/><path class="a" d="M1075.11,549.31h0C1075.07,549.24,1075.08,549.27,1075.11,549.31Z"/><path class="a" d="M1071.83,559.06c0,1.33-.11,1.45-.11,3C1071.74,561.49,1071.83,560,1071.83,559.06Z"/><path class="a" d="M1083.38,534.5a.11.11,0,0,1,0,.08A.05.05,0,0,0,1083.38,534.5Z"/><path class="a" d="M1071.72,562h0v0Z"/><path class="a" d="M1074.14,553.25l.25,0A1,1,0,0,0,1074.14,553.25Z"/><path class="a" d="M1075.88,550.64l-.1.05C1075.84,550.68,1075.87,550.66,1075.88,550.64Z"/><path class="a" d="M1074.35,555s-.13,0-.08.09h.07C1074.27,555.05,1074.25,555,1074.35,555Z"/><path class="a" d="M1073.77,556.54h.12v-.06Z"/><path class="a" d="M1059.9,545a3.43,3.43,0,0,1,.41-.32C1060,544.86,1059.73,544.73,1059.9,545Z"/><path class="a" d="M1083.16,534.41c.13,0,.2.06.22.09s0,0,0-.06Z"/><path class="a" d="M1078.48,556.61l-.17.23A.44.44,0,0,0,1078.48,556.61Z"/><path class="a" d="M1065.28,555.38l-.09,0S1065.21,555.4,1065.28,555.38Z"/><path class="a" d="M1078.1,557.62a1.42,1.42,0,0,0-.42,0,.73.73,0,0,0,.13.09Z"/><path class="a" d="M1060.31,544.64Z"/><path class="a" d="M1058.3,543.83c.11.22.68-.27,1.07-.44.34.15-.4.4-.67.67.26.06.92-.15,1,0a.65.65,0,0,1-.27.16c.6-.12.31.49,1.06.32a.53.53,0,0,1-.14.12,8.48,8.48,0,0,1,.86-.53c.07.09.51-.05.11.22,0-.06-.19,0-.34.07h.24c-.55.44-.28,0-.73.24.31.08.94,0,.86.28-.58.37-.4-.24-.82.26l.1-.37c-.83.71,0-.17-.92.56,0,.4.5.17.49.57.37-.11.48-.29.85-.41.83.12-1.31,1.18-.34,1.06.45-.13,1.22-.51.95-.06l-.72.29c.1.33,1.07-.36.78.2-.29.09-.35-.11-.41,0-.42.49.46-.07.55.09l-.58.36c.26.27.89.39,1.19.69a1.17,1.17,0,0,0-.55.29c.54.3.42,1,.29,1.63l.61-.1s-.2.19-.33.2c-.11.27.34-.16.59-.18.09.08-.24.28-.42.3.59.07,1.38.38,1,1h-.19c-.09.36,1.22-.24.84.23h-.11c0,.65.8,1,.2,1.82.81-.28-.09.7,1,.24-.39.56-.62.56-.78,1.16,0,.14.75-.13.93,0l-.56.25.68-.06-.62.4.2.08c0-.07.2-.23.37-.3.35.1-.16.7-.45.84l.7.29a1.06,1.06,0,0,1-.52,0c.7,0-.57.31.07.32a1.6,1.6,0,0,1,.46-.17.41.41,0,0,0,.07.7l-.41.13c.06.42.53.72.7,1.15.12-.23.81-.49.93-.39l-.58.3c.41-.07.17-.22.7-.25,0,.19-.64.4-.87.39l.29.1c-.18.09-.29.08-.52.17.37-.16-.39.78.33.67l-.17.11c.31.76.64,1,.9,1.53.45-.39.44-.08.85-.28a5.41,5.41,0,0,0,.16,1.95c.33.08.35-.4.63-.6-.32.57-.08,1.06-.41,1.21.3.56.41.76.93,1a2.92,2.92,0,0,1,.19-.82c.09,0,0,.61-.12,1l0,0c.35-.15.35.87.42,2s.2,2.27.51,1.58l0,.06a2.41,2.41,0,0,0,.44-.41c.11.53-.17.62-.15,1.57.27-.5.37-.15.48.32s.21,1,.37.64c0,.57,0,1,.06,1.4.1.68.34-.11.54-.71s.39-1.17.58-.62l0-.7c0-.91.12.21.2.23a4.77,4.77,0,0,1-.1-1,3.67,3.67,0,0,1,1.12-2,9.28,9.28,0,0,0,1.45-1.4c.35-.55-.82-2.62,0-2.29l.29,1a4.84,4.84,0,0,1,.59-2.2,3.67,3.67,0,0,0,.54-1.93c.1.15.26.27.21.38.52,0,.42-1,.06-1.1.11-.16.33.11.56.08a.21.21,0,0,0,.12-.21.52.52,0,0,0-.11-.19c-.09-.13-.15-.25.08-.2a.32.32,0,0,1,.16.14c-.18-.18.23-.42-.32-.53.35-.16,0-.58.34-.67-.52-.35.45-.33-.35-.68.83.34.85-.2.51-.51.24.15.32,0,.65.16.06-.2,0-.42-.48-.55,1.14,0-.57-1,.8-.71a6.58,6.58,0,0,1-.41-1.91c.85.31-.11.58.79.87-.18-.6-.82-1.12-.46-1.52.16-.08.35.19.48.28-.19-.59.39-.89.06-1.47a.55.55,0,0,1,.2.17c0-.09.19-.15-.2-.27l.08.11c-.61-.05-1.08-.71-1.37-.82,1.07.5.41-.32,1.75.35a.94.94,0,0,0-.48-.28c.1-.05.26,0,.53.15-.12-.37-.57-.39-.47-.66.19.06.24.14.46.23-.33-.25-.65-.5-.42-.68.11,0,.27.07.24.14.07-.42-.78-1-.29-1.3.79.38.31-.06,1,.13l-.15-.3h-.37c.07-.2-.4-.53-.11-.64l.25.24,0-.42-.34.13c-.31-.31-.91-.24-.63-.45,0,.08.07-.2.52-.18h0c-.2-.17-.41-.34-.19-.44s.78.26.94.28c-.57-.27,0-.53-.63-.83a2.73,2.73,0,0,0,.59.2l-.46-.22a.76.76,0,0,1,.56,0c.17-.26-.94-.16-.45-.39,0,0,.11,0,.16.12.3-.28-.12-.74.2-1,.75.1.11.32.75.38,0-.49-.63-1.17-.34-1.56l-.1.06c-1-.33.59-.19.17-.54a1.46,1.46,0,0,0,.44.18c.24-.26-.1-.68-.31-1.21l.25.12c.28-.12.25-.43.42-.59-.25-.12-.18-.22-.58-.25,1.66-.22-.54-1.32.84-1.54,0,.07.2.21.21.16l-.14-.51c-.45-.07-.28,0-.65,0s-.44-.29-.41-.4c.25.27.72.17,1,.14-.15,0-.29-.09-.43-.11.85-.05-.9-.25-.29-.44l.24.07c-.1-.15-.38-.33-.29-.44.54.07.22.18.64.29,0-.19-.9-.58-.35-.62.13.1.11.22.24.32.65,0,.5-.09.62-.2h0l.34-.24-.18,0c-1.31-.53-.15-.52-1-1,.78.48.48.16,1.06.31a1,1,0,0,1,.55,0c-.44-.25.43-.16-.22-.51.19,0,0-.15.52,0-.11-.22-.34,0-.57-.09-.59-.43.93-.51.12-1.12-.29-.43-.92-.63-1.17-1a1,1,0,0,1,.68.24c.32-.13.29-.27.11-.49a1.25,1.25,0,0,0,.53.06c0-.15-.68-.24-.36-.36a5.16,5.16,0,0,1,.74.29c-.14-.2-.47-.43-.6-.63a1.43,1.43,0,0,1,.69.31,1.11,1.11,0,0,0-.72-.71l-.22.08c0-.08.46.05.55.12.38.25-.23.2-.42.17l-.1-.14c-1.15-.11.08.51,0,.73l-.8-.26.63.38c-.22,0-.68,0-.78-.19-.44.09.26.21-.22.26a.22.22,0,0,1-.14,0l.21.21c-.17-.06-.59-.09-.45-.16-.53.19.51.6-.13.59l0,0c.18.47.59.17,1.22.63l-1.52-.11.59.17s-.09.11-.33,0c.38.24.27,0,.64.2-.59.09.13.62-.83.46.44.17.39-.12.66.17-1-.16.12.29-.39.38-.52-.18-.2-.29-.71-.21.86.31-.28.32-.14.52.7.16.22.4.39.72-.23-.07-.49.41-.81.6l-.12,0c.71.22.51.44.62.66a1.59,1.59,0,0,1-.76-.33l0,.18a.63.63,0,0,1,.39.3l-.53-.16c0,.23.52.61.1.82.49.14,1.44.09,1.7.49a2.25,2.25,0,0,1-.83-.26s.2.15.07.17l-.42-.23c-.23.09.36.16.3.26-.39-.09-.3,0-.6-.07,0,0,.18-.06,0-.14a.89.89,0,0,1-.66.18c.22,0,.52.12.54.22s-.48,0-.71.05c.25.12-.06.2.51.35,0,.06-.29,0-.45,0,.23.18-.06.57.58.59l0,0,0,0h0c.47.54-.53.73-.38,1.18l-.19-.05c.15.29,0,.54.36.82,0,.06-.39.06-.61,0,.09.21.3.29-.08.46-.29-.27-.31,0-.2-.25-.22.18-.54.15-.08.54-.47-.22-.66,0-.55.15l.4-.06c0,.14,0,.23-.11.33l-.62-.24c-.91.25,1.09,1.21-.31,1.19.41.25.38-.16.87.1-.14.19-1.12.15-1.14.21-.44.19.86.54.52.78.24,0,.86.16,1,.46-.15.18-1,0-1.18-.21,0-.06.08-.06.16,0a.39.39,0,0,0-.41-.19l.22.09c-.26,0-.33.33-.68.16a.36.36,0,0,0,.51.09c-.41.17-.14.42-.44.63.14,0,.41,0,.4.08-.4.33.38.31.39.62-.39,0-.81-.31-.6.06-.29.1-.61-.15-.78-.27.36.39-.43.38-.56.5l-.14-.19a.21.21,0,0,1,0,.24l.48.07c-.11.05-.13.12-.32.06.27.17.78.17,1.13.46-.26,0,.15.39-.47.24.31-.26-.61-.16-.62-.46.06.07,0,.14-.07.19a.27.27,0,0,1-.15-.08c-.64.14.63.36.52.68-.33-.15-.67-.13-.61-.06,0-.13.58.12.8.32-.33.13.12.29.06.39l.16-.08c.33.15.25.24.31.42-.27-.07-.14-.19-.27-.18.54.36-.74.17-.42.52-.26,0-.63-.2-.82-.16.36.4-.55.11-.28.5.48.08.38,0,.75.36l-.17-.54.56.5c.06-.13-.19-.37-.08-.43.32.26.21.21.61.27-.74-.05.27.49-.25.55l-1.12-.39c-.6.14.39.75,0,1l.24-.06c.43.21,0,.27.11.46a2.1,2.1,0,0,0-.78-.13c.27.09-.13.28.6.58h-.56c-.31.24.93.75.69,1-.37-.25-.68-.2-.9-.51,0,.1-.14.17.12.26-.26,0,.39.47,0,.44.14.1.53.26.45.37a1.08,1.08,0,0,1-.18-.07c.18.07.18.27.63.32-1.28-.11-.26.93-1.35.83a2.65,2.65,0,0,1,0,.8c-.11-.05-.19-.07-.13-.09-.46.14,1,.61.49.71-.62-.17-.26-.27-.51-.3-.59-.27-.57-.22-.49-.1s.19.29-.14.11l-.06-.07c-.38-.22.34.5.19.61l-.15-.16a2.52,2.52,0,0,1,.52,1.51,3.6,3.6,0,0,0-.49-.87c0,.15.56.82.57,1.18a3.76,3.76,0,0,1-.74-1l0-.16c-.46-.75,0,.17-.14.09l-.18-.39c0,.25.42,1.31.28,1.48l.12.31c.3,1.29-.25-.53-.06.48l-.35-1.18a12,12,0,0,1,.14,2c-.15-1.14-.19-1.8-.3-2.42a2.3,2.3,0,0,0,0,1c0-.16-.06-.52,0-.34a5.16,5.16,0,0,1,.11,2c-.21-1.45-.28-1.54-.33-1.55s-.13.1-.23-1.15c0,.68-.06.66-.1.46s-.07-.57-.11-.41l0,1.34a1.26,1.26,0,0,1,0,.24s0,0,0,.2l0,1.36v0s0,0,0-.22c0-.69,0-1.34,0-2,0-.87.06-.59.09-1.25,0-.29,0-1.26.1-2-.07,1-.11,1.42-.09,1l-.08,1.32c-.08.68,0,.06,0-.52s.1-1.13,0-.49l.1-.79c-.07.44,0,0-.36,1.7,0-.27.15-.88.19-1s-.11.23-.23.47-.24.33-.11-.16l.16-.4c0,.1-.32.72-.17.28.07-.16.16-.39.17-.42-.06.13-.32.6-.24.34l.21-.38c.09-.29,0-.07-.24.17s-.48.51-.59.49a7.28,7.28,0,0,0,.87-1.31l.1-.09c0-.2-.71.2-1.15,0,.78-.61-.07-1.18.22-1.87a1.07,1.07,0,0,1-.75.2c.11-.18-.7-.07,0-.38v0c.69-.4.39-.56.32-.75l-1,.39c1.19-1.11-1.07-1,.06-1.87-.3,0-.36-.15-.65-.16l.52-.23a1.19,1.19,0,0,0-.34-.92l.41-.09c-.07-.24-1.62.41-1.74.22l.73-.42c-.2-.39.28-1.11-.59-1.16.11,0,.34-.14.4-.09-.07-.2.16-1-.84-.39.67-.34-.14-.43-.54-.49l.52-.22c-.73.14-.9.22-1.2.07,0-.1.37-.26.28-.11.17-.33-.54.08-.4-.29l.37-.07c-.07-.22-.23-.12-.66,0-.26,0-.06-.43.37-.69-.29.11-.71.19-.64,0a.61.61,0,0,1,.35-.12c.17-.51-.83-.2-.46-.68a1.36,1.36,0,0,0,.28-.19c.12.27.2.5.16.49.45-.23.42-.49,1.14-.65-.43,0-1.33.11-1.23-.21a1.18,1.18,0,0,1,.15-.11h.06c0-.07,0-.09-.15-.09s.08-.17,0-.24c.36-.23.07-.35,0-.47-.49.27-.48.09-.82.44,0,0,.07,0,.13.05l.07,0h-.05a2.06,2.06,0,0,1,.18.25c-.3,0-.56.07-.34-.19l-.88.28c.61-.51.84-1,1.24-1.26-.45-.17-.6-.66-1.63-.35-.17,0,.21-.25.33-.36s.14.07.29,0c-.33,0-.39-.48-1-.17.16-.39.66-.2.38-.45l.22-.07c.68-1.2-2.2-.06-1.28-1.49a.48.48,0,0,1-.17.21c.12-1.11-1.47-1.26-1-2.55.06-.33-.36-.1-.75-.05l.49-.36-.73.14c-.62,0,.93-1.32-.14-1.21l-.31.27c0-.18-.48-.32-.07-.55-.08,0-.39.18-.25,0l.27-.17-.68-.06c0-.39,1.09-.63.89-1a1.88,1.88,0,0,0-1.18.24c0,.07-.07.26-.34.43l-.22,0a5,5,0,0,0-2,1.56l.62-.08-.34.31-.14-.17c-.29.33.07.2.34.14a1.25,1.25,0,0,0-.37.36l.9-.26c-.3.22-.68.29-.76.54.42-.11.63-.53,1-.5-.29.33-.6.48-.22.42a.88.88,0,0,1-.46.2c.32,0,.29.23.75,0-.37.39.35.31-.4.76a1.46,1.46,0,0,1,.8-.08c-1,.36.19.42-.81,1,.9-.35.67.29,1.27.26-.07,0-.22.08-.19,0,0,.18-.2.37-.3.55a3.67,3.67,0,0,1,1.45-.38c-.55.56-.85.36-1.45.79.54-.34.73,0,1.15-.36a2.3,2.3,0,0,1-.65.63c.86-.47.22,0,.8-.16-.3.44-.76.52-.38.58A.84.84,0,0,1,1058.3,543.83Zm4.29,4.23h0l-.08-.09Zm.24.42a.52.52,0,0,0-.08-.19c.17-.11.35-.19.37-.14S1062.94,548.34,1062.83,548.48Zm3-2.74c.11,0,0,.11-.07.17a.41.41,0,0,0-.12-.09l-.07,0Z"/><path class="a" d="M1065.07,546H1065l-.08.1.16-.06Z"/><path class="a" d="M1079.24,541.66h0Z"/><polygon class="a" points="1064.8 555 1064.93 554.94 1064.8 554.96 1064.8 555"/><path class="a" d="M1081.76,539.46h0Z"/><path class="a" d="M1082.14,538.33l.23-.12A1.11,1.11,0,0,0,1082.14,538.33Z"/><path class="a" d="M1082.61,537.5l-.23-.07h0Z"/><path class="a" d="M1079.47,551.75l0,0C1079.57,551.91,1079.54,551.84,1079.47,551.75Z"/><path class="a" d="M1079.49,547.22a1.12,1.12,0,0,1,.22.21C1079.77,547.36,1079.8,547.31,1079.49,547.22Z"/><path class="a" d="M1078.5,556.59h0v0Z"/><path class="a" d="M1079.64,547.62c.13,0,.13-.11.07-.19S1079.58,547.53,1079.64,547.62Z"/><path class="a" d="M1083.68,533.68l0,0-.09,0Z"/><path class="a" d="M1083.62,533.62l0-.06S1083.56,533.6,1083.62,533.62Z"/><path class="a" d="M1083.45,533.43l.12.13S1083.6,533.49,1083.45,533.43Z"/><path class="a" d="M1083.18,534.81l.2.06Z"/><path class="a" d="M1083.17,535.18c.06-.07.47-.12.37-.27l-.16,0C1083.67,535,1082.85,535,1083.17,535.18Z"/><path class="a" d="M1080.39,536.15l.22-.26c-.23,0-.53,0-.55-.13C1079.35,536,1080.55,535.78,1080.39,536.15Z"/><path class="a" d="M1079.88,537c-.07-.18-.31-.06-.43-.1C1079.62,537.05,1079.66,537.08,1079.88,537Z"/><path class="a" d="M1078.28,543.6l-.49-.15C1077.83,543.59,1078,543.51,1078.28,543.6Z"/><polygon class="a" points="1080.49 545.55 1080.83 545.52 1080.4 545.34 1080.49 545.55"/><polygon class="a" points="1076.77 545.32 1076.72 545.25 1076.84 545.5 1076.77 545.32"/><path class="a" d="M1073.41,556.09l.6.19C1073.94,556.16,1073.28,555.89,1073.41,556.09Z"/><path class="a" d="M1072.77,559.34c-.17-.42-.28-.68-.16-.18C1072.65,559.18,1072.79,559.48,1072.77,559.34Z"/><polygon class="a" points="1069.95 554.14 1070.18 554.15 1069.95 554.04 1069.95 554.14"/><path class="a" d="M737.82,355.94c-.46.31-.07.6,1.32.14l.83-.91Z"/><path class="a" d="M747.66,354.53c1.58-.76,3.35-1.83,2.11-2.12-1.48,1.06-1.95.92-3.52,2.13-1.39.46-2.52.46-2.35.17-.46.3-2.24.45-2.89,1.06a16.7,16.7,0,0,0,6.64-1.69C748.21,354.08,747.75,354.38,747.66,354.53Z"/><path class="a" d="M887.65,325.14l-.92.06A8.28,8.28,0,0,0,887.65,325.14Z"/><path class="a" d="M975.76,316.07c-.67.05-1,.13-1,.19C975.41,316.18,975.92,316.11,975.76,316.07Z"/><path class="a" d="M990.89,315.94H990A2.58,2.58,0,0,0,990.89,315.94Z"/><path class="a" d="M887.65,325.14,890,325C890.16,324.75,888.8,325,887.65,325.14Z"/><path class="a" d="M766.31,347.8a8.65,8.65,0,0,0-1.2.51l1.15-.39Z"/><path class="a" d="M849.24,332.23l-.71.13c-.19.12-.37.24-.54.37Z"/><path class="a" d="M819.89,338.33c.67-.12.78-.72,1-1a3.38,3.38,0,0,1-1.37.68C819.52,338.11,819.64,338.22,819.89,338.33Z"/><path class="a" d="M773.38,348.24l-.8.3Z"/><path class="a" d="M870.37,328.51a.54.54,0,0,0,.3.15C870.66,328.59,870.54,328.54,870.37,328.51Z"/><path class="a" d="M1521.54,671.7s-.07,0-.1,0C1521.49,671.88,1521.52,671.94,1521.54,671.7Z"/><path class="a" d="M1515.5,706.19l0-.48a.77.77,0,0,0-.3-.15Z"/><path class="a" d="M1018.55,316h-.13C1017.7,316,1018.11,316,1018.55,316Z"/><path class="a" d="M1267.08,357.77c-2.5-1.52,4.58,1.12.75-1C1268.13,357.13,1263.86,356.15,1267.08,357.77Z"/><path class="a" d="M767.08,347.67l1.19-.33A11.45,11.45,0,0,0,767.08,347.67Z"/><path class="a" d="M1267.83,356.78h0l-.4-.22Z"/><path class="a" d="M1082.16,317.67a2.07,2.07,0,0,0-.63-.29C1081.55,317.44,1081.69,317.52,1082.16,317.67Z"/><path class="a" d="M1034.79,314.91l1.17.09A11.43,11.43,0,0,0,1034.79,314.91Z"/><path class="a" d="M1106.77,319.09a8.13,8.13,0,0,0,1.71.23l-.25-.09A4,4,0,0,1,1106.77,319.09Z"/><path class="a" d="M1132.22,322.29l-.45-.18L1131,322Z"/><path class="a" d="M1515.63,593.36a4.44,4.44,0,0,1-.27,1.28C1515.68,594.17,1516.56,597.87,1515.63,593.36Z"/><path class="a" d="M766.41,348.1a1.17,1.17,0,0,1,.67-.43l-.82.25C766.21,348,766.22,348.1,766.41,348.1Z"/><path class="a" d="M1108.29,314.79l4.06.53C1111.22,315.15,1109.74,315,1108.29,314.79Z"/><path class="a" d="M1419.31,439l.78.53A3.37,3.37,0,0,0,1419.31,439Z"/><path class="a" d="M1124.45,316.69a14.16,14.16,0,0,0,2.23.71,2.13,2.13,0,0,0,.49-.07Z"/><path class="a" d="M1515.36,594.65h0Z"/><path class="a" d="M1520.71,621.27c-.39-3.91-.91-1.75-1.42-2.53-.74-4.63.28-2.22.46-3.85-.59-2.88-1.54-5-1.82-7.17.09-.18.07-.6.3-.13-1.11-3-1.45-9.07-3-12.45a1.17,1.17,0,0,1,.09-.49c-.25.64-.6.8-.89.73-.35-1.71-1.09-3.09-.74-3.83a3.25,3.25,0,0,0,.65,1.56l-.57-1.75c.36-1.77.73,2.4,1.23,2.3-.48-1.73-1-3.6-1.58-5.35a36,36,0,0,1-1.27-4.78c.53-.72,1.7,6.2,1.45,2.5.22,1.4.51,2.79.69,4.2.4-3.41.43,2.56,1-.62a53.76,53.76,0,0,0-1.42-5.77c-.47-1.51-.84-3-1.48-5.75-.7-1.13-.43.54-1.13-.58-2.77-7.46.07-6.52-2.57-11.85-.89-1.31-1.88-1.61-2.7-5.71l1.15,1.11c-1.66-5.18-2.06-2.57-3.47-8.09.63.84,1.68,3.93,1.49,3.12-.67-3.67-1.29-2.3-2.25-5l.44-.8c-1.09-2.68-2.41-5.43-3.71-8.26q-.5-1.05-1-2.13l-1.08-2.11c-.72-1.42-1.44-2.85-2.13-4.29.33.24,1,1.15.54-.3-1.76-3.65-3.82-7.43-5.64-11.31-.89-1.94-1.9-3.82-2.86-5.68l-2.77-5.42q-1-1.15-2-2.25c-.37-.58-.47-1.22,0-.65-1.45-2.68-.4.07-1.38-1-1-1.44-.94-2.11-.21-1.28-3.2-4.34-9.35-12.08-12.26-16.95l.82.76c-2.53-3.61-4-3.16-6.1-6.7l.56.55c-.72-.95-1.43-1.93-2.2-2.87l-2.39-2.76-4.77-5.46c-.76-.91-1.57-1.74-2.35-2.57l-2.26-2.45c-1.44-1.61-2.75-3.16-3.86-4.62a5.64,5.64,0,0,1-1.68-1.25c-.72-.64-1.54-1.45-2.35-2.24-1.61-1.58-3.19-3.07-3.81-2.85-1.79-2.07-2.37-2.88-3.17-3.86s-1.91-2-4.72-4.66c-1.54-1.36-2.81-1.4-4.82-2.94l.34-.52c-1-.58-2-1.11-3.07-1.65l-1-1.7-2-1.33c.72.61,1.41,1.45,1.18,1.5-3.07-2.06-6.81-5.9-6.71-6.18l-7.3-4.85a10.23,10.23,0,0,1,2.54,1.3c-4.1-2.3-.28-1-4-3.14.38.46-.46.11-.61.15a66.35,66.35,0,0,0-8.46-6.36l.81.06c-2.58-2-5.45-3.83-8.39-5.78s-5.94-4-9-5.91c2.08,1.59,1.17,1.87-.66.77l-.35-1c-1.38-.42,1.73,1.42-.91.29-2.24-1.54-1.13-1.62.3-.94l-2.9-1.62c0-.27.65.07,1,0-1.37-.39-4.42-3.69-6.47-4.12l-.06-.26c-3.1-1.91-5.38-3.25-7.52-4.5s-4.12-2.44-6.71-3.88c-.39.42-2.33-.85-4.09-1.34-3.68-2.32-7.62-5.18-12.28-7.59-3.38-1.52-1.18-.1-2.8-.6,0-.57-4.62-3-2.06-2.06-5.55-3-7.17-3.66-14.45-6.9.68.58,1.5,1.1,1,1-1.32-.58-2.83-1.67-2.54-1.8l.37.12a135.93,135.93,0,0,1-13-6.6c-2.16-1.19-4.28-2.36-6.29-3.36a34.49,34.49,0,0,0-5.69-2.17l.39.11-7-2.42c-3.08-1.42,2,.46-.16-.83-1.92-.59-3.59-1.22-5.13-1.82s-3-1.16-4.33-1.74a79,79,0,0,0-8.46-3.21,20.63,20.63,0,0,0-4.49-2.44c-1.89-.76-4.07-1.51-6.31-2.26a104.15,104.15,0,0,1-12.28-4.61l.26.46c-1.8-.21-2-.85-3.19-1.33.08.32,1.72.9.62.74-3.61-1-7.24-2.19-10.89-3.4l-5.5-1.84-5.56-1.75-11.15-3.57c-1.85-.62-3.72-1.16-5.59-1.67l-5.59-1.55c-5.45-1.46-3.54,1-10.22-1.53l2.1-.16-8.45-1.59c-2.83-.56-5.65-1.17-8.48-1.79s-5.63-1.24-8.43-1.79-5.6-.9-8.37-1.23a4.7,4.7,0,0,1,1.8,0c-2.22-.89-8.54-1.55-8.64-1.17-1.7-.35-.34-.42-1.35-.81-2.28-.69-5.92-.47-7.09-1.07-.19-.11.68-.06,1.12,0-1.56,0-7.07-1.08-5.7-.32-4.09-.86-7.93-.9-11.18-1.7-2.22.3-7-1.32-7.82-.47.41-.87-7.18-1.53-9.85-1.39.91-.18-2.25-.53-1.18-.8-3-.31-5.75-.45-5.28.07-5.4-1.76-11.16-.14-14.15-1.78-4.48-.09-8.78-.22-13-.36l-3.11-.12-3.09,0-6.08-.08c.34-.89,8.88.28,8.59-.68-7.65.05-12.07.64-19.61.11-2-.21,1.13-.35,1.79-.47-7.61-.06-14.72-.44-21.5,0a5,5,0,0,1,1.45-.24c-1.34,0-3.11-.16-3,.25l1.3-.09c2.13.61-5.3,1.19-5.54,1.5,2.27-1.15-6.68-.35-3.09-1.8-.88.07-2,.25-1.78.53-1.3-.1-1.71-.26-.39-.56-4.78.23-3.08.7-7.41.78,0-.2.89-.3,1.33-.55a32.39,32.39,0,0,1-8,.8c.22-.12-.21-.27.88-.29-6.28.24-10.68,1.23-17.57,1.14,2-1-2.35-.16-2.75-.88l-3.69.43,1.5.28c-3.24.17-6.08.87-8.88.79l2.39-.45-6.06.49,3.45.08c-3.25.57.41.93-3.91,1a49.25,49.25,0,0,1-5-.17h0a26.74,26.74,0,0,1-5.62.68c-.64-.18.44-.87,0-1-1.53.76-7.55.84-9.5,1.68.66-.21.66-.61.43-.67l-1.28.63c-1.51,0-1.73-.09-1.52-.42-4.51.3,1.51.81-3.87.88a7.72,7.72,0,0,1,1.08-.29c-2.69.13-5.28.44-7.81.74s-5,.55-7.48.76c-1.53-.58,4.28-.68,2.55-1.12-7.08,1-14.58,2.65-21.46,3.3l1.29-.08c-.82,1.17-5.18.1-8.58,1,.84-.18,1-.72.82-.57a58.77,58.77,0,0,0-7.42,1.15L890.19,323l.84-.41c-2.8.18-7.29,1-10.28,1.29-.84.4-2.55.62-1.46.85a40,40,0,0,0-6.82.5c-2.19.38-4.32.88-6.41,1.39a59.94,59.94,0,0,1-12.41,2.12c1-.18,2.27-.66,1.5-.52l-6.86,1.51c.63.35,1,.11,2.47.2a19.26,19.26,0,0,1-4.44,1.3c3-.86-.16-.72-1.55-.73.25.1-.18.33,0,.45-3.76-.13-.44,1-5.45,1.42l.22-.29a52.84,52.84,0,0,1-5.42,1.54c-.93-.35,1.9-.66,1.93-1.12-2.76.62-5.27,2.16-7.88,2.17,1.14-.4,2.84-.76,4-1.16a20.07,20.07,0,0,0-5.2.53l.2,0-4.76.72,1.23-.09c-3.18,2.1-7,1.75-11.49,3.64,4.35-1.81.64-.65.86-1.31-1.24.09-3.09.29-2.61,0a10.35,10.35,0,0,1-3.05.73,12.28,12.28,0,0,0-3.67,1.15c-.18-.16-2.36.55-2-.05-2.82.84.75.17.57.47-4.25,1.71-10.54,1.72-16.66,4.15-5.37,1.68-6.22,2.57-11.2,4.11-1.79.11,1.22-1,1.22-1a32.57,32.57,0,0,0-7.4,1.94c.48-.31-.09-.3-.94-.3-2.06.61-1.2,1.06-4,1.53a9.19,9.19,0,0,1,1.87-1.32c-2.39.84-4.71,1.84-7.19,2.7-.76-.14,1.39-.91,2.22-1.37-2.8.92-7.28,2.3-8,3.06l1.87-.31c-1,.31-.65-.3.08-.6,2.33-1.07,3.56-.78,3.75-.63l-1.76.61c2.14.6,7.17-2.14,10.81-3.06l-1.29,1.21,3.53-1.68c.85,0,1.51.3-.25.91,2.7-.31,2.22-.91,4.57-1.08.26,0,.16.08-.06.17l2.49-.86c-.46.29.57.46-1,.73,4.7-.65,7.24-2.4,9.12-2.21l-.38.14c6.29-1.81.47-.74,5.07-2.59l3.57.69.48-.75c.66-.14,2-.41,1.78-.11,2.35-1-.47-.16.85-.89,3.29-.22,8.65-2.36,9.58-1.59,1-.72-3.1.39.2-.75.6.4,1.56.11,2.75-.29a17,17,0,0,1,4.13-.94c-.78.72-3.59,1-.58.88,1.55-1.26,5.69-1,8.1-1.7,0-.73,5.26-1.42,9.32-2.53-.21.29,7.81-1.26,11.68-1.81l-.09.14c.59-.9,4.59-1.45,7.44-2.13,0,.45-.51.71-2,1.19l2.71-.5a11.82,11.82,0,0,1,3.16-1l-.58.66c3.61-.69,7.16-2,11.87-2.44.17-.56-4-.74.91-2,.23.24.49.68-.78,1a11.18,11.18,0,0,1,2.34-.54l-1.89.82c2.16-.18,1-.59,2.74-.85,0,.39,1.3,0,1.11.4a13.7,13.7,0,0,0-2.12.38,22.64,22.64,0,0,1,5.08-.31c-.21-.19-.09-.53,1.3-.83,3.6-.67,1.31.25,3.46.11.83-.4,3.19-.47,3.16-1.06a3,3,0,0,1,1.73.18c1.84-.54,8.76-1.4,6.55-1.7l-.49,0,.3-.07h0c6.08-1.5,12.84-1.63,18.92-2.76v.2c3.64-.66,8.13-1.11,10.7-1.85,1.08-.13,2.6.06,2.16.34a35.56,35.56,0,0,1,7.15-.9c-2.77.68,1,.19-2.85.6,3.65-.27,4.51-.05,8.35-1.06-1.27.67,2.8.29,4.52,0-.87-.05-1.72,0-2.59-.07a49,49,0,0,1,5.38-.52l-.87.74c7.53.15,13.33-2.56,19.12-1.71,1.94-.64-4.07,0-2.35-.67,3.44-.21,7.09.42,8.16.33a14.46,14.46,0,0,0,4.55-.64,14.91,14.91,0,0,1,4.72-.67c-.65-.2-1.29-.8,2.39-1.23,3.45-.1,4.29.76,2.13,1.07-.82.07-1.23,0-1.2-.07-1.1.15-2.56.34-1.18.52l.43-.27c1.73.15,6.46-.14,5.37.31,2.58-.37,1.09-.45-.84-.47,4.43.1,6.89-.38,11.44-.4-.72-.09-1.4-.33-.68-.37,3.33-.06,4.07-.17,4.52-.34a6.48,6.48,0,0,1,2.91-.5c2.59.3-.89.89,3.65.48,2.79.18.61.61-.49.83,4.13-.55,7.75.12,10.12.15l-2.18.24a33.78,33.78,0,0,1,3.46-.19l-1.26-.45c1.29.06,2.37,0,2.35.23,1.31-.34-1-.77,1.59-1.25,1.71.2,5.21-.39,5.8.23-5.38-.09.6.62-3.95.83a21.88,21.88,0,0,1,3.24-.07c.19.07-.19.14-.53.18,5.14.52,2.35-.72,7.68-.67-.67.35,1.24.68,2.11.61-2.15,0-1-.6.94-.85,3.42.3,3.72-.17,5.51-.13l-2-.14c.69-.35,2.4-.29,4.79-.38.2.28-2.17.17-1.32.3,2.66-.6,6,.7,9.67.31,1.7.28.15.66,1.64.88,4.15-.28,4.46.68,8.81.48-1.23-.53-1.46-.42,1.62-.76l-7.15,0,4.6-.5c-2.15-.1-4.55.11-5.84,0,2.19-.3,2-.19.94-.63,2.93.84,5.87-.17,9.27.46l-.16,1.18a40.76,40.76,0,0,0,7.3.24,47.84,47.84,0,0,1,8.46.23l-2.12-.37c.92-.4,4.1.25,6.27.22-.23.38,1.1.62,2,.94-.09-.3,4.86.39,5.52-.35l2.93.75c5.33.62,6.22-.71,11.35,0-1.59.26.71.79-2.76.72,1.72.19,3.25.43,3.31.17,1,.35,4.81,0,6.35.54a6.2,6.2,0,0,1,2.94-.24c.21.1,0,.2,0,.2,0-.2,3,.06,1.42-.56a25.37,25.37,0,0,0,4.55,1c1.7.26,3.53.41,5.32.68,3.6.47,7.12.91,9.34,1.77,3.75.41,8.26.93,11.65,1.39-.24.08,0,.19-.68.06,4.59,1.14,3-.62,8.27.72,2.59,1.11-2.87-.16-1.23.38.51,1.41,6.41,1,9.83,2.35l-.87-.08c2.63.94,6.73.64,11.11,1.74,0,0-.24.06-.06.18,3.14,0,8.91,1,13.19,1.74-1.43.22-2-.15-1.29.53,1.92.34-.38-.93,3.46-.26,1.18.51,3.84,1.43,4.07,2.06-1.18-.28-2.37-.59-3.56-.82,1.67,1.07,4.6,1.1,6.45,1.68l-.31.24c5.46,1.26,5.73.52,11.57,2l-.54-.38c3.39.06,2.58,1.05,5.9,1.37l.75,1c2.14.41,7.53,1.36,11.33,2.29-2.3-.05-6.77-1-9.57-1.46,2.07.6,7,2,8.24,1.9a14.1,14.1,0,0,1-2.75-.64,46.94,46.94,0,0,1,10.28,2c-1.17,1.23,10.56,3.8,13.15,5.89,1.85.45,3.67,1,5.48,1.55s3.6,1.33,5.42,2.05c3.65,1.44,7.43,3,11.6,4.43-2.53-2.19,2.44.85,2.35-.45a14.08,14.08,0,0,1,2.82,1.13l5.54,3c1.25.87-1.92-.47-1.84-.15,4.16,1.75,1.57,1.18,4.22,2.58-.41-.63,1.69,0,4,1.09l-3.15-1.85c6.12,1.69,4.65,3,10.73,4.9l-2-.44c1.54.54,4.29,1.73,7.08,2.83,1.39.55,2.8,1.08,4.06,1.5a19.5,19.5,0,0,0,3.18.88c.47.37,1,1-.32.47,3.49,1.72,7.53,3.32,11.34,4.88,1.92.76,3.74,1.6,5.42,2.42a47.54,47.54,0,0,1,4.49,2.46h-.66c1.34.58,2.51.64,4,1.73-.14.07-.66,0-.07.32a26.37,26.37,0,0,1,5.31,2.34l-1.61-.49c6.48,4,10.66,4.79,16.32,7.74-.44.76,4.59,4,7.09,5.62l-.15.06c3.82,2.22,7.09,4.05,10.35,5.77s6.5,3.3,10,5.43a82.09,82.09,0,0,0,9.32,6.83c3.84,2.69,8,5.55,11.24,8.09-.92-.85.57-.44,1.79.34,1.46,1.27,4.67,2.6,4,3.08l-.55-.41c.7,1.5,4,3.59,6.49,5.46l1-.54c5.52,6,17.16,12.35,19.61,16.28,1.65,1,3.48,2.59,5.12,3.62l-.45.36c4.06,3.5,5.85,5.49,10.79,9.87l-1.26-.62a10.83,10.83,0,0,0,3.62,2.27,10.33,10.33,0,0,1,3.38,2.25l.12,1.33c1.13,1.17,2.23,2.38,3.33,3.59s2.2,2.42,3.21,3.7a67,67,0,0,0,6.63,7.14c-.16,0-.48,0-1.2-.76,1,1.13,2.75,3.55,4.26,5.47s2.81,3.32,2.93,2.53c-.28.27.76,1.59,2.14,3.19s3,3.57,4.14,4.91l-.77-.12c1.15,1,1.78,1.5,2.44,2.16a20.12,20.12,0,0,1,2.59,3.15c.47.87.09,1-.5-.21,1.53,2.93,1.82,1.87,3.72,5.39l-1.1-1.06a12.91,12.91,0,0,0,3.15,3.89c1.29,1.71,3.09,5.64,2.9,6.31a9,9,0,0,1,2.64,3.45c0,.33-.5-.25-.73-.53.64,1.25,1.17,2.37,1.72,3.34s1.06,1.82,1.55,2.63a24.1,24.1,0,0,1,2.49,4.88c-.13.15-.09.42,0,.73-2-4-3.65-7.22-3.46-6.94-.45.24,1.12,3.49-.82,1.26.83,1.2,2,2.81,3.14,4.52a28,28,0,0,1,2.74,5.26,1.77,1.77,0,0,1,0,.5l-.21-.31a11.92,11.92,0,0,0,1,2c.39,1.06.63,1.73,1.07,2.72-.17.52,1.37,3.92,2,5.59.47-.35,1.27,1.87.87-.36.07.28-.19-.29-.67-1.39a5.56,5.56,0,0,0-.34-.69l.09.09c-.47-1.08-1-2.53-1.79-4.11a11.07,11.07,0,0,1,2.11,4.44c.69.72,1.42,1.53,1.8,2a38,38,0,0,0,.85,4.65,13.72,13.72,0,0,1,.43,3.33c.54,1.27,1.09,2.66,1.66,4.08s1.15,2.87,1.65,4.28a34.45,34.45,0,0,0,3.11,6.85,3.57,3.57,0,0,1,.22,2.43,15.17,15.17,0,0,0-.93-2.3c1.18,2.92,2.58,8.93,3.51,9.46.68,3.92-1.16-2,.24,3.26l-.39-.66a47.93,47.93,0,0,0,1.48,7.26c.62,2.23,1.21,4.36,1.88,6.52.32,1.09.65,2.18,1,3.3s.54,2.29.77,3.5a43.86,43.86,0,0,1,.86,8,4.06,4.06,0,0,1,.07-1.43c1.31,13.46,3.68,27.73,2.85,41.14-.16,3.8.27,4.21.65,6.53l-.61.82c.25,1.32.43,2.64.65,4a32.25,32.25,0,0,1-.66,7.86,36.81,36.81,0,0,0-.56,9l.46-.89c-.22,2.54-.36,8.1-.79,7.63a3,3,0,0,1,0,1.85l-.32,0c0,2.1,0,4.21-.08,6.31-.76,4.82-1.15-.89-2,6.15-.21,2.63,0,7.59.29,6.63.15-1,.55-2.68.87-2.72l-.15,2.43c.87.55,1.58,2.53,3-3.3l0-4.2.6-1.28-.39,3.48a10.11,10.11,0,0,0,.35-4.65,3.79,3.79,0,0,0,.68-1.68l-.46-4.16c.41-.46.55,1.9,1-.82-.23-2-1,1.75-1-1.43.6-1.95.91-1.34.74-3.7.26-.31.38.2.41,1.13-.13-2.1.31-5.51-.12-6.62.64-2,.28-7,1.13-6.78a30.15,30.15,0,0,1-.51-5.61c1,3.53.23-7.16,1.33-6.22-.91-2.6-.37-9.37-1.06-14a3.25,3.25,0,0,1,.21,1.16c0-2.58.3-3.34.39-5-.8-.3-1.17-4.31-1.76-6.44.58-3.2,1,1.86,1.69.83-.59.19-1-5.45-1.45-4.34.28-2.45.07-2.1.62-3.39-1-.34-.3-2.24-1.13-4.18.12-3.54.82-1,.13-4.79C1520,617.9,1520.71,621.27,1520.71,621.27Zm-25.44-87.66h0l.82,1.7Zm-3.36-6.91c.41.84.94,1.88,1.5,3-.05.32-.36.15-.7-.54C1493,529.45,1492.29,527.79,1491.91,526.7Zm3.28,16.26a3.45,3.45,0,0,1-.54-1.69c.25.51.49,1.12.86,1.91,0,0,.08.08.12.1A1.16,1.16,0,0,1,1495.19,543Z"/><path class="a" d="M1496.68,544.67a4.31,4.31,0,0,1,.23.44c-.05-.24-.1-.48-.16-.71l-.32-.33Z"/><path class="a" d="M886.57,325.21h.16a2.86,2.86,0,0,1-.35,0A1.49,1.49,0,0,1,886.57,325.21Z"/><polygon class="a" points="1426.18 444.11 1426.1 444.22 1426.69 444.56 1426.18 444.11"/><path class="a" d="M844.77,330.45a1.38,1.38,0,0,0-.58,0A2.06,2.06,0,0,0,844.77,330.45Z"/><path class="a" d="M826.92,334l-2.56.34C825.47,334.21,826.28,334.09,826.92,334Z"/><path class="a" d="M813.17,336.62a.67.67,0,0,0-.21.3h0Z"/><path class="a" d="M1033.87,311.14a4.78,4.78,0,0,0,.54,0C1035.68,311,1034.81,311.06,1033.87,311.14Z"/><path class="a" d="M967.7,314.38c.7-.14,1.38-.28,2.11-.38C968.63,314,967.71,314.06,967.7,314.38Z"/><path class="a" d="M1107.84,314.73h0l.46.05Z"/><path class="a" d="M972.88,313.83a17,17,0,0,0-3.07.17A26.2,26.2,0,0,0,972.88,313.83Z"/><path class="a" d="M754.26,351l-.66.15s0,.08-.05.11Z"/><path class="a" d="M753.55,351.29l-.71.26A2.21,2.21,0,0,0,753.55,351.29Z"/><path class="a" d="M751.36,352.1l1.48-.55A4.63,4.63,0,0,0,751.36,352.1Z"/><path class="a" d="M772.2,346.42l.15-.26A.31.31,0,0,0,772.2,346.42Z"/><path class="a" d="M777.65,345a39.91,39.91,0,0,0-5.17.95l-.13.2C773.13,345.62,776.5,345.65,777.65,345Z"/><path class="a" d="M801.06,341.92l-4.61.95c.85,0,2,.05-.1.61C802.26,342.71,795.05,343.29,801.06,341.92Z"/><path class="a" d="M815.36,339c-2.45.63.1.3,0,.45C816.88,338.92,817.25,338.8,815.36,339Z"/><path class="a" d="M919.25,321.18l-.19.53C921,321.41,919.05,321.51,919.25,321.18Z"/><polygon class="a" points="939.01 316.28 937.09 316.13 936.23 316.68 939.01 316.28"/><polygon class="a" points="951.22 318.86 950.38 319.01 953.6 318.54 951.22 318.86"/><path class="a" d="M1127.64,322.13l-.5-.71C1125.82,321.34,1125.45,322,1127.64,322.13Z"/><path class="a" d="M1202.62,336.23a9.54,9.54,0,0,0,4.12,1.25C1205.09,337,1203.49,336.37,1202.62,336.23Z"/><polygon class="a" points="1407.05 435.63 1405.7 434.87 1408.11 436.47 1407.05 435.63"/><path class="a" d="M1534.1,677.72c-.14-.11-.5-.27-.47-.15l.55.36Z"/><path class="a" d="M1532.71,677.72a3.45,3.45,0,0,0,1.24.84c-.51-.39-.26-.29-.87-.75,0-.12.26,0,.47.08-.14-.11.2-.06-.15-.3-.51-.13-.6,0-.3.34A1.79,1.79,0,0,1,1532.71,677.72Z"/><path class="a" d="M1527.32,685.32l.1,0C1527.37,685.3,1527.34,685.3,1527.32,685.32Z"/><path class="a" d="M1524,690s0-.1-.09-.13S1524,690,1524,690Z"/><path class="a" d="M1522.89,690.4l.07,0C1522.89,690.36,1522.85,690.36,1522.89,690.4Z"/><path class="a" d="M1527.32,685.32l-.25,0C1527.25,685.46,1527.24,685.36,1527.32,685.32Z"/><path class="a" d="M1533.52,679.6a.41.41,0,0,0-.11-.16.52.52,0,0,1,0,.11Z"/><path class="a" d="M1528.12,682.87l0,0-.22-.17Z"/><path class="a" d="M1529,681.14a3.92,3.92,0,0,0,.65.44c-.19-.13-.27-.21-.29-.27A3.15,3.15,0,0,0,1529,681.14Z"/><path class="a" d="M1531.31,678.92l0-.09A.63.63,0,0,0,1531.31,678.92Z"/><path class="a" d="M1527.33,684l-.18-.09A1.51,1.51,0,0,0,1527.33,684Z"/><path class="a" d="M1506.47,678.25l.09,0S1506.47,678.23,1506.47,678.25Z"/><polygon class="a" points="1508.54 675.34 1508.58 675.36 1508.88 675.28 1508.54 675.34"/><path class="a" d="M1521.31,691.47h0C1521.3,691.4,1521.29,691.42,1521.31,691.47Z"/><path class="a" d="M1515.41,699.89c-.39,1.28-.52,1.37-1,2.82C1514.64,702.2,1515.16,700.75,1515.41,699.89Z"/><path class="a" d="M1533.44,679.61a.16.16,0,0,1,0,.07S1533.45,679.64,1533.44,679.61Z"/><path class="a" d="M1514.46,702.71h0l0,.15Z"/><path class="a" d="M1519.27,695l.22.11Z"/><path class="a" d="M1521.67,693l-.1,0A.16.16,0,0,0,1521.67,693Z"/><path class="a" d="M1519,696.72c-.06,0-.13,0-.1.06l.07,0C1518.89,696.74,1518.87,696.7,1519,696.72Z"/><path class="a" d="M1518,698l.11,0V698Z"/><path class="a" d="M1508,683c.14-.07.31-.13.47-.19C1508.05,682.93,1507.85,682.73,1508,683Z"/><path class="a" d="M1533.24,679.45c.13.08.18.12.2.16a.13.13,0,0,0,0-.06A.88.88,0,0,0,1533.24,679.45Z"/><path class="a" d="M1522.48,699.43l-.23.17A.48.48,0,0,0,1522.48,699.43Z"/><path class="a" d="M1510.16,694.52l-.07,0S1510.1,694.51,1510.16,694.52Z"/><path class="a" d="M1521.83,700.29a1.09,1.09,0,0,0-.4-.11l.09.11Z"/><path class="a" d="M1508.44,682.81h0Z"/><path class="a" d="M1506.74,681.46c0,.25.73-.06,1.15-.11.28.24-.49.26-.84.45.24.13.93.11.93.25a.66.66,0,0,1-.3.08c.61,0,.16.56.93.61l-.17.07a9.37,9.37,0,0,1,1-.27c0,.11.5.1,0,.25,0-.07-.2,0-.35,0l.23.07c-.65.26-.27-.1-.77,0,.27.17.89.3.74.51-.65.19-.31-.35-.85,0l.19-.32c-1,.44,0-.18-1,.26-.11.39.43.31.32.7.38,0,.54-.15.92-.16.77.35-1.58.76-.62.92.47,0,1.31-.15.93.21l-.77.07c0,.35,1.12,0,.69.42-.31,0-.31-.21-.38-.14-.55.36.45.07.49.25l-.66.17c.18.34.74.63,1,1a1.07,1.07,0,0,0-.61.12c.44.43.12,1.09-.18,1.64l.61.08s-.25.13-.37.1c-.18.23.37-.06.62,0,.06.1-.31.2-.5.17.56.24,1.23.76.67,1.22l-.18,0c-.19.31,1.24.11.74.45l-.11,0c-.15.64.48,1.22-.32,1.81.85,0-.29.64.89.51-.53.42-.76.36-1.08.89,0,.14.76.09.91.23l-.61.09.67.13-.72.21.18.13a.73.73,0,0,1,.44-.18c.3.2-.36.63-.67.67l.59.49a1.07,1.07,0,0,1-.51-.12c.66.21-.64.14,0,.33a2.05,2.05,0,0,1,.49,0,.41.41,0,0,0-.13.69h-.43c-.06.42.31.84.35,1.3.18-.19.92-.24,1-.11l-.64.13c.41,0,.23-.17.74,0,0,.18-.72.2-.94.13l.24.18a4.63,4.63,0,0,1-.54,0c.4,0-.59.64.12.73l-.19.06c.08.82.34,1.11.43,1.73.55-.25.45,0,.9,0a5.26,5.26,0,0,0-.4,1.91c.3.18.45-.28.78-.4-.47.47-.38,1-.74,1.05.13.62.17.84.62,1.17a2.93,2.93,0,0,1,.41-.72c.09,0-.16.58-.38.88l0,0c.38,0,.08.94-.16,2s-.46,2.24,0,1.66l-.05.05a2.27,2.27,0,0,0,.54-.27c-.05.54-.34.55-.59,1.46.4-.4.4,0,.37.45s-.09,1,.17.72c-.15.55-.26,1-.34,1.36-.08.68.36,0,.72-.54s.71-1,.74-.42l.14-.69c.31-.86.07.23.14.28a4.56,4.56,0,0,1,.17-1,3.76,3.76,0,0,1,1.64-1.62,9.09,9.09,0,0,0,1.79-.93c.5-.43,0-2.75.61-2.22v1a4.79,4.79,0,0,1,1.19-1.94,3.67,3.67,0,0,0,1.06-1.71c0,.18.18.34.1.43.49.17.67-.8.36-1,.15-.12.29.2.52.23s.15-.07.17-.16a.47.47,0,0,0,0-.22c0-.15-.07-.27.14-.16s.09.13.11.18c-.12-.23.34-.34-.16-.6.38-.06.13-.57.52-.54-.41-.49.52-.2-.15-.76.71.56.87.05.64-.34.18.21.32,0,.58.33.11-.17.09-.41-.31-.66,1.09.35-.27-1.11,1-.46a7.21,7.21,0,0,1,.14-1.94c.73.54-.26.52.52,1.06,0-.63-.48-1.32,0-1.59.17,0,.28.28.38.4,0-.62.62-.74.47-1.39a.48.48,0,0,1,.15.22c0-.09.22-.1-.12-.32l0,.13c-.57-.22-.83-1-1.08-1.17.89.78.49-.2,1.58.83a.89.89,0,0,0-.38-.4c.11,0,.26,0,.47.28,0-.38-.43-.53-.27-.76a3.92,3.92,0,0,1,.38.35c-.25-.33-.49-.67-.21-.77.09.08.23.14.19.2.18-.38-.47-1.16.09-1.33.65.59.32,0,1,.42l-.06-.33-.36-.11c.13-.17-.22-.63.08-.65l.17.3.1-.41-.36,0c-.21-.39-.81-.49-.48-.62,0,.09.13-.17.55,0h0c-.15-.22-.3-.45-.06-.48s.68.47.82.53c-.47-.42.12-.51-.37-1a2.56,2.56,0,0,0,.51.36l-.38-.35a.82.82,0,0,1,.52.22c.24-.2-.85-.43-.32-.51,0,0,.09.08.13.17.36-.19.09-.75.46-.89.69.31,0,.34.61.58.13-.48-.27-1.3.12-1.59l-.12,0c-.87-.61.62,0,.31-.47a1.72,1.72,0,0,0,.38.29c.31-.18.1-.68,0-1.25l.2.19c.3,0,.37-.34.57-.45-.2-.19-.11-.26-.48-.4,1.65.25-.15-1.42,1.24-1.24,0,.06.13.25.16.21v-.52c-.42-.2-.28-.09-.64-.18-.21-.19-.33-.4-.27-.5.16.33.64.36.91.41-.13-.06-.25-.16-.38-.22.84.19-.79-.5-.15-.5l.21.13c-.05-.17-.27-.42-.15-.5.49.21.15.23.53.46.07-.18-.7-.82-.16-.7.09.14,0,.24.13.38.64.15.51,0,.66,0h0l.4-.13h-.18c-1.11-.88,0-.54-.65-1.25.61.68.42.28.94.6.18,0,.41,0,.54.1-.36-.36.46,0-.07-.55.17.08.09-.13.51.13-.05-.24-.32-.12-.53-.25-.45-.58,1-.23.44-1-.16-.5-.71-.87-.84-1.32a1.08,1.08,0,0,1,.59.42c.34,0,.36-.18.24-.43a1.22,1.22,0,0,0,.5.2c0-.15-.59-.42-.25-.45a5.91,5.91,0,0,1,.63.49c-.08-.23-.33-.54-.4-.77.32.12.4.33.57.49a1.07,1.07,0,0,0-.49-.89l-.22,0c0-.07.42.18.48.27.3.35-.27.13-.45,0l-.05-.16c-1.07-.43-.07.51-.24.7l-.69-.48.5.54c-.22-.05-.65-.24-.7-.4-.44,0,.19.27-.29.19a.25.25,0,0,1-.12-.07l.14.26c-.14-.11-.54-.25-.38-.29-.57.05.32.73-.29.53l0,0c0,.5.52.32,1,.94l-1.42-.53.51.33s-.12.08-.33,0c.29.35.25.11.55.38-.59-.08,0,.63-.92.21.37.29.41,0,.58.34-.94-.44,0,.32-.48.25-.44-.31-.1-.33-.62-.39.74.54-.36.23-.28.45.63.36.09.46.17.81-.2-.13-.59.25-.94.34l-.11-.06c.62.4.37.56.41.8a1.66,1.66,0,0,1-.64-.53l-.08.16a.64.64,0,0,1,.28.4l-.46-.31c-.09.22.33.74-.14.82.44.27,1.36.5,1.49,1-.24-.13-.66-.36-.71-.49,0,0,.15.21,0,.19l-.34-.34c-.25,0,.3.26.2.33-.34-.2-.28-.07-.54-.24,0,0,.19,0,.07-.11a.94.94,0,0,1-.68,0c.2.1.46.26.46.37s-.46-.17-.7-.15c.21.18-.11.17.39.47,0,.06-.28-.07-.43-.13.16.24-.22.53.39.73h0s0,0,0,0h0c.3.64-.71.55-.7,1l-.17-.11c.07.32-.16.52.12.89,0,.06-.4,0-.58-.19,0,.23.21.36-.2.42-.2-.34-.3-.11-.12-.29-.27.11-.57,0-.24.49-.38-.34-.63-.19-.56,0l.39.05a.37.37,0,0,1-.19.29l-.54-.4c-.94,0,.71,1.46-.63,1,.33.35.42,0,.82.34-.2.14-1.13-.18-1.17-.12-.47.06.68.76.29.89.22.1.78.41.84.73-.2.14-1-.31-1.07-.53,0-.06.09,0,.15,0a.38.38,0,0,0-.33-.31l.18.15c-.26,0-.4.23-.69,0a.35.35,0,0,0,.46.23c-.45.05-.25.37-.6.49.13,0,.39.15.36.18-.48.2.27.41.2.71-.39-.06-.69-.52-.59-.11-.3,0-.55-.32-.67-.48.24.47-.53.24-.68.32l-.08-.22a.21.21,0,0,1,0,.24l.44.2c-.12,0-.16.08-.32,0,.21.25.69.39,1,.77-.26-.05,0,.42-.52.1.37-.17-.54-.33-.46-.62,0,.09,0,.14-.13.16a.28.28,0,0,1-.12-.12c-.65,0,.51.52.31.8-.27-.24-.61-.32-.57-.23.08-.11.52.28.68.54-.35,0,0,.31-.06.39l.18,0c.27.23.17.3.18.49-.24-.15-.08-.23-.21-.25.41.49-.75,0-.54.38-.27,0-.56-.37-.75-.39.23.48-.56,0-.41.4.44.21.35.13.62.56v-.57l.4.64c.08-.11-.08-.41,0-.43.24.34.15.26.52.43-.7-.26.12.55-.4.45l-1-.69c-.62,0,.16.83-.34,1h.25c.35.32-.1.25,0,.48a2.15,2.15,0,0,0-.71-.36c.24.17-.2.24.41.73l-.53-.15c-.37.15.67,1,.37,1.17-.29-.33-.6-.38-.72-.74-.06.09-.18.12,0,.29-.24-.1.24.56-.12.42.11.14.43.4.33.48a.75.75,0,0,1-.16-.12c.16.12.09.32.51.49-1.19-.47-.51.82-1.53.41a2.11,2.11,0,0,1-.24.77c-.08-.08-.15-.12-.09-.13-.48,0,.76.86.27.83-.55-.35-.18-.34-.4-.44-.5-.42-.49-.37-.45-.24s.1.34-.17.08l0-.09c-.3-.32.18.57,0,.64l-.1-.2a2.54,2.54,0,0,1,.08,1.59,3.63,3.63,0,0,0-.23-1c0,.15.3,1,.21,1.29a3.58,3.58,0,0,1-.41-1.19l.07-.14c-.23-.85-.09.14-.17,0l0-.42c-.07.24,0,1.38-.16,1.5l0,.33c-.08,1.32-.09-.58-.19.45v-1.24a12.14,12.14,0,0,1-.43,1.93c.19-1.14.33-1.78.4-2.41a2.53,2.53,0,0,0-.23,1c0-.16.09-.52.09-.33a5.12,5.12,0,0,1-.48,2c.21-1.45.18-1.56.12-1.58s-.14,0,.11-1.17c-.19.65-.24.62-.22.41s.09-.57,0-.43l-.4,1.29a.85.85,0,0,1-.08.22s0,0-.08.19l-.43,1.29,0,0s0-.06,0-.22c.18-.66.37-1.28.56-1.88.28-.83.22-.56.44-1.18.06-.28.41-1.19.67-1.91-.35,1-.51,1.34-.38,1l-.45,1.24c-.26.63-.06,0,.15-.5s.42-1.05.15-.47l.31-.72c-.18.39,0,0-.82,1.52.11-.25.4-.8.47-.92s-.17.19-.35.38-.33.25-.07-.18l.27-.34c-.08.09-.5.6-.24.22.11-.14.27-.32.28-.35s-.47.48-.32.26l.3-.31c.18-.25,0-.08-.28.09s-.59.36-.7.31a7.89,7.89,0,0,0,1.21-1l.12-.06c.09-.18-.74,0-1.11-.29.92-.36.26-1.15.73-1.73a1.1,1.1,0,0,1-.78,0c.17-.14-.65-.27.16-.35v0c.77-.19.53-.43.52-.63l-1,.1c1.46-.73-.74-1.3.58-1.78-.28-.09-.3-.25-.58-.33l.56-.08a1.14,1.14,0,0,0-.06-1l.42,0c0-.25-1.66-.06-1.73-.28l.82-.2c-.08-.42.58-1-.24-1.28.12,0,.37,0,.41,0,0-.21.43-.88-.7-.61.75-.13,0-.46-.37-.63l.56-.06c-.74-.07-.93,0-1.17-.27.06-.08.43-.14.3,0,.25-.27-.55-.07-.3-.38l.36,0c0-.23-.18-.18-.61-.22-.25-.1.06-.44.55-.57-.31,0-.74,0-.62-.17a.65.65,0,0,1,.37,0c.3-.44-.74-.42-.25-.78a1.08,1.08,0,0,0,.32-.11c.05.3.06.54,0,.52.51-.1.55-.35,1.28-.3-.41-.11-1.3-.27-1.11-.55l.17-.07.06,0c0-.07,0-.1-.11-.13s.12-.15.11-.22c.41-.12.17-.32.16-.44-.55.12-.49,0-.91.19,0,0,.07,0,.11.08l.06,0h0a2.17,2.17,0,0,1,.1.28c-.3,0-.55-.08-.28-.27l-.92,0c.74-.32,1.09-.72,1.55-.86-.38-.29-.39-.8-1.47-.79-.15-.08.27-.19.43-.26s.11.11.27.11c-.31-.15-.24-.58-1-.46.27-.33.7,0,.5-.33h.23c1-1-2.09-.68-.8-1.79a.46.46,0,0,1-.23.15c.43-1-1-1.62-.25-2.73.14-.3-.32-.2-.71-.26l.57-.2-.74-.07c-.59-.22,1.27-1,.21-1.2l-.37.16c0-.18-.38-.44.08-.54-.08,0-.42.06-.24-.06l.31-.09-.64-.25c.14-.37,1.22-.29,1.16-.76a2,2,0,0,0-1.21-.1c0,.07-.14.23-.44.32l-.2-.11a5.11,5.11,0,0,0-2.37.93l.62.1-.42.21-.08-.21c-.38.24,0,.21.28.23a1.26,1.26,0,0,0-.45.24h.93c-.35.13-.73.08-.88.3.43,0,.76-.33,1.07-.21-.37.24-.71.3-.32.34a.81.81,0,0,1-.5.07c.31,0,.21.3.71.24-.47.26.25.39-.61.61a1.63,1.63,0,0,1,.8.15c-1.08.07.06.46-1,.7,1-.09.56.46,1.14.61-.07,0-.23,0-.19,0,0,.18-.3.3-.44.44a4,4,0,0,1,1.5,0c-.69.38-.92.11-1.61.36.61-.17.7.17,1.19,0a2.37,2.37,0,0,1-.79.42c1-.22.19.1.81.07-.42.33-.88.28-.53.44A.81.81,0,0,1,1506.74,681.46Zm2.92,5.27h0l-.05-.11Zm.11.48a.52.52,0,0,0,0-.21c.18-.06.38-.08.38,0S1509.91,687.11,1509.77,687.21Zm3.61-1.8c.09.06,0,.11-.12.15a.5.5,0,0,0-.1-.13h-.07Z"/><path class="a" d="M1512.63,685.42l-.05,0-.12.07h.18Z"/><path class="a" d="M1527.44,685.3h0l.08,0Z"/><polygon class="a" points="1509.82 694.02 1509.96 694 1509.83 693.98 1509.82 694.02"/><path class="a" d="M1530.47,683.9a.43.43,0,0,0,.14,0A.39.39,0,0,0,1530.47,683.9Z"/><path class="a" d="M1531.16,682.93l.26,0A.82.82,0,0,0,1531.16,682.93Z"/><path class="a" d="M1531.85,682.27l-.2-.13h0Z"/><path class="a" d="M1524.81,695.05s0,0,0,0S1524.85,695.15,1524.81,695.05Z"/><path class="a" d="M1526.11,690.71a1,1,0,0,1,.14.26C1526.33,690.93,1526.37,690.88,1526.11,690.71Z"/><polygon class="a" points="1522.51 699.41 1522.5 699.41 1522.48 699.43 1522.51 699.41"/><path class="a" d="M1526.14,691.13c.13,0,.15-.07.11-.16S1526.1,691,1526.14,691.13Z"/><path class="a" d="M1534,678.91l0,0-.08,0Z"/><path class="a" d="M1533.91,678.83l0-.07S1533.86,678.8,1533.91,678.83Z"/><path class="a" d="M1533.8,678.6l.08.16S1533.93,678.7,1533.8,678.6Z"/><path class="a" d="M1533.16,679.85l.17.11A1.27,1.27,0,0,0,1533.16,679.85Z"/><path class="a" d="M1533,680.2c.09-.05.49,0,.44-.15l-.14-.09C1533.57,680.15,1532.77,680,1533,680.2Z"/><path class="a" d="M1530.09,680.34l.29-.19c-.22,0-.5-.13-.49-.28C1529.14,679.9,1530.36,680,1530.09,680.34Z"/><path class="a" d="M1529.36,681c0-.2-.27-.15-.38-.22C1529.11,681,1529.14,681,1529.36,681Z"/><path class="a" d="M1526,686.89l-.42-.28C1525.53,686.76,1525.7,686.72,1526,686.89Z"/><polygon class="a" points="1527.54 689.39 1527.87 689.45 1527.51 689.16 1527.54 689.39"/><polygon class="a" points="1524.04 688.12 1524 688.03 1524.05 688.31 1524.04 688.12"/><path class="a" d="M1517.77,697.49l.52.36C1518.25,697.71,1517.7,697.27,1517.77,697.49Z"/><path class="a" d="M1516.23,700.43c0-.45-.08-.73-.1-.21C1516.16,700.25,1516.21,700.58,1516.23,700.43Z"/><polygon class="a" points="1515 694.65 1515.22 694.72 1515.02 694.55 1515 694.65"/><path class="b" d="M684.17,389.78c-.23-.28-.58,0-.29.84l.79.48Z"/><path class="b" d="M684.37,396c.55.95,1.38,2,1.82,1.2-.86-.87-.66-1.18-1.66-2.1-.28-.86-.15-1.58.12-1.49-.24-.27-.18-1.39-.69-1.77a6.37,6.37,0,0,0,.85,4.12C684.75,396.27,684.51,396,684.37,396Z"/><path class="b" d="M710.91,479.85l-.15-.55A2.87,2.87,0,0,0,710.91,479.85Z"/><path class="b" d="M734.82,529c-.22-.36-.36-.48-.43-.46C734.62,528.84,734.82,529.09,734.82,529Z"/><path class="b" d="M738.88,537.43l-.24-.49A.9.9,0,0,0,738.88,537.43Z"/><path class="b" d="M710.91,479.85l.39,1.43C711.54,481.29,711.15,480.53,710.91,479.85Z"/><path class="b" d="M688.87,407.31a3.73,3.73,0,0,0-.37-.72l.26.7Z"/><path class="b" d="M701.47,457.67l-.16-.41a1.67,1.67,0,0,0-.38-.25Z"/><path class="b" d="M695.24,440.25c.11.4.69.36,1,.44a1.51,1.51,0,0,1-.65-.75A.61.61,0,0,0,695.24,440.25Z"/><path class="b" d="M687.73,411.89l-.2-.48Z"/><path class="b" d="M706.14,470.07a.44.44,0,0,0-.13.24C706.08,470.28,706.11,470.19,706.14,470.07Z"/><path class="b" d="M1096,770.53a.34.34,0,0,0,0,.1C1096.07,770.58,1096.1,770.54,1096,770.53Z"/><path class="b" d="M1116.84,770.58l-.23.2a1,1,0,0,0,.12.3Z"/><path class="b" d="M747.26,552.39l0-.07C746.93,552,747.08,552.18,747.26,552.39Z"/><path class="b" d="M852.36,668.48c-1.07-1.51,2.65,1.32.92-.8C853.34,668,850.84,666.83,852.36,668.48Z"/><path class="b" d="M688.92,407.79c.07.24.14.48.2.73A4.15,4.15,0,0,0,688.92,407.79Z"/><path class="b" d="M853.28,667.68h0l-.18-.22Z"/><path class="b" d="M770.21,584.5a1,1,0,0,0-.05-.47C770.12,584.08,770.12,584.19,770.21,584.5Z"/><path class="b" d="M753.74,560.17l.34.64A5.21,5.21,0,0,0,753.74,560.17Z"/><path class="b" d="M780.3,596a3,3,0,0,0,.64.86,1.09,1.09,0,0,0-.05-.17A1.5,1.5,0,0,1,780.3,596Z"/><path class="b" d="M790.53,608.09a2.12,2.12,0,0,0-.11-.29l-.35-.36Z"/><path class="b" d="M1049.08,763a2.39,2.39,0,0,1,.58.67C1049.52,763.22,1051.79,763.64,1049.08,763Z"/><path class="b" d="M688.57,407.4c.16.05.26.16.35.39l-.16-.5C688.67,407.27,688.59,407.28,688.57,407.4Z"/><path class="b" d="M784.14,593.66l1.51,2C785.25,595.08,784.7,594.35,784.14,593.66Z"/><path class="b" d="M943.92,722.65l.54.2A1.33,1.33,0,0,0,943.92,722.65Z"/><path class="b" d="M790.49,601.26a5.48,5.48,0,0,0,.62,1.32,1.09,1.09,0,0,0,.3.13Z"/><path class="b" d="M1049.66,763.67Z"/><path class="b" d="M1066,766c-2.32-.49-1.23.48-1.81.8-2.83-.36-1.18-.8-2-1.36-1.77-.17-3.25.19-4.53-.12-.07-.14-.31-.24,0-.33-2,.17-5.43-1.22-7.72-1a.59.59,0,0,1-.24-.25,1.08,1.08,0,0,1,.09,1.07c-1-.25-2,0-2.32-.6a1.42,1.42,0,0,0,1.07-.07l-1.14-.07c-.81-.92,1.54.14,1.67-.36-2.17-.3-4.78-.4-6.35-1-.17-.74,3.84.77,1.83-.38l2.44.9c-1.64-1.53,1.51.46,0-1.1-3.23-1-3.76-.62-7-1.7-.84.16.09.61-.75.76-4.84-.65-3.18-2.67-6.84-2.79-1,.17-1.6.89-3.89-.27l1-.49c-3.12-1-2.12.51-5.27-1,.68-.1,2.55.53,2.1.29-2-1.24-1.64-.06-3.28-.57l-.13-.76c-3.37-1-7.2-1.71-10.92-2.87.27-.12,1-.11.18-.6a86.34,86.34,0,0,1-14.11-5.64l-1.89-.11c-.39-.15-.63-.52-.17-.47-1.64-.87-.22.32-1.13.21-1-.34-1.17-.81-.49-.74-3.2-.71-9-2.42-11.93-4.34l.68.09c-2.37-1.24-3.24-.06-5.31-1.53l.48.09c-5.23-2.51-11.29-4.67-14.93-7.34-1.12.41-5-2.79-5.86-1.89-2.74-2-1.79-1.75-5.79-4.15-1.09-.6-2-.17-3.42-.75l.24-.57-2.15-.37-.65-1.16-1.36-.52c.49.29,1,.8.8.92-2.14-.77-4.68-2.91-4.58-3.22q-2.48-1-4.95-2c.22-.16,1,.19,1.75.39-2.81-.8-.15-.82-2.72-1.55.24.29-.34.23-.45.32a25.64,25.64,0,0,0-5.55-3.31l.58-.16c-3.39-2-7.36-3.92-11.17-6.19,1.27,1,.58,1.43-.58.83l-.11-.83c-.93-.08,1,.91-.69.45-1.4-.9-.59-1.2.34-.9l-1.85-.83c0-.23.46-.08.69-.23-.92-.07-2.64-2.35-4-2.36v-.23c-3.77-2.31-5.6-3.19-8.67-5.09-.36.44-1.48-.43-2.63-.63-2.15-1.58-4.37-3.57-7.07-5.29-2-1-.8,0-1.83-.26.15-.52-2.53-2.27-1-1.64-3.23-2.09-4.11-2.67-8.34-5.12.32.48.75.9.4.86-.77-.44-1.52-1.33-1.28-1.46l.22.09c-4.91-2.52-9.34-8.55-13.42-10.32l.23.1q-2-1.12-3.92-2.28c-1.59-1.34,1.22.45.19-.73a25.41,25.41,0,0,1-5-3.53,32.82,32.82,0,0,0-4.39-3.34c-1.48-3.09-8.56-6.89-11.11-10.35l-.05.43c-1-.44-.85-1-1.4-1.59-.1.28.68,1,0,.72-7.21-5.65-13.79-12.91-20.28-19.64-2.38-2.46-2.69,0-5.17-3.67l1.33.39c-5.48-4.3-9.93-10.06-15-14.55.39.19.54.06,1,.55-.62-1.38-3.59-3.88-3.88-3.65-.68-.81.09-.42-.2-1-.75-1.25-2.87-2.25-3-3.14,0-.15.38.2.59.37-.81-.53-2.84-3.3-2.67-2.26-1.49-2.07-3.4-3.49-4.47-5.25-1.34-.59-2.6-3.5-3.53-3.26.81-.45-2.32-3.87-3.65-4.86.55.24-.66-1.26,0-1-1.17-1.41-2.36-2.6-2.52-2.06-1.26-3.32-4.93-4.77-5-7.14-3.72-4-7-7.85-10.07-11.7.84-.38,3.27,4.34,3.92,3.59-3.06-3.52-5.27-5.23-7.76-9.13-.59-1,.72.33,1.07.56a66.12,66.12,0,0,1-4-5.44,63.54,63.54,0,0,0-3.78-5.13c.08,0,.4.28.69.59-.48-.66-.94-1.65-1.23-1.34l.53.59c.24,1.42-2.84-2-3.17-2,1.73.52-2-3.59.46-2.56-.36-.41-.89-.86-1-.61-.37-.71-.37-1,.33-.5-1.77-2.33-1.59-1.22-3-3.47.17-.09.52.32.86.42a12.29,12.29,0,0,1-3.13-3.84c.17.05.16-.25.52.31-2.07-3.23-4.34-5-6.16-8.86,1.38.63-.48-1.38,0-2L740.2,532l.15,1c-1-1.72-2.32-3-3-4.58l1,1.12-2-3.16.8,2c-1.33-1.55-.71.66-1.84-1.75.33.44-1-1.75-1.07-2.87h0a8.8,8.8,0,0,1-1.94-2.89c0-.45.87-.13.89-.42-1-.56-2.35-4-3.52-4.79.33.29.69.12.7,0l-.83-.48c-.3-.89-.28-1.05.06-1.06-1.19-2.51-.43,1.22-1.58-1.89.15.21.16.06.48.5a42.46,42.46,0,0,0-2.25-4.24,35.35,35.35,0,0,1-2.08-4.12c.27-1.13,1.35,2.29,1.46,1.09-2.09-3.84-4.81-7.73-6.43-11.64l.25.75c-1.21-.09-.85-3.08-2.2-4.82.29.45.82.38.66.3-1-2.71-2.69-5.28-4.73-9.19l.46.39c-.44-1.67-1.65-4.18-2.24-5.94-.46-.4-.82-1.39-.94-.65a23.6,23.6,0,0,0-2.78-7.71c-1.19-2.36-2.38-4.65-2.66-7.24.22.56.73,1.26.56.81l-1.75-3.93c-.32.47-.07.62-.08,1.59a7.19,7.19,0,0,1-1.45-2.48c.95,1.72.69-.27.65-1.15-.09.19-.33,0-.44.09,0-2.4-1,0-1.53-3.12l.29.07a17.35,17.35,0,0,1-1.52-3.12c.34-.66.63,1.07,1.08,1-.6-1.63-2.08-2.91-2.09-4.58.38.65.73,1.66,1.11,2.31a8,8,0,0,0-.5-3.2l0,.12-.69-2.87.08.76c-2-1.62-1.63-4.13-3.42-6.63,1.72,2.44.63.29,1.27.32-.08-.77-.24-1.91,0-1.65-.88-1.17-.32-2.32-1.59-4,.16-.14-.42-1.42.14-1.27-.68-1.67-.2.51-.47.44-1.48-2.46-1.12-6.48-3.12-10.05-1.29-3.21-2.11-3.65-3.27-6.65,0-1.12.91.67.91.67a14.69,14.69,0,0,0-1.2-4.54c.25.28.3-.09.39-.63-.39-1.26-.92-.67-1.08-2.42a4.64,4.64,0,0,1,1.09,1.07c-.58-1.45-1.29-2.84-1.86-4.36.23-.5.74.81,1.09,1.31-.59-1.71-1.44-4.46-2.09-4.87l.09,1.17c-.18-.64.37-.44.58,0,.79,1.4.36,2.21.2,2.35l-.4-1.08c-.82,1.42,1.28,4.42,1.82,6.65l-1-.71,1.28,2.1c-.08.55-.44,1-.86-.07,0,1.71.67,1.34.59,2.83,0,.17-.09.11-.16,0l.66,1.5c-.25-.26-.49.41-.64-.58.32,2.93,1.87,4.34,1.56,5.57l-.12-.22c1.37,3.8.68.21,2.21,2.91l-.86,2.37.7.21c.09.4.28,1.2,0,1.12.84,1.37.17-.32.81.42,0,2.09,1.85,5.2,1.06,5.92.66.54-.23-1.94.72,0-.82.9.9,2.31,1,4.19-.69-.37-.93-2.11-.85-.22,1.21.78.93,3.45,1.57,4.86.71-.16,1.33,3.1,2.42,5.46-.28-.08,1.19,4.74,1.79,7.08l-.14,0c.85.19,1.56,2.57,2.33,4.21-.44.09-.72-.15-1.24-1l.59,1.6a4.59,4.59,0,0,1,1.14,1.75l-.67-.21c.84,2.11,2.19,4,2.94,6.88.53,0,.48-2.67,1.92.06-.21.21-.61.49-1-.22a4.11,4.11,0,0,1,.64,1.33l-.88-1c.29,1.31.61.5,1,1.5-.37.13,0,.83-.32.81-.13-.24-.19-.92-.48-1.24a9.38,9.38,0,0,1,.59,3.12c.17-.18.48-.19.86.6.89,2.08-.14.89.17,2.19.47.41.75,1.85,1.31,1.66a1.41,1.41,0,0,1,0,1.13c.67,1,2.21,5,2.26,3.55l-.08-.29.1.17h0c2,3.3,2.87,7.44,4.66,10.82l-.18.07c1.15,2,2.25,4.54,3.31,5.83.28.61.36,1.59,0,1.43a13.65,13.65,0,0,1,2,4c-1.06-1.43,0,.67-1-1.51.83,2.11.74,2.73,2.32,4.66-.82-.52.19,1.8.8,2.7l-.38-1.58a33,33,0,0,1,1.48,3l-.86-.22c1.38,4.51,5,6.8,5.5,10.53,1,.86-.9-2.37.1-1.66.92,1.92,1.13,4.33,1.44,4.92,1.09,2.73,2.17,1.91,3.43,4.7,0-.46.39-1.08,1.69.79,1,1.89.43,2.76-.4,1.69-.27-.43-.33-.68-.25-.7-.41-.56-.95-1.3-.75-.44l.34.13c.31,1,1.79,3.57,1.11,3.16,1,1.29.68.41.2-.69,1.05,2.55,2.11,3.71,3.35,6.25-.12-.46-.09-1,.14-.57,1.85,3.7,1.3,1.34,2.83,3.68.52,1.54-1,0,.69,2.21.69,1.59-.35.63-.87.15,1.72,2,2.25,4.25,3,5.53l-.89-1a14.78,14.78,0,0,1,1.24,1.76v-.91c.35.72.71,1.29.53,1.38.7.53.34-1,1.56.2.35,1,1.95,2.57,1.62,3.22-1.63-2.91-.34.65-1.94-1.67a9.16,9.16,0,0,1,1.07,1.7c0,.13-.17,0-.32-.19,1.26,3,1.4.84,3.18,3.62-.52-.16-.15,1,.22,1.42-.73-1.12.14-.86,1,0,.95,1.91,1.45,1.79,2,2.73l-.6-1.12c.54.16,1.09,1.06,2,2.22-.16.26-.9-1-.71-.5,1.41,1,1.55,3.41,3.19,5.06.4,1-.49.46-.1,1.32,1.84,1.84,1.2,2.55,3.07,4.53-.06-.91-.24-.95,1.24.32L759,568.59l2.2,1.91c-.76-1.09-1.87-2.12-2.27-2.82,1.1.88.93.83.88.09.47,1.9,2.43,2.7,3.26,4.7l-1,.64c1.46,2.86,3.79,4.21,6,7.67l-.63-1.18c.71.16,1.58,2,2.53,2.94-.39.14,0,.89.15,1.49.19-.23,1.83,2.41,2.68,2.22l.71,1.77c1.89,2.75,3.24,2.28,5.12,4.86-.94-.48-.25.83-1.82-.65.65.84,1.2,1.63,1.43,1.47.2.64,2.28,2,2.61,3,.42.24.83.09,1.56,1,0,.16-.16.13-.16.13.16-.12,1.41,1.26,1.08.18a17.78,17.78,0,0,0,3.54,5.08c1.5,1.67,3,3.29,3.51,4.72,1.65,1.65,3.58,3.69,5,5.23-.18,0-.15.12-.39-.2,1.69,2.41,2,.57,4,3.3.67,1.68-1.43-1.07-.9-.13-.66,1.23,2.85,2.82,3.81,5l-.43-.35c.83,1.57,3.23,2.69,5.07,4.77,0,0-.17,0-.15.13,1.81.91,4.47,3.34,6.49,5.11-.95-.23-1-.67-1,.05.9.8.34-.83,2.13.76.36.74,1.41,2.14,1.18,2.69l-1.62-1.58c.32,1.33,2.09,2.06,2.86,3l-.33.11c2.57,2.35,3.12,1.84,5.79,4.44l-.12-.43c2,.84.94,1.49,2.81,2.47l-.1,1c1.12.77,4,2.65,5.85,4.16-1.42-.48-3.68-2.19-5.2-3.12,1,.91,3.36,3.05,4.14,3.22a4.87,4.87,0,0,1-1.38-1.07,18.69,18.69,0,0,1,5.37,3.66c-1.37.82,4.9,4.89,5.6,7,3.91,2.66,6.94,6.24,11.23,9.66-.75-2.15,1.26,1,1.78-.18,1,.74,1.4,1.06,1.44,1.19l2.56,3c.49.85-1.12-.54-1.2-.25,2.13,1.8.6,1.13,1.85,2.53,0-.58,1.15.11,2.3,1.23l-1.42-1.83c3.47,1.9,2,2.88,5.55,4.78l-1.22-.45c1.73,1.06,5.93,4.52,8.12,4.9.2.33.38.88-.39.42,3.79,3,9.31,5.46,12,8.11l-.47,0c.79.45,1.61.44,2.37,1.33-.12.06-.47,0-.14.29a12.07,12.07,0,0,1,3.15,1.74l-1-.3c3.68,3,6.45,3.37,9.86,5.36-.5.74,2.46,3,3.94,4.11l-.12.07c4.58,3,8.27,4.35,12.8,6.67,2.2,2.46,9,5.79,13.13,8.72-.59-.52.45-.53,1.28-.17.94.75,3.16,1.06,2.61,1.68l-.37-.22c.41,1.12,2.64,2.13,4.32,3.05l.78-.78c3.66,3.74,11.81,5.59,13.62,8,1.2.31,2.53,1,3.72,1.27l-.31.48a81.1,81.1,0,0,0,8.18,4h-.93c2.09,1,3.35-.22,5.31.65l.23,1c3.69,1.68,7.14,4.05,11.12,4.94-.11.09-.31.27-.93,0,1.73.8,6.58,3.44,6.38,2.11-.24.7,3.84,1.69,6,2.19l-.52.39a10.89,10.89,0,0,1,4.57.65c.54.29.34.61-.37.18,1.79,1,1.67.1,3.86,1.27h-1a5.15,5.15,0,0,0,3.07.59c1.31.27,3.67,1.53,3.78,2.12a3.82,3.82,0,0,1,2.7.39c.09.23-.37.19-.61.17,3.16,1.57,5.12,1.17,7.21,2.49a.5.5,0,0,0,.27.45c-2.62-.95-4.72-1.73-4.51-1.7-.18.49,1.92,1.33,0,1.39,1.83.25,5,.49,7,1.43a1.09,1.09,0,0,1,.22.26l-.24,0a4.54,4.54,0,0,0,1.34.38,17.43,17.43,0,0,0,1.68.73c.11.48,2.37,1,3.43,1.4.09-.56,1.46,0,.3-.88.15.09-.23,0-.94-.22a4.16,4.16,0,0,0-.47-.09l.08,0-2.65-.86a5.19,5.19,0,0,1,3,.77c.66-.16,1.38-.32,1.77-.37,1.21,1.23,3.9,2.52,4.15,3.11,3.37.73,7.79,2.18,10.16,1.76,1,.14,1,.6,1.29.86a8.83,8.83,0,0,0-1.54-.19c1.94.29,5.58,1.47,6.22.88,2.28,1-1.51.3,1.78,1.06l-.5.1c6.13,2.87,10.89.91,17.71,4-.48-.2-.71-.29-.79-.44,8.06,2.49,17,2.84,25.1,4.94,2.32.51,2.63.07,4.1-.13l.44.65,2.52-.45c3.49-.2,5.94,2,10.43,1.1l-.56-.42c1.59.14,5-.26,4.78.2a1.28,1.28,0,0,1,1.14-.26l.07.31c1.3-.25,2.6-.54,3.88-.89,1.53-.08,1.47.21,1.57.5s.38.57,2.71,0a9.28,9.28,0,0,0,2.82-1.63,4.45,4.45,0,0,0,.85-.94c.15-.23.15-.35,0-.29-.62.46-1.7.79-1.87.5a8,8,0,0,0,1.26-.9c-.15-.46-.18-1-.56-1.29s-.87-.28-2.37,0a15.25,15.25,0,0,1-2,1.17c-.29-.1-.56-.18-.84-.29.64-.14,1.28-.29,1.88-.47a3.87,3.87,0,0,0-2.49.76,1.76,1.76,0,0,0-1.07-.34c-.72.41-1.49.78-2.27,1.15-.32-.35,1-.8-.61-.89-1.09.5,1.15.74-.71,1.14-1.22-.37-.87-.71-2.25-.31-.21-.24.09-.4.63-.52-1.22.33-3.27.18-3.92.65-1.24-.52-4.24,0-4.07-.87a10.7,10.7,0,0,1-3.4.52c2.18-.88-4.31-.41-3.64-1.52-1.65.81-5.65-.18-8.47-.06a1.34,1.34,0,0,1,.73-.08,14,14,0,0,1-2.91-1c-.31.76-2.75.55-4.13.81-1.77-1.06,1.3-.71.82-1.53,0,.65-3.38.07-2.83.7-1.36-.72-1.21-.45-1.83-1.22-.43.92-1.38-.08-2.68.28-2-.88-.37-1-2.71-1.16C1063.88,765.89,1066,766,1066,766Zm-54-13.15h0l1.09.35Zm-4.42-1.54c.53.21,1.2.45,1.91.7.09.24-.14.37-.59.2C1009.19,752.13,1008.19,751.66,1007.58,751.27Zm8.13,6.93c-.73-.16-.93-.35-1-.49.33.1.73.22,1.25.35l.11,0A.79.79,0,0,1,1015.71,758.2Z"/><path class="b" d="M1017.22,757.92a2.26,2.26,0,0,1,.3.06l-.38-.26-.31.09Z"/><path class="b" d="M710.73,479.2l0,.1a.85.85,0,0,1,0-.22A.33.33,0,0,1,710.73,479.2Z"/><polygon class="b" points="948.68 724.77 948.63 724.9 949.05 724.97 948.68 724.77"/><path class="b" d="M703,454.44a.72.72,0,0,0,0-.36A.8.8,0,0,0,703,454.44Z"/><path class="b" d="M699.41,443.89l-.33-1.55C699.2,443,699.31,443.5,699.41,443.89Z"/><path class="b" d="M697,435.67a.52.52,0,0,0-.28-.08h0Z"/><path class="b" d="M756.53,557.58l.21.26C757.26,558.42,756.93,558,756.53,557.58Z"/><path class="b" d="M734.3,523.68c.3.33.59.65.86,1C734.85,524,734.59,523.54,734.3,523.68Z"/><path class="b" d="M784,593.44h0l.18.22Z"/><path class="b" d="M736.07,526.35a6.16,6.16,0,0,0-.91-1.66A10.27,10.27,0,0,0,736.07,526.35Z"/><path class="b" d="M687,399.9l-.08-.41s-.07,0-.1,0Z"/><path class="b" d="M686.85,399.47l-.17-.43A.94.94,0,0,0,686.85,399.47Z"/><path class="b" d="M686.31,398.14l.37.9A1.77,1.77,0,0,0,686.31,398.14Z"/><path class="b" d="M689.62,410.94l.23.08A.25.25,0,0,0,689.62,410.94Z"/><path class="b" d="M690.59,414.25a19.06,19.06,0,0,0-.55-3.17l-.19-.06C690.28,411.46,690,413.59,690.59,414.25Z"/><path class="b" d="M692.21,428.8c-.24-.93-.45-1.88-.68-2.82-.06.55-.15,1.27-.58,0C691.38,429.69,691.19,425.14,692.21,428.8Z"/><path class="b" d="M694.63,437.48c-.58-1.45-.29.11-.44.07C694.69,438.43,694.81,438.64,694.63,437.48Z"/><path class="b" d="M718.66,497.91l-.53.08C718.72,499,718.31,497.91,718.66,497.91Z"/><polygon class="b" points="726.5 507.88 726.26 506.7 725.6 506.41 726.5 507.88"/><polygon class="b" points="726.63 516.07 726.32 515.64 727.42 517.33 726.63 516.07"/><path class="b" d="M788.31,606.28l.24-.69C787.93,605.05,787.28,605.38,788.31,606.28Z"/><path class="b" d="M821.31,640.06a3.77,3.77,0,0,0,1.78,2C822.35,641.28,821.75,640.37,821.31,640.06Z"/><polygon class="b" points="935.28 723.5 934.34 723.24 936 723.93 935.28 723.5"/><path class="b" d="M1084.55,785.18c0,.17.15.54.21.44l-.13-.65Z"/><path class="b" d="M1085.52,786.16a3.54,3.54,0,0,0-.29-1.48c.09.65,0,.4.09,1.16-.06.1-.22-.16-.27-.39,0,.17-.19-.1-.11.31.27.46.42.43.45,0A1.44,1.44,0,0,1,1085.52,786.16Z"/><path class="b" d="M1094.66,784.19l-.08-.05A.15.15,0,0,0,1094.66,784.19Z"/><path class="b" d="M1100.2,782.44s0,.1,0,.16S1100.23,782.49,1100.2,782.44Z"/><path class="b" d="M1101.39,782.74l-.07,0S1101.4,782.79,1101.39,782.74Z"/><path class="b" d="M1094.66,784.19l.22.14C1094.81,784.12,1094.75,784.21,1094.66,784.19Z"/><path class="b" d="M1086.26,784.26a.44.44,0,0,0,0,.19.36.36,0,0,1,0-.09Z"/><path class="b" d="M1092.44,785.55h0l0,.27Z"/><path class="b" d="M1090.61,786.28a3.51,3.51,0,0,0-.17-.77.81.81,0,0,1,0,.39A3.79,3.79,0,0,0,1090.61,786.28Z"/><path class="b" d="M1087.36,786.3l0,.09Z"/><path class="b" d="M1093.8,785.2a.59.59,0,0,0,.09.18Z"/><path class="b" d="M1088.58,765.4l0-.09C1088.59,765.36,1088.57,765.39,1088.58,765.4Z"/><polygon class="b" points="1087.77 761.9 1087.81 761.89 1087.96 761.61 1087.77 761.9"/><path class="b" d="M1103.36,782.68h0C1103.33,782.75,1103.35,782.73,1103.36,782.68Z"/><path class="b" d="M1122.13,771.76c-1,.26-2.08.11-3.07.42A24.11,24.11,0,0,0,1122.13,771.76Z"/><path class="b" d="M1086.33,784.31l.07,0S1086.34,784.29,1086.33,784.31Z"/><path class="b" d="M1119.06,772.18h0l-.1,0Z"/><path class="b" d="M1107.07,780.62a1.73,1.73,0,0,0-.15-.2A1.26,1.26,0,0,0,1107.07,780.62Z"/><path class="b" d="M1103.89,781.21l.1,0Z"/><path class="b" d="M1108.19,779.2c.06,0,.1.08.12,0l0-.06C1108.28,779.21,1108.27,779.26,1108.19,779.2Z"/><path class="b" d="M1109.7,778.43l-.08-.08,0,0Z"/><path class="b" d="M1093.37,767.32a3.43,3.43,0,0,1,.14-.5C1093.37,767.2,1093.08,767.23,1093.37,767.32Z"/><path class="b" d="M1086.35,784.56c0-.14,0-.21,0-.25l0,.05A1.5,1.5,0,0,0,1086.35,784.56Z"/><path class="b" d="M1106.28,775.19l.27,0A.5.5,0,0,0,1106.28,775.19Z"/><path class="b" d="M1104.77,771.6l-.08,0S1104.74,771.65,1104.77,771.6Z"/><path class="b" d="M1107.19,774.73a1,1,0,0,0,.31.28s0-.08,0-.14Z"/><path class="b" d="M1093.51,766.82Z"/><path class="b" d="M1091.34,767.31c.23.12.41-.61.63-1,.37-.06-.09.55-.15.94.25-.09.67-.66.78-.57a.78.78,0,0,1-.12.29c.42-.45.56.22,1.07-.36a.8.8,0,0,1,0,.18,7.69,7.69,0,0,1,.37-.94c.11,0,.38-.35.23.11-.06,0-.14.14-.23.26l.19-.14c-.18.68-.25.15-.45.62.3-.11.78-.52.87-.27-.24.64-.48,0-.5.69l-.15-.35c-.23,1.07-.13-.14-.41,1,.26.33.52-.15.78.18.22-.32.19-.53.42-.84.74-.42-.29,1.73.41,1,.27-.38.64-1.16.71-.64l-.38.68c.3.2.61-.94.76-.32-.18.25-.36.13-.35.23,0,.65.33-.34.5-.27l-.22.65c.39,0,1-.26,1.39-.22a1.1,1.1,0,0,0-.23.58c.62-.11,1,.49,1.35,1.06l.4-.48s0,.28-.11.36c.11.28.15-.34.32-.52.12,0,0,.37-.11.51.5-.34,1.31-.66,1.44.06l-.13.14c.19.32.72-1,.78-.41l-.09.08c.5.45,1.33.17,1.48,1.17.37-.77.46.56.89-.55.14.67,0,.84.33,1.37.11.09.42-.63.62-.7l-.19.59.41-.54-.12.73.2-.1a.66.66,0,0,1,0-.47c.31-.19.42.59.33.9l.71-.32c-.09.23-.21.28-.33.41.49-.51-.14.63.3.17a1.7,1.7,0,0,1,.18-.46.43.43,0,0,0,.59.42l-.17.39c.37.23.92.07,1.37.22-.1-.24.15-.93.3-1l-.13.64c.2-.36-.07-.28.25-.69.15.12-.1.74-.26.91l.27-.15a3.7,3.7,0,0,1-.21.51c.29-.34,0,.67.25,0l-.07.18c.11,0,.29-.14.43-.13a3.73,3.73,0,0,1,.71-.72c0,.2-.26.57-.14.56.34-.2.49-.36.87-.59-.51.38-.36.37-.8.63a8.92,8.92,0,0,0,1-.26,6,6,0,0,1,.61-.32c.16,0-.19.17-.55.32l-.08,0c.66-.21.3.07-.18.28s-1,.36,0,.12l-.11,0c.39-.08.82-.15,1.27-.22-.11.06-.84.17-1.45.32,1-.17,1-.13.88-.09s-.3.08.46,0l-1.07.17c-.79.12-.59.09-.4.1s.26,0-.69.09l.8,0c.76,0-.48,0-.66,0l1.13,0c.36,0-.09.16-.58.18a4.25,4.25,0,0,1-1.26-.1c-.11-.05,2.43.77,1.2.47l-.79-.32c.46.21.34.27.25.29s-.16,0,0,.33c-.08-.13-.22-.28-.2-.29-.34-.36-.08,0,.1.37a5.43,5.43,0,0,1-.31-.47c0-.06,0-.05,0,0a1.18,1.18,0,0,0,0,.21c0,.15,0,.28-.18.09a.25.25,0,0,1,0-.2c0,.25-.42.15-.09.6-.35-.11-.33.45-.67.25.16.62-.54-.06-.18.74-.39-.81-.74-.44-.7,0-.07-.27-.26-.19-.37-.55-.16.09-.24.32,0,.72-.78-.82-.25,1.09-1-.07a5.57,5.57,0,0,1-1,1.61c-.36-.82.48-.31,0-1.16-.27.54-.21,1.35-.73,1.36-.17-.06-.1-.39-.13-.55-.28.54-.88.32-1.07.94a.46.46,0,0,1,0-.26c-.06.06-.23,0-.06.33l0-.14c.37.49.2,1.28.31,1.57-.34-1.13-.51-.1-.9-1.55a.87.87,0,0,0,.12.54c-.11,0-.2-.17-.25-.49-.19.32.08.68-.17.78a4,4,0,0,1-.13-.5c0,.41,0,.82-.23.76,0-.11-.12-.24,0-.27-.34.22-.23,1.22-.78,1-.22-.84-.25-.2-.56-.88l-.13.29.22.3c-.19.07-.16.64-.41.49l0-.35-.3.28.31.18c0,.44.38.87,0,.78,0-.09-.2.07-.46-.3h0c0,.26,0,.53-.23.42s-.28-.78-.36-.92c.14.62-.39.34-.26,1a2.31,2.31,0,0,0-.21-.6l.11.5c-.15-.11-.19-.18-.29-.47-.3,0,.43.84,0,.59,0-.05,0-.11,0-.21-.4-.07-.51.55-.9.43-.35-.67.2-.27-.13-.82-.38.29-.57,1.17-1,1.17l.1,0c.32,1-.49-.38-.53.17a1.16,1.16,0,0,0-.11-.46c-.34,0-.49.46-.81.93l0-.28c-.25-.16-.49,0-.71,0,0,.28-.08.27.12.62-1.09-1.25-.8,1.17-1.73.13.06,0,.06-.28,0-.26l-.34.38c.18.43.15.25.35.56,0,.27,0,.52-.12.55.1-.35-.24-.7-.41-.91.06.13.08.28.14.42-.49-.7.26.89-.22.47l-.06-.23c-.08.15-.08.49-.23.47-.22-.49,0-.28-.09-.7-.16.09,0,1.08-.35.63,0-.17.14-.21.16-.37-.37-.54-.34-.38-.5-.43h0l-.38-.17.13.14c.22,1.39-.36.39-.37,1.35,0-.91-.11-.49-.28-1.07-.13-.13-.3-.28-.32-.45,0,.51-.35-.29-.32.46-.07-.18-.15,0-.28-.45-.13.21.15.31.21.55-.07.72-.9-.56-1,.44-.23.47-.1,1.11-.32,1.53a1.09,1.09,0,0,1-.13-.71c-.26-.21-.37-.12-.47.14a1.27,1.27,0,0,0-.21-.49c-.12.09.12.71-.14.49a6.82,6.82,0,0,1-.1-.79c-.1.22-.15.61-.26.83a1.54,1.54,0,0,1-.06-.75,1.08,1.08,0,0,0-.28,1l.18.15c-.06,0-.17-.43-.15-.54,0-.45.28.11.34.29l-.07.16c.46,1.05.4-.32.65-.33l.16.82,0-.73c.11.19.29.62.21.78.29.34.06-.33.34.06a.22.22,0,0,1,0,.14l.09-.29c0,.18.2.55.06.47.44.36.28-.75.59-.18v.05c.32-.39-.15-.59-.07-1.37l.67,1.37-.15-.6s.15,0,.21.27c0-.45-.11-.25-.14-.65.37.46.47-.43.82.48-.07-.46-.31-.28-.19-.65.39,1,.19-.26.52.14.12.53-.15.32.19.71-.18-.9.42.07.52-.15-.23-.69.24-.4.42-.71.06.23.62.22.94.38l0,.12c-.19-.71.1-.67.24-.88a1.61,1.61,0,0,1,.12.82l.17-.07a.63.63,0,0,1,.06-.49l.14.54c.21-.11.24-.77.65-.53-.15-.49-.7-1.26-.51-1.69a2.44,2.44,0,0,1,.23.83s0-.25.11-.15l0,.48c.2.15-.06-.39.06-.39.13.38.17.24.26.54,0,0-.14-.12-.13,0a1,1,0,0,1,.51.46c-.08-.21-.18-.5-.11-.58s.24.42.44.56c0-.28.2-.06,0-.62.06,0,.17.24.25.38,0-.29.52-.27.17-.81l0,0s0,0,0,0h0c.18-.69.91,0,1.2-.35l.07.18c.14-.29.45-.31.46-.77.07,0,.29.28.34.51.12-.21.06-.42.43-.21,0,.39.16.26-.09.3.28.08.45.35.49-.24.1.5.4.53.46.35l-.29-.28c.09-.12.21-.11.33-.12l.19.65c.75.57.32-1.61,1.16-.49,0-.48-.37-.21-.46-.75.24,0,.82.8.89.77.42.23-.1-1,.3-.89-.13-.21-.41-.78-.27-1.08.24,0,.64.82.58,1.05,0,0-.1,0-.13-.1a.39.39,0,0,0,.1.44l-.07-.23c.2.18.48,0,.56.43a.34.34,0,0,0-.25-.45c.4.2.43-.17.79-.07-.09-.1-.24-.34-.19-.36.51.1,0-.49.23-.7.3.27.28.82.44.43.27.15.28.56.29.77.08-.53.59.07.77.09l-.06.23a.24.24,0,0,1,.17-.19l-.26-.4c.11,0,.17,0,.25.19,0-.32-.37-.7-.38-1.16.19.18.21-.37.49.19-.41,0,.29.57.06.78,0-.09.09-.12.2-.07a.19.19,0,0,1,0,.16c.54.38-.14-.71.19-.84.1.34.34.58.37.49-.14,0-.3-.51-.29-.81.31.16.14-.29.26-.31l-.18-.06c-.1-.35,0-.35.12-.51.12.24,0,.23.05.32-.1-.65.62.42.67-.06.2.17.28.6.44.71.06-.53.47.32.58-.15-.28-.4-.24-.29-.25-.79l-.29.5,0-.76c-.13.06-.14.4-.25.36,0-.41,0-.3-.23-.63.48.57.18-.54.58-.19l.49,1.07c.53.34.3-.79.82-.72l-.22-.12c-.15-.45.22-.18.26-.41a2.27,2.27,0,0,0,.46.65c-.13-.26.31-.12,0-.85l.4.39c.42,0-.12-1.19.24-1.21.1.43.36.61.29,1,.1,0,.23,0,.11-.27.17.19,0-.62.3-.33,0-.17-.2-.55-.07-.58a.68.68,0,0,1,.08.18c-.08-.18.06-.33-.23-.67.86.94.83-.52,1.58.29a2.59,2.59,0,0,1,.55-.62c0,.11.09.18,0,.16.45.18-.37-1.08.19-.92.55.43,0,.41.23.55.36.54.49.42.6.24s.18-.43.6-.23l0,.11c.58.18.25-.69.66-.82a1.08,1.08,0,0,0,.16.13,1.26,1.26,0,0,1,0-1.2c.46.32.15.22.76.46.07-.12-.92-.42-.83-.64a13.21,13.21,0,0,1,1.57.33l-.27.19c1,.25.37-.24.67-.27l.37.15c.37-.34-.67-.63-.17-.87l-.37,0c-.91-.37.83,0,.2-.29l1.27.16c-.1-.16-.62-.52-.64-.68a2.26,2.26,0,0,1,1.29.66c.19-.11.53-.39,0-.5.06.06.29.14,0,.16-.8-.24-1.11-.4-.81-.57a4.06,4.06,0,0,0,2.1-.2,5,5,0,0,1,2-.47c-.23-.19.2-.38.82-.62a8.81,8.81,0,0,0,1.7-.75c-1.55.26-1.49.22-1.48.18s0-.08-1.56.13l-.09,0c-.21,0-.19,0,0-.07.43-.13.84-.27,1.22-.42a11.46,11.46,0,0,1,1.49-.16c-.27-.17,1-.26,1.43-.49-1,.2-1.64.21-1.56,0-.28.12-.57.24-.88.35-1.08,0-.62-.1-.21-.25s.79-.32-.25-.27l1-.12a9.87,9.87,0,0,0-3.64,0,3.2,3.2,0,0,1,1-.3,6.47,6.47,0,0,0-2-.15c-.76,0-1.33,0-1.24-.29l.47-.18c-.29,0-1,.3-.82,0,.17-.09.45-.19.39-.22-.22,0-1.06.25-1,.07l.57-.19c-.19-.26-.78-.21-1.34-.08a9.87,9.87,0,0,1-1.52.34c.74-.7.3-1.12.09-1.33l.1-.11c-.91-.38-2,.18-2.82.3-.11-1-1-.72-1.32-1.39a1.14,1.14,0,0,1-.34.71c-.06-.21-.51.48-.24-.29l0,0c.16-.78-.15-.66-.33-.74l-.35,1c0-1.62-1.47.12-1.3-1.28-.2.21-.35.15-.55.36l.19-.53a1.09,1.09,0,0,0-.86-.38l.21-.35c-.21-.11-.82,1.44-1,1.4l.22-.82c-.41-.13-.55-1-1.2-.39,0-.11.14-.34.22-.35-.18-.08-.52-.8-.85.32.26-.71-.38-.22-.71,0l.23-.51c-.43.6-.5.78-.83.87,0-.09.11-.43.14-.27-.1-.35-.34.44-.48.07l.22-.3c-.19-.12-.24.06-.5.41-.21.16-.34-.28-.18-.76-.14.27-.4.61-.47.43a.71.71,0,0,1,.18-.32c-.2-.49-.74.41-.77-.2a1.07,1.07,0,0,0,.08-.32c.27.12.47.23.44.26.18-.48,0-.65.43-1.24-.31.3-.92,1-1,.65l0-.18,0,0c0-.07-.09,0-.16,0,0-.11-.06-.18-.12-.21.14-.41-.16-.32-.26-.38-.2.53-.31.38-.35.87,0-.05,0-.06.13-.05l.06,0,0,0,.28.07c-.19.23-.37.42-.37.08l-.5.78c.15-.79,0-1.29.17-1.76-.44.16-.84-.13-1.46.76-.15.08,0-.33,0-.49s.15,0,.24-.16c-.29.17-.59-.14-.93.52-.1-.41.41-.57,0-.59l.14-.19c-.16-1.36-1.79,1.27-1.87-.42a.52.52,0,0,1,0,.27c-.52-1-1.9-.18-2.23-1.51-.13-.3-.36.12-.65.38l.21-.57-.53.52c-.55.3.08-1.6-.75-.94l-.13.39c-.11-.14-.57,0-.34-.42,0,.06-.24.35-.2.13l.13-.28-.6.3c-.18-.34.6-1.1.22-1.35a1.89,1.89,0,0,0-.88.82c.05.05.06.25-.07.54l-.22.08a5,5,0,0,0-.92,2.37l.5-.39-.12.44-.22-.07c-.07.44.17.14.37,0a1.2,1.2,0,0,0-.12.49l.63-.68c-.13.35-.43.6-.35.86.29-.32.25-.79.55-.94-.07.44-.25.73,0,.47a.8.8,0,0,1-.28.42c.25-.2.38.05.66-.36-.11.53.47.08.07.86.13-.17.52-.52.65-.5-.66.86.4.26-.15,1.26.56-.79.74-.12,1.23-.47,0,.06-.14.19-.14.13.12.15,0,.43.06.63.35-.7.67-.75,1-1.13-.13.77-.5.78-.75,1.47.26-.58.6-.42.75-.93a2.17,2.17,0,0,1-.17.88c.44-.88.21-.09.58-.58,0,.54-.33.86,0,.7A.79.79,0,0,1,1091.34,767.31Zm6.18.81h0l-.13,0Zm.47.18a.44.44,0,0,0-.19-.1c0-.19.14-.37.19-.34S1098,768.12,1098,768.3Zm.48-4c.1,0,.09.07,0,.18a.42.42,0,0,0-.15,0l0,.06A2.73,2.73,0,0,1,1098.47,764.29Z"/><path class="b" d="M1098.07,764.92s0,0,0,0v.13l.09-.15Z"/><path class="b" d="M1094.56,784.13h0l0-.07Z"/><polygon class="b" points="1104.15 771.68 1104.19 771.55 1104.11 771.65 1104.15 771.68"/><path class="b" d="M1091.35,783.22a.57.57,0,0,0-.08-.13A.66.66,0,0,0,1091.35,783.22Z"/><path class="b" d="M1090.2,783.48l-.22-.14A1.17,1.17,0,0,0,1090.2,783.48Z"/><path class="b" d="M1089.26,783.5l.06.23h0Z"/><path class="b" d="M1102.3,777.8a.05.05,0,0,0,0,0C1102.35,777.63,1102.32,777.69,1102.3,777.8Z"/><path class="b" d="M1098.92,780.66a1.23,1.23,0,0,1,0-.29C1098.86,780.35,1098.8,780.37,1098.92,780.66Z"/><path class="b" d="M1106.25,775.2h0l0,0Z"/><path class="b" d="M1099.13,780.3c-.11-.08-.16,0-.19.07S1099.1,780.4,1099.13,780.3Z"/><path class="b" d="M1085.48,784.45h0a.31.31,0,0,1,0,.08Z"/><path class="b" d="M1085.45,784.52l0,.08S1085.46,784.59,1085.45,784.52Z"/><path class="b" d="M1085.37,784.77l.05-.17S1085.34,784.61,1085.37,784.77Z"/><path class="b" d="M1086.69,784.34l0-.2A1.88,1.88,0,0,0,1086.69,784.34Z"/><path class="b" d="M1087,784.17c-.1,0-.34-.35-.42-.19l0,.16C1086.6,783.83,1087,784.52,1087,784.17Z"/><path class="b" d="M1089.24,786.1l-.35-.06c.12.19.28.45.16.54C1089.62,787.08,1088.83,786.14,1089.24,786.1Z"/><path class="b" d="M1090.24,786.1c-.13.15.1.3.13.42C1090.41,786.3,1090.42,786.24,1090.24,786.1Z"/><path class="b" d="M1096.74,783.8l.16.48C1097,784.17,1096.83,784.1,1096.74,783.8Z"/><polygon class="b" points="1097.01 780.87 1096.78 780.61 1096.9 781.07 1097.01 780.87"/><polygon class="b" points="1099.06 783.97 1099.04 784.06 1099.17 783.81 1099.06 783.97"/><path class="b" d="M1109.66,779l-.33-.54C1109.31,778.61,1109.61,779.25,1109.66,779Z"/><path class="b" d="M1115.12,775.25c.51.06,1,0,.65-.15C1115.56,775.18,1115.08,775.18,1115.12,775.25Z"/><polygon class="b" points="1106.98 767.29 1107.14 767.12 1106.91 767.23 1106.98 767.29"/><path class="c" d="M1456.14,721.56l2.81,8.84h.11l2.82-8.84h2.72l-4,11.64h-3.17l-4-11.64Z"/><path class="c" d="M1466.4,733.2V721.56h7.84v2h-5.38v2.77h5v2h-5v2.78h5.41v2Z"/><path class="c" d="M1486.34,721.56V733.2h-2.13l-5.06-7.33h-.09v7.33h-2.46V721.56h2.16l5,7.32h.1v-7.32Z"/><path class="c" d="M1488.77,733.2V721.56h7.84v2h-5.38v2.77h5v2h-5v2.78h5.4v2Z"/><path class="c" d="M1498.84,733.2v-1.46l5.81-8.15h-5.82v-2h8.91V723l-5.81,8.15h5.82v2Z"/><path class="c" d="M1517.22,721.56h2.46v7.56a4.11,4.11,0,0,1-.6,2.23,4.07,4.07,0,0,1-1.69,1.48,5.64,5.64,0,0,1-2.53.53,5.58,5.58,0,0,1-2.53-.53,4,4,0,0,1-1.69-1.48,4.11,4.11,0,0,1-.6-2.23v-7.56h2.46v7.35a2.3,2.3,0,0,0,.29,1.18,2,2,0,0,0,.83.81,2.47,2.47,0,0,0,1.24.3,2.51,2.51,0,0,0,1.25-.3,2,2,0,0,0,.82-.81,2.3,2.3,0,0,0,.29-1.18Z"/><path class="c" d="M1522.11,733.2V721.56H1530v2h-5.38v2.77h5v2h-5v2.78h5.4v2Z"/><path class="c" d="M1532.31,733.2V721.56h2.46v9.61h5v2Z"/><path class="c" d="M1544.08,733.2h-2.63l4-11.64h3.17l4,11.64H1550l-2.92-9H1547Zm-.16-4.58h6.22v1.93h-6.22Z"/><path class="c" d="M1139.23,775V763.34h4.59a4.73,4.73,0,0,1,2.25.5,3.51,3.51,0,0,1,1.43,1.4,4.22,4.22,0,0,1,.49,2,4.12,4.12,0,0,1-.5,2.05,3.51,3.51,0,0,1-1.45,1.38,4.87,4.87,0,0,1-2.29.49h-2.92v-2h2.53a2.54,2.54,0,0,0,1.17-.24,1.64,1.64,0,0,0,.69-.69,2.1,2.1,0,0,0,.23-1,2.06,2.06,0,0,0-.23-1,1.56,1.56,0,0,0-.69-.68,2.58,2.58,0,0,0-1.18-.24h-1.66V775Z"/><path class="c" d="M1150.65,775H1148l4-11.64h3.17l4,11.64h-2.63l-2.92-9h-.09Zm-.17-4.58h6.23v1.92h-6.23Z"/><path class="c" d="M1161,775V763.34h4.59a5,5,0,0,1,2.25.47,3.27,3.27,0,0,1,1.43,1.32,3.94,3.94,0,0,1,.49,2,3.82,3.82,0,0,1-.5,2,3.27,3.27,0,0,1-1.44,1.28,5.5,5.5,0,0,1-2.29.44h-3.08v-2h2.68a3,3,0,0,0,1.17-.19,1.44,1.44,0,0,0,.7-.58,1.89,1.89,0,0,0,.23-1,2,2,0,0,0-.23-1,1.54,1.54,0,0,0-.7-.6,2.9,2.9,0,0,0-1.18-.21h-1.66V775Zm6.28-5.3,2.9,5.3h-2.72l-2.83-5.3Z"/><path class="c" d="M1173.91,775h-2.63l4-11.64h3.18l4,11.64h-2.64l-2.91-9h-.1Zm-.16-4.58H1180v1.92h-6.23Z"/><path class="c" d="M1191.45,767.1a2.72,2.72,0,0,0-.34-.73,2,2,0,0,0-.53-.55,2.28,2.28,0,0,0-.7-.34,3,3,0,0,0-.87-.12,2.75,2.75,0,0,0-1.57.44,2.89,2.89,0,0,0-1,1.29,5.92,5.92,0,0,0,0,4.12,2.79,2.79,0,0,0,1,1.3,2.83,2.83,0,0,0,1.6.45,3.15,3.15,0,0,0,1.43-.3,2.12,2.12,0,0,0,.91-.84,2.57,2.57,0,0,0,.31-1.29l.5.07h-3v-1.85h4.87v1.46a5.11,5.11,0,0,1-.64,2.64,4.41,4.41,0,0,1-1.79,1.69,5.48,5.48,0,0,1-2.6.6,5.65,5.65,0,0,1-2.88-.73,5,5,0,0,1-1.93-2.06,6.84,6.84,0,0,1-.69-3.18,7.14,7.14,0,0,1,.42-2.53,5.41,5.41,0,0,1,1.15-1.88,5.16,5.16,0,0,1,1.74-1.18,6,6,0,0,1,4-.11,4.87,4.87,0,0,1,1.51.81,4.61,4.61,0,0,1,1.09,1.24,4.3,4.3,0,0,1,.54,1.58Z"/><path class="c" d="M1203.49,763.34H1206v7.56a4,4,0,0,1-2.3,3.71,6.3,6.3,0,0,1-5.06,0,4,4,0,0,1-2.29-3.71v-7.56h2.46v7.35a2.43,2.43,0,0,0,.29,1.18,2.15,2.15,0,0,0,.83.81,2.73,2.73,0,0,0,2.49,0,2.15,2.15,0,0,0,.83-.81,2.43,2.43,0,0,0,.29-1.18Z"/><path class="c" d="M1210.38,775h-2.64l4-11.64h3.17l4,11.64h-2.64l-2.91-9h-.09Zm-.17-4.58h6.23v1.92h-6.23Z"/><path class="c" d="M1218.87,763.34h2.76l2.65,5h.12l2.65-5h2.75l-4.24,7.52V775h-2.44v-4.12Z"/><path class="c" d="M1139.23,794.18V782.54h4.66a5.39,5.39,0,0,1,2.14.38,2.69,2.69,0,0,1,1.72,2.6,2.35,2.35,0,0,1-1,2,3.07,3.07,0,0,1-1.08.46v.12a2.6,2.6,0,0,1,1.24.37,2.68,2.68,0,0,1,.95,1,2.92,2.92,0,0,1,.36,1.48,3,3,0,0,1-.45,1.65,3.2,3.2,0,0,1-1.35,1.15,5.17,5.17,0,0,1-2.2.42Zm2.46-6.77h1.82a2.13,2.13,0,0,0,.9-.18,1.58,1.58,0,0,0,.63-.51,1.36,1.36,0,0,0,.23-.79,1.25,1.25,0,0,0-.45-1,1.86,1.86,0,0,0-1.26-.39h-1.87Zm0,4.76h2a2.32,2.32,0,0,0,1.5-.4,1.27,1.27,0,0,0,.47-1,1.5,1.5,0,0,0-.89-1.43,2.19,2.19,0,0,0-1-.22h-2.06Z"/><path class="c" d="M1150.2,794.18V782.54h4.59a5,5,0,0,1,2.25.47,3.27,3.27,0,0,1,1.43,1.32,3.94,3.94,0,0,1,.49,2,3.82,3.82,0,0,1-.5,2,3.22,3.22,0,0,1-1.44,1.28,5.5,5.5,0,0,1-2.29.44h-3.08v-2h2.68a3,3,0,0,0,1.17-.19,1.44,1.44,0,0,0,.7-.58,1.89,1.89,0,0,0,.23-1,2,2,0,0,0-.23-1,1.54,1.54,0,0,0-.7-.6,2.9,2.9,0,0,0-1.18-.21h-1.66v9.63Zm6.28-5.3,2.9,5.3h-2.72l-2.83-5.3Z"/><path class="c" d="M1163.11,794.18h-2.64l4-11.64h3.17l4,11.64H1169l-2.91-9H1166Zm-.17-4.58h6.23v1.92h-6.23Z"/><path class="c" d="M1179.51,785.89a1.47,1.47,0,0,0-.59-1.07,2.33,2.33,0,0,0-1.4-.38,2.59,2.59,0,0,0-1,.17,1.33,1.33,0,0,0-.63.46,1.08,1.08,0,0,0-.22.67.92.92,0,0,0,.13.55,1.52,1.52,0,0,0,.4.4,2.93,2.93,0,0,0,.59.28,4,4,0,0,0,.72.21l1,.25a7.66,7.66,0,0,1,1.4.46,4.06,4.06,0,0,1,1.1.7,2.89,2.89,0,0,1,.73,1,3.39,3.39,0,0,1-.28,3.14,3.41,3.41,0,0,1-1.55,1.21,6.09,6.09,0,0,1-2.42.43,6.4,6.4,0,0,1-2.46-.43,3.64,3.64,0,0,1-1.62-1.28,3.81,3.81,0,0,1-.61-2.11h2.38a1.8,1.8,0,0,0,.34,1,1.77,1.77,0,0,0,.8.58,3.09,3.09,0,0,0,1.14.2,3,3,0,0,0,1.09-.18,1.65,1.65,0,0,0,.71-.51,1.15,1.15,0,0,0,.26-.74,1,1,0,0,0-.23-.66,1.84,1.84,0,0,0-.67-.46,8.23,8.23,0,0,0-1.08-.34l-1.27-.32A5.29,5.29,0,0,1,1174,788a2.63,2.63,0,0,1-.85-2.06,3,3,0,0,1,.57-1.84,3.77,3.77,0,0,1,1.57-1.24,5.67,5.67,0,0,1,2.27-.44,5.5,5.5,0,0,1,2.27.44,3.64,3.64,0,0,1,1.51,1.24,3.22,3.22,0,0,1,.55,1.83Z"/><path class="c" d="M1186.53,782.54v11.64h-2.46V782.54Z"/><path class="c" d="M1189,794.18V782.54h2.46v9.61h5v2Z"/></svg>