<svg width="22" height="25" viewBox="0 0 22 25" fill="none" xmlns="http://www.w3.org/2000/svg">
<g id="icono">
<path id="Vector" d="M2.19788 14.1799C3.67444 13.5186 5.151 13.8892 6.4528 14.7612C6.4635 14.7685 6.47777 14.7794 6.48847 14.7867C6.52413 14.8448 6.57763 14.8812 6.66323 14.9175C6.66323 14.6704 6.66323 14.4342 6.66323 14.198C6.66323 14.1871 6.66323 14.1726 6.66323 14.1617C6.66323 12.1923 6.6668 10.2192 6.6775 8.24982C6.68106 7.82468 6.68106 7.39228 6.78093 6.97805C7.08052 5.70992 8.45009 4.76155 9.70195 4.79788C10.9503 4.83422 12.1201 5.77896 12.4411 7.01075C12.573 7.51946 12.573 8.04997 12.5695 8.57684C12.5695 9.93944 12.4411 11.3529 12.5659 12.7119C12.5659 12.7264 12.5659 12.741 12.5659 12.7519C12.5623 12.8609 12.5552 12.9662 12.5552 13.0752C12.5516 13.3223 12.5552 13.3223 12.7942 13.3514C12.8084 13.355 12.8191 13.355 12.8334 13.3587C14.2672 13.6494 15.7544 13.7693 17.206 13.9619C17.6875 14.0273 18.1726 14.0927 18.6398 14.2344C20.0236 14.6522 21.1863 15.7678 21.6821 17.1485C22.0138 18.0678 22.0494 19.0634 21.946 20.03C21.8925 20.5242 21.8033 21.0111 21.6999 21.4943C21.6393 21.7668 21.543 22.6207 21.3076 22.8024C21.2791 22.8242 21.2719 22.8569 21.2684 22.8933C21.1542 23.1004 21.0865 23.3293 20.9545 23.5291C20.9438 23.54 20.9331 23.5546 20.926 23.5655C20.8154 23.66 20.7084 23.7544 20.5978 23.8525C20.5729 23.8634 20.5479 23.8743 20.5229 23.8889C20.3197 23.9688 20.1092 24.0124 19.8881 24.0051C19.8774 24.0051 19.8631 24.0015 19.8524 24.0015C19.6028 23.9397 19.3709 23.838 19.1783 23.66C19.1676 23.6491 19.1569 23.6382 19.1462 23.6273C18.6897 23.1222 18.8752 22.4572 19.0785 21.8722C19.3888 20.982 19.6884 20.0627 19.667 19.1179C19.6456 18.1732 19.2318 17.1812 18.4151 16.727C17.98 16.4836 17.4771 16.4145 16.9849 16.3491C15.5511 16.1566 14.1174 15.9676 12.6872 15.775C11.9061 15.6696 11.3354 15.4589 10.7684 14.8921C10.7612 14.8521 10.7327 14.8303 10.7006 14.8085C10.5793 14.6086 10.4509 14.4161 10.3653 14.198C10.3582 14.1835 10.3511 14.1726 10.3439 14.1581C10.2976 13.9291 10.2512 13.7002 10.2013 13.4677C10.2013 13.4568 10.2013 13.4422 10.2013 13.4313C10.1228 11.7635 10.1977 10.0921 10.1977 8.42423C10.1977 8.41333 10.1977 8.39879 10.1977 8.38789C10.1977 8.15898 10.1941 7.93006 10.1941 7.70114C10.1834 7.54489 10.1157 7.42135 9.98728 7.33778C9.75902 7.15973 9.54502 7.14883 9.3132 7.30144C9.1634 7.38865 9.06354 7.51219 9.05997 7.69751C9.01004 7.92642 9.035 8.15534 9.04214 8.38426C9.04214 8.39879 9.04214 8.40969 9.04214 8.42423C9.0457 10.1393 9.04214 11.8507 9.03857 13.5658C9.03857 14.4233 9.035 15.2809 9.035 16.1384C9.035 16.5672 9.035 16.9959 9.035 17.4247C9.035 17.7299 9.10277 18.195 8.94941 18.4748C8.94227 18.4893 8.93514 18.5002 8.92801 18.5148C8.84954 18.6819 8.72115 18.8091 8.59988 18.9399C8.38232 19.0816 8.14693 19.1725 7.89013 19.2015C7.86517 19.2015 7.84377 19.2015 7.8188 19.2015C7.38725 19.1397 7.10549 18.9363 6.82729 18.5983C6.18888 17.8244 5.43276 16.658 4.44125 16.3273C4.20943 16.1856 3.95263 16.2147 3.69941 16.2256C3.61024 16.2292 3.62451 16.2801 3.66017 16.3346C3.89557 16.6907 4.05606 17.1522 4.24509 17.5373C4.46622 17.9915 4.69091 18.4457 4.91204 18.8999C5.42563 19.95 5.92495 21.0147 6.4635 22.0539C6.70603 22.5226 6.75953 22.9768 6.4956 23.4456C6.45637 23.471 6.42784 23.5037 6.4207 23.5509C6.24237 23.7399 6.02838 23.8743 5.78585 23.9579C5.77159 23.9615 5.76089 23.9615 5.74662 23.9652C5.51836 24.0161 5.29367 23.9688 5.07254 23.9143C5.0654 23.907 5.05471 23.9034 5.04401 23.8998C4.87638 23.8017 4.71588 23.6963 4.58392 23.5509C3.38911 21.458 2.41544 19.2306 1.36687 17.0577C1.35973 17.0432 1.3526 17.0323 1.34903 17.0177C1.24204 16.7997 1.14217 16.5708 1.04231 16.3419C1.03874 16.331 1.03874 16.3164 1.03517 16.3055C0.995941 16.0911 0.995941 15.8731 0.999508 15.6551C0.999508 15.6442 0.999508 15.6297 1.00307 15.6188C1.13147 14.9575 1.47386 14.536 2.06948 14.2453C2.11228 14.2162 2.15508 14.198 2.19788 14.1799Z" fill="#948678"/>
<path id="Vector_2" d="M4.5771 1.94212C5.81113 0.855666 7.38043 0.158013 9.00678 0.027203C11.3393 -0.161745 13.7396 0.808429 15.3054 2.58163C16.1292 3.51184 16.7177 4.65279 17.0209 5.86642C17.1742 6.4805 17.2527 7.11274 17.2563 7.74499C17.2598 8.39541 17.1172 9.01312 17.0672 9.6599C17.0244 9.72894 17.0102 9.80888 17.003 9.88882C16.9246 10.1541 16.7926 10.383 16.5929 10.5719C16.5822 10.5828 16.5679 10.5937 16.5572 10.6046C16.4895 10.6446 16.4253 10.6809 16.3575 10.7209C16.3432 10.7282 16.3325 10.7355 16.3183 10.7391C16.1007 10.8227 15.8724 10.8372 15.6442 10.8263C15.6335 10.8227 15.6228 10.819 15.6121 10.819C15.448 10.7645 15.2875 10.7028 15.1449 10.6083C15.0771 10.5429 15.0058 10.4811 14.938 10.4157C14.8274 10.2486 14.7347 10.0741 14.6812 9.88155C14.6812 9.86702 14.6776 9.85612 14.6776 9.84159C14.6527 9.60903 14.6848 9.38012 14.7418 9.15483C14.7454 9.1403 14.749 9.1294 14.7525 9.11486C15.2091 7.48337 14.724 5.58663 13.6576 4.31123C12.6162 3.06127 10.9934 2.34181 9.38841 2.41085C7.78345 2.48352 6.22842 3.34469 5.30111 4.68186C4.29177 6.1353 4.01714 8.18829 4.71976 9.83795C4.72689 9.85249 4.73403 9.86339 4.74116 9.87792C4.83389 10.1105 4.93019 10.3467 5.02292 10.5792C5.04788 10.8372 5.00152 11.0843 4.91949 11.3277C4.78039 11.5712 4.5878 11.7601 4.34884 11.8982C4.13127 11.9818 3.90658 12 3.67832 11.9927C3.64265 11.989 3.60699 11.9818 3.57132 11.9781L3.55706 11.9745C2.9329 11.8219 2.64045 11.1279 2.45855 10.5647C1.69174 8.22463 1.8451 5.67747 3.18613 3.56634C3.57132 2.95953 4.04211 2.41449 4.5771 1.94212Z" fill="#948678"/>
</g>
</svg>
