<svg width="27" height="26" viewBox="0 0 27 26" fill="none" xmlns="http://www.w3.org/2000/svg">
<g id="Group 220">
<path id="Vector 19" d="M10.559 22.3556C14.2988 21.2197 24.1962 18.2973 24.4659 13.9936C24.7357 9.68998 16.7038 3.44145 14.4695 1.21095C12.2352 -1.01954 10.0351 1.29605 11.4196 3.38038C12.8041 5.46471 17.1086 10.8106 17.1086 10.8106C18.3097 12.5248 17.9468 13.2523 16.4568 14.3347C16.4568 14.3347 10.5163 17.7866 8.4867 19.2389C6.45707 20.6911 6.81915 23.4915 10.559 22.3556Z" fill="#C18831"/>
<path id="Vector 20" d="M2.57378 17.8887C5.30462 17.0592 12.5318 14.9253 12.7288 11.7827C12.9258 8.64017 7.06082 4.07743 5.42929 2.4487C3.79777 0.819976 2.19127 2.51084 3.20223 4.03284C4.21319 5.55483 7.35637 9.45847 7.35637 9.45847C8.2334 10.7102 7.96848 11.2414 6.88045 12.0318C6.88045 12.0318 2.54265 14.5524 1.06059 15.6128C-0.421465 16.6732 -0.15707 18.7182 2.57378 17.8887Z" fill="#C18831"/>
</g>
</svg>
