<svg width="40" height="40" viewBox="0 0 40 40" fill="none" xmlns="http://www.w3.org/2000/svg">
<g id="se&#195;&#177;ala">
<path id="Vector" d="M29.9974 17.5013C29.9976 18.5591 29.5953 19.5775 28.8723 20.3497C28.1493 21.1219 27.1596 21.5902 26.1041 21.6596L25.8307 21.6679L18.1557 21.6679L17.1457 29.0929C16.9662 30.6615 16.2357 32.1155 15.0845 33.196C13.9332 34.2764 12.4359 34.9132 10.8591 34.9929L10.5224 35.0013L9.99739 35.0013C8.0201 35.0041 6.06709 34.5657 4.28073 33.7179C3.88135 33.5279 3.57385 33.1869 3.42585 32.7701C3.27785 32.3533 3.30149 31.8948 3.49156 31.4954C3.68163 31.0961 4.02257 30.7886 4.43937 30.6406C4.85617 30.4926 5.31469 30.5162 5.71406 30.7063C6.89744 31.2688 8.18039 31.5916 9.48906 31.6563L9.99739 31.6679L10.5224 31.6679C11.2969 31.668 12.0473 31.3984 12.6446 30.9054C13.2419 30.4124 13.649 29.7268 13.7957 28.9663L13.8407 28.6613L14.8457 21.2763C14.9361 20.5109 15.289 19.8006 15.8441 19.2661C16.3993 18.7316 17.1225 18.4059 17.8907 18.3446L18.1557 18.3346L25.8307 18.3346C26.039 18.335 26.2398 18.2574 26.3937 18.1171C26.5476 17.9768 26.6434 17.784 26.6622 17.5766C26.681 17.3692 26.6215 17.1623 26.4954 16.9966C26.3692 16.8308 26.1856 16.7184 25.9807 16.6813L25.8307 16.6679L11.6641 16.6679C11.319 16.6677 10.9825 16.5603 10.7011 16.3607C10.4197 16.1611 10.2071 15.879 10.0928 15.5534C9.9785 15.2279 9.96805 14.8748 10.0629 14.5431C10.1578 14.2113 10.3533 13.9172 10.6224 13.7013L11.3007 13.1479L11.8907 12.6429C12.9857 11.6779 13.5907 10.9746 13.8957 10.3763C14.0871 10.0227 14.1667 9.61938 14.1241 9.2196L14.0907 8.9846L5.7424 13.1579C5.36237 13.3467 4.92466 13.3833 4.51853 13.2605C4.11239 13.1376 3.76841 12.8645 3.5567 12.4968C3.34499 12.1291 3.28151 11.6944 3.37919 11.2815C3.47688 10.8686 3.72837 10.5085 4.08239 10.2746L4.25239 10.1779L13.5074 5.5496C14.7074 4.9496 16.3124 5.39461 16.8874 6.79461C17.5991 8.53294 17.7307 10.1846 16.8674 11.8863C16.6791 12.2563 16.4474 12.6196 16.1774 12.9763L15.8941 13.3346L25.8307 13.3346C26.9358 13.3346 27.9956 13.7736 28.777 14.555C29.5584 15.3364 29.9974 16.3962 29.9974 17.5013ZM36.6641 17.5013C36.6644 19.1762 36.2763 20.8285 35.5303 22.3281C34.7843 23.8278 33.7008 25.1341 32.3648 26.1443C31.0288 27.1545 29.4767 27.8412 27.8305 28.1504C26.1844 28.4596 24.4889 28.3829 22.8774 27.9263C22.6622 27.8709 22.4602 27.7731 22.2833 27.6386C22.1064 27.504 21.9583 27.3355 21.8475 27.1428C21.7367 26.9502 21.6656 26.7373 21.6383 26.5168C21.611 26.2962 21.6281 26.0725 21.6886 25.8586C21.749 25.6448 21.8517 25.4452 21.9904 25.2716C22.1291 25.098 22.3012 24.9539 22.4964 24.8478C22.6917 24.7416 22.9062 24.6756 23.1273 24.6536C23.3484 24.6316 23.5717 24.654 23.7841 24.7196C24.9591 25.052 26.1975 25.0926 27.3917 24.8376C28.5859 24.5827 29.6998 24.04 30.6366 23.2567C31.5734 22.4735 32.3048 21.4733 32.7673 20.3431C33.2297 19.213 33.4092 17.987 33.2901 16.7717C33.1711 15.5564 32.7571 14.3885 32.0841 13.3696C31.4112 12.3506 30.4996 11.5114 29.4286 10.9248C28.3575 10.3383 27.1595 10.0221 25.9385 10.0037C24.7175 9.9854 23.5105 10.2655 22.4224 10.8196C22.0285 11.0207 21.5709 11.0572 21.1502 10.9209C20.7295 10.7846 20.3802 10.4868 20.1791 10.0929C19.9779 9.69909 19.9415 9.24148 20.0778 8.82077C20.2141 8.40007 20.5119 8.05073 20.9057 7.84961C22.5575 7.00655 24.3979 6.60161 26.251 6.67354C28.104 6.74548 29.9076 7.2919 31.489 8.26047C33.0704 9.22904 34.3767 10.5873 35.2828 12.2053C36.1889 13.8233 36.6645 15.6468 36.6641 17.5013Z" fill="#1E7B85"/>
</g>
</svg>
