<svg width="58" height="58" viewBox="0 0 58 58" fill="none" xmlns="http://www.w3.org/2000/svg">
<path d="M25.3026 14.7069C26.8007 14.7066 28.2428 15.2762 29.3364 16.3002C30.4301 17.3241 31.0933 18.7256 31.1915 20.2205L31.2033 20.6076V31.4768L41.7185 32.9072C43.9399 33.1615 45.999 34.1959 47.5291 35.8263C49.0592 37.4567 49.9611 39.5772 50.074 41.8103L50.0858 42.2871V43.0306C50.0898 45.8308 49.4689 48.5966 48.2684 51.1264C47.9992 51.692 47.5164 52.1275 46.9261 52.3371C46.3358 52.5467 45.6865 52.5132 45.1209 52.244C44.5553 51.9748 44.1198 51.492 43.9102 50.9017C43.7006 50.3115 43.7341 49.6621 44.0033 49.0965C44.7999 47.4207 45.2571 45.6038 45.3487 43.7505L45.3652 43.0306V42.2871C45.3653 41.1902 44.9835 40.1275 44.2853 39.2816C43.5871 38.4357 42.6161 37.8593 41.5391 37.6514L41.1072 37.5877L30.6487 36.1644C29.5648 36.0364 28.5588 35.5367 27.8019 34.7505C27.0449 33.9643 26.5837 32.9401 26.4969 31.8521L26.4827 31.4768V20.6076C26.4833 20.3127 26.3734 20.0283 26.1747 19.8104C25.976 19.5924 25.7029 19.4568 25.4092 19.4301C25.1155 19.4035 24.8225 19.4878 24.5878 19.6664C24.3531 19.845 24.1938 20.105 24.1413 20.3952L24.1224 20.6076V40.6702C24.122 41.1589 23.97 41.6354 23.6873 42.034C23.4046 42.4325 23.0051 42.7335 22.5441 42.8954C22.083 43.0573 21.5831 43.0721 21.1132 42.9378C20.6434 42.8034 20.2269 42.5266 19.9211 42.1454L19.1374 41.1848L18.4223 40.3492C17.0556 38.7985 16.0596 37.9417 15.2122 37.5098C14.7115 37.2387 14.1403 37.126 13.5742 37.1864L13.2414 37.2336L19.1516 49.0564C19.4189 49.5946 19.4708 50.2145 19.2968 50.7896C19.1228 51.3648 18.736 51.852 18.2153 52.1518C17.6945 52.4516 17.079 52.5415 16.4942 52.4032C15.9095 52.2648 15.3995 51.9087 15.0683 51.4073L14.9314 51.1665L8.37679 38.0597C7.52708 36.3603 8.15728 34.0873 10.1399 33.273C12.6017 32.2652 14.9408 32.0787 17.3507 33.3014C17.8747 33.5681 18.3892 33.8962 18.8943 34.2785L19.4018 34.6798V20.6076C19.4018 19.0426 20.0235 17.5418 21.1301 16.4352C22.2367 15.3285 23.7376 14.7069 25.3026 14.7069ZM25.3026 5.26563C27.6746 5.26519 30.0145 5.81478 32.1383 6.87122C34.2621 7.92767 36.112 9.46218 37.5427 11.3542C38.9734 13.2462 39.9459 15.4442 40.3837 17.7755C40.8216 20.1068 40.713 22.5079 40.0663 24.7901C39.9879 25.0949 39.8494 25.3809 39.6589 25.6314C39.4683 25.8819 39.2296 26.0917 38.9568 26.2486C38.684 26.4055 38.3825 26.5062 38.0702 26.5449C37.7579 26.5835 37.441 26.5593 37.1381 26.4737C36.8353 26.3881 36.5526 26.2427 36.3068 26.0463C36.0609 25.8498 35.8569 25.6061 35.7066 25.3296C35.5563 25.0531 35.4628 24.7494 35.4316 24.4362C35.4004 24.123 35.4322 23.8068 35.5251 23.5061C35.9959 21.8421 36.0532 20.0883 35.6922 18.397C35.3312 16.7058 34.5626 15.1283 33.4534 13.8016C32.3441 12.4749 30.9277 11.4391 29.3272 10.7842C27.7267 10.1293 25.9904 9.87511 24.2693 10.0437C22.5482 10.2123 20.8943 10.7986 19.4513 11.7517C18.0083 12.7047 16.8198 13.9957 15.9891 15.5124C15.1584 17.0292 14.7106 18.7258 14.6847 20.455C14.6587 22.1841 15.0553 23.8934 15.8401 25.4345C16.1249 25.9922 16.1765 26.6403 15.9835 27.2361C15.7905 27.8319 15.3688 28.3266 14.811 28.6114C14.2532 28.8963 13.6052 28.9479 13.0094 28.7549C12.4136 28.5619 11.9188 28.1401 11.634 27.5823C10.4401 25.2432 9.86662 22.6367 9.9685 20.0125C10.0704 17.3882 10.8442 14.8341 12.2159 12.5945C13.5876 10.355 15.5112 8.50501 17.8025 7.22178C20.0939 5.93856 22.6763 5.26501 25.3026 5.26563Z" fill="#CFF9FF"/>
</svg>
