<svg width="49" height="60" viewBox="0 0 49 60" fill="none" xmlns="http://www.w3.org/2000/svg">
<path d="M48.2557 23.2934H48.2665V22.7934C48.2665 22.1121 47.9796 21.4733 47.4802 21.0143L47.4803 21.0143L47.476 21.0105L25.8622 1.60295L25.8622 1.60294L25.8592 1.60026C25.0256 0.863833 23.7703 0.86007 22.9433 1.60303L22.9433 1.60304L1.33085 21.0201C1.33057 21.0204 1.33029 21.0206 1.33001 21.0209C0.822678 21.4738 0.539062 22.1276 0.539062 22.8041V58.1943V58.6943H1.03906H18.9805H19.4805V58.1943V45.3565C19.4805 44.2662 20.3645 43.3901 21.4467 43.3901H27.3482C28.4382 43.3901 29.3143 44.2741 29.3143 45.3565V58.1835V58.6835H29.8143H47.7557H48.2557V58.1835V23.2934Z" fill="white" stroke="#043335"/>
</svg>
