<svg width="411" height="70" viewBox="0 0 411 70" fill="none" xmlns="http://www.w3.org/2000/svg">
<path d="M50.753 48.9763C50.7224 49.068 50.753 49.1291 50.8141 49.1902L50.8752 49.2513C50.9669 49.343 51.1196 49.3735 51.2113 49.2818L51.7613 48.7624C51.8529 48.6708 51.8529 48.518 51.7613 48.3958L50.5696 47.3264C50.5085 47.2653 50.4169 47.2347 50.3252 47.2653L48.1864 47.968C48.0947 47.9986 48.0031 47.968 47.942 47.9069L46.567 46.5931C46.5059 46.532 46.4754 46.4708 46.5059 46.3792L47.0253 43.3849C47.0559 43.2626 46.9642 43.1099 46.8115 43.1099L44.581 42.8654C44.0616 42.8043 43.5421 42.7738 43.0533 42.6821C42.8394 42.6516 42.3505 42.4988 42.5644 42.1932C42.6255 42.1321 42.6866 42.071 42.7477 42.0405C42.87 41.9794 43.0227 41.8877 43.0533 41.7349L43.1449 40.8488C43.1449 40.7572 43.0838 40.635 42.9922 40.6044C42.87 40.5433 42.7783 40.635 42.6561 40.6961C42.2894 40.91 41.9228 40.9711 41.495 41.0016L41.7394 39.9933L43.2672 39.8711C43.3588 39.8711 43.4505 39.81 43.481 39.7183L44.7643 36.2351C44.8254 36.0518 44.6727 35.8685 44.4893 35.9296L41.6172 36.6935C41.5561 36.724 41.495 36.7546 41.4645 36.8157L40.1201 39.4128C40.0895 39.4739 40.0284 39.5045 39.9673 39.535L37.5229 40.2072C37.4313 40.2378 37.3396 40.2072 37.2785 40.1461L33.887 36.2351C33.8564 36.2046 33.8259 36.1435 33.8259 36.0824V31.8659C33.8259 31.7742 33.7648 31.6825 33.6731 31.652L32.2982 31.102C32.2676 31.0715 32.237 31.0409 32.1759 31.0103L30.0371 27.6799C29.976 27.5883 29.8538 27.5272 29.7316 27.5883L28.7233 28.0466C28.6316 28.0771 28.54 28.0771 28.4483 28.016L25.4234 25.1439C25.3623 25.1134 25.3012 25.0828 25.2401 25.0828C25.0568 25.0828 24.904 25.0828 24.7207 25.1134C24.3235 25.1134 23.9263 25.1439 23.5291 25.1439C23.0707 25.1439 22.643 25.1745 22.1847 25.1745C21.8486 25.1745 21.543 25.1745 21.2069 25.205C20.9625 25.205 20.7792 25.0523 20.5958 24.93C20.3209 24.7467 20.0153 24.5634 19.7403 24.3801C19.4042 24.1662 19.0376 23.9523 18.7015 23.7079C18.3959 23.5245 18.0904 23.3107 17.7848 23.1273C17.6015 23.0051 17.4487 22.9134 17.2654 22.7912C17.2654 22.7912 17.2349 22.7912 17.2349 22.7607C17.1432 22.6996 17.0515 22.6996 16.9599 22.7607L15.921 23.4634C15.8294 23.5245 15.7988 23.6773 15.8599 23.769L21.3903 34.2186C21.4514 34.3408 21.6041 34.3713 21.7264 34.3102L22.368 33.9741C22.4902 33.913 22.5208 33.7602 22.4597 33.638L18.3348 25.9994C18.3043 25.9383 18.3348 25.9078 18.3654 25.8772L18.6098 25.755C18.6404 25.755 18.7015 25.7244 18.732 25.7856L25.9734 36.2963C26.0345 36.4185 26.0345 36.5407 25.9123 36.6323L24.8123 37.4268C24.6596 37.5184 24.6901 37.7629 24.8429 37.824L34.8647 42.9265C34.9258 42.9571 34.9869 42.9571 35.048 42.9265L36.9424 42.1932C37.0035 42.1627 37.0952 42.1627 37.1563 42.2238L40.059 43.9654C40.0895 43.9654 40.1201 43.9959 40.1201 43.9959C40.67 44.1182 41.2506 44.2404 41.8006 44.3626C42.1367 44.4237 42.4422 44.5154 42.7783 44.5765C43.0227 44.6376 43.2672 44.6376 43.4505 44.8515C43.5727 44.9737 43.6949 45.1265 43.8171 45.2487L44.6421 46.1347L44.7338 46.257C44.7643 46.3181 44.7949 46.3792 44.7949 46.4403L44.7643 47.0819C44.7643 47.2042 44.8254 47.2958 44.9477 47.3264L45.681 47.5097C45.7115 47.5402 45.7726 47.5708 45.8032 47.5708L46.5365 48.3652C46.567 48.3958 46.567 48.3958 46.5976 48.4263L47.0253 48.6402C47.0559 48.6402 47.0559 48.6708 47.0865 48.6708L49.1336 49.1596C49.2253 49.1902 49.2864 49.1596 49.3475 49.0985L50.0808 48.3652C50.1724 48.2736 50.3252 48.2736 50.4169 48.3652L50.6613 48.6097C50.7224 48.6708 50.753 48.7624 50.7224 48.8541L50.753 48.9763Z" fill="white"/>
<path d="M53.5978 43.201L53.6283 43.1399C53.6895 43.0176 53.6589 42.8649 53.5367 42.8038L51.459 41.7344C51.3368 41.6732 51.1534 41.7344 51.1229 41.8871L50.8173 43.1704C50.7868 43.2315 50.8173 43.3232 50.8479 43.3843L50.9701 43.5371C51.0618 43.6593 51.2451 43.6593 51.3368 43.5371L51.5201 43.2926C51.5812 43.2315 51.6423 43.201 51.734 43.201L53.3839 43.3232C53.4756 43.3232 53.5672 43.2621 53.5978 43.201Z" fill="white"/>
<path d="M80.7856 48.3691C80.419 48.7357 79.9607 48.8885 79.4412 48.8885C78.1274 48.8885 77.5774 47.9719 77.5469 47.0552C77.5469 46.1386 78.158 45.1914 79.4412 45.1914C79.9301 45.1914 80.3884 45.3747 80.7551 45.7414L80.2968 46.1691C80.0523 45.9553 79.7468 45.833 79.4412 45.833C78.5857 45.833 78.2191 46.4747 78.2191 47.0552C78.2191 47.6358 78.5552 48.2468 79.4412 48.2468C79.7468 48.2468 80.1134 48.1246 80.3273 47.8802L80.7856 48.3691Z" fill="white"/>
<path d="M85.6431 47.0552C85.6431 47.9719 85.0626 48.8885 83.8098 48.8885C82.5571 48.8885 81.9766 48.0024 81.9766 47.0552C81.9766 46.108 82.5876 45.1914 83.8098 45.1914C85.0626 45.1914 85.6736 46.1386 85.6431 47.0552ZM82.6793 47.0858C82.7099 47.6663 83.0154 48.308 83.8404 48.308C84.6653 48.308 85.0014 47.6663 85.0014 47.0858C85.0014 46.4747 84.6653 45.8025 83.8404 45.8025C82.9849 45.8025 82.6488 46.4747 82.6793 47.0858Z" fill="white"/>
<path d="M89.6761 48.1566H87.8123L87.5067 48.8288H86.7734L88.3623 45.2539H89.0956L90.6844 48.8288H89.9511L89.6761 48.1566ZM88.7595 46.0178L88.0873 47.5455H89.4011L88.7595 46.0178Z" fill="white"/>
<path d="M92.7269 45.2539V48.1871H94.5601V48.8288H92.0547V45.2539H92.7269Z" fill="white"/>
<path d="M96.7347 45.2539H96.0625V48.8288H96.7347V45.2539Z" fill="white"/>
<path d="M101.497 48.3691C101.13 48.7357 100.672 48.8885 100.152 48.8885C98.8383 48.8885 98.2884 47.9719 98.2578 47.0552C98.2578 46.1386 98.8689 45.1914 100.152 45.1914C100.641 45.1914 101.099 45.3747 101.466 45.7414L101.008 46.1691C100.763 45.9553 100.458 45.833 100.152 45.833C99.2967 45.833 98.93 46.4747 98.93 47.0552C98.93 47.6358 99.2661 48.2468 100.152 48.2468C100.458 48.2468 100.824 48.1246 101.038 47.8802L101.497 48.3691Z" fill="white"/>
<path d="M103.578 45.2539H102.906V48.8288H103.578V45.2539Z" fill="white"/>
<path d="M106.966 45.1873C108.188 45.1873 108.799 46.1345 108.799 47.0511C108.799 47.9677 108.219 48.8844 106.966 48.8844C105.713 48.8844 105.133 47.9983 105.133 47.0511C105.133 46.1345 105.744 45.1873 106.966 45.1873ZM106.966 45.7984C106.141 45.7984 105.774 46.4706 105.805 47.0817C105.836 47.6622 106.141 48.3038 106.966 48.3038C107.791 48.3038 108.127 47.6622 108.127 47.0817C108.127 46.4706 107.791 45.7984 106.966 45.7984ZM107.791 44.1484H107.058L106.691 44.8512V44.8817H107.241L107.791 44.1484Z" fill="white"/>
<path d="M112.628 45.2539H113.3V48.8288H112.903L111.009 46.415V48.8288H110.367V45.2539H110.887L112.628 47.4538V45.2539Z" fill="white"/>
<path d="M120.108 48.8288H119.314L118.275 47.6371H117.633V48.8288H116.961V45.2539C117.511 45.2539 118.091 45.2539 118.641 45.2539C119.466 45.2539 119.925 45.8039 119.925 46.4455C119.925 46.9344 119.711 47.4233 119.039 47.576L120.108 48.7982V48.8288ZM117.633 45.8955V47.0261H118.641C119.069 47.0261 119.253 46.7511 119.253 46.4455C119.253 46.1705 119.069 45.865 118.641 45.865H117.633V45.8955Z" fill="white"/>
<path d="M124.049 48.8288H121.391V45.2539H124.049V45.8955H122.063V46.7205H123.988V47.3622H122.063V48.1566H124.049V48.8288Z" fill="white"/>
<path d="M128.21 46.1379C127.966 45.924 127.63 45.7712 127.294 45.7712C126.53 45.7712 126.071 46.3518 126.071 47.0851C126.071 47.6656 126.407 48.2767 127.294 48.2767C127.568 48.2767 127.813 48.2156 128.088 48.0017V47.3601H127.171V46.749H128.699V48.2461C128.363 48.6433 127.905 48.8878 127.294 48.8878C125.949 48.8878 125.43 48.0017 125.43 47.0851C125.43 46.0768 126.041 45.1602 127.294 45.1602C127.782 45.1602 128.241 45.3435 128.607 45.7101L128.21 46.1379Z" fill="white"/>
<path d="M130.961 45.2539H130.289V48.8288H130.961V45.2539Z" fill="white"/>
<path d="M136.182 47.0552C136.182 47.9719 135.602 48.8885 134.349 48.8885C133.096 48.8885 132.516 48.0024 132.516 47.0552C132.516 46.108 133.127 45.1914 134.349 45.1914C135.602 45.1914 136.213 46.1386 136.182 47.0552ZM133.218 47.0858C133.249 47.6663 133.554 48.308 134.379 48.308C135.204 48.308 135.541 47.6663 135.541 47.0858C135.541 46.4747 135.204 45.8025 134.379 45.8025C133.554 45.8025 133.188 46.4747 133.218 47.0858Z" fill="white"/>
<path d="M140.034 45.2539H140.706V48.8288H140.278L138.414 46.415V48.8288H137.742V45.2539H138.292L140.034 47.4538V45.2539Z" fill="white"/>
<path d="M144.864 48.1566H143L142.694 48.8288H141.961L143.55 45.2539H144.283L145.872 48.8288H145.139L144.864 48.1566ZM143.916 46.0178L143.244 47.5455H144.558L143.916 46.0178Z" fill="white"/>
<path d="M147.914 45.2539V48.1871H149.748V48.8288H147.242V45.2539H147.914Z" fill="white"/>
<path d="M156.379 48.3691C156.013 48.7357 155.554 48.8885 155.035 48.8885C153.721 48.8885 153.171 47.9719 153.141 47.0552C153.141 46.1386 153.752 45.1914 155.035 45.1914C155.524 45.1914 155.982 45.3747 156.349 45.7414L155.891 46.1691C155.646 45.9553 155.341 45.833 155.035 45.833C154.179 45.833 153.813 46.4747 153.813 47.0552C153.813 47.6358 154.149 48.2468 155.035 48.2468C155.341 48.2468 155.707 48.1246 155.921 47.8802L156.379 48.3691Z" fill="white"/>
<path d="M161.26 47.0552C161.26 47.9719 160.68 48.8885 159.427 48.8885C158.174 48.8885 157.594 48.0024 157.594 47.0552C157.594 46.108 158.205 45.1914 159.427 45.1914C160.649 45.1914 161.26 46.1386 161.26 47.0552ZM158.266 47.0858C158.297 47.6663 158.602 48.308 159.427 48.308C160.252 48.308 160.588 47.6663 160.588 47.0858C160.588 46.4747 160.252 45.8025 159.427 45.8025C158.602 45.8025 158.266 46.4747 158.266 47.0858Z" fill="white"/>
<path d="M165.12 45.2539H165.761V48.8288H165.364L163.5 46.415V48.8288H162.828V45.2539H163.378L165.12 47.4538V45.2539Z" fill="white"/>
<path d="M168.326 45.865H167.195V45.2539H170.098V45.865H168.998V48.8288H168.326V45.865Z" fill="white"/>
<path d="M174.678 48.8288H173.884L172.845 47.6371H172.203V48.8288H171.531V45.2539C172.081 45.2539 172.662 45.2539 173.212 45.2539C174.037 45.2539 174.495 45.8039 174.495 46.4455C174.495 46.9344 174.281 47.4233 173.609 47.576L174.678 48.7982V48.8288ZM172.203 45.8955V47.0261H173.212C173.639 47.0261 173.823 46.7511 173.823 46.4455C173.823 46.1705 173.639 45.865 173.212 45.865H172.203V45.8955Z" fill="white"/>
<path d="M178.504 48.1566H176.64L176.335 48.8288H175.602L177.19 45.2539H177.924L179.513 48.8288H178.779L178.504 48.1566ZM177.557 46.0178L176.885 47.5455H178.199L177.557 46.0178Z" fill="white"/>
<path d="M78.3128 51.3633V54.2965H80.1461V54.9076H77.6406V51.3633H78.3128Z" fill="white"/>
<path d="M84.1455 54.2347H82.2817L81.9762 54.9069H81.2734L82.8623 51.332H83.5956L85.1844 54.9069H84.4511L84.1455 54.2347ZM83.2289 52.0959L82.5567 53.6236H83.8706L83.2289 52.0959Z" fill="white"/>
<path d="M89.3961 51.9744H88.2656V51.3633H91.1683V51.9744H90.0683V54.9076H89.3961V51.9744Z" fill="white"/>
<path d="M95.7565 54.9069H94.9621L93.9232 53.7153H93.2816V54.9069H92.6094V51.332C93.1594 51.332 93.7399 51.332 94.2899 51.332C95.1148 51.332 95.5731 51.882 95.5731 52.5236C95.5731 53.0125 95.3593 53.5014 94.6871 53.6542L95.7565 54.8763V54.9069ZM93.2816 51.9737V53.1042H94.2899C94.7176 53.1042 94.901 52.8292 94.901 52.5236C94.901 52.2487 94.7176 51.9431 94.2899 51.9431H93.2816V51.9737Z" fill="white"/>
<path d="M99.5745 54.2347H97.7107L97.4052 54.9069H96.6719L98.2607 51.332H98.994L100.583 54.9069H99.8495L99.5745 54.2347ZM98.6274 52.0959L97.9552 53.6236H99.269L98.6274 52.0959Z" fill="white"/>
<path d="M102.24 51.9744H101.109V51.3633H104.043V51.9744H102.912V54.9076H102.24V51.9744Z" fill="white"/>
<path d="M107.974 54.2347H106.11L105.804 54.9069H105.102L106.69 51.332H107.424L109.013 54.9069H108.279L107.974 54.2347ZM107.057 52.0959L106.385 53.6236H107.699L107.057 52.0959Z" fill="white"/>
<path d="M115.435 53.1042C115.466 53.9903 114.916 54.9069 113.663 54.9069H112.258V51.332H113.663C114.885 51.3626 115.405 52.2181 115.435 53.1042ZM112.93 54.2652H113.663C114.458 54.2652 114.794 53.6847 114.763 53.1042C114.733 52.5542 114.427 52.0042 113.663 52.0042H112.93V54.2652Z" fill="white"/>
<path d="M119.533 54.9076H116.875V51.3633H119.533V52.0049H117.547V52.8299H119.472V53.441H117.547V54.2659H119.533V54.9076Z" fill="white"/>
<path d="M124.782 53.868H123.774V54.9069H123.102V51.332C123.652 51.332 124.202 51.332 124.782 51.332C126.493 51.3626 126.493 53.868 124.782 53.868ZM123.774 53.257H124.782C125.638 53.257 125.638 52.0042 124.782 52.0042H123.774V53.257Z" fill="white"/>
<path d="M130.197 54.9076H127.539V51.3633H130.197V52.0049H128.211V52.8299H130.106V53.441H128.211V54.2659H130.197V54.9076Z" fill="white"/>
<path d="M134.866 54.9069H134.071L133.033 53.7153H132.391V54.9069H131.719V51.332C132.269 51.332 132.849 51.332 133.399 51.332C134.224 51.332 134.683 51.882 134.683 52.5236C134.683 53.0125 134.469 53.5014 133.796 53.6542L134.866 54.8763V54.9069ZM132.391 51.9737V53.1042H133.399C133.827 53.1042 134.01 52.8292 134.01 52.5236C134.01 52.2487 133.827 51.9431 133.399 51.9431H132.391V51.9737Z" fill="white"/>
<path d="M138.508 52.2199C138.385 52.006 138.049 51.8227 137.652 51.8227C137.163 51.8227 136.919 52.0366 136.919 52.281C136.919 52.5866 137.285 52.6782 137.713 52.7394C138.446 52.831 139.149 53.0143 139.149 53.8699C139.149 54.6643 138.446 55.0004 137.652 55.0004C136.919 55.0004 136.369 54.7865 136.094 54.1143L136.644 53.8393C136.797 54.2365 137.224 54.3893 137.652 54.3893C138.08 54.3893 138.477 54.2365 138.477 53.8699C138.477 53.5338 138.141 53.4115 137.652 53.3504C136.919 53.2588 136.247 53.0755 136.247 52.281C136.247 51.5477 136.98 51.2422 137.621 51.2422C138.171 51.2422 138.752 51.395 139.027 51.9449L138.508 52.2199Z" fill="white"/>
<path d="M144.159 53.1653C144.159 54.0819 143.578 54.9986 142.325 54.9986C141.073 54.9986 140.492 54.1125 140.492 53.1653C140.492 52.2181 141.103 51.3015 142.325 51.3015C143.578 51.2709 144.189 52.2181 144.159 53.1653ZM141.164 53.1653C141.164 53.7459 141.5 54.3875 142.325 54.3875C143.15 54.3875 143.487 53.7459 143.487 53.1653C143.487 52.5542 143.15 51.882 142.325 51.882C141.5 51.882 141.164 52.5848 141.164 53.1653Z" fill="white"/>
<path d="M148.01 51.3633H148.683V54.9076H148.255V54.9381L146.391 52.5243V54.9076H145.719V51.3633H146.269L148.01 53.5632V51.3633Z" fill="white"/>
<path d="M152.801 54.2347H150.937L150.632 54.9069H149.898L151.487 51.332H152.221L153.809 54.9069H153.076L152.801 54.2347ZM151.884 52.0959L151.212 53.6236H152.526L151.884 52.0959Z" fill="white"/>
<path d="M157.289 52.2199C157.167 52.006 156.83 51.8227 156.433 51.8227C155.944 51.8227 155.7 52.0366 155.7 52.281C155.7 52.5866 156.067 52.6782 156.494 52.7394C157.228 52.831 157.93 53.0143 157.93 53.8699C157.93 54.6643 157.228 55.0004 156.433 55.0004C155.7 55.0004 155.15 54.7865 154.875 54.1143L155.425 53.8393C155.578 54.2365 156.006 54.3893 156.433 54.3893C156.861 54.3893 157.258 54.2365 157.258 53.8699C157.258 53.5338 156.922 53.4115 156.433 53.3504C155.7 53.2588 155.028 53.0755 155.028 52.281C155.028 51.5477 155.761 51.2422 156.403 51.2422C156.953 51.2422 157.533 51.395 157.808 51.9449L157.289 52.2199Z" fill="white"/>
<path d="M79.1414 58.9393L80.0886 57.4727H80.883V57.5032L79.4775 59.5503V61.017H78.8053V59.5503L77.4609 57.5032V57.4727H78.2554L79.1414 58.9393Z" fill="white"/>
<path d="M86.8926 61.017H84.2344V57.4727H86.8926V58.1143H84.876V58.9393H86.8009V59.5503H84.876V60.3448H86.8926V61.017Z" fill="white"/>
<path d="M89.0941 57.4727V60.4059H90.8968V61.017H88.4219V57.4727H89.0941Z" fill="white"/>
<path d="M95.3649 58.0837H94.2344V57.4727H97.137V58.0837H96.0371V61.017H95.3649V58.0837Z" fill="white"/>
<path d="M101.717 61.0163H100.923L99.8841 59.8246H99.2425V61.0163H98.5703V57.4414C99.1203 57.4414 99.7008 57.4414 100.251 57.4414C101.076 57.4414 101.534 57.9914 101.534 58.633C101.534 59.1219 101.32 59.6108 100.648 59.7635L101.717 60.9857V61.0163ZM99.2425 58.083V59.2136H100.251C100.679 59.2136 100.862 58.9386 100.862 58.633C100.862 58.358 100.679 58.0525 100.251 58.0525H99.2425V58.083Z" fill="white"/>
<path d="M105.504 60.3471H103.64L103.335 61.0193H102.602L104.19 57.4444H104.924L106.513 61.0193H105.779L105.504 60.3471ZM105.26 59.736L104.588 58.2083L103.915 59.736H105.26ZM105.413 56.375H104.679L104.313 57.0778V57.1083H104.863L105.413 56.375Z" fill="white"/>
<path d="M107.789 61.017V57.4727H110.356V58.1143H108.461V59.092H110.264V59.7031H108.461V61.017H107.789Z" fill="white"/>
<path d="M112.563 57.4727H111.891V61.0475H112.563V57.4727Z" fill="white"/>
<path d="M117.333 60.5566C116.966 60.9232 116.508 61.076 115.988 61.076C114.674 61.076 114.124 60.1593 114.094 59.2427C114.094 58.3261 114.705 57.3789 115.988 57.3789C116.477 57.3789 116.935 57.5622 117.302 57.9289L116.844 58.3566C116.599 58.1428 116.294 58.0205 115.988 58.0205C115.133 58.0205 114.766 58.6622 114.766 59.2427C114.766 59.8233 115.102 60.4343 115.988 60.4343C116.294 60.4343 116.66 60.3121 116.874 60.0677L117.333 60.5566Z" fill="white"/>
<path d="M122.182 59.2427C122.182 60.1593 121.602 61.076 120.349 61.076C119.096 61.076 118.516 60.1899 118.516 59.2427C118.516 58.2955 119.127 57.3789 120.349 57.3789C121.602 57.3789 122.213 58.3261 122.182 59.2427ZM119.218 59.2733C119.218 59.8538 119.554 60.4954 120.379 60.4954C121.204 60.4954 121.541 59.8538 121.541 59.2733C121.541 58.6622 121.204 57.99 120.379 57.99C119.554 57.99 119.188 58.6622 119.218 59.2733Z" fill="white"/>
<path d="M126.43 57.4727H125.758V61.0475H126.43V57.4727Z" fill="white"/>
<path d="M128.727 57.4727V60.4059H130.56V61.017H128.055V57.4727H128.727Z" fill="white"/>
<path d="M132.031 57.4757H132.703V61.0505H132.031V57.4757ZM133.192 56.4062H132.459L132.092 57.109V57.1396H132.642L133.192 56.4062Z" fill="white"/>
<path d="M137.458 60.5566C137.091 60.9232 136.633 61.076 136.113 61.076C134.799 61.076 134.249 60.1593 134.219 59.2427C134.219 58.3261 134.83 57.3789 136.113 57.3789C136.602 57.3789 137.06 57.5622 137.427 57.9289L136.969 58.3566C136.724 58.1428 136.419 58.0205 136.113 58.0205C135.258 58.0205 134.891 58.6622 134.891 59.2427C134.891 59.8233 135.227 60.4343 136.113 60.4343C136.419 60.4343 136.785 60.3121 136.999 60.0677L137.458 60.5566Z" fill="white"/>
<path d="M139.547 57.4727H138.875V61.0475H139.547V57.4727Z" fill="white"/>
<path d="M142.256 58.0837H141.125V57.4727H144.058V58.0837H142.928V61.017H142.256V58.0837Z" fill="white"/>
<path d="M148.948 59.2427C148.948 60.1593 148.367 61.076 147.115 61.076C145.862 61.076 145.281 60.1899 145.281 59.2427C145.281 58.2955 145.892 57.3789 147.115 57.3789C148.367 57.3789 148.978 58.3261 148.948 59.2427ZM145.984 59.2733C146.015 59.8538 146.32 60.4954 147.145 60.4954C147.97 60.4954 148.306 59.8538 148.306 59.2733C148.306 58.6622 147.97 57.99 147.145 57.99C146.29 57.99 145.953 58.6622 145.984 59.2733Z" fill="white"/>
<path d="M155.608 59.2136C155.608 60.0996 155.089 61.0163 153.836 61.0163H152.461V57.4414H153.866C155.058 57.472 155.608 58.3275 155.608 59.2136ZM153.133 60.3746H153.866C154.661 60.3746 154.997 59.7941 154.966 59.2136C154.936 58.6636 154.63 58.1136 153.866 58.1136H153.133V60.3746Z" fill="white"/>
<path d="M159.744 61.017H157.086V57.4727H159.744V58.1143H157.728V58.9393H159.653V59.5503H157.728V60.3448H159.744V61.017Z" fill="white"/>
<path d="M166.398 58.4504L165.237 59.9781H165.115L163.985 58.4504V61.017H163.312V57.4727H164.076L165.176 59.0004L166.307 57.4727H167.071V61.017H166.398V58.4504Z" fill="white"/>
<path d="M169.368 57.4727H168.695V61.0475H169.368V57.4727Z" fill="white"/>
<path d="M173.64 58.3254C173.395 58.081 173.059 57.9587 172.723 57.9587C171.959 57.9587 171.501 58.5393 171.501 59.2726C171.501 59.8531 171.837 60.4642 172.723 60.4642C172.998 60.4642 173.243 60.4031 173.518 60.1892V59.5476H172.601V58.9365H174.129V60.4336C173.793 60.8309 173.334 61.0753 172.723 61.0753C171.379 61.0753 170.859 60.1892 170.859 59.2726C170.859 58.2643 171.47 57.3477 172.723 57.3477C173.212 57.3477 173.67 57.531 174.037 57.8976L173.64 58.3254Z" fill="white"/>
<path d="M178.804 61.0163H178.01L176.971 59.8246H176.329V61.0163H175.688V57.4414C176.237 57.4414 176.818 57.4414 177.368 57.4414C178.193 57.4414 178.651 57.9914 178.651 58.633C178.651 59.1219 178.437 59.6108 177.765 59.7635L178.835 60.9857V61.0163H178.804ZM176.36 58.083V59.2136H177.368C177.796 59.2136 177.979 58.9386 177.979 58.633C177.979 58.358 177.796 58.0525 177.368 58.0525H176.36V58.083Z" fill="white"/>
<path d="M182.629 60.3441H180.765L180.46 61.0163H179.727L181.315 57.4414H182.049L183.638 61.0163H182.904L182.629 60.3441ZM181.713 58.2053L181.04 59.733H182.354L181.713 58.2053Z" fill="white"/>
<path d="M187.3 57.4414H187.972V61.0163H187.575L185.681 58.633V61.0163H185.039V57.472H185.558L187.3 59.6719V57.4414Z" fill="white"/>
<path d="M190.506 58.0837H189.406V57.4727H192.309V58.0837H191.178V61.017H190.506V58.0837Z" fill="white"/>
<path d="M196.377 61.017H193.719V57.4727H196.377V58.1143H194.391V58.9393H196.316V59.5503H194.391V60.3448H196.377V61.017Z" fill="white"/>
<path d="M200.195 58.3254C200.073 58.1115 199.737 57.9282 199.34 57.9282C198.851 57.9282 198.606 58.1421 198.606 58.3865C198.606 58.6921 198.973 58.7837 199.401 58.8448C200.134 58.9365 200.837 59.1198 200.837 59.9753C200.837 60.7697 200.134 61.1058 199.34 61.1058C198.606 61.1058 198.056 60.892 197.781 60.2198L198.331 59.9448C198.484 60.342 198.912 60.4948 199.34 60.4948C199.767 60.4948 200.164 60.342 200.164 59.9753C200.164 59.6392 199.828 59.517 199.34 59.4559C198.606 59.3642 197.934 59.1809 197.934 58.3865C197.934 57.6532 198.667 57.3477 199.309 57.3477C199.859 57.3477 200.439 57.5004 200.714 58.0504L200.195 58.3254Z" fill="white"/>
<path d="M93.2272 31.8068C91.4551 33.5789 89.1329 34.4039 86.658 34.4039C80.2111 34.4039 77.4917 29.9735 77.4612 25.4515C77.4306 20.8989 80.3944 16.2852 86.658 16.2852C89.0107 16.2852 91.2412 17.1712 93.0133 18.9434L90.844 21.0516C89.7135 19.9211 88.1857 19.4017 86.658 19.4017C82.4721 19.4017 80.6694 22.5182 80.6999 25.4209C80.7305 28.293 82.3804 31.3179 86.658 31.3179C88.1552 31.3179 89.8662 30.7068 91.0273 29.5457L93.2272 31.8068Z" fill="white"/>
<path d="M117.024 25.4211C116.963 29.9125 114.213 34.404 108.133 34.404C102.052 34.404 99.2109 30.0042 99.2109 25.4516C99.2109 20.8685 102.144 16.2853 108.133 16.2853C114.091 16.2548 117.085 20.8685 117.024 25.4211ZM102.45 25.4822C102.511 28.3237 104.069 31.3792 108.133 31.3792C112.227 31.3792 113.755 28.2932 113.785 25.4516C113.846 22.5184 112.197 19.2491 108.133 19.2491C104.039 19.2491 102.358 22.5489 102.45 25.4822Z" fill="white"/>
<path d="M139.752 34.0097H135.872L130.83 28.2044H127.683V34.0097H124.414V16.5938C127.164 16.5938 129.914 16.6243 132.664 16.6243C136.758 16.6549 138.897 19.3742 138.897 22.3991C138.897 24.7823 137.797 27.1961 134.528 27.8683L139.783 33.7958V34.0097H139.752ZM127.653 19.6797V25.2406H132.633C134.711 25.2406 135.597 23.8351 135.597 22.4602C135.597 21.0547 134.68 19.6797 132.633 19.6797H127.653Z" fill="white"/>
<path d="M158.947 34.0065H145.992V16.6211H158.947V19.7987H149.231V23.8014H158.611V26.8568H149.231V30.7678H158.947V34.0065Z" fill="white"/>
<path d="M171.929 19.5849H166.43V16.6211H180.668V19.5849H175.199V34.0065H171.929V19.5849Z" fill="white"/>
<path d="M192.101 19.5849H186.602V16.6211H200.87V19.5849H195.371V34.0065H192.101V19.5849Z" fill="white"/>
<path d="M14.2333 12.6184L11.3001 9.41016L0.117188 30.4315L9.6807 31.5621L17.7165 16.4071L14.2333 12.6184Z" fill="white"/>
<path d="M0 31.1367L4.91925 54.4497L13.1384 49.0721L9.59406 32.2672L0 31.1367Z" fill="white"/>
<path d="M33.8805 0.03125L11.8203 8.92256L14.6313 12.0086L18.2367 15.9501L34.125 9.53365L33.8805 0.03125Z" fill="white"/>
<path d="M18.246 15.9493L14.6406 12.0078L18.246 15.9493Z" fill="white"/>
<path d="M57.204 7.39415L34.5938 0L34.6243 1.37495L34.8687 9.5024L51.1542 14.8189L57.204 7.39415Z" fill="white"/>
<path d="M34.8616 9.50245L34.6172 1.375L34.8616 9.50245Z" fill="white"/>
<path d="M48.4588 69.1752L44.7617 59.8867L27.6513 60.4672L25.7569 66.517L24.6875 70.0002L48.4588 69.1752Z" fill="white"/>
<path d="M13.5082 49.6484L5.28906 55.0566L24.0189 69.7532L24.9049 66.9422L26.9826 60.2202L13.5082 49.6484Z" fill="white"/>
<path d="M53.5 21.4766L60.0386 32.0179L64.2857 31.2234L66.8522 30.7346L57.7776 16.1602L53.5 21.4766Z" fill="white"/>
<path d="M48.8828 53.928L51.541 60.5583L64.2822 49.0698L60.8296 47.1449L58.1102 45.6172L48.8828 53.928Z" fill="white"/>
<path d="M58.4453 45.0036L64.5867 48.4257L67.0005 31.4375L64.709 31.8653L60.1869 32.6902L58.4453 45.0036Z" fill="white"/>
<path d="M58.4453 45.0039L64.5867 48.426L58.4453 45.0039Z" fill="white"/>
<path d="M367.961 40.2982C367.961 32.5985 362.034 25.6016 352.47 25.6016C342.662 25.6016 337.102 32.8124 337.102 40.4204C337.102 48.4257 343.243 55.0559 352.257 55.0559C361.637 55.0559 367.961 48.5479 367.961 40.2982ZM341.349 40.4204C341.349 35.6234 344.587 29.482 352.623 29.482C360.109 29.482 363.745 35.5012 363.745 40.2676C363.745 42.7425 362.706 45.8591 360.873 47.8451C358.887 49.9839 355.556 51.2672 352.501 51.2672C346.482 51.2367 341.349 46.959 341.349 40.4204Z" fill="white"/>
<path d="M376.883 25.9961H372.758V54.6866H376.883V25.9961Z" fill="white"/>
<path d="M397.725 43.4426L406.555 32.3514V54.6866H410.68V25.9961H406.86L397.327 37.7595L387.794 25.9961H383.914V54.6866H388.039V32.3514L396.961 43.4426H397.725Z" fill="white"/>
<path d="M298.633 60.0078C295.364 60.0078 293.5 62.4216 293.5 64.9576C293.5 67.6158 295.547 69.8463 298.541 69.8463C301.658 69.8463 303.766 67.677 303.766 64.9271C303.797 62.3299 301.811 60.0078 298.633 60.0078ZM301.444 67.4325C300.772 68.1353 299.672 68.563 298.664 68.563C296.647 68.563 294.936 67.127 294.936 64.9576C294.936 63.3688 296.005 61.3217 298.694 61.3217C301.2 61.3217 302.391 63.3382 302.391 64.9271C302.391 65.7215 302.055 66.7603 301.444 67.4325Z" fill="white"/>
<path d="M313.211 67.5536L306.764 60.1289H305.664V69.6924H306.947V62.3288L313.333 69.6924H314.525V60.1289H313.211V67.5536Z" fill="white"/>
<path d="M323.812 65.5676C323.812 66.5148 323.721 67.0036 323.537 67.3397C323.293 67.798 322.621 68.5925 321.062 68.5925C319.962 68.5925 319.321 68.2258 318.924 67.798C318.435 67.3092 318.312 66.8203 318.312 65.5676V60.1289H316.938V65.5676C316.938 66.2092 316.937 67.3092 317.457 68.1647C318.221 69.3563 319.687 69.8452 321.062 69.8452C322.162 69.8452 323.232 69.5702 324.087 68.8063C325.157 67.8286 325.157 66.5148 325.157 65.5676V60.1289H323.782V65.5676H323.812Z" fill="white"/>
<path d="M336.062 64.0704L332.854 60.1289H331.57V69.6924H332.945V62.2677L335.909 65.9648H336.184L339.117 62.2677V69.6924H340.492V60.1289H339.209L336.062 64.0704Z" fill="white"/>
<path d="M344.586 60.1289H343.211V69.6924H344.586V60.1289Z" fill="white"/>
<path d="M352.015 66.2103H353.849V68.1964C352.932 68.5019 352.474 68.6241 351.771 68.6241C349.449 68.6241 347.921 67.0353 347.921 64.9271C347.921 62.666 349.724 61.23 351.649 61.23C352.168 61.23 353.482 61.3217 355.04 62.2383V60.8328C354.001 60.405 353.024 60.0078 351.679 60.0078C348.41 60.0078 346.516 62.4827 346.516 64.9882C346.516 67.1575 348.043 69.8158 351.74 69.8158C353.329 69.8158 354.521 69.3574 355.254 69.0213V64.9882H352.046V66.2103H352.015Z" fill="white"/>
<path d="M361.73 65.1672C362.769 64.77 363.319 63.9144 363.319 62.8145C363.319 61.8367 362.83 60.8896 361.822 60.4618C361.21 60.1868 360.63 60.1562 360.172 60.1562H357.758V69.7198H359.133V65.5644H359.499C360.172 65.5644 360.63 65.5644 361.547 66.756C361.852 67.1532 363.196 69.2614 363.502 69.7198H365.121C364.449 68.8031 364.235 68.467 363.808 67.8254C363.135 66.6032 362.585 65.7477 361.73 65.1672ZM360.997 64.1894C360.63 64.3422 359.866 64.3422 359.652 64.3422H359.133V61.3173H359.561C360.385 61.3173 360.844 61.3784 361.18 61.5312C361.638 61.7451 361.913 62.2645 361.913 62.8145C361.913 63.3339 361.669 63.9144 360.997 64.1894Z" fill="white"/>
<path d="M369.672 60.0977L365.547 69.7223H366.952L368.144 66.9113H372.208L373.491 69.7223H374.896L370.619 60.0977H369.672ZM368.694 65.6585L370.13 62.2059L371.688 65.6585H368.694Z" fill="white"/>
<path d="M376.881 64.9576C376.881 63.0327 378.348 61.3217 380.67 61.3217C381.831 61.3217 382.962 61.6883 383.97 62.2688V60.8022C383.359 60.5272 382.076 60.0078 380.609 60.0078C377.584 60.0078 375.445 62.2994 375.445 64.9271C375.445 67.1575 377.034 69.8158 380.578 69.8158C381.801 69.8158 382.962 69.5713 384.062 68.9602V67.4631C383.053 68.1353 381.862 68.5325 380.67 68.5325C378.134 68.563 376.881 66.7298 376.881 64.9576Z" fill="white"/>
<path d="M387.82 60.1289H386.445V69.6924H387.82V60.1289Z" fill="white"/>
<path d="M394.086 59.4872H394.819L397.111 57.3789H395.094L394.086 59.4872Z" fill="white"/>
<path d="M395.063 60.0078C391.794 60.0078 389.93 62.4216 389.93 64.9576C389.93 67.6158 391.977 69.8463 394.971 69.8463C398.088 69.8463 400.196 67.677 400.196 64.9271C400.227 62.3299 398.271 60.0078 395.063 60.0078ZM397.874 67.4325C397.202 68.1353 396.102 68.563 395.093 68.563C393.077 68.563 391.366 67.127 391.366 64.9576C391.366 63.3688 392.435 61.3217 395.124 61.3217C397.629 61.3217 398.821 63.3382 398.821 64.9271C398.852 65.7215 398.485 66.7603 397.874 67.4325Z" fill="white"/>
<path d="M409.367 60.1289V67.5536L402.92 60.1289H401.82V69.6924H403.104V62.3288L409.489 69.6924H410.681V60.1289H409.367Z" fill="white"/>
<path d="M308.51 37.6376C308.846 37.6376 309.091 37.3626 309.091 37.0571C309.091 36.7516 308.816 36.4766 308.51 36.4766C308.205 36.4766 307.93 36.7516 307.93 37.0571C307.93 37.3626 308.205 37.6376 308.51 37.6376Z" fill="white"/>
<path d="M315.194 38.0395C315.164 37.9478 315.072 37.8867 314.95 37.8867H314.553H314.278H313.942H313.667H313.239C313.147 37.8867 313.056 37.9478 312.994 38.0395L311.864 40.6672H310.764L309.634 38.0395C309.603 37.9478 309.511 37.8867 309.389 37.8867H308.503H307.617C307.525 37.8867 307.434 37.9478 307.372 38.0395L306.181 40.8199C306.12 40.9422 306.181 41.0644 306.273 41.156C306.303 41.1866 306.364 41.1866 306.395 41.1866C306.486 41.1866 306.578 41.1255 306.639 41.0338L307.678 38.5895L307.739 40.9727L307.342 43.9976C307.342 44.1198 307.403 44.242 307.495 44.2726C307.525 44.2726 307.556 44.3031 307.586 44.3031C307.709 44.3031 307.831 44.2115 307.831 44.0893L308.197 41.2171H308.717L309.084 44.0893C309.114 44.2115 309.206 44.3031 309.328 44.3031C309.359 44.3031 309.389 44.3031 309.42 44.2726C309.542 44.242 309.603 44.1198 309.572 43.9976L309.175 40.9727L309.236 38.5895L310.275 41.0338C310.275 41.0338 310.275 41.0644 310.306 41.0644C310.306 41.0644 310.306 41.0949 310.336 41.0949L310.367 41.1255C310.367 41.1255 310.397 41.1255 310.397 41.156H310.428H310.458H310.672L310.336 42.8671C310.306 42.9893 310.336 43.1115 310.428 43.2032C310.489 43.2643 310.55 43.2948 310.611 43.3254V44.0587C310.611 44.1809 310.703 44.2726 310.825 44.2726C310.947 44.2726 311.039 44.1809 311.039 44.0587V43.3865C311.039 43.3865 311.039 43.3865 311.07 43.3865H311.192H311.314C311.314 43.3865 311.314 43.3865 311.345 43.3865V44.0893C311.345 44.2115 311.436 44.3031 311.558 44.3031C311.681 44.3031 311.772 44.2115 311.772 44.0893V43.3559C311.833 43.3254 311.895 43.2948 311.956 43.2337C312.047 43.1421 312.078 43.0198 312.047 42.8976L311.711 41.1866H311.925C311.956 41.1866 311.956 41.1866 311.956 41.1866H311.986C311.986 41.1866 312.017 41.1866 312.017 41.156C312.017 41.156 312.047 41.156 312.047 41.1255C312.047 41.1255 312.047 41.0949 312.078 41.0949C312.078 41.0949 312.078 41.0644 312.108 41.0644L313.178 38.5284L313.392 39.5672C313.422 39.7505 313.422 39.9033 313.361 40.0866L312.383 44.3337H313.758H314.094H315.469L314.492 40.0866C314.461 39.9339 314.431 39.7505 314.492 39.5672L314.706 38.5284L315.53 40.5755C315.561 40.6672 315.653 40.7283 315.775 40.7283C315.805 40.7283 315.836 40.7283 315.867 40.6977C315.989 40.6366 316.05 40.4838 316.019 40.3616L315.194 38.0395Z" fill="white"/>
<path d="M314.096 37.6376C314.432 37.6376 314.677 37.3626 314.677 37.0571C314.677 36.7516 314.402 36.4766 314.096 36.4766C313.76 36.4766 313.516 36.7516 313.516 37.0571C313.516 37.3626 313.76 37.6376 314.096 37.6376Z" fill="white"/>
<path d="M311.311 40.543C311.555 40.543 311.738 40.3597 311.738 40.1153C311.738 39.8708 311.555 39.6875 311.311 39.6875C311.066 39.6875 310.883 39.8708 310.883 40.1153C310.883 40.3597 311.066 40.543 311.311 40.543Z" fill="white"/>
<path d="M320.357 26.0625C321.151 26.7958 322.251 28.0791 322.251 28.0791C325.184 31.3484 326.865 35.7482 326.865 39.6592C326.865 39.7203 326.865 39.7508 326.865 39.812H322.037C321.304 32.1428 315.193 26.0931 307.799 26.0931C299.885 26.0931 293.469 32.9067 293.469 41.3091C293.469 45.8617 295.546 50.9643 298.969 54.753H301.993C301.199 54.0197 300.099 52.7364 300.099 52.7364C297.166 49.4671 295.485 45.0673 295.485 41.1563C295.485 41.0952 295.485 41.0647 295.485 41.0036H300.343C301.077 48.6727 307.188 54.7225 314.582 54.7225C322.495 54.7225 328.912 47.9089 328.912 39.5064C328.912 34.9538 326.834 29.8512 323.412 26.0625H320.357ZM320.02 39.7814H317.546C317.546 39.7508 317.546 39.7508 317.546 39.7203C317.546 38.2537 317.148 36.8176 316.446 35.5343H318.89C319.501 36.8176 319.868 38.2537 320.02 39.7814ZM318.462 34.6177H315.926C314.979 33.1817 313.696 31.99 312.29 31.2567C312.962 30.8901 313.574 30.4318 314.093 29.9123C315.896 31.0429 317.423 32.6928 318.462 34.6177ZM308.379 28.0791C310.182 28.1707 311.893 28.6902 313.421 29.5151C312.107 30.7373 310.335 31.5317 308.379 31.6539V28.0791ZM308.379 32.3872C309.418 32.3261 310.426 32.0817 311.343 31.7151C312.718 32.3261 313.971 33.3344 314.948 34.6177H308.349V32.3872H308.379ZM307.463 28.0485V31.6234C305.415 31.5317 303.582 30.7068 302.238 29.4235C303.827 28.5985 305.599 28.1096 307.463 28.0485ZM307.463 32.3872V34.6177H300.741C301.718 33.3344 303.002 32.2956 304.346 31.7151C305.324 32.1123 306.363 32.3567 307.463 32.3872ZM301.566 29.8512C302.116 30.4012 302.757 30.8595 303.429 31.2567C302.055 32.0206 300.741 33.1817 299.794 34.6177H297.074C298.144 32.6622 299.702 30.9817 301.566 29.8512ZM295.485 40.0869C295.608 38.4676 296.005 36.9093 296.646 35.5038H299.274C298.602 36.7871 298.174 38.2231 298.174 39.6897C298.174 39.7508 298.174 39.9342 298.174 40.0869H295.485ZM302.33 40.973H304.804C304.804 41.0036 304.804 41.0036 304.804 41.0341C304.804 42.5007 305.202 43.9368 305.904 45.2201H303.46C302.849 43.9368 302.452 42.5007 302.33 40.973ZM303.888 46.1367H306.424C307.371 47.5728 308.685 48.7644 310.06 49.4977C309.388 49.8643 308.776 50.3226 308.257 50.8421C306.424 49.7116 304.927 48.0616 303.888 46.1367ZM313.971 52.6753C312.168 52.5837 310.457 52.0642 308.929 51.2393C310.243 50.0171 312.015 49.2227 313.971 49.1005V52.6753ZM313.971 48.3672C312.932 48.4283 311.924 48.6727 311.007 49.0394C309.632 48.4283 308.379 47.42 307.402 46.1367H314.001V48.3672H313.971ZM306.79 45.2506C306.057 43.9979 305.599 42.5618 305.599 41.0647C305.599 41.0341 305.599 41.0341 305.599 41.0036V40.1175H298.969C298.969 39.9953 298.969 39.8425 298.969 39.7203C298.969 38.2231 299.427 36.7871 300.16 35.5343H315.56C316.293 36.7871 316.751 38.2231 316.751 39.7203C316.751 39.7508 316.751 39.7508 316.751 39.7814V40.6675H323.381C323.381 40.7897 323.381 40.9425 323.381 41.0341C323.381 42.5313 322.923 43.9673 322.19 45.2201H306.79V45.2506ZM321.579 46.1367C320.601 47.42 319.318 48.4588 317.973 49.0394C317.026 48.6422 315.957 48.3977 314.857 48.3672V46.1367H321.579ZM314.857 52.7059V49.131C316.904 49.2227 318.737 50.0477 320.082 51.3309C318.523 52.1559 316.751 52.6448 314.857 52.7059ZM320.784 50.9032C320.234 50.3532 319.593 49.8949 318.921 49.4977C320.295 48.7338 321.609 47.5728 322.556 46.1367H325.276C324.176 48.1227 322.648 49.7727 320.784 50.9032ZM325.704 45.2506H323.076C323.748 43.9673 324.176 42.5313 324.176 41.0647C324.176 41.0036 324.176 40.8202 324.176 40.698H326.865C326.712 42.2869 326.315 43.8451 325.704 45.2506Z" fill="white"/>
<path d="M303.375 3.51316C302.825 2.90207 302.214 2.47431 301.603 2.16877C300.961 1.89378 300.289 1.74101 299.525 1.74101C298.914 1.74101 298.303 1.86323 297.722 2.10766C297.142 2.3521 296.622 2.68819 296.195 3.14651C295.736 3.60482 295.431 4.12425 295.186 4.67423C294.972 5.25476 294.85 5.86585 294.85 6.5686C294.85 7.11857 294.911 7.60744 295.033 8.06576C295.156 8.52407 295.37 8.95183 295.614 9.31849C296.072 9.99068 296.653 10.4796 297.325 10.8462C297.997 11.2129 298.731 11.3962 299.525 11.3962C300.258 11.3962 300.961 11.2434 301.603 10.9379C302.244 10.6323 302.825 10.174 303.344 9.56292V11.3962C302.764 11.8239 302.153 12.1295 301.48 12.3434C300.808 12.5572 300.136 12.6795 299.433 12.6795C298.822 12.6795 298.211 12.5878 297.631 12.4045C297.05 12.2211 296.5 11.9462 296.011 11.6101C295.156 11.0295 294.514 10.2962 294.086 9.4407C293.628 8.58518 293.414 7.638 293.414 6.6297C293.414 5.74363 293.567 4.91866 293.872 4.18536C294.178 3.45205 294.636 2.77986 295.247 2.19932C295.828 1.61879 296.5 1.19103 297.203 0.916042C297.936 0.641053 298.7 0.488281 299.555 0.488281C300.228 0.488281 300.869 0.579944 301.511 0.793825C302.153 1.00771 302.764 1.31325 303.375 1.74101V3.51316Z" fill="white"/>
<path d="M304.719 8.77103C304.719 8.2516 304.81 7.73218 305.024 7.27386C305.208 6.81555 305.513 6.38779 305.88 6.02114C306.246 5.65448 306.674 5.37949 307.163 5.16561C307.652 4.98229 308.141 4.89062 308.691 4.89062C309.21 4.89062 309.73 4.98229 310.188 5.19617C310.646 5.37949 311.105 5.68504 311.471 6.05169C311.838 6.41834 312.143 6.8461 312.327 7.30442C312.51 7.76273 312.632 8.28216 312.632 8.80158C312.632 9.321 312.541 9.84043 312.327 10.2987C312.143 10.7571 311.838 11.1848 311.471 11.5515C311.074 11.9181 310.646 12.2237 310.188 12.4375C309.699 12.6514 309.21 12.7431 308.691 12.7431C308.171 12.7431 307.652 12.6514 307.163 12.4375C306.674 12.2542 306.246 11.9487 305.88 11.582C305.513 11.2154 305.208 10.7876 305.024 10.2987C304.81 9.77932 304.719 9.29045 304.719 8.77103ZM306.033 8.77103C306.033 9.53489 306.277 10.1765 306.796 10.7265C307.316 11.2459 307.927 11.5209 308.66 11.5209C309.394 11.5209 310.005 11.2459 310.494 10.7265C311.013 10.2071 311.257 9.53489 311.257 8.77103C311.257 8.00717 311.013 7.36553 310.494 6.81555C309.974 6.29612 309.363 6.02114 308.66 6.02114C307.927 6.02114 307.316 6.29612 306.796 6.81555C306.277 7.33497 306.033 7.97661 306.033 8.77103Z" fill="white"/>
<path d="M314.219 12.3757V5.10381H315.441V6.23432C315.746 5.77601 316.113 5.40935 316.571 5.19547C316.999 4.98159 317.519 4.85938 318.099 4.85938C318.955 4.85938 319.627 5.07326 320.116 5.53157C320.605 5.98989 320.849 6.63153 320.849 7.42594V12.3757H319.566V8.09814C319.566 7.36483 319.413 6.81485 319.107 6.4482C318.802 6.08155 318.313 5.89822 317.671 5.89822C317.305 5.89822 316.969 5.95933 316.663 6.1121C316.358 6.23432 316.113 6.4482 315.899 6.69264C315.746 6.87596 315.624 7.08984 315.563 7.33428C315.502 7.57871 315.471 8.00647 315.471 8.61756V12.3757H314.219Z" fill="white"/>
<path d="M333.932 8.92241H328.188V9.04462C328.188 9.80848 328.402 10.4501 328.86 10.939C329.319 11.4279 329.869 11.6417 330.602 11.6417C331.091 11.6417 331.519 11.5195 331.916 11.2445C332.313 10.9695 332.649 10.6029 332.955 10.0529L333.902 10.6946C333.535 11.3362 333.077 11.8556 332.496 12.1917C331.916 12.5278 331.274 12.6806 330.541 12.6806C329.441 12.6806 328.555 12.3139 327.852 11.5806C327.18 10.8473 326.844 9.90015 326.844 8.70853C326.844 7.57802 327.18 6.63083 327.852 5.92808C328.524 5.19478 329.41 4.82812 330.449 4.82812C331.519 4.82812 332.374 5.16422 332.985 5.86697C333.627 6.56972 333.932 7.48635 333.932 8.67797V8.92241ZM332.588 7.91411C332.557 7.27247 332.344 6.7836 331.946 6.44751C331.549 6.11141 331.03 5.92808 330.357 5.92808C329.746 5.92808 329.258 6.11141 328.86 6.47806C328.463 6.84471 328.219 7.33358 328.158 7.94467H332.588V7.91411Z" fill="white"/>
<path d="M335.547 12.3759V0.0625H336.83V12.3453H335.547V12.3759Z" fill="white"/>
<path d="M350.366 5.10451V12.3764H349.174V11.0626C348.869 11.582 348.502 12.0098 348.074 12.2848C347.616 12.5598 347.127 12.7125 346.546 12.7125C345.508 12.7125 344.652 12.3459 344.041 11.6431C343.399 10.9404 343.094 9.9932 343.094 8.80158C343.094 7.60996 343.399 6.66278 344.01 5.96003C344.621 5.25728 345.446 4.89062 346.485 4.89062C347.096 4.89062 347.616 5.01284 348.074 5.28783C348.532 5.56282 348.868 5.96003 349.143 6.51V5.13506H350.366V5.10451ZM349.143 8.80158C349.143 7.97661 348.93 7.33497 348.471 6.81555C348.013 6.32668 347.432 6.05169 346.73 6.05169C345.996 6.05169 345.416 6.29612 344.988 6.75444C344.56 7.21276 344.346 7.8544 344.346 8.67936C344.346 9.56544 344.56 10.2376 344.988 10.696C345.416 11.1848 345.996 11.3987 346.791 11.3987C347.524 11.3987 348.105 11.1543 348.532 10.696C348.93 10.2682 349.143 9.62655 349.143 8.80158Z" fill="white"/>
<path d="M352.539 15.8895V5.10381H353.731V6.47876C354.006 5.95933 354.372 5.56212 354.831 5.28714C355.289 5.01215 355.808 4.85938 356.358 4.85938C357.397 4.85938 358.253 5.22603 358.894 5.92878C359.536 6.63153 359.842 7.57871 359.842 8.77033C359.842 9.96195 359.536 10.9091 358.894 11.6424C358.283 12.3452 357.428 12.7118 356.389 12.7118C355.778 12.7118 355.258 12.5896 354.831 12.3146C354.372 12.0396 354.036 11.6424 353.731 11.0925V15.8895H352.539ZM353.731 8.77033C353.731 9.5953 353.945 10.2369 354.403 10.7258C354.861 11.2147 355.442 11.4591 356.175 11.4591C356.908 11.4591 357.458 11.2452 357.886 10.7869C358.314 10.3286 358.497 9.71752 358.497 8.9231C358.497 8.03703 358.283 7.33428 357.886 6.81485C357.458 6.29543 356.908 6.05099 356.144 6.05099C355.381 6.05099 354.8 6.29543 354.372 6.7843C353.945 7.24261 353.731 7.91481 353.731 8.77033Z" fill="white"/>
<path d="M360.938 8.77103C360.938 8.2516 361.029 7.73218 361.243 7.27386C361.426 6.81555 361.732 6.38779 362.099 6.02114C362.465 5.65448 362.893 5.37949 363.382 5.16561C363.871 4.98229 364.36 4.89062 364.91 4.89062C365.429 4.89062 365.948 4.98229 366.407 5.19617C366.865 5.37949 367.323 5.68504 367.69 6.05169C368.057 6.41834 368.362 6.8461 368.546 7.30442C368.729 7.76273 368.851 8.28216 368.851 8.80158C368.851 9.321 368.759 9.84043 368.546 10.2987C368.362 10.7571 368.057 11.1848 367.69 11.5515C367.293 11.9181 366.865 12.2237 366.407 12.4375C365.918 12.6514 365.429 12.7431 364.91 12.7431C364.39 12.7431 363.871 12.6514 363.382 12.4375C362.893 12.2542 362.465 11.9487 362.099 11.582C361.732 11.2154 361.426 10.7876 361.243 10.2987C361.029 9.77932 360.938 9.29045 360.938 8.77103ZM362.251 8.77103C362.251 9.53489 362.496 10.1765 363.015 10.7265C363.535 11.2459 364.146 11.5209 364.879 11.5209C365.612 11.5209 366.223 11.2459 366.712 10.7265C367.232 10.2071 367.476 9.53489 367.476 8.77103C367.476 8.00717 367.232 7.36553 366.712 6.81555C366.193 6.29612 365.582 6.02114 364.879 6.02114C364.146 6.02114 363.535 6.29612 363.015 6.81555C362.496 7.33497 362.251 7.97661 362.251 8.77103Z" fill="white"/>
<path d="M370.167 15.8912L372.123 11.6441L369.281 5.10547H370.717L372.826 10.3303L375.056 5.10547H376.431L371.542 15.8912H370.167Z" fill="white"/>
<path d="M376.703 8.77103C376.703 8.2516 376.795 7.73218 377.009 7.27386C377.192 6.81555 377.498 6.38779 377.864 6.02114C378.231 5.65448 378.659 5.37949 379.147 5.16561C379.636 4.98229 380.125 4.89062 380.675 4.89062C381.195 4.89062 381.714 4.98229 382.172 5.19617C382.631 5.37949 383.089 5.68504 383.456 6.05169C383.822 6.41834 384.128 6.8461 384.311 7.30442C384.494 7.76273 384.617 8.28216 384.617 8.80158C384.617 9.321 384.525 9.84043 384.311 10.2987C384.128 10.7571 383.822 11.1848 383.456 11.5515C383.058 11.9181 382.631 12.2237 382.172 12.4375C381.683 12.6514 381.195 12.7431 380.675 12.7431C380.156 12.7431 379.636 12.6514 379.147 12.4375C378.659 12.2542 378.231 11.9487 377.864 11.582C377.498 11.2154 377.192 10.7876 377.009 10.2987C376.795 9.77932 376.703 9.29045 376.703 8.77103ZM378.017 8.77103C378.017 9.53489 378.261 10.1765 378.781 10.7265C379.3 11.2459 379.911 11.5209 380.645 11.5209C381.378 11.5209 381.989 11.2459 382.478 10.7265C382.997 10.2071 383.242 9.53489 383.242 8.77103C383.242 8.00717 382.997 7.36553 382.478 6.81555C381.958 6.29612 381.347 6.02114 380.645 6.02114C379.911 6.02114 379.3 6.29612 378.781 6.81555C378.261 7.33497 378.017 7.97661 378.017 8.77103Z" fill="white"/>
<path d="M397.452 0.0618043V12.3447H396.26V11.0308C395.985 11.5502 395.618 11.9474 395.16 12.2224C394.702 12.4974 394.182 12.6502 393.632 12.6502C392.593 12.6502 391.738 12.2835 391.127 11.5808C390.485 10.878 390.18 9.93086 390.18 8.73924C390.18 7.54762 390.485 6.60043 391.127 5.89768C391.738 5.19493 392.593 4.82828 393.632 4.82828C394.243 4.82828 394.763 4.9505 395.191 5.22549C395.618 5.50048 395.985 5.89768 396.26 6.44766V0.03125H397.452V0.0618043ZM396.26 8.76979C396.26 7.97538 396.046 7.30318 395.588 6.81431C395.129 6.32544 394.549 6.08101 393.816 6.08101C393.082 6.08101 392.502 6.29489 392.105 6.75321C391.707 7.21152 391.494 7.82261 391.494 8.61702C391.494 9.5031 391.707 10.2058 392.135 10.7253C392.563 11.2447 393.143 11.4891 393.877 11.4891C394.641 11.4891 395.221 11.2447 395.679 10.7864C396.138 10.3281 396.26 9.62531 396.26 8.76979Z" fill="white"/>
<path d="M406.159 8.92241H400.415V9.04462C400.415 9.80848 400.629 10.4501 401.087 10.939C401.545 11.4279 402.095 11.6417 402.829 11.6417C403.317 11.6417 403.745 11.5195 404.142 11.2445C404.54 10.9695 404.876 10.6029 405.181 10.0529L406.128 10.6946C405.762 11.3362 405.303 11.8556 404.723 12.1917C404.142 12.5278 403.501 12.6806 402.767 12.6806C401.667 12.6806 400.781 12.3139 400.079 11.5806C399.406 10.8473 399.07 9.90015 399.07 8.70853C399.07 7.57802 399.406 6.63083 400.079 5.92808C400.751 5.19478 401.637 4.82812 402.676 4.82812C403.745 4.82812 404.601 5.16422 405.212 5.86697C405.853 6.56972 406.159 7.48635 406.159 8.67797V8.92241ZM404.845 7.91411C404.815 7.27247 404.601 6.7836 404.203 6.44751C403.806 6.11141 403.287 5.92808 402.615 5.92808C402.004 5.92808 401.515 6.11141 401.117 6.47806C400.72 6.84471 400.476 7.33358 400.415 7.94467H404.845V7.91411Z" fill="white"/>
<path d="M408.117 6.23234C408.117 5.98791 408.209 5.74347 408.392 5.56015C408.576 5.37682 408.789 5.28516 409.064 5.28516C409.309 5.28516 409.553 5.37682 409.737 5.56015C409.92 5.74347 410.012 5.95735 410.012 6.23234C410.012 6.50733 409.92 6.72121 409.737 6.90454C409.553 7.08786 409.339 7.17953 409.064 7.17953C408.789 7.17953 408.576 7.08786 408.392 6.90454C408.209 6.72121 408.117 6.50733 408.117 6.23234ZM408.117 11.5794C408.117 11.3349 408.209 11.0905 408.392 10.9072C408.576 10.7238 408.789 10.6322 409.064 10.6322C409.309 10.6322 409.553 10.7238 409.737 10.9072C409.92 11.0905 410.012 11.3044 410.012 11.5794C410.012 11.8238 409.92 12.0682 409.737 12.2515C409.553 12.4349 409.339 12.5265 409.064 12.5265C408.789 12.5265 408.576 12.4349 408.392 12.2515C408.209 12.0377 408.117 11.8238 408.117 11.5794Z" fill="white"/>
<path d="M242.142 0.519531H241.5V69.3279H242.142V0.519531Z" fill="white"/>
</svg>
