<svg width="74" height="48" viewBox="0 0 74 48" fill="none" xmlns="http://www.w3.org/2000/svg">
<path d="M68.4118 1H5.58824C5.58824 1 1.35294 2.06154 1.35294 6.30769C1.35294 10.5538 5.58824 11.6154 5.58824 11.6154H68.4118C68.4118 11.6154 72.6471 10.9077 72.6471 6.30769C72.6471 1.70769 68.4118 1 68.4118 1Z" fill="white"/>
<path d="M68.4118 18.6923H5.58824C5.58824 18.6923 1 19.7538 1 24C1 28.2462 5.58824 29.3077 5.58824 29.3077H68.4118C68.4118 29.3077 73 28.9538 73 24C73 19.0462 68.4118 18.6923 68.4118 18.6923Z" fill="white"/>
<path d="M68.4118 47H5.58824C5.58824 47 1 46.6462 1 41.6923C1 36.7385 5.58824 36.3846 5.58824 36.3846H68.4118C68.4118 36.3846 73 37.0923 73 41.6923C73 46.2923 68.4118 47 68.4118 47Z" fill="white"/>
<path d="M68.4118 1H5.58824C5.58824 1 1.35294 2.06154 1.35294 6.30769C1.35294 10.5538 5.58824 11.6154 5.58824 11.6154H68.4118C68.4118 11.6154 72.6471 10.9077 72.6471 6.30769C72.6471 1.70769 68.4118 1 68.4118 1Z" stroke="#043335"/>
<path d="M68.4118 18.6923H5.58824C5.58824 18.6923 1 19.7538 1 24C1 28.2462 5.58824 29.3077 5.58824 29.3077H68.4118C68.4118 29.3077 73 28.9538 73 24C73 19.0462 68.4118 18.6923 68.4118 18.6923Z" stroke="#043335"/>
<path d="M68.4118 47H5.58824C5.58824 47 1 46.6462 1 41.6923C1 36.7385 5.58824 36.3846 5.58824 36.3846H68.4118C68.4118 36.3846 73 37.0923 73 41.6923C73 46.2923 68.4118 47 68.4118 47Z" stroke="#043335"/>
</svg>
