<?xml version="1.0" encoding="utf-8"?>
<!-- Generator: Adobe Illustrator 25.2.3, SVG Export Plug-In . SVG Version: 6.00 Build 0)  -->
<svg version="1.1" id="Capa_1" xmlns="http://www.w3.org/2000/svg" xmlns:xlink="http://www.w3.org/1999/xlink" x="0px" y="0px"
	 viewBox="0 0 1920 1082.4" style="enable-background:new 0 0 1920 1082.4;" xml:space="preserve">
<style type="text/css">
	.st0{fill:#01535E;stroke:#F9F9F9;stroke-width:0.2;stroke-linecap:round;stroke-linejoin:round;}
	.st1{fill:#97C0C2;stroke:#F9F9F9;stroke-width:0.2;stroke-linecap:round;stroke-linejoin:round;}
</style>
<path id="BZ" class="st0" d="M985.4,742.8h-9l6.9-38.2l3.7-27.1l0.5-5.3l3.7-1.6l4.8,4.2l13.3-20.7l5.8-0.5l-0.5,5.3h5.3l-1.6,9.6
	l-6.9,14.3l2.1,5.3l-4.8,12.2l1.6,3.2l-5.3,17.5l-6.9,9l-5.8,1.1L985.4,742.8L985.4,742.8z"/>
<path id="CR" class="st0" d="M1127.6,911.7l6.4,18.6l10.6,13.8l13.3,14.3l-11.7,3.2l-0.5,13.8l5.8,4.8l-4.8,4.2l1.1,5.8l-3.2,6.9
	l-1.6,6.9l-15.9-7.4l-5.8-7.4l3.7-5.8l-0.5-7.4l-8-8l-11.7-6.9l-9.6-4.2l-1.6-10.1l-7.4-5.8l1.1,9.6l-6.4,8.5l-6.4-9.6l-9-3.7
	l-3.7-6.4l0.5-10.6l4.8-10.6l-8-4.8l7.4-6.9l4.8-4.2l19.1,9l6.9-4.2l9.6,2.7l4.2,6.9l9,2.7L1127.6,911.7L1127.6,911.7z"/>
<path id="CU" class="st1" d="M1288,508.7l10.1,12.2l27.6-3.7l9.6,8l22.3,21.2l17,15.4l9.6-0.5l17,6.9l-3.2,9.6l21.2,1.6l20.7,13.8
	l-4.2,8l-20.2,4.2l-20.2,1.6l-19.6-2.7l-43,3.2l22.3-18.6l-11.2-9l-19.1-2.1l-9-10.1l-4.2-19.1l-17,1.1l-26.5-9l-8-7.4l-37.7-5.3
	l-9.6-6.4l12.2-8.5l-28.7-1.6l-23.4,17.5l-12.2,0.5l-5.3,8.5l-14.9,3.7l-12.2-3.7l17-10.1l8-12.7l14.3-7.4l15.9-6.4l22.8-3.2
	l7.4-4.2l25,2.7l23.4,0.5L1288,508.7L1288,508.7z"/>
<path id="DO" class="st0" d="M1505.2,669.6l1.6-9.6l-6.9-10.1l8-5.8l3.7-13.3l-0.5-18.1l4.2-5.8h22.8l17,8.5l8-0.5l3.7,12.2
	l16.5-1.1l-2.1,10.1l13.3,1.6l13.3,12.2l-12.2,13.8l-13.8-7.4l-13.8,1.6l-9.6-1.6l-5.8,6.4l-11.7,2.1l-3.7-8.5l-10.1,4.8l-14.3,23.4
	l-6.9-5.3L1505.2,669.6L1505.2,669.6z"/>
<path id="GT" class="st0" d="M986.9,677.5l-3.7,27.1l-6.9,38.2h9l9,6.4l3.2-5.3l8,4.2l-14.9,13.3l-15.4,9.6l-2.7,6.4l1.6,6.9
	l-6.9,8.5l-7.4,2.1l1.6,4.2l-6.4,3.7l-10.6,8.5l-1.6,4.8l-14.9-5.8l-18.6-0.5l-12.7-6.9L881.8,789l2.1-10.1l4.2-8l-3.7-6.4L902,737
	h38.2l2.1-11.7l-4.2-2.1l-2.7-7.4l-10.1-8l-9.6-11.2l13.3-0.5l2.7-19.1h27.6L986.9,677.5L986.9,677.5z"/>
<path id="HN" class="st0" d="M1154.2,773.1l-10.1-0.5l-4.8,4.8l-10.6,4.2h-7.4l-6.9,4.2l-5.8-1.1l-4.8-5.3l-3.2,1.1l-4.8,8l-2.7-0.5
	l-1.1,7.4l-11.2,9l-6.4,4.2l-3.2,4.2l-8-6.9l-7.4,9h-6.4l-6.9,0.5l-1.1,17h-4.2l-4.2,8l-9.6,1.6l-4.2-10.6l-9-3.2l3.7-13.8l-3.7-3.7
	l-6.4-2.1l-13.3,3.7l-0.5-4.2l-8.5-5.8l-5.8-6.4l-8.5-3.2l6.9-8.5l-1.6-6.9l2.7-6.4l15.4-9.6l14.9-13.3l3.2,1.6l6.9-5.8l8.5-0.5
	l2.7,2.7l4.8-1.6l13.8,3.2l13.8-1.1l9.6-3.7l4.2-3.7l9,1.6l6.9,2.1l8-0.5l6.4-3.2l13.3,4.8l4.2,1.1l8.5,6.4l8,7.4l10.1,5.3
	L1154.2,773.1L1154.2,773.1z"/>
<path id="HT" class="st1" d="M1511,612.7l0.5,18.1l-3.7,13.3l-8,5.8l6.9,10.1l-1.6,9.6l-19.1-5.8l-14.3,2.1l-18.1-2.1l-14.3,6.4
	l-14.9-10.6l3.7-11.2l27.1,4.8l21.8,2.7l11.7-7.4l-12.2-14.9l2.1-13.3l-18.6-5.3l8-9l18.1,1.1L1511,612.7z"/>
<path id="JM" class="st1" d="M1350.1,675.4l-9.6,5.8l-15.9-5.8l-15.4-12.2l4.2-8l12.7-2.1l6.9,1.1l19.6,3.2l14.3,8l4.2,9.6
	L1350.1,675.4L1350.1,675.4z"/>
<path id="MX" class="st0" d="M780.9,403.5l11.7-1.1l-17,30.3l-9.6,24.4l-9.6,45.7l-5.8,16.5l2.1,18.6l6.9,17l2.1,26l15.9,25.5
	L782,626l9,16.5l30.3,9l10.1,14.3l27.6-9.6l22.8-3.2l23.4-6.4l19.1-5.8l20.7-13.8l9.6-19.6l6.4-28.7l6.4-10.1l21.2-9l32.4-8l26,1.6
	l18.1-3.2l6.4,7.4l-3.2,16.5l-18.6,20.2l-9.6,20.7l4.8,5.8l-6.4,14.9l-11.2,26.5l-6.4-9l-5.8,0.5l-5.8,0.5L996,674.9l-4.8-4.2
	l-3.7,1.6l-0.5,5.3l-27.6-0.5h-27.6l-2.7,19.1l-13.3,0.5l9.6,11.2l10.1,8l2.7,7.4l4.2,2.1l-2.1,11.7H902l-17.5,27.6l3.7,6.4l-4.2,8
	l-2.1,10.1l-29.7-36.6l-13.8-11.2l-23.4-9l-17,2.7l-25.5,12.7l-15.4,3.2l-19.6-9l-21.8-6.4L690.1,720l-21.8-4.8L637,699.3
	l-22.8-16.5l-5.8-9l-16.5-2.1l-28.7-10.6l-10.1-15.4L524.5,626l-11.7-21.2l-4.2-17l10.1-3.2L517,575l8.5-9l2.1-11.7l-8-15.4v-13.3
	l-6.9-17.5l-20.2-34l-24.4-26.5l-10.1-21.2l-21.8-13.8l-3.7-8.5l9-20.7l-12.7-8l-13.3-17l-1.1-23.4l-14.9-3.2l-12.2-17.5l-9-17
	l1.6-10.6l-8-25.5l-1.6-26l4.2-13.3l-16.5-13.8l-10.1,1.6l-12.7-9l-9.6,13.8l-0.5,15.9l-5.3,26l5.3,13.8l14.9,23.4l2.1,8.5l3.7,2.1
	l0.5,11.7l5.3-0.5v22.3l6.9,8.5l2.7,12.2l14.3,17l2.1,31.9l5.3,14.9l4.8,15.9l-1.6,18.1l13.8,1.1l8.5,15.4l8,15.4l-1.6,6.4
	l-14.9,12.2h-5.3l-3.7-20.7l-15.4-19.6l-18.1-16.5l-13.3-8.5l6.4-25l-0.5-18.6l-11.2-10.6l-16.5-14.9l-4.8,4.2l-5.3-9l-15.9-8
	L285,339.3l2.7-2.1l11.2,1.6l14.3-12.7l5.3-15.4l-15.4-24.4l-13.8-9l-4.2-21.2l-3.2-22.8l-4.2-27.1l-1.1-30.8l33.5-2.7l37.7-3.7
	l-4.8,6.9l37.2,16.5l57.9,23.9h57.3h22.8l4.2-14.3h49.9l6.9,12.2l11.2,11.2l12.7,14.9l4.2,17.5l2.1,19.1l12.2,10.1l21.2,10.1
	l25.5-26.5l23.9-1.1l17,13.8l8.5,23.4l4.8,20.2l12.7,19.1l1.1,23.9l4.8,15.9l20.7,10.6L780.9,403.5L780.9,403.5z"/>
<path id="NI" class="st0" d="M1154.2,773.1l-2.7,3.7l-2.7,7.4l2.1,12.2l-8,11.7l-4.2,13.8l-2.7,14.9l1.1,9l-0.5,15.4l-4.8,3.2
	l-3.7,14.9l1.1,9l-6.4,8.5l0.5,9l4.2,5.8l-7.4,7.4l-9-2.7l-4.2-6.9l-9.6-2.7l-6.9,4.2l-19.1-9l-4.8,4.2l-9.6-10.6l-13.3-13.8
	l-5.8-11.2l-11.7-11.2l-13.3-15.4l3.7-5.3l4.2,5.3l2.7-2.1l9.6-1.6l4.2-8h4.2l1.1-17l6.9-0.5h6.4l7.4-9l8,6.9l3.2-4.2l6.4-4.2
	l11.2-9l1.1-7.4l2.7,0.5l4.8-8l3.2-1.1l4.8,5.3l5.8,1.1l6.9-4.2h7.4l10.6-4.2l4.8-4.8L1154.2,773.1L1154.2,773.1z"/>
<path id="PA" class="st0" d="M1311.9,989.2l-3.7,4.8l5.8,20.2l-5.8,10.1l-9.6-2.7l-4.8,16.5l-9.6-9.6l-5.3-18.6l7.4-9l-7.4-2.1
	l-4.8-11.2l-14.9-9.6l-12.7,2.1l-6.9,11.7l-12.7,8.5l-6.4,1.1l-3.2,7.4l13.3,18.6l-8.5,4.2l-4.2,4.8l-14.3,2.1l-4.2-20.7l-4.2,5.8
	l-9.6-2.1l-5.3-13.3l-12.2-2.7l-8-3.7h-12.7l-1.1,7.4l-3.2-5.3l1.6-6.9l3.2-6.9l-1.1-5.8l4.8-4.2l-5.8-4.8l0.5-13.8l11.7-3.2
	l10.1,12.2l-1.1,7.4l11.7,1.6l3.2-3.2l8,8.5l14.9-2.7l13.3-8.5l18.6-6.9l10.6-10.1l16.5,2.1l-1.1,3.2l16.5,1.1l12.7,6.4l9.6,10.1
	L1311.9,989.2L1311.9,989.2z"/>
<path id="SV" class="st0" d="M1010.3,828.3l-3.7,8l-17.5-0.5l-10.6-3.2l-11.7-6.9l-15.9-2.1l-8-7.4l1.6-4.8l10.6-8.5l6.4-3.7
	l-1.6-4.2l7.4-2.1l8.5,3.2l5.8,6.4l8.5,5.8l0.5,4.2l13.3-3.7l6.4,2.1l3.7,3.7L1010.3,828.3L1010.3,828.3z"/>
<path id="AW" class="st1" d="M1543.4,860.7l-2.7-1.1l-2.7-2.7l0.5-3.2l1.1,1.6l2.1,2.1l1.6,2.7V860.7L1543.4,860.7z"/>
<path id="AI" class="st1" d="M1762.7,663.7h-1.1l1.6-2.1h1.6l-1.1,1.6L1762.7,663.7L1762.7,663.7z"/>
<path class="st1" d="M1797.2,700.9l3.2,1.6l-1.1,1.6h-1.1l-3.7,0.5l-1.1-0.5v-2.7l1.6-0.5l0.5-1.6h1.1L1797.2,700.9z"/>
<path class="st1" d="M1797.2,681.2h1.1l1.1,1.1l0.5,2.1l-0.5,1.6l-1.1,0.5l-0.5-1.1l-1.6-1.1v-2.7L1797.2,681.2z"/>
<path class="st1" d="M1477,563.4l-2.1,2.7l-1.1,2.7l-3.2,1.6h-2.7l-0.5-0.5l-2.1,1.1l-2.7,0.5l-3.2-1.1l-2.1,0.5l-0.5-2.7l1.6-1.1
	l1.1-1.6l2.1-1.1l1.6-2.1h2.1l1.6-1.1l1.1,1.6l2.7,1.1l2.7-1.1l3.7-5.3h1.6v1.1L1477,563.4z"/>
<path class="st1" d="M1478.1,554.3l-1.1-3.2l3.2-1.6l1.6,1.6v1.1l-1.6,0.5L1478.1,554.3z"/>
<path class="st1" d="M1480.2,519.8l1.1-0.5l2.7,1.6h2.1l2.1,0.5l1.6,1.1v1.6l-1.1,0.5l-2.7-2.1h-2.1l-0.5-0.5l-2.7,1.1l-2.7-1.1
	v-0.5l1.1-2.7L1480.2,519.8z"/>
<path class="st1" d="M1459.5,510.3l-1.1,2.1v3.7l-0.5,2.1l-2.1,1.6l-1.1,2.1l-2.1,1.6l-3.7,1.6l-0.5,1.1l-1.1-1.1l0.5-1.1l2.1-0.5
	l1.1-1.1v-1.1l2.1-0.5l1.1-2.1l2.1-0.5l1.6-2.1l-1.1-1.6h-2.1l-1.1-1.1l2.1-2.7l0.5-0.5H1459.5z"/>
<path class="st1" d="M1449.4,508.7l0.5,0.5h2.1l2.1,1.1l-2.1,2.1l-0.5-1.1h-1.1l-2.1-0.5l-2.1-1.1l-1.6-3.2l1.6-0.5l2.1,0.5
	L1449.4,508.7z"/>
<path class="st1" d="M1400.6,477.4l3.2,3.7l1.6,1.1l1.6,2.7l-1.6-0.5l-0.5-1.1l-1.6-0.5l-2.1-2.1l-1.1-0.5l-1.1-2.1L1400.6,477.4z"
	/>
<path class="st1" d="M1420.2,477.4l1.6,3.2l1.1,2.7v2.1l1.1,1.1l1.1,3.7v4.8l1.1,1.6l2.7,1.1l2.1,3.2v4.2l-2.1-3.7v-1.1l-1.6-2.1
	l-3.2-1.1l1.1-1.1l-1.6-1.6v-1.6l1.1-1.6l-0.5-2.7l-1.6-2.1l0.5-0.5l-1.6-2.1l-0.5-3.2l-1.1,0.5L1420.2,477.4z"/>
<path class="st1" d="M1435.6,477.4l-1.6,1.1l-1.6-0.5l-0.5-1.1l3.2-1.1L1435.6,477.4z"/>
<path class="st1" d="M1392.1,467.3l-0.5-0.5l-1.6-3.7h1.1L1392.1,467.3z"/>
<path class="st1" d="M1447.8,464.6l-2.1,3.2h-2.1l1.1-1.6l0.5-3.2l2.1-1.6l0.5,2.1V464.6z"/>
<path class="st1" d="M1349.6,458.2l-1.6,0.5l-1.1,1.6l-1.6-0.5l3.2-2.1L1349.6,458.2z"/>
<path class="st1" d="M1350.7,462l2.1,1.1l1.1-1.1l0.5-2.7l1.1-0.5l1.1,3.2v2.7l-0.5,1.6l0.5,3.2v1.6l-2.1,4.2l-1.1,0.5l-2.1-1.1
	l1.1-1.6l2.1-1.1l-0.5-0.5l-3.2,2.1l-1.1-1.1l2.1-1.6h-2.1l-1.1,0.5l-1.1-1.1v-3.7l0.5-1.1l-2.1-2.7V462l2.1-1.1l0.5-1.6l1.6-0.5
	l0.5-1.1l3.2-1.6l0.5,2.1l-2.7,2.1L1350.7,462z"/>
<path class="st1" d="M1422.3,458.8l0.5,2.7l-1.1-0.5l-2.7,0.5l-2.1,0.5l-0.5-1.1l1.6-1.1l2.1-1.6v-1.1l-2.1-1.1l-1.1-3.2l-0.5-3.2
	l-2.1-2.1v-1.1l-2.7-2.7l1.6-1.6l2.1,2.1v2.7l1.1,1.6l0.5,2.7l1.6,2.7l2.1,1.6l0.5,1.6L1422.3,458.8z"/>
<path class="st1" d="M1367.6,429.6l1.6,1.1l-3.2,1.6l-1.6-0.5l-1.1,1.1l-2.7-0.5l1.1-1.6l2.1-1.1H1367.6z"/>
<path class="st1" d="M1345.3,426.9l2.1-1.1l1.6,1.6l-0.5,1.1l0.5,1.1l-1.1,2.1l1.6,1.6l1.1,4.8l1.1,1.6l2.1,2.7l-1.1,3.7l0.5,3.2
	l-1.1,1.6l-1.6,0.5l-2.1,2.1l-1.6,1.1h-1.6l-1.6,1.1h-1.6v-2.1l-1.6-1.1l0.5-3.2l-1.6,1.6l-1.1-0.5l-3.2-2.1l-1.6-1.6l-1.1-1.6
	l3.7-1.6l2.7,3.7l0.5-3.2l-1.6-0.5l-0.5-1.6l0.5-1.6l3.2-3.2l1.1-2.1l-0.5-0.5l1.6-2.1v-2.7l-1.1-3.7l0.5-0.5h1.6L1345.3,426.9z"/>
<path class="st1" d="M1388.4,413.1l0.5,1.1l1.6,2.1l4.2,3.7l2.7,0.5l0.5,0.5l1.1,2.1l1.6,2.1l2.7,2.1v1.1l-1.1,4.2l-0.5,1.1v1.6
	l-0.5,2.7l-1.1,1.6l-0.5,3.7l-0.5,0.5l-1.1-3.2l-2.1-1.6l0.5-1.1l2.7,0.5l1.1-1.1l-0.5-1.1l0.5-2.1l1.6-2.1l0.5-2.7V428l-2.7-2.1
	l-2.1-3.7l-1.6-1.1l-3.2-1.6l-1.6-1.6l-3.2-1.1l-2.1,1.1l2.1-4.8H1388.4z"/>
<path class="st1" d="M1341.6,373.3l2.7,1.1h0.5l3.7,0.5l1.1-1.1l1.1,0.5h2.7l2.1-1.1h2.1l1.6-1.1l0.5,2.7l-0.5,1.1h-1.6h-2.1
	l-5.8,1.1h-1.6l-8,2.1l-3.7,2.1h-2.1l-1.1-0.5l-1.6-1.6l-2.7-3.2l3.2,1.6l0.5,1.1h2.7l2.7-1.1l2.1-3.2l-1.6-0.5l1.1-1.6l0.5-1.6
	L1341.6,373.3z"/>
<path class="st1" d="M1364.5,366.4l4.2,1.1l1.1-0.5l2.1,1.6l4.8,5.3l1.1,3.2l2.1,0.5l3.7,2.7v1.1l-1.1,2.7l1.1,3.7h-2.1l-2.7,2.1
	l-0.5,1.1l-1.6,5.3l-0.5,4.8l-1.1,1.1l-1.6-1.1l-0.5-2.1l-2.1-0.5l1.6-2.7h1.1l2.7-2.1l-0.5-2.1l1.1-2.1v-1.6l1.1-1.6v-3.2l1.1-0.5
	l1.1-1.6l0.5-1.6l-1.6-0.5l-2.7-0.5l-0.5-1.6v-1.1l-2.1-1.1v-1.6l-1.6-3.7l-1.1-0.5l-1.6,0.5l-2.7-0.5h-1.6l-3.2-2.1H1364.5z"/>
<path id="BL" class="st1" d="M1768,674.9l-0.5-1.6l1.6,0.5L1768,674.9L1768,674.9z"/>
<path id="BM" class="st1" d="M1779.1,181.1h-1.6l-0.5,0.5l0.5,1.1l-2.1,1.1l-0.5-0.5l1.1-0.5h0.5l0.5-1.6l1.6-0.5L1779.1,181.1
	L1779.1,181.1z"/>
<path id="BB" class="st1" d="M1854.5,839.5l-3.2-1.1l-0.5-2.7v-4.2l1.1-2.1l1.1,1.1l1.1,3.2l2.7,1.6l0.5,2.1L1854.5,839.5
	L1854.5,839.5z"/>
<path id="CW" class="st1" d="M1575.8,874h-1.6l-2.1-1.6l-1.6-0.5l-1.6-1.6l-0.5-1.1l-1.6-0.5l-1.1-2.1l-1.6-1.6l0.5-2.7l2.7,1.6
	l0.5,2.7l2.1,2.1l3.7,1.1l1.1,1.6l1.6,2.1L1575.8,874L1575.8,874z"/>
<path class="st1" d="M1223.8,626l1.6,0.5l1.1-2.1l2.1,0.5h2.7l0.5,1.1l-1.1,1.1l-1.1-0.5l-2.1,0.5l-1.1,0.5h-3.7L1223.8,626z"/>
<path class="st1" d="M1266.8,612.7l-3.7,1.6l1.1-1.6H1266.8z"/>
<path class="st1" d="M1269.9,613.3l-0.5-0.5l4.2-1.6l-1.1,1.6L1269.9,613.3z"/>
<path id="DM" class="st1" d="M1804.1,752.9l2.7,0.5l1.1,2.7v3.2l-0.5,4.2l-0.5,1.1l-1.1,0.5l-2.1,1.1l0.5-2.1l-0.5-1.1l-0.5-3.7
	l-1.6-2.7V755l0.5-1.6v-1.6h1.1L1804.1,752.9L1804.1,752.9z"/>
<path id="GD" class="st1" d="M1789.2,874l-2.1,1.6l-1.1-0.5l-0.5-2.7l1.1-2.7l1.6-2.1h1.6l0.5,1.6l-0.5,3.7L1789.2,874z"/>
<path class="st1" d="M1773.8,701.4h-1.6l-0.5-1.1l1.1-2.1h1.1l0.5,1.1L1773.8,701.4z"/>
<path class="st1" d="M1770.1,693.5l-0.5,1.6h-1.1l-2.1-1.1l-1.1-1.1l1.6-2.1l2.7,2.1L1770.1,693.5z"/>
<path id="LC" class="st1" d="M1813.1,817.2l-1.1-1.1l-2.1-1.1l-0.5-1.1v-3.2l0.5-1.1l3.7-5.8l1.6,1.1v3.7l-0.5,4.2l-0.5,2.1
	L1813.1,817.2L1813.1,817.2z"/>
<path id="MF" class="st1" d="M1762.7,669.6l-2.1-0.5l1.1-1.6l1.6-0.5L1762.7,669.6z"/>
<path id="MS" class="st1" d="M1783.9,711.5l1.1,2.1v1.6l-1.1,1.1l-1.1-0.5l-0.5-1.6L1783.9,711.5z"/>
<path class="st1" d="M1618.8,669l-1.6-1.1l0.5-1.1h1.6l0.5,0.5L1618.8,669z"/>
<path class="st1" d="M1696.3,666.4h-1.1l-4.8,1.6h-3.2l1.1-1.1l2.1-1.1l2.1-0.5l3.2,0.5L1696.3,666.4z"/>
<path class="st1" d="M1645.9,653.6l3.2,0.5h3.2l1.6,0.5l3.2-0.5l1.6,0.5l2.1-0.5l1.1,0.5l2.7-0.5l2.1,0.5h1.6l4.2,1.1v-1.1l3.2,1.1
	l0.5-0.5l4.2,0.5l1.1,1.1h1.1l3.2,1.6l1.1-0.5l-0.5,3.7l1.1,1.6l-4.8,1.6l-1.6,2.1l-1.6,3.2l-1.6,1.1l-1.6,0.5h-2.1l-3.2,0.5
	l-1.6,1.1l-3.7-0.5l-1.1-1.1l-2.7,1.1l-1.6-1.6l-3.7,1.1l-4.8-0.5l-1.6,0.5l-3.2,0.5l-1.1,0.5l-1.1-1.1l-2.1-0.5l-1.6,1.1l-3.2-0.5
	l1.6-3.7v-2.1l1.1-2.1l-1.1-3.2l-1.1-0.5l-0.5-2.1l2.1-1.1l1.1-0.5v-2.7l2.1-1.1L1645.9,653.6z"/>
<path id="SX" class="st1" d="M1762.7,669.6v0.5l-2.1-0.5V669L1762.7,669.6z"/>
<path class="st1" d="M1515.8,540h3.7l1.6,2.1h-1.6l-1.6-0.5l-2.7,0.5l-0.5-1.6L1515.8,540z"/>
<path class="st1" d="M1501.4,539.5l1.6,2.1l3.2-0.5l-1.1,1.1h-3.2l-2.1-1.1L1501.4,539.5z"/>
<path class="st1" d="M1513.1,536.3v2.7l-2.7-1.1l-0.5-1.6l0.5-0.5L1513.1,536.3z"/>
<path class="st1" d="M1808.3,914.9l-1.1,2.7l-1.6,2.1l-1.1,0.5l-0.5,2.1l1.1,3.2l-1.1,0.5v3.7l1.1,1.6l1.1,1.1l-1.1,1.1l-0.5,1.6
	v3.7l-1.1,0.5l-2.1,1.1l-2.7,0.5h-1.6l-2.7,0.5l-2.7-0.5l-2.1,0.5l-1.6-0.5l-2.7,1.1l-2.1-1.1h-3.2l-1.6,1.1l-1.6-0.5l2.7-1.1
	l1.6-1.6l2.1-0.5l2.1-1.6l1.1-1.6l3.2,0.5l1.6-2.1l-1.1-4.2l1.1-2.1v-2.7v-1.1l-1.6-2.1l-1.6-0.5l-2.1-0.5l-0.5-0.5l2.1-1.6l5.8-0.5
	l1.1-1.1h5.8l0.5-0.5l6.4-1.1H1808.3z"/>
<path class="st1" d="M1821.1,897.9l-0.5,2.7l-1.6,0.5l-2.1,1.6h-1.1l-3.7,2.1l-1.1-1.1l1.6-1.6l3.7-2.7L1821.1,897.9z"/>
<path id="VC" class="st1" d="M1805.2,836.3l-0.5,0.5l-2.7-1.6v-2.1l1.1-1.6l1.1-2.7h2.1l0.5,2.1l-0.5,4.2L1805.2,836.3L1805.2,836.3
	z"/>
<path id="VG" class="st1" d="M1719.7,655.8l-2.1,1.1h-0.5l-1.6,1.1l-0.5-0.5l0.5-1.6l3.2-0.5L1719.7,655.8L1719.7,655.8z"/>
<path class="st1" d="M1711.2,679.1l1.6,1.6l-5.8,1.1l-0.5-2.7l3.7-1.1L1711.2,679.1z"/>
<path class="st1" d="M1714.9,658.9l-1.1,1.1h-2.7v-1.1l1.6-0.5L1714.9,658.9z"/>
<path class="st1" d="M1707.5,657.9l2.1,1.6l-1.1,1.1l-1.6-1.1h-2.7l1.1-1.1L1707.5,657.9z"/>
<path id="BQBO" class="st1" d="M1591.7,874.5h-1.1l-0.5-2.7l0.5-1.6l-0.5-1.6l-2.1-0.5l-1.6-1.6l0.5-1.6l6.4,3.2l-0.5,1.1v2.1
	l-1.1,1.1V874.5L1591.7,874.5z"/>
<path id="BQSE" class="st1" d="M1763.2,688.7l-1.1,0.5v-1.1l0.5-0.5L1763.2,688.7L1763.2,688.7z"/>
<path id="BQSA" class="st1" d="M1755.2,683.9h-0.5l0.5-1.1l0.5,0.5L1755.2,683.9z"/>
<path id="MQ" class="st1" d="M1814.7,780.5v1.1l2.1-0.5l-1.1,2.7l1.1,1.1v1.1l1.1,1.1l1.1,4.8l-1.6,1.6l-0.5-2.1l-0.5,0.5l-3.2-0.5
	h-2.1l-1.1-1.6l3.2-2.7h-2.1l-2.1-2.1l-0.5-2.7l-1.1-2.7l1.6-2.1l2.1,0.5l2.7,1.6L1814.7,780.5L1814.7,780.5z"/>
<path class="st1" d="M1809.4,743.4h-1.6l-1.1-2.1l0.5-1.1l1.6-1.6l1.6,1.1l0.5,1.6v1.1L1809.4,743.4z"/>
<path class="st1" d="M1799.8,729.6h1.6v1.1v0.5l-1.1,0.5v4.2v2.1l-1.1,1.1l-3.2,1.6v-1.1l-1.1-1.1l-0.5-2.7v-2.7l-0.5-2.7V729
	l1.1-1.6l1.6-0.5l2.7,1.6L1799.8,729.6z"/>
<path class="st1" d="M1807.3,727.4l2.1,0.5l2.7,2.1l-6.9,1.6l-1.6,0.5l-2.1-1.6l0.5-3.2l1.1-0.5l-0.5-3.2l0.5-1.1l1.6-1.1l1.6,2.1
	v2.1L1807.3,727.4z"/>
<g>
	<g>
		<polygon class="st1" points="208,86 203.8,104.6 208.6,110.5 234,113.6 240.4,122.7 255.8,124.8 255.3,134.3 267,138.6 
			278.1,158.2 276.5,175.2 310,172.6 347.7,168.9 342.9,175.8 380.1,192.2 437.9,216.1 495.3,216.1 518.1,216.1 522.4,201.8 
			572.3,201.8 579.2,214 590.3,225.1 603.1,240 607.3,257.5 609.4,276.6 621.6,286.7 642.9,296.8 668.4,270.3 692.3,269.2 
			709.3,283 717.7,306.4 722.5,326.6 735.3,345.7 736.3,369.6 741.1,385.5 761.8,396.1 780.9,403.5 792.6,402.5 789.4,390.8 
			791.6,374.9 796.9,351 806.9,335.6 826.6,319.7 859,304.8 891.4,279.8 917.9,271.9 936.5,269.2 955.6,277.2 981.6,272.9 
			999.2,291 1019.9,292 1032.1,285.7 1041.6,290.5 1048,286.2 1043.8,279.3 1047.5,265.5 1044.3,256.5 1057.6,251.2 1080.4,248.5 
			1104.8,252.8 1138.8,248 1154.7,256.5 1165.3,272.4 1170.1,274.5 1202.5,258.6 1212.6,263.9 1229.1,292.6 1233.3,311.2 
			1222.7,334 1224.8,347.3 1233.3,373.3 1243.9,402.5 1253.5,410.4 1255.6,425.3 1269.4,429.6 1279,425.3 1289.6,404.6 
			1292.8,391.3 1298.1,368 1291.2,328.7 1293.8,313.8 1285.9,289.9 1282.7,260.7 1282.7,236.8 1292.8,212.9 1311.4,192.8 
			1331.5,176.3 1368.2,154 1375.1,142.8 1393.1,130.1 1408,128 1431.4,107.8 1463.7,97.7 1488.2,72.8 1493.5,38.8 1493.5,27.1 
			1486,24.4 1492.1,0 195,0 192.1,4.8 194.7,52 		"/>
		<polygon class="st1" points="1504.9,0 1495.1,14.9 1497.2,15.9 1511.3,0 		"/>
	</g>
</g>
<polygon class="st1" points="1581.6,1074.7 1559.9,1073.1 1547.6,1076.8 1527.5,1047.1 1509.9,1042.8 1471.2,1046 1464.8,1034.3 
	1457.4,1031.7 1456.8,1024.2 1460.6,1011.5 1459,998.2 1452.6,990.3 1449.4,974.9 1434,972.7 1443.6,952.6 1448.4,928.1 
	1457.9,915.4 1470.1,905.8 1478.6,888.8 1498.3,883 1498.3,883 1504.6,871.9 1497.7,862.8 1487.1,860.7 1471.7,877.2 1459.5,884.6 
	1435.1,901.6 1411.7,898.9 1408.5,905.8 1389.9,906.9 1371.9,922.3 1364.5,951.5 1363.9,962.7 1351.2,966.4 1327.3,990.3 
	1311.9,989.2 1308.2,994 1314,1014.2 1308.2,1024.2 1298.6,1021.6 1293.8,1038 1305.5,1056.6 1308.9,1082.4 1607.3,1082.4 
	1609.2,1076.8 1598.6,1071 "/>
<polygon class="st1" points="1812.6,991.9 1808.9,964.8 1786.6,947.8 1762.7,945.7 1753.1,929.2 1779.1,919.1 1743.6,919.6 
	1705.9,921.8 1705.3,930.3 1687.8,940.9 1665.5,936.6 1649.1,921.8 1616.7,925 1590.1,925 1589.1,913.3 1571,894.7 1549.8,894.2 
	1540.7,869.7 1529.6,880.9 1532.8,896.8 1494.5,910.6 1494.5,936.6 1503.6,948.3 1495.6,973.3 1482.3,975.4 1472.2,948.3 
	1486.6,928.7 1488.2,910.6 1479.1,895.2 1497.2,891 1498.3,883 1478.6,888.8 1470.1,905.8 1457.9,915.4 1448.4,928.1 1443.6,952.6 
	1434,972.7 1449.4,974.9 1452.6,990.3 1459,998.2 1460.6,1011.5 1456.8,1024.2 1457.4,1031.7 1464.8,1034.3 1471.2,1046 
	1509.9,1042.8 1527.5,1047.1 1547.6,1076.8 1559.9,1073.1 1581.6,1074.7 1598.6,1071 1609.2,1076.8 1607.3,1082.4 1787.7,1082.4 
	1787.1,1081.6 1795.6,1072 1795.6,1056.1 1814.2,1050.8 1821.6,1044.4 1812.1,1031.7 1814.7,1019.5 1839.7,999.3 1839.7,999.3 
	1828,991.3 "/>
<polygon class="st1" points="1915.1,1081.1 1915.1,1081.1 1903.9,1068.8 1888,1052.4 1876.8,1051.9 1876.3,1033.8 1858.8,1012 
	1839.7,999.3 1814.7,1019.5 1812.1,1031.7 1821.6,1044.4 1814.2,1050.8 1795.6,1056.1 1795.6,1072 1787.1,1081.6 1787.7,1082.4 
	1914.8,1082.4 "/>
</svg>
